<svg xmlns="http://www.w3.org/2000/svg" viewBox="0 0 15.938 15.906"><g transform="translate(-520.56-261.56)"><g fill="#636363"><path stroke="#a1a1a1" stroke-width=".618" d="m520.94 277.15l.433-2.753c.6-1.653.552-1.7-.294-3.353l.155-3.307c-.776-1.914.412-2.132 1.176-3.529.394-.413 1.665-.988 2.518-1.539 1.237-.942 1.391-.575 2.829-.575l2.099.1 1.769-.333c1.566.058 1.278.625 2.844 1.267.937.523.939 1.724 1.377 2.379.3 1.406-.607 1.782-.689 2.283-.124.449.341 1.341.474 1.716l.353.996c.314.47.241.957.132 1.281-.36 1.307.076 1.26.076 2.5-.478.94-.193.378-.506 1.493l.257 1.373z"/><path d="m521.32 276.71l-.112.748h14.49l-.137-.637z"/></g><path fill="#757575" d="m527.84 264.45c-1.769.209-2.494.838-3.247 1.362-1.062 1.072-.939 1.286-1.275 2.438.197 1.522.022 3.335.711 5.264.028 1.38-.325 2.71-.843 3.944l10.07-.006c-.353-1.57.833-2.952.743-4.74-.119-1.26-.976-2.101-.771-4.82.217-.871 1.292-1.853.131-3.13-1.201-1.039-4.226-.145-5.521-.313"/><path fill="#828282" d="m526.69 271.91c.423 1.236 1.162 2.275 2.481 2.223 1.088-.653 1.241-1.911 1.485-3.11.479-1.3.346-2.679-.285-4.121-.841-.255-1.35.773-2.499 1.388-.843.451-1.467 2.969-1.182 3.619"/></g></svg>