<?xml version="1.0" encoding="UTF-8" standalone="no"?>
<!-- Created with Inkscape (http://www.inkscape.org/) -->

<svg
   xmlns:dc="http://purl.org/dc/elements/1.1/"
   xmlns:cc="http://creativecommons.org/ns#"
   xmlns:rdf="http://www.w3.org/1999/02/22-rdf-syntax-ns#"
   xmlns:svg="http://www.w3.org/2000/svg"
   xmlns="http://www.w3.org/2000/svg"
   xmlns:sodipodi="http://sodipodi.sourceforge.net/DTD/sodipodi-0.dtd"
   xmlns:inkscape="http://www.inkscape.org/namespaces/inkscape"
   version="1.1"
   width="1005.4"
   height="1005.4"
   id="svg2"
   xml:space="preserve"
   inkscape:version="0.48.4 r9939"
   sodipodi:docname="AJAX1.svg"><sodipodi:namedview
     pagecolor="#ffffff"
     bordercolor="#666666"
     borderopacity="1"
     objecttolerance="10"
     gridtolerance="10"
     guidetolerance="10"
     inkscape:pageopacity="0"
     inkscape:pageshadow="2"
     inkscape:window-width="1280"
     inkscape:window-height="1004"
     id="namedview28"
     showgrid="false"
     fit-margin-top="0.2"
     fit-margin-left="0.2"
     fit-margin-right="0.2"
     fit-margin-bottom="0.2"
     inkscape:zoom="0.51603029"
     inkscape:cx="361.15054"
     inkscape:cy="493.60159"
     inkscape:window-x="-8"
     inkscape:window-y="-8"
     inkscape:window-maximized="1"
     inkscape:current-layer="svg2" /><metadata
     id="metadata8"><rdf:RDF><cc:Work
         rdf:about=""><dc:format>image/svg+xml</dc:format><dc:type
           rdf:resource="http://purl.org/dc/dcmitype/StillImage" /></cc:Work></rdf:RDF></metadata><defs
     id="defs6" /><path
     inkscape:connector-curvature="0"
     style="fill:#ffffff;fill-opacity:1;stroke:#ed1c23;stroke-width:5;stroke-miterlimit:4;stroke-opacity:1;stroke-dasharray:none"
     d="M 2.7,502.70001 C 2.7,226.55763 226.55763,2.7 502.7,2.7 c 276.14238,0 500,223.85763 500,500.00001 0,276.14237 -223.85762,499.99999 -500,499.99999 -276.14237,0 -500,-223.85762 -500,-499.99999 z"
     id="path3854" /><path
     id="path14622"
     d="M 968.075,502.70001 C 968.075,245.68049 759.71952,37.325 502.7,37.325 245.68047,37.325 37.325,245.68049 37.325,502.70001 37.325,759.71953 245.68047,968.075 502.7,968.075 c 257.01952,0 465.375,-208.35547 465.375,-465.37499 z"
     style="fill:#ed1c23;fill-opacity:1;stroke:none"
     inkscape:connector-curvature="0" /><path
     id="path15520"
     d="m 835.55,502.7 c 0,-183.82797 -149.02204,-332.85 -332.85,-332.85 -183.82798,0 -332.85,149.02203 -332.85,332.85 0,183.82797 149.02202,332.84999 332.85,332.84999 183.82796,0 332.85,-149.02202 332.85,-332.84999 z"
     style="fill:#ffffff;fill-opacity:1;stroke:none"
     inkscape:connector-curvature="0" /><path
     style="fill:#ed1c23;fill-opacity:1;stroke:none"
     d="M 783.75726,851.49809 851.49809,783.75726 221.64272,153.9019 153.90189,221.64273 z"
     id="path3011"
     inkscape:connector-curvature="0"
     sodipodi:nodetypes="ccccc" /></svg>