<svg xmlns="http://www.w3.org/2000/svg" viewBox="0 0 6.986 16" xmlns:xlink="http://www.w3.org/1999/xlink"><defs><rect width="2" x="3" y="2.25" rx="1" height="7.5" ry=".504" fill-rule="evenodd" id="a"/></defs><g transform="matrix(2.02532 0 0 2.02532-5.671-4.152)"><g stroke="#000" stroke-width=".4"><path fill-rule="evenodd" stroke-linejoin="round" d="m4.87 9.495c0 0 .873-1.112 1.123-1.362.25-.25-.383-.441-.758-.43-.353.007-.971.124-1.242.43-.469.529-.986 1.111-.986 1.111z"/><use fill="#fff" xlink:href="#a"/></g><use fill="#d50000" xlink:href="#a"/><g fill-rule="evenodd"><rect x="3" y="5.5" rx=".93" ry=".504" width="2" fill="#d2d2d2" height="3"/><rect x="3" y="3.5" rx=".93" ry=".504" width="2" fill="#d50000" height="3"/><rect x="3" y="2.25" rx=".93" ry=".504" width="2" fill="#d2d2d2" height="2.25"/><g fill="#fff"><path d="m3 2.75c0 .341.451.657 1 .66.552.002.996-.317 1-.66-.004.231-.448.366-1 .365-.549-.002-1-.135-1-.365"/><path fill-opacity=".875" d="m4 3.25l-.25 2 .25 4.75.25-4.75z" transform="matrix(1 0 0 .96296 0 .12)"/></g></g></g></svg>