<svg xmlns="http://www.w3.org/2000/svg" viewBox="0 0 117.88 58.08"><g fill="#c3b115" stroke="#000" stroke-width="1.27" transform="translate(-318.21-903.31)"><path d="m365.47 916.11c-5.945-5.896-13.379-8.756-20.704-10.352-6.604-1.298-13.987-.775-19.516 4.514-4.843 4.712-7.06 13.04-6.248 20.602.945 7.783 5.661 13.841 10.844 17.581 6.06 4.3 12.903 6.694 19.779 7.608 6.239.72 13.07-.578 17.858-6.139 4-4.798 5.632-11.347 4.919-18.249-3.212 1.11-5.997 2.091-8.883 4.24-1.081 1.396-1.326 3.458-2.801 4.729-3.065 3.383-7.432 3.35-11.241 2.838-5.544-1.03-11.161-2.886-15.924-6.779-2.712-2.234-5.288-5.988-4.796-10.398.259-3.79 2.606-6.913 5.448-7.824 5.333-1.856 10.924-.186 16.09 1.752 3.101 1.253 5.749 2.618 8.345 5.167 2.704-2.814 6.05-4.816 9.353-6.195-.86-1.211-1.52-2.08-2.523-3.096z"/><path d="m401.74 923.12c-4.201-3.909-9.286-6.119-14.468-6.495-6.629-.495-13.357.602-19.656 3.298-1.473.858-3.515 1.7-5.093 2.879-3.447 2.455-6.453 5.979-8.678 10.138-1.692 3.278-2.587 6.746-1.3 10.397 3.02-.074 6.49-.494 8.287-3.874-.015-2.533 1.914-3.928 3.606-4.81 6.703-4.03 14.14-5.647 21.5-5.91 2.483-.023 5.125.196 7.567 1.124 1.588.642 3.108 2.301 3.117 4.577.531 2.734-1.685 3.804-2.261 5.578-.22 3.82 2.096 6.607 5.078 7.697 2.953-2.546 4.826-4.476 6.32-8.681 1.552-5.098.392-11.483-3.02-14.916-.322-.351-.658-.683-1-1zm-18.291 19.87c-4.502 1.046-7.845 1.871-12.421 1.65-1.53 4.41-4.486 7.507-7.922 9.463 7.589 3.509 15.351 2.835 23.15.946 1.39-.146 2.197-.546.941-1.934-1.679-3.01-3.491-6.419-3.75-10.125z"/><path d="m428.89 908.45c-4.842-5.057-11.667-5.353-17.48-3.34-6.529 2.295-13.565 6.947-18.829 12.323 3 .285 8.741 4.163 10.625 6.595 4.417-3.489 9.721-7.539 15.05-7.498 3.229-.107 6.282 2.798 7.03 6.817.942 4.816-1.611 9.325-4.178 12.499-3.911 4.618-8.566 8.203-13.511 10.709-3.47 1.618-7.752 2.79-11.06.009-2.728-2.355-3.765-7.238-2.345-11.03.033-1.486 1.813-3.01 1.102-3.787-.828-1.481-4.781-2.583-8.867-2.526-2.929 5.755-3.752 11.34-1.602 17.733 2.055 6.509 6.496 11.996 12.02 13.293 6.411 1.697 12.998-.895 18.704-4.546 6.873-4.584 13.671-10.536 17.538-19.359 2.501-5.558 3.185-12.569 1.134-18.529-1.182-3.582-2.966-6.901-5.342-9.359z"/></g></svg>