<svg height="16" width="16" xmlns="http://www.w3.org/2000/svg" xmlns:xlink="http://www.w3.org/1999/xlink"><linearGradient id="a"><stop offset="0"/><stop offset=".58" stop-color="#73e9d9"/><stop offset="1" stop-color="#366e66"/></linearGradient><linearGradient id="b" gradientUnits="userSpaceOnUse" x1="8" x2="8.04" xlink:href="#a" y1="14" y2="12"/><linearGradient id="c" gradientUnits="userSpaceOnUse" x1="6.9" x2="9.1" y1="8.5" y2="8.5"><stop offset="0" stop-color="#1b2936"/><stop offset=".64" stop-color="#c1c1c1"/><stop offset=".775" stop-color="#a8aeb5"/><stop offset="1" stop-color="#2d3449"/></linearGradient><linearGradient id="d" gradientUnits="userSpaceOnUse" x1="8" x2="8.04" xlink:href="#a" y1="11" y2="9"/><linearGradient id="e" gradientUnits="userSpaceOnUse" x1="8" x2="8.04" xlink:href="#a" y1="8" y2="6"/><linearGradient id="f" gradientUnits="userSpaceOnUse" x1="8" x2="8.04" xlink:href="#a" y1="5" y2="3"/><radialGradient id="g" cx="6.13" cy=".33" gradientTransform="matrix(.9225 .4115 -.6168 1.383 2.886 -.9829)" gradientUnits="userSpaceOnUse" r="1.05"><stop offset="0" stop-color="#c1c1c1"/><stop offset="1" stop-color="#454b51"/></radialGradient><g stroke-width=".1"><g stroke="#333"><path d="m3 9.5v1h10v-1z" fill="url(#d)"/><path d="m3 6.5v1h10v-1z" fill="url(#e)"/><path d="m3 3.5v1h10v-1z" fill="url(#f)"/><path d="m3 12.5v1h10v-1z" fill="url(#b)"/></g><g stroke-linejoin="round"><path d="m7 2v13s.23.45 1 .45c.83 0 1-.45 1-.45v-13z" fill="url(#c)" stroke="#ccc"/><ellipse cx="8" cy="2" fill="url(#g)" rx="1" ry=".45" stroke="#e6e6e6"/></g></g></svg>