<svg xmlns="http://www.w3.org/2000/svg" viewBox="0 0 16 12"><g transform="translate(0-1040.36)"><g color-rendering="auto" color-interpolation-filters="linearRGB" shape-rendering="auto" image-rendering="auto" fill-rule="evenodd" text-rendering="auto" color-interpolation="sRGB" color="#000"><path fill="#717171" d="m0 1048.36h16v4h-16z"/><path fill="#8a9ced" d="m0 1040.36h16v8h-16z"/><rect x="1" y="1041.06" rx="1" ry="1.037" width="2" height="8.3"/><path d="m2 1043.36h13v1h-13z"/><path d="m2 1049.36h13v1h-13z"/><rect x="14" y="1042.21" rx=".5" ry=".509" width="1" height="8.149"/><rect x="11" y="1042.21" rx=".5" ry=".509" width="1" height="8.15"/><rect x="5" y="1042.21" rx=".5" ry=".509" width="1" height="8.15"/></g><path fill="none" stroke="#000" stroke-width="1.2" d="m1.874 1044.26l12.568 5.136"/><g color-rendering="auto" color-interpolation-filters="linearRGB" shape-rendering="auto" image-rendering="auto" fill-rule="evenodd" text-rendering="auto" color-interpolation="sRGB" color="#000"><rect x="8" y="1042.21" rx=".5" ry=".509" width="1" height="8.15"/><path d="m1 1047.36h2v4h-2z"/></g></g></svg>