<?xml version="1.0"?>
<svg xmlns:rdf="http://www.w3.org/1999/02/22-rdf-syntax-ns#" xmlns="http://www.w3.org/2000/svg" xmlns:cc="http://web.resource.org/cc/" xmlns:xlink="http://www.w3.org/1999/xlink" xmlns:dc="http://purl.org/dc/elements/1.1/" id="svg1714" height="220pt" width="200pt">
 <defs id="defs3">
  <radialGradient id="radialGradient14530" gradientUnits="userSpaceOnUse" cy="1005.8" cx="170.2" gradientTransform="scale(1.819 .54975)" r="2.6937">
   <stop id="stop14419" stop-color="#e0b524" offset="0"/>
   <stop id="stop14420" stop-color="#f3d727" offset="1"/>
  </radialGradient>
  <linearGradient id="linearGradient14529" y2="1251.6" spreadMethod="reflect" gradientUnits="userSpaceOnUse" y1="1251.6" gradientTransform="scale(2.2605 .44238)" x2="137.13" x1="134.78">
   <stop id="stop13629" stop-color="#f3d727" offset="0"/>
   <stop id="stop13630" stop-color="#e0b524" offset="1"/>
  </linearGradient>
 </defs>
 <g id="layer1" stroke="#000">
  <g id="g14451" transform="matrix(-22.182 0 0 22.182 7003.9 -12060)">
   <path id="path14452" d="m304.83 552.94l0.04 1.56c2.25 1.25 6.65 1.35 9.47-0.07l0.03-1.55" stroke-width=".25pt" fill="url(#linearGradient14529)" fill-rule="evenodd"/>
   <path id="path14453" stroke-linejoin="round" d="m314.37 552.92a4.7686 1.3496 0 1 1 -9.54 0 4.7686 1.3496 0 1 1 9.54 0z" stroke-width=".2625" fill="url(#radialGradient14530)"/>
  </g>
  <g id="g14454" transform="matrix(-22.182 0 0 22.182 6990.2 -12093)">
   <path id="path14455" d="m304.83 552.94l0.04 1.56c2.25 1.25 6.65 1.35 9.47-0.07l0.03-1.55" stroke-width=".25pt" fill="url(#linearGradient14529)" fill-rule="evenodd"/>
   <path id="path14456" stroke-linejoin="round" d="m314.37 552.92a4.7686 1.3496 0 1 1 -9.54 0 4.7686 1.3496 0 1 1 9.54 0z" stroke-width=".2625" fill="url(#radialGradient14530)"/>
  </g>
  <g id="g14457" transform="matrix(-22.182 0 0 22.182 6998.7 -12124)">
   <path id="path14458" d="m304.83 552.94l0.04 1.56c2.25 1.25 6.65 1.35 9.47-0.07l0.03-1.55" stroke-width=".25pt" fill="url(#linearGradient14529)" fill-rule="evenodd"/>
   <path id="path14459" stroke-linejoin="round" d="m314.37 552.92a4.7686 1.3496 0 1 1 -9.54 0 4.7686 1.3496 0 1 1 9.54 0z" stroke-width=".2625" fill="url(#radialGradient14530)"/>
  </g>
  <g id="g14460" transform="matrix(-22.182 0 0 22.182 6995.9 -12155)">
   <path id="path14461" d="m304.83 552.94l0.04 1.56c2.25 1.25 6.65 1.35 9.47-0.07l0.03-1.55" stroke-width=".25pt" fill="url(#linearGradient14529)" fill-rule="evenodd"/>
   <path id="path14462" stroke-linejoin="round" d="m314.37 552.92a4.7686 1.3496 0 1 1 -9.54 0 4.7686 1.3496 0 1 1 9.54 0z" stroke-width=".2625" fill="url(#radialGradient14530)"/>
  </g>
  <g id="g14463" transform="matrix(-22.182 0 0 22.182 6995.9 -12189)">
   <path id="path14464" d="m304.83 552.94l0.04 1.56c2.25 1.25 6.65 1.35 9.47-0.07l0.03-1.55" stroke-width=".25pt" fill="url(#linearGradient14529)" fill-rule="evenodd"/>
   <path id="path14465" stroke-linejoin="round" d="m314.37 552.92a4.7686 1.3496 0 1 1 -9.54 0 4.7686 1.3496 0 1 1 9.54 0z" stroke-width=".2625" fill="url(#radialGradient14530)"/>
  </g>
  <g id="g14466" transform="matrix(-22.182 0 0 22.182 6990.2 -12220)">
   <path id="path14467" d="m304.83 552.94l0.04 1.56c2.25 1.25 6.65 1.35 9.47-0.07l0.03-1.55" stroke-width=".25pt" fill="url(#linearGradient14529)" fill-rule="evenodd"/>
   <path id="path14468" stroke-linejoin="round" d="m314.37 552.92a4.7686 1.3496 0 1 1 -9.54 0 4.7686 1.3496 0 1 1 9.54 0z" stroke-width=".2625" fill="url(#radialGradient14530)"/>
  </g>
 </g>
 <metadata>
  <rdf:RDF>
   <cc:Work>
    <dc:format>image/svg+xml</dc:format>
    <dc:type rdf:resource="http://purl.org/dc/dcmitype/StillImage"/>
    <cc:license rdf:resource="http://creativecommons.org/licenses/publicdomain/"/>
    <dc:publisher>
     <cc:Agent rdf:about="http://openclipart.org/">
      <dc:title>Openclipart</dc:title>
     </cc:Agent>
    </dc:publisher>
   </cc:Work>
   <cc:License rdf:about="http://creativecommons.org/licenses/publicdomain/">
    <cc:permits rdf:resource="http://creativecommons.org/ns#Reproduction"/>
    <cc:permits rdf:resource="http://creativecommons.org/ns#Distribution"/>
    <cc:permits rdf:resource="http://creativecommons.org/ns#DerivativeWorks"/>
   </cc:License>
  </rdf:RDF>
 </metadata>
</svg>
