<svg xmlns="http://www.w3.org/2000/svg" viewBox="0 0 53.15 53.15" xmlns:xlink="http://www.w3.org/1999/xlink"><g fill="#c6c6f9" fill-rule="evenodd" stroke="#000" color="#000" stroke-width=".354"><path d="m46.06 31.89h3.543v14.173h-3.543z"/><path d="m10.63 31.89h3.543v14.173h-3.543z"/></g><g transform="matrix(.76865-.63967.63967.76865-18.5 15.304)"><g fill-rule="evenodd" stroke="#000" color="#000"><path fill="#fff" stroke-width=".571" d="m16.17 24.522h46.703v4.141h-46.703z" transform="matrix(.98941.14517-.20228.97933 0 0)"/><path fill="#b3b3b3" stroke-width=".468" d="m8.318 23.999h7.087v6.176h-7.087z" transform="matrix(.98428.17662-.17194.98511 0 0)"/></g><path id="a" color="#000" fill-rule="evenodd" stroke-width=".571" d="m20.27 24.522h4.342v4.141h-4.342z" fill="#f01" stroke="#000" transform="matrix(.98941.14517-.20228.97933 0 0)"/><use width="53.15" height="53.15" id="b" xlink:href="#a" transform="translate(8.238 1.209)"/><use width="53.15" height="53.15" id="c" xlink:href="#b" transform="translate(8.402 1.233)"/><use width="53.15" height="53.15" id="d" xlink:href="#c" transform="translate(8.402 1.233)"/><use width="53.15" height="53.15" xlink:href="#d" transform="translate(8.402 1.233)"/></g></svg>