<svg height="10" viewBox="0 0 16 10" width="16" xmlns="http://www.w3.org/2000/svg"><g transform="translate(0 -1037.3622)"><g stroke="#000"><path d="m4.0908777 1039.157a.54556505.8801682 14.090539 1 1 -.9364047-.6388.54556505.8801682 14.090539 1 1 .9364047.6388z" fill="#c39f65" stroke-width=".084411"/><path d="m3.8826569 1037.9819c1.4418374 1.0646 3.5171021 2.4235 4.7468327 3.1665.5653082.689.173801 2.0258-.4602172 1.7541-.9223959-1.0587-3.7445928-2.5106-4.8462684-3.2327.6748429.2698 1.2247145-1.1865.5596529-1.6879z" fill="#704927" stroke-width=".084411"/><path d="m3.9141298 1038.989a.37904524.63751544 15.543647 1 1 -.6482795-.4422.37904524.63751544 15.543647 1 1 .6482795.4422z" fill="none" stroke-width=".084411"/><path d="m3.7461557 1038.8621a.18648956.36832406 18.126774 1 1 -.315711-.2205.18648956.36832406 18.126774 1 1 .315711.2205z" fill="none" stroke-width=".073387"/><path d="m3.6067859 1038.7638.5388192-.2039-.029477.1116z" stroke-width=".084411"/><path d="m4.8762415 1039.101-.7327697-.4022.041196-.1389z" stroke-width=".084411"/><path d="m3.4930283 1043.9943a1.7076436 3.0564967 0 1 1 -3.40634784.4416 1.7076436 3.0564967 0 1 1 3.40634784-.4416z" fill="#c39f65" stroke-width=".160784"/><path d="m1.5940448 1041.1607c4.6756813-.4493 8.5685332-.953 12.3717162-1.7995 2.136927.5861 2.685034 5.2702.848793 6.0193-3.413402-.7723-8.5411921 1.2436-12.8287478 1.8931 2.4687932-.9692 1.7763959-6.2914-.3917614-6.1129z" fill="#704927" stroke-width=".148531"/><path d="m2.8556499 1043.8903a1.1822574 2.198699 0 1 1 -2.35890364.3027 1.1822574 2.198699 0 1 1 2.35890364-.3027z" fill="none" stroke-width=".159947"/><path d="m2.3043934 1043.8453a.59330438 1.2817778 0 1 1 -1.1845537.1508.59330438 1.2817778 0 1 1 1.1845537-.1508z" fill="none" stroke-width=".141081"/><path d="m1.7043102 1043.8411 1.7364154 1.1605-.097113.4312z" stroke-width=".168822"/><path d="m6.1183591 1044.7363-2.6636622.6694-.013971-.4041z" stroke-width=".196266"/><path d="m4.3016753 1046.1075 10.4356537-2.0979" fill="none" stroke-width=".1"/><path d="m4.2419216 1043.9359c3.5336492-.4243 7.2758624.03 10.5726324-1.3926" fill="none" stroke-width=".1"/><path d="m4.1621746 1042.64c3.4181003-.3084 7.0360004.2837 10.1961694-1.1872" fill="none" stroke-width=".1"/><path d="m3.7751438 1041.393c4.2623966-.078 7.6834932-.714 10.7735002-1.57" fill="none" stroke-width=".1"/></g><path d="m5.1269675 1040.6903 2.2907324-.2616.3343174.2232-2.7520105.3624z" fill="#704927"/></g></svg>