<svg xmlns="http://www.w3.org/2000/svg" viewBox="0 0 53.15 53.15" xmlns:xlink="http://www.w3.org/1999/xlink"><g fill="#c6c6f9" fill-rule="evenodd" stroke="#000" color="#000" stroke-width=".354"><path d="m46.24 21.08h3.543v14.173h-3.543z"/><path d="m7.264 24.626h3.543v14.173h-3.543z"/></g><g transform="matrix(.9383.34583-.34583.9383 8.737-4.31)"><g fill-rule="evenodd" stroke="#000" color="#000"><path fill="#fff" stroke-width=".571" d="m16.17 24.522h46.703v4.141h-46.703z" transform="matrix(.98941.14517-.20228.97933 0 0)"/><path fill="#b3b3b3" stroke-width=".468" d="m8.318 23.999h7.087v6.176h-7.087z" transform="matrix(.98428.17662-.17194.98511 0 0)"/></g><path id="a" color="#000" fill-rule="evenodd" stroke-width=".571" d="m20.27 24.522h4.342v4.141h-4.342z" fill="#f01" stroke="#000" transform="matrix(.98941.14517-.20228.97933 0 0)"/><use width="53.15" height="53.15" xlink:href="#a" id="b" transform="translate(8.238 1.209)"/><use width="53.15" height="53.15" xlink:href="#b" id="c" transform="translate(8.402 1.233)"/><use width="53.15" height="53.15" xlink:href="#c" id="d" transform="translate(8.402 1.233)"/><use width="53.15" height="53.15" xlink:href="#d" transform="translate(8.402 1.233)"/></g></svg>