<svg xmlns="http://www.w3.org/2000/svg" viewBox="0 0 16 16"><g color-rendering="auto" color-interpolation-filters="linearRGB" shape-rendering="auto" image-rendering="auto" fill-rule="evenodd" text-rendering="auto" color-interpolation="sRGB" color="#000" transform="translate(0-1036.36)"><path fill="#808080" d="m0 1036.36h16v16h-16z"/><path fill="#00a700" d="m1 1047.36h2v2h-2z"/><path d="m1 1049.36h.6v.6h-.6z"/><path d="m2.4 1049.36h.6v.6h-.6z"/><path fill="#d40000" d="m7 1043.36h2v2h-2z"/><path d="m7 1045.36h.6v.6h-.6z"/><path d="m8.4 1045.36h.6v.6h-.6z"/><path fill="#1582ff" d="m13 1045.36h2v2h-2z"/><path d="m13 1047.36h.6v.6h-.6z"/><path d="m14.4 1047.36h.6v.6h-.6z"/><path fill="#1a1a1a" d="m0 1040.36h16v2h-16z"/><g fill="#fff"><path d="m4 1046.36h1v2h-1z"/><path d="m4 1050.36h1v2h-1z"/><path d="m11 1046.36h1v2h-1z"/><path d="m11 1050.36h1v2h-1z"/></g><g fill="#1a1a1a"><path d="m4 1042.36h1v2h-1z"/><path d="m11 1042.36h1v2h-1z"/></g><g fill="#fff"><path d="m670.81 791.03h1.137v2.273h-1.137z" transform="rotate(40)"/><path d="m658.5 801.31h1.151v2.302h-1.151z" transform="matrix(-.76604.64279.64279.76604 0 0)"/></g><path fill="#ff0" d="m7 1048.36h2v2h-2z"/><path d="m7 1050.36h.6v.6h-.6z"/><path d="m8.4 1050.36h.6v.6h-.6z"/><g fill="#1a1a1a"><path d="m15 1042.36h1v2h-1z"/><path d="m0 1042.36h1v2h-1z"/></g></g></svg>