<svg xmlns="http://www.w3.org/2000/svg" viewBox="0 0 64 64"><g transform="translate(0-988.36)"><path fill="#999" d="m-.505 1010.69h65.15v42.17h-65.15z"/><g fill="#c83737"><path d="m-2.02 1047.51h16.16v5.61h-16.16z"/><path d="m15.973 1047.51h16.16v5.61h-16.16z"/><path d="m33.966 1047.51h16.16v5.61h-16.16z"/><path d="m51.96 1047.51h16.16v5.61h-16.16z"/><path d="m-10.859 1039.94h16.16v5.61h-16.16z"/><path d="m7.134 1039.94h16.16v5.61h-16.16z"/><path d="m25.13 1039.94h16.16v5.61h-16.16z"/><path d="m43.12 1039.94h16.16v5.61h-16.16z"/><path d="m61.11 1039.94h16.16v5.61h-16.16z"/><path d="m-1.768 1032.11h16.16v5.61h-16.16z"/><path d="m16.226 1032.11h16.16v5.61h-16.16z"/><path d="m34.22 1032.11h16.16v5.61h-16.16z"/><path d="m52.21 1032.11h16.16v5.61h-16.16z"/><path d="m-10.859 1024.53h16.16v5.61h-16.16z"/><path d="m7.134 1024.53h16.16v5.61h-16.16z"/><path d="m25.13 1024.53h16.16v5.61h-16.16z"/><path d="m43.12 1024.53h16.16v5.61h-16.16z"/><path d="m61.11 1024.53h16.16v5.61h-16.16z"/><path d="m-2.02 1016.96h16.16v5.61h-16.16z"/><path d="m15.973 1016.96h16.16v5.61h-16.16z"/><path d="m33.966 1016.96h16.16v5.61h-16.16z"/><path d="m51.96 1016.96h16.16v5.61h-16.16z"/></g><path fill="#4d4d4d" d="m-4.546 1007.92h73.24v7.32h-73.24z"/></g></svg>