<svg xmlns="http://www.w3.org/2000/svg" viewBox="0 0 475.57 356.74"><g fill-rule="evenodd"><path fill="#fff" d="m146.74.011c-20.777.256-41.598 5.173-60.832 14.935-.216.1-.418.216-.633.317-.284.146-.58.255-.863.403v.029c-81.29 38.604-104.57 140.66-66.789 215.88 52.47 109.81 186.72 147.36 294.32 112.69 98.66-27.24 180.91-124.36 160.48-234.06-.127-.682-.21-1.36-.345-2.043h-.058c-11.499-76.23-89.72-121.98-161.75-104.05-25.892 6.447-48.955 17.16-69.55 30.848-26.28-23.313-60.02-35.35-93.98-34.934m192.88 67.54c30.876-.765 62.14 21.09 66.21 51.566l.144 1.036.201 1.036c13.624 68.934-45.37 139.93-113.46 158.73l-1.381.403c-77.6 25.01-178.29-4.885-213.37-78.3l-.144-.288-.144-.317c-21.503-42.809-6.642-105.65 36.34-125.46l.748-.345.748-.403c22.755-11.898 52.583-9.6 73.925 4.719-33.371 37.13-57.887 81.81-76.46 123.33-5.154 10.996-3.973 23.917 3.091 33.796 7.06 9.878 18.908 15.176 30.98 13.855 12.07-1.321 22.491-9.05 27.25-20.227 17.288-38.661 39.12-76.52 66.21-106.3 24.935 26.536 46.977 55.799 58.59 89.65 3.761 11.525 11.139 22.05 23.03 24.433 11.887 2.385 24.14-1.82 32.05-11 7.916-9.183 10.269-21.918 6.158-33.32-14.367-41.886-37.688-79.71-67.02-111.88 10.499-5.565 21.51-10.04 33.18-12.949 4.315-1.074 8.711-1.646 13.12-1.755"/><path fill="#d45500" d="m146.74.011c-20.777.256-41.598 5.173-60.832 14.935-.216.1-.418.216-.633.317-.284.146-.58.255-.863.403v.029c-81.29 38.604-104.57 140.66-66.789 215.88 52.47 109.81 186.72 147.36 294.32 112.69 98.66-27.24 180.91-124.36 160.48-234.06-.127-.682-.21-1.36-.345-2.043h-.058c-11.499-76.23-89.72-121.98-161.75-104.05-25.892 6.447-48.955 17.16-69.55 30.848-26.28-23.313-60.02-35.35-93.98-34.934m199.39 19.366c2.564-.18 4.98 1.456 5.698 4.03l5.698 20.373c.038.119.086.253.115.374.72 2.968-1.118 5.956-4.086 6.676-2.968.72-5.956-1.118-6.676-4.086l-5.698-20.373c-.82-2.94.887-5.971 3.827-6.791.367-.103.756-.176 1.122-.201m-160.11 12.863c3.051-.127 5.628 2.243 5.755 5.295.127 3.051-2.243 5.628-5.295 5.755l-21.09 1.611c-3.043.23-5.697-2.05-5.928-5.093-.23-3.043 2.05-5.697 5.093-5.928l21.09-1.611c.124-.014.249-.023.374-.029m-102.47 10.331c.367.007.721.06 1.093.144l20.661 4.633c.123.023.224.055.345.086 2.954.774 4.745 3.808 3.971 6.762-.774 2.954-3.808 4.716-6.762 3.942l-20.632-4.662c-2.977-.672-4.845-3.613-4.172-6.59.588-2.605 2.926-4.369 5.496-4.316m195.33 6.1c1.775.011 3.516.887 4.575 2.475 1.694 2.541 1.016 5.96-1.525 7.654l-17.208 12.345c-2.48 1.779-5.905 1.214-7.683-1.266-1.779-2.48-1.214-5.933 1.266-7.712l17.18-12.345c.099-.076.184-.132.288-.201.953-.635 2.043-.956 3.108-.95m152.11 12.748c3.051-.127 5.628 2.243 5.755 5.295.127 3.051-2.243 5.628-5.295 5.755l-21.09 1.611c-3.043.23-5.697-2.05-5.928-5.093-.23-3.043 2.05-5.697 5.093-5.928l21.09-1.611c.124-.014.249-.023.374-.029m-282.84 6.129c14.606.06 29.29 4.319 41.29 12.374-33.371 37.13-61.887 89.81-80.46 131.33-5.154 10.996-3.984 23.904 3.079 33.783 7.06 9.878 18.92 15.191 30.992 13.87 12.07-1.321 22.491-9.06 27.25-20.229 17.288-38.661 43.12-84.52 70.21-114.3 24.935 26.536 52.676 69.72 64.29 103.56 3.761 11.525 13.436 20.12 25.323 22.503 11.887 2.385 24.14-1.81 32.06-10.992 7.916-9.183 10.269-21.917 6.158-33.32-14.367-41.886-45.688-91.71-75.02-123.88 10.499-5.565 21.51-10.04 33.18-12.949 4.315-1.074 8.711-1.646 13.12-1.755 30.876-.765 62.14 21.09 66.21 51.566l.144 1.036.201 1.036c13.624 68.934-45.37 139.93-113.46 158.73l-1.381.403c-77.6 25.01-178.29-4.885-213.37-78.3l-.144-.288-.144-.317c-21.503-42.809-6.642-105.65 36.34-125.46l.748-.345.748-.403c9.955-5.205 21.272-7.701 32.632-7.654m-98.87 37.06c1.703.073 3.355.946 4.374 2.475 1.694 2.541 1.016 5.989-1.525 7.683l-17.18 12.345c-2.48 1.779-5.933 1.185-7.712-1.295-1.779-2.48-1.214-5.933 1.266-7.712l17.18-12.316c.099-.076.213-.161.317-.23.794-.529 1.673-.84 2.561-.921.244-.022.476-.039.719-.029m254.06 17.294c2.357.023 4.523 1.566 5.237 3.942.879 2.925-.787 6.03-3.712 6.906l-20.03 6.762c-2.892.977-6.04-.561-7.02-3.453-.977-2.892.59-6.02 3.482-6.993l20.03-6.791c.117-.044.226-.079.345-.115.548-.165 1.125-.264 1.669-.259m-101.84 3.252c3.051-.127 5.628 2.243 5.755 5.295.127 3.051-2.243 5.628-5.295 5.755l-21.09 1.611c-3.043.23-5.697-2.05-5.928-5.093-.23-3.043 2.05-5.697 5.093-5.928l21.09-1.611c.124-.014.249-.023.374-.029m232.91 2.187c1.064-.024 2.145.273 3.108.892l17.812 11.424c.108.064.214.13.317.201 2.512 1.738 3.148 5.172 1.41 7.683-1.738 2.512-5.2 3.148-7.712 1.41l-17.783-11.424c-2.567-1.65-3.319-5.087-1.669-7.654 1.031-1.605 2.744-2.492 4.518-2.532m-116 56.861c.367.007.721.06 1.093.144l20.632 4.662c.123.023.253.026.374.058 2.954.774 4.716 3.808 3.942 6.762-.774 2.954-3.779 4.716-6.734 3.942l-20.632-4.633c-2.977-.673-4.845-3.641-4.172-6.618.588-2.605 2.926-4.369 5.496-4.316m-175.82 4.863c1.064-.024 2.145.244 3.108.863l17.812 11.424c.108.064.214.13.317.201 2.512 1.738 3.119 5.2 1.381 7.712-1.738 2.512-5.172 3.148-7.683 1.41l-17.812-11.453c-2.567-1.65-3.291-5.058-1.64-7.626 1.031-1.605 2.744-2.492 4.518-2.532m-92.83 1.266c3.051-.127 5.628 2.243 5.755 5.295.127 3.051-2.243 5.628-5.295 5.755l-21.09 1.611c-3.043.23-5.697-2.05-5.928-5.093-.23-3.043 2.05-5.697 5.093-5.928l21.09-1.611c.124-.014.249-.023.374-.029m382.98 13.697c1.775.011 3.516.887 4.575 2.475 1.694 2.541.987 5.96-1.554 7.654l-17.18 12.345c-2.48 1.779-5.933 1.214-7.712-1.266-1.779-2.48-1.214-5.933 1.266-7.712l17.208-12.345c.099-.076.184-.132.288-.201.953-.635 2.043-.956 3.108-.95m-360.82 37.12c2.355.069 4.484 1.669 5.151 4.057l5.698 20.373c.038.119.085.224.115.345.72 2.968-1.118 5.956-4.086 6.676-2.968.72-5.956-1.09-6.676-4.057l-5.698-20.373c-.82-2.94.916-6 3.856-6.82.551-.154 1.097-.217 1.64-.201m305.71 12.604c3.049-.135 5.62 2.246 5.755 5.295l.95 21.12c.01.125.027.249.029.374.031 3.054-2.442 5.551-5.496 5.582-3.054.031-5.551-2.414-5.582-5.467l-.95-21.12c-.135-3.049 2.246-5.649 5.295-5.784m-250.64 42.07c.367.007.75.06 1.122.144l20.632 4.662c.123.023.253.055.374.086 2.954.774 4.716 3.779 3.942 6.734-.774 2.954-3.808 4.716-6.762 3.942l-20.632-4.633c-2.977-.673-4.845-3.641-4.172-6.618.588-2.605 2.926-4.369 5.496-4.316m192.97 9.438c3.051-.127 5.628 2.243 5.755 5.295.127 3.051-2.243 5.628-5.295 5.755l-21.09 1.611c-3.043.23-5.697-2.05-5.928-5.093-.23-3.043 2.05-5.697 5.093-5.928l21.09-1.611c.124-.014.249-.023.374-.029m-111.07 5.352c1.064-.024 2.145.244 3.108.863l17.812 11.424c.108.064.214.13.317.201 2.512 1.738 3.119 5.2 1.381 7.712-1.738 2.512-5.172 3.148-7.683 1.41l-17.812-11.453c-2.567-1.65-3.291-5.058-1.64-7.626 1.031-1.605 2.744-2.492 4.518-2.532"/></g></svg>