<svg xmlns="http://www.w3.org/2000/svg" viewBox="0 0 16 16"><defs><linearGradient id="a" y1="334.89" y2="266.74" x1="1081.6" gradientUnits="userSpaceOnUse" x2="1007.2" gradientTransform="matrix(.01482.00415-.0032.0192-3.602-4.931)"><stop stop-color="#98726d"/><stop offset="1" stop-color="#d5a28c"/></linearGradient><linearGradient id="b" y1="604.5" y2="478.92" x1="386.71" gradientUnits="userSpaceOnUse" x2="291.83" gradientTransform="matrix(.01482.00415-.0032.0192 2.15-3.03)"><stop stop-color="#cc4930"/><stop offset="1" stop-color="#f5730b"/></linearGradient></defs><path fill="#feebd7" stroke="#5d2e31" stroke-width=".172" d="m13.709.099c-.366-.086-1.014.363-1.164 1.174l.057.388c.071.17.119.333.375.555l-.685.669c-.099.147-.181.447-.256.809.006-.367-.027-.5-.096-.418-3.61 2.983-7.445 6.903-9.934 8.794-.078.015-.21.148-.268.201-.285.259-.178.895.238 1.419.416.524.984.738 1.269.479.017-.016.033-.032.047-.05 2.409-2.869 3.608-4.328 6.538-6.159 1.828-2.35 3.463-4.259 4.339-5.02.505.479 1.161.366 1.337.218.586-.58.611-1.664-.369-2.314-.476-.166-.427 1.247-1.012.91-.352-.571.077-1.429-.279-1.585-.038-.035-.085-.058-.138-.071z"/><g stroke-linejoin="round"><g fill="none" stroke="#000" stroke-linecap="round"><path stroke-width=".076" d="m1.847 12.185c.213.149.382.383.502.61l-.083-.59c1.259.531 1.343 1.642 1.037 1.933"/><path stroke-width=".055" d="m2.244 12.159l.642-.681c1.123.107 1.41 1.398 1.296 1.556"/></g><g fill="#918070" stroke="#563c15" stroke-width=".038"><path opacity=".613" d="m1.809 12.692c.026.035.054.069.082.102.004.004.008.007.012.011.015.016.005.009.02.023.011.011.021.016.031.029.022.028.049.048.073.073.016.022.03.046.048.064.019.017.037.033.058.043.025.007.047.025.071.037.025.01.051.024.077.023.012 0 .023 0 .035-.004l-.198.124c-.012 0-.025 0-.037-.002-.027-.007-.054-.017-.08-.031-.023-.013-.046-.028-.071-.037-.022-.013-.041-.031-.061-.05-.017-.02-.031-.042-.048-.063-.025-.023-.049-.049-.073-.074-.022-.02-.043-.041-.063-.065-.028-.034-.055-.069-.083-.103z"/><path opacity=".613" d="m2.868 13.923c.041.001.082-.007.123-.006.029-.003.057-.012.085-.022.054-.012-.028.006.027-.005.005-.001.019-.006.014-.004-.064.027-.129.052-.193.078-.004.002.009-.004.013-.005.073-.03.146-.06.219-.09.027-.013.057-.015.085-.026.079-.023.024-.007-.182.076-.004.002.007-.004.011-.005.01-.005.02-.011.03-.017.025-.012.05-.025.075-.037.025-.01.048-.025.072-.038.021-.007.039-.021.057-.037.018-.013.037-.025.055-.04.018-.014.035-.027.052-.042.015-.019.032-.036.047-.056.016-.019.028-.044.04-.067.014-.023.025-.049.038-.073.012-.026.025-.051.036-.077.007-.018.016-.034.026-.049l.215-.058c-.01.014-.02.025-.028.042-.01.029-.025.053-.035.081-.004.008-.009.015-.013.023-.008.017-.013.036-.025.049-.011.026-.025.05-.039.074-.016.017-.029.041-.047.056-.014.022-.034.033-.051.05-.019.011-.036.028-.054.04-.012.006-.016.012-.026.023-.01.011-.008.006-.02.012-.004.002-.007.005-.01.007-.026.007-.047.029-.072.037-.025.013-.051.024-.075.039-.013.004-.019.01-.03.017-.075.048-.16.074-.242.1-.029.007-.057.016-.085.027.064-.027.129-.054.193-.081.004-.002-.009.004-.013.006-.073.03-.146.061-.22.09-.013.005-.028.003-.041.01-.028.007-.057.017-.086.015-.041.001-.082.007-.123.009z"/></g></g><g transform="matrix(.74736.66442-.468.88373 0 0)"><path fill="#b78d77" d="M9.333039 8.470351A.610239 .3228 0 0 1 8.725842 8.793148 .610239 .3228 0 0 1 8.112592 8.47357 .610239 .3228 0 0 1 8.713674 8.147587 .610239 .3228 0 0 1 9.332918 8.463915"/><path fill="#fef1e3" stroke="#000" stroke-linejoin="round" stroke-linecap="round" stroke-width=".056" d="M9.197148 8.470996A.47218 .249771 0 0 1 8.727322 8.720764 .47218 .249771 0 0 1 8.252812 8.473486 .47218 .249771 0 0 1 8.717907 8.221253 .47218 .249771 0 0 1 9.197054 8.466016"/></g><path fill="#6d4d1a" stroke="#563c15" stroke-width=".037" d="m13.624 3.159l-3.977 3.991 4.115-4.317c.005.073.167.056-.139.326z"/><path opacity=".844" fill="url(#a)" d="m15.95 2.047c-.451.542-1.91-.023-2.215.339-.624.269-5.03 6.662-6.191 5.799l.095 1.24 2.212-1.494c1.605-2.036 3.084-3.785 4.364-5.078 1.276.999 1.797-.207 1.735-.806"/><g stroke="#563c15"><g fill="#6d4d1a"><path stroke-width=".032" d="m11.529 4.077l-3.414 3.641 3.66-3.737c-.065-.106-.144-.104-.245.095z"/><path stroke-width=".018" d="m13.692 2.026l-1.868 2.258 2-2.322c-.036-.061-.079-.058-.134.064z"/></g><g fill="#918070" stroke-linejoin="round" stroke-width=".038"><path opacity=".613" d="m3.228 13.12c.047-.006.093-.011.14-.019.032-.005.066-.005.097-.019.023-.006.044-.016.068-.016.067-.026.191-.075-.187.076-.003.001.006-.004.01-.005.01-.006.02-.01.029-.016.495-.205.097-.04.021-.009-.004.002.007-.003.011-.005.013-.008.026-.018.038-.028.021-.02.044-.037.061-.062.012-.026.025-.049.04-.072.002-.004.004-.008.006-.012l.214-.064c-.002.005-.004.009-.006.014-.013.025-.032.043-.04.072-.015.031-.037.051-.061.07-.112.121-.509.204-.068.049-.013.006-.007.002-.019.011-.003.002-.007.002-.01.003-.078.035-.154.09-.237.098-.022.005-.044.014-.067.02-.032.006-.064.012-.096.015-.047.006-.094.012-.14.021z"/><path opacity=".613" d="m3.834 11.912c-.023.048-.048.094-.074.14-.018.032-.039.061-.06.089-.017.024-.037.044-.056.066-.017.022-.036.039-.053.061-.018.021-.031.047-.047.071-.02.029-.043.056-.068.08-.021.015-.038.035-.058.053-.016.019-.031.037-.047.056-.018.015-.031.036-.047.053-.016.018-.034.034-.052.048-.021.008-.035.028-.049.048-.006.009-.031.026-.015.034.023.011.047.018.07.024.026.008.053.018.079.006-.066.027-.131.054-.197.08-.003.001.006-.003.009-.005.014-.012.023-.033.031-.05.013-.028.032-.049.048-.074.014-.024.033-.043.051-.063.016-.019.034-.036.052-.051.02-.017.041-.031.062-.043.019-.014.04-.021.06-.033.022-.013.045-.023.066-.038.02-.012.037-.029.057-.04.017-.014.037-.025.053-.041.018-.015.033-.035.049-.053.019-.019.036-.04.053-.061.011-.013.022-.025.032-.039l.215-.056c-.011.012-.018.03-.032.038-.016.023-.034.044-.053.064-.018.016-.031.038-.049.055-.022.018.006-.006-.017.018-.011.012-.028.011-.036.028-.021.015.002 0-.02.01-.014.006-.025.021-.037.03-.022.012-.043.029-.066.038-.02.01-.039.025-.06.031-.02.017-.045.022-.063.043-.019.013-.036.028-.053.044-.016.021-.034.039-.052.058-.014.027-.033.047-.048.073-.009.014-.014.029-.022.044-.054.096-.081.066-.232.117-.028 0-.055-.008-.082-.016-.026-.008-.054-.015-.076-.038-.017-.028-.017-.056.005-.08.018-.016.028-.044.048-.057.021-.006.035-.025.053-.039.015-.019.033-.035.047-.056.018-.013.034-.034.048-.054.018-.021.039-.038.058-.057.027-.016.047-.045.069-.071.016-.024.032-.048.046-.074.018-.019.033-.044.053-.06.017-.024.038-.042.056-.064.02-.03.043-.055.061-.087.026-.044.051-.089.074-.135z"/></g></g><path fill="url(#b)" stroke="#861c00" stroke-linejoin="round" stroke-width=".097" d="m.761 8.203c1.028-1.522 2.119-2.862 3.524-3.298 1.993-.532 3.919.34 5.376-.276.272.154.363.258.367.337.211.018.403.069.559.176 0 0 .177.206.228.26.051.054.245.342.261.425.016.083.094.613.053.68-.041.067-.057.434-.057.434-.054.285-.169.701-.107.733l-.182.184c0 0-.236.104-.442.385-.153.209-.635 2.091-1.236 3.156-.183.308-1.407 1.454-1.687 1.875-.086.413-.485.983-.812 1.338-.167.086-.308.199-.407.356-.102.112-.224.241-.419.43l-.325.32c-.387.273-.799.25-1.212.208-1.673-.017-4.618-3.133-4.145-6.207.158-.414.021-.392.661-1.517z"/><path opacity=".572" fill="#4f1a00" d="m5.68 12.02l-.068 3.58.894-.924c.5-.511.979-.991.958-1.492.459-.6 1.01-1.171 1.593-1.765.595-1.014.901-2.177 1.289-3.297.22-.173.555-.314.603-.536.099-.693.191-1.354.163-1.519-.324.33-.48.998-1.046.842-.185.108-.57 1.017-.864 1.558-.321.61-.643.623-1.02 1.592l-.464 1.513c-.206.172-.402.368-.687.316-.922-.333-.974.028-1.35.131"/><path fill="#fbf1b8" d="m.695 8.419c1.422-1.351 2.825.099 3.555 1.406.726 1.266 1.698 1.916 1.741 2.326.222.42-.026 1.547-.209 3.247-.485.534-.636.662-1.879.492-1.927-.791-3.319-2.323-3.836-5.064-.001-.807.01-1.453.628-2.406"/><path fill="#bb2a00" d="m1.043 9.04c1.197-1.122 2.382.09 3 1.182.614 1.057 1.434 1.602 1.472 1.944.188.351-.019 1.289-.171 2.706-.408.444-.535.55-1.583.404-1.626-.665-2.802-1.946-3.243-4.232-.05-.539-.119-1.067.525-2"/><path fill="#8b2a00" d="m5.553 12.28c-.706.785-1.622 1.427-3.039 1.031-.419-.117-1.223-.617-1.578-.826.588 1.423 1.574 2.301 2.827 2.814 1.048.145 1.175.039 1.583-.405.14-1.308.326-2.207.207-2.614"/><path opacity=".647" fill="#4f1a00" d="M12.772916 6.292935A2.30298 1.239165 0 0 1 10.481417 7.532084 2.30298 1.239165 0 0 1 8.167071 6.305289 2.30298 1.239165 0 0 1 10.435496 5.05391 2.30298 1.239165 0 0 1 12.772458 6.268227" transform="matrix(.65663.75421-.45895.88846 0 0)"/><path fill="#fff" d="m3.088 11.475l-.655.668.076.54-.521-.498-.191.24.073.558.3.465.409.447.528.275.382-.03.837-1.262c.109-.382-.467-1.471-1.238-1.403"/><g fill="none" stroke="#5d2e31" stroke-width="4.4" transform="matrix(.01482.00415-.0032.0192 2.48-3.308)"><path d="m196.88 726.94l-35.796 42.68 10.326 24.782-35.796-17.898c-45.24 30.28 66.52 108.79 117.71 77.1l39.926-66.773c9.603-45.858-78.64-74.41-96.37-59.889z"/><path d="m136.3 776.51l48.875-45.43 6.195 2.065"/><path d="m255.76 848.53c10.88-33.77-47.1-77.07-93.99-78.22"/></g></svg>