<svg xmlns="http://www.w3.org/2000/svg" viewBox="0 0 266.52 205.58"><g transform="translate(-160.44-316.06)"><g color="#000"><path fill="#300" d="m420.05 354.53c.767 1.889 1.413 3.819 1.938 5.822 11.217 42.734-37.882 95.05-109.66 116.83-69.969 21.235-135.66 5.626-149.32-34.753.01.898.02 1.776.063 2.673 14.1 52.831 65.6 87.42 140.66 73.4 75.05-14.01 118.61-61.927 122.72-116.86 1.328-17.75.356-33.841-6.397-47.12z"/><path fill="#5c2610" d="m423.7 363.48c11.291 42.733-38.13 95.04-110.39 116.82-72.25 21.785-139.98 4.803-151.27-37.93-11.291-42.733 38.13-95.04 110.39-116.82 72.25-21.785 139.98-4.803 151.27 37.93"/></g><g fill-rule="evenodd"><path fill="#300" d="m377.64 328.26c-7.443 19.807-12.733 35.522-30.17 44.15-18.961 9.386-40.08 11.708-60.57 14.177-29.538 3.557-61.15 4.186-87.1 21.1-16.445 10.718-22.23 39.504-18.14 53.53 2.917-10.284 17.16-26.989 28.607-34.944 12.495-8.68 27.989-10.458 42.563-11.847 30.89-2.945 63.24-1.427 92.05-15.75 14.12-7.02 25.418-17.949 32.12-32.12 5.063-10.708 6.652-27.15.651-38.29z"/><path fill="#973f1a" d="m377.64 327.81c-7.443 19.807-12.744 35.524-30.18 44.15-18.961 9.386-40.07 11.713-60.57 14.182-29.538 3.557-61.15 4.181-87.1 21.09-16.445 10.718-22.22 39.51-18.13 53.53.014-.051.028-.108.042-.159-.874-15.5 5.48-38.15 19.532-47.48 26.21-17.415 58.15-18.06 87.994-21.726 20.706-2.542 42.03-4.924 61.18-14.59 16.901-8.528 22.515-23.827 29.585-43.07-.596-2.088-1.359-4.089-2.354-5.936z"/></g><path fill="#973f1b" color="#000" d="m424.39 366.41c-2.464 40.832-50.804 85.54-117.81 105.55-49.13 14.673-96.26 12.493-126.7-2.9 27.08 22.07 78.988 27.661 133.46 11.237 70.62-21.292 119.41-71.72 111.04-113.88"/><g fill="#773215"><path d="m210.89 467.47c-6.225-7.416-4.924-21.936 1.827-29.01 17.319-18.16 49.998-5.412 74.889-8.995 19.502-2.807 53.3-14.531 58.3-9.789 8.29 7.862-30.17 36.649-50.893 46.861-11.42 5.627-24.908 6.197-37.618 6.532-15.632.411-36.564 6.247-46.5-5.594z"/><path d="m348.86 333.46c6.354 6.994 5.301 20.782-1.331 27.546-17.01 17.35-49.919 5.482-74.75 9.05-19.46 2.798-53.07 14.158-58.15 9.693-8.427-7.403 29.549-34.987 50.11-44.821 11.327-5.419 24.81-6.05 37.517-6.458 15.629-.498 36.467-6.181 46.613 4.987z"/></g></g></svg>