<svg xmlns="http://www.w3.org/2000/svg" viewBox="0 0 16 16"><g transform="translate(0-1036.36)"><path fill="#f9f9f9" d="m113.53775 95.7095a15.48242 15.951584 0 1 1 -30.964842 0 15.48242 15.951584 0 1 1 30.964842 0" transform="matrix(.02157-.01963.01963.02157-2.897 1048.31)"/><g fill="#ac39ac" fill-rule="evenodd"><path fill-opacity=".444" d="m11.437 1041.03c1.282 1.403.687 4.04-1.327 5.877-2.01 1.841-4.691 2.198-5.973.795-1.282-1.403-.687-4.04 1.327-5.877 2.01-1.834 4.667-2.196 5.957-.812z"/><path d="m4.205 1043.43c2.038.747 3.685 2.063 4.436 4.681l2.653-2.744c-.58-2.351-2.056-3.833-4.422-4.45z"/><path d="m11.307 1041.02c1.277.561 3.21.277 3.854-.451-.329-.069-.64-.402-.831-.787-.201-.404-.018-.93-.36-1.242-.39-.357-.932-.161-1.345-.375-.363-.189-.481-.587-.857-1.029-.902 1.219-.823 2.681-.461 3.885"/><path d="m4.383 1047.93c-1.273-.569-3.208-.297-3.857.428.329.071.638.406.827.792.198.405.013.93.352 1.245.387.359.931.167 1.343.383.362.191.477.59.851 1.034.91-1.214.84-2.676.485-3.882"/></g></g></svg>