<svg xmlns="http://www.w3.org/2000/svg" viewBox="0 0 7 16"><defs><clipPath id="a"><path d="m7-.482h18v32h-18z"/></clipPath><mask><g clip-path="url(#a)"><path fill-opacity=".191" d="m7-.482h18v32h-18z"/></g></mask><clipPath><path d="m7 0h18v32h-18z"/></clipPath></defs><path fill="#ac39ac" fill-rule="evenodd" d="m5.363.008l-3.823-.008c-.143 0-.26.052-.353.141-.11.085-.171.273-.174.425-.003.168.055.352.174.477.085.089.205.154.346.149h.083c.004.132.003.269-.013.418-.039.486-.169.847-.392 1.088-.712.821-1.099 1.666-1.16 2.534-.062.816-.07 4.02-.016 9.611.015.227.088.649.355.764 1.34.575 4.892.472 6.206.003.251-.09.354-.504.368-.679.027-2.501.036-4.649.033-6.41 0-.125.001-.291.001-.409-.005-1.975-.027-3.344-.062-3.768-.043-.43-.131-.543-.862-1.429-.194-.207-.359-.597-.484-.919-.1-.259-.207-.604-.208-.804.026-.004.055-.001.083-.001.141.005.256-.044.346-.149.1-.099.161-.31.158-.477-.003-.15-.052-.334-.157-.425-.162-.139-.285-.131-.45-.131m-2.762 1.184h1.727c.021.715.239 1.06.454 1.558.317.732 1.209 1.25 1.219 2.073.01.882.028 1.03.034 2.167-1.216-.053-.683-.191-1.787-.186-.707.109-1.086-.06-1.849.062-1.259.244-1.379.583-1.379.583 0 0-.064-1.722.112-2.56.067-.321.204-.628.355-.922.221-.429.443-.784.801-1.216.251-.255.35-.784.311-1.561"/></svg>