<svg xmlns="http://www.w3.org/2000/svg" viewBox="0 0 16 16"><path fill="#ac39ac" d="m11.198 0c-.751.006-1.482.275-2.202.715-.373.259-.643.617-.509 1.026.213.65 1.077 1.311 1.37 1.016l.026-.023c.039.026.086.047.142.063 1.09.311 2.674.265 3.515-1.395-1.229.977-2.067 1.116-2.578.556-.037-.032-.074-.062-.11-.089l.207-.279c.739-.479 1.54-.504 2.95-.293-.972-.926-1.905-1.303-2.811-1.296m-4.02 1.354c-.954.671-1.242 2.04-.796 3.09.148.345.364.654.529.991.109.19.242.399.414.549-.086.086-.17.173-.251.261-.012-.004-.024-.007-.036-.011-.364-.089-.741-.291-1.018-.561-.575-.557-.724-1.315-1.01-2.035-.088-.12-.171-.484-.328-.378-.222.361-.054.807.11 1.156.181.328.309.683.506 1 .337.541.886.952 1.497 1.14-.206.244-.397.496-.572.753-.467-.378-.771-.988-1.312-1.28-.165-.102-.365-.1-.539-.185-.572-.201-.99-.7-.989-1.308-.196.294-.221.69-.055 1 .244.47.711.785 1.197.965.154.042.305.096.422.211.363.3.65.692 1.043.956-.075.123-.147.247-.215.372-.268-.21-.518-.364-.657-.339l-.796.142c-.213.038.029.623.334 1.085-.189-.124-.358-.199-.467-.173l-.813.199c-.242.059.036.759.355 1.211-.118-.055-.227-.078-.314-.053l-.707.203c-.19.055 0 .551.24.915-.222-.172-.435-.296-.552-.258l-.627.208c-.14.046-.037.393.135.721-.014 0-.028 0-.042 0l-1.116-.698c-.242-.152-.619-.208-.637-.046l-.043.376c-.019.162-.028.384.238.502l.266.118-.123.025c-.269.054-.538.291-.415.444l.285.355c.12.15.293.342.54.254l-.139.109c-.274.215-.103.571.209.92l.564.632c.311.349.638.359.886.117l.147-.143-.036.084c-.108.252.085.435.234.561l.347.294c.149.127.393-.136.455-.404l.073-.319.164.656c.065.258.273.262.427.255l.358-.018c.154-.008.165-.367.065-.604l-.488-1.155c-.019-.046-.042-.086-.067-.122.28.148.551.22.582.074l.159-.726c.026-.117-.026-.271-.121-.434.365.249.881.447.938.255l.202-.682c.027-.092-.028-.234-.124-.393.436.339 1.119.656 1.189.416l.243-.831c.03-.104.002-.237-.064-.382.437.306.962.547 1.01.345l.184-.813c.043-.189-.123-.493-.361-.797.166-.086.33-.177.492-.276.155.214.255.469.277.736.038.19-.047.382.011.568.174.713.818 1.199.983 1.916.04.105-.018.348.144.202.198-.108.311-.415.247-.617-.14-.495-.481-.882-.695-1.343-.081-.142-.096-.302-.097-.462-.044-.445-.252-.863-.544-1.208.161-.108.321-.222.478-.344.109.273.202.553.338.815.53 1.01 1.741 1.636 2.949 1.291-.42-.086-.851-.232-1.251-.382-.357-.115-.702-.274-.958-.563-.374-.418-.599-.891-.753-1.423.136-.115.271-.235.403-.361.467.638 1.22 1.12 2.01 1.153.375.015.793-.056 1.168-.06.385-.029.831-.156 1.036-.528.015-.188-.36-.018-.508-.036-.767.106-1.564.331-2.331.104-.37-.109-.65-.384-.907-.657-.074-.072-.149-.145-.224-.217.167-.17.321-.34.462-.51.571.226 1.373.127 2.303.097-.211-.081-1-.572-.661-.945-.501.325-.814.419-1.277.401.857-1.163 1.055-2.23 1.188-3.616-1.415.098-2.442.252-3.65 1.117-.027-.489.016-.79.369-1.304-.381.333-.851-.473-.926-.686-.057.958-.182 1.778.056 2.359-.139.112-.279.232-.419.36-.426-.647-.861-1.301-.986-2.092-.061-.381-.043-.721.094-1.071.137-.405.265-.817.464-1.197m1.085.652l-.154.999.638.523c.206-.143.401-.194.634-.544-.478-.035-.878-.604-1.118-.978m6.519.018c.173 1.416-.108 2.366-.607 3.093l-.048.052c-.026-.037-.055-.075-.086-.113-.547-.526-.385-1.361.623-2.565-1.68.798-1.768 2.381-1.486 3.48.014.056.034.104.059.144l-.024.025c-.302.286.336 1.167.979 1.398.405.145.769-.115 1.038-.482 1.011-1.564 1.196-3.208-.448-5.03m-1.809 4.589c-.355.223-.412.417-.56.62l.506.652 1-.127c-.368-.25-.926-.665-.948-1.145"/></svg>