<svg xmlns="http://www.w3.org/2000/svg" viewBox="0 0 12.549 16"><path fill="#009100" d="m12.549 1.243c0 0-.976 5.344-4.769 3.333-.001.003.091-4.362 4.769-3.333"/><path fill="#f00" d="m6.166 7.05c.655-.648 1.577-1.433 2.57-1.433 2.01 0 3.637 1.624 3.637 3.633 0 .074 0 .137-.004.215h-.007c-.063.786-.314 1.762-.906 2.974 0 0-1.018 1.949-1.836 2.844l-.074.07c-.395.398-.951.648-1.554.648-.74 0-1.395-.359-1.794-.916h-.011c-.398.557-1.054.916-1.794.916-.61 0-1.159-.247-1.558-.648l-.074-.07c-.81-.895-1.836-2.844-1.836-2.844-.592-1.212-.842-2.195-.899-2.974h-.018c-.011-.074-.011-.137-.011-.215 0-2.01 1.632-3.633 3.644-3.633.99 0 1.833.758 2.495 1.406"/><path fill="#009100" d="m.565.047c0 0 .748 5.01 4.286 3.299 0 .002.004-3.808-4.286-3.299"/><path fill="#722a00" d="m5.713 6.095c0 0 .266-3.998-.559-5.116-.824-1.118 2.537 0 2.537 0-.586 1.926-.458 6.05-1.978 5.116"/></svg>