<svg xmlns="http://www.w3.org/2000/svg" viewBox="0 0 16 16"><defs><linearGradient id="a" y1="339.77" y2="191.32" x1="62.832" gradientUnits="userSpaceOnUse" x2="312.91" gradientTransform="scale(1.533.65232)"><stop stop-color="#fff" stop-opacity=".525"/><stop offset="1" stop-color="#fff" stop-opacity="0"/></linearGradient><linearGradient id="b" x1="109.53" gradientUnits="userSpaceOnUse" x2="370.9" gradientTransform="scale(1.2211.81893)"><stop stop-color="#fff" stop-opacity="0"/><stop offset="1" stop-color="#5f0e00" stop-opacity=".417"/></linearGradient></defs><g transform="matrix(.69718 0 0 .64415.036 0)"><path fill="#009100" d="m12.549 1.243c0 0-.976 5.344-4.769 3.333-.001.003.091-4.362 4.769-3.333"/><path fill="#f00" d="m6.166 7.05c.655-.648 1.577-1.433 2.57-1.433 2.01 0 3.637 1.624 3.637 3.633 0 .074 0 .137-.004.215h-.007c-.063.786-.314 1.762-.906 2.974 0 0-1.018 1.949-1.836 2.844l-.074.07c-.395.398-.951.648-1.554.648-.74 0-1.395-.359-1.794-.916h-.011c-.398.557-1.054.916-1.794.916-.61 0-1.159-.247-1.558-.648l-.074-.07c-.81-.895-1.836-2.844-1.836-2.844-.592-1.212-.842-2.195-.899-2.974h-.018c-.011-.074-.011-.137-.011-.215 0-2.01 1.632-3.633 3.644-3.633.99 0 1.833.758 2.495 1.406"/><path fill="#009100" d="m.565.047c0 0 .748 5.01 4.286 3.299 0 .002.004-3.808-4.286-3.299"/><path fill="#722a00" d="m5.713 6.095c0 0 .266-3.998-.559-5.116-.824-1.118 2.537 0 2.537 0-.586 1.926-.458 6.05-1.978 5.116"/></g><g fill-rule="evenodd" transform="matrix(.03655 0 0 .03377-.896 2.975)"><path fill="#ffe200" stroke="#000" stroke-linejoin="round" stroke-width="10" d="m388.75 93.75c-18.75-17.5 31.25-30 37.5-23.75 10 5-8.75 8.75-7.5 17.5 1.25 8.75 0 55 10 57.5 10 2.5 22.5 11.25 22.5 23.75 31.25 77.5-91.25 290-381.25 183.75-5-3.75-32.5-35-37.5-42.5-2.5-8.75-6.25-30 8.75-37.5 128.75-33.75 277.5 32.5 345-118.75 11.25-26.25 2.5-60 2.5-60z"/><g stroke-width="1.25"><path fill="url(#a)" d="m43.75 290l2.5-12.5c92.5-35 263.75 38.75 346.25-120-41.25 112.5-113.75 181.25-348.75 132.5"/><g fill="#442400"><path d="m386.15 89.14c2.92-17.6 29.12-18.07 36.45-18.944 11.98 1.566-15.49 21.444-36.45 18.944"/><path d="m32.518 305.14c-.933-18.37-1.866-24.43 8.743-30.49 4.617 6.93 3.75 28.37-8.743 30.49"/></g><path fill="url(#b)" d="m133.75 366.25c218.75 55 292.99-83.12 306.25-116.25 22.5-40 8.75-85 8.75-85-1.25 135-142.5 243.75-315 201.25"/></g></g></svg>