<svg xmlns="http://www.w3.org/2000/svg" viewBox="0 0 16 16"><g stroke="#0c0800" stroke-linejoin="round" transform="translate(-249.78-560.06)"><path fill="#5a3216" stroke-width=".587" d="m264.55 564.77c.609 0 .941-.111.939.911l-.018 8.727c-.002.878-.441 1.332-1.115 1.332h-13.418c-.674 0-.779.212-.786-.667l-.076-10.252c0 0 10.861-.051 14.475-.051z"/><g fill="#ffe680"><path stroke-width=".574" d="m262.19 571.44c.572 0 1.032.179 1.032.4v2.258c0 .222-.46.4-1.032.4l-12.02.02c0 0-.048-2.258-.048-3.066 0 0 9-.013 12.06-.013z"/><path stroke-width=".586" d="m262.21 566.35c.575 0 1.038.186 1.038.416v2.346c0 .231-.463.415-1.038.416l-12.09.021c0 0-.048-2.346-.048-3.186 0 0 9.05-.013 12.133-.013z"/></g><path fill="#5a3216" stroke-width=".685" d="m250.12 564.64l10.243-4.174c0 0 .285-.502 2.698 1.31 1.778 1.335 2.163 2.945 2.163 2.945z"/></g></svg>