<svg xmlns="http://www.w3.org/2000/svg" viewBox="0 0 16 7.247"><g fill="#ac39ac"><path d="m7.381 0c-.005 0-.008.001-.012.003-.054.021-.339.336-.633.701l-.537.663-.388.029c-1.776.215-3.223.943-4.556 2.112-.276.292-1.317 1.261-1.253 1.496.022.024.27-.006.542.029.511.066 1.294.166 1.289.272-.002.055-.442.108-1.245.211-.688.088-.682.232.02.48.841.297 1.946.482 3.732.352 1.327.014 2.51-.458 3.761-.756.088-.004.346-.078.572-.165 1.363-.39 2.484-.772 3.6-.657 1.03.053 1.717.753 2.53 1.258.034.001.241.135.459.298.594.444.745.381.512-.211-.191-.487-.506-1.595-.499-1.761.179-.549.363-1.22.603-1.748.138-.242.163-.488.052-.49-.018 0-.096.028-.175.065-.079.037-.286.131-.455.208-.169.076-.375.196-.457.268-.493.323-1.027.48-1.628.455-.671-.134-1.54-.24-2.21-.697-1.03-.554-1.119-.597-1.546-.748-.233-.082-.432-.16-.443-.171-.011-.012.047-.081.128-.156.081-.075.141-.174.132-.22-.009-.046-.254-.171-.545-.282-.338-.129-.66-.323-.897-.538-.19-.173-.387-.301-.455-.299m-4.941 3.451c.252 0 .455.206.455.46 0 .254-.204.46-.455.46-.252 0-.455-.206-.455-.46 0-.254.204-.46.455-.46"/><path d="m3.761 5.173c-.914-1.286-.733.021-.331-.895l2.151-1.655c4.849-1.302-1.767 1.426 1.481.775-.027.029.118.204.32.39.203.186.353.433.331.547-2.243 1.239.273 3.038-1.79 2.904-1.01-.066-2.641-1.939-2.163-2.066"/></g></svg>