<svg xmlns="http://www.w3.org/2000/svg" viewBox="0 0 16 15.987" xmlns:xlink="http://www.w3.org/1999/xlink"><defs><path fill="#75750b" id="a" d="m381 629.86218a.5 .5 0 1 1 -1 0 .5 .5 0 1 1 1 0"/></defs><g transform="translate(-370-617.37)"><path d="m377 622.36l2-2h5l2 2v11h-9z"/><path fill="#ccc" d="m378 632.36v-9l2-2h3l2 2v9z"/><g fill="none"><path stroke="#4f4f4f" d="m379.49 621.85l1 1h2l1-1"/><path stroke="#000" stroke-linecap="square" d="m381.5 621.86v-3l-1-1h-6l-2 2v4"/></g><rect width="5" x="370" y="624.36" fill="#008000" rx="1" height="5"/><use xlink:href="#a"/><use xlink:href="#a" transform="translate(1-1)"/><use xlink:href="#a" transform="translate(1)"/><use xlink:href="#a" transform="translate(-1)"/><use xlink:href="#a" transform="translate(2-1)"/><use xlink:href="#a" transform="translate(3-1)"/><use xlink:href="#a" transform="translate(3)"/><use xlink:href="#a" transform="translate(2)"/><use xlink:href="#a" transform="translate(2 1)"/><use xlink:href="#a" transform="translate(1 1)"/><use xlink:href="#a" transform="translate(0 1)"/><use xlink:href="#a" transform="translate(-1 1)"/><use xlink:href="#a" transform="translate(-2 1)"/><use xlink:href="#a" transform="translate(3 1)"/><use xlink:href="#a" transform="translate(-2)"/><use xlink:href="#a" transform="translate(4)"/><use xlink:href="#a" transform="translate(4 1)"/><use xlink:href="#a" transform="translate(-2 2)"/><use xlink:href="#a" transform="translate(-1 2)"/><use xlink:href="#a" transform="translate(0 2)"/><use xlink:href="#a" transform="translate(1 2)"/><use xlink:href="#a" transform="translate(2 2)"/><use xlink:href="#a" transform="translate(3 2)"/><use xlink:href="#a" transform="translate(4 2)"/><use xlink:href="#a" transform="translate(0-1)"/><use xlink:href="#a" transform="translate(-1-1)"/><use xlink:href="#a" transform="translate(1-2)"/><use xlink:href="#a" transform="translate(3-2)"/><use xlink:href="#a" transform="translate(2-2)"/><use xlink:href="#a" transform="translate(4-1)"/></g></svg>