<svg xmlns="http://www.w3.org/2000/svg" viewBox="0 0 16 15"><rect color-interpolation-filters="linearRGB" color="#000" image-rendering="auto" color-rendering="auto" fill-rule="evenodd" rx="3" width="16" color-interpolation="sRGB" text-rendering="auto" fill="#fff" height="15" shape-rendering="auto"/><path fill="#734a08" d="m2 2v6c0 2 2 3 4.5 3 2.5 0 4.5-1 4.5-3h2c1 0 2-1 2-2v-1c0-1-1-2-2-2h-2v-1zm9 2.25h1.75c.668 0 1 .563 1 1.25 0 .687-.388 1.25-1 1.25h-1.75zm-10 7.75c0 1 1 2 2 2h7c1 0 2-1 2-2z"/></svg>