<svg xmlns="http://www.w3.org/2000/svg" viewBox="0 0 16 14.06"><g fill="#cb7842"><path d="m8.03 9.07c.107-.933-.6-1.864-2.12-1.944h-2.88c-1.52.08-2.233 1.01-2.14 1.944z"/><path d="m.903 12.07c-.093.933.62 1.925 2.14 1.991h2.88c1.52-.067 2.226-1.058 2.12-1.991z"/></g><path fill="#6e1f00" d="m8.33 9.904h-7.65c-.186 0-.346.067-.48.2-.133.133-.2.287-.2.46 0 .2.067.364.2.49.133.127.293.19.48.19h7.65c.187 0 .347-.063.48-.19.133-.127.2-.29.2-.49 0-.173-.067-.327-.2-.46-.133-.133-.293-.2-.48-.2"/><path fill="#f00" d="m14.901 0l-1.588 3.74h1.24l1.448-3.56z"/><path fill="#a2afc1" d="m8.92 3.74l1.3 10.32h4.42l1.32-10.32z"/></svg>