<svg xmlns="http://www.w3.org/2000/svg" viewBox="0 0 16 16"><circle cx="8" cy="8" r="7.386" color-interpolation-filters="linearRGB" color="#000" image-rendering="auto" color-rendering="auto" fill-rule="evenodd" stroke-width="1.229" stroke-linecap="round" color-interpolation="sRGB" text-rendering="auto" fill="#fff" stroke="#734a08" shape-rendering="auto"/><path fill="#734a08" d="m5.494 3.203c-.742 0-2.225 1.421-2.225 3.551 0 2.131 1.669 2.841 1.669 2.841l-.54 3.551h2.227l-.574-3.551c0 0 1.669-.71 1.669-2.841 0-2.131-1.483-3.551-2.225-3.551m2.797.668v4.303c0 .71 1.569.71 1.569 1.421l-.54 3.551h2.464l-.54-3.551c0-.71 1.468-.71 1.468-1.421v-4.303c0-.71-.826-.71-.826 0v3.593c0 .4-.913.4-.913 0v-3.593c0-.71-.91-.71-.91 0v3.593c0 .375-.947.375-.947 0v-3.593c0-.71-.826-.71-.826 0"/></svg>