<svg xmlns="http://www.w3.org/2000/svg" viewBox="0 0 16 16"><defs><linearGradient id="a" y1="1041.36" x1="8" y2="1044.36" x2="17" gradientUnits="userSpaceOnUse"><stop stop-color="#ffd07c"/><stop offset="1" stop-color="#ffdfba"/></linearGradient><linearGradient id="b" y1="1047.36" x1="7" y2="1048.36" x2="11" gradientUnits="userSpaceOnUse"><stop stop-color="#d07b11"/><stop offset="1" stop-color="#f0a64a"/></linearGradient></defs><g fill-rule="evenodd" transform="translate(0-1036.36)"><g stroke="#6f400c"><path color-interpolation-filters="linearRGB" color="#000" image-rendering="auto" color-rendering="auto" stroke-width=".493" d="m13.13 1041.05c1.874 3.313-2.062 4.381-4.84 4.381-2.778 0-6.784-1.443-4.966-3.813-.408-1.039 1.396-5.421 5.03-4.823 2.637.434 3.651 1.568 4.777 4.255z" color-interpolation="sRGB" text-rendering="auto" fill="url(#a)" shape-rendering="auto"/><path fill="url(#b)" stroke-width=".691" d="m4.177 1044.45l4.214 7.07 4.214-7.07c-2.864.505-5.802 1.708-8.429 0z"/></g><g fill="#9b0000" color-rendering="auto" color-interpolation-filters="linearRGB" shape-rendering="auto" image-rendering="auto" text-rendering="auto" color-interpolation="sRGB" color="#000"><ellipse cx="5.233" cy="1037.67" rx=".956" ry=".916"/><ellipse cx="7.171" cy="1040.57" rx=".956" ry=".916"/><ellipse cx="7.659" cy="1043.61" rx=".956" ry=".916"/><ellipse cx="3.083" cy="1041.27" rx=".956" ry=".916"/><ellipse cx="11.398" cy="1040.72" rx=".956" ry=".916"/><ellipse cx="12.32" cy="1043.61" rx=".956" ry=".916"/><ellipse cx="9.286" cy="1037.89" rx=".956" ry=".916"/></g></g></svg>