<svg width="312.25" xmlns="http://www.w3.org/2000/svg" viewBox="0 0 312.24864 359.23141" height="359.23"><defs><linearGradient id="a" y1="121.23" y2="349.41" x1="121.87" gradientUnits="userSpaceOnUse" x2="122.01" gradientTransform="translate(206.15 216.44)"><stop stop-color="#ef8900"/><stop offset="1" stop-color="#5d2500"/></linearGradient><radialGradient cx="126.23" cy="45.06" id="b" r="117.84" gradientUnits="userSpaceOnUse" gradientTransform="matrix(1.7551 0 0 1.7657 110.83 200.22)"><stop stop-color="#fff"/><stop offset="1" stop-color="#c5c5c5"/></radialGradient><linearGradient id="c" y1="186.8" y2="117.64" x1="113.13" gradientUnits="userSpaceOnUse" x2="160.42" gradientTransform="translate(206.15 216.44)"><stop stop-color="#ff7f2a"/><stop offset="1" stop-color="#813300" stop-opacity="0"/></linearGradient></defs><g transform="translate(-214.54-236.74)"><path fill="url(#a)" stroke="#000" d="m271.02 285.6c-19.529-.024-34.948.151-36.5.594-4.138 1.182-7.687 5.312-7.687 5.312 0 0 1.786 15.961 2.968 21.282 1.183 5.316 8.279 115.88 7.688 124.16-.591 8.28 2.338 106.4 1.156 111.72-1.108 4.99-2.21 10.49-2.344 10.19-.033.38-1.765 20.6-.594 23.53 1.183 2.95 68.58 14.18 99.91 13 31.33-1.18 94.58-8.27 98.12-13 3.55-4.73-3.55-28.98-1.18-31.94 2.36-2.96 6.49-4.73 13-6.5 6.5-1.77 33.71-12.99 40.81-18.31 7.09-5.32 23.05-33.11 26.59-44.35 3.55-11.23 12.41-37.26 13-47.9.59-10.64.59-52.01-1.78-60.88-2.36-8.86-12.4-28.36-19.5-31.9-7.09-3.55-58.53-7.1-58.53-7.1 0 0-3.53-2.39-3.53-5.94 0-3.54-69.17-38.41-85.13-40.18-9.97-1.109-53.917-1.741-86.47-1.782zm173.94 71.53c-.59 0 44.94 1.2 52.03 4.15 7.1 2.96 6.51 21.86 7.1 32.5.59 10.64-.6 38.42-.6 47.28 0 8.87-17.14 47.91-22.46 54.41-5.33 6.5-12.4 11.81-17.72 17.72-5.32 5.91-23.65 4.74-28.38 3.56-4.73-1.18-3.56-11.84-4.16-18.34-.59-6.5 4.16-108.18 4.76-114.09.59-5.92 1.16-20.1 9.43-27.19z"/><path fill="url(#c)" d="m237.48 344.72c0 0 5.32-27.19 11.823-30.74 6.503-3.547 41.972-6.503 49.07-4.729 7.094 1.774 24.828 15.37 28.966 20.1 4.138 4.729 11.823 34.878 13.596 43.15 1.774 8.276 4.138 40.2 5.32 43.15 1.182 2.956 8.867 18.917 17.14 18.917 8.276 0 26.01-15.961 29.558-22.464 3.547-6.503 4.138-13.596 14.779-26.602 10.641-13 8.276-37.834 12.414-43.15 4.138-5.32 1.182-8.867 5.911-5.911 4.729 2.956 7.094 7.685 10.641 3.547 3.547-4.138-15.37-34.29-15.37-34.29l-177.34-15.369-14.184 11.232c0 0 5.911 7.094 6.503 10.641.591 3.547 1.774 33.11 1.182 32.513z"/><g stroke="#000"><path fill="url(#b)" d="m229.8 319.89c0 0 2.365-17.14 4.729-18.917 2.365-1.774 62.07-7.094 66.8-6.503 4.729.591 19.508 8.276 30.74 8.276 11.232 0 16.552 2.365 20.69 4.729 4.138 2.365 8.867 10.05 13 11.232 4.138 1.182 13.596 7.094 12.414 11.232-1.182 4.138-1.773 21.873-1.182 25.42.591 3.547 2.956 10.05 2.956 10.05 0 0 0 4.729 2.956 5.911 2.956 1.182 8.867 1.182 8.867-3.547 0-4.729-2.956-5.911-4.138-11.823-1.182-5.911-2.956-9.458 1.182-17.735 4.138-8.276 4.138-10.641 8.276-13 4.138-2.365 4.729-6.503 7.685-1.182 2.956 5.32-.591 7.685 5.32 6.503 5.911-1.182 4.138-7.094 11.232-5.911 7.094 1.182 5.911 1.774 7.685 7.094 1.774 5.32 0 11.232 5.911 6.503 5.911-4.729 8.867-10.05 11.823-15.961 2.956-5.911 5.32-34.878-1.182-44.928-6.503-10.05-49.07-33.696-59.12-34.29-10.05-.591-81.58-7.685-89.26-5.32-7.685 2.365-30.15 4.138-35.469 7.094-5.32 2.956-5.32 9.458-9.458 10.05-4.138.591-10.641 0-12.414 4.729-1.774 4.729.591 1.774-6.503 6.503-7.094 4.729-11.232 1.182-11.823 9.458-.591 8.276 4.138 7.685-1.182 10.641-5.32 2.956-6.503 2.956-4.138 10.05 2.365 7.094 10.05 24.828 10.05 24.828z"/><path fill="#fff" d="m232.75 311.62l2.365 18.326c0 0 10.641 162.57 9.458 173.21-1.182 10.641-4.729 39.02-1.182 43.745 3.547 4.729 3.547 9.458 5.911 10.05 2.365.591 21.281 7.094 35.469 6.503 14.188-.591 87.49 0 99.31-1.774 11.823-1.773 27.19-4.138 34.29-7.094 7.094-2.956 7.685-4.729 10.05-1.774 2.365 2.956 5.911 12.414 3.547 14.188-2.365 1.774-28.375 13-38.425 11.232-10.05-1.774-58.52-4.729-73.894-4.729-15.37 0-34.29 2.956-46.701 0-12.414-2.956-23.646-2.365-26.602-4.138-2.956-1.774-8.276-10.05-7.685-12.414.591-2.365 2.365-11.823 2.365-11.823 0 0-1.182-73.894-1.182-77.44 0-3.547-2.956-77.44-2.956-77.44l-5.32-71.53 1.182-7.094z"/></g><g fill="#803300"><path d="m428.42 341.76c0 0 0 34.878.591 46.701.591 11.823-2.365 78.03-4.138 85.72-1.774 7.685-1.182 11.823 0 18.326 1.182 6.503 0 8.276 0 8.276 0 0 3.547-21.873 4.138-27.19.591-5.32 3.547-80.4 4.138-85.13.591-4.729 4.729-20.69 5.911-26.602 1.182-5.911 2.956-8.867 0-13-2.956-4.138-1.182-2.365-4.729-4.729-3.547-2.365-5.911 0-5.911-2.365"/><path d="m242.8 326.39c1.774 7.685 4.138 108.18 4.729 115.27.591 7.094 3.547 37.24 2.365 46.11-1.182 8.867-1.774 10.641-2.956 13.596-1.182 2.956-1.774-11.232-1.774-11.232 0 0-7.685-103.45-6.503-107.59 1.182-4.138-2.365-40.2-.591-44.928 1.774-4.729 4.138-12.414 4.729-11.232z"/></g><path fill-opacity=".438" d="m251.08 533.3c2.956 7.094 4.138 11.823 10.05 12.414 5.911.591 54.39 3.547 66.21 3.547 11.823 0 69.76 0 78.03-5.912 8.276-5.912 11.232-3.547 14.188-14.188 2.956-10.641 4.729-23.646 2.365-27.784-2.365-4.138 5.911 10.05 5.911 18.326 0 8.276-4.138 13.596-9.458 21.873-5.32 8.276-13 12.414-24.24 12.414-11.232 0-24.24 1.773-32.513.591-8.276-1.182-14.188-2.365-25.42.591-11.232 2.956-53.2-.591-64.44-2.365-11.232-1.773-20.1 1.774-23.06-5.912-2.956-7.685-2.365-17.14 0-23.05 2.365-5.912 5.911-15.37 5.911-15.37z"/><path fill="#fff" fill-opacity=".715" d="m251.08 323.44c1.774 7.685 9.458 33.696 8.867 42.563-.591 8.867-1.182 36.651-2.365 49.657-1.182 13-4.729 31.922-2.956 49.07 1.774 17.14 4.138 23.06 1.182 29.558-2.956 6.503-7.094 15.961-7.094 15.961 0 0 16.552-21.873 17.735-27.19 1.182-5.32-4.138-30.74-2.956-43.745 1.182-13 2.956-42.563 5.32-56.751 2.365-14.188 3.547-26.602.591-39.607-2.956-13-17.735-21.281-18.326-19.508z"/><path fill="#afafaf" d="m442.97 329.88c0-3.547 2.589 27.25 1.998 27.25-.037-.924 45.677.831 52.77 3.787 7.094 2.956 6.503 22.598 7.094 33.24.591 10.641-.594 37.86-.594 46.727 0 8.867-16.964 47.719-22.284 54.22-5.32 6.503-12.953 12.546-18.273 18.458-5.32 5.912-24.57 4.93-29.3 3.747-4.729-1.182 4.492 27.852 10.995 26.08 6.503-1.773 33.719-13.177 40.812-18.497 7.094-5.32 22.492-32.742 26.04-43.974 3.547-11.232 12.594-36.896 13.185-47.537.591-10.641.768-52.01-1.596-60.875-2.365-8.867-12.776-28.18-19.87-31.721-7.094-3.547-57.35-6.687-57.35-6.687 0 0-3.628-2.146-3.628-4.215z"/><path stroke="#000" d="m442.32 330.24c0 0 2.069 5.173 2.512 7.685.443 2.512 1.33 10.789 1.034 13.449-.296 2.66.591 5.32-.443 5.468-1.034.148-1.182-2.217-1.182-3.99 0-1.774-.296-9.163-.887-11.675-.591-2.512-.739-4.286-1.182-6.06-.443-1.773.591-5.173.148-4.877z"/></g></svg>