<svg xmlns="http://www.w3.org/2000/svg" viewBox="0 0 16 16"><g transform="translate(0-1036.36)"><rect width="16" y="1036.36" fill="#fff" rx="2" height="16"/><g fill="#3771c8" color="#000"><path d="m10.531 1045.79c-.571 0-1.031.536-1.031 1.203v.685c0 .013 0 .026 0 .039v4.073c-.009.751.963.751.954 0v-3.958h.491v4.532h3.059v-4.532h.541v3.958c-.009.751.963.751.954 0v-4.797c0-.666-.461-1.202-1.032-1.202z"/><path d="m1.563 1045.79c-.571 0-1.031.536-1.031 1.203v.685c0 .013 0 .026 0 .039v4.073c-.009.751.963.751.954 0v-3.958h.491v4.532h3.059v-4.532h.541v3.958c-.009.751.963.751.954 0v-4.797c0-.666-.461-1.202-1.032-1.202z"/></g><path fill="none" stroke="#006400" stroke-linejoin="round" stroke-linecap="round" d="m1 1041.85l7-4 7 4"/><g fill="#3771c8"><ellipse cx="3.531" cy="1044" rx="1.323" ry="1.323"/><ellipse cx="12.5" cy="1044" rx="1.323" ry="1.323"/></g><path shape-rendering="auto" color-interpolation-filters="linearRGB" fill="#006400" image-rendering="auto" text-rendering="auto" d="m7.991 1040.75c-.294.01-.528.277-.525.607v11h1.067v-11c.004-.338-.241-.613-.542-.607" color="#000" fill-rule="evenodd" color-rendering="auto" color-interpolation="sRGB"/></g></svg>