<svg xmlns="http://www.w3.org/2000/svg" viewBox="0 0 16 16"><g transform="translate(0-1036.36)"><rect width="16" y="1036.36" fill="#fff" rx="2" height="16"/><path fill="none" stroke="#006400" stroke-linejoin="round" stroke-linecap="round" d="m1 1041.86l7-4 7 4"/><g fill="#3771c8" fill-rule="evenodd"><path d="m8 1044.67c.897 0 .897-.604 1.795-.604 1.795 0 2.692.918 2.692 2.755 0 3.673-2.321 5.509-3.218 5.509-.897 0-.372-.463-1.269-.463-.897 0-.463.463-1.36.463-.897 0-3.127-1.836-3.127-5.509 0-1.836.897-2.755 2.692-2.755.897 0 .897.604 1.795.604"/><path d="m7.587 1044.1c0 0-.072-2.815 2.621-3.734-.072 2.694-2.621 3.734-2.621 3.734"/></g></g></svg>