<svg xmlns="http://www.w3.org/2000/svg" viewBox="0 0 16 16"><g transform="translate(0-1036.36)"><rect width="16" y="1036.36" fill="#fff" rx="2" height="16"/><path fill="none" stroke="#006400" stroke-linejoin="round" stroke-linecap="round" d="m1 1041.85l7-4 7 4"/><g fill="#3771c8"><path color="#000" d="m2.319 1045.79c-.571 0-1.031.536-1.031 1.203v.685c0 .013 0 .026 0 .039v4.073c-.009.751.963.751.954 0v-3.958h.491v4.532h3.059v-4.532h.541v3.958c-.009.751.963.751.954 0v-4.797c0-.666-.461-1.202-1.032-1.202z"/><ellipse cx="4.288" cy="1044" rx="1.323" ry="1.323"/><path color="#000" d="m11.693 1045.88c-.571 0-.627.165-.945.484l-2.565 3.02c-.479.571.321 1.198.815.599l1.855-2.063v4.532h2.573v-6.57z"/><ellipse cx="12.1" cy="1044.27" rx="1.323" ry="1.323"/><path fill-rule="evenodd" d="m10.326 1040.72v2.496h3.388v-1l-1.981-.017z"/></g></g></svg>