<svg xmlns="http://www.w3.org/2000/svg" viewBox="0 0 16 16"><g transform="translate(0-1036.36)"><rect width="16" y="1036.36" fill="#fff" rx="2" height="16"/><path fill="#3771c8" color="#000" d="m6.03 1040.51c-.571 0-1.031.536-1.031 1.203v.685c0 .013 0 .026 0 .039v4.073c-.009.751.963.751.954 0v-3.958h.491v4.532h3.059v-4.532h.541v3.958c-.009.751.963.751.954 0v-4.797c0-.666-.461-1.202-1.032-1.202z"/><path fill="#fff" fill-rule="evenodd" d="m11.977 1049.63c-4.02.945-7.38-1.527-7.977-4.544 3.53-.489 5.169 3.345 7.977 4.544"/><ellipse fill="#3771c8" cx="8" cy="1038.69" rx="1.323" ry="1.323"/><g fill="#008000" fill-rule="evenodd"><path d="m7.429 1049.31c-2.868.55-4.137-2.703-6.109-3.891 2.89-.547 4.02 2.796 6.109 3.891"/><path d="m10.09 1049.31c-2.813.756-4.01-2.304-5.578-3.632 2.468-.391 3.614 2.674 5.578 3.632"/><path d="m16 1047.64v4.718c-4.268-.558-7.01.562-9.985-.585-2.585-.997-3.799-2.406-5.575-4.13-.67-.65-.471-1.038-.081-1.244 1.08-.57 3.133 2.99 5.743 3.689 2.995.803 4.315-.666 8.289-.089-.309-2.663-4.03-.026-4.03-2.06 0-1.573 4.851-.738 5.636-.299"/></g></g></svg>