<svg xmlns="http://www.w3.org/2000/svg" viewBox="0 0 16 11"><path fill="#fff" d="m0 0h16v11h-16z"/><path stroke-width=".94" d="m8.832 2.319c0 0-.659 1.049-1.295 1.049h-2.332c-.636 0-1.211.387-1.654.818l-2.078 2.024c-.251.244-.46.728-.466.947-.015.474 0 .947 0 .947 0 0 .933 0 .933-.947v-.474l.933-.947h.466l.147.274c0 0-.89 1.728-.89 3.343 0 .646.636.646.636.646h.636c0 0 .318 0 0-.323l-.318-.323c0-.646.721-1.565 1.187-2.196 0 0 .016 1.097 0 1.895-.007.388.254.947.636.947h.636c0 0 .318 0 0-.323l-.318-.323c-.291-.539.445-2.67.445-2.67 1.186 0 1.399.474 2.799.474l.339 2.196c.104.673.594.646.594.646h1.399c.318 0 .897-.295.318-.733l-.318-.214v-1.895c1.133-.163 1.866-.947 1.866-1.895h.933c.3 0 .933 0 .933-.474v-.947l-1.59-1.593c-.701-.702-1.209-1.249-2.141-1.249-1.356 0-1.993.539-2.437 1.319"/></svg>