<svg xmlns="http://www.w3.org/2000/svg" viewBox="0 0 411.93 394.88"><g transform="translate(-612.86 202.69)"><path fill="#fff" d="m612.86-202.69h411.93v394.88h-411.93z"/><g transform="translate(628.8-202.69)"><path d="m101.99 148.1c40.486 0 73.31-33.15 73.31-74.05 0-40.899-32.819-74.05-73.31-74.05-40.484 0-73.31 33.15-73.31 74.05 0 40.895 32.822 74.05 73.31 74.05"/><path d="m156.68 37.26h156.55l25.14 25.4c4.626 4.673 4.508 7.909 0 12.461l-30.599 30.908-18.03-18.207-18.03 18.207-17.792-17.969-17.314 17.49-18.03-18.207-23.485 23.72h-38.424z"/></g><g transform="matrix(-2.35805 0 0 2.35805 1298.84-348.61)"><g fill="none" stroke="#000"><g stroke-width="26"><circle cx="200.53" cy="461.96" r="78.38" transform="matrix(.3368 0 0 .3368 192.59 42.973)"/><circle cx="200.53" cy="461.96" r="78.38" transform="matrix(.3368 0 0 .3368 79.46 42.46)"/></g><path stroke-linejoin="round" stroke-width="7.03" d="m167.91 153.14l67.883.343 23.999 44.569h-45.941l-47.998-32.57"/></g><g fill-rule="evenodd"><path stroke-width="25" d="m170.52 126.43c-3.687 0-6.474-.082-9.331 4.282-.822 1.455-1.198 3.231-.895 4.999.364 2.01 1.555 3.986 2.958 5.155 1.858 1.549 3.622 1.429 3.337 2.821-.366 1.786-1.482 4.268-2.688 8.299-1.224 4.091-2.678 9.1-4.105 14.03-1.427 4.932-2.828 9.791-3.936 13.577-.554 1.893-1.039 3.519-1.41 4.736-.362 1.186-.682 2.108-.653 2.042-1.155 2.032-1.312 3.357-3.25 5.087-2.172 1.901-3.941 3.306-4.555 3.735-1.559 1.133-2.284 3.523-1.461 4.704 1.038 1.61 3.181 1.857 4.747 1.375 1.487-.472 3.841-1.283 6.571-3.544l.021-.032.032-.021c3.798-3.258 5.204-7.212 5.347-7.441l.2-.305.137-.337c.329-.81.526-1.525.916-2.8.389-1.275.883-2.922 1.442-4.831 1.118-3.817 2.511-8.684 3.936-13.609 1.425-4.925 2.875-9.907 4.084-13.946 1.209-4.04 1.972-7.357 2.255-8.06.687-1.718 1.038-3.572.568-5.431-.47-1.859-1.873-3.36-3.133-3.708-2.876-.805-2.113-2.873-.641-2.876l12.329-.025.03-7.874c0 0-8 0-12.851 0"/><g fill="#fff" stroke="#000"><path stroke-width="8.42" d="m214.73 196.65l23.273-56.97"/><path stroke-linecap="round" stroke-width="3.073" d="m204.31 178.47l18.909 40"/></g></g><g stroke="#000"><circle fill="none" cx="200.53" cy="461.96" r="78.38" stroke-width="31.31" transform="matrix(.13231 0 0 .13669 187.57 134.99)"/><g fill-rule="evenodd"><g fill="#fff" stroke-width="4.294"><path d="m199.26 179.7l12.421.114"/><path d="m216.88 216.79l12.421.114"/></g><path stroke-width=".421" d="m249.4 134.59h-29.21c-1.091 0-2.499 1.93-1.091 3.212 1.523 1.449 15.212 4.424 15.212 4.424 0 0 3.758 1.03 5.758.788 2-.242 8.909-.848 9.333-8.424z"/></g></g></g><circle fill="#fff" cx="101.35" cy="83.932" r="18.426" transform="translate(594.43-211.9)"/></g></svg>