<svg xmlns="http://www.w3.org/2000/svg" viewBox="0 0 575 575"><path fill="#fff" stroke="#0078ff" stroke-width=".99" d="m.495.495h574.01v574.01h-574.01z"/><g stroke="#000" transform="matrix(.98758 0 0 1-171.62 7.01)"><g fill="none" stroke-width="40" transform="matrix(.61219 0 0 .61219 156.41 178.29)"><circle cx="215" cy="409" r="161"/><circle cx="790" cy="406" r="161"/></g><path fill-rule="evenodd" stroke-width=".612" d="m419.34 187.76c-81.16.791-67.39-8.385-111.06 131.94-35.57 112.12-31.696 99.89-31.882 107.76-.13 6.11 4.802 10.954 10.999 11.369 12.889-1.303 7.468 1.394 52.15-137.37 163.28 172.24 102.02 144.31 189.89 147.81 115.49-1.107 124.87 6.01 126.24-10.916-.158-5.748-2.848-9.176-82.11-185.57l7.594-20.882 26.1-.475-.949-21.832h-97.29c-8.596 11.759 3.48 11.707 46.985 21.357l-7.594 21.357-194.11.475c13.08-45.667 5.695-42.819 64.55-42.714zm-70.63 88.43l189.94-.337-54.894 147.51zm212.84 8.756l-53.884 141.45 117.87.337z"/></g><path fill="#1e1916" d="m230.67 88l5 42 20 6.333 18-11-6.333-43c0 0 36.667 11 39.667 37.33 0 0 3.999 23-10.334 34l-10.999 10c0 0-14 10.667-10.667 34v204l-.333 7.667c0 0 1 9-9 9.333h-19c0 0-10 1.667-11.667-12.333v-220.33c0 0 1.333-12.333-8.333-18.333l-12.333-10c0 0-21.333-16.334-7.333-45.667-.001 0 4.999-13.999 23.665-23.999" transform="matrix(0-1.60916 1.66721 0-129.49 524.03)"/></svg>