<svg xmlns="http://www.w3.org/2000/svg" viewBox="0 0 505.72 408.41" xmlns:xlink="http://www.w3.org/1999/xlink"><defs><path id="a" d="m640.24 222.04c0 27.1-21.973 49.08-49.08 49.08-27.1 0-49.08-21.973-49.08-49.08 0-27.1 21.973-49.08 49.08-49.08 27.1 0 49.08 21.973 49.08 49.08"/></defs><path fill="#fff" d="M 0,0 H505.72 V408.41 H0 z"/><g transform="matrix(-.68741 0 0 1 492.43 129.15)"><use xlink:href="#a" transform="matrix(1.07955 0 0 1.07955-521.37-27.12)"/><path fill-rule="evenodd" d="m285.83 10.247c2.821-3.266 6.04-6.073 11.97-5.708h256.31l127.38 101.14c1.406 2.971 2.117 5.247 2.474 7.169l.484 89.63c-2.368 5.137-5.153 9.523-10.121 9.98h-29.565c0-87.63-129.54-87.81-129.54 0h-332.83c0-87.29-130.53-87.62-130.53 0h-36.07c-3.075-1.438-5.842-.101-9.905-10.431l-.394-64.45c2.097-5.864 4.713-8.099 7.323-10.374l187.35-31.12z"/><use xlink:href="#a" transform="matrix(1.07955 0 0 1.07955-58.736-27.14)"/><g fill="#fff" fill-rule="evenodd"><path d="m226.41 97.07l63.843-62.998c1.439-1.223 2.572-2.908 5.074-2.537h113.52v77.16h-177.58c-6.76-2.666-7.675-6.708-4.862-11.627"/><path d="m585.24 89.19l-54.712-55.1c-1.439-1.223-2.572-2.908-5.074-2.537h-95.51v77.16h162.77c7.702-1.536-2.433-11.927-7.478-19.525"/></g></g><g fill="#00f"><ellipse cx="439.13" cy="92.83" rx="19.867" ry="34.403"/><ellipse cx="374.2" cy="145.17" rx="19.867" ry="34.403"/><ellipse cx="309.27" cy="69.58" rx="19.867" ry="34.403"/><ellipse cx="169.72" cy="84.11" rx="19.867" ry="34.403"/><ellipse cx="101.88" cy="48.25" rx="19.867" ry="34.403"/><ellipse cx="51.49" cy="101.56" rx="19.867" ry="34.403"/><ellipse cx="238.52" cy="41.471" rx="19.867" ry="34.403"/></g></svg>