<svg xmlns="http://www.w3.org/2000/svg" viewBox="0 0 149.29 140" xmlns:xlink="http://www.w3.org/1999/xlink"><defs><path fill="#fff" id="a" d="m160 642.36c0 16.569-13.431 30-30 30-16.569 0-30-13.431-30-30 0-16.569 13.431-30 30-30 16.569 0 30 13.431 30 30"/></defs><g transform="translate(-305.36-413.8)"><path stroke-width="12.442" d="m425.71 469.51c0 86.79-70.36 157.14-157.14 157.14-86.79 0-157.14-70.36-157.14-157.14 0-86.79 70.36-157.14 157.14-157.14 86.79 0 157.14 70.36 157.14 157.14z" fill="#fff" stroke="#000" transform="matrix(.42849 0 0 .42849 269.56 282.61)"/><path fill="#f00" d="m343.93 423.79v120h-15c-31.818-40.29-31.04-80.28 0-120z"/><path stroke="#fff" stroke-width="14.469" d="m40 432.36c0 77.32-62.68 140-140 140-77.32 0-140-62.68-140-140 0-77.32 62.68-140 140-140 77.32 0 140 62.68 140 140z" transform="matrix(.33959 0 0 .33959 418.6 336.96)"/><path fill="#fff" d="m80 472.36c0 11.05-8.954 20-20 20-11.05 0-20-8.954-20-20 0-11.05 8.954-20 20-20 11.05 0 20 8.954 20 20" transform="matrix(.75 0 0 .75 339.64 129.52)"/><use xlink:href="#a" transform="matrix(.16667 0 0 .16667 362.98 346.73)"/><use xlink:href="#a" transform="matrix(.16667 0 0 .16667 392.98 376.73)"/><use xlink:href="#a" transform="matrix(.16667 0 0 .16667 332.98 376.73)"/><use xlink:href="#a" transform="matrix(.16667 0 0 .16667 362.98 406.73)"/></g></svg>