<svg xmlns="http://www.w3.org/2000/svg" viewBox="0 0 403.08 527.46"><path fill="#fff" d="M 0,0 H403.08 V527.46 H0 z"/><g transform="translate(25.336 31.28)"><path d="m214.06 176.82h41.43c22.548 0 34.512 12.316 40.03 26.725l29.335 75.67c11.62 1.49 32.22 15.15 32.22 40.985v96.25h-28.527v30.769c0 37.87-53.599 37.424-53.599 0v-30.769h-192.83v30.769c0 37.424-53.599 37.87-53.599 0v-30.769h-28.528v-96.25c0-25.839 20.577-39.495 32.2-40.985l29.335-75.67c5.522-14.409 17.487-26.725 40.04-26.725h41.911z"/><path d="m101.99 148.1c40.486 0 73.31-33.15 73.31-74.05 0-40.899-32.819-74.05-73.31-74.05-40.484 0-73.31 33.15-73.31 74.05 0 40.895 32.822 74.05 73.31 74.05"/><path d="m156.68 37.26h156.55l25.14 25.4c4.626 4.673 4.508 7.909 0 12.461l-30.599 30.908-18.03-18.207-18.03 18.207-17.792-17.969-17.314 17.49-18.03-18.207-23.485 23.72h-38.424z"/><g fill="#fff"><path d="m178.51 278.44h-115.94l22.09-59.56c2.761-8.367 6.904-14.409 16.568-14.499h154.62c9.663.09 13.805 6.132 16.566 14.499l22.09 59.56h-115.93z"/><path d="m56.18 358.44c-13.672 0-24.758-11.426-24.758-25.519 0-14.09 11.09-25.517 24.758-25.517 13.673 0 24.757 11.425 24.757 25.517 0 14.09-11.08 25.519-24.757 25.519"/><path d="m300.88 358.44c13.673 0 24.757-11.426 24.757-25.519 0-14.09-11.08-25.517-24.757-25.517-13.672 0-24.758 11.425-24.758 25.517 0 14.09 11.09 25.519 24.758 25.519"/><path d="m69.789 93.34c10.745 0 19.457-8.802 19.457-19.656 0-10.855-8.712-19.656-19.457-19.656-10.745 0-19.457 8.801-19.457 19.656 0 10.854 8.712 19.656 19.457 19.656"/></g></g></svg>