<svg xmlns="http://www.w3.org/2000/svg" viewBox="0 0 1044.34 1146.38" xmlns:xlink="http://www.w3.org/1999/xlink"><defs><path id="a" d="m95.87 81.67c22.55 0 40.834-18.284 40.834-40.836 0-22.551-18.284-40.835-40.834-40.835-22.553 0-40.834 18.284-40.834 40.835 0 22.552 18.281 40.836 40.834 40.836"/><path id="b" d="m2248.5 995.47c-30.02 0-54.16 27.1-54.16 60.906v14.313h37.03v-1.969h8.75v1.969h107.41v-1.969h8.563v1.969h36.75v-13.438c0-31.17-21.853-61.719-54.813-61.719z"/></defs><path fill="#fff" d="M 0,0 H1044.34 V1146.38 H0 z"/><g transform="matrix(1.22677 0 0 1.46827-2592.31-1266.13)"><use xlink:href="#a" transform="matrix(1.0381 0 0 1.14924 2194.33 891.25)"/><use xlink:href="#b"/></g><path fill-rule="evenodd" d="m55.34 781.59c-2.393-176.41-11.966-24.615 94.36-286.15 76.923-177.78-1.026-129.91 396.92-136.41 354.19 7.179 282.74-44.1 364.1 144.62 101.88 241.71 94.02 115.21 93.33 272.82-3.761 172.99 60.17 128.55-475.9 134.36-531.97-7.179-469.06 37.949-472.82-129.23m107.69-170.26l72.821-168.21c13.587-29.879 9.252-25.468 41.03-25.641l509.12-.055c27.561.101 23.518-1.688 34.872 24.615l72.42 167.23zm-52.08 318.78l136.18-.304c-.418 170.98 13.751 161.44-60.51 162.55-88.43-.342-74.45 8.585-75.67-162.24m701.31 1.216h136.41c-.912 171.24 11.548 159.54-65.64 160-79.81-1.064-69.67 11.548-70.77-160"/><g fill="#fff"><circle cx="178.67" cy="737.18" r="66.5"/><circle cx="878.67" cy="737.18" r="66.5"/></g><g transform="matrix(1.22677 0 0 1.46827-2289.21-1266.13)"><use xlink:href="#a" transform="matrix(1.0381 0 0 1.14924 2194.33 891.25)"/><use xlink:href="#b"/></g><g transform="matrix(1.22677 0 0 1.46827-1986.11-1266.13)"><use xlink:href="#a" transform="matrix(1.0381 0 0 1.14924 2194.33 891.25)"/><use xlink:href="#b"/></g></svg>