<svg xmlns="http://www.w3.org/2000/svg" viewBox="0 0 16 15"><path color-interpolation-filters="linearRGB" color="#000" image-rendering="auto" color-rendering="auto" fill-rule="evenodd" d="m2 3h5v8h-5z" color-interpolation="sRGB" text-rendering="auto" fill="#ff0" shape-rendering="auto"/><path fill="#008000" d="m3.2 1c-1.166 0-2.2.995-2.2 2.2v10.801h7v-7.875c0 0 .875-.125.875.875v4c0 2 1.865 2.125 2.125 2.125.276 0 2.125-.125 2.125-2.125v-4c0 0 1.688.017 1.675-2.969h-.85v-1.8c0-.567-.95-.564-.95-.031v1.8h-1v-1.8c0-.546-.95-.545-.95 0v1.8h-.85c.013 2.986 1.675 3 1.675 3v4c0 .874-.767.875-.875.875-.108 0-.875-.043-.875-.875v-4c0-1.281-1.125-1.926-2.125-1.926v-1.875c0-1.222-1.016-2.2-2.2-2.2zm.8 3h2l-1.25 2h1.5l-2.75 4h-.5l1-3h-1.25z"/></svg>