<svg xmlns="http://www.w3.org/2000/svg" viewBox="0 0 16 16"><g transform="translate(-350-607.36)"><path fill="#0000b3" d="m350 616.36h7v7h-7z"/><path fill="#00b9ff" d="m360 610.36h5v1h-5z"/><path fill="#666" d="m357 612.36l2-1v-1l-2-1z"/><g fill="none"><path stroke="#666" d="m353.5 614.36v-2.5c-.006-.436.375-.987 1-1 .833 0 1.667 0 2.5 0"/><g stroke="#00b9ff"><path d="m360 612.36l5 1.5"/><path d="m360 609.36l5-1.5"/></g></g><path fill="#0000b3" d="m328 616.36c0 1.657-1.343 3-3 3-1.657 0-3-1.343-3-3 0-1.657 1.343-3 3-3 1.657 0 3 1.343 3 3" transform="matrix(1.16667 0 0 1.16667-25.667-102.23)"/></g></svg>