<svg xmlns="http://www.w3.org/2000/svg" viewBox="0 0 6 11"><g transform="translate(0-1041.36)"><rect width="6" y="1041.36" rx="2" height="11"/><g stroke-width=".2"><path fill="#f00" stroke="#b20505" d="m640 709.36c0 1.105-.895 2-2 2-1.105 0-2-.895-2-2 0-1.105.895-2 2-2 1.105 0 2 .895 2 2z" transform="matrix(1.09524 0 0 1.09524-695.76 267.44)"/><path fill="#0f0" stroke="#00b200" d="m640 719.36c0 1.105-.895 2-2 2-1.105 0-2-.895-2-2 0-1.105.895-2 2-2 1.105 0 2 .895 2 2z" transform="matrix(1.09524 0 0 1.09524-695.76 261.49)"/></g></g></svg>