<svg xmlns="http://www.w3.org/2000/svg" viewBox="0 0 480 480"><g fill-rule="evenodd"><path fill="#fff" stroke="#000" stroke-width="2" d="m30.856 5.772h420c10.816.791 23.07 11.844 23.666 24.865v418.81c.05 10.319-11.794 24.19-25.16 24.865h-419.41c-9.524-.583-24.431-15.379-24.865-25.16l.599-418.21c-1.082-6.302 14.286-25.298 25.16-25.16z"/><path fill="#039" stroke="#039" d="m393.72 16.719v.031h-308.97v.031h-49.563c-11.761-.515-18.473 7.519-18.03 20.375v406.41c.047 8.667 3.728 19.07 15.688 19.281h51.31l309.56-.063v.031h53.56c11.959-.211 15.672-10.614 15.719-19.281v-406.44c.442-12.856-6.271-20.89-18.03-20.375zm0 66.5v312.91l-307.28.219v-313.06z"/><path d="m209.1 104.93l20.97 10.485v55.721l-20.671 9.287z"/><path d="m268.49 308.29l21.477-9.403 42.815 35.661-6.093 21.826z"/><path d="m264.23 318.23l51.827 43.44c-36.864 25.479-99.61 20.724-154.88-84.48-45.34-96.66-3.434-164.74 36.848-167.76v68.6c-14.784 4.182-19.654 14.5-17.675 29.06l53.624 112.34c11.394 6.14 21.256 4.623 30.26-1.198"/></g></svg>