<svg xmlns="http://www.w3.org/2000/svg" viewBox="0 0 16 16"><g transform="translate(0-1036.36)"><rect width="16" y="1036.36" fill="#fff" rx="2.386" height="16"/><path d="m8.111 1037.36l-1.061 3.842-5.05.509-.001 2.858c0 0 1.944-.017 6.05-.017.143 1.601 1.454 2.796 2.968 2.796 1.597 0 2.98-1.355 2.98-3.079 0-1.379-.87-2.512-2.039-2.919v-3.978h-3.851z"/><path fill="none" stroke="#0070ff" stroke-width="1.735" d="m.625 1051.11l1.844-1.932 1.844 1.932 1.844-1.932 1.844 1.932 1.844-1.932 1.844 1.932 1.844-1.932 1.844 1.932"/><g fill="#fff"><path d="m8.719 1038.13h2.42v3.067l-3.231.024.811-3.079z"/><path d="m11.01 1043.04c.763 0 1.216.579 1.216 1.232 0 .653-.453 1.232-1.216 1.232-.763 0-1.216-.579-1.216-1.232 0-.653.453-1.232 1.216-1.232"/></g><circle cx="4.497" cy="1045.57" r="1.779"/><circle fill="#fff" cx="4.497" cy="1045.57" r=".917"/></g></svg>