<svg xmlns="http://www.w3.org/2000/svg" viewBox="0 0 224.84 258.69"><path fill="#fff" d="M 0,0 H224.84 V258.69 H0 z"/><g fill-rule="evenodd"><path d="m96.72 245.99l104.31-.066.066-16.179 9.778.066v-207.58c0-4.428-2.566-8.256-7.392-8.256h-107.08c-5.526 0-11.04 3.982-11.04 10.372l-.12 205.4h11.355z"/><path d="m85.88 84.56l-10.438-.062c-.068 42.474.242 126.3.419 127.73.378 3.062.149 6.234-.637 9.123-16.364 41.22-69.31 22.29-61.795-17.823 16.513-39.789 39.667-66.71 51.19-113.64l1.026 34.885c-10.371 20.18-28.667 55.624-42.857 85.25-1.195 27.353 31.344 36.37 41.535 7.01 4.541-51.39-.171-107.41-.256-161.12 6.622-19.687 13.929-21.572 21.345-20.634"/><path fill="#fff" d="m107 43.25l-.361 53.08c0 4.272 3.429 7.222 7.402 7.222l68.788.181c4.173 0 6.139-2.662 6.139-6.319v-53.983c0-5.218-2.986-6.77-6.77-6.77h-68.34c-3.917 0-6.861 2.34-6.861 6.59"/></g></svg>