<?xml version="1.0" encoding="UTF-8" standalone="no"?>
<!-- Created with Inkscape (http://www.inkscape.org/) -->
<svg xmlns:svg="http://www.w3.org/2000/svg" xmlns="http://www.w3.org/2000/svg" version="1.0" width="480" height="480" id="svg2">
  <defs id="defs4"/>
  <path d="M 30.856274,5.7720243 L 450.86109,5.7720243 C 461.67691,6.5627045 473.93298,17.615789 474.52755,30.636789 L 474.52755,449.4433 C 474.57722,459.76184 462.73404,473.63554 449.36321,474.30807 L 29.957547,474.30807 C 20.433732,473.72489 5.5262338,458.92955 5.0927831,449.14373 L 5.691934,30.936364 C 4.6103723,24.633922 19.978002,5.6381226 30.856274,5.7720243 z " style="fill: white; fill-opacity: 1; fill-rule: evenodd; stroke: black; stroke-width: 2; stroke-linecap: butt; stroke-linejoin: miter; stroke-miterlimit: 4; stroke-dasharray: none; stroke-opacity: 1;" id="path3669"/>
  <path d="M 35.1875,16.78125 C 23.426887,16.266334 16.714331,24.30046 17.15625,37.15625 L 17.15625,443.5625 C 17.202803,452.2297 20.884421,462.63293 32.84375,462.84375 L 447.28125,462.8125 C 459.24058,462.6017 462.95345,452.19845 463,443.53125 L 463,37.09375 C 463.44191,24.237959 456.72937,16.20383 444.96875,16.71875 L 35.1875,16.78125 z " style="fill: rgb(0, 51, 153); fill-opacity: 1; fill-rule: evenodd; stroke: none; stroke-width: 1px; stroke-linecap: butt; stroke-linejoin: miter; stroke-opacity: 0.941176;" id="path3661"/>
  <path d="M 57.218573,261.80221 C 56.295803,193.78088 52.604723,252.31086 93.602072,151.46529 C 123.26254,82.916666 93.2066,101.37206 246.65006,98.867403 C 383.22,101.63571 355.66873,81.862072 387.0429,154.62907 C 426.32654,247.82883 423.29458,199.05385 423.03093,259.82484 C 421.58086,326.52792 446.23202,309.39077 239.53154,311.63178 C 34.412973,308.86348 58.668639,326.26427 57.218573,261.80221 z M 98.743218,196.15372 L 126.82179,131.29618 C 132.06059,119.77538 130.38919,121.47608 142.6407,121.40935 L 338.95146,121.3882 C 349.57877,121.42726 348.01967,120.73721 352.39753,130.87955 L 380.31987,195.36277 L 98.743218,196.15372 z M 78.661988,319.07253 L 131.17199,318.95535 C 131.01087,384.88214 136.47426,381.20571 107.8391,381.63047 C 73.74055,381.49865 79.130697,384.94073 78.661988,319.07253 z M 349.07751,319.54124 L 401.6754,319.54124 C 401.32387,385.57055 406.12813,381.05923 376.36514,381.235 C 345.59149,380.82488 349.50228,385.68773 349.07751,319.54124 z " style="fill: white; fill-rule: evenodd; stroke: none;" id="Car"/>
  <circle cx="150" cy="412" r="66.5" transform="matrix(0.385586, 0, 0, 0.385586, 46.9363, 85.8168)" style="fill: rgb(0, 51, 153); fill-opacity: 1; stroke: none;" id="LeftLamp"/>
  <circle cx="850" cy="412" r="66.5" transform="matrix(0.385586, 0, 0, 0.385586, 46.9363, 85.8168)" style="fill: rgb(0, 51, 153); fill-opacity: 1; stroke: none;" id="RightLamp"/>
</svg>