<svg xmlns="http://www.w3.org/2000/svg" viewBox="0 0 16 16"><g transform="translate(0-1036.36)"><rect y="1036.36" rx="2" width="16" fill="#fff" height="16"/><rect width="15" x=".514" y="1036.88" fill="#00f" rx="1.872" height="15"/><g fill="#fff"><path d="m4 1039.36h1v10h-4z"/><path d="m7 1039.36h-1v10h4z"/><g fill-rule="evenodd"><path d="m9 1039.36h5c0 0 .635-.048.879.332.257.402-.133.953-.133.953l-2.652 4.01c-1.065 1.44-.333-3.062-.605-3.383-.471-.555-4.388-1.914-2.488-1.914"/><path d="m7.109 1042.82c0 0 2.471-1.909 4.469-1.813l.734.813c-2.756.657-4.578 3.969-4.578 3.969z"/></g></g></g></svg>