<svg xmlns="http://www.w3.org/2000/svg" viewBox="0 0 16 16"><g transform="translate(0-1036.36)"><rect y="1036.36" rx="2" width="16" fill="#fff" height="16"/><rect x=".492" y="1036.85" rx="1.624" width="15" fill="#00f" height="15"/><g fill="#fff"><path d="m6 1049.36h2v1.486h1v-1.486h2v-1h-5z"/><path d="m12 1047.36h-2l1.5-2h-1l1.5-2h-1l1.5-2 1.5 2h-1l1.5 2h-1l1.5 2h-2v3.486h-1z"/><path d="m3.532 1039.73v3.963h2.766c.691 0 1.207-.208 1.547-.624.34-.416.51-.868.51-1.358 0-.742-.267-1.287-.801-1.636-.343-.23-.784-.346-1.324-.346zm-1.864 11.122v-12.884h4.461c.478 0 .937.05 1.379.152.441.102.901.337 1.379.708.371.287.686.682.944 1.185.259.503.388 1.086.388 1.75 0 .877-.327 1.712-.982 2.504-.655.793-1.612 1.189-2.871 1.189h-2.833v5.396z"/></g></g></svg>