<svg xmlns="http://www.w3.org/2000/svg" viewBox="0 0 16 16"><g transform="translate(0-1036.36)"><rect y="1036.36" rx="2" width="16" fill="#fff" height="16"/><rect width="14.972" x=".514" y="1036.88" fill="#00f" rx="1.872" height="14.972"/><g transform="translate(1.15-.354)"><g fill="#fff" transform="matrix(.07422 0 0 .07422 6.687 1040.99)"><path d="m100.25 91.11c2.318 2.318-6.552 11.726-9.139 9.139l-50.32-52.722c0 0-3.033-3.582-7.641 1.026l-27.676-28.2c-13.14-13.14-2.47-24.26 2.024-19.762z"/><path d="m81.19 35.24c-3.405 2.042-9.364-.368-11.741 2.01l-11.496 11.307-6.267-6.527 11.75-11.75c2.804-2.804.101-8.629 2.089-12.271 5.514-8.793 22.376-19.14 23.76-17.754 1.489 1.489-3.134 5.483-3.134 5.483l-9.509 8.719c0 0-4.103 3.74-3.03 4.908 1.101 1.195 5.172-3.02 5.172-3.02l8.877-8.93c0 0 3.972-4.711 5.276-3.501 1.329 1.234-3.395 5.222-3.395 5.222l-8.666 8.662c0 0-4.703 4.262-3.713 5.332 1.091 1.18 5.437-3.549 5.437-3.549l8.77-8.879c0 0 4.105-4.405 5.223-3.133 1.029 1.171-3.395 5.222-3.395 5.222l-8.93 8.509c0 0-4.754 3.831-3.553 5.066 1.06 1.091 5.172-3.131 5.172-3.131l8.877-8.877c0 0 3.85-4.602 5.224-3.339 2.394 2.394-10.03 18.97-18.8 24.23"/><path d="m42.29 51.42l6.342 6.38-39.24 42.44c-3.562 3.562-12.497-6.04-9.138-9.4z"/></g><g fill-rule="evenodd" transform="matrix(1.30878 0 0 1.30878-12.189-326.9)"><g fill="#fff"><path d="m13.959 1050.88v-5.569c0-.111-.065-.208-.186-.208h-2.696c-.139 0-.278.101-.278.261l-.003 5.514z"/><path d="m10.812 1046.88h-.263c0 0 .156 2.39-.005 3.446-.412 1.038-1.745.561-1.556-.449.416-1 .999-1.68 1.289-2.861l.026.878c0 0-.722 1.4-1.079 2.146-.03.689.789.916 1.046.176.114-1.294-.004-2.704-.007-4.056 0-.41.351-.543.537-.52"/></g><path fill="#00f" d="m11.344 1045.84l-.009 1.337c0 .108.086.182.186.182h1.732c.105 0 .155-.067.155-.159v-1.359c0-.131-.075-.17-.17-.17h-1.721c-.099 0-.173.059-.173.166z"/></g></g></g></svg>