<svg xmlns="http://www.w3.org/2000/svg" viewBox="0 0 12 16" xmlns:xlink="http://www.w3.org/1999/xlink"><defs><path fill="#f00" stroke="#b20505" id="a" stroke-width=".2" d="m640 709.36c0 1.105-.895 2-2 2-1.105 0-2-.895-2-2 0-1.105.895-2 2-2 1.105 0 2 .895 2 2z"/><path fill="#0f0" stroke="#00b200" id="b" stroke-width=".2" d="m640 719.36c0 1.105-.895 2-2 2-1.105 0-2-.895-2-2 0-1.105.895-2 2-2 1.105 0 2 .895 2 2z"/></defs><g transform="translate(0-1036.36)"><rect width="6" y="1036.36" rx="2" height="16"/><use xlink:href="#a" transform="matrix(1.09524 0 0 1.09524-695.76 262.44)"/><path stroke-width=".2" d="m640 714.36c0 1.105-.895 2-2 2-1.105 0-2-.895-2-2 0-1.105.895-2 2-2 1.105 0 2 .895 2 2z" fill="#ff0" stroke="#ffd600" transform="matrix(1.09524 0 0 1.09524-695.76 261.97)"/><use xlink:href="#b" transform="matrix(1.09524 0 0 1.09524-695.76 261.49)"/><rect width="6" x="6" y="1041.36" rx="2" height="11"/><use xlink:href="#a" transform="matrix(1.09524 0 0 1.09524-689.76 267.44)"/><use xlink:href="#b" transform="matrix(1.09524 0 0 1.09524-689.76 261.49)"/></g></svg>