<svg xmlns="http://www.w3.org/2000/svg" viewBox="0 0 16 16"><g transform="translate(0-1036.36)"><path fill="#999" d="m0 1045.32h16v7h-16z"/><g fill="#fff"><path d="m5 1045.32h1v1h-1z"/><path d="m10 1045.32h1v1h-1z"/><path d="m10 1047.32h1v2h-1z"/><path d="m10 1050.32h1v2h-1z"/><path d="m5 1050.32h1v2h-1z"/><path d="m5 1047.32h1v2h-1z"/><path d="m2 1048.32h2v1h-2z"/><path d="m12 1048.32h2v1h-2z"/><path d="m0 1048.32h1v1h-1z"/><path d="m15 1048.32h1v1h-1z"/></g><rect width="6" y="1036.36" rx="2" height="16"/><g stroke-width=".2"><path fill="#f00" stroke="#b20505" d="m640 709.36c0 1.105-.895 2-2 2-1.105 0-2-.895-2-2 0-1.105.895-2 2-2 1.105 0 2 .895 2 2z" transform="matrix(1.09524 0 0 1.09524-695.76 262.44)"/><path fill="#ff0" stroke="#ffd600" d="m640 714.36c0 1.105-.895 2-2 2-1.105 0-2-.895-2-2 0-1.105.895-2 2-2 1.105 0 2 .895 2 2z" transform="matrix(1.09524 0 0 1.09524-695.76 261.97)"/><path fill="#0f0" stroke="#00b200" d="m640 719.36c0 1.105-.895 2-2 2-1.105 0-2-.895-2-2 0-1.105.895-2 2-2 1.105 0 2 .895 2 2z" transform="matrix(1.09524 0 0 1.09524-695.76 261.49)"/></g></g></svg>