<svg xmlns="http://www.w3.org/2000/svg" viewBox="0 0 16 16" xmlns:xlink="http://www.w3.org/1999/xlink"><defs><path fill="#fff" id="a" d="m657 731.86c0 1.381-1.119 2.5-2.5 2.5-1.381 0-2.5-1.119-2.5-2.5 0-1.381 1.119-2.5 2.5-2.5 1.381 0 2.5 1.119 2.5 2.5"/></defs><g transform="translate(0-1036.36)"><g transform="translate(-19.5 3.75)"><g fill="#999"><path d="m19.5 1041.61h16v7h-16z"/><path d="m19.5 1044.61h2v1h-2z"/></g><g fill="#fff"><path d="m20.5 1044.61h2v1h-2z"/><path d="m32.5 1044.61h2v1h-2z"/></g><use xlink:href="#a" transform="translate(-628.5 313.25)"/><use xlink:href="#a" transform="translate(-625.5 313.25)"/><path fill="#999" d="m25.5 1041.61h4v7h-4z"/></g><rect width="6" y="1036.36" rx="2" height="16"/><g stroke-width=".2"><path fill="#f00" stroke="#b20505" d="m640 709.36c0 1.105-.895 2-2 2-1.105 0-2-.895-2-2 0-1.105.895-2 2-2 1.105 0 2 .895 2 2z" transform="matrix(1.09524 0 0 1.09524-695.76 262.44)"/><path fill="#ff0" stroke="#ffd600" d="m640 714.36c0 1.105-.895 2-2 2-1.105 0-2-.895-2-2 0-1.105.895-2 2-2 1.105 0 2 .895 2 2z" transform="matrix(1.09524 0 0 1.09524-695.76 261.97)"/><path fill="#0f0" stroke="#00b200" d="m640 719.36c0 1.105-.895 2-2 2-1.105 0-2-.895-2-2 0-1.105.895-2 2-2 1.105 0 2 .895 2 2z" transform="matrix(1.09524 0 0 1.09524-695.76 261.49)"/></g></g></svg>