<svg xmlns="http://www.w3.org/2000/svg" viewBox="0 0 16 16"><g transform="translate(0-1036.36)"><g transform="translate(-24.438-.687)"><path fill="#999" d="m24.438 1046.05h16v7h-16z"/><g fill="#fff"><path d="m29.438 1047.05h6v1h-6z"/><path d="m29.438 1049.05h6v1h-6z"/><path d="m29.438 1051.05h6v1h-6z"/><path d="m26.438 1049.05h2v1h-2z"/><path d="m24.438 1049.05h1v1h-1z"/><path d="m36.438 1049.05h2v1h-2z"/><path d="m39.438 1049.05h1v1h-1z"/></g></g><rect width="6" y="1036.36" rx="2" height="16"/><g stroke-width=".2"><path fill="#f00" stroke="#b20505" d="m640 709.36c0 1.105-.895 2-2 2-1.105 0-2-.895-2-2 0-1.105.895-2 2-2 1.105 0 2 .895 2 2z" transform="matrix(1.09524 0 0 1.09524-695.76 262.44)"/><path fill="#ff0" stroke="#ffd600" d="m640 714.36c0 1.105-.895 2-2 2-1.105 0-2-.895-2-2 0-1.105.895-2 2-2 1.105 0 2 .895 2 2z" transform="matrix(1.09524 0 0 1.09524-695.76 261.97)"/><path fill="#0f0" stroke="#00b200" d="m640 719.36c0 1.105-.895 2-2 2-1.105 0-2-.895-2-2 0-1.105.895-2 2-2 1.105 0 2 .895 2 2z" transform="matrix(1.09524 0 0 1.09524-695.76 261.49)"/></g></g></svg>