<svg xmlns="http://www.w3.org/2000/svg" viewBox="0 0 6 16"><g transform="translate(0-1036.36)"><rect width="6" y="1036.36" rx="2" height="16"/><g stroke-width=".2"><path fill="#f00" stroke="#b20505" d="m640 709.36218a2 2 0 1 1 -4 0 2 2 0 1 1 4 0z" transform="matrix(1.09524 0 0 1.09524-695.76 262.44)"/><path fill="#ff0" stroke="#ffd600" d="m640 714.36218a2 2 0 1 1 -4 0 2 2 0 1 1 4 0z" transform="matrix(1.09524 0 0 1.09524-695.76 261.97)"/><path fill="#0f0" stroke="#00b200" d="m640 719.36218a2 2 0 1 1 -4 0 2 2 0 1 1 4 0z" transform="matrix(1.09524 0 0 1.09524-695.76 261.49)"/></g></g></svg>