<svg xmlns="http://www.w3.org/2000/svg" viewBox="0 0 16 16" enable-background="new 0 0 16 16"><path fill="#fff" d="m0 0h16v16h-16z"/><g fill="none" stroke="#000"><path d="m1 7.156c.02 4.616 5.878 8.566 10.124 6.496"/><path d="M1,7.156C1,4.05,3.473,1.532,6.523,1.532c3.049,0,5.523,2.519,5.523,5.625"/><path d="m3.455 7.156c0 2.416 1.923 4.375 4.295 4.375s4.296-1.959 4.296-4.375"/><path d="m5.909 7.156c0 1.036.825 1.875 1.841 1.875s1.841-.839 1.841-1.875"/><path d="m3.455 7.156c0-1.726 1.374-3.125 3.068-3.125 1.694 0 3.068 1.399 3.068 3.125"/></g><path fill="#0092da" d="m9.544 12.12l1.983 3.241 3.473-3.241-.99-1.62"/></svg>