<svg xmlns="http://www.w3.org/2000/svg" viewBox="0 0 320 320" xmlns:xlink="http://www.w3.org/1999/xlink"><defs><path id="a" d="M417.14287 595.2193A11.428572 11.428572 0 1 1 394.28572 595.2193 11.428572 11.428572 0 1 1 417.14287 595.2193"/></defs><g transform="translate(-231.43-429.51)"><path fill="#55d400" d="m231.43 429.51h320v320h-320z"/><g fill="#ffe680"><path d="M514.2857 589.50507A82.85714 62.857143 0 1 1 348.57142 589.50507 82.85714 62.857143 0 1 1 514.2857 589.50507" transform="matrix(.96552 0 0 1.40909 14.877-281.16)"/><path d="M434.28573 622.36218A75.71429 90 0 1 1 282.85715 622.36218 75.71429 90 0 1 1 434.28573 622.36218" transform="matrix(1.11321 0 0 1.34921-46.31-231.62)"/></g><path d="M491.42859 530.93359A32.857143 32.857143 0 1 1 425.7143 530.93359 32.857143 32.857143 0 1 1 491.42859 530.93359" transform="matrix(.82609 0 0 .82609 71.18 83.76)"/><use xlink:href="#a"/><use xlink:href="#a" transform="translate(-17.14-37.14)"/><g transform="matrix(1.09091 0 0 .94828-30.909 32.955)"><rect width="20" x="330" y="526.65" rx="10" ry="12.34" height="165.71"/><rect width="62.857" x="308.57" y="632.36" rx="10" height="22.857"/></g></g></svg>