<svg xmlns="http://www.w3.org/2000/svg" viewBox="0 0 60 60" xmlns:xlink="http://www.w3.org/1999/xlink"><defs><path stroke="#333" stroke-linejoin="round" id="a" stroke-width="1.875" d="m43.903 48.3l-26.339-26.339-.452-4.256 4.269.567 26.28 26.28z"/></defs><g fill-rule="evenodd"><path fill="#ccc" stroke="#4c4c4c" stroke-linejoin="round" stroke-width="2.883" d="m4.373 8.436c-.209-4.183 18.07 9.165 26.02-4.847 6.02 14.01 22.918.873 23.963 4.847 1.882 3.346-8.561 42.735-24.504 42.662-17.15-.302-28.405-39.32-25.477-42.662z"/><use fill="#7f7f7f" xlink:href="#a"/></g><g fill="none"><path stroke="#b3b3b3" stroke-linejoin="round" stroke-linecap="round" stroke-width="1.25" d="m17.634 18.332l20.868 20.868"/><use xlink:href="#a"/></g><g fill-rule="evenodd" stroke="#333"><path fill="#4c4c4c" stroke-linejoin="round" stroke-width="2.425" d="m45.39 48.848c2.799 4.835 4.962 10.307 9.543 6.744 3.69-4.453-2.163-6.235-6.744-9.543z"/><rect width="8.884" x="-4.944" y="63.57" fill="#7f7f7f" rx="1" height="3.998" stroke-width="1.875" transform="rotate(-45)"/></g></svg>