<svg xmlns="http://www.w3.org/2000/svg" viewBox="0 0 95.701 86.146"><g fill="#eddbd0"><path fill-rule="evenodd" d="m9 80.71l25.13-5.938 4.625-2.25 1.375-1.313 2.375-.063.188-6.25-4.813-5.375-29.06 20.5.313.875"/><path stroke="#000" d="m58.945 45.634l4.161-1.367m-5.202-.563l2.723-5.388m-5.177 4.443c0 0 .343-4.803-.414-5.72m-1.03 6.521c0 0-2.626-2.851-4.297-3.963m3.224 6.09c0 0-4.441-1.103-5.593-1.657m6.02 3.3c0 0-3.163 1.978-5.074 3.225m6.679-1.601c0 0-1.28 4.528-2.172 5.957m6.693-6.03c0 0 2.948 5.706 2.68 7.04m.358-9.811c0 0 5.858 2.69 6.912 3.786m-60.867 30.83c0 0-.536-6.06 6.562-9.96 7.098-3.898 17.666-11.994 23.06-11.03m-29.487 21.13c0 0 1.544-.565 2.94 1.01 1.396 1.571 4.01 4.131 5.818 3.723 1.803-.407 1.629-2.036 2.793-2.327 1.164-.291 2.734.698 2.793-.989.058-1.687-1.047-3.258 1.92-3.2 2.967.058 4.247 2.618 5.294 1.222 1.047-1.396 1.687-3.665 3.374-5.353 1.687-1.687 2.676-1.338 4.712-2.444 2.036-1.105 1.016-1.716 4.086-1.178m28.18-31.29c0 0-5.576 2.485-7.546 3.108m.315-14.04c0 0-3.135 8.857-3.732 8.602m-3.199-10.709c0 0 .453 7.545-.126 9.975m-8.146-9.04c0 0 4.151 6.869 4.375 9.634m-12.242-4.755c0 0 7.639 4.463 8.976 7.33m-13.584 1.848c0 0 8.753.027 11.866 2.181m-11.88 9.772c0 0 8.194-4.541 12.291-4.072m-5.441 15.313c0 0 5.663-9.598 9.142-10.883m5.502 23.09c0 0-.801-6.576-.684-10.882.116-4.305.564-9.211.864-10.394m19.829 17.515c0 0-3.01-1.768-4.869-4.677-1.862-2.909-8.02-13.805-7.782-13.932m25.02 6.355c0 0-5.833-.336-7.06-1.15-1.222-.815-10.239-7.738-10.239-7.738 0 0-1.84-1.37-2.811-2.634m24.03-18.282c0 0-6.846 3.927-10.05 4.916-3.2.989-11.212 1.833-13.402 1.44m16.05-21.324c0 0-7.01 6.793-9.103 8.247-2.094 1.454-7.533 6.194-10.574 6.442m3.37-27.528c0 0 .921 3.399-.242 5.901-1.164 2.502-8 17.205-9.673 17.998m-10.578-27.14c0 0 3.496.355 4.194 4.893.698 4.538 2 21.398.699 21.444m-24.939-21.529c0 0 4.925-.962 6.903 3.227 1.978 4.189 10.537 19.792 8.928 20.752m-32.15-12.1c0 0 5.653-2.253 10.657 1.82 5 4.072 17.683 12.168 15.982 14.581m-38.39 11.293c0 0 4.371-6.209 9.142-5.743 4.771.465 25.08 2.597 24.945 5.844m-33.535 20.22c0 0 1.144-8.839 8.125-10 6.981-1.164 24.797-5.71 25.637-2.466m-26.805 28.1c0 0-13.96-15.946-5.403-45.566 8.557-29.62 36.531-34.23 45.25-34.721 8.721-.494 25.671 1.152 35.38 13.164 9.709 12.01 13.329 26.16 10.202 37.683-3.408 12.555-14.974 23.367-24.354 25.341-9.38 1.975-19.911.823-27.316-5.43l.165-6.088c0 0-6.089-5.759-7.08-12.177-.987-6.418-.165-12.671 2.468-17.278 2.633-4.608 9.215-8.557 15.14-8.886 5.924-.329 13.307 2.11 15.797 8.06 2.546 6.088 2.836 10.337.658 14.645-2.038 4.03-5.595 7.08-11.519 6.582-5.924-.494-9.05-3.127-10.367-7.08-1.316-3.949.823-10.202 4.772-11.519 3.949-1.316 8.333-.636 9.788 2.855 1.317 3.161 1.396 5.411-1.745 7.796-2.057 1.562-5.469 1.978-7.156-.931-1.687-2.909 2.036-5.527 3.665-4.363 1.629 1.164 1.745 2.153 1.92 2.676"/></g></svg>