<svg xmlns="http://www.w3.org/2000/svg" viewBox="0 0 400 400"><g transform="translate(-.125 2.75)"><g fill="#00f"><path d="m35.901 206.12c-8.65-2.169-16.367-9.297-18.63-17.21-.632-2.21-1.14-8.03-1.128-12.941.018-7.194.446-9.933 2.212-14.13 5.179-12.323 16.6-17.332 34.38-15.08 12.513 1.586 86.4 24.08 89.52 27.25 3.514 3.581-1.846 6.598-26.21 14.75-19.292 6.456-52.852 15.993-61.26 17.41-7.118 1.199-13.987 1.184-18.88-.043"/><path d="m162.99 141.47c-11.586-8.347-61.6-60.812-67.74-71.07-9.718-16.219-9.58-28 .451-38.678 9.43-10.04 21.825-14.13 31.944-10.554 8.479 2.997 16.764 14.216 21.68 29.36 2.086 6.425 14.225 57.26 18.51 77.51 3.254 15.381 2.142 18.464-4.845 13.431"/><path d="m228.77 142.79c-1.619-1.26-1.655-1.88-.537-9.193 3.279-21.448 15.549-72.72 20.854-87.14 8.827-23.997 23.295-32.2 40.707-23.08 19.781 10.364 23.634 27.511 10.81 48.12-3.945 6.34-27.399 31.613-53.2 57.33-15.215 15.16-16.17 15.879-18.631 13.964"/><path d="m333.97 203.21c-16.11-3.658-77.37-23.11-79.49-25.24-3.828-3.845.451-6.27 26.486-15.01 8.631-2.898 24.6-7.741 35.487-10.761 16.674-4.626 21.391-5.562 29.92-5.942 11.895-.53 17.11.856 22.83 6.068 9.123 8.31 11.241 28.372 4.255 40.31-6.604 11.285-20.263 14.945-39.485 10.579"/></g><path fill="#a40" fill-rule="evenodd" stroke="#000" stroke-width="1.584" d="m199.92 110.63l-197.83 285.83 396.16-.002z"/></g></svg>