<svg xmlns="http://www.w3.org/2000/svg" viewBox="0 0 945.6 945.6"><path fill="#c50000" d="m942.8 472.8c0-259.57-210.43-470-470-470-259.57 0-470 210.43-470 470 0 259.57 210.43 470 470 470 259.57 0 470-210.43 470-470"/><path fill="#fff" d="m106.8 472.8c0-202.14 163.86-366 366-366 202.14 0 366 163.86 366 366 0 202.14-163.86 366-366 366-202.14 0-366-163.86-366-366"/><path fill="#c50000" d="m121.01 771.55l53.03 53.03 650.54-650.54-53.03-53.03z"/><path fill-rule="evenodd" d="m439.24 204.29l-108.75 106.36 112.61.556c139.01 5.825 173.51 124.46 178.83 159v276.15h-76.79v-264.77c0-12.808-11.611-82.73-97.98-97.28l-118.64.297 110.79 108.36h-95.4l-147.41-144.21h-.379l.19-.185-.114-.111h.227l147.44-144.17z"/></svg>