<svg xmlns="http://www.w3.org/2000/svg" viewBox="0 0 725 725"><circle fill="#fff" cx="362.5" cy="362.5" stroke="#000" r="350" stroke-width="2.5" transform="matrix(-1 0 0 1 725 0)"/><path fill="#039" d="m34.36 362.5c0 181.23 146.92 328.15 328.15 328.15 181.23 0 328.15-146.92 328.15-328.15 0-181.23-146.92-328.15-328.15-328.15-181.23 0-328.15 146.92-328.15 328.15"/><path fill="#fff" fill-rule="evenodd" d="m416.53 87.53l-.156 9.969.313-9.75 104.28 104.19-.125 75.78-75.25-73.844.219 434.72-60.12-.063.094-101c-5.921-41.76-28.993-70.57-79.44-81.03l-109.84-.125 73.28 74.28-76.75.219-103.5-104.94 9.969.156-9.75-.281 104.19-104.28 75.75.094-73.03 73.25 105.56-.719c32.937 2.575 60.24 11.912 83.69 25.875l.188-215.53-74.28 73.28-.219-76.75z"/></svg>