<svg xmlns="http://www.w3.org/2000/svg" viewBox="0 0 725 725"><circle fill="#fff" cx="362.5" cy="362.5" stroke="#000" r="350" stroke-width="2.5" transform="matrix(-1 0 0 1 725 0)"/><path fill="#039" d="m34.36 362.5c0 181.23 146.92 328.15 328.15 328.15 181.23 0 328.15-146.92 328.15-328.15 0-181.23-146.92-328.15-328.15-328.15-181.23 0-328.15 146.92-328.15 328.15"/><g fill="#fff" fill-rule="evenodd"><path d="m252.19 190.13l-83.47 89.66 86.44.469c106.7 4.91 133.18 104.91 137.26 134.03v232.78h-58.943v-223.19c0-10.796-8.912-69.74-75.21-82l-91.06.25 85.04 91.34h-73.23l-113.14-121.56h-.291l.145-.156-.087-.094h.175l113.17-121.53z"/><path d="m471.71 190.13l83.47 89.66-86.44.469c-106.7 4.91-133.18 104.91-137.26 134.03v232.78h58.943v-223.19c0-10.796 8.912-69.74 75.21-82l91.06.25-85.04 91.34h73.23l113.14-121.56h.291l-.145-.156.087-.094h-.175l-113.17-121.53z"/></g></svg>