<svg xmlns="http://www.w3.org/2000/svg" viewBox="0 0 945.6 945.6"><path fill="#c50000" d="m2.8 472.8c0-259.57 210.43-470 470-470 259.57 0 470 210.43 470 470 0 259.57-210.43 470-470 470-259.57 0-470-210.43-470-470"/><path fill="#fff" d="m838.8 472.8c0-202.14-163.86-366-366-366-202.14 0-366 163.86-366 366 0 202.14 163.86 366 366 366 202.14 0 366-163.86 366-366"/><path fill="#c50000" d="m824.59 771.55l-53.03 53.03-650.54-650.54 53.03-53.03z"/><path d="m469.46 144.71l-212.25 244.59v112.35l167.43-195.36v497.15h87.28v-497.15l167.43 195.36v-112.35"/></svg>