<svg xmlns="http://www.w3.org/2000/svg" viewBox="0 0 725 725"><circle fill="#fff" cx="362.5" cy="362.5" stroke="#000" r="350" stroke-width="2.5" transform="matrix(-1 0 0 1 725 0)"/><path fill="#039" d="m34.36 362.5c0 181.23 146.92 328.15 328.15 328.15 181.23 0 328.15-146.92 328.15-328.15 0-181.23-146.92-328.15-328.15-328.15-181.23 0-328.15 146.92-328.15 328.15"/><path fill="#fff" fill-rule="evenodd" d="m341.34 138.34l-89.66 89.66 92.84.469c114.61 4.91 143.05 104.91 147.44 134.03v232.78h-63.31v-223.19c0-10.796-9.573-69.74-80.78-82l-97.81.25 91.34 91.34h-78.66l-121.53-121.56h-.313l.156-.156-.094-.094h.188l121.56-121.53z"/></svg>