<svg xmlns="http://www.w3.org/2000/svg" viewBox="0 0 725 725"><circle fill="#fff" cx="362.5" cy="362.5" stroke="#000" r="350" stroke-width="2.5"/><path fill="#039" d="M-176.30905 369.66949A309.2189 309.2189 0 1 1 -794.74686 369.66949 309.2189 309.2189 0 1 1 -176.30905 369.66949" transform="matrix(1.06121 0 0 1.06121 877.75-29.796)"/><path fill="#fff" fill-rule="evenodd" d="m383.66 138.34l89.66 89.66-92.84.469c-114.61 4.91-143.05 104.91-147.44 134.03v232.78h63.31v-223.19c0-10.796 9.573-69.74 80.78-82l97.81.25-91.34 91.34h78.66l121.53-121.56h.313l-.156-.156.094-.094h-.188l-121.56-121.53z"/></svg>