<svg xmlns="http://www.w3.org/2000/svg" viewBox="0 0 245.05 243.85"><g transform="translate(-46.23-53.08)"><g fill-rule="evenodd"><path fill="#d59d07" stroke="#000" stroke-width="5.7" d="m62.975 221.04c-11.12-4.275-17.985 30.497-11.12 40.19 25.15 29.07 81.73 32.35 81.73 32.35l62.38.57c0 0 64.842-.998 88.5-33.917 5.415-6.698 7.696-44.748-8.693-39.618-31.922 24.654-51.874 23.514-104.46 24.654-52.586 1.14-92.2-6.698-108.34-24.23z"/><path fill="#af7c05" d="m60.98 250.11c-9.933-3.705-13.07 5.985-7.01 11.543 23.899 26.22 78.54 31.07 78.54 31.07l64.03.143c0 0 67.69-2.138 87.07-33.917 3.99-4.988 3.278-14.394-5.558-10.831-24.369 22.517-53.3 31.07-107.31 31.352-53.997.285-94.7-12.541-109.76-29.357"/><g fill="#d59d07" stroke="#000" stroke-width="5.7"><path d="m75.43 186.27c-9.933-3.705-16.716 28.93-10.574 37.48 24.398 21.376 74.48 22.374 74.48 22.374l55.21.428c0 0 50.16 4.988 82.51-25.652 4.845-5.843 2.565-40.19-12.11-35.628-28.502 21.376-45.46 21.376-92.35 22.374-47.03.998-82.76-6.128-97.16-21.376z"/><path d="m85.11 155.06c-8.85-3.278-13.553 25.794-8.08 33.35 21.747 19.1 66.37 19.951 66.37 19.951l49.29.428c0 0 44.606 4.418 73.39-22.802 4.275-5.273 2.708-36.625-10.261-32.492-25.509 19.1-41.47 19.239-83.37 19.951-41.812.855-74.5-4.845-87.34-18.384z"/><path d="m95.95 126.98c-8.01-3.135-14.622 22.374-9.676 29.07 19.652 17.244 59.997 18.1 59.997 18.1l44.563.285c0 0 40.33 3.99 66.41-20.521 3.848-4.845.428-30.925-11.258-27.22-23.09 17.244-35.628 15.961-73.39 16.816-37.908.713-65.04-4.418-76.64-16.531z"/><path d="m104.97 101.47c-7.03-2.708-12.598 20.664-8.251 26.507 17.272 14.964 52.714 15.676 52.714 15.676l39.12.285c0 0 35.485 3.42 58.29-17.814 3.42-4.133 2.138-26.792-8.123-23.657-20.236 14.964-32.06 13.823-65.27 14.536-33.28.713-58.27-4.988-68.48-15.534z"/><path d="m114.08 85.8c-6.199-1.995-11.757 14.536-7.924 18.954 15.22 10.973 49.35 11.971 49.35 11.971l31.623.285c0 0 31.21 2.138 51.3-13.823 2.993-2.993 0-20.236-9.121-17.956-17.814 11.12-26.649 11.12-56.01 11.686-29.29.428-50.23-3.278-59.23-11.12z"/><path d="m121.16 71.83c-5.33-1.425-8.921 12.683-5.629 15.961 13.05 8.266 39.86 8.693 39.86 8.693l29.599.143c0 0 26.792 1.853 44.18-9.976 2.565-2.28.57-16.674-7.268-14.964-15.249 8.266-23.514 9.833-48.738 10.261-25.14.285-44.29-4.275-52-10.118z"/><path d="m126.61 62.28c-4.689-1.283-7.425 9.406-4.532 12.11 11.501 6.983 35.1 7.411 35.1 7.411l25.965.143c0 0 23.657 1.568 38.905-8.408 2.28-1.995 1.425-12.541-5.415-11.12-13.538 7.126-21.234-6.698-43.32-6.413-22.15.285-39.917 11.12-46.701 6.27z"/></g></g><g stroke="#000" stroke-width="5.7"><path fill="none" d="m145.2 69.69c4.831 3.42 43.07 5.273 50.33-.428"/><path fill-rule="evenodd" d="m145.16 293.72c.456-27.647 11.244-34.34 22.588-34.487 11.401-.143 23.372 7.411 22.944 33.917z"/></g><g fill="#af7c05" fill-rule="evenodd"><path d="m73.08 216.62c-8.992-2.565-11.828 4.133-6.342 7.838 21.633 17.956 71.11 21.234 71.11 21.234l57.973.143c0 0 49.593 2.423 78.81-23.09 3.563-3.42 2.993-9.976-4.988-7.553-22.09 15.391-48.31 21.234-97.19 21.519-48.881.143-85.72-8.551-99.37-20.09"/><path d="m87.27 184.7c-7.724-1.995-10.175 3.278-5.458 6.27 18.598 13.966 61.09 16.531 61.09 16.531l49.779.143c0 0 42.61 1.853 67.69-18.1 3.135-2.708 2.708-7.696-4.275-5.843-18.954 11.971-41.47 16.531-83.51 16.674-41.955.285-73.59-6.555-85.32-15.676"/><path d="m94.34 151.78c-7.07-1.853-9.306 3.135-4.988 5.985 17.02 13.396 55.921 15.961 55.921 15.961h45.56c0 0 39.05 1.853 61.992-17.386 2.85-2.565 2.423-7.411-3.99-5.558-17.244 11.543-37.908 15.961-76.39 16.1-38.41.143-67.38-6.413-78.11-15.11"/><path d="m104.32 123.99c-6.185-1.568-8.123 2.708-4.361 5.13 14.85 11.543 48.81 13.681 48.81 13.681h39.789c0 0 34.06 1.568 54.01-14.821 2.565-2.28 2.138-6.413-3.42-4.845-15.11 9.833-33.06 13.681-66.55 13.823-33.632.143-58.914-5.558-68.28-12.968"/><path d="m111.91 99.76c-5.558-1.568-7.325 2.423-3.919 4.56 13.367 10.403 43.95 12.256 43.95 12.256l35.898.143c0 0 30.64 1.425 48.596-13.396 2.28-1.995 1.995-5.843-2.993-4.418-13.681 8.978-29.785 12.398-60.14 12.398-30.18.143-52.957-4.845-61.39-11.543"/><path d="m120.31 84.37c-4.788-.998-5.33 1.71-2.408 3.278 11.515 7.411 37.822 7.696 37.822 7.696l30.839.143c0 0 26.364.855 41.898-9.548 1.995-1.425 1.568-3.99-2.708-2.993-11.686 6.27-25.652 8.693-51.589 8.693-26.04.143-46.601-2.565-53.855-7.268"/><path d="m125.99 71.973c-4.204-.855-4.674 1.425-2.109 2.708 10.08 5.843 33.13 6.27 33.13 6.27h27.12c0 0 23.09.713 36.625-7.696 1.71-1.14 1.425-3.278-2.28-2.565-10.261 5.13-22.517 7.126-45.32 7.126-22.802.143-40.815-1.995-47.17-5.843"/><path d="m147.47 67.983c-2.024.285-1.781 1.14-.513 1.71 4.902 1.853 16.09 2.28 16.09 2.28h13.538c0 0 11.12 1.14 17.814-2.993.855-.57.285-1.14-.713-1.568-6.555-.57-10.831-2.708-22.23-2.708-11.401.143-20.892 3.278-23.984 3.278"/></g></g></svg>