<svg xmlns="http://www.w3.org/2000/svg" viewBox="0 0 16 8"><g stroke="#000" stroke-width=".079" transform="translate(0-1044.36)"><path fill="#009700" d="m11.865 1044.4c-.787 0-1.57.22-2.236.674-.396.271-.725.608-1.01.992-.19.257-.354.621-.688.721-.289.086-.508-.229-.797-.185-.211.032-.163.293-.34.369-.101.043-.708.247-.785.226-.151-.041-.205-.232-.385-.219-.237.017-.312.309-.524.359-.191.046-.328-.223-.464-.31-.314-.2-.615.081-.755.345-.222-.115-.351-.427-.611-.448-.245-.02-.402.255-.609.231-.332-.038-.546-.347-.946-.226-.471.142-.894.755-1.274 1.056-.148.117-.375.255-.4.46-.027.225.273.544.42.694.27.278.941.145 1.302.145 1.196 0 2.386.093 3.579.094.485 0 1.5-.233 1.508.421l.849.034.658.293c.104.57.672 1.08 1.125 1.406 1.362.977 3.375 1.093 4.762.071 1.259-.928 1.886-2.44 1.677-3.978-.059-.43-.348-.818-.405-1.233-.405-.384-.666-.864-1.133-1.199-.729-.523-1.627-.798-2.519-.795zm1.977 1.903c.716 0 1.172.857 1.172 2.106 0 1.249-.455 2-1.172 2-.716 0-1.141-.805-1.141-2.054 0-1.249.424-2.054 1.141-2.054z"/><path fill="none" d="m1.322 1048.54c8.506.073 8.52-.69-.115-.682"/></g></svg>