<svg xmlns="http://www.w3.org/2000/svg" viewBox="0 0 151.78 195.59"><defs><filter width="1.274" x="-.137" y="-.97" height="2.94" color-interpolation-filters="sRGB" id="a"><feGaussianBlur stdDeviation="4.17761"/></filter><filter color-interpolation-filters="sRGB" id="b"><feGaussianBlur stdDeviation="3.26502"/></filter><filter width="3.225" x="-1.112" y="-.078" height="1.155" color-interpolation-filters="sRGB" id="c"><feGaussianBlur stdDeviation="4.10444"/></filter><filter width="1.468" x="-.234" y="-.011" height="1.022" color-interpolation-filters="sRGB" id="d"><feGaussianBlur stdDeviation="1.03763"/></filter><filter width="1.258" x="-.129" y="-.011" height="1.021" color-interpolation-filters="sRGB" id="e"><feGaussianBlur stdDeviation="1.03763"/></filter><filter width="1.608" x="-.304" y="-.033" height="1.065" color-interpolation-filters="sRGB" id="f"><feGaussianBlur stdDeviation="2.1646"/></filter><filter width="1.765" x="-.383" y="-.023" height="1.047" color-interpolation-filters="sRGB" id="g"><feGaussianBlur stdDeviation="2.67096"/></filter><filter width="1.494" x="-.247" y="-.019" height="1.037" color-interpolation-filters="sRGB" id="h"><feGaussianBlur stdDeviation="2.82919"/></filter><filter width="2.207" x="-.604" y="-.128" height="1.256" color-interpolation-filters="sRGB" id="i"><feGaussianBlur stdDeviation="2.86782"/></filter><filter width="1.118" x="-.059" y="-.179" height="1.358" color-interpolation-filters="sRGB" id="j"><feGaussianBlur stdDeviation="19.043"/></filter><filter color-interpolation-filters="sRGB" id="k"><feGaussianBlur stdDeviation="12.32287"/></filter><filter width="1.771" x="-.385" y="-.119" height="1.238" color-interpolation-filters="sRGB" id="l"><feGaussianBlur stdDeviation="23.0906"/></filter><linearGradient id="m" x1="85.65" gradientUnits="userSpaceOnUse" x2="112.88"><stop stop-color="#ffbd55"/><stop offset=".3" stop-color="#cd7b44"/><stop offset=".55" stop-color="#d19829"/><stop offset=".799"/><stop offset="1" stop-color="#ffc155"/></linearGradient><linearGradient id="n" x1="87.91" gradientUnits="userSpaceOnUse" x2="110.39"><stop stop-color="#2c2f33"/><stop offset=".024" stop-color="#959799"/><stop offset=".048" stop-color="#fff"/><stop offset=".114" stop-color="#2d2d2d"/><stop offset=".211" stop-color="#adadae"/><stop offset=".281" stop-color="#898989"/><stop offset=".402" stop-color="#fff"/><stop offset=".642" stop-color="#fff"/><stop offset=".861"/><stop offset=".943" stop-color="#fff"/><stop offset="1"/></linearGradient><linearGradient id="o" y1="809.34" y2="857" gradientUnits="userSpaceOnUse" x2="0"><stop stop-color="#fff"/><stop offset=".15" stop-color="#f8f8d5"/><stop offset=".575" stop-color="#a29e89"/><stop offset=".806" stop-color="#bfb69a"/><stop offset=".916" stop-color="#eeeebe"/><stop offset="1" stop-color="#fff"/></linearGradient></defs><g color="#000" transform="translate(-19.691-808.97)"><rect width="777.27" x="34.588" y="-7.735" fill="#b3b3b3" rx="49.1" ry="93.4" height="255.29" filter="url(#j)" transform="matrix(.17242 0 0 .15824 23.609 822.04)"/><path fill="#666" filter="url(#l)" d="m426.17 456.7h119.33c19.45 154.41 14.645 302.88.27 457.3-41.636 12.659-79.25 8.247-118.79.811-13.975-154.41-18.601-303.69-.811-458.11z" transform="matrix(.13716 0 0 .19922 36.799 809.84)"/><path fill="#ccc" filter="url(#k)" d="m99.76 134.92c-28.563 0-49.656 26.332-49.656 56.06v106.12c0 29.731 21.09 56.03 49.656 56.03h301.5c23.06 0 36.23 4.794 43.5 11.5 7.267 6.706 10.969 16.889 10.969 34l.062 61.63 27-.031-.062-61.59v-.031c-.01-21.347-5.393-40.651-19.656-53.812-14.27-13.168-35.05-18.656-61.812-18.656h-301.5c-11.522 0-22.656-11.623-22.656-29.03v-106.12c0-17.408 11.135-29.06 22.656-29.06h423.16v-27z" transform="matrix(.17379 0 0 .18935 18.982 814.34)"/><rect width="22.508" x="87.975" y="893.7" fill="url(#n)" rx="3.815" height="107.32"/><path fill="#fff" filter="url(#a)" d="m45.652 180.66c0 2.854-14.698-5.73-34.916-5.73-32.567 0-34.745 25.455-41.01 25.19-2.424-.103-.864-38.25 40.837-35.14 20.21 1.509 35.09 4.649 35.09 15.677" transform="matrix(.24837 0 0 .12241 97.02 875.06)"/><path d="m29.09 832.1c-5.408 0-9.402 4.986-9.402 10.615v20.1c0 5.63 3.994 10.61 9.402 10.61h57.09c4.366 0 6.861.908 8.237 2.178s2.077 3.198 2.077 6.438l.012 11.669 5.112-.006-.012-11.663v-.006c-.001-4.04-1.021-7.697-3.722-10.189-2.702-2.493-6.636-3.533-11.704-3.533h-57.09c-2.182 0-4.29-2.201-4.29-5.497v-20.1c0-3.296 2.108-5.503 4.29-5.503h136.02v-5.112z"/><path fill="#fff" filter="url(#b)" d="m781.7 97.4c-237.4.237-474.84-.169-712.25.219-23.369 2.274-39.727 26.327-38.08 48.969-.396 37.585-.514 75.22.232 112.78 2.493 21.387 20.996 41.917 43.531 40.36 95.29.203 190.59-.587 285.88.272 18.99.352 39.64-1.823 56.38 9.06 12.329 6.816 17.719 20.963 18.872 34.34 1.181 23.642.446 54.32 1.097 75.992l10.719.049-.793-74.18c-.078-7.332-1.923-14.522-4.145-21.601-7.259-18.772-25.832-31.12-45.5-33-28.933-4.564-58.43-.415-87.59-1.997-81.08-.332-162.25.899-243.28-.722-18.1-4.606-26.872-25.305-24.611-42.719.799-37.31-1.777-74.818 1.486-112 3.9-15.669 20.15-27.828 36.5-24.75 234.22-.063 468.69.125 702.75-.094-.588-3.37 1.943-8.207-.156-10.937-.33-.108-.694-.074-1.031-.031z" transform="matrix(.18935 0 0 .18935 15.963 814.34)"/><rect width="147.18" x="22.512" y="809.15" fill="url(#o)" rx="9.297" ry="17.686" height="48.34"/><path fill="url(#m)" d="m87.85 905.56h22.595c3.683 29.24 2.773 57.35.051 86.59-7.884 2.397-15 1.562-22.493.154-2.646-29.24-3.522-57.5-.154-86.74"/><path fill="#fc0" filter="url(#i)" d="m439.17 487.01h7.158c-8.486 8.95-6.504 32.32-9.715 53.689-1.372-17.915-3.985-36.37 2.557-53.689" transform="matrix(.18935 0 0 .18935 15.963 814.34)"/><g fill="#c87137"><path opacity=".817" filter="url(#f)" d="m393.6 482.68h12.11c-3.345 26.498-8.848 95.69-16.433 158.95-1.912-52.984.505-105.97 4.326-158.95" transform="matrix(.18935 0 0 .18935 15.963 814.34)"/><path filter="url(#e)" d="m434.22 946.74h12.11c-14.354-38.99-11-140.8-16.433-233.89-2.321 78.05-6.74 158.42 4.326 233.89" transform="matrix(.18935 0 0 .18935 15.963 814.34)"/><path opacity=".558" filter="url(#h)" d="m480.24 487.27h-12.11c15.983 38.861 24.555 220.56 15.352 366.98 19.755-137.83 13.01-286.47-3.244-366.98" transform="matrix(.18935 0 0 .18935 15.963 814.34)"/></g><g fill="#fc0"><path opacity=".521" filter="url(#d)" d="m439.65 946.74h6.678c-7.917-38.27-6.068-138.2-9.06-229.56-1.28 76.6-3.717 155.49 2.386 229.56" transform="matrix(.18935 0 0 .18935 15.963 814.34)"/><path filter="url(#g)" d="m472.39 487.27h-5.339c7.05 29.24 17.317 162.72 13.258 272.9 8.712-103.71-.75-212.32-7.919-272.9" transform="matrix(.18935 0 0 .18935 15.963 814.34)"/></g><path filter="url(#a)" d="m42.898 176.9c0 2.854-20.21-4.475-40.42-4.475-20.277 0-38.737 9.416-44.608 5.116-2.424-1.776 2.512-14.411 44.23-12.136 19.995 1.091 40.806.467 40.806 11.495" transform="matrix(-.2416 0 0-.12241 99.64 926.96)"/><path fill="#fc0" filter="url(#c)" d="m-37.824 392.25h7.158c-8.486 21.03-6.504 75.939-9.715 126.14-1.372-42.09-3.985-85.44 2.557-126.14" transform="matrix(.30296.01764.01614-.33104 95.71 1099.5)"/></g></svg>