<svg xmlns="http://www.w3.org/2000/svg" viewBox="0 0 13 16" xmlns:xlink="http://www.w3.org/1999/xlink"><defs><linearGradient id="a" x1="-742.14" gradientUnits="userSpaceOnUse" x2="-286.43" gradientTransform="matrix(.02854 0 0 .02749-720.96 617.05)"><stop stop-color="#009a11"/><stop offset="1" stop-color="#00cb17"/></linearGradient><linearGradient id="b" xlink:href="#a" x1="-742.14" gradientUnits="userSpaceOnUse" x2="-286.43" gradientTransform="matrix(.02257 0 0 .06968-723.96 618.97)"/></defs><g transform="translate(742.14-618.5)"><g stroke="#005e04" stroke-linejoin="round"><path fill="url(#b)" stroke-width=".284" d="m-740.6 623.01h10.06v11.348h-10.06z"/><path fill="url(#a)" stroke-width=".28" d="m-742 618.65h12.72v4.477h-12.72z"/></g><g fill="#00d818"><path d="m-734.31 618.78h1.958v4.192h-1.958z"/><path d="m-731.84 618.78h.775v4.192h-.775z"/><path d="m-734.92 623.28h2.01v10.906h-2.01z"/><path d="m-732.38 623.28h.797v10.906h-.797z"/></g><g fill="#00820e"><path d="m-741.85 618.78h1.468v4.197h-1.468z"/><path d="m-740.44 623.27h1.509v10.95h-1.509z"/></g><g fill="#005e04"><path d="m-742.06 618.68h.461v4.304h-.461z"/><path d="m-740.72 623.22h.703v11.08h-.703z"/></g><g fill="#00820e"><path d="m-740.02 618.78h.228v4.197h-.228z"/><path d="m-738.61 623.26h.234v10.957h-.234z"/></g></g></svg>