<svg xmlns="http://www.w3.org/2000/svg" viewBox="0 0 10 12"><g color-rendering="auto" color-interpolation-filters="linearRGB" shape-rendering="auto" image-rendering="auto" fill-rule="evenodd" text-rendering="auto" color-interpolation="sRGB" color="#000"><path fill="#344fff" d="m0 0h10v12h-10z"/><path fill="#fff" d="m2 2h6v7h-6z"/></g><path d="m2 1l-1 1v8h.656c0 0 .101 1 .813 1 .689 0 .781-1 .781-1h3.5c0 0 .114 1 .781 1 .816 0 .813-1 .813-1h.656v-8l-1-1zm1 1h4v1h-4zm-1 2h6v3h-6zm0 4h1v1h-1zm5 0h1v1h-1z"/></svg>