<svg xmlns="http://www.w3.org/2000/svg" viewBox="0 0 395.39 480"><path fill="#fff" d="M 0,0 H395.39 V480 H0 z"/><g transform="translate(20 24.94)"><path d="m179.24 0c-40.25 0-95.85 11.502-118.85 21.09-23 9.585-38.34 19.17-43.13 43.13l-17.252 132.84v183.05h29.712v28.705c0 35 51.22 35 51.22 0v-28.705h193.16v28.705c0 35 51.22 35 51.22 0v-28.705h29.712v-183.04l-17.252-132.84c-4.792-23.962-20.13-33.547-43.13-43.13-23-9.585-78.6-21.09-118.85-21.09"/><g fill="#fff"><path d="m299.68 322.72c13.568 0 24.568-11 24.568-24.57 0-13.568-11-24.57-24.568-24.57-13.568 0-24.569 11-24.569 24.57 0 13.568 11 24.57 24.569 24.57"/><path d="m55.34 322.72c-13.568 0-24.568-11-24.568-24.57 0-13.568 11-24.57 24.568-24.57 13.568 0 24.569 11 24.569 24.57 0 13.568-11 24.57-24.569 24.57"/><path d="m175.61 55.11h-71.14c-14.378 0-14.378-21.566 0-21.566h146.07c14.378 0 14.378 21.566 0 21.566z"/><path d="m175.61 76.887h-109.9c-15.188 0-19.16 7.717-21 19.423l-13.428 96.35c-1.252 9.235 1.419 18.402 14.178 18.402h264.09c12.759 0 15.43-9.167 14.178-18.402l-13.428-96.35c-1.844-11.706-5.812-19.423-21-19.423z"/></g></g></svg>