<svg height="16" viewBox="0 0 16 16" width="16" xmlns="http://www.w3.org/2000/svg"><g transform="translate(-21.913 -80.984)"><path d="m12.473 121.08c-.914 1.76-1.991 3.41-1.991 5.34l.009.81c0 4.17 3.266 6.69 7.02 6.69h121.32c3.76 0 6.99-3.12 6.99-7.29l-.04-.81c0-1.94-.95-3.62-1.99-5.35l-60.084-107.78c-2.655-2.9458-6.959-2.9458-9.614.004l-61.619 108.39z" fill="#ffb93f" stroke="#000" stroke-width="6.8314" transform="matrix(.08440925 0 0 .08440925 23.293105 82.369597)"/><circle cx="29.912609" cy="91.681023" r=".808029" stroke-width=".100481"/><path d="m29.933379 86.067101c.317501 0 .810156.225559.810156.50565l-.23706 2.910794c0 .280091-.255595.505651-.573096.505651-.3175 0-.57291-.22556-.57291-.505651l-.276724-2.910794c0-.280091.532134-.50565.849634-.50565z" stroke-width=".175008"/></g></svg>