<svg xmlns="http://www.w3.org/2000/svg" viewBox="0 0 16 16"><g transform="matrix(.02328 0 0 .02714 7.346 2.685)"><path d="m196.06 418.24h75.67l55.23 72.37h44.547l-77.21-103.52c25.746-3.708 51.37-27.708 51.37-56.958v-213.86c0-30.19-28.418-57.906-67.02-57.906l-82.26-.048-82.9.048c-38.607 0-67.02 27.714-67.02 57.906v213.86c0 29.25 25.629 53.25 51.37 56.958l-77.21 103.52h44.547l55.23-72.37h75.6z"/><g transform="matrix(1.11881 0 0 1 20.616 18.94)"><path d="m134.77 33.18c-9.165 0-16.591-7.428-16.591-16.593 0-9.163 7.426-16.591 16.591-16.591 9.163 0 16.591 7.428 16.591 16.591 0 9.165-7.428 16.593-16.591 16.593"/><path d="m178.85 33.18c9.165 0 16.591-7.428 16.591-16.593 0-9.163-7.426-16.591-16.591-16.591-9.163 0-16.591 7.428-16.591 16.591 0 9.165 7.428 16.593 16.591 16.593"/><g fill="#fff"><path d="m231.26 336.95c14.505 0 26.26-11.759 26.26-26.26 0-14.505-11.758-26.26-26.26-26.26-14.505 0-26.26 11.758-26.26 26.26 0 14.504 11.758 26.26 26.26 26.26"/><path d="m156.81 198.01h71.811c16.5 0 30-11.326 29.848-29.826v-38.5c0-16-10.348-29.962-29.848-29.962h-143.62c-19.5 0-29.848 13.962-29.848 29.962v38.5c-.152 18.5 13.348 29.826 29.848 29.826h71.75z"/><path d="m156.81 88.2h29.06c5.5 0 9.816-4.513 9.816-9.763v-17c0-5.25-4.566-9.66-9.816-9.66h-58.12c-5.25 0-9.816 4.41-9.816 9.66v17c0 5.25 4.316 9.763 9.816 9.763h29z"/><path d="m81.75 336.95c-14.505 0-26.26-11.759-26.26-26.26 0-14.505 11.758-26.26 26.26-26.26 14.505 0 26.26 11.758 26.26 26.26 0 14.504-11.758 26.26-26.26 26.26"/></g></g></g><g color-rendering="auto" color-interpolation-filters="linearRGB" shape-rendering="auto" image-rendering="auto" fill-rule="evenodd" text-rendering="auto" color-interpolation="sRGB" color="#000"><path d="m0 14h6v2h-6z"/><path d="m0 13h8v1h-8z"/></g></svg>