<svg xmlns="http://www.w3.org/2000/svg" viewBox="0 0 16 16"><path d="m11.55 4.23c-1.014 0-2.415.312-2.995.572-.58.26-.966.52-1.087 1.169l-.435 3.602v4.963h.749v.778c0 .949 1.291.949 1.291 0v-.778h4.867v.778c0 .949 1.291.949 1.291 0v-.778h.749v-4.963l-.435-3.602c-.121-.65-.507-.91-1.087-1.169-.58-.26-1.98-.572-2.995-.572"/><g fill="#fff"><g transform="matrix(.0252 0 0 .02711 7.03 4.23)"><path d="m296.83 328.7c13.568 0 24.568-10.259 24.568-22.911 0-12.652-11-22.911-24.568-22.911-13.568 0-24.569 10.259-24.569 22.911 0 12.652 11 22.911 24.569 22.911"/><path d="m58.913 326.71c-13.568 0-24.568-9.962-24.568-22.247 0-12.285 11-22.247 24.568-22.247 13.568 0 24.569 9.962 24.569 22.247 0 12.285-11 22.247-24.569 22.247"/></g><path d="m11.459 5.724h-1.792c-.362 0-.362-.585 0-.585h3.681c.362 0 .362.585 0 .585z"/><path d="m11.459 6.315h-2.769c-.383 0-.483.209-.529.527l-.338 2.612c-.032.25.036.499.357.499h6.654c.321 0 .389-.249.357-.499l-.338-2.612c-.046-.317-.146-.527-.529-.527z"/></g><g color-rendering="auto" color-interpolation-filters="linearRGB" shape-rendering="auto" image-rendering="auto" fill-rule="evenodd" text-rendering="auto" color-interpolation="sRGB" color="#000"><path d="m0 14h5v2h-5z"/><path d="m0 13h7v1h-7z"/></g></svg>