<svg xmlns="http://www.w3.org/2000/svg" viewBox="0 0 16 16"><g transform="translate(-365-666.36)"><g fill="#242424"><path d="m365 680.36h7v2h-7z"/><path d="m372 678.36h9v4h-9z"/></g><g fill="#734a08"><path d="m380 666.36h1v12h-1z"/><path d="m374 666.36h6v1h-6z"/><path d="m375.27 678.35c-.164-.053-.294-.171-.332-.301-.015-.052-.022-1.115-.022-3.306v-3.229h-.166v1.219c0 1.195-.001 1.221-.043 1.293-.055.094-.116.138-.236.169-.178.046-.372-.042-.442-.201-.045-.102-.042-2.827.003-2.996.102-.381.431-.693.816-.772.203-.042 2.075-.042 2.277-.001.206.043.382.139.539.293.161.159.236.288.292.501.039.149.041.228.041 1.523 0 1.184-.004 1.376-.032 1.441-.043.101-.088.146-.187.19-.164.073-.373.026-.47-.107l-.05-.068-.012-2.484h-.166v3.245c0 3.558.008 3.321-.121 3.454-.102.105-.206.144-.379.144-.173 0-.277-.04-.379-.144-.127-.13-.121-.029-.121-2.115v-1.907h-.166v1.907c0 1.554-.005 1.919-.028 1.972-.042.097-.133.194-.229.241-.092.046-.302.067-.388.039m.469-8.352c-.252-.088-.407-.223-.517-.449-.061-.125-.065-.149-.065-.358 0-.211.004-.231.067-.357.317-.628 1.233-.629 1.55-.003.066.13.069.146.069.369 0 .215-.005.243-.058.349-.09.178-.223.308-.404.395-.141.068-.176.076-.347.082-.143.005-.216-.003-.295-.03"/></g></g></svg>