<svg xmlns="http://www.w3.org/2000/svg" viewBox="0 0 390.41 512.49"><path fill="#fff" d="M 0,0 H390.41 V512.49 H0 z"/><g transform="matrix(1.11881 0 0 1 20.616 18.94)"><path d="m156.81 399.3h67.63l49.36 72.37h39.816l-69.01-103.52c23.01-3.708 45.919-27.708 45.919-56.958v-213.86c0-30.19-25.4-57.906-59.907-57.906l-73.53-.048-74.1.048c-34.507 0-59.907 27.714-59.907 57.906v213.86c0 29.25 22.907 53.25 45.919 56.958l-69.01 103.52h39.816l49.36-72.37h67.57z"/><path d="m134.77 33.18c-9.165 0-16.591-7.428-16.591-16.593 0-9.163 7.426-16.591 16.591-16.591 9.163 0 16.591 7.428 16.591 16.591 0 9.165-7.428 16.593-16.591 16.593"/><path d="m178.85 33.18c9.165 0 16.591-7.428 16.591-16.593 0-9.163-7.426-16.591-16.591-16.591-9.163 0-16.591 7.428-16.591 16.591 0 9.165 7.428 16.593 16.591 16.593"/><g fill="#fff"><path d="m231.26 336.95c14.505 0 26.26-11.759 26.26-26.26 0-14.505-11.758-26.26-26.26-26.26-14.505 0-26.26 11.758-26.26 26.26 0 14.504 11.758 26.26 26.26 26.26"/><path d="m156.81 198.01h71.811c16.5 0 30-11.326 29.848-29.826v-38.5c0-16-10.348-29.962-29.848-29.962h-143.62c-19.5 0-29.848 13.962-29.848 29.962v38.5c-.152 18.5 13.348 29.826 29.848 29.826h71.75z"/><path d="m156.81 88.2h29.06c5.5 0 9.816-4.513 9.816-9.763v-17c0-5.25-4.566-9.66-9.816-9.66h-58.12c-5.25 0-9.816 4.41-9.816 9.66v17c0 5.25 4.316 9.763 9.816 9.763h29z"/><path d="m81.75 336.95c-14.505 0-26.26-11.759-26.26-26.26 0-14.505 11.758-26.26 26.26-26.26 14.505 0 26.26 11.758 26.26 26.26 0 14.504-11.758 26.26-26.26 26.26"/></g></g></svg>