<svg xmlns="http://www.w3.org/2000/svg" viewBox="0 0 16 16"><g fill-rule="evenodd"><path fill="#fff" d="m0 16h16v-16h-16z"/><g transform="matrix(1.03087 0 0 1.0491-.938-1.094)"><path d="m1.867 15.36v-.747h1.013v-.533h1.493v.533h3.093v-.533h1.493v.533h1.813v-2.143h4.693v2.889z"/><path d="M3.36 13.81333A1.493333 1.493333 0 0 1 1.866795 12.30045L1.9 9.785A2.133333 2.133333 0 0 1 1.931945 9.44288L2.064 8.696A2.133333 2.133333 0 0 1 2.186534 8.26751L2.933 6.42A.8 .8 0 0 1 3.160366 6.10716C3.487 5.833 4.32 5.493 5.645 5.433A1.401056 1.401056 0 0 0 4.555639 4.41404h-.674A.152843 .152843 0 0 1 3.749746 4.18477 .152843 .152843 0 0 1 3.882112 4.10837h4.076a.152843 .152843 0 0 1 .132366 .22927 .152843 .152843 0 0 1 -.132366 .0764h-.674A1.401056 1.401056 0 0 0 6.195408 5.43299C7.52 5.493 8.353 5.833 8.68 6.107A.8 .8 0 0 1 8.907155 6.42032L9.653 8.268a2.133333 2.133333 0 0 1 .122931 .42871l.132.747a2.133333 2.133333 0 0 1 .03223 .34253l.033 2.515A1.493333 1.493333 0 0 1 8.48 13.81333z"/><g fill="#fff"><path d="m3.893333 12.26667a.506667 .506667 0 0 0 -.76 -.43879 .506667 .506667 0 0 0 0 .87757 .506667 .506667 0 0 0 .76 -.43878"/><path d="m8.96 12.26667a.506667 .506667 0 0 0 -.76 -.43879 .506667 .506667 0 0 0 0 .87757 .506667 .506667 0 0 0 .76 -.43878"/><path d="m6.426667 10.34667a.506667 .506667 0 0 0 -.76 -.43879 .506667 .506667 0 0 0 0 .87757 .506667 .506667 0 0 0 .76 -.43878"/><path d="m4.267 8.592l-1.145.1a.32 .32 0 0 1 -.324589 -.43866l.482-1.193a.8 .8 0 0 1 .416358 -.43115c.39-.174 1.265-.389 2.225-.389.96 0 1.835.216 2.225.389a.8 .8 0 0 1 .41636 .43115l.482 1.193a.32 .32 0 0 1 -.324589 .43866l-1.145-.1c-.425-.037-1.12-.059-1.653-.059-.533 0-1.228.021-1.653.059"/><path d="m5.3 4.414h1.24a1.706741 1.706741 0 0 0 -.620005 .87058 1.706741 1.706741 0 0 0 -.619993 -.87058"/></g></g></g></svg>