<svg xmlns="http://www.w3.org/2000/svg" viewBox="0 0 16 13" xmlns:xlink="http://www.w3.org/1999/xlink"><g transform="translate(-420-569.36)"><path fill="#fff" d="m421 575.36h14v7h-14z"/><g fill="#999"><path d="m-420-575.36218a8 6 0 0 1 -4 5.19615 8 6 0 0 1 -8 0 8 6 0 0 1 -4 -5.19615h8z" transform="scale(-1)"/><path d="m420 575.36h1v7h-1z"/><path d="m435 575.36h1v7h-1z"/></g><path id="a" d="m422.91 576.36c-.517 0-.909.43-.909 1v4c0 .616.354 1 .909 1h3.182c.57 0 .909-.362.909-1v-4c0-.57-.392-1-.909-1z"/><g fill="#fff" transform="scale(1-1)"><rect x="422.45" y="-578.86" rx=".455" ry=".5" width="4.091" height="2"/><circle cx="423.15" cy="-580.66" r=".7"/><circle cx="425.9" cy="-580.66" r=".7"/></g><use x="7" xlink:href="#a"/><g fill="#fff" transform="scale(1-1)"><rect x="429.45" y="-578.86" rx=".455" ry=".5" width="4.091" height="2"/><circle cx="430.15" cy="-580.66" r=".7"/><circle cx="432.9" cy="-580.66" r=".7"/></g></g></svg>