<svg xmlns="http://www.w3.org/2000/svg" viewBox="0 0 14 16"><path fill="#fff" d="m0 0h14v16h-14z"/><g transform="matrix(.03217 0 0 .0287.657 1.01)"><path d="m194.03 291.86h-104.79v33.07c0 40.26-58.24 40.736-58.24 0v-33.07h-30.997v-103.56c0-27.796 22.358-42.485 34.984-44.09l31.874-81.4c6-15.5 19-28.748 43.5-28.748h45.539v-21.252c0-8.5 4.61-12.816 12.11-12.816h52.48c7.5 0 12.11 4.316 12.11 12.816v21.252h45.02c24.5 0 37.5 13.248 43.5 28.748l31.874 81.4c12.626 1.603 35.01 16.292 35.01 44.09v103.56h-30.997v33.07c0 40.736-58.24 40.26-58.24 0v-33.07h-104.79z"/><g fill="#fff"><path d="m193.96 142.3h-125.98l23.998-62.98c3-9 7.502-15.5 18-15.597h168c10.5.097 15 6.597 18 15.597l23.998 62.98h-125.96z"/><path d="m61.04 228.55c-14.856 0-26.901-12.291-26.901-27.45 0-15.16 12.05-27.449 26.901-27.449 14.856 0 26.9 12.29 26.9 27.449 0 15.16-12.04 27.45-26.9 27.45"/><path d="m326.93 228.55c14.856 0 26.9-12.291 26.9-27.45 0-15.16-12.04-27.449-26.9-27.449-14.856 0-26.901 12.29-26.901 27.449 0 15.16 12.05 27.45 26.901 27.45"/></g></g><g color="#000" transform="matrix(.03718 0 0 .02929-1.16-1.167)"><path d="m83.24 579.26v-105.57h-33.405v-16.41h85.31v16.41h-33.405v105.57z"/><path d="m128.57 579.26l44.541-122.07h15.238l44.541 122.07h-19.424l-9.377-27.545h-46.3l-9.712 27.545zm34.661-43.871h35.33c-2.568-7.535-4.591-13.437-6.07-17.707-1.479-4.27-2.763-8.05-3.851-11.344-1.088-3.293-2.191-6.642-3.307-10.05-1.116-3.405-2.595-8.01-4.437-13.814-1.954 6.03-3.516 10.842-4.688 14.442-1.172 3.6-2.302 7.07-3.391 10.423-1.088 3.349-2.344 7.089-3.768 11.219-1.423 4.13-3.363 9.74-5.819 16.828"/><path d="m319.21 579.26l-26.708-45.38-26.791 45.38h-20.847l37.34-62.54-34.996-59.44h20.931l24.363 42.28 24.28-42.28h20.931l-34.996 59.44 37.424 62.54z"/><path d="m357.49 579.26v-121.98h18.503v121.98z"/></g></svg>