<svg xmlns="http://www.w3.org/2000/svg" viewBox="0 0 811.35 411.55"><path fill="#fff" d="M 0,0 H811.35 V411.55 H0 z"/><g transform="translate(33.806 26.565)"><path fill="none" stroke="#000" stroke-width="7" d="m141.29 64.772l85.33-56.2 83.47 56.16-83.41 56.18z"/><g fill-rule="evenodd"><path d="m545.77 224.86c-1.218 6.901-6.268 7.751-10.09 11.571 7.844-.014 20.602-.101 20.63-.826l.413-10.613z"/><path d="m68.16 321.23c.297 46.36 66.7 46.36 66.7.417"/><path d="m205.73 321.22c.297 46.36 66.7 46.36 66.7.417"/><path d="m467.11 321.22c.297 46.36 66.7 46.36 66.7.417"/><path d="m605.09 321.22c.297 46.36 66.7 46.36 66.7.417"/><path d="m142.05 342.39h55.861c-2.843-4.924-4.14-10.145-3.96-20.844h-47c-.333 10.848-2.034 15.882-4.898 20.844"/><path d="m541.1 342.49h55.861c-2.843-4.924-4.14-10.145-3.96-20.844h-47c-.333 10.848-2.034 15.882-4.898 20.844"/><path d="m570.25 144.89c-5.203 3.673-10 6.78-10 9.94l.061 129.1c1.218 6.901 6.123 8.04 9.943 11.863l-23.735-.182-.296-141.05c0-2.791-4.943-6.06-10.04-9.661z"/><path d="m34.777 124.53h669.26v21.11h-669.08z"/><path d="m405.02 144.77c5.203 3.673 10 6.78 10 9.94l-.061 70.25c-1.218 6.901-6.123 8.04-9.943 11.863h34.07c-3.829-3.829-8.895-4.736-10.03-11.693l-.016-70.69c0-2.791 4.943-6.06 10.04-9.661z"/><path d="m273.99 144.67c5.203 3.673 10 6.78 10 9.94l-.061 70.25c-1.218 6.901-6.123 8.04-9.943 11.863h34.07c-3.829-3.829-8.895-4.736-10.03-11.693l-.016-70.69c0-2.791 4.943-6.06 10.04-9.661z"/><path d="m143.86 144.89c5.203 3.673 10 6.78 10 9.94l-.061 129.1c-1.218 6.901-6.123 8.04-9.943 11.863l23.735-.182.296-141.05c0-2.791 4.943-6.06 10.04-9.661z"/><path d="m628.06 144.89c5.203 3.673 10 6.78 10 9.94l-.061 129.1c-1.218 6.901-6.123 8.04-9.943 11.863l23.735-.182-.146-150.64z"/><path d="m112.14 144.77c-5.203 3.673-10 6.78-10 9.94l.061 129.1c1.218 6.901 6.123 8.04 9.943 11.863l-23.735-.004.146-150.82z"/><path d="m48.47 144.53l-45.25 90.04v54.628c0 9.866 11.635 20.14 20.517 20.11h692.75c8.706 0 20.517-12.181 20.517-20.11v-55.52l-45.934-89.5h-13.152l30.925 60.942c5.276 19.889-11.03 28.476-19.31 31.383l-38.941-.16.321 59.3h-103.79v-59.3h-380.16v59.22h-77.887v-59.14h-39.18c-8.885 0-23.886-10.663-18.508-30.737l30.1-61.15z"/><path d="m168.37 224.93c1.218 6.901 6.268 7.751 10.09 11.571-7.844-.014-20.602-.101-20.63-.826l-.413-10.613z"/><path d="m298.81 124.96l-7.144-7.492h-132.24l-6.098 7.318z"/></g></g></svg>