<svg xmlns="http://www.w3.org/2000/svg" viewBox="0 0 15 16" xmlns:xlink="http://www.w3.org/1999/xlink"><g transform="translate(0-1036.36)"><g fill="#fff"><path d="m3 1036.36h9v3h-9z"/><path d="m3.364 1039.36c-1.345 0-2.364 1-2.364 2.333v8.167c0 .707.605 1.167 1.182 1.167v1.333c4.818 0 5.818 0 10.636 0v-1.333c.562 0 1.182-.516 1.182-1.167v-8.167c0-1.329-1.019-2.333-2.364-2.333z"/></g><path d="m4 1040.36c-1.138 0-2 .861-2 2v7c0 .606.512 1 1 1v2h2v-2h5v2h2v-2c.475 0 1-.442 1-1v-7c0-1.139-.862-2-2-2z"/><g fill="#fff" transform="scale(1-1)"><rect x="3" y="-1045.36" rx="1" width="9" height="4"/><ellipse cx="4" cy="-1048.36" rx="1" ry="1"/><ellipse cx="11" cy="-1048.36" rx="1" ry="1"/></g><rect x="4" y="1037.36" rx="1" ry=".5" width="7" height="1"/><path id="a" d="m6 1038.36h1v2h-1z"/><use x="2" xlink:href="#a"/></g></svg>