<svg xmlns="http://www.w3.org/2000/svg" viewBox="0 0 16 16"><g transform="translate(-767.63-289.54)"><path fill="#333" d="m767.63 289.53h16v16h-16z"/><g transform="matrix(.04079 0 0 .04079 767.78 274.24)"><path fill="#fff" fill-rule="evenodd" stroke="#000" stroke-width="5.02" d="m331.95 761.35c0 0 33.781-78.45 32.14-117.88-1.643-39.432-40.804-99.32-39.638-132.26 1.166-32.934 23.935-55.42 17.855-74.75-6.081-19.338-22.827-36.29-39.638-36.29-16.811 0-30.7 16.953-36.781 36.29-6.081 19.338 16.689 41.82 17.855 74.75 1.166 32.934-37.995 92.82-39.638 132.26-1.643 39.432 29.28 117.88 29.28 117.88z"/><path fill="#f00" d="m284.65 500.24h38.881v38.22h-38.881z"/></g><g fill="#fff"><path d="m772.18 297.96q0-2.252.604-3.412.61-1.16 1.794-1.16 1.05 0 1.654.94.732 1.135.732 3.632 0 2.24-.604 3.406-.604 1.16-1.794 1.16-1.05 0-1.721-1.025-.665-1.025-.665-3.54m.922 0q0 2.179.415 2.924.421.739 1.074.739.616 0 1.031-.751.415-.751.415-2.911 0-2.185-.421-2.924-.415-.739-1.08-.739-.61 0-1.025.751-.409.751-.409 2.911" transform="matrix(1.02975 0 0 1-23.436.036)"/><path d="m770.72 302.5h-.903v-7q-.311.366-.836.751-.525.378-.964.574v-1.062q.745-.427 1.312-1.044.574-.616.806-1.202h.586z"/></g></g></svg>