<svg xmlns="http://www.w3.org/2000/svg" viewBox="0 0 16 16"><g transform="translate(-767.63-289.54)"><path fill="#333" d="m767.63 289.53h16v16h-16z"/><g transform="matrix(.04079 0 0 .04079 767.78 274.24)"><path fill="#fff" fill-rule="evenodd" stroke="#000" stroke-width="5.02" d="m331.95 761.35c0 0 33.781-78.45 32.14-117.88-1.643-39.432-40.804-99.32-39.638-132.26 1.166-32.934 23.935-55.42 17.855-74.75-6.081-19.338-22.827-36.29-39.638-36.29-16.811 0-30.7 16.953-36.781 36.29-6.081 19.338 16.689 41.82 17.855 74.75 1.166 32.934-37.995 92.82-39.638 132.26-1.643 39.432 29.28 117.88 29.28 117.88z"/><path fill="#f00" d="m284.65 500.24h38.881v38.22h-38.881z"/></g><path fill="#fff" d="m769.69 300.63l1.136-.118q.272 1.71 1.6 1.71.592 0 1.072-.368.488-.376.824-1.327.336-.951.336-2.218v-.265q-.368.656-.992 1.039-.624.383-1.272.383-1.176 0-2.032-.943-.848-.951-.848-2.594 0-1.695.88-2.668.888-.98 2.152-.98.896 0 1.672.545.776.545 1.2 1.607.424 1.061.424 3.058 0 2.226-.456 3.456-.456 1.231-1.24 1.798-.776.567-1.744.567-1.096 0-1.832-.685-.736-.693-.88-1.997m4.84-4.768q0-1.157-.56-1.82-.56-.663-1.288-.663-.76 0-1.36.707-.592.707-.592 1.887 0 1.061.568 1.695.568.626 1.36.626.784 0 1.328-.634.544-.634.544-1.798"/></g></svg>