<svg xmlns="http://www.w3.org/2000/svg" viewBox="0 0 420 420"><g transform="translate(-192.14-170.58)"><path fill="#fff" d="m192.14 170.58h420v420h-420z"/><path d="m-617.14283-679.28571a105.71429 105.71429 0 0 1 -105.71429 105.71429 105.71429 105.71429 0 0 1 -105.71428 -105.71429 105.71429 105.71429 0 0 1 105.71428 -105.71428 105.71429 105.71429 0 0 1 105.71429 105.71428" transform="matrix(1.2027 0 0 1.2027 1331.53 1198.27)"/><path fill="#2a7fff" d="m-94.28571-666.42859a52.857143 52.857143 0 0 1 -52.857141 52.85714 52.857143 52.857143 0 0 1 -52.85715 -52.85714 52.857143 52.857143 0 0 1 52.85715 -52.85714 52.857143 52.857143 0 0 1 52.857141 52.85714" transform="matrix(1.69369 0 0 1.69369 711.36 1510.02)"/><path fill="#f00" d="m-5.714287-509.28574a30 30 0 0 1 -30 30 30 30 0 0 1 -30 -30 30 30 0 0 1 30 -30 30 30 0 0 1 30 30" transform="matrix(1.85873 0 0 1.85873 528.53 1327.92)"/><path fill="#ff0" d="M0-405A14.285714 14.285714 0 0 1 -14.285714 -390.71429 14.285714 14.285714 0 0 1 -28.571428 -405 14.285714 14.285714 0 0 1 -14.285714 -419.28571 14.285714 14.285714 0 0 1 0 -405" transform="matrix(1.96667 0 0 1.96667 490.24 1177.79)"/><g fill="none" stroke="#000" transform="translate(-108.57-2.857)"><path stroke-width="15" d="m394.29 178.08c0 0 15.983 12.462 14.286 45.714-1.697 33.25-68.24 106.99-68.57 160-.333 53.01 66.36 132.23 68.57 165.71 2.209 33.482-11.429 42.857-11.429 42.857"/><path stroke-width="10" d="m408.57 552.36v-334.29"/></g></g></svg>