<svg xmlns="http://www.w3.org/2000/svg" viewBox="0 0 470 470.86"><defs><radialGradient cx="257.64" cy="341.4" id="a" r="555.55" gradientUnits="userSpaceOnUse" gradientTransform="scale(1.02007.98033)"><stop stop-color="#997c75"/><stop offset="1" stop-color="#929648"/></radialGradient><linearGradient id="b" y1="292.32" x1="457.41" y2="528.51" gradientUnits="userSpaceOnUse" x2="602.93" gradientTransform="scale(.9659 1.03531)"><stop stop-color="#f00"/><stop offset="1" stop-color="#761414"/></linearGradient><linearGradient id="c" y1="354.12" x1="301.98" y2="624.13" gradientUnits="userSpaceOnUse" x2="481.56" gradientTransform="scale(1.02165.97881)"><stop stop-color="#fff"/><stop offset="1" stop-color="#929648" stop-opacity="0"/></linearGradient></defs><g transform="translate(-182.14-260.22)"><g fill-rule="evenodd"><path fill="url(#a)" d="M637.14285 486.64789A220 211.42857 0 1 1 197.14285 486.64789 220 211.42857 0 1 1 637.14285 486.64789"/><path opacity=".68" fill="url(#c)" d="m394.85 292.16c-72.6 7.05-140.82 54.659-169.33 122.26-32.748 74.36-9.745 168.68 53.26 219.89 62.979 54.68 159.72 66.39 233.58 27.366 61.946-31.501 106.92-97.12 107.83-167.39 3.463-70.74-37.18-140.74-98.97-174.76-38.01-21.937-82.72-31.25-126.38-27.364"/></g><g fill="none" stroke-linejoin="round"><path stroke-dasharray="50 25" stroke="url(#b)" stroke-width="25" d="m325.71 292.36c95.07-.396 108.88 73.978 80 117.14-37.12 74.26-80.36 119.64-42.857 174.29 33.07 44.497 124.09 66.911 148.57-40 32.06-64.44 56.628-91.94 120-65.71"/><path stroke="#000" stroke-width="30" d="M637.14285 486.64789A220 211.42857 0 1 1 197.14285 486.64789 220 211.42857 0 1 1 637.14285 486.64789z"/></g></g></svg>