<svg xmlns="http://www.w3.org/2000/svg" viewBox="0 0 252.26 251.88"><defs><radialGradient cx="362.18" cy="386" id="a" r="126.13" gradientUnits="userSpaceOnUse" gradientTransform="matrix(1.13773.88039-.61106.78967 185.99-237.58)"><stop stop-color="#ffd52a"/><stop offset="1" stop-color="#ff7f2a"/></radialGradient></defs><g stroke="#000" transform="translate(-274.92-319.6)"><path fill="url(#a)" stroke-width="4.924" d="m290.08 500.01c-30.11-61.16-4.838-135.2 56.42-165.26 61.26-30.07 135.41-4.83 165.52 56.33 30.11 61.16 4.838 135.2-56.42 165.26-61.2 30.04-135.27 4.89-165.44-56.17"/><g fill="none" stroke-width="4.395"><path d="m278.66 433.19c19.446-47.33 235.47-.823 244.77 24.692"/><path d="m430.85 324.55c104 36.627 55.803 231.28-41.852 243.22"/><path d="m349.68 333.19c59.18 4.938 98.08 93.83 161.07 61.731"/><path d="m295.15 510.97c84.972 12.758 197.85-105.35 205.45 8.642"/></g></g></svg>