<svg xmlns="http://www.w3.org/2000/svg" viewBox="0 0 300 300" enable-background="new 0 0 300 300"><path color-interpolation-filters="linearRGB" color="#000" image-rendering="auto" color-rendering="auto" fill-rule="evenodd" d="m0 0h300v300h-300z" color-interpolation="sRGB" text-rendering="auto" fill="#fff" shape-rendering="auto"/><path d="m158.01 90.23c7.93.652 15.503-2 23.09-3.838 13.753-3.912 27.21-8.763 40.831-13.09 9.385-2.418 18.693-5.129 28.02-7.758 1.673-.637 3.976-1.013 4.556-2.989-.359-.052-1.079-.157-1.436-.209-30.713 1.351-61.4 3.526-91.91 7.403-4.01.409-7.951 1.786-11.1 4.342-2.246 2.093-2.718 5.283-3.396 8.119 2.429 4.04 6.201 8.24 11.345 8.02"/><path d="m9.179 86.17c22.338 7.548 45.03 14.05 67.874 19.883 7.774 2.057 15.523 4.28 23.429 5.78 4.386.495 9.672 1.132 13.183-2.155 1.962-1.943 4.091-4.672 2.681-7.546-1.105-6.248-7.27-9.483-12.916-10.75-10.313-2.084-20.86-2.778-31.357-3.181-19.1-.365-38.14-1.754-57.16-3.451-1.875.075-4.872-.891-5.734 1.42"/><path d="m263.1 157.89c-24.26-14.02-49.32-28.505-77.45-32.753-5.638 1.092-12.622 7.199-9.257 13.451 3.99 6.581 11.367 10.01 18.14 13.04 25.25 9.953 51.4 17.342 77.56 24.467 9.319 2.795 18.711 5.371 27.906 8.563v-5.268c-12.273-7.216-24.799-13.999-36.902-21.504"/><path d="m155.6 148.99c-.971 4.487 2.152 8.407 4.981 11.508 6.313 6.301 14.192 10.685 21.877 15.08 24.391 13.918 50.07 25.34 75.16 37.916 7.303 3.225 13.989 7.75 21.411 10.703.611.01 1.841.024 2.453.035-1.391-2.531-4.258-3.47-6.271-5.361-4.02-3.695-8.359-7.02-12.512-10.565-17.09-13.982-33.31-29.02-50.99-42.27-13.835-10.505-28.967-19.396-45.34-25.302-4.161 1.703-9.332 3.472-10.763 8.258"/><path d="m260.92 261.8c-4.382-.614-8.55-2.242-12.86-3.218-3.133 1.372-6.318 2.646-9.267 4.396-2.407 1.293-4.915 2.984-7.794 2.583-10.353-.845-19.371-7.423-29.905-7.37-15.578.378-30.785 4.221-46.05 6.957-7.446.842-13.695-4.236-20.829-5.251-11.03-.706-21.2 5.989-32.27 4.54-5.692-.674-11.398-1.223-17.09-1.902-8.586-1.524-16.891 3.955-25.448 1.789-5.956-2.053-11.779-5.245-18.276-4.925-4.475.565-8.631 2.704-13.158 2.978-5.793-.18-11.03-3.271-16.816-3.555-3.804-.117-7.49 1.01-11.15 1.892v1.763c.29 1.428.595 2.855.916 4.283 3.055-.596 6.04-1.775 9.17-1.846 6.388.742 12.386 3.838 18.927 3.523 4.492.137 8.481-2.4 12.891-2.801 6.111-.094 11.272 3.703 17.07 5 2.656.341 5.348.249 8.02.167 4.728-.204 9.171-2.439 13.928-2.322 9.634.783 19.245 2.708 28.947 2.039 6.479-.887 12.663-3.221 19.12-4.224 7.05-1.237 13.02 3.772 19.782 4.649 4.48.936 9.05.322 13.409-.886 11.934-1.959 23.706-5.169 35.829-5.783 12.28-1.013 22.739 8.218 35 7.35 5.706-.249 9.991-4.552 15.15-6.409 4.096.406 7.851 2.526 11.994 2.684 7.317.014 14.521-1.963 21.858-1.465 5.991.336 11.994.129 17.992.191v-5.985c-5.995-.482-12.01-.083-18.01-.425-7.079-.417-14.01 1.591-21.07 1.578"/><path d="m22.785 82.937c10.198 0 18.465-8.267 18.465-18.464 0-10.198-8.267-18.465-18.465-18.465-10.197 0-18.464 8.267-18.464 18.465 0 10.197 8.267 18.464 18.464 18.464m0-30.929c6.873 0 12.465 5.592 12.465 12.465s-5.592 12.464-12.465 12.464-12.464-5.591-12.464-12.464 5.591-12.465 12.464-12.465"/><circle cx="114.97" cy="64.35" r="21.875"/></svg>