<svg xmlns="http://www.w3.org/2000/svg" viewBox="0 0 598.14 598.14" xmlns:xlink="http://www.w3.org/1999/xlink"><defs><radialGradient cx="223.33" cy="511.2" id="a" r="299.07" gradientUnits="userSpaceOnUse" gradientTransform="matrix(-2.4818 1.7063-2.3828-3.4659 2035.2 1825.9)"><stop stop-color="#502d16"/><stop offset="1"/></radialGradient><linearGradient id="b" y1="-436.21" y2="520.93" x1="71.43" gradientUnits="userSpaceOnUse" x2="397.14"><stop stop-color="#fff"/><stop offset="1" stop-color="#fff" stop-opacity="0"/></linearGradient><linearGradient id="c" xlink:href="#b" y1="706.45" y2="113.74" x1="439.7" gradientUnits="userSpaceOnUse" x2="278.92"/></defs><g transform="translate(-68.07-209.01)"><path fill="url(#a)" fill-rule="evenodd" stroke="#000" d="m677.14 539.51c0 164.9-133.67 298.57-298.57 298.57s-298.57-133.68-298.57-298.57c0-164.9 133.67-298.58 298.57-298.58s298.57 133.67 298.57 298.57z" transform="translate(-11.429-31.429)"/><path fill="url(#c)" d="m625.71 678.08a182.86 182.86 0 1 1 -365.71 0 182.86 182.86 0 1 1 365.71 0" transform="matrix(.90625 0 0 .90625 2.089-66.43)"/><text x="334.28" y="636.99" font-family="Sans" word-spacing="0" line-height="125%" letter-spacing="0" font-size="217.54">8</text><path fill="url(#b)" fill-rule="evenodd" d="m633.13 402.75c0 94.1-128.91 107.53-263.19 107.53s-271.64-13.426-271.64-107.53c0-94.1 134.57-193.24 268.84-193.24 134.28 0 265.98 99.14 265.98 193.24z"/></g></svg>