<svg xmlns="http://www.w3.org/2000/svg" viewBox="0 0 471.17099 413.276" height="413.28" enable-background="new 0 0 580 580"><g fill="#501616"><circle cx="215.74" cy="127.07" r="43.708" transform="translate(-54.41-83.36)"/><path d="m29.01 320.03c9.04-4.176 19.279-6.637 29.863-6.637 10.583 0 20.823 2.46 29.806 6.637 8.867 3.947 18.764 6.235 29.12 6.235 10.297 0 20.19-2.288 29.01-6.235 8.981-4.176 19.222-6.637 29.862-6.637 10.64 0 20.767 2.46 29.863 6.637 8.753 3.947 18.707 6.235 29 6.235 10.297 0 20.251-2.288 29-6.235 9.1-4.176 19.279-6.637 29.921-6.637 10.641 0 20.767 2.46 29.806 6.637 8.867 3.947 18.764 6.235 29.06 6.235 10.355 0 20.19-2.288 29.06-6.235 8.981-4.176 19.222-6.637 29.806-6.637 9.1 0 17.906 1.717 25.915 4.863 12.986-14.188 20.996-33.07 20.996-53.719 0-44.05-35.642-79.69-79.63-79.69l-8.925.973c-9.782 39.703-49.49 41.42-49.49 41.42l-181.81-.058-15.218-8.925 36.671-61.5 40.1 23.17c24.03 15.562 36.556-6.235 36.556-6.235l40.22-65.56c17.506-28.49-19.622-51.32-36.957-22.712l-28.15 45.995-66.934-37.01c-46.4-25.858-66.02 16.991-66.02 16.991l-52.577 90.05c-8.924 18.707-.973 26.773-.973 26.773l-25.973-.057v98.17h.114c10.243.001 20.08-2.345 28.892-6.292"/></g><path fill="#00f" d="m442.22 363.5c-9.1-4.177-19.223-6.637-29.92-6.637-10.584 0-20.824 2.46-29.806 6.637-8.867 3.947-18.707 6.293-29.06 6.293-10.298 0-20.19-2.346-29.06-6.293-9.04-4.177-19.17-6.637-29.806-6.637-10.641 0-20.824 2.46-29.92 6.637-8.753 3.947-18.708 6.293-29 6.293-10.298 0-20.252-2.346-29-6.293-9.1-4.177-19.223-6.637-29.863-6.637-10.64 0-20.881 2.46-29.862 6.637-8.811 3.947-18.707 6.293-29 6.293-10.354 0-20.252-2.346-29.12-6.293-8.981-4.177-19.223-6.637-29.806-6.637-10.584 0-20.824 2.46-29.863 6.637-8.81 3.947-18.707 6.293-29 6.293v43.479c10.298 0 20.2-2.288 29-6.236 9.04-4.176 19.279-6.636 29.863-6.636 10.583 0 20.824 2.46 29.806 6.636 8.867 3.948 18.765 6.236 29.12 6.236 10.298 0 20.19-2.288 29-6.236 8.981-4.176 19.16-6.636 29.862-6.636 10.584 0 20.767 2.46 29.863 6.636 8.753 3.948 18.707 6.236 29 6.236 10.297 0 20.252-2.288 29-6.236 9.1-4.176 19.222-6.636 29.92-6.636 10.583 0 20.767 2.46 29.806 6.636 8.867 3.948 18.764 6.236 29.06 6.236 10.355 0 20.19-2.288 29.06-6.236 8.981-4.176 19.17-6.636 29.806-6.636 10.641 0 20.823 2.46 29.92 6.636 8.753 3.948 18.65 6.236 28.947 6.236v-43.479c-10.297 0-20.19-2.346-28.947-6.293"/></svg>