<svg xmlns="http://www.w3.org/2000/svg" viewBox="0 0 16 16"><g color-rendering="auto" color-interpolation-filters="linearRGB" shape-rendering="auto" image-rendering="auto" fill-rule="evenodd" text-rendering="auto" color-interpolation="sRGB" color="#000" transform="translate(0-1036.36)"><path fill="#fff" d="m0 1036.36h16v16h-16z"/><path d="m0 1050.36h2v2h-2z"/><path d="m0 1046.36h2v2h-2z"/><path d="m0 1042.36h2v2h-2z"/><path d="m0 1038.36h2v2h-2z"/><path d="m2 1036.36h2v2h-2z"/><path d="m2 1040.36h2v2h-2z"/><path d="m2 1044.36h2v2h-2z"/><path d="m2 1048.36h2v2h-2z"/><path d="m4 1050.36h2v2h-2z"/><path d="m4 1046.36h2v2h-2z"/><path d="m4 1042.36h2v2h-2z"/><path d="m4 1038.36h2v2h-2z"/><path d="m6 1036.36h2v2h-2z"/><path d="m6 1040.36h2v2h-2z"/><path d="m6 1044.36h2v2h-2z"/><path d="m6 1048.36h2v2h-2z"/><path d="m8 1050.36h2v2h-2z"/><path d="m8 1046.36h2v2h-2z"/><path d="m8 1042.36h2v2h-2z"/><path d="m8 1038.36h2v2h-2z"/><path d="m10 1036.36h2v2h-2z"/><path d="m10 1040.36h2v2h-2z"/><path d="m10 1044.36h2v2h-2z"/><path d="m10 1048.36h2v2h-2z"/><path d="m12 1050.36h2v2h-2z"/><path d="m12 1046.36h2v2h-2z"/><path d="m12 1042.36h2v2h-2z"/><path d="m12 1038.36h2v2h-2z"/><path d="m14 1036.36h2v2h-2z"/><path d="m14 1040.36h2v2h-2z"/><path d="m14 1044.36h2v2h-2z"/><path d="m14 1048.36h2v2h-2z"/></g></svg>