<svg xmlns="http://www.w3.org/2000/svg" viewBox="0 0 271.94 659.24"><defs><linearGradient id="a" y1="298.13" x1="284.05" y2="345.07" gradientUnits="userSpaceOnUse" x2="622.53" gradientTransform="matrix(.50364.15391-.55494 1.81596 69.29-234.44)"><stop stop-color="#826b35"/><stop offset=".5" stop-color="#bfad62"/><stop offset="1" stop-color="#b1a855"/></linearGradient><linearGradient id="b" x1="611.54" gradientUnits="userSpaceOnUse" x2="729.05" gradientTransform="matrix(.34762.10623-.80401 2.631 71.68-233.71)"><stop stop-color="#ca3030"/><stop offset="1" stop-color="#a52727"/></linearGradient></defs><path fill="url(#a)" stroke="#473b18" stroke-width="1.25" d="m122 220.02l42.37-2.858 39.33 12.02 37.07 27.13-121.38 397.18c-21.327 1.288-41.34 9.374-63.45 2.144-26.321-7.946-37.05-25.05-55.31-38.438z"/><path fill="url(#b)" stroke="#7b0505" stroke-width="1.235" d="m231.2 7.01l39.668 12.12-64.37 210.64-49.583 91.29 9.915-103.41z"/><path fill="#bd1e1e" stroke="#810404" stroke-width="1.25" d="M263.08085 183.7635A19.07426 13.495939 0 1 1 224.93233 183.7635 19.07426 13.495939 0 1 1 263.08085 183.7635z" transform="matrix(1.04216.31848-.22909.74967 39.04-203.09)"/></svg>