<svg viewBox="0 0 341.14413 298.03736" enable-background="new 0 0 455.148 454.788" width="341.14" xmlns="http://www.w3.org/2000/svg" height="298.04"><path fill="#fff" d="M 0,0 H341.14 V298.04 H0 z"/><g fill-rule="evenodd"><g fill="#7f7f7f"><path d="m173.48 97.71l-28.19 27.432 40.39 23.22c.252 17.713.395 32.832.287 46.19-.107 13.284 1.08 26.17-.863 32.976-2.088 6.553-6.984 6.624-11.09 6.624-4.141-.107-10.909-1.943-13.357-6.876-2.447-5.111-1.295-12.672-1.404-22.68-.252-10.08-.252-22.18 0-36.972-12.887-6.01-23.615-11.232-32.723-16.345-9.217-5.076-16.921-8.855-21.601-13.716-4.644-5.04-6.265-10.512-6.265-15.588-.071-5.112 1.729-8.928 5.688-14.508 3.924-5.688 10.08-11.592 17.64-18.972 7.524-7.452 19.765-19.836 27-25.09 7.092-5.256 10.692-6.444 15.66-6.336 5 .036 9.792 3.312 13.933 6.624 3.924 3.168 5.615 6.372 9.936 12.924 4.248 6.516 9.324 15.12 15.371 26.1 11.592-1.044 20.412-1.044 26.748 0 6.156.936 9.936 2.916 10.801 6.084.828 3.204.18 10.476-5.688 12.924-6.05 2.16-22.357 1.116-29.881 1.044-7.451 0-11.447.432-15.05-1.044-3.814-1.656-4.248-4.464-7.127-8.424-2.879-4.03-6.334-9.179-10.223-15.587"/><path d="m202.74 21.772c13.494 0 24.445 10.161 24.445 22.68 0 12.52-10.951 22.68-24.445 22.68-13.492 0-24.443-10.161-24.443-22.68 0-12.519 10.951-22.68 24.443-22.68"/><path d="m83.27 153.26c37.757 0 68.4 28.434 68.4 63.47 0 35.03-30.642 63.47-68.4 63.47-37.757 0-68.4-28.434-68.4-63.47 0-35.03 30.643-63.47 68.4-63.47m0 12.276c30.464 0 55.19 22.934 55.19 51.19 0 28.26-24.725 51.19-55.19 51.19-30.463 0-55.19-22.935-55.19-51.19 0-28.26 24.724-51.19 55.19-51.19"/><path d="m262.15 153.26c37.758 0 68.4 28.434 68.4 63.47 0 35.03-30.643 63.47-68.4 63.47-37.756 0-68.4-28.434-68.4-63.47 0-35.03 30.644-63.47 68.4-63.47m0 12.276c30.445 0 55.15 22.934 55.15 51.19 0 28.26-24.707 51.19-55.15 51.19-30.443 0-55.15-22.935-55.15-51.19 0-28.26 24.709-51.19 55.15-51.19"/></g><g fill="#17057a"><path d="m171.11 93.32l-28.19 27.432 40.39 23.22c.252 17.748.396 32.76.289 46.15-.109 13.248 1.08 26.24-.865 33.01-2.088 6.588-6.984 6.516-11.09 6.588-4.141-.108-10.908-1.944-13.355-6.876-2.449-5.04-1.297-12.78-1.404-22.68-.252-10.116-.252-22.1 0-36.937-12.889-5.976-23.616-11.304-32.725-16.38-9.18-5.076-16.992-8.856-21.636-13.716-4.681-5.112-6.155-10.44-6.228-15.552-.072-5.112 1.728-8.928 5.688-14.508 3.924-5.652 10.08-11.664 17.641-19.01 7.523-7.524 19.764-19.764 27-25.06 7.092-5.256 10.691-6.444 15.659-6.336 5 .072 9.792 3.24 13.932 6.588 3.924 3.168 5.615 6.372 9.936 12.924 4.248 6.588 9.324 15.12 15.373 26.14 11.592-1.044 20.412-1.044 26.748 0 6.156.972 9.936 2.808 10.799 6.05.828 3.204.182 10.476-5.688 12.924-6.05 2.232-22.355 1.116-29.879 1.08-7.525 0-11.484.432-15.08-1.08-3.674-1.656-4.32-4.464-7.094-8.424-2.95-4.03-6.226-9.215-10.222-15.551"/><path d="m200.34 17.212c13.492 0 24.443 10.16 24.443 22.68 0 12.52-10.951 22.68-24.443 22.68-13.494 0-24.445-10.161-24.445-22.68 0-12.519 10.95-22.68 24.445-22.68"/><path d="m80.891 148.83c37.756 0 68.4 28.434 68.4 63.47 0 35.03-30.645 63.47-68.4 63.47-37.757 0-68.4-28.434-68.4-63.47 0-35.03 30.643-63.47 68.4-63.47m0 12.276c30.463 0 55.19 22.935 55.19 51.19 0 28.26-24.725 51.19-55.19 51.19-30.464 0-55.19-22.934-55.19-51.19 0-28.26 24.724-51.19 55.19-51.19"/><path d="m259.78 148.83c37.756 0 68.4 28.434 68.4 63.47 0 35.03-30.645 63.47-68.4 63.47-37.758 0-68.4-28.434-68.4-63.47 0-35.03 30.642-63.47 68.4-63.47m0 12.276c30.443 0 55.15 22.935 55.15 51.19 0 28.26-24.709 51.19-55.15 51.19-30.445 0-55.15-22.934-55.15-51.19 0-28.26 24.707-51.19 55.15-51.19"/></g></g></svg>