<svg xmlns="http://www.w3.org/2000/svg" viewBox="0 0 16 14"><g fill-rule="evenodd" transform="translate(0-1038.36)"><path color-interpolation-filters="linearRGB" color="#000" image-rendering="auto" color-rendering="auto" d="m0 1038.36h16v14h-16z" color-interpolation="sRGB" text-rendering="auto" fill="#fff" shape-rendering="auto"/><path d="m478.67 493.03c-2.212 5.158-4.448 11.385-5.888 16.789-4.172.464-6.256 7.31-12.934 13.885l-4.184 4.878-6.97 5.577c-3.486 4.88-27.19 10.456-36.95 11.154-8.366 1.394-37.643 3.486-42.523 6.275-8.366 0-6.274-.698-11.154-4.184-2.789 0-4.184.001-4.184 2.092 0 1.395 2.789 2.791 4.184 4.882 0 2.091.695 2.09.695 4.878 0 .698-2.089 2.788-2.786 3.485-1.394 3.485-2.092 2.788-2.092 7.669-.748 12.184 3.22 10.238-.153 23.955-.868 4.03-5.105 7.475-7.669 9.07-2.091 2.091-4.879 4.18-6.97 6.271-4.451 2.748-1.157 10.746-.699 15.337l.505 15.215c1.579 4.74 6.395 4.306 10.649 4.306 2.091 0 2.092-1.394 2.092-3.485 2.027-1.998 0 0-4.399-6.05-2.701-3.717-.753-10.292-.267-14.11.923-7.246 13.12-12.11 19.457-17.74 8.258-3.445 11.483-8.862 16.73-16.73 1.546-.922 3.187-1.529 4.882-2.092 5.551 1.645 5.541 3.917 7.669-1.397h8.363c10.708.225 15.683 9.08 29.22 11.276 6.334-.118 4.048-.118 6.334-.118l1.393.695 1.393 8.367c1.076 7.518-2.519 27.14 1.709 30.674v2.786c3.12 8.84 5.53 7.104 11.427 7.104l.699-.699 2.092-.695-2.79-5.577v-.699l-4.184-2.79-.695-1.393c-2.304-10.87 2.475-21.592 5.505-32.2l.695-1.397 4.365-11.848c4.767-4.494 6.292-7.819 6.974-13.944 5.04-11.83 1.764-21.489 7.669-30.674l3.485-4.878c2.788-2.091 4.182-4.184 9.06-4.184 3.485 0 4.183 2.79 7.669.699h3.485c4.602-.834 7.744-1.261 10.459-4.882v-.699c.698-.697 1.393-1.392 1.393-2.786 0-1.394-1.395-1.393-2.092-1.393l-11.868-5.255-3.485-5.577c-.834-1.797-2.464-2.79-4.397-2.79-2.091-.697-4.166-1.715-6.954-1.715h-1.179c-.413-1.375-.71-2.527-.996-3.651-.262-4.163.541-8.18-1.795-11.686" transform="matrix(.08016 0 0 .08016-25.998 999.69)"/></g></svg>