<svg xmlns="http://www.w3.org/2000/svg" viewBox="0 0 16 16"><path fill="#fff" d="m1.652 0c-.911 0-1.652.742-1.652 1.655v12.691c0 .913.741 1.655 1.652 1.655h12.692c.914 0 1.656-.741 1.656-1.655v-12.691c0-.912-.741-1.655-1.656-1.655z"/><path d="m9.838 3.03c.617 0 1.117-.487 1.117-1.088 0-.605-.5-1.092-1.117-1.092-.614 0-1.112.487-1.112 1.092 0 .6.498 1.088 1.112 1.088"/><path d="m13.612 6.112l-1.015-.194-.591 1.174c.096.022.195.033.296.033.63 0 1.157-.428 1.309-1.012m-12.606 1.981c0-.778.768-1.411 1.547-1.411h2.969l1.315-2.96c.215-.485.615-.964 1.112-.777.496.187.648.205.613.735l-.008.129.84.389c.211.141.387.392.248.603-.141.215-.392.389-.606.248l-.619-.277-.976 1.909h1.424l3.896-4.03-.116 1.048 1.918 1.275c.316.181.431.591.251.907-.142.253-.426.375-.693.326l-.155-.029c-.185.747-.859 1.297-1.661 1.297-.158 0-.312-.023-.458-.062l-1.453 2.968v4.073c0 .349-.287.633-.636.633-.349 0-.633-.284-.633-.633v-4.165h-3.207l-.574.982 1.2 2.861c.175.307.065.692-.237.864-.307.174-.692.065-.867-.237l-1.4-3.302v-1.051l-.626.986v3.064c0 .349-.284.633-.633.633-.349 0-.636-.284-.636-.633v-3.539l.524-.82v-2.776l-.66.797v1.848h-1z"/><path d="m10.764 9.15l2.349 2.04.117 2.123c.019.349.007.695-.309.842-.316.148-.821.042-.841-.306l-.102-1.836-2.368-2.338c.392-.221.747-.386 1.155-.525"/></svg>