<svg viewBox="0 0 479.32132 510.47299" enable-background="new 0 0 580 580" width="479.32" xmlns="http://www.w3.org/2000/svg" height="510.47"><path fill="#f00" d="m83.08 58.995v-12.555h-32.74v488.46h32.74v-349.84l161.78-65.86z" transform="translate(-50.34-34.763)"/><g fill="#a05a2c"><path d="m313.1 149.71c7.559-7.174 11.338-15.989 11.338-26.446 0-10.469-3.779-19.29-11.338-26.465-7.559-7.174-16.572-10.761-27.04-10.761-10.457 0-19.37 3.587-26.739 10.761-7.369 7.175-11.05 15.996-11.05 26.465 0 10.457 3.685 19.272 11.05 26.446 7.369 7.174 16.282 10.762 26.739 10.761 10.468 0 19.482-3.587 27.04-10.761"/><path d="m479.09 159.88c-1.159-5.04-4.063-9.304-8.712-12.793l-223.26-147.09-20.351 29.648c-5.04 6.979-3.874 12.989 3.495 18.03 6.968 4.259 12.97 3.094 18.01-3.495l11.64-17.441 181.39 119.2-148.25 26.739c-5.43 1.159-9.792 3.969-13.09 8.428-3.294 4.46-4.167 9.209-2.617 14.248l31.974 125-104.65 156.41c-1.939 3.478-2.909 7.156-2.909 11.04 0 6.199 2.229 11.527 6.689 15.987 4.459 4.459 9.788 6.688 15.986 6.689 8.138-.001 14.727-3.874 19.765-11.622l109.3-164.55 5.82 22.677-16.271 123.26c-.78 6.199.574 11.723 4.063 16.572 3.489 4.849 8.333 7.854 14.532 9.01 6.21 1.159 11.929-.101 17.16-3.779 5.228-3.678 8.233-8.623 9.01-14.833l16.857-126.15c.39-4.27.006-8.729-1.153-13.378l-37.23-148.26 97.11-17.441c5.04-.769 9.107-3.383 12.207-7.843 3.099-4.458 4.258-9.207 3.478-14.247"/></g></svg>