<svg width="300" xmlns="http://www.w3.org/2000/svg" height="300" viewBox="0 0 240 240"><g stroke="#000"><path fill="#fff" stroke-width=".877" stroke-dashoffset=".6" d="m.438.438h239.12v239.12h-239.12z"/><g transform="matrix(-.8 0 0-.8 278.45 251.58)"><circle cx="111.3" cy="86.8" r="21.6" transform="translate(52.43 145.42)"/><path d="m184.21 127.81c-9.708 15.542-37.22-9.489-65.931-33.17-26.785-21.914-58.996-46.31-57.794-48.39 1.08-2.153 36.34 16.247 67.926 32.11 32.388 16.17 63.995 36.38 55.798 49.44z"/><path d="m193.14 208.01c-9.461 9.178 10.819 24.537 31.25 42 18.951 16.263 39.1 33.87 40.447 32.81 1.414-.99-14.07-22.84-29.27-43.27-15.556-20.93-31.32-42.497-42.43-31.537z"/><path d="m190.5 134.56c-4.125 17.855 33.03 19.612 70.07 23.17 34.435 3.444 74.46 8.971 75.08 6.649.759-2.286-37.19-14.21-70.74-25.323-34.33-11.469-70.974-19.53-74.42-4.494z"/><path d="m154.39 195.56c9.461 9.178-10.819 24.537-31.25 42-18.951 16.263-39.1 33.87-40.447 32.81-1.414-.99 14.07-22.84 29.27-43.27 15.556-20.93 31.32-42.497 42.43-31.537z"/></g></g></svg>