<svg xmlns="http://www.w3.org/2000/svg" viewBox="0 0 284.4 284.4"><g transform="translate(-50.658-318.74)"><rect width="269.4" x="58.16" y="326.23" fill="#fff" rx="21.771" height="269.4" stroke="#000" stroke-linejoin="round" stroke-width="15"/><g fill-rule="evenodd"><path d="m185.46 465.09c0 0-28.71 21.871-34.907 26.02-6.297 4.217-9.712 5.94-14.851.85-5.063-5.01-.807-7.267 3.922-11.939 4.628-4.572 33.761-27.682 33.761-27.682z"/><path d="m193.56 471.58c0 0-67.774 82.79-71.824 88.1-4.106 5.386-2.464 8.518.861 11.09 3.249 2.509 7.797 1.893 11.255-2.392 3.398-4.212 70.49-87.39 70.49-87.39z"/></g><path stroke="#000" stroke-width=".178" d="m176.96875 238.12976a.613281 .787109 0 0 1 -.61328 .78711 .613281 .787109 0 0 1 -.61328 -.78711 .613281 .787109 0 0 1 .61328 -.78711 .613281 .787109 0 0 1 .61328 .78711z" transform="matrix(17.8035 0 0 13.3809-2958.09-2825.88)"/><path fill-rule="evenodd" d="m253.67 401.82c11.723 5.978 38.3 31.347 38.3 31.347 8.796 10.711 8.97 22.355-4.3 29.32-12.648 6.636-29.542 13.339-37.95 15.994-8.33 2.63-12.147 2.526-13.258-2.964-1.107-5.467 4.785-8.846 10.229-11.238 5.652-2.484 11.146-3.91 22.672-11.206 11.642-7.369 8.05-9.579-.521-16.842-8.632-7.318-19.233-9.484-25.637-.521-8.986 12.02-22.598 33.543-25.409 37.04-2.765 3.439-5.632 6.02-9.896 3.951-4.228-2.053-26.17-19.641-29.23-24.426-2.915-4.57-3.173-5.727.553-10.862 3.682-5.074 11.596-14.594 11.596-14.594 9.71-12.159 19.573-17.523-2.332-21.287-21.875-3.759-26.713-20.11-27.884-32.464-1.099-11.599 4.448-13.846 7-9.993 2.586 3.902 2.327 15.664 11.757 21.985 9.599 6.434 35.611 1.85 49.729 5.997 14.12 4.147 12.949 4.84 24.571 10.767"/><path d="m179.09375 229.38562a.703125 .648438 0 0 1 -.70313 .64844 .703125 .648438 0 0 1 -.70312 -.64844 .703125 .648438 0 0 1 .70312 -.64844 .703125 .648438 0 0 1 .70313 .64844" transform="matrix(25.0177 0 0 27.1277-4209.89-5846.56)"/></g></svg>