<svg xmlns="http://www.w3.org/2000/svg" viewBox="0 0 16 16"><rect color-interpolation-filters="linearRGB" color="#000" image-rendering="auto" color-rendering="auto" fill-rule="evenodd" rx=".082" width="16" color-interpolation="sRGB" text-rendering="auto" fill="#fff" height="16" shape-rendering="auto"/><rect width="1.316" x="13.858" y="14.09" rx=".111" height=".845"/><path d="m10.209686 2.027512a1.174315 1.162882 0 0 1 -2.34863 0 1.174315 1.162882 0 1 1 2.34863 0"/><g fill="#050505"><path d="m1.798 7c.131.037.45.156.58.195-.256.599-.623 1.149-.769 1.798.021.169.112.315.184.463-.079.113-.347.145-.43.255-.158-.284-.389-.577-.318-.931.151-.639.495-1.192.753-1.781"/><path d="m4.612 13.299c.347.361.691.729 1.069 1.048.201.157.461.055.686.12.099.073.155.2.228.302-.326.081-.834.44-1.137.186-.463-.313-.815-.789-1.23-1.173.082-.102.302-.383.384-.484"/><path d="m4.853 7.02c.002-.456.369-.87.716-.9.135-.012.236.199.354.3.251-.074.545-.191.779-.012.446.296.6.875.747 1.381.191.747.465 1.5.377 2.29-.176.716-.347 1.598-.804 2.154-.437.527-1.022 1.043-1.595 1.225.627-.885 1.244-1.855 1.398-2.983.116-.822-.29-1.576-.628-2.274-.071.708-.176 1.457-.574 2.047-.278.362-.683.532-1.1.426-.874-.244-1.87-1.135-2.068-2.067.663.21 1.096.396 1.782.856.203.027.493-.013.583-.266.183-.798-.012-1.371.033-2.177"/><path d="m7.157 3.192c.201-.083.445.017.532.223.234.464.087 1.016.138 1.514.108.761.247 1.555.693 2.18-.295-.846-.461-1.798-.179-2.674.081-.179.153-.388.386-.433.289-.055.563.207.533.532-.056.966-.338 2.01.066 2.925.935 2 1.449 3.491 2.393 5.489.033.078.081.167.167.182.368.043.761.014 1.148.012.001.15.005.63.006.78-.339.008-.679.022-1.017-.005-.311-.079-.63-.379-.763-.674-.736-1.577-1.249-2.803-1.988-4.378-.082-.151-.144-.339-.303-.415-.608-.321-.852-.898-1.304-1.44-.716-.885-.953-2.109-.889-3.256.045-.233.153-.471.378-.564"/></g></svg>