<svg viewBox="0 0 518.44158 510.47299" enable-background="new 0 0 580 580" width="518.44" xmlns="http://www.w3.org/2000/svg" height="510.47"><path fill="#c87137" d="m57.799 478.76l35.852-235.58 28.11-16.83 27.495 17.278c0 0 31.17 237.98 28.25 236.56-2.927-1.427-119.12.714-119.7-1.428"/><path fill="#502d16" d="m243.13 354.08c-.042-1.88-.881-3.652-2.31-4.875l-96.16-82.33 96.16-82.33c1.428-1.223 2.268-2.996 2.31-4.875.042-1.879-.719-3.688-2.092-4.972l-32.625-30.532c-1.38-1.292-3.25-1.927-5.129-1.755-1.882.175-3.599 1.148-4.717 2.672l-77 104.98-77-104.98c-1.118-1.524-2.835-2.497-4.717-2.672-1.878-.172-3.749.464-5.129 1.755l-32.626 30.532c-1.373 1.285-2.133 3.093-2.092 4.972.041 1.879.881 3.652 2.31 4.875l96.15 82.33-96.15 82.33c-1.428 1.223-2.268 2.995-2.31 4.875-.042 1.879.719 3.688 2.092 4.972l32.626 30.531c1.23 1.151 2.847 1.784 4.516 1.784.204 0 .409-.01.613-.029 1.882-.175 3.599-1.147 4.717-2.672l77-104.98 77 104.98c1.118 1.524 2.835 2.497 4.717 2.672.205.02.409.029.613.029 1.669 0 3.286-.633 4.516-1.784l32.625-30.531c1.373-1.285 2.134-3.093 2.092-4.972m-125.75-87.2l4.189-4.052 4.188 4.052-4.188 4.053z"/><g fill="#500" transform="translate(-27.475-34.763)"><path d="m545.68 194.65c-1.16-5.04-4.064-9.303-8.713-12.793l-223.26-147.09-20.352 29.649c-5.04 6.979-3.873 12.988 3.496 18.03 6.967 4.259 12.971 3.094 18.01-3.495l11.639-17.442 181.39 119.2-148.25 26.739c-5.43 1.16-9.791 3.969-13.09 8.429-3.295 4.459-4.166 9.209-2.617 14.247l31.975 125-104.65 156.41c-1.939 3.478-2.91 7.156-2.91 11.04 0 6.198 2.23 11.527 6.689 15.987 4.459 4.459 9.787 6.688 15.986 6.688 8.139 0 14.727-3.874 19.766-11.622l109.3-164.55 5.82 22.676-16.271 123.26c-.781 6.198.574 11.723 4.064 16.572 3.488 4.85 8.332 7.854 14.531 9.01 6.211 1.159 11.93-.101 17.16-3.779 5.228-3.678 8.232-8.623 9.01-14.833l16.855-126.15c.391-4.271.004-8.729-1.152-13.378l-37.23-148.26 97.11-17.441c5.04-.769 9.107-3.383 12.207-7.843 3.1-4.459 4.258-9.208 3.479-14.249"/><path d="m379.69 184.47c7.559-7.174 11.338-15.989 11.338-26.446 0-10.468-3.779-19.289-11.338-26.464-7.561-7.174-16.572-10.761-27.04-10.761-10.457 0-19.371 3.587-26.74 10.761-7.369 7.175-11.05 15.996-11.05 26.464 0 10.457 3.684 19.272 11.05 26.446 7.369 7.175 16.283 10.762 26.74 10.762 10.469-.001 19.481-3.588 27.04-10.762"/></g></svg>