<svg xmlns="http://www.w3.org/2000/svg" viewBox="0 0 596.53 558.86" xmlns:xlink="http://www.w3.org/1999/xlink"><defs><path fill="none" stroke="#000" stroke-linejoin="round" id="a" stroke-width="35" d="m241.70075 414.19989a83.60947 83.60947 0 1 1 -167.21895 0 83.60947 83.60947 0 1 1 167.21895 0z"/></defs><path fill="#fff" d="M 0,0 H596.53 V558.86 H0 z"/><g transform="matrix(-.79158.52527.52527.79158 331.23-172.51)"><g fill-rule="evenodd"><path d="m438.13 429.17c-62.798-3.164-155.2 7.895-186.2-31.399-14.206-74.77-54.801-112.41-124.5-113.18-42.796-82.65 34.889-95.6 87.991-116.83 3.373 38.42 1.306 78.35 62.07 100.77 2.439-11.888 7.423-21.594 23.367-21.906l89.82.365 63.53-49.655c10.266 16.328 30.639 37.25 30.669 48.924l96.39.365c7.02 5.979 12.973 21.843-1.095 37.606-57.741-1.753-162.69 4.555-142.03 144.95"/><path d="m281.45 113.14l.258-34.04 38.12-5.174v-27.02l-38.897 6.465c2.861-24.34 18.51-41.939 52.985-47.04 21.646 1.526 44.35 2.699 57.26 43.19 3.784 16.06 1.426 32.31-8.549 46.31-32.29-17.699-56.45-5.617-78.5 14.239z"/><path d="m215.05 186.74l113.55-85.8c15.262-8.141 32.09-9.69 52.21 2.556 17.196 15.622 46.24 58.898 69.37 88.36l-64.62 48.38-62.07-86.35-98.21 75.21c-7.56-13.195-9.329-28.681-10.223-42.35"/></g><use xlink:href="#a" transform="matrix(.97447 0 0 .97447-15.377-10.08)"/><use xlink:href="#a" transform="matrix(.97447 0 0 .97447 388.62-9.973)"/></g><path fill="#d45500" stroke="#000" stroke-width=".95" d="m596.06 177.7c-244.73 273.31-566.85 380.69-566.85 380.69h566.85z"/></svg>