<svg xmlns="http://www.w3.org/2000/svg" viewBox="0 0 16 16"><g fill="#502d16" stroke="#a05a2c" color="#000" transform="translate(-263.31-702.69)"><path stroke-width=".232" d="m273.8 708.32c-.108.008-.213.024-.32.036h-.006l-.254 1.387c-.414.094-.804.254-1.155.472l-1.141-.821c-.308.239-.589.518-.835.821l.792 1.155c-.24.367-.421.787-.523 1.227 0 .002 0 .006 0 .006l-1.38.218c-.025.206-.036.419-.036.632 0 .174.004.346.022.516l1.38.247c.098.479.285.927.545 1.322l-.821 1.126c.235.292.506.557.799.792l1.162-.799c.406.259.86.441 1.351.53l.218 1.373c.155.014.314.014.472.014.224 0 .437-.009.654-.036l.261-1.402c.467-.116.905-.318 1.286-.588l1.118.813c.29-.247.555-.53.784-.835l-.813-1.177c.22-.38.373-.8.45-1.249l1.373-.218c.012-.143.014-.282.014-.429 0-.254-.03-.504-.065-.748l-1.394-.254c-.109-.404-.289-.78-.516-1.119l.821-1.126c-.254-.311-.545-.599-.864-.843l-1.184.813c-.34-.201-.706-.356-1.104-.443l-.218-1.38c-.198-.023-.398-.036-.603-.036-.055 0-.112-.001-.167 0-.027.001-.053-.001-.08 0-.006 0-.015 0-.022 0zm.189 3.53c.026-.001.053 0 .08 0 .86 0 1.562.702 1.562 1.562 0 .86-.702 1.554-1.562 1.554-.86 0-1.554-.695-1.554-1.554 0-.833.652-1.52 1.474-1.562z"/><path stroke-width=".196" d="m265.87 703.04c-.083.039-.161.084-.241.126h-.005l.22 1.172c-.298.2-.558.444-.768.723l-1.149-.302c-.171.282-.308.588-.411.901l.975.672c-.079.363-.094.749-.041 1.127.001.002.001.005.001.005l-1.023.59c.041.171.098.342.163.51.053.137.109.272.174.4l1.164-.224c.223.348.505.645.83.878l-.307 1.137c.274.159.569.287.87.383l.675-.983c.399.082.812.087 1.227.01l.588 1.017c.126-.038.252-.084.377-.132.176-.068.343-.139.505-.227l-.218-1.186c.333-.233.618-.525.836-.854l1.129.303c.154-.283.278-.587.366-.897l-.999-.682c.059-.367.052-.745-.023-1.122l1.017-.588c-.032-.117-.075-.227-.119-.342-.077-.201-.176-.389-.278-.571l-1.178.222c-.209-.285-.464-.528-.746-.727l.307-1.137c-.295-.168-.611-.307-.937-.403l-.688 1c-.33-.056-.665-.067-1.01-.015l-.59-1.023c-.164.04-.325.092-.487.155-.043.018-.089.034-.132.051-.023.001-.042.016-.064.022-.005.001-.012.001-.019.001zm1.219 2.729c.022-.001.041-.017.064-.022.679-.261 1.445.081 1.706.759.261.679-.083 1.439-.762 1.7-.679.261-1.437-.077-1.698-.756-.252-.657.054-1.397.691-1.679z"/></g></svg>