<svg xmlns="http://www.w3.org/2000/svg" viewBox="0 0 284.4 284.4" xmlns:xlink="http://www.w3.org/1999/xlink"><defs><path fill="#dddd89" fill-rule="evenodd" stroke="#000" id="a" stroke-width="1.1" d="m220.2 323.73c-2.095.013-3.786 1.717-3.781 3.813l-.589 55.24c-.017 2.106.772 2.688 3.335 4.29 2.562 1.603 4.273 1.896 4.29-.21l.589-59.23c.028-1.033-.366-2.034-1.091-2.77-.725-.737-1.719-1.147-2.752-1.136z"/></defs><g transform="translate(-50.658-318.74)"><rect width="269.4" x="58.16" y="326.23" fill="#fff" rx="21.771" height="269.4" stroke="#000" stroke-linejoin="round" stroke-width="15"/><g transform="matrix(1.0059 0 0 .91621 5.452 35.853)"><ellipse fill="none" cx="-10.607" cy="381.37" rx="17.17" ry="35.36" stroke="#724500" stroke-linejoin="round" stroke-linecap="round" stroke-width="7" transform="translate(227.27 33.612)"/><use xlink:href="#a"/></g><path fill="#a54f00" fill-rule="evenodd" d="m180.95 544.89c-32.796-42.2-80.11-86.18-105.31-119.55-3.549-4.706 11.68-14.82 14.36-12 25.05 26.336 66.33 88.94 97.57 126.48 9.158 11.02 15.277 19.14 27.23 32.31 9.117-.203 3.751 5.486 1.756 7.078-1.995 1.591-9.476 7-7.895-1-10.487-12.814-18.314-21.22-27.705-33.31"/><g stroke="#000"><g stroke-linejoin="round"><path fill-opacity=".144" stroke-width="6.04" d="m-207.57811 269.4982a35.616119 39.714497 0 0 1 -35.61612 39.7145 35.616119 39.714497 0 0 1 -35.61612 -39.7145 35.616119 39.714497 0 0 1 35.61612 -39.7145 35.616119 39.714497 0 0 1 35.61612 39.7145z" transform="matrix(1.43652-.43252.21792.86847 543.48 170.61)"/><g fill="none" stroke-linecap="round" stroke-width="7"><path d="m252.81 546.57c-41.954 6.098-37.44-17.346-79.69-7.886 26.631-15.951 28.31-41.728 54.03-56.01"/><path d="m175.33 537.94l-50.17 18.24"/></g></g><g fill="none" transform="matrix(.74493 0 0 .7286 16.1 104.16)"><path stroke-linejoin="round" stroke-width="6.06" d="m-333.60289 985.94891a47.855976 44.699249 0 0 1 -47.85597 44.69929 47.855976 44.699249 0 0 1 -47.85598 -44.69929 47.855976 44.699249 0 0 1 47.85598 -44.69925 47.855976 44.699249 0 0 1 47.85597 44.69925z" transform="matrix(1.0972 0 0 1.21706 595.68-802.55)"/><g fill-rule="evenodd" stroke-linecap="round" stroke-width="7"><path d="m226.14 377.58c-29.03 23.17-63.23 15.564-98.24 5.556"/><path d="m229.17 407.63c-34.67 15.328-73.814 13.11-99.5 4.293"/><path d="m160.73 345.26c-.128 16.275 5.182 38.876 9.344 45.962"/><path d="m191.79 345c4.04 16.735 1.648 32.499-1.01 47.22"/></g></g></g><g transform="matrix(1.0061 0 0 .91342 55.915 37.12)"><ellipse fill="none" cx="-10.607" cy="381.37" rx="17.17" ry="35.36" stroke="#724500" stroke-linejoin="round" stroke-linecap="round" stroke-width="7" transform="translate(227.27 33.612)"/><use xlink:href="#a"/></g></g></svg>