<svg xmlns="http://www.w3.org/2000/svg" viewBox="0 0 16 16"><g transform="translate(0-1036.36)"><path color-interpolation-filters="linearRGB" color="#000" image-rendering="auto" color-rendering="auto" fill-rule="evenodd" d="m0 1036.36h16v16h-16z" color-interpolation="sRGB" text-rendering="auto" fill="#fff" shape-rendering="auto"/><path d="m13.02 1038.84c.114.147.034.331.019.495-.069.352-.139.704-.212 1.055-.244.911-.858 1.658-1.483 2.34-.253.225-.456.593-.836.596-.314.043-.614-.278-.515-.589.012-.135.137-.204.235-.276.787-.562 1.535-1.215 2.052-2.041.269-.517.533-1.036.74-1.581"/><path d="m2.657 1039.02c.381-.383.932-.534 1.458-.561.049.104.093.213.077.33-.21.072-.443.091-.624.232-.353.247-.461.703-.51 1.106-.087 1.168.267 2.321.761 3.366.398.21.856.254 1.298.268.225.015.454 0 .671-.068.479-.154.842-.532 1.311-.705.214-.065.507-.001.595.228.074.145.008.312-.069.44-.18.278-.482.448-.787.558-.446.173-.933.137-1.401.139-.496-.026-1.01-.101-1.447-.345-.435-.219-.778-.592-1.014-1.013-.457-.725-.802-1.546-.853-2.409-.037-.563.111-1.17.533-1.567"/><path fill="#fff" d="m2.587 1039.7c.093-.252.293-.435.478-.62-.268.369-.332.843-.355 1.287-.018.717.138 1.424.329 2.111-.26-.552-.504-1.124-.571-1.737-.014-.35-.027-.714.12-1.041"/><path d="m8.306 1039.77c.463-.057.958.194 1.161.62.32.559.028 1.342-.565 1.576-.359.164-.794.112-1.116-.112-.391-.279-.599-.819-.435-1.281.129-.424.515-.746.955-.802"/><path d="m9.306 1046.44c.025-.211.207-.366.398-.432.212-.014.422.062.614.146.649.343 1.106 1 1.256 1.714.109.442.023.926-.245 1.295-.381.485-.875.889-1.451 1.12-.425.191-.88.303-1.334.404-.211.053-.422.139-.644.112.434-.287.936-.443 1.405-.663.589-.301 1.134-.79 1.307-1.45.108-.332.046-.727-.217-.969-.283-.253-.652-.406-.897-.703-.122-.162-.233-.364-.193-.574"/><path d="m7.841 1046.76c.158-.352.53-.68.939-.567.097.127.256.222.281.392.081.299-.001.609-.079.899-.101.338-.234.668-.404.977-.4.814-.91 1.583-1.571 2.21-.619.61-1.383 1.052-2.18 1.384-.064.021-.131.029-.199.023.283-.233.572-.459.849-.7.535-.487.939-1.094 1.332-1.696.164-.301.38-.577.49-.905.216-.663.262-1.375.544-2.02"/><path d="m13.5 1037.36c.276 0 .5.224.5.5 0 .276-.224.5-.5.5-.276 0-.5-.224-.5-.5 0-.276.224-.5.5-.5"/></g></svg>