<svg xmlns="http://www.w3.org/2000/svg" viewBox="0 0 16 16" xmlns:xlink="http://www.w3.org/1999/xlink"><defs><linearGradient id="a" y1="615.84" y2="561.13" gradientUnits="userSpaceOnUse" x2="0"><stop stop-color="#dcdcdc"/><stop offset="1" stop-color="#fff"/></linearGradient><radialGradient cx="-601.8" cy="260.15" id="b" r="2.525" gradientUnits="userSpaceOnUse" gradientTransform="matrix(1 0 0 1.2 0-52.03)"><stop stop-color="#722e00"/><stop offset=".5" stop-color="#722e00"/><stop offset="1" stop-color="#722e00" stop-opacity="0"/></radialGradient><path fill="none" id="c" stroke-linecap="round" d="m-176.45 547.45c12.946-2.91 34.653-3.207 48.12-1.05"/><path fill="none" stroke="#fff" stroke-linejoin="round" id="d" stroke-linecap="round" color="#000" stroke-width="5.343" d="m-572.31596 276.19311a14.268405 4.293149 0 0 1 -4.16257 4.95836 14.268405 4.293149 0 0 1 -16.9778 .24194 14.268405 4.293149 0 0 1 -5.70138 -4.8178"/></defs><g transform="translate(0-1036.36)"><g fill-rule="evenodd"><rect color-interpolation-filters="linearRGB" x=".511" y="1036.87" color="#000" image-rendering="auto" color-rendering="auto" stroke-width="1.023" rx="2.489" width="14.977" color-interpolation="sRGB" text-rendering="auto" fill="#008000" height="14.977" stroke="#001a00" shape-rendering="auto"/><g stroke="#000" stroke-width=".036" transform="matrix(.08967 0 0 .09416 2.045 1038.16)" stroke-miterlimit="10"><path d="m52.83.018c29.15 0 52.813 22.531 52.813 50.29 0 27.76-23.66 50.29-52.813 50.29-29.15 0-52.812-22.532-52.812-50.29 0-27.761 23.66-50.29 52.812-50.29"/><g fill="#fff"><path d="m25.25 11.218c-1.548.648-2.664 1.332-3.78 2.196-1.116.756-1.908 1.692-2.664 2.664-.864.9-1.584 1.872-2.16 2.916l7.128-1.836c.468-1.98.972-3.96 1.476-5.94z"/><path d="m32.886 8.09l15.984-3.888 11.02 9.108-2.916 11.628-12.24 5.688-15.48-4.104-2.304-9.468z"/><path d="m63.34 14.03l-1.943 11.02 12.13 12.13 12.96-1.944 3.996-14.544-14.184-11.628z"/><path d="m76.05 41.28l12.24-2.196 7.272 12.24-10.04 16.596-12.6-1.188-4.607-10.549z"/><path d="m94.48 75.91l-5.832-6.768 10.188-17.209 3.528-1.943c.036 4.176-.288 7.703-.972 11.268-.828 3.527-2.053 6.732-3.276 9.324-1.223 2.447-2.34 4.176-3.636 5.328z"/><path d="m33.894 63.42l14.436-10.656 16.236 4.248 5.184 12.205-8.964 11.771-20.232-4.248z"/><path d="m64.962 97.11c-2.988.434-6.01.756-9.216.828-3.312.072-6.84 0-10.04-.359-3.42-.504-6.588-1.404-9.36-2.305-2.772-.971-4.896-2.051-6.768-3.383l-.252-4.861 9.576-7.271 21.457 3.781 6.155 9.432z"/><path d="m14.31 43.726l13.212-13.428 14.292 3.996 3.636 15.48-14.904 11.521-12.96-.361z"/><path d="m9.45 71.12c-1.152.467-2.232-.758-3.384-3.277-1.26-2.736-2.952-8.244-3.528-12.348-.54-4.141-.504-8.172.252-12.24l7.524 2.412 3.996 16.705z"/></g></g></g><g transform="matrix(.04639-.03936.03936.04639-5.282 1014.04)"><g color="#000"><path fill="#ad4700" d="m-154.88 526.72c42.6-.908 78.68 29.962 78.59 47.49-.087 17.1-33.64 46.68-77.24 46.68-43.29 0-79.84-31.662-80.42-47.49-.588-15.824 36.473-45.772 79.07-46.68"/><path stroke-width=".855" d="m-154.98 545.09c38.755-1.611 78.15 12.548 78.68 29.11.531 16.561-43.13 31.09-78.986 29.84-36.29-1.257-78.66-20.645-78.68-30.646-.015-10.01 40.22-26.693 78.978-28.3z" fill="none" stroke-linejoin="round" stroke="#722e00"/><g fill="url(#a)"><path d="m-206.65 541.97c5.316 10.969 9.03 36.917.069 63.21 4.357 2.787 9.123 5.226 14.11 7.469 14.01-27.441 7.742-69.75.305-77.919-5.108 2.08-9.826 4.441-14.485 7.237"/><path d="m-117.95 614.55c6.06-2.569 11.746-5.575 16.856-8.827 12.408-19.529 9.166-45.889.937-62.714-5.141-3.456-10.95-6.626-17.258-9.229 8.578 13.874 13.209 56.963-.535 80.77"/></g></g><use stroke="#ececec" xlink:href="#c" stroke-width="4.276"/><use stroke="#722e00" xlink:href="#c" stroke-width=".47"/><g fill="url(#b)" color="#000"><ellipse cx="-601.8" cy="260.15" rx="2.525" ry="3.03" transform="matrix(.00401-.78395.78395.00401-375.12 79.28)"/><ellipse cx="-601.8" cy="260.15" rx="2.525" ry="3.03" transform="matrix(.00401-.78395.78395.00401-375.88 69.45)"/><ellipse cx="-601.8" cy="260.15" rx="2.525" ry="3.03" transform="matrix(.00401-.78395.78395.00401-370.31 68.62)"/><ellipse cx="-601.8" cy="260.15" rx="2.525" ry="3.03" transform="matrix(.00401-.78395.78395.00401-368.64 78.29)"/><ellipse cx="-601.8" cy="260.15" rx="2.525" ry="3.03" transform="matrix(.00401-.78395.78395.00401-361.83 78)"/><ellipse cx="-601.8" cy="260.15" rx="2.525" ry="3.03" transform="matrix(.00401-.78395.78395.00401-363.35 68.33)"/><ellipse cx="-601.8" cy="260.15" rx="2.525" ry="3.03" transform="matrix(.00401-.78395.78395.00401-356.22 67.825)"/><ellipse cx="-601.8" cy="260.15" rx="2.525" ry="3.03" transform="matrix(.00401-.78395.78395.00401-355.03 77.39)"/><ellipse cx="-601.8" cy="260.15" rx="2.525" ry="3.03" transform="matrix(.00401-.78395.78395.00401-348.17 77.64)"/><ellipse cx="-601.8" cy="260.15" rx="2.525" ry="3.03" transform="matrix(.00401-.78395.78395.00401-348.93 67.97)"/><ellipse cx="-601.8" cy="260.15" rx="2.525" ry="3.03" transform="matrix(.00401-.78395.78395.00401-348.88 67.863)"/><ellipse cx="-601.8" cy="260.15" rx="2.525" ry="3.03" transform="matrix(.00401-.78395.78395.00401-341.53 68.28)"/><ellipse cx="-601.8" cy="260.15" rx="2.525" ry="3.03" transform="matrix(.00401-.78395.78395.00401-341.53 77.889)"/><ellipse cx="-601.8" cy="260.15" rx="2.525" ry="3.03" transform="matrix(.00401-.78395.78395.00401-333.97 78.31)"/><ellipse cx="-601.8" cy="260.15" rx="2.525" ry="3.03" transform="matrix(.00401-.78395.78395.00401-334.25 69.13)"/></g><use xlink:href="#d" transform="matrix(-.03687-.35978.42761.00218-314.06 335.72)"/><use xlink:href="#d" transform="matrix(-.06199-.35991.42761.00218-322.5 335.02)"/><use xlink:href="#d" transform="matrix(-.06199-.35991.42761.00218-315.91 334.52)"/><use xlink:href="#d" transform="matrix(-.03687-.35978.42761.00218-294.29 334.2)"/><use xlink:href="#d" transform="matrix(-.01804-.35969.42761.00218-276.14 334.18)"/><use xlink:href="#d" transform="matrix(.00707-.35956.42761.00218-254.41 334.72)"/><use xlink:href="#d" transform="matrix(.00707-.35956.42761.00218-247.07 335.19)"/><path color="#000" d="m-154.94 524.72c-21.756.464-41.975 8.293-56.781 18.06-7.403 4.885-13.461 10.274-17.688 15.531-4.227 5.258-6.708 10.398-6.531 15.16.175 4.699 2.816 9.895 7.156 15.281 4.34 5.386 10.451 10.924 17.906 15.969 14.91 10.09 35.21 18.16 57.34 18.16 22.252 0 41.897-7.531 56.06-17.281 14.165-9.751 23.14-21.524 23.19-31.375.026-5.07-2.458-10.597-6.656-16.16-4.198-5.56-10.177-11.153-17.5-16.16-14.645-10.01-34.705-17.652-56.5-17.188m.094 4c20.805-.444 40.1 6.887 54.13 16.469 7.01 4.791 12.721 10.153 16.594 15.281 3.873 5.129 5.863 10.03 5.844 13.719-.037 7.246-7.905 18.81-21.438 28.13-13.533 9.315-32.465 16.563-53.813 16.563-21.16 0-40.763-7.771-55.09-17.469-7.165-4.849-13-10.156-17.03-15.16-4.03-5-6.193-9.725-6.313-12.938-.117-3.154 1.799-7.664 5.688-12.5 3.888-4.836 9.668-9.994 16.781-14.688 14.227-9.387 33.812-16.962 54.656-17.406"/></g></g></svg>