<svg viewBox="0 0 360.94283 366.95856" enable-background="new 0 0 455.148 454.788" width="360.94" xmlns="http://www.w3.org/2000/svg" height="366.96"><path fill="#fff" d="M 0,0 H360.94 V366.96 H0 z"/><g fill-rule="evenodd"><g fill="#7f7f7f"><path d="m236.32 82.59c0 15.948-12.03 28.872-26.857 28.872-14.832 0-26.855-12.924-26.855-28.872 0-15.948 12.02-28.872 26.855-28.872 14.832 0 26.857 12.925 26.857 28.872"/><path d="m46.01 73.23c0 7.344-6.254 13.284-13.971 13.284-7.717 0-13.974-5.94-13.974-13.284 0-7.344 6.256-13.32 13.974-13.32 7.717 0 13.971 5.976 13.971 13.32"/><path d="m146.93 123.78c-10.439-4.03-20.664-4.644-31.25-1.872-10.584 2.808-23.543 15.228-31.715 18.468-8.137 3.132-14.256 3.204-16.74.468-2.412-2.808-2.809-10.296 2.195-17.06 5.076-6.768 15.769-17.748 27.756-23.18 12.02-5.4 30.637-8.748 43.597-9 12.96-.216 25.812 3.6 33.48 7.56 7.596 3.996 7.236 12.672 11.879 16.13 4.682 3.384 11.557.432 15.842 4.248 4.283 3.852 7.092 10.26 9.684 18.468 2.592 8.208-1.08 19.404 5.723 30.31 6.949 10.908 16.273 22.68 33.05 35.03 8.855-11.771 12.275-17.855 18.14-25.74 5.832-7.884 19.584-29.556 19.584-29.556 0 0-6.625-18.648-.865-29.27 5.797-10.548 15.229-26.388 22.537-30.78 7.309-4.356 17.244 3.06 25.992 10.08 8.82 7.06 15.551 7.416 14.975 15.3-.574 7.884-11.734 21.492-19.04 30.564-11.125 12.888-28.98 11.124-33.66 11.124-4.355 6.156-13.248 20.52-18.18 28.368-4.932 7.92-16.344 24.301-21.996 31.25-5.615 6.912-6.947 9.433-11.447 9.973-4.537.432-9-2.736-15.408-7.128-6.445-4.393-15.66-11.232-22.896-18.937-7.271-7.74-13.896-16.56-20.268-26.964l-17.17 22.716c10.727 8.604 19.799 16.956 27.719 25.561 7.957 8.604 16.561 16.02 19.404 25.56 2.771 9.54.863 15.228-2.664 31.25-3.564 16.16-13.283 50.36-18.504 64.4-5.148 13.859-7.379 16.668-12.313 18.468-4.967 1.691-14.903.72-17.17-8.06-2.195-8.892 2.053-29.05 3.961-44.496 1.943-15.443 4.393-30.96 7.489-47.34l-35.676-27c-21.06 29.809-37.801 53.21-51.08 71.5-13.213 18.18-20.09 27.973-27.756 36.937-7.597 8.892-11.736 14.399-17.604 16.09-5.868 1.656-16.02.324-17.17-6.156-1.08-6.552.612-13.176 10.584-32.652 10.04-19.691 30.888-51.12 48.852-83.81 18.03-32.762 37.04-69.05 58.14-110.81m150.7-11.304c-9.322 12.1-9.719 27.396-.898 34.2 8.855 6.804 23.543 2.52 32.867-9.576l9.504-12.996c9.287-12.1.217-14.4-8.641-21.2l-8.604-5.796c-8.82-6.804-14.939 3.276-24.23 15.372"/><path d="m2.752 170.29v7.092h91.33v-7.092z"/><path d="m87.57 177.42h7.092l-.072-36.504-7.02 4.14z"/><path d="m87.6 100.45l7.06-3.276v-93.56h-7.092z"/><path d="m107.33 193.11l3.6-5.868-16.631-16.632-5 5.04z"/><path d="m277.76 338.7l5-5-62.32-61.38-2.555 9.18z"/></g><path fill="#a02c2c" d="m234.56 79.931c0 15.948-12.03 28.872-26.857 28.872-14.832 0-26.855-12.924-26.855-28.872 0-15.948 12.02-28.872 26.855-28.872 14.832 0 26.857 12.924 26.857 28.872"/><path fill="#160379" d="m43.978 70.57c0 7.344-6.214 13.284-13.933 13.284-7.717 0-13.972-5.94-13.972-13.284 0-7.344 6.255-13.32 13.972-13.32 7.718 0 13.933 5.976 13.933 13.32"/><path fill="#a02c2c" d="m145.17 121.11c-10.439-4.03-20.664-4.644-31.28-1.872-10.584 2.808-23.509 15.228-31.681 18.468-8.136 3.132-14.292 3.24-16.739.468-2.412-2.808-2.809-10.296 2.195-17.06 5.076-6.768 15.768-17.748 27.756-23.18 12.02-5.4 30.6-8.748 43.596-9 12.924-.216 25.813 3.6 33.443 7.596 7.596 3.96 7.274 12.636 11.917 16.09 4.645 3.384 11.521.468 15.84 4.248 4.285 3.852 7.094 10.26 9.686 18.468 2.592 8.208-1.117 19.404 5.723 30.31 6.912 10.908 16.273 22.68 33.01 35.03 8.893-11.771 12.313-17.855 18.15-25.74 5.832-7.885 19.621-29.556 19.621-29.556 0 0-6.625-18.648-.9-29.27 5.795-10.548 15.229-26.388 22.535-30.744 7.309-4.392 17.244 3.02 26.03 10.04 8.783 7.06 15.551 7.416 14.939 15.3-.576 7.884-11.701 21.492-19.05 30.564-11.09 12.888-28.943 11.124-33.623 11.124-4.393 6.156-13.248 20.52-18.18 28.404-4.934 7.883-16.344 24.26-21.996 31.21-5.617 6.912-6.949 9.469-11.484 9.973-4.5.432-8.965-2.736-15.408-7.128-6.443-4.393-15.623-11.232-22.896-18.937-7.236-7.74-13.859-16.56-20.232-26.964l-17.208 22.716c10.729 8.604 19.836 16.956 27.756 25.561 7.92 8.604 16.523 16.02 19.367 25.56 2.809 9.54.9 15.229-2.627 31.25-3.564 16.16-13.283 50.36-18.504 64.4-5.148 13.859-7.381 16.668-12.313 18.468-4.967 1.728-14.94.72-17.17-8.06-2.195-8.892 2.01-29.05 3.96-44.496 1.908-15.443 4.356-30.96 7.489-47.34l-35.677-27c-21.06 29.809-37.8 53.21-51.08 71.5-13.212 18.18-20.09 28.01-27.756 36.937-7.596 8.892-11.772 14.399-17.604 16.09-5.867 1.656-16.02.324-17.17-6.156-1.08-6.552.612-13.176 10.549-32.651 10.08-19.692 30.888-51.12 48.888-83.81 17.999-32.761 37.04-69.05 58.14-110.81m150.66-11.304c-9.289 12.1-9.684 27.396-.865 34.2 8.82 6.804 23.545 2.521 32.869-9.576l9.467-12.996c9.324-12.1.217-14.4-8.604-21.2l-8.604-5.796c-8.855-6.804-14.939 3.276-24.26 15.372"/><g fill="#000080"><path d="m.988 167.63v7.092h91.33v-7.092z"/><path d="m85.81 174.75h7.092l-.072-36.504-7.02 4.14z"/><path d="m85.81 97.79l7.092-3.276v-93.56h-7.092z"/><path d="m105.53 190.45l3.601-5.868-16.597-16.632-5.04 5.04z"/><path d="m275.99 336.03l5-5-62.32-61.38-2.557 9.18z"/></g></g></svg>