<svg xmlns="http://www.w3.org/2000/svg" viewBox="0 0 238.97 181.96"><path fill="#fff" d="M 0,0 H238.97 V181.96 H0 z"/><path fill-rule="evenodd" d="m188.68 7.116c-3.127 3.065-3.993 6.487-5.587 6.835-2.554-.508-7.07-.726-9.69 1.013-.579 1.562 1.173.169 4.229 1.844-2.895 2.261-4.134-.884-7.751 3.485-1.294 1.547.559-.057 3.167.899-2.265 2.629-3.137-.671-7.136 1.158-4.331 2.721-4.601 4.133-9.174 4.338-.949.472 1.353 1.36 2.547 1.269-3.812 1.667-10.641 7.549-5.384 6.447 3.01-2.243 3.711-1.664 5.387-.93-.933 2.162-3.471.593-5.46 2.367-3.651 1.673-2.555 3.684-8.442 4-3.673.697.846 1.913 1.578 3.037-3.634.518-7.118 4.634-5.51 4.605 2.83-1.63 5.483.369 8.475-2.208-3.769 3.925-10.693 6.754-16.601 6.188-6.862.829-14.482-1.21-21.238-4.327-10.485-4.516-16.799-7.103-25.03-8.05-9.182-.507-15.527 1.559-22.461 6.445-2.907-.866-4.364-1.588-8.836-1.887-8.858-.323-16.72 3.408-22.12 10.421-5.24 4.57-8.514 15.418-8.84 19.713-1.365 5.256-1.371 10.37-8.786 18.557-5.082 5.788-12.358 8.538-11.303 17.797-.209 2.303.728 5.319 4.168 3.507 2.513-.425 11.308-8.539 13.336-11.624 4.734-6.809 10.595-15.11 14.05-23.65 2.557-5.816 2.999-7.02 4.563-15.374 1.317-5.827 6.635-12.351 16.12-10.438-1.282 1.221-1.835 2.177-3.151 4.313-5.742 12.386-2.488 21.919 1.887 26.7-.231 6.977-6.04 9.776-10.887 9.644-3.807-.145-9.994-.603-10.364 6.305-.6 6.917 1.482 9.173.913 19.616-.158 3.551-5.175 14.06-.328 16.685.022 1.856-4.04 1.135-5.706 1.299-3.293-.412-5.694.4-5.748 4.508-.768 2.901-4.196 6.719-3.598 9.704 8.325-1 16.571-3.978 21.863-11.243 2.691-6.658 2.614-20.537 3.338-29.622 1.66-6.369 10.548-3.123 14.83-3.03 5.07-.104 8.488-2.459 13.197-1.3-1.751 2.613-2.189 3.418-4.752 6.856-3.287 4.276-5.313 8.94.628 11.246 7.786 2.891 13.09 7.379 18.888 12.885 7.087 7.898 8.658 14.893 10.1 14.399 1.764 1.392 4.806-.892 4.957 3.227-.219 4.383 6.128 4.36 8.421 6.091 1.768-.109 6.322 3.18 5.791-1.232 1.275-8.152-7.89-12.867-12.05-18.435-6.287-6.78-12.13-12.202-19.09-18.19-2.191-1.843-2.338-5.05.088-6.739 7.822-6.339 8.517-15.18 14.634-20.714 4.239 1.137 9.323 4.52 14.897 5.964 8.4 2.134 16.653 6.143 25.531 5.406 6.158-.466-3.395 11.761-4.313 17.18 1.349 5.566.33 15.218-1.057 20.39-3.38 6.263-4.788 10.312-8.752 15.52-3.199 6.03 7.396 3.549 5.216 8.625-2.115 2.794-.742 3.187 2.401 4.505 3.549 1.047 8.394 3.924 11.901 4.812 4.681-5.155-8.118-10.971-7.177-16.701-.548-5.742 2.942-10.688 3.938-16.203 3.859-8.555 8.135-16.408 11.559-25.16 2.814-5.12 4.633-11.756 9.406-15.227 5.815-2.632 14.566 2.607 21.43 5.391 2.105.741 9.241 2.181 6.752 4.929-7.13 2.74-13.09 9.309-20.337 11.648-2.102.238-2.978.726-2.939 4.059-3.481.681-5.171-3.03-8.263-4.256-4.02 1.059-7.546 6.643-8.861 9.887-1.801 2.351 6.8 2.859 8.913 2.636 4.881-.006 7.98-.701 10.14-1.408 3.495-1.29 6.622-4.576 9.459-5.89 7.997-4.617 18.16-10.522 24.819-16.988 2.299-2.37 3.952-5.847-.335-8.343-3.912-3.48-10.359-7.616-16.02-10.215-3.151-2.046-3.846-1.783-7.904-4.746 2.666-3.328 3.293-11.709 3.683-15.681 4.193-6.461 5.869-14.946 9.468-23.478 3.761 1.322 9.475 2.087 13.39 1.354 6.542-.186 10 9.195 16.989 4.395 4.735-4.301-5.748-4.223-4.605-6.435 2.658-3.154 5.929 3.212 8.377 2.52 3.094-1.299 2.521-7.096-1.272-9.283-3.957-4.153-13.14-10.59-14.13-12.704-1.408-4.68-15.611-12.593-19.08-15.645-1.592-3.236-.187-6.29-1.571-9.393-.84-.767-2.793-.951-3.775.121"/></svg>