<svg xmlns="http://www.w3.org/2000/svg" viewBox="0 0 15 16" xmlns:xlink="http://www.w3.org/1999/xlink"><defs><path fill="#540" id="a" d="m315 499.36218a1 1 0 1 1 -2 0 1 1 0 1 1 2 0"/></defs><g transform="translate(-310.5-485.36)"><use xlink:href="#a" transform="matrix(1.4 0 0 1.4-127.6-199.24)"/><path fill="#800000" d="m315 497.36h7c4 0 4-4 0-4h-1.5c-.5 0-3.5-2-3.5-3v-3c0-2-1-2-3-2-2 0-3 0-3 2v8c0 1 1 2 2 2z"/><use xlink:href="#a" transform="matrix(1.4 0 0 1.4-123.6-199.24)"/><use xlink:href="#a" transform="matrix(1.4 0 0 1.4-119.6-199.24)"/><use xlink:href="#a" transform="matrix(1.4 0 0 1.4-115.6-199.24)"/></g></svg>