<svg xmlns="http://www.w3.org/2000/svg" viewBox="0 0 343.86 330.99"><g transform="translate(-156.64-326.87)"><path fill="#de8787" fill-rule="evenodd" stroke="#000" d="m157.14 489.51c0 0 85.29 41.41 122.86 48.571 37.569 7.157 77.73 7.533 111.43 0 33.701-7.533 108.57-45.714 108.57-45.714 0 0-71.34-43.06-108.57-51.43-37.23-8.373-75.54-6.836-111.43 0-35.885 6.836-122.86 48.571-122.86 48.571z"/><path d="M434.28572 492.36218A61.42857 31.428572 0 1 1 311.42858 492.36218 61.42857 31.428572 0 1 1 434.28572 492.36218" transform="translate(-37.14)"/><g stroke="#4a4f4f"><g fill="#a40" fill-rule="evenodd" stroke-width="16.7"><path d="m320 495.22l125.71 154.29"/><path d="m320 489.51l125.71-154.29"/></g><g fill="#4d4d4d" stroke-width="12.62"><path d="m-68.33 549.48h60.02v21.747h-60.02z" transform="matrix(.64708-.76242.80143.59809 0 0)"/><path d="m723.31-89.71h60.02v21.747h-60.02z" transform="matrix(.64708.76242.80143-.59809 0 0)"/></g></g></g></svg>