<svg xmlns="http://www.w3.org/2000/svg" viewBox="0 0 289.64 289.64"><g transform="translate(-152.32-338.97)"><rect width="289.64" x="152.32" y="338.97" fill="#036" rx="15" height="289.64"/><g fill="#eee" transform="matrix(.6943 0 0 .74065 64.47 207.79)"><path d="m276.28 279.85c0 17.16-13.907 31.06-31.06 31.06-17.16 0-31.06-13.907-31.06-31.06 0-17.16 13.907-31.06 31.06-31.06 17.16 0 31.06 13.907 31.06 31.06" transform="translate(1.429-1.429)"/><rect width="59.05" x="-60.716" y="407.51" rx="8.403" height="132.33" ry="8.437" transform="rotate(-46.834)"/><rect width="26.429" x="-128.07" y="363.82" rx="8.435" height="80" ry="8.405" transform="rotate(-43.388)"/><rect width="26.811" x="-71.902" y="-487.41" rx="8.391" height="81.24" ry="8.45" transform="matrix(-.67101.74145-.74746-.6643 0 0)"/><rect width="36.37" x="545.58" y="-22.955" rx="8.409" height="110.11" ry="8.407" transform="matrix(.69576.71827-.69297.72097 0 0)"/><rect width="57.14" x="-109.03" y="410.64" rx="8.306" height="28.571" transform="rotate(-45)"/><rect width="49.29" x=".226" y="406.76" rx="8.347" height="30.714" ry="8.388" transform="rotate(-47.197)"/><rect width="35" x="-27.4" y="590.72" rx="8.415" height="132.86" ry="8.425" transform="rotate(-45.533)"/><rect width="30.714" x="-450.83" y="413.13" rx="8.167" height="72.857" ry="8.697" transform="rotate(-83.261)"/></g></g></svg>