<svg xmlns="http://www.w3.org/2000/svg" viewBox="0 0 100 83.101" height="83.1" enable-background="new 0 0 100 83.101"><path fill="#556fc3" d="m0 .176h100v82.925h-100z"/><path d="m0 0l15.868 16.397 6.093-5.53-5.517-10.817z"/><path d="m66.832 44.58c3 .834 6.223-.882 7.079-3.962.822-3.03-.929-6.218-3.951-7.08l-2.354-.662-3.046 11.02z"/><path d="m67.978 33.06l-18.995-5.412c-1.249-.329-2.503.429-2.847 1.692l-1.785 6.42c-.351 1.261.329 2.555 1.609 2.934l18.996 5.354z"/><path d="m72.69 51.773c-1.448-1.393-3.249-2.499-5.35-3.083l-23.03-6.515-14.15-25.373c-.745-1.311-1.944-2.354-3.496-2.783-3.103-.882-6.327.961-7.174 4.098-.423 1.489-.223 3.01.448 4.295l17.701 31.38c0 0 1.448 2.353 5.095 3.563l32.18 9.12 14.922 15.315c.496.524 1.145.93 1.92 1.155 2.247.63 4.599-.728 5.256-2.975.425-1.594-.081-3.267-1.201-4.302z"/><path d="m89.86 54.11l3.345 4.423 6.798-7.503-5.741-3.233c.541-4.067-1.952-8.01-5.951-9.146-4.399-1.236-8.973 1.342-10.196 5.79-1.249 4.471 1.326 9.07 5.728 10.309 2.09.605 4.219.275 6.02-.64"/></svg>