<svg xmlns="http://www.w3.org/2000/svg" viewBox="0 0 340.4894 378.98999" enable-background="new 0 0 455.148 454.788"><path fill="#fff" d="M 0,0 H340.49 V378.99 H0 z"/><g fill-rule="evenodd"><g fill="#7f7f7f"><path d="m113.35 98.55c3.247-2.678 10.783-10.624 23.13-24.363 12.298-13.828 28.754-32.749 50.06-57.6 13.944 22.21 24.21 38.24 31.786 48.773 7.405 10.404 11.519 14.97 12.515 13.697 7.88-7.902 14.509-14.619 20.225-20.501 5.63-5.883 10-10.712 13.467-14.663 17.322 24.408 31.7 44.514 44.3 61.5 12.384 16.858 22.22 29.632 29.839 39.03l-47.16-43.9c-3.897 11.238-10.262 17.03-19.271 17.56-9.269.307-23.342-12.292-34.688-14.619-11.346-2.327-22.649 4.829-32.74.966-10.307-4.083-18.274-20.238-27.931-24.408-9.7-4.127-19.531-4.127-29.839 0-11.216 6.145-22.432 12.335-33.691 18.524"/><path d="m115.18 103.65c-5.725 2.7-10.584 6.192-14.869 10.62-4.319 4.392-8.459 7.812-10.619 15.696-2.269 7.812-3.02 18-2.557 30.996h-53.5c1.836 6.768 5.04 12.06 9.756 16.16 4.645 4.03 10.404 6.768 18.252 8.06 7.776 1.26 20.09 1.116 28.05-.864 7.92-2.16 14.15-6.12 19.08-11.88l25.06 22.07c-10.368 10.439-17.82 19.223-22.896 27.18-5.148 7.74-9 11.809-7.236 19.547 1.764 7.74 7.199 14.328 17.855 26.713 10.62 12.385 25.561 27.684 45.4 46.729-25.27 11.447-46.692 20.375-65.38 27.611-18.648 7.129-33.19 13.5-45.864 14.832-12.816 1.115-23.363-6.66-30.13-7.633-6.804-.863-10.152-.756-10.188 2.125.036 2.844 1.908 12.1 10.188 14.436 8.243 2.125 10.368 7.561 38.844-1.332 28.692-9.145 89.89-37.04 130.82-52.31 40.717-15.266 77.4-27.9 111.85-38.484l-8.533-3.816c-6.119 1.729-17.244 4.932-33.516 9.756-16.416 4.787-37.512 11.16-64.12 19.12-5.977-8.639-11.305-15.12-16.13-19.979-4.932-4.861-9-7.777-12.744-8.893-10.367-11.629-16.883-20.12-19.547-25.92-2.593-5.76 1.655-6.229 3.42-8.496 1.512-2.305 1.08-1.045 5.939-5.508 4.859-4.824 17.496-15.697 22.931-22.07 5.256-6.371 9.145-9.396 8.893-15.301-.324-5.975-3.852-12.491-10.584-19.943h58.14l3.852 16.13 4.248-14.868 27.14-2.952-25.06-3.816-7.201-15.3-2.986 14-66.64-.432c-12.24-14.688-23.18-27-33.12-37.37-9.972-10.44-18.648-18.504-26.316-24.624"/><path d="m75.38 62.971c14.885 0 26.965 12.08 26.965 26.964 0 14.884-12.08 26.964-26.965 26.964-14.884 0-26.963-12.08-26.963-26.964 0-14.884 12.08-26.964 26.963-26.964"/></g><g fill="#782121"><path d="m110.24 101.53c-5.724 2.7-10.584 6.192-14.868 10.62-4.32 4.356-8.46 7.884-10.619 15.732-2.269 7.812-3.03 18-2.557 30.996h-53.5c1.836 6.804 5.04 11.988 9.756 16.13 4.645 4.03 10.404 6.768 18.252 8.06 7.776 1.26 20.09 1.116 28.05-.864 7.92-2.16 14.15-6.12 19.08-11.88l25.06 22.07c-10.367 10.441-17.819 19.225-22.896 27.18-5.147 7.777-9 11.701-7.235 19.549 1.799 7.703 7.092 14.4 17.819 26.748 10.656 12.42 25.524 27.611 45.43 46.691-25.27 11.449-46.692 20.377-65.38 27.613-18.647 7.092-33.19 13.57-45.863 14.867-12.816 1.045-23.364-6.695-30.13-7.668-6.804-.973-10.151-.721-10.188 2.123.036 2.846 1.908 12.1 10.188 14.438 8.244 2.195 10.369 7.596 38.844-1.297 28.693-9.107 89.89-37.12 130.82-52.34 40.752-15.264 77.33-27.9 111.82-38.484l-8.496-3.816c-6.119 1.729-17.244 4.934-33.516 9.758-16.416 4.787-37.512 11.158-64.12 19.12-5.977-8.641-11.305-15.12-16.13-19.98-4.932-4.859-9-7.775-12.744-8.893-10.439-11.664-16.775-20.02-19.548-25.883-2.735-5.797 1.765-6.191 3.384-8.533 1.477-2.303 1.152-1.043 5.977-5.508 4.859-4.824 17.496-15.695 22.931-22.07 5.256-6.373 9.145-9.396 8.893-15.301-.324-5.976-3.816-12.492-10.621-19.944h58.18l3.816 16.13 4.248-14.868 27.18-2.952-25.06-3.816-7.201-15.3-2.988 14-66.67-.432c-12.275-14.688-23.11-27-33.08-37.37-9.972-10.44-18.649-18.504-26.317-24.624"/><path d="m70.58 60.811c14.884 0 26.964 12.08 26.964 26.964 0 14.884-12.08 26.964-26.964 26.964-14.884 0-26.964-12.08-26.964-26.964 0-14.884 12.08-26.964 26.964-26.964"/></g><path fill="#17057a" d="m110.44 92.71c3.247-2.766 10.783-10.624 23.13-24.408 12.298-13.828 28.754-32.749 50.06-57.6 13.944 22.17 24.21 38.32 31.786 48.817 7.405 10.448 11.519 14.882 12.515 13.653 7.883-7.902 14.509-14.619 20.225-20.501 5.63-5.883 10-10.755 13.467-14.619 17.322 24.408 31.7 44.514 44.3 61.5 12.387 16.858 22.22 29.632 29.839 39.03l-47.16-43.944c-3.897 11.326-10.262 17.03-19.271 17.604-9.182.351-23.297-12.38-34.646-14.663-11.388-2.327-22.649 4.829-32.782.966-10.22-4.127-18.232-20.15-27.889-24.363-9.744-4.127-19.486-4.127-29.881 0-11.216 6.145-22.432 12.335-33.691 18.524"/><g fill="#3d258e"><path d="m159.55 58.55l22.13-28.315 38.541 56.631c-9.224-.351-17.191-2.371-24.08-5.883-7.02-3.644-11.174-11.897-17.322-15.628-6.235-3.731-12.427-6.06-19.27-6.804"/><path d="m232.74 87.83l27.933-30.25 21.18 30.25c-6.584 7.243-12.732 10.931-19.271 11.721-6.496.615-14.292-5.883-19.228-7.814-5.068-2.063-8.447-3.205-10.611-3.907"/></g></g></svg>