<svg xmlns="http://www.w3.org/2000/svg" viewBox="0 0 16 10.39"><path fill="#fff" fill-rule="evenodd" d="m.483 3.02l.976 4.585 3.804 1.998 5.655-.059 3.396-1.527 1.296-5.438-2.311-1.488-5.529-.53-6.239.996z"/><path fill="#666" d="m14.884 7.01c-.645 1.127-3.482 1.976-6.885 1.976-3.401 0-6.238-.848-6.885-1.974-.051.126-.081.261-.081.406 0 .485.305.961.7 1.232.395.271.908.517 1.526.697 1.236.36 2.893.589 4.723.589 1.83 0 3.536-.281 4.772-.64.618-.18 1.184-.392 1.578-.663.395-.271.633-.73.633-1.215 0-.146-.03-.282-.082-.408"/><g fill="none" stroke="#666" stroke-linejoin="round" stroke-linecap="round" stroke-width=".853"><path d="m.467 2.618l.984 5.06"/><path d="m15.541 2.618l-.927 5.06"/></g><path fill="#1a1a1a" stroke="#fff" stroke-width=".057" d="m10.695 7.771v2.157c0 .24-.309.433-.694.433h-3.703c-.384 0-.694-.193-.694-.433v-2.157c.469-2.346 5.11-2.02 5.091 0z"/><g stroke-linejoin="round" stroke-width=".31"><path stroke="#000" d="m13.02.937l-.502-.07-.998 2.168.018.031zm-3.06-.567l-.401-.036-.153 2.437.053.031zm-6.759.567l.502-.07.998 2.168-.019.031zm3.06-.567l.401-.036.153 2.437-.053.031z"/><path fill="#008000" stroke="#008000" d="m8.097 2.741c-1.804.023-3.623.192-5.358.693 2.047.503 4.176.603 6.28.543 1.534-.061 3.078-.212 4.556-.627-1.781-.47-3.638-.615-5.478-.609z"/></g><path fill="#666" d="m7.999 0c-2.102 0-4 .237-5.423.638-.71.2-1.299.437-1.752.74-.453.303-.824.719-.824 1.26 0 .541.371.957.824 1.26.453.303 1.042.541 1.752.741 1.42.401 3.321.638 5.423.638 2.102 0 4-.237 5.423-.638.71-.2 1.301-.439 1.754-.741.453-.303.824-.719.824-1.26 0-.541-.371-.957-.824-1.26-.453-.303-1.044-.539-1.754-.74-1.42-.401-3.321-.638-5.423-.638m0 1.064c2.02 0 3.846.235 5.125.597.64.181 1.141.397 1.443.598.302.201.35.338.35.379 0 .041-.049.179-.35.381-.302.201-.803.418-1.443.598-1.279.361-3.108.597-5.125.597-2.02 0-3.844-.235-5.124-.597-.64-.181-1.143-.397-1.445-.598-.302-.201-.348-.34-.348-.381 0-.041.047-.178.348-.379.302-.201.805-.418 1.445-.598 1.279-.361 3.106-.597 5.124-.597"/></svg>