<svg viewBox="0 0 330.55416 250.32263" enable-background="new 0 0 455.148 454.788" width="285.43" xmlns="http://www.w3.org/2000/svg" height="191.84"><path fill="#fff" d="m-28.831 0h372.43v250.32h-372.43z"/><g fill-rule="evenodd"><g fill="#7f7f7f"><path d="m342.16 181.26c-3.131.875-7.366.737-12.704-.415-5.383-1.197-10.456-7.094-19.5-6.678-9.31.321-22.457 8.66-35.16 8.66-12.883-.229-27.354-9.123-40.5-9.08-13.1.045-25.01 9.261-37.587 9.49-12.795.046-25.544-8.478-38.07-8.66-12.705-.322-24.75 7.554-36.617 7.463-11.868-.184-21.97-8.755-33.706-8.293-11.912.416-24.971 9.813-36.618 10.273-11.647.185-22.367-8.568-32.691-8.66-10.368-.186-22.279 6.402-29.29 7.877-7.06 1.428-11.515 1.383-13.191.368v24.418c1.677 1.015 6.132 1.06 13.191-.367 7.01-1.475 18.926-8.06 29.29-7.879 10.324.093 21.04 8.846 32.691 8.662 11.647-.554 24.706-9.767 36.618-10.229 11.735-.368 21.838 8.02 33.706 8.248 11.868.09 23.912-7.786 36.617-7.464 12.531.183 25.28 8.706 38.07 8.661 12.572-.277 24.484-9.354 37.587-9.445 13.146 0 27.617 8.753 40.5 9.03 12.705 0 25.853-8.338 35.16-8.661 9.04-.414 14.12 5.481 19.5 6.679 5.338 1.152 9.573 1.29 12.704.415z"/><path d="m342.16 222.12c-3.131.877-7.366.737-12.704-.412-5.383-1.2-10.456-7.097-19.5-6.682-9.31.322-22.457 8.661-35.16 8.661-12.883-.23-27.354-9.121-40.5-9.08-13.1.093-25.01 9.169-37.587 9.446-12.795.045-25.544-8.479-38.07-8.663-12.705-.23-24.75 7.603-36.617 7.511-11.868-.186-21.97-8.754-33.706-8.294-11.912.415-24.971 9.813-36.618 10.273-11.647.229-22.367-8.661-32.691-8.706-10.368-.186-22.279 6.404-29.29 7.879-7.06 1.334-11.515 1.472-13.191.412v24.418c1.677 1.016 6.132 1.061 13.191-.367 7.01-1.475 18.926-8.06 29.29-7.879 10.324.093 21.04 8.847 32.691 8.661 11.647-.46 24.706-9.858 36.618-10.273 11.735-.46 21.838 8.108 33.706 8.294 11.868-.047 23.912-7.648 36.617-7.512 12.531.093 25.28 8.801 38.07 8.709 12.572-.23 24.484-9.446 37.587-9.491 13.146-.045 27.617 8.846 40.5 9.08 12.705 0 25.853-8.339 35.16-8.661 9.04-.415 14.12 5.481 19.5 6.68 5.338 1.152 9.573 1.291 12.704.414z"/></g><path fill="#3d258e" d="m337.8 176.7c-3.177.97-7.28.784-12.662-.367-5.47-1.245-10.456-7.05-19.544-6.728-9.309.323-22.457 8.662-35.16 8.662-12.884-.274-27.354-9.03-40.501-9.03-13.1.093-25.02 9.168-37.588 9.445-12.794.045-25.544-8.476-38.07-8.66-12.706-.322-24.75 7.557-36.618 7.463-11.691-.229-22.06-8.616-33.662-8.248-11.912.463-24.971 9.676-36.618 10.229-11.735.185-22.368-8.568-32.735-8.662-10.455-.184-22.19 6.404-29.25 7.879-7.06 1.338-11.515 1.476-13.191.415v24.419c1.676 1.059 6.132.922 13.191-.415 7.06-1.475 18.794-8.06 29.25-7.879 10.368.093 21 8.846 32.735 8.66 11.647-.459 24.706-9.905 36.618-10.228 11.603-.46 21.97 8.109 33.662 8.293 11.868.094 23.912-7.738 36.618-7.508 12.529.183 25.279 8.705 38.07 8.661 12.573-.277 24.485-9.354 37.588-9.446 13.147-.044 27.617 8.847 40.501 9.08 12.704 0 25.853-8.342 35.16-8.663 9.09-.416 14.07 5.482 19.544 6.68 5.382 1.152 9.485 1.336 12.662.368z"/><g fill="#8f3e3e"><path d="m133.09 168.27l100.9-53.857c-7.984-17.415-13.456-30.545-16.764-39.897-3.354-9.307-4.767-11.38-2.869-15.803 1.94-4.561-.75-5.252 14.03-11.288 14.822-6.219 58.896-24.325 73.37-25.16 14.03-.691 13.632 14.789 11.25 20.13-2.56 5.067-15.706 6.542-25.677 10.458-10.06 3.87-21.309 8.201-34.1 12.992l46.23 101.63c-5.956 5.02-13.853 7.05-24.528 6.266-10.809-1.06-25.412-11.381-38.868-11.426-13.589.184-28.765 11.471-41.12 11.842-12.441-.049-22.06-9.999-32.427-11.01-10.365-1.013-20.12.691-29.424 5.114"/><path d="m314.34 80.37c15.561 0 28.19 13.189 28.19 29.44 0 16.25-12.63 29.438-28.19 29.438-15.562 0-28.19-13.188-28.19-29.438 0-16.251 12.631-29.44 28.19-29.44"/><path d="m64.93 170.25c-11.956-2.212-24.13-5.573-37.37-10.273-13.323-4.931-36.04-11.335-41.43-17.784-5.382-6.451-1.456-19.812 9.397-20.363 10.853-.691 32.603 9.214 55.02 17.09 22.323 7.878 47.911 17.877 77.955 30.18-3.705 2.027-8.603 2.627-14.867 1.798-6.353-1.061-14.383-6.911-22.544-7.097-8.207-.138-16.81 2.074-26.16 6.45"/><path d="m128.72 163.71l100.94-53.858c-7.939-17.416-13.543-30.545-16.808-39.898-3.354-9.307-4.765-11.38-2.868-15.803 1.941-4.561-.75-5.252 14.03-11.287 14.778-6.266 58.984-24.23 73.41-25.11 14.12-.737 13.545 14.835 11.207 20.09-2.56 5.113-15.707 6.403-25.677 10.458-10.1 3.87-21.22 8.2-34.06 12.992l46.19 101.63c-5.955 5.113-13.853 7.096-24.529 6.311-10.853-1.057-25.324-11.377-38.823-11.426-13.456.049-28.809 11.566-41.12 11.795-12.353-.047-22.15-9.997-32.471-11.01-10.366-1.017-20.12.687-29.425 5.112"/><path d="m310.08 75.76c15.562 0 28.19 13.188 28.19 29.439 0 16.251-12.629 29.439-28.19 29.439-15.561 0-28.19-13.188-28.19-29.439 0-16.251 12.629-29.439 28.19-29.439"/><path d="m60.61 165.69c-11.956-2.212-24.13-5.618-37.37-10.229-13.324-4.881-36.04-11.425-41.43-17.829-5.382-6.588-1.456-19.764 9.398-20.363 10.896-.599 32.514 9.08 54.97 17.09 22.323 7.926 47.867 17.831 78 30.22-3.706 2.027-8.603 2.672-14.868 1.75-6.353-1.061-14.382-6.912-22.544-7.095-8.206-.139-16.809 2.073-26.16 6.449"/></g><path fill="#17057a" d="m337.8 217.56c-3.177.874-7.28.737-12.662-.415-5.47-1.197-10.456-7.097-19.544-6.682-9.309.322-22.457 8.661-35.16 8.661-12.884-.275-27.354-9.03-40.501-9.03-13.1.093-25.02 9.169-37.588 9.444-12.794.047-25.544-8.476-38.07-8.661-12.706-.323-24.75 7.556-36.618 7.464-11.691-.23-22.06-8.616-33.662-8.247-11.912.46-24.971 9.674-36.618 10.229-11.735.183-22.368-8.571-32.735-8.663-10.455-.183-22.19 6.404-29.25 7.879-7.06 1.43-11.515 1.382-13.191.369v24.418c1.676 1.013 6.132 1.061 13.191-.369 7.06-1.476 18.794-8.06 29.25-7.879 10.368.092 21 8.846 32.735 8.663 11.647-.555 24.706-9.769 36.618-10.229 11.603-.369 21.97 8.02 33.662 8.247 11.868.092 23.912-7.787 36.618-7.464 12.529.185 25.279 8.708 38.07 8.661 12.573-.275 24.485-9.354 37.588-9.444 13.147 0 27.617 8.754 40.501 9.03 12.704 0 25.853-8.339 35.16-8.661 9.09-.323 14.07 5.481 19.544 6.727 5.382 1.152 9.485 1.337 12.662.37z"/></g></svg>