<svg xmlns="http://www.w3.org/2000/svg" viewBox="0 0 492.14 449.9"><path fill="#fff" d="M 0,0 H492.14 V449.9 H0 z"/><g transform="translate(.177-.592)"><g fill-rule="evenodd"><path fill="#f00" d="m94.38 101.33c-2.15 3.225-16.425 37.33-15.768 39.42.657 2.09-2.442 5.858 3.688 10.507 6.292 4.772 116.32 41.723 123.17 41.814 6.597.091 19.71-2.329 31.18-7.167 11.468-4.838 25.444-11.11 37.628-21.86 12.184-10.751 25.504-27.3 35.478-42.645 9.974-15.35 20.19-35.896 24.369-49.45 4.181-13.558 4.181-22.696.717-31.894-3.464-9.198-12.901-17.56-21.502-23.294-8.601-5.734-15.41-9.855-30.1-11.11-14.693-1.254-39.958.06-58.06 3.584-18.1 3.524-35.24 9.02-50.53 17.56-15.29 8.541-27.714 20.845-41.21 33.686-13.498 12.841-26.519 28.908-39.778 43.36"/><path fill="#007fff" d="m185.14 212.04c5.237 10.474 9.291 22.13 15.711 31.422 6.42 9.291 11.868 16.05 22.806 24.327 10.939 8.278 37.03 28.03 42.825 25.34 5.481-2.543 158.51-62.34 164.46-64.36 5.772-1.969 8.193-20.526 9.122-29.901.929-9.376-.296-17.485-3.548-26.354-3.252-8.869-9.545-17.949-15.964-26.861-6.42-8.911-14.11-18.16-22.553-26.607-8.447-8.447-19.13-17.78-28.13-24.07-8.996-6.293-20.568-12.839-25.847-13.684-5.279-.845-1.943 1.351-5.828 8.616-3.885 7.264-11.11 24.791-17.485 34.969-6.377 10.178-13.338 17.78-20.779 26.1-7.44 8.321-14.63 16.867-23.864 23.824-9.233 6.957-22.607 13.469-31.536 17.918-8.929 4.45-13.02 6.122-22.04 8.78-9.02 2.658-21.382 4.778-32.07 7.167"/></g><path fill="#fff" d="m146.58 76.997c.005 6.433-5.636 11.651-12.597 11.651-6.96 0-12.602-5.217-12.597-11.651-.005-6.433 5.636-11.651 12.597-11.651 6.96 0 12.602 5.217 12.597 11.651" transform="matrix(2.81642 0 0 2.81642-41.803-40.09)"/><path d="m425.76 447.31c-1.564-1.936-10.637-19.12-20.16-38.18-15.07-30.16-34.422-63.14-49.5-84.35-7.356-10.349-24.271-17.07-55.3-21.991-38.14-6.04-50.842-10.572-72.02-25.682-20.12-14.358-29.01-24.17-40.768-45.01-7.875-13.954-8.875-14.714-17.305-13.162-5.676 1.045-14.868 7.408-25.14 17.403-17.08 16.621-20.32 17.417-9.914 2.44 12.905-18.574 19.601-24.13 31.383-26.02 6.393-1.027 14.431-3.647 17.862-5.822 3.431-2.175 10.84-3.954 16.465-3.954 26.16 0 69.52-22.51 92.63-48.09 12.843-14.215 33.852-46.38 41.32-63.27 3.484-7.877 7.373-12.567 10.42-12.567 9.864 0 41.12 21.712 60.26 41.861 25.359 26.697 37.44 50.956 37.36 75.02-.072 21.765-5.375 34.752-15.09 36.946-4.064.918-23.979 7.872-44.26 15.454-37.34 13.963-49.5 17.08-39.1 10.01 3.055-2.075 20.717-8.721 39.25-14.768 39.58-12.916 47.64-18.667 51.997-37.1 2.69-11.382 2.367-15.504-2.184-27.837-11.746-31.834-41.685-65.721-74.79-84.65l-15.743-9-11.153 23.09c-14.351 29.706-49.08 69.65-70.14 80.68-10 5.237-53.2 19.848-58.837 19.897-12.655.111-13.162 4.336-2.75 22.904 5.518 9.84 13.621 21.19 18.01 25.22 21.371 19.647 56.53 37.646 79.03 40.456 47.557 5.94 54.639 7.988 62.35 18.03 14.455 18.828 34.497 52.955 52.86 90.01 21.397 43.18 18.322 41.754 52.805 24.434 25.715-12.916 17.18-2.976-9.469 11.03-20.711 10.883-25.973 12.02-30.381 6.565m11.352-16.83c-5.286-6.607-21.19-41.827-19.599-43.41.862-.862 6.708 8.923 12.993 21.743 10.743 21.918 13.168 29.872 6.606 21.67m-25.533-53.44c-1.859-1.859-3.38-4.83-3.38-6.602 0-4.296-32.95-57.13-41.2-66.06-14.897-16.13-26.398-31.797-26.398-35.963 0-3.442 1.651-2.904 7.297 2.379 6.723 6.291 23.684 29.417 23.684 32.29 0 .683 4.541 7.192 10.09 14.463 8.668 11.356 36.654 62.871 34.15 62.871-.48 0-2.394-1.521-4.253-3.38m-377.9-29.736c-11.54-5.682-33.859-26.359-33.859-31.368 0-1.918 5.386.867 11.97 6.189 15.435 12.477 35.12 24.704 44.23 27.469 6.579 1.997 6.357 2.192-2.685 2.356-5.422.098-14.266-1.993-19.653-4.645m8.469-11.837c-2.279-1.441-3.41-3.353-2.514-4.25.896-.896 3.233.302 5.192 2.663 4.063 4.896 3.284 5.357-2.678 1.586m-42.33-26.586c0-1.298 10.525-13.42 23.389-26.938 12.864-13.518 32.31-36.496 43.21-51.06 20.285-27.1 29.16-36.599 29.16-31.22 0 1.647-1.184 3.727-2.632 4.622-1.448.895-13.805 16.368-27.46 34.386-27.896 36.808-24.74 33.16-48.21 55.765-9.599 9.246-17.453 15.748-17.453 14.45m341.62-16.485c-10.854-11.917-17.06-29.442-7.668-21.645 4.934 4.095 16.313 25.09 14.553 26.847-.618.618-3.717-1.722-6.886-5.202m-50.769-10.807c8.804-5.126 35.855-13.601 35.855-11.233 0 3.122-27.48 14.327-34.877 14.22-5.444-.078-5.529-.337-.978-2.987m18.625-78.27c-10.138-10.138-14.656-22.863-8.118-22.863 1.549 0 2.816 1.17 2.816 2.6 0 6.138 15.371 20.09 25.463 23.11 12.502 3.746 12.173 8.08-.613 8.08-6.251 0-11.614-2.999-19.549-10.934m44.627 2.063c0-.557 6.725-10.37 9.688-16.988 5.971-13.336 3.76-21.325-6.57-32.355-10.02-10.694-19.859-13.194-31.99-8.125-25.452 12.561-15.842 4.486-6.629-3.788 7.651-7.128 24.309-7.876 36.38-1.633 16.15 8.349 23.34 34.538 14.186 51.641-2.464 4.604-15.07 14.207-15.07 11.248m-268.98-31.31c-18.18-34.584-9.941-62.56 31-105.2 23.769-24.758 53.11-45.31 78.43-54.927 34.738-13.2 73.41-16.946 100.49-9.736 31.428 8.367 43.33 20.664 45.21 46.733 1.153 15.934.316 18.873-13.13 46.13-14.634 29.664-30.836 50.553-51.975 67.01-11.767 9.161-11.755 9.134 3.811-9.05 23.24-27.15 35.451-44.955 45.4-66.21 16.197-34.613 10.587-55.605-18.792-70.32-15.395-7.711-19.21-8.423-43.625-8.152-49.787.553-93.25 20.7-135.52 62.823-27.311 27.21-41.91 51.741-41.91 70.41 0 6.149 1.148 11.89 2.552 12.757 1.404.867 1.89 4.109 1.081 7.202-.809 3.094.656 8.871 3.255 12.838 2.599 3.967 4.331 9.02 3.848 11.228-.483 2.208-5.03-3.887-10.111-13.545m88.93 13.321c-7.287-1.994-16.12-5.639-19.638-8.1-3.514-2.461-8.958-4.494-12.1-4.518-6.806-.051-14.711-4.569-12.268-7.01 2.149-2.149 32.653 6.522 34.722 9.871.832 1.346 8.46 4.467 16.951 6.935 15.316 4.452 19.98 7.469 10.51 6.798-2.711-.192-10.891-1.981-18.18-3.974m-69.836-23.84c-2.324-1.502-2.957-2.73-1.408-2.73 1.549 0 4.718 1.229 7.04 2.73 2.324 1.502 2.957 2.73 1.408 2.73-1.549 0-4.718-1.229-7.04-2.73m320.04 85.06c.418.717-13.498 14.932-16.13 22.22-2.628 7.287-4.061 10.273.358 21.502 4.42 11.229 12.423 26.459 26.16 45.871 13.737 19.411 50.35 62.42 56.26 70.6 5.913 8.183-10.751-9.258-20.785-21.502-10.03-12.244-29.817-35.36-40.687-51.963-12.143-16.604-20.655-36.417-25.55-47.664-10.748-11.247-24.278-26.883-23.86-27.06 1.436-.434 20.72 21.504 22.452 20.01 1.732-1.493 1.719-7.01 4.526-13.345 2.807-6.331 16.83-19.38 17.248-18.664"/></g></svg>