<svg viewBox="0 0 381.20159 342.59891" enable-background="new 0 0 455.148 454.788" width="381.2" xmlns="http://www.w3.org/2000/svg" height="342.6"><g transform="translate(-45.841-61.52)"><path fill="#fff" d="m45.841 61.52h381.2v342.6h-381.2z"/><g fill-rule="evenodd"><g fill="#7f7f7f"><path d="m66.787 258.02c0 12.36 10.248 22.379 22.89 22.379 12.595 0 22.843-10.02 22.843-22.379 0-12.321-10.248-22.339-22.843-22.339-12.641 0-22.89 10.02-22.89 22.339"/><path d="m289.02 155.49c10.404-4.104 20.736-4.644 31.29-1.908 10.547 2.736 23.471 15.192 31.68 18.468 8.1 3.06 14.15 3.276 16.74.504 2.447-2.844 2.736-10.332-2.197-17.06-5.219-6.876-15.768-17.748-27.756-23.18-12.06-5.4-30.707-8.82-43.596-9-12.996-.252-25.813 3.564-33.443 7.56-7.596 4.03-7.309 12.492-11.916 16.09-4.752 3.348-11.557.468-15.84 4.284-4.32 3.852-7.128 10.188-9.684 18.468-2.593 8.172 1.01 19.368-5.724 30.28-6.949 10.836-18.504 22.21-35.24 34.56-8.856-11.772-15.12-22.356-18.937-32.18-3.815-9.864-2.269-15.588-3.96-26.496-1.8-11.124-.9-28.19-6.588-38.844-5.939-10.656-18.252-20.736-27.756-24.12-9.612-3.348-22.07-1.656-28.62 4.248-6.588 5.904-10.8 19.908-10.152 30.78.648 10.692 6.05 24.552 14.11 33.12 8.1 8.424 24.588 11.772 33.912 17.532 9.03 5.652 13.572 8.532 20.699 16.56 7.164 8.136 16.309 24.16 21.996 31.25 5.508 6.84 6.912 9.359 11.448 9.936 4.464.432 8.964-2.809 15.444-7.092 6.372-4.5 15.624-11.232 22.896-18.937 7.199-7.776 13.896-16.632 20.232-27l17.17 22.752c-10.729 8.567-19.836 16.956-27.721 25.56-7.992 8.568-16.488 15.984-19.368 25.561-2.88 9.432-.899 15.264 2.628 31.25 3.564 16.09 13.248 50.33 18.503 64.4 5.04 13.68 7.381 16.775 12.313 18.467 4.932 1.729 14.867.613 17.17-8.06 2.125-8.928-2.02-29.09-3.959-44.496-1.98-15.408-4.43-30.996-7.488-47.34l35.676-27c21.06 29.807 37.764 53.13 51.08 71.5 13.211 18 20.05 28.04 27.756 36.936 7.523 8.891 11.771 14.256 17.604 16.09 5.904 1.656 15.84.252 17.17-6.156 1.152-6.553-.791-13.283-10.547-32.688-10.152-19.729-30.889-51.12-48.889-83.77-18.03-32.762-37.04-69.05-58.14-110.81m-186.16-34.34c-10.115 7.704-11.916 31.21-.107 49.03 11.771 17.82 32.688 23.256 42.804 15.552 10.08-7.704 10.8-29.448-.972-47.27-11.809-17.856-31.645-25.02-41.725-17.316m37.476 73.8c1.404.072 3.132-.108 4.788-.684 1.692-.648 3.78-1.188 5.437-2.736 1.584-1.548 2.987-3.636 4.211-6.408-.324 2.448 0 5.364.685 9.144.684 3.636 1.872 7.956 3.563 12.96-2.484-2.556-5.22-4.788-8.352-6.84-3.204-2.088-6.515-3.852-10.332-5.436"/><path d="m199.63 114.3c0 15.948 12.02 28.872 26.856 28.872 14.832 0 26.855-12.924 26.855-28.872 0-15.948-12.02-28.872-26.855-28.872-14.831 0-26.856 12.924-26.856 28.872"/></g><g fill="#160379"><path d="m283.33 152.43c10.332-4.104 20.699-4.644 31.25-1.908 10.656 2.736 23.4 15.192 31.717 18.468 8.207 3.096 14.11 3.204 16.74.468 2.447-2.844 2.734-10.332-2.197-17.03-5.219-6.84-15.768-17.82-27.756-23.22-12.06-5.436-30.707-8.748-43.596-8.964-12.961-.252-25.92 3.564-33.48 7.56-7.668 4.03-7.236 12.492-11.879 16.09-4.717 3.276-11.629.432-15.876 4.248-4.32 3.744-7.129 10.224-9.684 18.468-2.593 8.208 1.01 19.332-5.725 30.31-7.02 10.944-18.432 22.14-35.21 34.561-8.928-11.772-15.01-22.356-18.937-32.19-3.779-9.936-2.375-15.588-3.996-26.532-1.799-11.02-.899-28.26-6.588-38.808-5.939-10.62-18.252-20.808-27.756-24.16-9.611-3.276-22.07-1.656-28.619 4.284-6.625 5.904-10.692 19.944-10.117 30.744.685 10.656 5.977 24.624 14.08 33.16 8.101 8.424 24.588 11.772 33.912 17.532 9.04 5.652 13.572 8.532 20.7 16.56 7.164 8.136 16.272 24.16 22.03 31.25 5.508 6.84 6.912 9.359 11.448 9.936 4.536.432 8.892-2.809 15.407-7.092 6.373-4.5 15.625-11.232 22.896-18.936 7.236-7.776 13.861-16.632 20.267-27l17.17 22.716c-10.729 8.604-19.836 16.991-27.758 25.597-8.099 8.566-16.451 15.982-19.367 25.559-2.881 9.432-.9 15.264 2.627 31.25 3.564 16.09 13.248 50.33 18.505 64.37 5.111 13.752 7.416 16.668 12.348 18.467 4.932 1.693 14.867.684 17.17-8.03 2.123-8.855-2.02-29.16-3.961-44.531-1.979-15.518-4.428-30.926-7.486-47.34l35.676-26.963c21.06 29.736 37.764 53.24 51.08 71.5 13.176 18.07 20.02 27.973 27.719 36.9 7.525 8.891 11.736 14.256 17.641 16.09 5.904 1.619 15.84.324 17.17-6.121 1.045-6.551-.721-13.283-10.584-32.688-10.152-19.691-30.889-51.19-48.889-83.81-18.11-32.722-36.969-69.05-58.1-110.77m-186.19-34.34c-10.08 7.704-11.88 31.18-.108 49.03 11.809 17.82 32.725 23.256 42.805 15.552 10.08-7.704 10.836-29.448-.973-47.3-11.772-17.82-31.644-24.984-41.724-17.28m37.476 73.8c1.404 0 3.133-.108 4.789-.72 1.691-.648 3.779-1.224 5.436-2.7 1.62-1.548 2.988-3.636 4.248-6.408-.288 2.376-.072 5.364.648 9.108.684 3.78 1.836 7.884 3.6 12.996-2.484-2.556-5.221-4.788-8.352-6.84-3.168-2.088-6.625-3.852-10.369-5.436"/><path d="m193.91 111.24c0 15.948 12.02 28.872 26.892 28.872 14.833 0 26.856-12.924 26.856-28.872 0-15.984-12.02-28.908-26.856-28.908-14.869 0-26.892 12.924-26.892 28.908"/><path d="m62 254.37c0 12.36 10.248 22.381 22.89 22.381 12.596 0 22.845-10.02 22.845-22.381 0-12.36-10.248-22.379-22.845-22.379-12.641 0-22.89 10.02-22.89 22.379"/></g></g></g></svg>