<svg xmlns="http://www.w3.org/2000/svg" viewBox="0 0 16 16"><g color-rendering="auto" color-interpolation-filters="linearRGB" shape-rendering="auto" image-rendering="auto" text-rendering="auto" color-interpolation="sRGB" color="#000" transform="translate(0-1036.36)"><path fill="#13cc00" fill-rule="evenodd" d="m0 1036.36h16v16h-16z"/><rect x="2" y="1045.36" stroke-width="2" rx="2.5" width="12" stroke-linecap="round" fill="none" height="5" stroke="#cc4300"/><g fill-rule="evenodd"><path fill="#999" d="m5 1044.36h1v2h-1z"/><path d="m5 1037.36h1v6h-1z"/><path d="m6 1037.36h5v3h-5z"/><g fill="#fff"><path d="m6 1037.36h1v1h-1z"/><path d="m6 1039.36h1v1h-1z"/><path d="m7 1038.36h1v1h-1z"/><path d="m8 1037.36h1v1h-1z"/><path d="m8 1039.36h1v1h-1z"/><path d="m9 1038.36h1v1h-1z"/><path d="m10 1037.36h1v1h-1z"/><path d="m10 1039.36h1v1h-1z"/></g></g></g></svg>