<svg xmlns="http://www.w3.org/2000/svg" viewBox="0 0 218.08 220.66" xmlns:xlink="http://www.w3.org/1999/xlink"><defs><radialGradient cx="9.985" cy="583.81" id="a" r="84.55" gradientUnits="userSpaceOnUse" gradientTransform="scale(1.05661.94642)"><stop stop-color="#002723"/><stop offset=".98" stop-opacity=".498"/><stop offset="1" stop-color="#fff" stop-opacity="0"/></radialGradient></defs><g transform="translate(-26.28-15.895)"><g fill-rule="evenodd"><path fill="#368c00" stroke="#e8e9e8" stroke-width="2.5" d="m226.48 72.19c46.05 93.98-25.844 140.96-36.18 146.6 15.976-48.868 36.18-146.6 36.18-146.6z"/><g display="block" stroke="#b8b8b8" stroke-width="1.875"><path fill="#b32000" d="m84.72 154.8c-8.644-85.72 39.26-114.17 39.26-114.17-2.521-23.05-15.487-19.809-15.487-19.809-94 54.39-54.39 152.35-54.39 152.35l1.441.36c27.01-13.326 29.17-18.729 29.17-18.729z"/><path fill="#fff" d="m53.39 175.33c-9.725 4.682-15.13 2.521-15.13 2.521-45.38-110.57 64.24-155.34 64.24-155.34 9.725-2.881 6.357-1.331 6.357-1.331-95.08 52.945-54.746 156.67-55.47 154.15z"/><path fill="#b32000" d="m39.701 179.65c24.852-6.843 45.02-24.852 45.02-24.852 37.818 15.13 40.34 18.729 48.623 22.33-31.33 38.18-44.661 36.38-58.35 38.538-20.89-7.203-35.3-36.02-35.3-36.02z"/><path fill="#fef" d="m75.72 216.38c34.936-4.682 52.945-41.06 57.627-39.979 36.02 15.487 30.614 14.05 30.614 14.05-33.856 54.39-42.86 42.86-42.86 42.86-26.653-2.521-45.38-16.928-45.38-16.928z"/><path fill="#368c00" d="m165.4 189.73c33.856 14.767 28.814 10.445 31.695 13.686-4.322 35.3-75.996 29.534-75.996 29.534 39.26-30.614 44.3-43.22 44.3-43.22z"/></g><g stroke="#b8b8b8" stroke-width="1.875"><path fill="#368c00" d="m124.02 40.08c-4.341-22.709-11.302-19.242-10.3-20.244 40.742-3.674 48.42 3.01 48.42 3.01 0 0 1.658 2.884 1.775 2.855 12.69 22.709 4.904 23.861 4.904 23.861-41.41-11.02-39.04-7.137-44.802-9.478z"/><path fill="#fffbff" d="m169 49.27c9-6.663-7.924-27.19-7.924-27.19 38.718 9.544 40.699 22.871 40.699 22.871-.36 18.909-1.441 18.369-1.441 18.369-26.653-13.686-31.33-14.05-31.33-14.05z"/><path fill="#b40000" d="m200.7 63.49c1.261-24.492 1.261-21.97 1.261-19.449 23.23 11.886 28.814 40.699 28.09 44.3-27.553-22.511-29.354-24.852-29.354-24.852z"/></g></g><g display="block"><g fill="#fdffff" fill-rule="evenodd" stroke="#b8b8b8" stroke-width="1.875"><path d="m85.51 155.03c-2.666-22.947-.692-46.16.462-47.54 107.46 43.37 132.43 61.28 134.77 64.62l.771-.206c-15.231 34.15-28.464 29.28-28.464 29.28l-2.077-.923c-84.925-34.847-100.16-41.31-105.46-45.23z"/><path d="m85.84 106.49c1.93-15.811 10.229-30.16 10.229-30.16 110.77 13.385 138.15 59.62 137.78 60.56 1.381 7.998-.573 13.01-2.74 20-2.167 6.997-5.01 11.973-9.71 15.506-4.752 3.571-132.56-63.14-135.56-65.906z"/><path d="m95.86 76.75c15.657-26.843 27.745-35.18 27.745-35.18 87.69 10.154 106.36 47.692 106.36 47.692l-.231-.231c9.923 34.15 5.02 51.26 3.867 47.34-37.629-49.53-129.52-58.708-137.74-59.61z"/></g><path opacity=".134" fill="url(#a)" d="M151.31393 525.9871A101.38071 90.64628 0 0 1 154.28805 654.10819 101.38071 90.64628 0 0 1 10.996815 656.85635 101.38071 90.64628 0 0 1 7.823728 528.73908 101.38071 90.64628 0 0 1 151.11055 525.81302" transform="matrix(1.06008 0 0 1.19667 49.35-581.46)"/><text font-family="Arial Black" opacity=".766" letter-spacing="0" color="#000" line-height="100%" font-size="20"><textPath xlink:href="#b">Volley-Ball</textPath></text><path fill="none" id="b" d="m105.25 104.14c92.1 31.952 116.53 58.27 116.53 58.27"/></g></g></svg>