<?xml version="1.0" encoding="UTF-8" standalone="no"?>
<!DOCTYPE svg PUBLIC "-//W3C//DTD SVG 1.1//EN" "http://www.w3.org/Graphics/SVG/1.1/DTD/svg11.dtd">
<svg xmlns:xl="http://www.w3.org/1999/xlink" xmlns:dc="http://purl.org/dc/elements/1.1/" version="1.1" xmlns="http://www.w3.org/2000/svg" viewBox="1113.0596 432 848.3691 848.3691" width="848.3691" height="848.3691">
  <defs/>
  <metadata> Produced by OmniGraffle 7.12.1 
    <dc:date>2020-01-07 16:17:56 +0000</dc:date>
  </metadata>
  <g id="Canvas_1" stroke-opacity="1" stroke="none" stroke-dasharray="none" fill-opacity="1" fill="none">
    <title>Canvas 1</title>
    <g id="Canvas_1: bw">
      <title>bw</title>
      <g id="Graphic_571">
        <title>Shadow</title>
        <path d="M 1214 620 L 1354.8782 586 L 1645.5793 600 L 1820 579.5 L 1785.7233 960.2755 L 1653.338 1037.5058 L 1366.5074 1037.2061 L 1219.0403 1075.939 Z" fill="#333"/>
      </g>
      <g id="Graphic_477">
        <path d="M 1832.8155 967.7544 L 1832.4172 612.9002 L 1669.7135 705.4448 L 1671.2016 1059.5574 Z" fill="white"/>
      </g>
      <g id="Graphic_476">
        <path d="M 1409.214 705.7018 L 1409.1668 1059.6508 L 1671.7016 1059.5574 L 1669.7135 705.4448 Z" fill="white"/>
      </g>
      <g id="Graphic_475">
        <title>Bézier</title>
        <path d="M 1410.2237 1059.3153 L 1409.0749 705.376 L 1251.8335 790.0277 L 1251 1146 Z" fill="white"/>
      </g>
      <g id="Graphic_474">
        <path d="M 1832.8329 802.6461 L 1724.85 713.3482 L 1812.5092 624.22365 L 1780.3997 642.4873 L 1670.486 744.6884 L 1670.486 744.0266 L 1491.772 810.2334 L 1414.5968 705.4183 L 1409.1668 705.4177 L 1382.1834 719.858 L 1409.7316 743.91076 L 1409.7316 743.6307 L 1470.3897 824.1302 C 1470.4624 824.2343 1470.9167 825.3971 1471 825.5 L 1513 884 L 1409.7316 953.4614 L 1258 1143 L 1311 1114 L 1409.7316 982.3353 L 1523.5858 909.0485 L 1608 1061 L 1659 1060 L 1521 822 L 1671.6925 761.6202 L 1717.6237 719.4129 L 1832.6856 813.2957 Z" fill="#333"/>
      </g>
    </g>
    <g id="Canvas_1: color intersect">
      <title>color intersect</title>
      <g id="Graphic_540">
        <path d="M 1251.7993 851.7288 C 1309.342 851.202 1349.4793 858.1075 1409.6562 877.7303 L 1409.6562 633 L 1252.2146 716.8882 Z" fill="#15ad6c"/>
      </g>
      <g id="Graphic_552">
        <title>Custom</title>
        <path d="M 1409.5 681 L 1409.9678 878.2453 C 1442.4683 888.8365 1480.811 903.1406 1530.9066 921.992 L 1541.404 918.2204 Z" fill="#79ff98"/>
      </g>
      <g id="Graphic_551">
        <title>Bézier</title>
        <path d="M 1670.4475 744.6756 L 1670.4475 633 L 1415.1193 632.72966 L 1511.5 802.5 Z" fill="#97ff00"/>
      </g>
      <g id="Graphic_550">
        <path d="M 1588.5108 937.8747 C 1617.406 943.2177 1644.9326 943.5551 1670.5598 940.5962 L 1669.779 761.625 L 1523.3177 829.8635 L 1572.1591 916.5207 C 1572.242 916.6231 1572.3196 916.7262 1572.392 916.8298 Z" fill="#c8ff8a"/>
      </g>
      <g id="Graphic_557">
        <title>Bézier</title>
        <path d="M 1669.9613 762.2615 L 1670.74 940.7416 C 1745.1709 931.9984 1803.5125 895.4953 1832.7205 873.249 L 1832.6505 813.1651 L 1713 716 L 1671.6925 761.6202 Z" fill="#648c1f"/>
      </g>
      <g id="Graphic_556">
        <title>Custom</title>
        <path d="M 1832.638 802.485 L 1832.533 569.55154 L 1807.8 580.075 L 1720.5 708 Z" fill="#37633d"/>
      </g>
      <g id="Graphic_555">
        <path d="M 1784.25 589.825 L 1669 633 L 1669.8827 744.2501 L 1670.486 744.0266 L 1670.486 744.6884 Z" fill="#748d03"/>
      </g>
    </g>
    <g id="Canvas_1: Layer 8">
      <title>Layer 8</title>
      <g id="Graphic_539">
        <path d="M 1529.9119 921.6574 C 1533.2644 922.9189 1536.6697 924.2008 1540.1295 925.5035 C 1556.743 931.7585 1572.5738 934.9767 1588.45 937.925 L 1525.5 829 L 1671 777 L 1712 719.5 L 1832.8 825 L 1832.5829 802.5211 L 1723 706.5 L 1808 580 L 1784.3333 589.6667 L 1670.486 744.6884 L 1670.486 744.0266 L 1512.5 802 L 1416.5 632 L 1410.1783 632.4817 L 1385 644 L 1410 700 L 1431 736 L 1409 744 L 1252 784 L 1252 850 L 1409 775 L 1445 762 Z" fill="#ee010a"/>
      </g>
    </g>
  </g>
</svg>
