<svg viewBox="0 0 16 16" image-rendering="optimizeQuality" fill-rule="evenodd" xmlns="http://www.w3.org/2000/svg" text-rendering="geometricPrecision" shape-rendering="geometricPrecision"><path fill="#957f66" d="m2.95 0h10.1c1.183 0 2.95 1.176 2.95 2.95v10.1c0 1.774-1.767 2.95-2.95 2.95h-10.1c-1.183 0-2.95-1.176-2.95-2.95v-10.1c0-1.774 1.767-2.95 2.95-2.95"/><ellipse fill="#fff" cx="8" cy="8" rx="4.752" ry="4.752" stroke="#fff" stroke-width=".158"/><path fill="#957f66" fill-rule="nonzero" stroke="#957f66" stroke-width=".06" d="m7.999 5.885c-.262 0-.476-.077-.642-.233-.168-.156-.251-.345-.251-.572 0-.233.084-.422.251-.57.166-.148.381-.221.642-.221.267 0 .481.074.647.221.164.148.248.337.248.57 0 .236-.084.429-.248.58-.166.149-.381.225-.647.225zm.766 5.826h-1.551v-5.03h1.551z"/></svg>