<svg viewBox="0 0 12.5915 12.5915" image-rendering="optimizeQuality" fill-rule="evenodd" width="58.23" xmlns="http://www.w3.org/2000/svg" text-rendering="geometricPrecision" height="58.23" shape-rendering="geometricPrecision"><path fill="#fff" d="m3.944 1.365h5.01v10.24h-5.01z"/><path fill="#00f" d="m6.296 0c3.477 0 6.296 2.819 6.296 6.296 0 3.477-2.819 6.296-6.296 6.296-3.477 0-6.296-2.819-6.296-6.296 0-3.477 2.819-6.296 6.296-6.296m.946 4.51v5.597h.746v.666h-3.385v-.666h.746v-4.931h-.746v-.666h2.639zm-1.946-1.759c0-.24.087-.455.26-.646.173-.191.398-.287.673-.287h.133c.231 0 .444.084.64.253.195.169.293.395.293.68 0 .24-.084.455-.253.646-.169.191-.395.287-.68.287h-.133c-.231 0-.444-.084-.64-.253-.195-.169-.293-.395-.293-.68" transform="scale(.99806)"/></svg>