<svg viewBox="0 0 16 16" image-rendering="optimizeQuality" fill-rule="evenodd" xmlns="http://www.w3.org/2000/svg" text-rendering="geometricPrecision" shape-rendering="geometricPrecision"><g transform="scale(.8)"><path fill="#84c225" d="m3.75 0h12.5c1.478 0 3.75 1.532 3.75 3.75v12.5c0 2.217-2.272 3.75-3.75 3.75h-12.5c-1.478 0-3.75-1.533-3.75-3.75v-12.5c0-2.218 2.272-3.75 3.75-3.75"/><circle fill="#fff" cx="10" cy="10" r="6"/><path fill="#84c225" fill-rule="nonzero" d="m9.999 7.33c-.33 0-.601-.097-.811-.294-.212-.197-.318-.436-.318-.722 0-.294.106-.533.318-.72.21-.186.48-.279.811-.279.337 0 .607.093.817.279.207.186.313.426.313.72 0 .298-.106.542-.313.732-.21.188-.48.284-.817.284m.967 7.355h-1.958v-6.35h1.958z"/></g></svg>