<svg height="16" viewBox="0 0 16 16" width="16" xmlns="http://www.w3.org/2000/svg" xmlns:xlink="http://www.w3.org/1999/xlink"><linearGradient id="a" gradientTransform="matrix(.0063402 0 0 .01089837 .315969 -3.10314)" gradientUnits="userSpaceOnUse" x1="134.69441" x2="397.56601" y1="351.9769" y2="546.21515"><stop offset="0" stop-color="#d7e8e5"/><stop offset="1" stop-color="#3a8af0"/></linearGradient><linearGradient id="b" gradientTransform="matrix(.00704467 0 0 .0121093 .109492 -3.672533)" gradientUnits="userSpaceOnUse" x1="487.64999" x2="97.646004" y1="559.02002" y2="410.01999"><stop offset="0" stop-color="#878787"/><stop offset=".2396" stop-color="#8f8f8e"/><stop offset=".9066" stop-color="#a1a1a1"/></linearGradient><linearGradient id="c" gradientTransform="matrix(.00704467 0 0 .00782921 .109498 -1.254733)" gradientUnits="userSpaceOnUse" x1="284.92001" x2="284.92001" y1="589.39001" y2="561.08002"><stop offset="0" stop-color="#474746"/><stop offset=".9505" stop-color="#727271"/></linearGradient><linearGradient id="d" gradientTransform="matrix(.02955263 0 0 .02961267 -.418639 -4.753113)" gradientUnits="userSpaceOnUse" x1="284.92001" x2="284.92001" y1="669.77002" y2="490.45001"><stop offset="0" stop-color="#9b9b9a"/><stop offset=".9505" stop-color="#7e7e7d"/></linearGradient><linearGradient id="e" gradientTransform="matrix(3.7750447 0 0 3.7827133 .010989 -.008572)" gradientUnits="userSpaceOnUse" x1="2.514143" x2="2.03405" y1="2.744426" y2="2.591265"><stop offset="0" stop-color="#37c8ab"/><stop offset="1" stop-color="#37c8ab" stop-opacity="0"/></linearGradient><path d="m7.163387 9.77043h1.676226v5.310144h-1.676226z" fill="url(#d)" stroke="#fff" stroke-width=".029583"/><ellipse cx="8.0015" cy="9.862479" fill="#ccc" opacity=".998" rx="1.367276" ry="1.064181" stroke="#dbe3e2" stroke-linejoin="round" stroke-width=".027373"/><ellipse cx="8.0015" cy="9.862479" fill="url(#e)" opacity=".998" rx="1.367276" ry="1.064181" stroke="#000" stroke-linejoin="round" stroke-width=".027373"/><g transform="matrix(3.7750447 0 0 3.7827132 .010989 -.008572)"><path d="m.26003573 3.13808v.1718956c0 .029118.021262.04971.047481.04971h1.29614237c.024058 0 .0367-.016571.040819-.04971l.0833947-.7287225h.7765958l.0863605.7287169c.00608.030971.016402.04971.041514.04971l1.2935245-.0000003c.0262 0 .04743-.023656.04743-.052784v-.1688215l-1.2282556.007583-.0962243-.8202094h-1.0613177l-.0916272.8202094h-1.23581557z" fill="url(#c)" stroke-width=".007427"/><path d="m3.9732813 3.119814c.005.026617-.01231.048135-.03853.048135h-1.2335321c-.036863 0-.03823-.029679-.046483-.053165l-.0892666-.7335341h-.9110922l-.07443.7330735c-.00934.028515-.01687.051887-.052087.05193l-1.22928126.00169c-.026243.000032-.043481-.021513-.038543-.048135l.408527-2.19661937c.00495-.026665.025383-.048183.045566-.048183h2.80504416c.02026 0 .0407.021513.04559.048183l.408522 2.19662497z" fill="url(#b)" stroke="#ececec" stroke-width=".009236"/><path d="m3.7889941 3.0532938-1.0009473.00705-.098871-.8711631h-1.152728l-.080893.862589-1.01120978.00153.3739951-2.06364627h2.59663268z" fill="url(#a)" stroke="#000" stroke-width=".008283"/></g></svg>