<svg xmlns="http://www.w3.org/2000/svg" viewBox="0 0 16 16"><ellipse fill="#ff0" cx="8" cy="8" rx="7.6" ry="7.6" stroke="#000" stroke-width=".8"/><g transform="scale(.8.8)"><path d="m14 3.074l-2.5 4.33c.896.518 1.501 1.485 1.501 2.596h4.999c0-2.959-1.61-5.543-4-6.926"/><path d="m2.01 10h4.999c0-1.036.535-2.043 1.496-2.598l-2.499-4.33c-2.561 1.48-3.994 4.166-3.996 6.928"/><path d="m14 16.925l-2.5-4.329c-.897.516-2.037.556-2.998.001l-2.499 4.328c2.562 1.481 5.604 1.377 7.997 0"/><circle cx="10" cy="10" r="2"/></g></svg>