<svg xmlns="http://www.w3.org/2000/svg" viewBox="0 0 16 16"><g transform="translate(0-1036.36)"><path fill="#fc0" d="m0 1036.36h16v16h-16z"/><path fill="#fff" stroke="#000" stroke-dashoffset=".5" d="m2.5 1039.86h12v10h-12z"/><g fill="none"><path stroke="#808080" d="m10.5 1046.86h2v-10.5"/><g stroke="#000"><path d="m4.5 1045.86h2v2h-2z"/><path d="m8.5 1045.86h2v2h-2z"/></g><g stroke="#808080"><path d="m8.5 1036.36v9"/><path d="m4.5 1036.36v9"/><path d="m6.5 1036.36v9"/><path d="m10.5 1036.36v9"/></g><g stroke="#000"><path d="m8.5 1043.36v1"/><path d="m4.5 1043.36v1"/><path d="m6.5 1043.36v1"/><path d="m10.5 1043.36v1"/><path d="m8.5 1041.36v1"/><path d="m4.5 1041.36v1"/><path d="m6.5 1041.36v1"/><path d="m10.5 1041.36v1"/><path d="m12.5 1043.36v1"/><path d="m12.5 1041.36v1"/></g></g></g></svg>