<svg xmlns="http://www.w3.org/2000/svg" viewBox="0 0 12 16"><g color-rendering="auto" shape-rendering="auto" color-interpolation-filters="linearRGB" image-rendering="auto" fill-rule="evenodd" text-rendering="auto" color-interpolation="sRGB" color="#000" transform="translate(0-1036.36)"><path fill="#fc0" d="m4.473 1036.36l-.189 1h-3.283v4h-1v4h2.76l-1.334 7h3.055l.381-2h2.266l.381 2h3.053l-1.328-7h2.768v-4h-1v-4h-3.283l-.189-1z"/><path d="m1 1042.36v2h1v-1h8v1h1v-2z"/><path d="m2 1038.36v2h1v-1h6v1h1v-2z"/><path d="m4 1048.36v1h4v-1z"/><path d="m4 1046.36v1h4v-1z"/><path d="m5 1040.36v1h2v-1z"/><path d="m5.492 1036.36l-3.047 16h1.018l2.535-13.32 2.527 13.32h1.018l-3.033-16z"/><path d="m4 1044.36v1h4v-1z"/></g></svg>