<svg xmlns="http://www.w3.org/2000/svg" viewBox="0 0 16 12"><path fill="#8fa7f6" fill-rule="evenodd" stroke="#000" stroke-width=".973" d="m8.538 1049.68c-.603-2.422 1.992-1.392 3.221 0 .756.511 1.507.325 2.258.134 1.957-.36 1.462-3.02 1.38-3.449-.278-.843-.222-1.061-1.439-2.102-1.073-.499-2.077-.148-2.459-.439-.707-.348.357-2.234-1.187-2.369-2.816.288-3.878.13-4.07-.067-1.06-.623-1.192-.781-2.489-.102-1.625 1.233-1.099 2.736-1.296 4.03-.354 1.411-1.973 2.427-1.957 3.179-.205 2.801 1.907 2.653 2.274 2.944 1.051.439 6.445.906 6.628-.585 0-.65-.763-.694-.862-1.174z" transform="translate(0-1040.36)"/></svg>