<svg xmlns="http://www.w3.org/2000/svg" viewBox="0 0 418.38 339.99"><g stroke="#000" transform="translate(-72.47-255.22)"><path fill="#67bb27" stroke-width="6.717" d="m140.77 567.84l80.03-6.116c-59.947-28.796 12.11-181.59 20.16-203.39 28.432 11.505 12.865 58.01 68.3 76.51-22.901-40.16-15.802-83.32-65.7-84.49 50.44-4.874 79.883-34.748 90.32-49.621-91.89 20.13-71.784 27.25-95.68 41.38 4.883-20.08 46.766-40.16 32.649-85.24-15.892 27.96-46.784 40.919-47.676 83.88-28.779-52.854-57.56-27.707-96.34-40.561-6.779 12.146 35.441 12.293 89.66 48.44-57.23-2.04-77.45 52.919-75.68 65.879 31.11-40.707 37.22-19.414 87.32-60.12-109.87 215.06-78.31 189.98-87.38 213.45z" stroke-miterlimit="0"/><path fill="#e6cc00" fill-rule="evenodd" stroke-width="5.89" d="m297.15 591.07c-119.48 1.542-221.62-3.473-221.62-3.473l-.866.969c0 0 201.54-114.15 413.55 0l1.96.46c-64.49 6.381-130.44 1.237-193.03 2.045z"/></g></svg>