<svg xmlns="http://www.w3.org/2000/svg" viewBox="0 0 16 16"><g transform="translate(0-1036.36)"><path fill="#fff" d="m0 1036.36h16v16h-16z"/><g fill="#808080"><g fill-rule="evenodd"><path d="m3 1036.36h-3v16h3v-1h-2v-2h2v-2h-2v-2h2v-2h-2v-2h2v-2h-2v-2h2z"/><path d="m13 1036.36h3v16h-3v-1h2v-2h-2v-2h2v-2h-2v-2h2v-2h-2v-2h2v-2h-2z"/></g><path d="m4 1036.36h8v1h-8z"/><path d="m4 1039.36h8v2h-8z"/><path d="m4 1043.36h8v2h-8z"/><path d="m4 1047.36h8v2h-8z"/><path d="m4 1051.36h8v1h-8z"/></g></g></svg>