<svg xmlns="http://www.w3.org/2000/svg" viewBox="0 0 15 16"><g transform="translate(0-1036.36)"><path shape-rendering="auto" color-interpolation-filters="linearRGB" fill="#fff" image-rendering="auto" text-rendering="auto" d="m4.377 1036.36c-.785 0-1.544.147-2.154.605-.61.458-.973 1.242-.973 2.141v8.441h-1.25v3.813h15v-3.813h-1.25v-8.441c0-.864-.376-1.629-.975-2.094-.599-.465-1.36-.652-2.152-.652z" color="#000" color-rendering="auto" color-interpolation="sRGB"/><path d="m4 1037.36c-1.138 0-2 .861-2 2v7c0 .606.512 1 1 1v2h2v-2h5v2h2v-2c.475 0 1-.442 1-1v-7c0-1.139-.862-2-2-2z"/><g transform="scale(1-1)"><g fill="#fff"><rect x="3" y="-1042.36" rx="1" width="9" height="4"/><ellipse cx="4" cy="-1045.36" rx="1" ry="1"/><ellipse cx="11" cy="-1045.36" rx="1" ry="1"/></g><path d="m0-1052.36h15v2h-15z"/></g><g color-rendering="auto" color-interpolation-filters="linearRGB" shape-rendering="auto" image-rendering="auto" text-rendering="auto" color-interpolation="sRGB" color="#000"><path d="m0 1048.36h2v2h-2z"/><path d="m13 1048.36h2v2h-2z"/></g></g></svg>