<svg xmlns="http://www.w3.org/2000/svg" viewBox="0 0 739.41 489.54"><g fill-rule="evenodd" transform="matrix(0 1-1 0 744.36-5.232)"><path fill="#fff" stroke="#000" stroke-width="2" d="m94.3 210.11l94.62 164.78-94.16 163.99 89.63 53.636 64.829-111.17 66.58 111.26 90.32-52.54-95.98-165.3 96.19-166.14-90.41-52.16-65.757 113.34-64.942-111.82z"/><g fill="#c1121c"><path d="m94.31 211.93l92.77-52.711-88.96-154.27-92.35 53.585z"/><path d="m401.99 744.36l92.77-52.711-88.96-154.27-92.35 53.585z"/><path d="m98.01 744.36l-92.77-52.711 88.96-154.27 92.35 53.585z"/><path d="m405.47 212.23l-92.77-52.711 88.96-154.27 92.35 53.585z"/></g></g></svg>