<svg xmlns="http://www.w3.org/2000/svg" viewBox="0 0 15 16"><g transform="translate(0-1036.36)"><path fill="#fff" stroke="#fff" stroke-linejoin="round" stroke-width="1.5" d="m4.377 1037.11c-1.372 0-2.377.545-2.377 1.996v12.254h11v-12.254c0-1.342-1.036-1.996-2.377-1.996z"/><path d="m4 1037.36c-1.138 0-2 .861-2 2v8c0 1.232.779 2 2 2h7c1.254 0 2-.724 2-2v-8c0-1.139-.862-2-2-2z"/><g fill="#fff" transform="scale(1-1)"><rect x="3" y="-1042.36" rx="1" width="9" height="4"/><ellipse cx="4" cy="-1046.36" rx="1" ry="1"/><ellipse cx="11" cy="-1046.36" rx="1" ry="1"/></g><path fill="#c87137" d="m0 1050.36h15v2h-15z"/></g></svg>