<svg xmlns="http://www.w3.org/2000/svg" viewBox="0 0 15 16"><g transform="translate(0-1036.36)"><path fill="#fff" stroke="#fff" stroke-linejoin="round" stroke-width="1.5" d="m4.377 1037.11c-1.372 0-2.377.545-2.377 1.996v12.254h11v-12.254c0-1.342-1.036-1.996-2.377-1.996z"/><path d="m4 1037.36c-1.138 0-2 .861-2 2v10h3v-1h-1v-1h7v1h-1v1h3v-10c0-1.139-.862-2-2-2z"/><g transform="scale(1-1)"><g fill="#fff"><rect x="3" y="-1042.36" rx="1" width="9" height="4"/><ellipse cx="4" cy="-1045.36" rx="1" ry="1"/><ellipse cx="11" cy="-1045.36" rx="1" ry="1"/></g><path fill="#c87137" d="m0-1052.36h15v1h-15z"/><path d="m6-1051.36h3v3h-3z"/></g></g></svg>