<svg xmlns="http://www.w3.org/2000/svg" viewBox="0 0 16 16"><g transform="translate(0-1036.36)"><path shape-rendering="auto" color-interpolation-filters="linearRGB" fill="#fff" image-rendering="auto" text-rendering="auto" d="m.204 1039.61v9.498h15.53v-7.508h-4.492v2.01h-5.5v-3.998z" color="#000" color-rendering="auto" color-interpolation="sRGB"/><g transform="matrix(-1 0 0 1 .033 0)"><ellipse fill="none" cx="-12.478" cy="1049.86" rx="1.5" ry="1.5" stroke="#fff" stroke-linejoin="round" stroke-linecap="round"/><ellipse cx="-12.478" cy="1049.86" rx="1.5" ry="1.5"/></g><g transform="matrix(-1 0 0 1-3.966 0)"><ellipse fill="none" cx="-12.478" cy="1049.86" rx="1.5" ry="1.5" stroke="#fff" stroke-linejoin="round" stroke-linecap="round"/><ellipse cx="-12.478" cy="1049.86" rx="1.5" ry="1.5"/></g><path shape-rendering="auto" color-interpolation-filters="linearRGB" fill="#fff" image-rendering="auto" text-rendering="auto" d="m3.096 1036.36c.513.999.972 1.872 1.461 2.638.399.619.855 1.254 1.348 1.775.493.521 1.013.951 1.645 1.076 1.131.225 2.139.091 2.965-.022.813-.111 1.362-.412 1.814-.01.31.276.138.791.139 1.238l2.281.165c0 0 .042-.527-.018-1.17-.06-.643-.194-1.433-.707-2.02-.805-.925-1.988-1.303-2.814-1.764-.413-.23-.729-.47-.906-.734-.177-.265-.26-.65-.164-1.171z" color="#000" fill-rule="evenodd" color-rendering="auto" color-interpolation="sRGB"/><g transform="scale(-1 1)"><ellipse fill="none" cx="-3.988" cy="1049.36" rx="2" ry="2" stroke="#fff" stroke-linejoin="round" stroke-linecap="round"/><path fill="#c87137" d="m-16 1051.36h16v1h-16z"/></g><path d="m1 1048.36h14v-5.998h-3v2h-7v-4h-4z"/><path fill-rule="evenodd" d="m14.249 1043.18c0 0 .158-1.949-.603-2.823-1.27-1.458-4.05-1.519-4.046-3.534l-5.689-.01c0 0 1.949 4.187 3.735 4.542 2.074.412 3.754-.486 4.906 0 .666.365.375 1.828.375 1.828z"/><g transform="scale(-1 1)"><ellipse cx="-3.988" cy="1049.36" rx="2" ry="2"/><path fill="#fff" d="m-4 1041.36h2v3h-2z"/></g></g></svg>