<svg xmlns="http://www.w3.org/2000/svg" viewBox="0 0 15 16"><g transform="translate(0-1036.36)"><path fill="#fff" d="m1 1037.36h13v14h-13z"/><path d="m0 1036.36v16h1v-8c0-3.96 2.868-7 6.502-7 3.634 0 6.608 3.04 6.498 7v8h1v-16z"/><path fill="#c87137" d="m1 1051.36h13v1h-13z"/><path d="m4.478 1040.36c-1.04 0-1.755.715-1.755 1.755v6.491c0 1.105.65 1.755 1.755 1.755h6.04c1.105 0 1.755-.65 1.755-1.755v-6.491c0-1.04-.78-1.755-1.755-1.755z"/><g fill="#fff"><path d="m4.478 1044.87h6.04c.455 0 .845-.39.845-.91v-1.689c0-.52-.39-.91-.845-.91h-6.04c-.52 0-.91.39-.91.91v1.689c0 .52.39.91.91.91"/><path d="m5.323 1047.87c0-.455-.39-.845-.845-.845-.52 0-.91.39-.91.845 0 .455.39.845.91.845.455 0 .845-.39.845-.845"/><path d="m11.367 1047.87c0-.455-.39-.845-.845-.845-.455 0-.845.39-.845.845 0 .455.39.845.845.845.455 0 .845-.39.845-.845"/></g></g></svg>