<svg xmlns="http://www.w3.org/2000/svg" viewBox="0 0 16 14"><g transform="translate(0-1038.36)"><g fill="#fff"><path d="m0 1039.36h16v.75h-16z"/><path color-rendering="auto" shape-rendering="auto" color-interpolation-filters="linearRGB" image-rendering="auto" text-rendering="auto" color-interpolation="sRGB" color="#000" d="m7.385 1038.36l-4.135 2.55v1.508l1.684 1.191h-4.684v6.5h15.5v-6.5h-4.658l1.686-1.189v-1.512l-4.144-2.548z"/></g><g transform="translate(1)"><circle fill="none" cx="2" cy="1050.36" stroke="#fff" stroke-linejoin="round" r="1" stroke-linecap="round" stroke-width="1.5"/><circle cx="2" cy="1050.36" r="1"/></g><g transform="translate(-1)"><circle fill="none" cx="14" cy="1050.36" stroke="#fff" stroke-linejoin="round" r="1" stroke-linecap="round" stroke-width="1.5"/><circle cx="14" cy="1050.36" r="1"/></g><circle fill="none" cx="6" cy="1050.36" stroke="#fff" stroke-linejoin="round" r="1" stroke-linecap="round" stroke-width="1.5"/><circle cx="6" cy="1050.36" r="1"/><circle fill="none" cx="10" cy="1050.36" stroke="#fff" stroke-linejoin="round" r="1" stroke-linecap="round" stroke-width="1.5"/><circle cx="10" cy="1050.36" r="1"/><path d="m8 1038.86l-3.999 2.472v.703l3.294 2.33h-6.295v5h14v-5h-6.272l3.3-2.33v-.703zm0 .977l3.121 1.848-3.107 2.186-3.098-2.186zm-6 5.527h2v3h-2zm3 0h2.5v1.624h-2.5zm3.508 0h2.518v1.62h-2.518zm3.492 0h2v3h-2z"/><path fill="#666" d="m0 1038.36h16v1h-16z"/></g></svg>