<svg xmlns="http://www.w3.org/2000/svg" viewBox="0 0 16 16"><rect width="16" fill="#fff" rx="2" height="16"/><path fill="#734a08" d="m7 0c-3.854 0-7 3.146-7 7 0 3.854 3.146 7 7 7 3.854 0 7-3.146 7-7 0-3.854-3.146-7-7-7m0 2c2.773 0 5 2.227 5 5 0 2.773-2.227 5-5 5-2.773 0-5-2.227-5-5 0-2.773 2.227-5 5-5m-.25 1.21875a.750075 .750075 0 0 0 -.15625 .03125 .750075 .750075 0 0 0 -.59375 .75v3.375l.313.219 2 1.5a.750075 .750075 0 1 0 .875 -1.1875l-1.688-1.281v-2.625a.750075 .750075 0 0 0 -.75 -.78125" transform="translate(1 1)"/></svg>