<svg xmlns="http://www.w3.org/2000/svg" viewBox="0 0 16 16"><g color="#000" transform="translate(113.47-791.55)"><g fill="#d60000"><ellipse cx="-121.06" cy="791.21" rx="1.643" ry="1.582" transform="matrix(.99983-.01837.01981.9998 0 0)"/><path d="m-105.44 795.26c-2.192.04-3.963 1.672-4.148 3.729l1.037.006c.189-1.627 1.36-2.824 3.106-2.856 1.746-.032 3.049 1.092 3.303 2.711l.996-.015c-.266-2.048-2.102-3.614-4.293-3.574"/><path d="m-105.43 795.21c-1.01.032-1.776 3.95-1.759 5.498.018 1.548.225.84.434.273.21-.567.594-2.187 1.369-2.212.775-.025 1.33 1.541 1.553 2.095.223.554.302 1.275.285-.273-.018-1.548-.877-5.414-1.883-5.382"/></g><g fill="#f89000"><ellipse cx="104.03" cy="854.31" rx="1.514" ry="1.717" transform="matrix(-.83436-.55122-.01404.9999 0 0)"/><path d="m-99.14 799.86c-.249-1.087-1.459-1.507-2.775-1.011l.092.668c1.046-.371 1.997-.293 2.195.573.198.866-1.095 1.679-2.091 2.269l.194.832c1.265-.719 2.633-2.244 2.385-3.331"/><path d="m-98.78 799.28c.75.486 1.324 5.42 1.311 7.226-.013 1.806-.168.884-.324.127-.156-.757-.443-2.827-1.021-3.202-.578-.374-.991 1.213-1.158 1.762-.166.55-.225 1.359-.212-.446.013-1.806.654-5.952 1.404-5.467"/></g><g fill="#007cba"><ellipse cx="-144.53" cy="720.91" rx="1.586" ry="1.717" transform="matrix(.85038-.52617.01499.99989 0 0)"/><path d="m-111.82 799.86c.251-1.087 1.698-1.487 3.03-.991l-.073.587c-1.056-.371-2.262-.231-2.462.634-.2.866 1.105 1.659 2.11 2.249l-.195.853c-1.277-.719-2.658-2.244-2.407-3.331"/><path d="m-112.19 799.28c-.731.486-1.291 5.42-1.278 7.226.013 1.806.163.884.316.127.152-.757.432-2.827.995-3.202.563-.374.967 1.213 1.129 1.762.162.55.22 1.359.207-.446-.013-1.806-.638-5.952-1.369-5.467"/></g><g fill="#00bf00"><ellipse cx="-121.2" cy="795.91" rx="1.799" ry="1.732" transform="matrix(.99983-.01837.01981.9998 0 0)"/><path d="m-105.4 799.75c-2.173.036-3.93 1.692-4.113 3.521l.989-.013c.187-1.447 1.387-2.134 3.119-2.163 1.731-.029 2.981.632 3.232 2.072l1.03-.034c-.264-1.822-2.063-3.419-4.236-3.383z"/><path d="m-105.45 799.91c-1.01.038-1.776 4.628-1.759 6.442.018 1.814.266 1.035.475.371.21-.664.553-2.613 1.329-2.642.775-.029 1.176 2.122 1.399 2.771.223.649.456 1.177.438-.637-.018-1.814-.877-6.343-1.883-6.306"/></g></g></svg>