<svg xmlns="http://www.w3.org/2000/svg" viewBox="0 0 16 16"><g transform="translate(0-1036.36)"><rect y="1036.36" rx="2" width="16" fill="#005cff" height="16"/><g fill="#fff"><path color="#000" d="m2.375 1041.04v4.197c-.008.657.842.657.834 0v-3.464h.43v8.955c-.01.845 1.083.845 1.073 0v-5.493h.531v5.493c-.01.845 1.083.845 1.073 0v-8.955h.474v3.464c-.008.657.842.657.834 0v-4.197c0-.583-.403-1.052-.903-1.052h-3.402c-.598 0-.945.469-.945 1.052"/><ellipse cx="5" cy="1038.42" rx="1.054" ry="1.054"/><g fill-rule="evenodd" color="#000"><path d="m12.494 1045.37c-.276 0-.497.23-.494.506v2.482h-1.504c-.448 0-.67.544-.35.858l2 2c.195.195.512.195.707 0l2-2c.375-.362.04-.862-.352-.859h-1.502v-2.48c.003-.281-.225-.509-.506-.506"/><path d="m12.494 1043.35c-.276 0-.497-.23-.494-.506v-2.482h-1.504c-.448 0-.67-.544-.35-.858l2-2c.195-.195.512-.195.707 0l2 2c.375.362.04.862-.352.859h-1.502v2.48c.003.281-.225.509-.506.506"/></g></g></g></svg>