<svg xmlns="http://www.w3.org/2000/svg" viewBox="0 0 16 16"><g transform="translate(0-1036.36)"><path color-interpolation-filters="linearRGB" color="#000" image-rendering="auto" color-rendering="auto" fill-rule="evenodd" d="m0 1036.63h16v16h-16z" color-interpolation="sRGB" text-rendering="auto" fill="#fff" shape-rendering="auto"/><g stroke="#000"><path fill="none" stroke-width=".85" d="m7.43 1044.99c.496-.291.188-1.023.441-1.495.097-.489.418-.868.697-1.247.414-.354.798-.766 1.283-1.01.482-.191.416-.888.209-1.279-.418-.299-.61-.933-.319-1.386.279-.489.97-.787 1.607-.8.809 0 .88 0 1.269.239.482.527.596 1.043.385 1.697-.318.369-.677.783-.757 1.304.005.514.388.962.734 1.255.412.317.74.735 1.072 1.141.24.527.253 1.125.361 1.689.09 1.285-.005 2.534.058 3.701.013.487-.051 1.845-.053 2.332"/><path fill-rule="evenodd" stroke-width=".685" d="m1.204 1046.34c-.029-.123.966-1.291 1.362-1.916.354-.346 1.112-.721 1.613-.455.563.373 1.035 1.052 1.326 1.682.293.391.839.325 1.292.359.651 0 1.382.055 1.929-.362.389-.415 1.137-.803 1.525-.657.512.36.398 1.197.03 1.731-.416.41-.572.972-.724 1.525-.026.791-.164 1.58-.212 2.368.002.733-.847.93-1.031.2-.397-.455-.439-1.045-.617-1.596-.522-.434-1.372-.115-1.642.515-.395.378-.54 1.076-1.051 1.359-.504.542-1.437.281-1.506-.524-.153-.596-.111-1.253-.027-1.861.087-.699.286-1.37.231-2.084-.297-.436-1.08-.215-1.48.177-.381.245-.912-.245-1.019-.46z"/></g><rect color-interpolation-filters="linearRGB" x="10.884" y="1047.03" color="#000" image-rendering="auto" color-rendering="auto" fill-rule="evenodd" rx=".717" width="2.21" color-interpolation="sRGB" text-rendering="auto" fill="#952d0f" height="4.543" shape-rendering="auto"/></g></svg>