<svg xmlns="http://www.w3.org/2000/svg" viewBox="0 0 227.25 337.7" xmlns:xlink="http://www.w3.org/1999/xlink"><defs><path fill="#ff0404" stroke="#000" id="a" stroke-width="3" d="m149.2 343.65h24.716v39h-24.716z"/><path fill="#ff0404" stroke="#000" id="b" stroke-width="3.423" d="m170.72 317.93h37.999v90.45h-37.999z"/></defs><g transform="translate(-148.27-206.07)"><g fill="#ff0404" stroke="#000"><path stroke-width="2.694" d="m245.19 207.42h33.413v16.479h-33.413z"/><path stroke-width="2.776" d="M317.18789 298.78839A51.51778 49.49748 0 1 1 214.15232 298.78839 51.51778 49.49748 0 1 1 317.18789 298.78839z" transform="matrix(1.08394 0 0 1.07716-26.07-47.3)"/></g><g transform="translate(1.266)"><g transform="translate(0-2.24)"><use xlink:href="#a"/><use xlink:href="#b"/></g><g transform="matrix(-1 0 0-1 521.27 724.07)"><use xlink:href="#a"/><use xlink:href="#b"/></g></g><g fill="#ff0404" stroke="#000"><path stroke-width="3" d="m206.9 278.64h110v249.4h-110z"/><path stroke-width="2" d="m182.07 523.52h159.66v19.253h-159.66z"/><path stroke-width="1.904" d="m189.88 268.91h144.05v19.349h-144.05z"/></g></g></svg>