<svg xmlns="http://www.w3.org/2000/svg" viewBox="0 0 1000 500" xmlns:xlink="http://www.w3.org/1999/xlink"><defs><path id="a" d="m58.989 112.36h223.31v203.65h-223.31z"/></defs><path fill="#00f" d="M563.20227 25.983145A14.747191 25.983147 0 0 1 592.69665 25.983146" transform="matrix(2.19048 0 0 1.75676-413.46 54.775)"/><circle cx="748" cy="412" r="77" transform="matrix(-1 0 0 1 1000.56 0)"/><g fill="#d40000"><path fill-rule="evenodd" d="m704.78 86.81l179.72 12.406c30.48 2.308 21.18-5.965 54.875 83.47 32.75 83.9 27.23 54.695 26.875 98.94v99c-.271 25.887-4.147 32.26-32.25 32.469-4.066-130.67-191.18-131.13-194.91.75l-389.06.25c.188-33.994-14.188-59.897-37.19-78.69l391.94-.313v-101.94h41.563v-105.34h-41.563zm76.28 40.906l1.563 105.47 132.63 15.531c23.517 3.06 24.879-3.128 16.281-24.06l-25.594-68.25c-6.427-21.16-6.573-21.247-24.813-22.469zm-588.94 207.84c-23.832 19.11-37.29 46.28-37.06 78.63l-56.719.063-64.59-22.875.188-55.781z"/><path d="m705.47 86.59v41.22h-115.03v105.34h115.03v104.59h-670.66v-251.16h512.09v228h18.25v-228z"/></g><circle cx="164" cy="412" r="77" transform="matrix(-1 0 0 1 1000.56 0)"/><use fill="#333" xlink:href="#a"/><g fill="#808080"><use xlink:href="#a"/><path d="m296.35 110.96h223.31v203.65h-223.31z"/></g><g fill="none" stroke="#00f" stroke-width="10.764"><path d="m853.93 48.32v-40.593"/><path d="m871.92 52.53l23.02-33.434"/><path d="m835.95 51.13l-23.02-33.434"/></g></svg>