<svg xmlns="http://www.w3.org/2000/svg" viewBox="0 0 48 48" xmlns:xlink="http://www.w3.org/1999/xlink"><defs><path fill="none" stroke-linejoin="round" id="a" stroke-linecap="round" d="m20 34l12 7-8-18-8 18"/><path fill="none" stroke-linejoin="round" id="b" stroke-linecap="round" d="M36.34964 11.405586A14 14 0 0 1 36.493432 24.317765"/><path fill="none" stroke-linejoin="round" id="c" stroke-linecap="round" d="M39.0644 6.421403A19 19 0 0 1 39.24004 29.346418"/></defs><g stroke="#fff"><use xlink:href="#a" stroke-width="12"/><use xlink:href="#b" stroke-width="11" transform="matrix(-1 0 0 1 51.85.139)"/><g stroke-width="12"><use xlink:href="#c" transform="matrix(-1 0 0 1 49.12-.421)"/><use xlink:href="#c" transform="translate(-1.066-.421)"/></g><use xlink:href="#b" stroke-width="11" transform="translate(-3.6.139)"/><path stroke-width="8" d="M29 24A5 5 0 1 1 19 24 5 5 0 1 1 29 24z" fill="#fff" stroke-linejoin="round" transform="translate(0-6)"/></g><path d="M29 24A5 5 0 1 1 19 24 5 5 0 1 1 29 24" transform="translate(0-6)"/><g stroke="#000"><use xlink:href="#a" stroke-width="4"/><g stroke-width="3"><use xlink:href="#b" transform="translate(-3.6.139)"/><path stroke-linecap="round" d="M36.429757 11.557862A14 14 0 0 1 36.529644 24.24564" fill="none" stroke-linejoin="round" transform="matrix(-1 0 0 1 51.6.139)"/></g><g stroke-width="4"><use xlink:href="#c" transform="translate(-1.066-.421)"/><use xlink:href="#c" transform="matrix(-1 0 0 1 49.24-.346)"/></g></g></svg>