<svg xmlns="http://www.w3.org/2000/svg" viewBox="0 0 14.537 16"><g stroke="#000" transform="translate(-255.9-523.38)"><path fill="#917400" stroke-width=".287" d="m263.17 539.35c.386-1.589 8.03-.53 6.85-3.178-3.616-8.104 0-9.533 0-9.533-1.144-.397-1.367-1.589-1.372-1.589-3.425 1.589-5.478-1.589-5.478-1.589 0 0-2.025 3.178-5.489 1.589-.003 0-.229 1.192-1.372 1.589 0 0 3.616 1.429 0 9.533-1.182 2.648 6.475 1.589 6.861 3.178z"/><path fill="#00f" stroke-width=".01" d="m263.56 527.55l2.45 7.381-6.415-4.561h7.93l-6.415 4.561z"/></g></svg>