<svg xmlns="http://www.w3.org/2000/svg" viewBox="0 0 371.82 282.37"><path fill="#fff" d="m7.465 7.465h356.9v267.44h-356.9z"/><path fill="#f00" d="m26.09 44.734l96.45 96.92-96.45 96.45zm300.06-18.17l-118.8 118.35c-5.906 5.906-13.362 8.859-22.367 8.859-9.319 0-17.09-3.109-23.306-9.328l-117.88-117.88zm18.642 211.54l-96.45-96.45 96.45-96.92zm-301.47 18.17l96.92-96.45 4.195 4.195c11.186 10.873 24.699 16.31 40.54 16.31 15.84 0 29.2-5.436 40.07-16.31l4.195-4.195 96.91 96.45zm-43.33 26.09h371.82v-282.37h-371.82z"/></svg>