<svg xmlns="http://www.w3.org/2000/svg" viewBox="0 0 50 50"><g transform="translate(-152.2-290.16)"><path fill="#fff" d="m158.17 291.17c-2.74 0-4.96 2.224-4.96 4.959v38.04c0 2.735 2.224 4.964 4.96 4.964h38.05c2.74 0 4.96-2.229 4.96-4.964v-38.04c0-2.735-2.224-4.959-4.96-4.959z"/><path fill="#500" d="m158.17 340.16c-3.296 0-5.976-2.669-5.976-5.985v-38.04c0-3.301 2.674-5.975 5.976-5.975h38.05c3.296 0 5.976 2.664 5.976 5.975v38.04c0 3.306-2.674 5.985-5.976 5.985z"/><path fill="#fff" d="m180.85 311.11v-8.573h2.968c1.234 0 1.446.804 1.598.96.46.445.768.718 1.421.718h3.286v-7.284h-3.286c-.652 0-.961-.268-1.421-.723-.152-.136-.364-.955-1.598-.955h-4.53v14.857l-2.073-1.36-18.261 11.789h4.282v14.245h10.369v-11.313h7.204v11.06h10.374v-13.998h4.267z"/></g></svg>