<svg xmlns="http://www.w3.org/2000/svg" viewBox="0 0 13 16"><g transform="translate(-138.84-673.3)"><rect color-interpolation-filters="linearRGB" x="138.84" y="673.3" color="#000" image-rendering="auto" color-rendering="auto" fill-rule="evenodd" rx="2" width="13" color-interpolation="sRGB" text-rendering="auto" fill="#fff" height="16" shape-rendering="auto"/><path d="m146.84 677.81c0 1.94-1.603 3.513-3.58 3.513-1.977 0-3.58-1.573-3.58-3.513 0-1.94 1.603-3.513 3.58-3.513 1.977 0 3.58 1.573 3.58 3.513"/><path d="m140.78 679.96l1.473 5.784h2.042l1.472-5.784z"/><g fill="#fff"><path d="m139.63 677.33h7.48v1.049h-7.48z"/><path d="m142.84 681.31h.998v.988h-.998z"/></g><path fill="none" stroke="#000" stroke-linecap="round" stroke-width="1.063" d="m143.28 685.32c.068.871.341 1.822 1.067 2.331.871.614 2.254.19 2.597-.875.499-1.178.343-2.591 1.073-3.672.509-.729 1.739-.491 2.032.337.247.483.274 1.043.34 1.575"/></g></svg>