<svg xmlns="http://www.w3.org/2000/svg" viewBox="0 0 12.09 16"><g stroke="#fff"><path stroke-width=".804" d="m3.682.417c0 0-3.324.044-3.281 3.048.043 3 .648 5.66 1.64 7.14.993 1.48 3.54 5.355 6.432 4.963 0 0 1.425-.305 2.504-1l-3.497-2.743c0 0-1.036.653-1.684-.218-.648-.871-2.676-4.92-2.676-4.92 0 0-.561-1.306.691-1.872z"/><g stroke-width=".304"><path d="m4.07.417c0 0 .259-.087.734.174.475.261.475.479.475.479l.043 3c0 0-.13.174-.302.348-.173.174-.734.435-.82.261-.086-.174-.13-4.267-.13-4.267z"/><path d="m7.771 11.503l.961-.506c0 0 .216-.044.561.174.345.218 2.158 1.654 2.158 1.654 0 0 .302.261.216.566-.086.305-.302.958-.302.958z"/></g></g></svg>