<svg xmlns="http://www.w3.org/2000/svg" viewBox="0 0 16 15.386"><path fill="#fff" d="m0 0h16v15.386h-16z"/><g stroke="#000"><path stroke-linejoin="round" stroke-width=".458" d="m7.944 1.229h1.047v12.928h-1.047z"/><g stroke-width=".092"><path d="m13.691 2.26c0 .607-.492 1.1-1.1 1.1-.607 0-1.1-.492-1.1-1.1 0-.607.492-1.1 1.1-1.1.607 0 1.1.492 1.1 1.1z"/><g stroke-linejoin="round"><path d="m5.149 2.375c0 .607-.492 1.1-1.1 1.1-.607 0-1.1-.492-1.1-1.1 0-.607.492-1.1 1.1-1.1.607 0 1.1.492 1.1 1.1z"/><g fill-rule="evenodd"><path d="m3.8 10.206h.417l.069 3.68h.671l.069-3.703 1.111-.023-1.203-4.42.324-.185.972 3.194.717-.393-1.458-4.258-2.939-.093-1.504 4.443.648.255 1.065-3.147.301.046-1.203 4.513 1.018.023.139 3.772h.671z"/><path d="m11.04 3.981l2.823-.023.926.717.162 4.143-.81-.023-.093-3.286-.417-.046.012 8.459-.775.023-.162-5.03-.393-.023-.093 5.091-.717-.046-.046-8.401h-.44l.046 3.217-.787.023-.069-4.05z"/></g></g></g></g></svg>