<svg xmlns="http://www.w3.org/2000/svg" viewBox="0 0 16 16"><rect color-interpolation-filters="linearRGB" color="#000" image-rendering="auto" color-rendering="auto" fill-rule="evenodd" rx="3" width="16" color-interpolation="sRGB" text-rendering="auto" fill="#fff" height="16" shape-rendering="auto"/><path fill="#734a08" d="m8 1c-.25.003-.5.164-.5.5v3.875l-5.5 2.625h12l-5.5-2.625v-3.875c0-.348-.25-.503-.5-.5m1 0v3h4l-2-1.5 2-1.5zm-7 8v1h1v4h-1v1h12v-1h-1v-4h1v-1zm6 1.5c1 0 2 .5 2 1.5v2h-4v-2c0-1 1-1.5 2-1.5"/></svg>