<svg xmlns="http://www.w3.org/2000/svg" viewBox="0 0 16 15"><g transform="translate(0-1037.36)"><path color-interpolation-filters="linearRGB" color="#000" image-rendering="auto" color-rendering="auto" fill-rule="evenodd" d="m0 1037.36h16v15h-16z" color-interpolation="sRGB" text-rendering="auto" fill="#fff" shape-rendering="auto"/><path d="m230.67 88l5 42 20 6.333 18-11-6.333-43c0 0 36.667 11 39.667 37.33 0 0 3.999 23-10.334 34l-10.999 10c0 0-14 10.667-10.667 34v204l-.333 7.667c0 0 1 9-9 9.333h-19c0 0-10 1.667-11.667-12.333v-220.33c0 0 1.333-12.333-8.333-18.333l-12.333-10c0 0-21.333-16.334-7.333-45.667-.001 0 4.999-13.999 23.665-23.999" transform="matrix(0 .05028.04204 0-2.569 1028.55)"/><path fill-rule="evenodd" d="m14.745 1049.67l.016-1.328-1.092.017.329-.994-2.392-.029.411-.984h-3.257l.266-.989-3.042-.022-.469 1.309h-1.541l-.57.697h-2.34c1.199 2.242 1.937 2.999 2.961 4.099 4.218 0 5.977 0 9.776-.017.715-.511.82-1.281.946-1.764z"/></g></svg>