<svg xmlns="http://www.w3.org/2000/svg" viewBox="0 0 16 14"><path fill="#fff" d="m0 0h16v14h-16z"/><g fill-rule="evenodd"><g fill="#00f"><path d="m16 11.181l-.495.282c-.546.311-1.16.311-1.706 0l-.512-.291c-.546-.311-1.16-.311-1.706 0l-.512.291c-.546.311-1.16.311-1.706 0l-.512-.291c-.27-.154-.56-.233-.853-.233-.293 0-.583.079-.853.233l-.512.291c-.546.311-1.16.311-1.706 0l-.512-.291c-.546-.311-1.16-.311-1.706 0l-.512.291c-.546.311-1.16.311-1.706 0l-.495-.282v1.305l.495.282c.546.311 1.16.311 1.706 0l.512-.291c.546-.311 1.16-.311 1.706 0l.512.291c.546.311 1.16.311 1.706 0l.512-.291c.27-.154.56-.233.853-.233.293 0 .583.079.853.233l.512.291c.546.311 1.16.311 1.706 0l.512-.291c.546-.311 1.16-.311 1.706 0l.512.291c.546.311 1.16.311 1.706 0l.495-.282z"/><path d="m16 8.217l-.495.282c-.546.311-1.16.311-1.706 0l-.512-.291c-.546-.311-1.16-.311-1.706 0l-.512.291c-.546.311-1.16.311-1.706 0l-.512-.291c-.27-.154-.56-.233-.853-.233-.293 0-.583.079-.853.233l-.512.291c-.546.311-1.16.311-1.706 0l-.512-.291c-.546-.311-1.16-.311-1.706 0l-.512.291c-.546.311-1.16.311-1.706 0l-.495-.282v1.305l.495.282c.546.311 1.16.311 1.706 0l.512-.291c.546-.311 1.16-.311 1.706 0l.512.291c.546.311 1.16.311 1.706 0l.512-.291c.27-.154.56-.233.853-.233.293 0 .583.079.853.233l.512.291c.546.311 1.16.311 1.706 0l.512-.291c.546-.311 1.16-.311 1.706 0l.512.291c.546.311 1.16.311 1.706 0l.495-.282z"/></g><path d="m14.745 5.319l.016-1.328-1.092.017.329-.994-2.392-.029.411-.984-3.257-.001.266-.989-3.042-.022-.469 1.309-1.541.003-.57.697-2.34.002c1.199 2.242 1.937 2.999 2.961 4.099.546.227 1.16.227 1.706 0 .753-.195 1.115-.299 1.888-.321.293 0 .965.058 1.236.171l.512.213c.546.227 1.16.227 1.706 0l.512-.213c.546-.227 1.16-.227 1.706 0l.512.213c.715-.511.82-1.359.946-1.843"/></g></svg>