<svg xmlns="http://www.w3.org/2000/svg" viewBox="0 0 16 16" xmlns:xlink="http://www.w3.org/1999/xlink"><defs><path id="a" d="m250.2 553.7h5.9v1h-5.9z"/></defs><g transform="translate(0-1036.36)"><path fill="#208ece" d="m0 1036.36h16v16h-16z"/><path fill="#ffbe34" d="m0 1036.36v16h7.249c.5-2.446.787-6-.801-9-1.464-2.814-1.838-5.136-1.896-7z"/><use xlink:href="#a" transform="matrix(.33898 0 0 2-79.81-61.04)"/><path fill="#fff" d="m7 1046.36h2v2h-2z"/><use xlink:href="#a" transform="matrix(.33898 0 0 2-75.81-61.04)"/><path fill="#fff" d="m11 1046.36h2v2h-2z"/><use xlink:href="#a" transform="matrix(.33898 0 0 2-71.814-61.04)"/><use xlink:href="#a" transform="matrix(.33898 0 0 2-81.81-68.04)"/><path fill="#fff" d="m5 1039.36h2v2h-2z"/><use xlink:href="#a" transform="matrix(.33898 0 0 2-77.81-68.04)"/><path fill="#fff" d="m9 1039.36h2v2h-2z"/><use xlink:href="#a" transform="matrix(.33898 0 0 2-73.814-68.04)"/></g></svg>