<svg xmlns="http://www.w3.org/2000/svg" viewBox="0 0 14 16"><g transform="translate(-72.09-959.94)"><rect stroke-dashoffset=".6" x="72.09" y="959.94" stroke-width=".007" rx=".016" width="13.993" stroke-linecap="square" fill="#fff" height="15.993" stroke="#ff0"/><g fill-rule="evenodd"><path fill="#4261a0" stroke="#000" stroke-width=".113" d="m79.08 961c-.983 0-1.78.751-1.78 1.677 0 .763.543 1.407 1.284 1.609v.686h-.22c-.165 0-.302.108-.336.253h-2.298c-.114-.393-.396-.674-.726-.674-.431 0-.782.475-.782 1.06 0 .585.351 1.06.782 1.06.335 0 .62-.288.731-.69h2.293c.035.145.172.253.336.253h.081c-.243 2.631.002 6.331-.852 6.434-.959.074-2.873-1.838-2.744-1.981.128-.06.521-.041.614-.036l.583-.443-2.898-1.398.164 3.48.061-.047c.289-.376.661-.978.715-1.062.252.694.831 1.436 1.316 2.065.815 1.01 3.05 2.165 5.216 1.383 2.06-.559 2.53-2.373 3.486-3.431.048.076.351.566.621.938l.217.158.085-3.484-2.867 1.457.527.384c.084-.005.488-.025.619.036.209.333-1.445 1.533-1.764 1.723-1.268.58-1.377.138-1.504-.391-.112-.466-.31-4.728-.359-5.786h.114c.164 0 .302-.109.336-.253h2.293c.111.402.396.69.731.69.431 0 .782-.475.782-1.06 0-.585-.351-1.06-.782-1.06-.33 0-.612.28-.726.674h-2.298c-.034-.146-.171-.253-.336-.253h-.22v-.686c.741-.202 1.284-.846 1.284-1.609 0-.926-.797-1.677-1.78-1.677zm0 .743c.547 0 .991.418.991.933 0 .515-.444.933-.991.933-.547 0-.991-.418-.991-.933 0-.515.444-.933.991-.933z"/><path fill="#fff" d="m79.09 961.19c-.213.005-.453.039-.717.114-.026.024.025.191.486.047.461-.145 1.332.193 1.152.049-.123-.1-.453-.221-.921-.209m.303 3.125l-.054.006c-.01.001-.016.041-.016.087l.018.528c0 .046.008.082.018.08l.052-.006c.01-.001.016-.041.016-.087l-.016-.528c0-.046-.008-.081-.018-.08m-4.095.462c-.144 0-.311.085-.332.076-.125.216.178.262.28.262.103 0 .205-.338.052-.338m7.915 0c-.153 0-.053.338.049.338.103 0 .41-.047.283-.264 0 .024-.178-.074-.332-.074m-3.434.346l-1.414.01c-.052 0-.091.008-.09.017v.004l-.02.004c-.01.001-.016.04-.016.089l.002.211c0 .049.008.088.018.087l.067-.01c.01-.001.016-.042.016-.091l-.002-.209c0-.007-.002-.011-.002-.017.013.001.025.002.04.002l1.414-.01c.013 0 .022-.003.034-.004-.001.011-.002.021-.002.034l.006.739c-.016-.002-.036-.004-.058-.004l-.224.002c-.052 0-.091.008-.09.017l.008.063c.001.009.045.015.096.015l.222-.002c.022 0 .043-.004.058-.006.001.002.003.004.004.004l.063-.008c.01-.001.016-.039.016-.085l-.006-.748c0-.046-.008-.081-.018-.08l-.025.004-.002-.013c-.001-.009-.045-.015-.096-.015m2.473.217l-1.919.015c-.049 0-.087.008-.085.017l.006.051c.001.009.041.015.089.015l1.919-.017c.049 0 .087-.008.085-.017l-.006-.049c-.001-.009-.041-.015-.09-.015m-4.51.023l-1.916.017c-.049 0-.089.008-.087.017l.008.049c.001.009.041.015.09.015l1.919-.015c.049 0 .086-.008.085-.017l-.006-.051c-.001-.009-.043-.015-.092-.015m1.672.843c-.005 0-.01.001-.016.002l-.011.002c-.046.007-.083.049-.081.095l.244 5.699c.002.046.041.077.087.07l.011-.002c.046-.007.08-.049.078-.095l-.244-5.699c-.002-.04-.031-.07-.07-.072m-5.895 3.081c-.023.005-.044.017-.058.036-.029.037-.018.086.025.107l1.623.837c.043.022.101.009.13-.028.029-.037.016-.086-.027-.107l-1.623-.837c-.021-.011-.046-.013-.07-.008m11.03 0c-.012.001-.023.003-.034.008l-1.623.837c-.042.022-.053.07-.024.107.029.037.085.049.128.028l1.623-.837c.042-.022.053-.07.024-.107-.022-.028-.059-.04-.094-.036"/></g></g></svg>