<svg xmlns="http://www.w3.org/2000/svg" viewBox="0 0 16 16"><g transform="translate(0-1036.36)"><path fill="#fff" d="m0 1036.36h15.907v16h-15.907z"/><g fill-rule="evenodd" transform="translate(-.313)"><path d="m6.956 1051.58h6.452l.004-1h.605v-12.84c0-.274-.159-.511-.457-.511h-6.623c-.342 0-.683.246-.683.641l-.007 12.705h.702z"/><path d="m6.285 1041.59h-.646c-.004 2.627.015 7.812.026 7.901.023.189.009.386-.039.564-1.012 2.55-4.287 1.379-3.822-1.102 1.021-2.461 2.453-4.126 3.166-7.03l.063 2.158c-.641 1.248-1.773 3.44-2.651 5.273-.074 1.692 1.939 2.249 2.569.433.281-3.179-.011-6.644-.016-9.966.41-1.218.862-1.334 1.32-1.276"/><path fill="#fff" d="m7.592 1039.04l-.022 3.283c0 .264.212.447.458.447l4.255.011c.258 0 .38-.165.38-.391v-3.339c0-.323-.185-.419-.419-.419h-4.227c-.242 0-.424.145-.424.408"/></g><g fill="#1332ff" fill-rule="evenodd"><path d="m16 1048.54l-.495.282c-.546.311-1.16.311-1.706 0l-.512-.291c-.546-.311-1.16-.311-1.706 0l-.512.291c-.546.311-1.16.311-1.706 0l-.512-.291c-.27-.154-.56-.233-.853-.233-.293 0-.583.079-.853.233l-.512.291c-.546.311-1.16.311-1.706 0l-.512-.291c-.546-.311-1.16-.311-1.706 0l-.512.291c-.546.311-1.16.311-1.706 0l-.495-.282v1.305l.495.282c.546.311 1.16.311 1.706 0l.512-.291c.546-.311 1.16-.311 1.706 0l.512.291c.546.311 1.16.311 1.706 0l.512-.291c.27-.154.56-.233.853-.233.293 0 .583.079.853.233l.512.291c.546.311 1.16.311 1.706 0l.512-.291c.546-.311 1.16-.311 1.706 0l.512.291c.546.311 1.16.311 1.706 0l.495-.282z"/><path d="m16 1045.58l-.495.282c-.546.311-1.16.311-1.706 0l-.512-.291c-.546-.311-1.16-.311-1.706 0l-.512.291c-.546.311-1.16.311-1.706 0l-.512-.291c-.27-.154-.56-.233-.853-.233-.293 0-.583.079-.853.233l-.512.291c-.546.311-1.16.311-1.706 0l-.512-.291c-.546-.311-1.16-.311-1.706 0l-.512.291c-.546.311-1.16.311-1.706 0l-.495-.282v1.305l.495.282c.546.311 1.16.311 1.706 0l.512-.291c.546-.311 1.16-.311 1.706 0l.512.291c.546.311 1.16.311 1.706 0l.512-.291c.27-.154.56-.233.853-.233.293 0 .583.079.853.233l.512.291c.546.311 1.16.311 1.706 0l.512-.291c.546-.311 1.16-.311 1.706 0l.512.291c.546.311 1.16.311 1.706 0l.495-.282z"/></g></g></svg>