<svg xmlns="http://www.w3.org/2000/svg" viewBox="0 0 16 16"><path fill="#208ece" d="m16 1044.85c-3.327-.418-5.848-.685-8.738-1.325-1.076-.238-1.762-.425-1.751-.581.002-.127 2.647.202 4.03.104 1.387-.098 4.646-.158 5.235-2.083.862-2.813-6.642-1.837-7.711-3.068-.014-.563 3.281-1.371 3.669-1.539-.869.097-4.71.246-4.681 1.802.029 1.38 3.82 2.048 4.689 2.277-2.707.053-5.313-.563-8.01.158-1.673.439-3.411 2.092-2.448 4.325.589 1.363 1.953 2.092 3.044 2.673 1.4.747 2.851 1.336 4.301 1.899 2.764 1.073 5.565 1.978 8.365 2.866.014-2.514.014-5.01.014-7.508" transform="translate(0-1036.36)"/></svg>