<svg xmlns="http://www.w3.org/2000/svg" viewBox="0 0 16 16"><g transform="translate(0-1036.36)"><path fill="#208ece" d="m15.63 1044.82c-2.801.162-5.701-.313-8.475-.824-.178-.031-1.593-.356-1.538-.744.062-.468 2.323-.175 2.583-.216 1.308-.21 5.697-.019 6.259-1.784.822-2.583-6.334-1.687-7.354-2.817-.014-.517 3.129-1.259 3.499-1.413-.829.088-4.492.226-4.465 1.655.027 1.267 3.643 1.881 4.471 2.091-2.581.049-5.067-.517-7.642.146-1.595.404-3.253 1.921-2.335 3.972.561 1.251 1.863 1.921 2.903 2.454 1.335.686 2.718 1.227 4.102 1.744 2.636.985 5.307 1.816 7.977 2.632.014-2.309.014-4.601.014-6.894"/><path fill="#000080" d="m264.1 615.6c-60.06-15.887-120.61-30.945-178.45-53.9-19.935-8.64-43.44-17.479-52.54-39.03-7.223-15.433.868-33.714 14.569-42.45 20.674-14.174 46.998-14.452 71.14-14.817 5.185-.496 21.726 2.187 9.09-2.338-9.554-3.544-17.985-15.557-10.403-24.896 10.648-11.346 27.473-12.437 41.989-14.73 22.388-2.156 44.812-3.975 67.21-6.04-19.438 6.652-38.37 14.977-58.56 19.15-6.05 2.02-21.18 4.608-21.463 7.132 28.912 5.858 59.52 3.02 87.45 13.575 10.335 3.331 17.461 15.517 11.559 25.619-8.27 13.911-25.851 16.719-40.485 19.311-26.847 3.903-54.34 1.247-81.09 1.337 46.1 7.632 91.64 12.242 139.89 14.174.067 32.6-.133 65.47.1 97.9m-148.5-139.4c-19.692.465-40.658.863-58.29 10.71-10.679 5.63-19.724 18.306-14.593 30.583 7.149 18.08 26.976 25.401 43.41 32.699 49.743 20.389 101.91 34.01 153.74 47.923 6.224 1.248 15.988 7.06 13.327-3.211v-65.904c-47.41-3.512-91.36-8.58-135.96-17.09-12.666-2.417-13.12-16.695.202-17.887 29.972-2.683 69.42 2.801 102.99-6.329 10.656-.319 24.929-15.808 9.15-20.997-28.971-10.158-60.6-6.35-90.1-14.08-6.846.5-11.303-9.225-12.201-9.09-4.448 10.919 15.676 12.875 23.01 16.1 11.943 3.335 24.15 5.58 36.3 7.977-1.337 3.377 1.194 10.99-3.466 10.727-22.532.098-45-2.146-67.53-2.127" transform="matrix(.06847 0 0 .08073-2.084 1002.67)"/></g></svg>