<svg xmlns="http://www.w3.org/2000/svg" viewBox="0 0 16 16"><path fill="#208ece" d="m16 1048.73c-2.349-.499-4.692-1.042-7.02-1.673-1.292-.349-2.584-.728-3.856-1.183-.242-.088-2.954-.922-2.954-1.373 0-.847 6.654-1.536 7.29-1.633 1.285-.194 2.612-.313 3.869-.715.732-.234 1.924-1.01.791-1.757-.829-.547-2.557-.927-3.514-1.059-1.289-.176-2.557-.428-3.759-.675-1.316-.274.522-1.306.736-1.395.992-.41 2.02-.671 3.044-.909-.829.129-5.206.587-4.816 2.211.245 1.015 2.415 1.333 3.089 1.501 1.354.34 2.56.481 3.904.887-3.082.331-5.88.269-8.893.755-1.358.221-4.927 1.126-3.634 3.813.622 1.298 2.118 1.92 3.171 2.436 1.489.728 3.02 1.311 4.553 1.858 2.643.945 5.317 1.761 7.994 2.538.004-1.209.004-2.419.004-3.628" transform="translate(0-1036.36)"/></svg>