<svg xmlns="http://www.w3.org/2000/svg" viewBox="0 0 16 16"><g transform="translate(0-1036.36)"><rect width="16" y="1036.36" fill="#fff" rx="2" height="16"/><g fill="#3771c8" transform="matrix(.85717 0 0 .85717 2.86 150.89)"><path color="#000" d="m7.818 1041.86c-.826 0-1.491.775-1.491 1.738v6.934c-.013 1.086 1.392 1.086 1.379 0v-5.722h.71v6.551h4.422v-6.551h.783v5.722c-.013 1.086 1.392 1.086 1.379 0v-6.934c0-.963-.666-1.738-1.492-1.738z"/><ellipse cx="10.663" cy="1039.28" rx="1.913" ry="1.913"/></g><path fill="#c00" fill-rule="evenodd" d="m6 1042.36h3v-2h-3v-3h-2v3h-3v2h3v3h2z"/></g></svg>