<svg xmlns="http://www.w3.org/2000/svg" viewBox="0 0 16 16"><g transform="translate(0-1036.36)"><rect width="16" y="1036.36" fill="#fff" rx="2" height="16"/><g fill="#3771c8" transform="matrix(.85717 0 0 .85717 3.143 151.17)"><path color="#000" d="m7.818 1041.86c-.826 0-1.491.775-1.491 1.738v.99c-.001.019-.001.038 0 .056v5.888c-.013 1.086 1.392 1.086 1.379 0v-5.722h.71v6.551h4.422v-6.551h.783v5.722c-.013 1.086 1.392 1.086 1.379 0v-6.934c0-.963-.666-1.738-1.492-1.738z"/><ellipse cx="10.663" cy="1039.28" rx="1.913" ry="1.913"/></g><path fill="#fff" fill-rule="evenodd" stroke="#000" stroke-width=".811" d="m2.955 1049.61c.252 0 1.022-7.157 2.045-7.157 1.022 0 1.845 7.157 2.045 7.157.2 0 2.045-7.157 2.045-8.18 0-3.067-.799-4.122-2.045-4.09-1.246.032-1.118 1.086-2.045 1.023-.927-.063-.927-1.023-2.045-1.023-1.118 0-2.045 1.023-2.045 4.09 0 1.022 1.837 8.18 2.045 8.18z"/></g></svg>