<svg xmlns="http://www.w3.org/2000/svg" viewBox="0 0 725 725"><circle fill="#fff" cx="362.5" cy="362.5" stroke="#000" r="350" stroke-width="2.5"/><circle fill="none" cx="362.5" cy="362.5" stroke="#c00" r="290" stroke-width="93.75"/><g transform="matrix(.44671 0 0 .44671 138.03 227.27)"><g fill="none" stroke="#000" stroke-width="40"><circle cx="215" cy="409" r="161"/><circle cx="790" cy="406" r="161"/></g><path fill-rule="evenodd" d="m429.48 15.467c-132.57 1.292-110.08-13.696-181.41 215.52-58.1 183.14-51.774 163.17-52.08 176.02-.213 9.98 7.843 17.893 17.967 18.57 21.05-2.129 12.198 2.277 85.19-224.39 266.71 281.36 166.65 235.73 310.18 241.44 188.64-1.809 203.97 9.82 206.21-17.831-.258-9.389-4.651-14.988-134.12-303.12l12.404-34.11 42.638-.775-1.55-35.661h-158.92c-14.04 19.21 5.685 19.12 76.75 34.886l-12.404 34.886-317.07.775c21.362-74.6 9.303-69.944 105.43-69.772zm-115.37 144.44l310.26-.55-89.67 240.95zm347.67 14.303l-88.02 231.05 192.54.55z"/></g></svg>