<svg xmlns="http://www.w3.org/2000/svg" viewBox="0 0 16 16"><g transform="translate(0-1036.36)"><rect width="15.5" x=".25" y="1036.61" fill="#f0c900" rx="1.657" height="10.5" stroke="#000" stroke-width=".5"/><g transform="matrix(.86369 0 0 .86369 1.09 137.1)"><path d="m6.814 1047.79q0 .9-.28 1.57-.28.66-.79 1.1-.51.43-1.22.65-.71.21-1.56.21-.42 0-.93-.04-.5-.03-.91-.13v-6.72q.41-.1.91-.13.51-.04.93-.04.85 0 1.56.22.71.21 1.22.65.51.43.79 1.1.28.66.28 1.56m-3.77 2.68q1.38 0 2.06-.7.68-.71.68-1.98 0-1.27-.68-1.97-.68-.71-2.06-.71-.41 0-.64.01-.22.01-.31.02v5.3q.09.01.31.02.23.01.64.01"/><path d="m9.123 1051.26h-.93v-5.2h.93zm-.47-6.14q-.25 0-.43-.16-.17-.17-.17-.45 0-.28.17-.44.18-.17.43-.17.25 0 .42.17.18.16.18.44 0 .28-.18.45-.17.16-.42.16"/><path d="m14.872 1051.11q-.32.08-.85.17-.52.09-1.21.09-.6 0-1.01-.17-.41-.18-.66-.5-.25-.32-.36-.75-.11-.44-.11-.97v-2.92h.93v2.72q0 .95.3 1.36.3.41 1.01.41.15 0 .31-.01.16-.01.3-.02.14-.02.25-.03.12-.02.17-.04v-4.39h.93z"/></g><path d="m7 1047.36h2v5h-2z"/></g></svg>