<svg xmlns="http://www.w3.org/2000/svg" viewBox="0 0 480 480"><g fill-rule="evenodd"><path fill="#fff" stroke="#000" stroke-width="2" d="m30.856 5.772h420c10.816.791 23.07 11.844 23.666 24.865v418.81c.05 10.319-11.794 24.19-25.16 24.865h-419.41c-9.524-.583-24.431-15.379-24.865-25.16l.599-418.21c-1.082-6.302 14.286-25.298 25.16-25.16z"/><path fill="#039" d="m35.19 16.781c-11.761-.515-18.473 7.519-18.03 20.375v406.41c.047 8.667 3.728 19.07 15.688 19.281l414.44-.031c11.959-.211 15.672-10.614 15.719-19.281v-406.44c.442-12.856-6.271-20.89-18.03-20.375z"/><path fill="#fff" d="m209.01 465.74v-261.55l-79.31-.045-.045-74.49h220.69l.045 74.54-79.26-.045.045 261.59z"/><path fill="#c00" d="m136.53 136.5h207.01l-.08 60.16h-206.95z"/></g></svg>