<svg xmlns="http://www.w3.org/2000/svg" viewBox="0 0 725 725"><circle fill="#fff" cx="362.5" cy="362.5" stroke="#000" r="350" stroke-width="2.5"/><path fill="#039" d="m-176.31 369.67c0 170.78-138.44 309.22-309.22 309.22-170.78 0-309.22-138.44-309.22-309.22 0-170.78 138.44-309.22 309.22-309.22 170.78 0 309.22 138.44 309.22 309.22" transform="matrix(1.06121 0 0 1.06121 877.75-29.796)"/><g fill="#fff" transform="matrix(2.71584 0 0 2.71584 681.43-1419.77)"><g fill-rule="evenodd"><path d="m-162.26 695.79h10.46v41.09c0 4.069-10.09 3.497-10.09 0z"/><path d="m-147.82 695.79h10.46v50.06c0 6.06-10.09 5.861-10.09 0z"/><path d="m-185.87 691.93c2.98-14.394 5.062-27.09 25.23-46.09v-28.792l-3.566-.925c-3.305 11.524-3.137 22.13.032 33.16-1.655 1.662-3.213 3.419-4.786 5.162-3.377-1.678-3.724-6.925-5.415-11.638l-2.065-13.02 1.933-10.884c3.579-8.02 5.815-16.382 19.679-21.66l8.321-.132c16.02 2.775 19.08 14.162 25.01 25.384 7.164 13.554 15.613 25.603 7.481 30.35 9.01 5.868 13.73 16.03 27.07 17.566 6.37.656 9.686-1.232 14.528-1.849l23.11 27.999c1.098 7.186-1.558 8.116-4.094 9.245l-15.585-18.622 5.415 27.471h-7.66l4.887 29.06c0 2.788-9.377 3.523-9.377.528l-4.755-26.811-6.556-.073-2.954 30.714c0 3.156-8.453 2.583-8.453 0l3.698-65.24-26.943-24.83c-3.106-5.494-.845-7.2 0-9.905-3.784-11.315-10.206-21.312-15.32-31.961h-1.849l.132 29.848c21.62 18.688 22.377 31.655 25.23 46.36z"/></g><path d="m-135.36 575.69c.003 7.739-6.27 14.01-14.01 14.01-7.739 0-14.01-6.275-14.01-14.01-.003-7.739 6.27-14.01 14.01-14.01 7.739 0 14.01 6.275 14.01 14.01"/><path d="m-72.793 650.59c.003 6.913-5.601 12.519-12.514 12.519-6.913 0-12.517-5.606-12.514-12.519-.003-6.913 5.601-12.519 12.514-12.519 6.913 0 12.517 5.606 12.514 12.519"/></g></svg>