<svg xmlns="http://www.w3.org/2000/svg" viewBox="0 0 725 725"><circle fill="#fff" cx="362.5" cy="362.5" stroke="#000" r="350" stroke-width="2.5"/><circle fill="none" cx="362.5" cy="362.5" stroke="#c00" r="290" stroke-width="93.75"/><g transform="matrix(.59466 0 0 .59466 244.08 120.64)"><circle cx="188" cy="105" r="56"/><path d="m22 427c151.67-236.67 137.33-243.33 194-245 33 1 34 10 90 54 69 50.667 64 51.33 63 107-.333 67 4.333 62-49 87v-113l-47-42v159l-112-1-1-126c-92 142-86 134-138 120m141 23h109c0 25 8 23 66 132 61 112.33 62 104.67 27 169l-151-271c-143 276.67-125 268.33-204 263l79-148c67.67-122.33 71.33-122.67 74-145"/></g></svg>