<svg xmlns="http://www.w3.org/2000/svg" viewBox="0 0 725 725"><circle fill="#fff" cx="362.5" cy="362.5" stroke="#000" r="350" stroke-width="2.5"/><circle fill="none" cx="362.5" cy="362.5" stroke="#c00" r="290" stroke-width="93.75"/><g transform="matrix(.43687 0 0 .43687 143.87 253.03)"><path fill-rule="evenodd" d="m295.78 86.82v248.27l391.93.321c-23 18.791-37.36 44.691-37.17 78.69l-389.07-.231c-3.727-131.88-190.84-131.43-194.9-.762-28.1-.21-32-6.592-32.27-32.48v-99c-.353-44.24-5.878-15.04 26.872-98.93 33.698-89.43 24.408-81.17 54.888-83.48zm-77.85 146.38l1.551-105.48-100.05 6.205c-18.24 1.222-18.391 1.336-24.819 22.492l-25.594 68.25c-8.598 20.934-7.23 27.1 16.287 24.04zm748.7 102.39l.191 55.777-64.61 22.87-56.727-.036c.231-32.34-13.21-59.54-37.04-78.65z"/><path d="m335.83 12.159h631.32v301.7h-631.32z"/><circle cx="164" cy="412" r="77"/><circle cx="748" cy="412" r="77"/></g></svg>