<svg xmlns="http://www.w3.org/2000/svg" viewBox="0 0 725 725"><circle fill="#fff" cx="362.5" cy="362.5" stroke="#000" r="350" stroke-width="2.5"/><circle fill="none" cx="362.5" cy="362.5" stroke="#c00" r="290" stroke-width="93.75"/><g transform="matrix(.9761 0 0 .9761 169.01 171.49)"><path fill-rule="evenodd" d="m52.41 38.867l.5 23.75-46.47 52.53 11.625 12.13 53.03-11.125 23.22 39.906c-10.196 24.395-1.453 35.56 4.063 52.03l-57.59 36.34v80.31l20.719-11.125-.5-54.53 47.969-26.28 44.938 102.03-3.938 20.375 20.625.344 3.03-20.22-35.875-104.03c34.16 9.65 68.63 11.434 103.56 0l33.813 60.09-34.406 63.719 23.813.531 35.875-66.25-7.594-50.53 52.53 41.44-11.625 70.19 23.25-6.06 11.09-71.72-29.781-51c4.247-25.998-1.24-45.733-12.313-59.12l10.594-9.188c17.821-6.188 28.623.321 34.844 15.13l6 36.719 30.28-15.563-8.094-29.22c-10.03-26.22-40.11-44.06-73.813-20.12 0 0-10.702 10.902-11.969 11.375-17.862-11.738-42.45-13.412-65.59-4.844l-4.063.031c7.3-3.733 7.707-13.161 5.219-20.16l-35.844-62.13c-13.743-16.07-46.659-1.319-40.41 22.25l4.688 8.688-31.625 14.875c-15.987-28.23-32.748-55.978-77.62-55.906zm134.81 74.72l11.75 19.719-27.969 13.906h-.406c-4.977-5.383-9.295-11.435-13.313-17.813z"/><path d="m241.43 621.29c0 12.92-10.473 23.393-23.393 23.393-12.92 0-23.393-10.473-23.393-23.393 0-12.92 10.473-23.393 23.393-23.393 12.92 0 23.393 10.473 23.393 23.393" transform="translate(-40.444-589.04)"/></g></svg>