<svg xmlns="http://www.w3.org/2000/svg" viewBox="0 0 725 725"><circle fill="#fff" cx="362.5" cy="362.5" stroke="#000" r="350" stroke-width="2.5"/><circle fill="none" cx="362.5" cy="362.5" stroke="#c00" r="290" stroke-width="93.75"/><path d="m269.38 421.15v4.404c0 1.707-.062 3.598-.184 5.673-.123 2.076-.55 4.947-1.28 8.613-3.421 11.723-9.893 21.247-19.417 28.572-9.524 7.326-20.39 10.988-32.596 10.988-9.77 0-18.929-2.931-27.477-8.792-8.548-5.861-14.163-11.905-16.846-18.13-2.683-6.226-4.453-11.232-5.31-15.02-.857-3.786-1.286-9.222-1.286-16.309v-14.275h34.799v11.346c0 2.936.061 5.807.184 8.613.123 2.806 1.405 6.346 3.845 10.62 2.441 4.274 6.836 6.411 13.185 6.411 6.349 0 10.867-2.137 13.554-6.411 2.686-4.274 4.03-9.708 4.03-16.304v-37.727c0-6.103-1.464-10.375-4.393-12.816-2.929-2.441-5.798-3.905-8.607-4.393-2.81-.488-5.802-.732-8.976-.732h-6.226v-30.774h6.226c14.651 0 21.977-6.837 21.977-20.512v-29.3c0-3.42-.183-5.924-.548-7.512-.365-1.587-1.83-4.03-4.393-7.327-2.564-3.297-6.532-4.946-11.905-4.946-6.103 0-10.621 1.832-13.554 5.494-2.933 3.663-4.399 8.427-4.399 14.292v17.941h-34.799v-17.941c0-15.389 4.945-28.27 14.834-38.65 9.889-10.377 22.528-15.566 37.917-15.566 8.548 0 16.79 2.199 24.727 6.595 7.937 4.397 13.796 9.526 17.578 15.387 3.782 5.861 6.284 11.294 7.506 16.298 1.222 5 1.833 10.316 1.833 15.935v28.572c0 15.874-6.961 27.961-20.881 36.26 7.817 5.373 13.252 10.806 16.304 16.298 3.052 5.492 4.577 12.878 4.578 22.16z"/><g fill-rule="evenodd"><g transform="matrix(0-1 1 0-.607 724.39)"><path d="m186.83 361.44l-50.11-86.08c-23.14 56.47-20.451 127.99 0 174.28z"/><path d="m536.95 361.44l50.11-86.08c23.14 56.47 20.451 127.99 0 174.28z"/></g><path d="m432.43 477.15l.107-123.63 25.49-.107-.107 11.124c14.738-20.356 32.555-12.946 44.507-2.297 12.322-9.441 39.501-23.418 54.03 17.03v98.06h-26.492v-91.22c-.322-2.317-3.401-7.251-6.248-7.346l-10.449.474c-3.266-.09-5.904 3.531-5.989 6.978l-.107 91.1-26.531-.107.214-91.22c.06-2.704-4.325-7.396-6.918-7.324l-10.201.413c-1.795.121-6.228 5.05-5.918 6.803v91.16z"/><path fill-opacity=".75" d="m282.55 450.95h25.13v25.806l-25 18.654z"/></g><path d="m403.66 442.05c0 5.223-1.306 10.707-3.917 16.453-2.611 5.746-6.878 10.665-12.799 14.756-5.921 4.091-12.362 6.137-19.322 6.137-7.486 0-14.364-1.915-20.633-5.746-6.269-3.831-10.536-8.14-12.799-12.927-2.263-4.787-3.655-8.748-4.176-11.883-.521-3.135-.781-6.357-.781-9.667v-30.555c0-4.697 1.088-8.917 3.264-12.66 2.176-3.743 5.267-7.094 9.273-10.05-8.357-6.269-12.536-14.887-12.536-25.853v-23.502c0-3.31.652-6.662 1.957-10.06 1.304-3.395 4.438-8.313 9.4-14.756 4.962-6.442 13.798-9.663 26.507-9.663 4.877 0 9.492 1 13.843 3 4.351 2 9.226 5.834 14.624 11.492 5.398 5.659 8.097 13.275 8.097 22.849v22.458c0 10.1-4.179 18.11-12.536 24.03 8.357 5.744 12.536 13.926 12.536 24.546zm-37.08-115.17c-3.655 0-6.702 1.219-9.141 3.658-2.439 2.439-3.658 5.398-3.658 8.878v22.458c0 4.01 1.088 7.445 3.264 10.317 2.176 2.872 5.267 4.308 9.273 4.308 4.351 0 7.529-1.349 9.532-4.049 2-2.699 3-6.224 3-10.576v-22.458c0-3.31-1.176-6.227-3.527-8.751-2.351-2.524-5.267-3.785-8.747-3.786m0 68.42c-3.831 0-6.922 1.263-9.273 3.79-2.351 2.526-3.527 5.702-3.527 9.528v30.555c0 4.527 1.044 8.183 3.132 10.97 2.088 2.787 5.483 4.18 10.185 4.18 4.527 0 7.618-1.48 9.273-4.439 1.655-2.959 2.482-6.53 2.483-10.711v-30.555c0-3.825-1.088-7-3.264-9.528-2.176-2.526-5.179-3.789-9.01-3.79"/></svg>