<svg xmlns="http://www.w3.org/2000/svg" viewBox="0 0 725 725"><circle fill="#fff" cx="362.5" cy="362.5" stroke="#000" r="350" stroke-width="2.5"/><circle fill="none" cx="362.5" cy="362.5" stroke="#c00" r="290" stroke-width="93.75"/><g fill-rule="evenodd"><path d="m213.03 432.5l-42.19 42.19 42.22 42.38 25.09-.313-31.5-32.16h60.44l-.031-19.656h-60.44l31.5-32.12z"/><path d="m511.47 432.54l42.19 42.19-42.22 42.38-25.09-.313 31.5-32.16h-60.44l.031-19.656h60.44l-31.5-32.12z"/></g><path d="m292.74 507.1v-61.49l-10.298 7.512v-10.995l10.298-7.512h10.398v72.48z" transform="scale(.99319 1.0069)"/><path d="m348.34 489.64v-30.795c0-3.482-.937-6.202-2.811-8.159-1.874-1.957-4.336-2.935-7.388-2.935-3.084 0-5.555.978-7.413 2.935-1.857 1.957-2.786 4.676-2.786 8.159v30.795c0 3.516.929 6.244 2.786 8.184 1.857 1.94 4.328 2.91 7.413 2.91 3.051 0 5.514-.97 7.388-2.91 1.874-1.94 2.811-4.668 2.811-8.184m-30.795.597v-31.989c0-6.666 2.089-11.815 6.268-15.447 4.179-3.632 8.955-5.447 14.328-5.448 5.34 0 10.11 1.816 14.303 5.448 4.195 3.632 6.293 8.781 6.293 15.447v31.989c0 6.666-2.098 11.807-6.293 15.422-4.196 3.615-8.963 5.423-14.303 5.423-5.373 0-10.149-1.808-14.328-5.423-4.179-3.615-6.268-8.756-6.268-15.422"/><path d="m371.94 510.99v-51.64h10.398v5.522h.199c3.283-4.079 7.761-6.119 13.432-6.119 3.615 0 6.484.647 8.607 1.94 2.123 1.294 4.113 2.885 5.97 4.776 4.079-4.477 9.519-6.716 16.318-6.716 4.01 0 7.885 1.526 11.616 4.577 3.731 3.051 5.597 7.496 5.597 13.333v34.33h-10.398v-30.745c0-3.482-.978-6.202-2.935-8.159-1.957-1.957-4.378-2.935-7.263-2.935-2.985 0-5.448.978-7.388 2.935-1.94 1.957-2.91 4.676-2.91 8.159v30.745h-10.348v-30.745c0-3.482-.978-6.202-2.935-8.159-1.957-1.957-4.378-2.935-7.263-2.935-2.985 0-5.448.978-7.388 2.935-1.94 1.957-2.91 4.676-2.91 8.159v30.745z"/><g transform="matrix(.40005 0 0 .40005 143.84 217.21)"><path fill-rule="evenodd" d="m295.78 86.82v248.27l391.93.321c-23 18.791-37.36 44.691-37.17 78.69l-389.07-.231c-3.727-131.88-190.84-131.43-194.9-.762-28.1-.21-32-6.592-32.27-32.48v-99c-.353-44.24-5.878-15.04 26.872-98.93 33.698-89.43 24.408-81.17 54.888-83.48zm-77.85 146.38l1.551-105.48-100.05 6.205c-18.24 1.222-18.391 1.336-24.819 22.492l-25.594 68.25c-8.598 20.934-7.23 27.1 16.287 24.04zm748.7 102.39l.191 55.777-64.61 22.87-56.727-.036c.231-32.34-13.21-59.54-37.04-78.65z"/><path d="m335.83 12.159h631.32v301.7h-631.32z"/><circle cx="164" cy="412" r="77"/><circle cx="748" cy="412" r="77"/></g></svg>