<svg xmlns="http://www.w3.org/2000/svg" viewBox="0 0 600 600"><g transform="translate(1.375 11.861)"><path fill="#fffefe" fill-rule="evenodd" stroke="#000" d="m590.69 288.08c-.897-147.42-109.28-271.35-255.71-289.5-166.95-21.351-316.84 103.6-327.87 271.14-10.13 168.36 123 309.58 291.58 310.35 161.98-1.036 290.88-129.97 292-292"/><path d="m590.69 288.08l-.834-18.354m0 0l-4.589-36.29m0 0l-9.177-35.457m0 0l-13.349-34.21m0 0l-17.52-32.12m0 0l-21.691-29.617m0 0l-25.03-26.697m0 0l-28.366-23.36m0 0l-30.869-19.606m0 0l-32.954-15.851m0 0l-35.04-11.263m0 0l-36.29-6.674m0 0l-36.29-2.503m0 0l-36.709 2.503m0 0l-35.874 6.674m0 0l-35.04 11.263m0 0l-32.954 15.851m0 0l-30.869 19.606m0 0l-28.366 23.36m0 0l-25.03 26.697m0 0l-21.691 29.617m0 0l-17.52 32.12m0 0l-13.766 34.21m0 0l-9.177 35.457m0 0l-4.589 36.29m0 0v36.709m0 0l4.589 36.29m0 0l9.177 35.457m0 0l13.766 34.21m0 0l17.52 32.12m0 0l21.691 29.617m0 0l25.03 26.697m0 0l28.366 23.36m0 0l30.869 19.606m0 0l32.954 15.434m0 0l35.04 11.68m0 0l35.874 6.674m0 0l36.709 2.503m0 0l36.29-2.503m0 0l36.29-6.674m0 0l35.04-11.68m0 0l32.954-15.434m0 0l30.869-19.606m0 0l28.366-23.36m0 0l25.03-26.697m0 0l21.691-29.617m0 0l17.52-32.12m0 0l13.349-34.21m0 0l9.177-35.457m0 0l4.589-36.29m0 0l.834-18.354"/><g fill-rule="evenodd"><path d="m580.68 288.08c.459-141.72-105.99-262.32-246.53-279.9-161.17-20.774-307.25 100.23-317.03 262.38-10.408 161.64 119.3 300.25 281.57 299.51 155.41.598 282.32-126.75 281.99-281.99"/><g fill="#fffefe"><path d="m445.52 64.49c-247.67-153.94-524.36 122.75-370.42 370.42l370.42-370.42"/><path d="m456.78 71.997l4.171 3.337 3.754 2.92-375.85 375.85-2.92-3.754-3.337-4.171 374.18-374.18"/><path d="m475.56 87.01l3.754 3.754 3.754 3.337-378.35 378.35-3.337-3.754-3.754-3.754 377.93-377.93"/><path d="m499.33 111.21l-6.674-7.509-378.35 378.35 7.509 6.674 377.51-377.51"/><path d="m514.77 129.98l-3.337-4.171-2.92-4.171-376.26 376.26 4.171 2.92 4.171 3.337 374.18-374.18"/><path d="m522.28 141.24c153.91 247.4-123.02 524.34-370.42 370.42l370.42-370.42"/></g><path fill="#999" d="m204 145h46.3l-61.32 122.64c16.804-6.487 36.12-7.06 52.56.834l-31.703 31.29c-33.16-7.974-56.06 18.904-51.726 51.726l-33.789 33.789c-6.334-14.517-7.96-30.618-7.091-46.3v-3.754l.834-7.509 1.251-7.091 2.086-7.509 2.92-7.091 1.669-3.337zm-66.33 260.71l-1.669-2.086-3.337-3.754-1.251-2.503 30.03-29.617.834 1.251 1.251 3.337 2.086 2.92.834 1.251zm18.354 15.434l-2.503-1.251-4.171-2.92-2.086-1.669 29.2-29.2 8.343 4.171 1.669.417zm23.36 10.01l-2.503-.834-5.423-1.669-2.92-.834 35.457-35.457 2.086-.417 4.589-.834 8.343-3.337 3.754-2.503 3.754-2.92 5.84-6.674 2.503-4.171 2.086-3.754 1.251-4.589 1.251-4.171.417-2.503 40.05-40.05.417 3.337.417 5.84v4.171zm32.537 1.251l-7.509 1.251h-7.926l84.26-84.26v5.84l-.417 6.257-.417 3.337zm30.869-11.68l25.446-25.03c-6.417 10.144-15.212 18.751-25.446 25.03m-2.92-83.43v-2.086l-.834-4.171-.834-3.754-.834-2.086 32.537-32.537 1.669 2.086 2.503 5.01 1.251 2.086zm-9.594-24.19l-.834-1.669-2.503-2.503-2.503-2.086-1.251-.834 30.451-30.451 2.086 1.251 3.754 3.337 2.086 1.669zm98.86-132.65c7.474-11.68 14.572-17.45 25.446-25.446zm-12.514 46.3v-5.84l.417-6.257.417-3.337 67.994-67.994 2.503-.417 5.01-.417h7.926zm0 33.789v-14.183l100.95-101.37 2.92.834 5.423 1.669 2.92.834-35.457 35.457h-2.086l-4.589 1.251-8.343 3.337-3.754 2.503-3.754 2.92-5.84 6.674-2.503 3.754-2.086 4.171-1.251 4.589-1.251 4.171-.417 2.086zm0 33.789v-14.6l40.88-40.88v14.6zm0 33.371v-14.183l40.88-40.88v14.6zm0 19.606l40.88-40.88c-2.475 36.743-7.279 82.67 40.88 86.35 12.03-.028 23.833-5.527 31.29-15.02l2.92-4.171 2.503-4.171 2.086-5.01 1.251-5.01.417-5.01.417-2.503v-127.23l33.789-33.789 1.669 3.754 2.503 8.343 1.669 8.343.834 8.76.417 4.171v127.65l-.417 5.01-1.251 10.429c-5.312 27.531-23.93 50.18-50.06 60.49-55.751 21.796-115.05-20.843-111.79-80.51m119.3-138.91l-.834-1.669-1.251-2.92-2.086-2.92-.834-1.669 28.783-28.783 1.669 1.669 2.92 4.171 1.669 2.086zm-15.434-18.354l-1.251-.834-6.674-3.337-1.669-.417 30.451-30.451 2.086 1.251 4.589 2.92 2.086 1.669-29.617 29.2"/></g></g></svg>