<svg xmlns="http://www.w3.org/2000/svg" viewBox="0 0 16 16"><g transform="translate(0-1036.36)"><circle fill="#fff" cx="8" cy="1044.36" r="8"/><path fill="none" stroke="#000" stroke-width=".924" d="m11.635 1042.82v3.226c0 .733-.662 1.173-1.395 1.173-.733 0-1.391-.44-1.391-1.173 0-.733 0-2.467 0-3.226 0-.733.658-1.32 1.391-1.32.733 0 1.395.587 1.395 1.32z"/><path fill-rule="evenodd" d="m5.838 4.736l-1.797 3.594c-.066.167-.215.534-.215.838-.03.569.091 1.014.447 1.477.727.826 1.934.918 2.752.174.672-.537.732-1.949.355-2.643-.413-.674-1.158-.924-1.896-.65l1.4-2.789zm-.031 3.498c.48.045.929.45.836 1.221-.07 1.328-2.03 1.23-1.863-.287.034-.664.547-.979 1.027-.934" transform="translate(0 1036.36)"/><ellipse fill="none" cx="8" cy="1044.36" rx="6.581" ry="6.581" stroke="#c1121c" stroke-linecap="round" stroke-width="2"/></g></svg>