<svg xmlns="http://www.w3.org/2000/svg" viewBox="0 0 725 725"><circle fill="#fff" cx="362.5" cy="362.5" stroke="#000" r="350" stroke-width="2.5"/><circle fill="none" cx="362.5" cy="362.5" stroke="#c00" r="290" stroke-width="93.75"/><g fill-rule="evenodd"><path d="m294.05 221.14h-110.79l-.164 145.11h34.612c0-19.721 36.781-20.403 36.781 0v72.51c0 6.267-11.366 13.64-13.995 13.77l-10.175-.052c-2.625 0-12.698-5.685-12.665-13.144l.053-17.15h-39.558l.161 21.61c0 16.04 23.962 48.774 47.1 48.774l19.871-.35c23.22 0 49.22-30.967 49-48.42l.161-86.08c0-38.16-55.06-51.745-76.53-30.27l-.338-68.28 76.78.164z"/><path d="m495.56 294.88l-.126 45.15-14.851.126v25.877h14.914l.126 95.36c0 12.586 18.42 29.637 27.24 29.637h22.969l-.253-29.16-11.594.126c-3.486 0-7.34-2.541-7.34-5.77v-90.09l18.967-.126v-25.877h-19.15l.126-45.18z"/><path d="m455.5 280.06h-86.986l-.129 113.93h27.18c0-15.484 28.878-16.02 28.878 0v56.933c0 4.921-8.924 10.709-10.988 10.811l-7.989-.041c-2.061 0-9.969-4.464-9.944-10.32l.041-13.463h-31.06l.126 16.967c0 12.597 18.814 38.29 36.984 38.29l15.602-.275c18.231 0 38.642-24.313 38.476-38.02l.126-67.59c0-29.958-43.23-40.627-60.09-23.764l-.265-53.608 60.28.129z"/><path d="m311.31 459.93l31.22-.145v31.959l-31.19 23.01z"/></g></svg>