<svg xmlns="http://www.w3.org/2000/svg" viewBox="0 0 725 725"><circle fill="#fff" cx="362.5" cy="362.5" stroke="#000" r="350" stroke-width="2.5"/><circle fill="none" cx="362.5" cy="362.5" stroke="#c00" r="290" stroke-width="93.75"/><g fill-rule="evenodd"><path d="m373.67 530.13l-144.37-.235v-45.17l94.8-183.16.47-41.82c0-28.377-46.02-28.08-46.02 0v31.406l-49.44-.235.235-36.98c13.404-85.18 131.63-82.72 144.79.705l-.705 46.952-84.981 180.54h84.9z"/><path d="m186.83 361.44l-50.11-86.08c-23.14 56.47-20.451 127.99 0 174.28z"/><path d="m536.95 361.44l50.11-86.08c23.14 56.47 20.451 127.99 0 174.28z"/><path d="m405.38 529.94l.089-102.92 21.22-.089-.089 9.261c12.269-16.946 27.1-10.778 37.05-1.912 10.258-7.86 32.884-19.495 44.976 14.179v81.63h-22.05v-75.943c-.268-1.929-2.831-6.04-5.202-6.115l-8.699.395c-2.719-.075-4.915 2.94-4.986 5.81l-.089 75.838-22.09-.089.178-75.943c.05-2.251-3.6-6.157-5.759-6.097l-8.492.344c-1.495.101-5.185 4.202-4.927 5.664v75.887z"/></g></svg>