<svg xmlns="http://www.w3.org/2000/svg" viewBox="0 0 725 725"><circle fill="#fff" cx="362.5" cy="362.5" stroke="#000" r="350" stroke-width="2.5"/><circle fill="#039" cx="362.5" cy="362.5" r="290" transform="matrix(1.16273 0 0 1.16273-58.989-58.989)"/><g fill="#fff"><path d="m210.53 379.04v-45.07h17.637c16.984 0 30.416-4.776 40.3-14.33 9.88-9.553 14.82-21.679 14.82-36.38 0-14.534-5.144-26.782-15.432-36.744-10.288-9.961-22.536-14.942-36.744-14.943-10.778 0-20.985 3.593-30.62 10.778-9.635 7.186-15.841 17.964-18.617 32.33h-51.2c1.96-25.15 12.493-47.15 31.6-66.02 19.11-18.862 41.4-28.29 66.874-28.29 31.845 0 57.36 10.493 76.55 31.477 19.19 20.985 28.783 44.46 28.783 70.43 0 13.718-2.695 27.07-8.08 40.05-5.389 12.983-15.433 24.21-30.13 33.682 15.02 9.635 25.802 21.475 32.33 35.519 6.532 14.04 9.798 28.25 9.798 42.623 0 33.31-10.452 59.852-31.355 79.61-20.903 19.76-46.542 29.64-76.917 29.64-24.17 0-45.93-7.798-65.28-23.394-19.352-15.596-31.396-38.34-36.13-68.22h51.2c4.736 12.248 11.1 22.09 19.11 29.518 8 7.43 19.352 11.146 34.05 11.146 14.208 0 26.782-5.02 37.724-15.07 10.941-10.04 16.412-23.883 16.412-41.521 0-17.8-5.43-31.722-16.29-41.766-10.86-10.04-23.802-15.06-38.826-15.07z"/><path d="m538.95 437.67v-151.63c0-17.15-4.614-30.538-13.84-40.17-9.227-9.635-21.352-14.452-36.38-14.453-15.188 0-27.354 4.818-36.499 14.453-9.145 9.635-13.718 23.03-13.718 40.17v151.63c0 17.311 4.572 30.742 13.718 40.3 9.145 9.553 21.311 14.33 36.499 14.33 15.02 0 27.15-4.777 36.38-14.33 9.227-9.553 13.84-22.985 13.84-40.3m-151.63 2.94v-157.51c0-32.824 10.288-58.18 30.865-76.06 20.577-17.882 44.09-26.823 70.55-26.823 26.292 0 49.767 8.941 70.43 26.823 20.658 17.882 30.987 43.24 30.987 76.06v157.51c0 32.825-10.329 58.14-30.987 75.937-20.658 17.8-44.13 26.701-70.43 26.701-26.456 0-49.972-8.9-70.55-26.701-20.577-17.8-30.865-43.11-30.865-75.937"/></g></svg>