<svg xmlns="http://www.w3.org/2000/svg" viewBox="0 0 725 725" xmlns:xlink="http://www.w3.org/1999/xlink"><defs><path id="a" d="m566.17 231.14c.01 23.854-19.324 43.2-43.18 43.2-23.854 0-43.19-19.343-43.18-43.2-.01-23.854 19.324-43.2 43.18-43.2 23.854 0 43.19 19.343 43.18 43.2"/></defs><circle fill="#fff" cx="362.5" cy="362.5" stroke="#000" r="350" stroke-width="2.5"/><circle fill="none" cx="362.5" cy="362.5" stroke="#c00" r="295" stroke-width="83.75"/><g transform="matrix(.69356 0 0 .69356 127.67 265.37)"><path fill-rule="evenodd" d="m31.761 26.619l-.455-20.905c.448-1.405.688-3.02 2.603-2.955l594.8-.382c26.983 5.37 32.33 75.58 46.29 114.77v85c-6.798 15.976-14.14 17.283-21.429 20l-88.57-.714c0-77.23-117.14-76.8-117.14 0h-237.86c0-76.946-114.29-76.967-114.29 0h-82.14c-3.893-1.142-6.547-4.763-8.929-8.929l.954-76.21 34.78-100.38c1.211-6.668-5.741-6.193-8.615-9.286"/><use xlink:href="#a" transform="matrix(1.08125 0 0 1.08125-58.954-28.23)"/><use xlink:href="#a" transform="matrix(1.08125 0 0 1.08125-412.2-27.955)"/><g fill="#fff" fill-rule="evenodd"><path d="m531.62 40.718l20.525 69.973c1.208 2.854 2.394 5.725 5.738 6.917l71.16-.175c2.839-2.473 5.765-4.785 6.211-9.89l-20.16-69.957c-1.647-5.519-3.918-7.091-6.286-8.04l-72.52.091c-3.535 2.111-4.777 6.06-4.667 11.08"/><path d="m429.4 40.586l20.525 69.973c1.208 2.854 2.394 5.725 5.738 6.917l71.16-.175c2.839-2.473 5.765-4.785 6.211-9.89l-20.16-69.957c-1.647-5.519-3.918-7.091-6.286-8.04l-72.52.091c-3.535 2.111-4.777 6.06-4.667 11.08"/><path d="m327.99 40.586l20.525 69.973c1.208 2.854 2.394 5.725 5.738 6.917l71.16-.175c2.839-2.473 5.765-4.785 6.211-9.89l-20.16-69.957c-1.647-5.519-3.918-7.091-6.286-8.04l-72.52.091c-3.535 2.111-4.777 6.06-4.667 11.08"/><path d="m227.17 40.586l20.525 69.973c1.208 2.854 2.394 5.725 5.739 6.917l71.16-.175c2.839-2.473 5.765-4.785 6.211-9.89l-20.16-69.957c-1.647-5.519-3.918-7.091-6.286-8.04l-72.52.091c-3.535 2.111-4.777 6.06-4.667 11.08"/><path d="m142.51 35.695l-.012 75.27c1.208 2.854 3.307 5.542 6.651 6.735l73.898-.266c2.839-2.473 5.765-4.785 6.211-9.89l-20.16-69.957c-1.647-5.519-3.918-7.091-6.286-8.04l-54.813-.091c-3.535 2.111-4.321 2.132-5.488 6.246"/><path d="m124.82 37.998l-.13 72.813c-1.208 2.854-2.394 5.725-5.739 6.917l-83.68-.433c-2.839-2.473-5.765-4.785-6.211-9.89l25.07-69.7c1.647-5.519 3.918-7.091 6.286-8.04l59.742.22c3.535 2.111 4.777 3.088 4.667 8.115"/></g></g></svg>