<svg xmlns="http://www.w3.org/2000/svg" viewBox="0 0 16 16"><g transform="translate(0-1036.36)"><ellipse fill="#fff" cx="-8" cy="1044.36" rx="7.972" ry="7.972" stroke="#000" stroke-width=".057" transform="scale(-1 1)"/><path fill="#00f" d="m.526229 1044.362a7.473766 7.473767 0 0 0 14.947531 0 7.473766 7.473767 0 1 0 -14.947531 0"/><g fill="#fff" fill-rule="evenodd"><path d="m12.799 1046l-1.879-1.911.009-1.115 1.383 1.352c.046-2.163-1.817-3.98-3.566-4.214l.155-.936c3.072.608 4.309 3.01 4.368 5.142l1.396-1.357.006 1.16z"/><path d="m4.18 1047.7l2.597-.661.959.569-1.865.514c1.846 1.129 4.354.434 5.437-.96l.731.605c-2.072 2.348-4.77 2.208-6.642 1.185l.47 1.89-1.01-.579z"/><path d="m7.02 1039.41l-.732 2.578-.974.544.492-1.871c-1.903 1.03-2.562 3.547-1.9 5.183l-.89.328c-.99-2.971.486-5.233 2.31-6.339l-1.87-.543 1.01-.579z"/></g></g></svg>