<svg xmlns="http://www.w3.org/2000/svg" viewBox="0 0 16 16"><g transform="translate(0-1036.36)"><path fill="#fff" d="m.339 1048.01c-.184-.184-.339-.557-.339-.815v-5.676c0-.258.155-.631.339-.815l4.01-4.01c.183-.183.559-.338.82-.338h5.662c.261 0 .636.155.82.338l4.01 4.01c.184.184.339.557.339.815v5.676c0 .258-.155.631-.339.815l-4.01 4.01c-.184.183-.559.338-.82.338h-5.662c-.261 0-.636-.155-.82-.338z"/><path fill="#ee1c23" d="m.97 1047.26v-5.824l4.118-4.118h5.823l4.118 4.118v5.824l-4.118 4.118h-5.823l-4.118-4.118"/><g fill="#fff"><path d="m8.03 1042.77c0-.977.751-1.465 1.459-1.465.708 0 1.459.488 1.459 1.465v3.166c0 .977-.751 1.465-1.459 1.465-.708 0-1.459-.488-1.459-1.465zm.87 3.166c0 .413.273.606.588.606.316 0 .589-.193.589-.606v-3.166c0-.413-.273-.606-.589-.606-.316 0-.588.194-.588.606v3.166"/><path d="m11.911 1041.34h1.305c.478 0 .828.109 1.126.421.299.311.392.69.392 1.406 0 .522-.043.992-.247 1.32-.239.387-.623.623-1.262.623h-.444v2.224h-.87zm.87 2.962h.418c.708 0 .717-.529.717-1.127 0-.564 0-1.027-.682-1.027h-.452v2.154"/><path d="m6.02 1042.16h-.918v-.808h2.706v.808h-.918v5.186h-.87v-5.186"/><path d="m3.444 1044.69c-.708 0-1.424-.486-1.424-1.463v-.488c0-.976.751-1.465 1.459-1.465.708 0 1.459.488 1.459 1.465h-.87c0-.412-.273-.606-.588-.606-.316 0-.589.194-.589.606v.488c0 .412.238.603.554.603l.052.011c.708 0 1.433.482 1.433 1.459v.663c0 .977-.751 1.465-1.459 1.465-.708 0-1.459-.488-1.459-1.465h.87c0 .413.273.606.589.606.316 0 .588-.193.588-.606v-.663c0-.412-.273-.606-.588-.606h-.026"/></g></g></svg>