<svg xmlns="http://www.w3.org/2000/svg" viewBox="0 0 16 16"><g stroke-linejoin="round" transform="translate(0-1036.36)"><path fill="#fff" stroke="#000" stroke-width=".046" d="m15.977 1044.36c0 1.468-.334 2.717-1.069 3.989-.734 1.272-1.648 2.186-2.92 2.92-1.272.735-2.52 1.069-3.989 1.069-1.468 0-2.717-.334-3.988-1.069-1.272-.734-2.186-1.648-2.92-2.92-.734-1.272-1.069-2.52-1.069-3.989 0-1.468.335-2.717 1.069-3.988.735-1.272 1.648-2.186 2.92-2.92 1.272-.734 2.52-1.069 3.988-1.069 1.468 0 2.717.335 3.989 1.069 1.271.735 2.186 1.648 2.92 2.92.735 1.272 1.069 2.52 1.069 3.988z"/><path fill="none" stroke="#05b505" stroke-width="1.909" d="m14.724 1044.36c0 1.238-.282 2.29-.901 3.362-.619 1.072-1.389 1.843-2.462 2.462-1.072.619-2.124.9-3.362.9-1.238 0-2.29-.282-3.362-.9-1.072-.619-1.842-1.389-2.461-2.462-.619-1.072-.901-2.124-.901-3.362 0-1.238.282-2.29.901-3.362.619-1.072 1.389-1.842 2.461-2.461 1.072-.619 2.124-.901 3.362-.901 1.238 0 2.29.282 3.362.901 1.072.619 1.843 1.389 2.462 2.461.619 1.073.901 2.124.901 3.362z"/></g></svg>