<svg xmlns="http://www.w3.org/2000/svg" viewBox="0 0 9 16"><g transform="translate(-359-556.36)"><g fill="#333"><path d="m359 570.36h9v2h-9z"/><path d="m359 559.36v-2l4.5-1 4.5 1v2z"/></g><path fill="#c87137" d="m362 559.36h2v1h-2z"/><path fill="#ff0" d="m362 560.36h5v5h-5z"/><path fill="#008000" d="m360 560.36h2v4h-2z"/><path fill="#f00" d="m360 564.36h3v4h-3z"/><path fill="#00f" d="m363 565.36h4v3h-4z"/><path fill="#fc0" d="m360 567.36h4v3h-4z"/><path fill="#800080" d="m364 568.36h3v2h-3z"/><path fill="#008000" d="m364 559.36h3v3h-3z"/><path fill="#a00" d="m360 559.36h2v2h-2z"/></g></svg>