<svg xmlns="http://www.w3.org/2000/svg" viewBox="0 0 16 16"><g transform="translate(0-1036.36)"><g color-rendering="auto" color-interpolation-filters="linearRGB" shape-rendering="auto" image-rendering="auto" fill-rule="evenodd" text-rendering="auto" color-interpolation="sRGB" color="#000"><rect x=".418" y="1036.78" rx="1.897" stroke-width=".837" ry="2.127" width="15.16" stroke-linecap="round" fill="#fff" height="15.16" stroke="#00669c"/><path fill="#00669c" d="m12.299108 1043.5742a4.883929 4.404018 0 0 1 -2.441965 3.814 4.883929 4.404018 0 0 1 -4.883929 0 4.883929 4.404018 0 0 1 -2.441964 -3.814h4.884z"/></g><g fill="none" stroke="#00669c"><g stroke-linecap="round"><path d="m3 1050.83l3-5"/><path d="m8.882 1050.8l-1-5"/><path d="m12.294 1050.63l-3-5"/></g><path d="m14.775 1037.52l-1.691 1.838"/><path stroke-width=".928" d="m9.885 1040.66c2.724-3.178 4.859-.859 1.872 1.829"/><g stroke-linecap="round"><path d="m3.594 1038.59c.177 2.428 1.845 2 1.875 4.196"/><path d="m5.594 1038.59c.177 2.428 1.845 2 1.875 4.196"/></g></g></g></svg>