<svg xmlns="http://www.w3.org/2000/svg" viewBox="0 0 16 16"><path fill="#f00" d="m381.83 391.54c2.433-4.123 9.161-9.657 15.741-12.947 5.411-2.706 18.38-5.736 24.548-5.736 2.109 0 4.095-.422 4.413-.937 1.978-3.2-7.978-18.9-17.189-27.11-10.02-8.923-32.972-17.444-50.772-18.846-10.97-.411-34.01-5.555-20.02 7.779 5.865 5.547 12.07 13.783 17.05 22.628 1.664 2.957 3.941 6.412 5.059 7.679 1.118 1.267 2.591 3.61 3.273 5.207.682 1.597 2.71 5.197 4.507 8 7.294 11.375 8.379 13.215 9.06 15.359.976 3.074 2.04 2.809 4.335-1.08" transform="matrix(.07241.04389-.04761.08104 2.234-39.34)"/><path fill="#ff0" d="m178.9 304.18c15.289-9.407 43.924-13.906 60.47-9.502 2.913.775 5.907 1.415 6.654 1.422 2.429.021.342-4.769-7.41-17-4.097-6.466-7.448-12.07-7.448-12.45 0-.381-1.64-3.245-3.644-6.363-2-3.118-5.151-8.02-6.993-10.893-6.556-10.227-19.363-21.805-19.363-17.506 0 .423-2 3.45-4.454 6.725-5.871 7.85-13.574 23.366-18.37 37-4.998 14.213-7.589 31.5-4.722 31.5.284 0 2.661-1.319 5.281-2.932z" transform="matrix(.07241.04389-.04761.08104 6.837-25.802)"/><path fill="#f00" d="m-56.627 263.83c1.628-11.451 7.598-28.841 14.544-42.36 1.594-3.104 4.047-7.915 5.45-10.693 1.403-2.778 3.848-6.386 5.434-8.02 5.353-5.514 4.507-5.762-12.31-3.606-11.169 1.431-15.616 2.529-24.24 5.986-12.41 4.973-25.625 14.421-34.817 24.889-7.224 8.228-13.07 21.06-14.14 31.02-.811 7.573-.645 7.735 5.348 5.208 4.756-2.01 17.804-2.401 31.03-.941 10.379 1.146 13.02 2.063 18.07 6.266 1.607 1.338 3.259 2.065 3.669 1.617.411-.448 1.294-4.664 1.963-9.368" transform="matrix(.0717.04346-.04714.08024 21.572-13.02)"/><path fill="#4d4d4d" d="m335.05 467.84c-1.271-54.675-.47-68.39-1.362-70.06-.822-1.539-.524-1.014-4.137-.473-5.226.784-20.12 6.667-25.539 10.09-5.099 3.219-7.947 3.107-11.351-.446-1.532-1.599-5.494-4.123-8.804-5.608-5.367-2.409-7.547-2.753-20.15-3.188-14.04-.484-14.181-.467-21.521 2.608-7.418 3.108-10.13 3.739-10.09 2.346.011-.413.885-5.989 1.941-12.392 3.02-18.318 5.483-22.768 21.06-38.08 7.119-7 14.829-13.917 17.13-15.372 4.568-2.883 18.68-8.01 25.844-9.393 2.475-.477 6.3-1.319 8.5-1.87 2.2-.552 7.529-1.21 11.842-1.463 8.482-.498 9.316-.893 9.823-4.665.41-3.049 3.835-4.126 3.835-1.206 0 3.724 2.028 4.226 13.465 3.333 8.714-.68 12.633-.504 20.41.916 12.504 2.284 24.881 6.247 33.625 10.767 11.962 6.183 28.881 25.1 31.624 35.35 1.756 6.565.925 7.932-4.382 7.204-11.712-1.605-34.13 6.964-39.808 15.217-1.593 2.316-4.072 5.067-5.508 6.112-2.587 1.884-2.708 1.876-13.269-.895-11.531-3.03-15.806-3.909-17.691-2.024-.899.899-.557 13.569-.557 48.51 0 0-.019 31.893-.031 46.27-.545 5.05-3.535 6.954-7.165 8.971-3.382-1.155-7.269-10.167-7.736-30.559m-29.24-65.914c15.289-9.407 43.924-13.906 60.47-9.502 2.913.775 5.907 1.415 6.654 1.422 2.429.021.342-4.769-7.41-17-4.097-6.466-7.448-12.07-7.448-12.45 0-.381-1.64-3.245-3.644-6.363-2-3.118-5.151-8.02-6.993-10.893-6.556-10.227-19.363-21.805-19.363-17.506 0 .423-2 3.45-4.454 6.725-5.871 7.85-13.574 23.366-18.37 37-4.998 14.213-7.589 31.5-4.722 31.5.284 0 2.661-1.319 5.281-2.932zm-8.765-8.04c1.612-11.338 7.523-28.555 14.4-41.944 1.579-3.073 4.01-7.837 5.396-10.587 1.389-2.75 3.81-6.323 5.38-7.94 5.3-5.459 4.463-5.705-12.188-3.571-11.06 1.417-15.461 2.504-24 5.926-12.287 4.924-25.371 14.278-34.472 24.643-7.152 8.147-12.942 20.851-13.999 30.717-.803 7.498-.638 7.659 5.295 5.156 4.709-1.986 17.628-2.377 30.718-.932 10.276 1.135 12.892 2.042 17.894 6.204 1.591 1.324 3.226 2.045 3.633 1.601.406-.443 1.281-4.618 1.943-9.276m84.79-2.347c2.433-4.123 9.161-9.657 15.741-12.947 5.411-2.706 18.38-5.736 24.548-5.736 2.109 0 4.095-.422 4.413-.937 1.978-3.2-7.978-18.9-17.189-27.11-10.02-8.923-32.972-17.444-50.772-18.846-11.423-.9-24.673-.127-25.2 1.469-.195.594 2.133 3.433 5.175 6.31 5.865 5.547 12.07 13.783 17.05 22.628 1.664 2.957 3.941 6.412 5.059 7.679 1.118 1.267 2.591 3.61 3.273 5.207.682 1.597 2.71 5.197 4.507 8 7.294 11.375 8.379 13.215 9.06 15.359.976 3.074 2.04 2.809 4.335-1.08" transform="matrix(.0717.04346-.04714.08024 2.374-38.889)"/></svg>