<svg width="976.16" xmlns="http://www.w3.org/2000/svg" viewBox="0 0 976.15625 729.85008"><defs><linearGradient id="a" x1="357.8" gradientUnits="userSpaceOnUse" x2="456.6" gradientTransform="matrix(1.0492 0 0 .83928 56.945 90.31)"><stop stop-color="#8a8a8a"/><stop offset=".071" stop-color="#676767"/><stop offset=".143" stop-color="#878787"/><stop offset=".214" stop-color="#b5b5b5"/><stop offset=".286" stop-color="#d7d7d7"/><stop offset=".357" stop-color="#d5d5d5"/><stop offset=".429" stop-color="#c3c3c3"/><stop offset=".5" stop-color="#b3b3b3"/><stop offset=".571" stop-color="#a3a3a3"/><stop offset=".643" stop-color="#929292"/><stop offset=".714" stop-color="#7a7a7a"/><stop offset=".786" stop-color="#696969"/><stop offset=".857" stop-color="#686868"/><stop offset=".929" stop-color="#656565"/><stop offset="1" stop-color="#797979"/></linearGradient><linearGradient id="b" y1="689.37" y2="715.01" gradientUnits="userSpaceOnUse" x2="0" gradientTransform="translate(3.202 122.35)"><stop stop-color="#717171"/><stop offset="1" stop-color="#e3e3e3"/></linearGradient></defs><rect width="95.81" x="440.2" y="385.58" fill="url(#a)" rx="12.852" ry="11.842" height="344.27" fill-rule="evenodd"/><g transform="matrix(1 0 0 1.0753-7.25-451.87)"><g fill-rule="evenodd" transform="matrix(1 0 0 .83333 21.422 173.53)"><path d="m33.09 740.15h16.01v25.618h-16.01z"/><path d="m898.76 740.15h16.01v25.618h-16.01z"/><path d="m682.34 740.15h16.01v25.618h-16.01z"/><path d="m249.51 740.15h16.01v25.618h-16.01z"/><path d="m465.92 740.15h16.01v25.618h-16.01z"/></g><path fill="url(#b)" stroke="#000" stroke-width="1.929" d="m966.48 812.6l9.105-.063 6.565 23.891-13.718-.201-473.09.061-473.09.024-13.718.201 6.565-23.891 9.105.063 471.13-.083z"/></g><g fill="#803300" stroke-width="5.786" transform="matrix(1 0 0 1.0753-4.871-332.5)"><path stroke="#000" d="m14.971 312.1h956v366h-956z"/><path fill-rule="evenodd" stroke="#828282" d="m20.938 317.77h944.06v354.66h-944.06z"/></g><text font-family="Calibri" letter-spacing="40.818" x="37.717" word-spacing="0" y="308.91" fill="#fc0" line-height="125%" font-size="335.74" transform="scale(1.0174.98289)">JOSM</text></svg>