<svg xmlns="http://www.w3.org/2000/svg" viewBox="0 0 11 16"><g fill-rule="evenodd"><path fill="#fff" d="m1.304 16c-.722.001-1.302-.616-1.303-1.383v-.002l.001-13.229c0-.769.582-1.385 1.303-1.386l8.39.002c.722-.001 1.304.615 1.303 1.382l.001 13.231c0 .769-.582 1.385-1.304 1.384z"/><g fill="#f00"><path d="m5.03 5.133l1.205-.001-.604-2.115zm1.488.985l-1.769-.004-.279.97-1.14-.001 1.627-5.312h1.351l1.627 5.313-1.139.003z"/><path d="m4.433 8.976c-.138.002-.29.035-.457.112-1.828 1.421.637 3.713 1.676 5.68l.031.011c1.144-2.152 3.321-4.519 1.657-5.692-1.317-.599-1.669 1.397-1.681 1.469-.012-.064-.279-1.586-1.226-1.581"/></g></g></svg>