<svg xmlns="http://www.w3.org/2000/svg" viewBox="0 0 12.04 16" xmlns:xlink="http://www.w3.org/1999/xlink"><defs><path fill="#fff" id="a" d="m5.056 6.739h.96v1.228h-.96z"/><path fill="#fff" id="b" d="m5.056 10.596h.96v1.228h-.96z"/><path fill="#fff" id="c" d="m5.056 14.453h.96v1.228h-.96z"/><path fill="#fff" id="d" d="m5.056 18.31h.96v1.228h-.96z"/><path fill="#fff" id="e" d="m5.056 22.17h.96v1.228h-.96z"/><path fill="#fff" id="f" d="m5.056 26.02h.96v1.228h-.96z"/><path fill="#fff" id="g" d="m5.056 29.882h.96v1.228h-.96z"/><path fill="#fff" id="h" d="m5.056 2.882h.96v1.228h-.96z"/></defs><g transform="matrix(.44102-.19153.19429.43476-2.045 3.31)"><g fill="#12abdb" stroke="#150b0b" stroke-width="2" stroke-dashoffset="18"><path d="m5.461 11.284h11.761v9.07h-11.761z"/><path d="m5.461 21.09h11.761v9.07h-11.761z"/><path d="m5.456 1.412h11.761v9.07h-11.761z"/></g><g transform="translate(0 .536)"><g transform="translate(0-1.781)"><use xlink:href="#a"/><use xlink:href="#b"/><use xlink:href="#c"/><use xlink:href="#d"/><use xlink:href="#e"/><use xlink:href="#f"/><use xlink:href="#g"/><use xlink:href="#h"/></g><g transform="translate(11.518-1.781)"><use xlink:href="#a"/><use xlink:href="#b"/><use xlink:href="#c"/><use xlink:href="#d"/><use xlink:href="#e"/><use xlink:href="#f"/><use xlink:href="#g"/><use xlink:href="#h"/></g></g></g></svg>