<svg xmlns="http://www.w3.org/2000/svg" viewBox="0 0 580 580"><path fill="#0f0" fill-opacity=".749" d="m66.28 1.768c-41.34 0-64.57 21.371-64.57 65.04v450.12c0 40.844 20.895 62.23 62.19 62.23h452.02c41.31 0 62.23-20.315 62.23-62.23v-450.12c0-42.601-20.922-65.04-63.52-65.04-.004 0-448.5-.143-448.35 0" transform="matrix(1.0062 0 0 1.0044-1.715-1.712)"/><g fill-rule="evenodd" transform="matrix(.96165.57004-.57103.95997-251.12-835.38)"><path d="m922.97 588.96c24.02 2.805 52.38 8.176 65.06 31.408 9.262 13.695 17.325 28.384 28.876 40.37 20.474 10.36 40.873 22.802 55.56 40.704 18.435 27.565 12.853 67.05-8.575 91.26-23.994 21.967-58.53 32.942-90.51 24.815-20.441-4.087-40.823-16.11-62.09-9.394-19.673 5.521-39.2 14.22-60.15 11.887-19.917-.675-37.787-10.415-54.54-20.21-19.534-12.539-31.74-35.21-30.417-58.51.067-34.973 26.36-63.966 55.971-79.32 12.637-6.142 25.904-12.813 31.912-26.452 8.589-15.734 16.12-35.497 35.21-40.863 10.77-3.919 22.27-5.49 33.689-5.692"/><path d="m706.83 545.97c5.13-18.01 19.671-34.679 38.977-37.12 13.803-1.78 28.09 1.725 40.24 8.242 22.16 14.759 35.06 39.741 42.35 64.68 3.676 11.925 6.177 24.675 3.148 37.04-2.799 14.602-13.391 26.974-27.02 32.667-17.704 10.643-41.18 9.203-58.06-2.43-10.04-6.65-18.938-15.329-24.338-26.21-12.789-23.06-21.415-50.47-15.297-76.872"/><g transform="translate(452.86 333.79)"><path d="m421.74 81.46c0 0 29.464.179 45.714 37.857 0 0 11.213 24.437 7.321 61.964 0 0-.609 37.78-23.08 53.18 0 0-30.557 27.779-65.66-9.596 0 0-24.496-26.26-29.29-63.39 0 0-5.303-38.39 18.435-61.37 0 0 20.14-18.834 46.568-18.656"/><path d="m576.52 89.72c0 0 36.25 10.714 32.32 52.14 0 0 2.058 33.28-17.64 63.58 0 0-19.951 37.38-46.47 41.42 0 0-29.29 9.09-50.51-35.86 0 0-15.15-51.01 8.334-85.36 0 0 27.421-50.946 73.959-35.922"/></g><path d="m1117.8 529.43c17.01 5.2 29.03 21.655 30.538 39.15 1.641 15.719-2.079 31.519-7.37 46.23-8.61 21.512-24.13 40.32-43.758 52.636-14.836 8.097-33.33 4.661-46.913-4.417-5.555-2.661-8.941-7.703-11.333-13.196-9.04-17.992-10.311-39.892-2.093-58.42 6.947-17.446 15.495-35.25 30.15-47.54 11.11-10.1 25.627-18.343 41.16-16.725 3.291.334 6.534 1.111 9.626 2.282"/></g></svg>