<svg width="495" xmlns="http://www.w3.org/2000/svg" viewBox="0 0 495.00113 402.08099" enable-background="new 0 0 580 580"><g fill="#501616"><path d="m282.98 61.863c8.312 0 15.545-3 21.703-9 6.155-6 9.234-13.31 9.234-21.922 0-8.622-3.079-15.934-9.234-21.936-6.158-6-13.392-9-21.703-9-8.614 0-15.921 3-21.922 9-6 6-9 13.313-9 21.936-.002 8.612 3 15.92 9 21.922 6 6 13.307 9 21.922 9"/><path d="m26.296 246.99h83.56c3.389 0 6.465-.306 9.228-.916 7.081-1.23 12.01-3.386 14.778-6.467l41.08-45.703 48.01 46.17-19.386 86.32c-.62 1.851-.93 3.391-.93 4.621 0 5.541 2 10.312 6 14.313 4 4 8.772 6 14.315 6 10.462 0 16.928-5.387 19.399-16.16l23.542-104.79c2.771-11.08 1.541-19.24-3.691-24.472l-42.01-42.01 45.703-53.09 29.544 29.543c3.08 3.071 6.621 4.607 10.623 4.607 5.231 0 10.307-2.306 15.229-6.917l48.01-48.01c2.46-3.081 3.689-6.467 3.691-10.158-.002-4.611-1.616-8.457-4.848-11.538-3.23-3.08-7-4.621-11.312-4.621-4.312 0-7.698 1.23-10.158 3.691l-39.702 39.715-48.01-48.01c-3.691-3.701-8.307-5.552-13.849-5.552h-75.25c-4.622 0-8.623 1.851-12 5.552l-51.704 59.55c-3.691 3.071-5.538 6.917-5.537 11.538-.001 4.311 1.537 8 4.614 11.08 3.075 3.075 6.769 4.613 11.08 4.613 4.611 0 8.613-1.846 12-5.537l48.01-55.86 27.697.465-105.72 122.8-71.56-.466c-5.851 0-10.777 1.849-14.779 5.545-4 3.695-6 8.465-6 14.307 0 5.541 2 10.234 6 14.08 4 3.847 8.773 5.771 14.314 5.771"/></g><path fill="#f00" d="m490.93 87.61c4.158-2.724 5.321-8.302 2.599-12.46-2.723-4.157-8.3-5.323-12.46-2.599l-113 74c-3.451 2.26-4.924 6.576-3.574 10.475l73.09 211.06h-420.59c-9.389 0-17 7.611-17 17 0 9.389 7.611 17 17 17h457c9.389 0 17-7.611 17-17 0-9.389-7.611-17-17-17h-17.362l-72.837-210.31z"/></svg>