<svg xmlns="http://www.w3.org/2000/svg" viewBox="0 0 15.991 15.991"><g stroke="#fff" transform="translate(-370.05-532.37)"><path fill="#808080" stroke-width=".203" d="m15.95429 7.991365a8 8 0 1 1 -16 0 8 8 0 1 1 16 0z" transform="matrix(.98749 0 0 .98749 370.19 532.47)"/><g fill="none" stroke-linecap="round"><path stroke-width=".495" d="m373.2 534.36c9.809 0 9.809 0 9.809 0"/><path stroke-width=".491" d="m370.29 539.86c15.419 0 15.419 0 15.419 0"/><path stroke-width=".498" d="m371.1 536.86h13.903"/><path stroke-width=".51" d="m370.71 542.86h14.577"/><path stroke-width=".478" d="m372.58 545.86h10.945"/><path stroke-width=".4" d="m6.625 2.085l-.063 2.469" transform="translate(370.05 532.37)"/><path stroke-width=".393" d="m374.01 537.11l.031 2.749"/><g stroke-width=".4"><path d="m378.36 537.05v2.719"/><path d="m382.33 536.92v2.938"/><g transform="translate(370.05 532.37)"><path d="m13.594 4.398l-1.563-2.406"/><path d="m9.688 4.554l-.281-2.406"/></g><path d="m372.67 536.83l1.344-2.281"/><g transform="translate(370.05 532.37)"><path d="m5.094 1.929l1.818-1.652"/><path d="m10.813 2.023l-1.656-1.687"/><path d="m8.06 2.023v-1.781"/><path d="m1.375 7.616l.625 2.75"/><path d="m5.563 7.554l.125 3"/><path d="m10.25 7.616l.156 2.937"/><path d="m14.5 7.616l-.344 2.719"/></g><path d="m373.69 542.99l.953 2.813"/><path d="m7.906 10.648l.125 2.906" transform="translate(370.05 532.37)"/><path d="m381.61 545.83l.438-2.75"/><path d="m375.92 546.02l1.406 2.063"/><path d="m9.406 15.648c.125-.281.719-2.063.719-2.063" transform="translate(370.05 532.37)"/></g></g></g></svg>