<svg xmlns="http://www.w3.org/2000/svg" viewBox="0 0 18 18" xmlns:xlink="http://www.w3.org/1999/xlink"><defs><path fill-rule="evenodd" stroke="#000" id="a" stroke-width="1.335" d="m338.54 463.22c-8.952 1.667-20.957 48.627-20.957 48.627l34.614-4.787c0 0-4.33 15.512-8.185 27.02-2.405 7.176 5.607 9.491 9.64 1.529 7.449-14.706 13.05-30.96 13.05-30.96 0 0-18.71-43.19-28.16-41.43z"/><path id="b" stroke-width="5.9" d="m286.86 449.51c.004 5.131-3.711 9.293-8.293 9.293-4.583 0-8.297-4.162-8.293-9.293-.004-5.131 3.711-9.293 8.293-9.293 4.583 0 8.297 4.162 8.293 9.293"/></defs><g transform="matrix(.0672 0 0 .06723-14.474-27.17)"><g stroke="#000"><g stroke-linecap="round" stroke-miterlimit="1.1"><rect width="250" x="224.29" y="413.08" fill="#c7f1a3" rx="48.571" height="250" stroke-linejoin="round" stroke-width="17.8"/><path fill="none" stroke-width="14.2" d="m247.28 532.72l204.02 40.24"/></g><path fill-rule="evenodd" stroke-width=".832" d="m349.29 554.13l-21.513 45.17h43.03z"/></g><g transform="matrix(.87859.37187-.34624.94364 144-69.71)"><use xlink:href="#a"/><use xlink:href="#b" transform="matrix(-1.66489-.16364-.28816 1.33831 941.37-110.14)"/></g><g transform="matrix(-.94928-.0953-.149.99405 828.53 98.07)"><use xlink:href="#a"/><use xlink:href="#b" transform="matrix(-1.66489-.16364-.28816 1.33831 941.37-110.14)"/></g></g></svg>