<svg height="16" viewBox="0 0 9 16" width="9" xmlns="http://www.w3.org/2000/svg"><g fill="none" stroke="#999" stroke-linejoin="bevel" stroke-width="18.158" transform="matrix(.01896885 0 0 .01828431 -2.935266 -1.678994)"><path d="m191.07091 110.05134h420.01941v636.29248h-420.01941z"/><path d="m200.22273 100.90605h420.01941v636.29248h-420.01941z"/><path d="m181.98607 119.14932h420.01941v636.29248h-420.01941z"/><path d="m172.82809 128.40114h420.01941v636.29248h-420.01941z"/></g><path d="m.1200193.97254395h8.0128044v11.44275605h-8.0128044z" fill="#fffe73" stroke-width=".018623"/><path d="m.21815348.83473918h7.96897072v11.54194382h-7.96897072z" fill="none" stroke="#999" stroke-linejoin="bevel" stroke-width=".436307"/><path d="m3.1519085 12.854064h3.0167896v2.350252h-3.0167896z" fill="#999" stroke="#999" stroke-width=".815464"/><g stroke-linecap="round"><path d="m5.0813807 9.6414192-1.7115008-1.7607028-2.1558834.5486501 1.1624421-2.155656-1.1932358-1.860462 2.4299293.4284347 1.4184232-1.6984787.3393369 2.4204425 2.0698694.8107443-2.2202074 1.0674816z" fill="#b5befe" stroke="#f00" stroke-linejoin="round" stroke-width=".434308"/><ellipse cx="4.660478" cy="15.611964" fill="#999" rx="1.741494" ry=".209941" stroke="#999" stroke-linejoin="bevel" stroke-width=".3472"/></g></svg>