<svg xmlns="http://www.w3.org/2000/svg" viewBox="0 0 16 16"><g transform="translate(0-1037.36)"><path fill="#f00" d="m381.83 391.54c2.433-4.123 9.161-9.657 15.741-12.947 5.411-2.706 18.38-5.736 24.548-5.736 2.109 0 4.095-.422 4.413-.937 1.978-3.2-7.978-18.9-17.189-27.11-10.02-8.923-32.972-17.444-50.772-18.846-10.97-.411-34.01-5.555-20.02 7.779 5.865 5.547 12.07 13.783 17.05 22.628 1.664 2.957 3.941 6.412 5.059 7.679 1.118 1.267 2.591 3.61 3.273 5.207.682 1.597 2.71 5.197 4.507 8 7.294 11.375 8.379 13.215 9.06 15.359.976 3.074 2.04 2.809 4.335-1.08" transform="matrix(.06042.01459-.01507.06817-5.835 1010.9)"/><path fill="#ff0" d="m178.9 304.18c15.289-9.407 43.924-13.906 60.47-9.502 2.913.775 5.907 1.415 6.654 1.422 2.429.021.342-4.769-7.41-17-4.097-6.466-7.448-12.07-7.448-12.45 0-.381-1.64-3.245-3.644-6.363-2-3.118-5.151-8.02-6.993-10.893-6.556-10.227-19.363-21.805-19.363-17.506 0 .423-2 3.45-4.454 6.725-5.871 7.85-13.574 23.366-18.37 37-4.998 14.213-7.589 31.5-4.722 31.5.284 0 2.661-1.319 5.281-2.932z" transform="matrix(.06042.01459-.01507.06817.419 1019.44)"/><path fill="#f00" d="m-56.627 263.83c1.628-11.451 7.598-28.841 14.544-42.36 1.594-3.104 4.047-7.915 5.45-10.693 1.403-2.778 3.848-6.386 5.434-8.02 5.353-5.514 4.507-5.762-12.31-3.606-11.169 1.431-15.616 2.529-24.24 5.986-12.41 4.973-25.625 14.421-34.817 24.889-7.224 8.228-13.07 21.06-14.14 31.02-.811 7.573-.645 7.735 5.348 5.208 4.756-2.01 17.804-2.401 31.03-.941 10.379 1.146 13.02 2.063 18.07 6.266 1.607 1.338 3.259 2.065 3.669 1.617.411-.448 1.294-4.664 1.963-9.368" transform="matrix(.05983.01445-.01492.06749 13.577 1025.13)"/><path fill="#4d4d4d" d="m335.05 467.84c-1.271-54.675-.47-68.39-1.362-70.06-.822-1.539-.524-1.014-4.137-.473-5.226.784-20.12 6.667-25.539 10.09-5.099 3.219-7.947 3.107-11.351-.446-1.532-1.599-5.494-4.123-8.804-5.608-5.367-2.409-7.547-2.753-20.15-3.188-14.04-.484-14.181-.467-21.521 2.608-7.418 3.108-10.13 3.739-10.09 2.346.011-.413.885-5.989 1.941-12.392 3.02-18.318 5.483-22.768 21.06-38.08 7.119-7 14.829-13.917 17.13-15.372 4.568-2.883 18.68-8.01 25.844-9.393 2.475-.477 6.3-1.319 8.5-1.87 2.2-.552 7.529-1.21 11.842-1.463 8.482-.498 9.316-.893 9.823-4.665.41-3.049 3.835-4.126 3.835-1.206 0 3.724 2.028 4.226 13.465 3.333 8.714-.68 12.633-.504 20.41.916 12.504 2.284 24.881 6.247 33.625 10.767 11.962 6.183 28.881 25.1 31.624 35.35 1.756 6.565.925 7.932-4.382 7.204-11.712-1.605-34.13 6.964-39.808 15.217-1.593 2.316-4.072 5.067-5.508 6.112-2.587 1.884-2.708 1.876-13.269-.895-11.531-3.03-15.806-3.909-17.691-2.024-.899.899-.557 13.569-.557 48.51 0 0-.019 31.893-.031 46.27-.545 5.05-3.535 6.954-7.165 8.971-3.382-1.155-7.269-10.167-7.736-30.559m-29.24-65.914c15.289-9.407 43.924-13.906 60.47-9.502 2.913.775 5.907 1.415 6.654 1.422 2.429.021.342-4.769-7.41-17-4.097-6.466-7.448-12.07-7.448-12.45 0-.381-1.64-3.245-3.644-6.363-2-3.118-5.151-8.02-6.993-10.893-6.556-10.227-19.363-21.805-19.363-17.506 0 .423-2 3.45-4.454 6.725-5.871 7.85-13.574 23.366-18.37 37-4.998 14.213-7.589 31.5-4.722 31.5.284 0 2.661-1.319 5.281-2.932zm-8.765-8.04c1.612-11.338 7.523-28.555 14.4-41.944 1.579-3.073 4.01-7.837 5.396-10.587 1.389-2.75 3.81-6.323 5.38-7.94 5.3-5.459 4.463-5.705-12.188-3.571-11.06 1.417-15.461 2.504-24 5.926-12.287 4.924-25.371 14.278-34.472 24.643-7.152 8.147-12.942 20.851-13.999 30.717-.803 7.498-.638 7.659 5.295 5.156 4.709-1.986 17.628-2.377 30.718-.932 10.276 1.135 12.892 2.042 17.894 6.204 1.591 1.324 3.226 2.045 3.633 1.601.406-.443 1.281-4.618 1.943-9.276m84.79-2.347c2.433-4.123 9.161-9.657 15.741-12.947 5.411-2.706 18.38-5.736 24.548-5.736 2.109 0 4.095-.422 4.413-.937 1.978-3.2-7.978-18.9-17.189-27.11-10.02-8.923-32.972-17.444-50.772-18.846-11.423-.9-24.673-.127-25.2 1.469-.195.594 2.133 3.433 5.175 6.31 5.865 5.547 12.07 13.783 17.05 22.628 1.664 2.957 3.941 6.412 5.059 7.679 1.118 1.267 2.591 3.61 3.273 5.207.682 1.597 2.71 5.197 4.507 8 7.294 11.375 8.379 13.215 9.06 15.359.976 3.074 2.04 2.809 4.335-1.08" transform="matrix(.05983.01445-.01492.06749-5.636 1011.19)"/><g stroke-width=".583" transform="matrix(.05735 0 0 .05735 9.02 1044.11)"><g fill="#ffbf00"><path d="m65.9 24.867c.143-.043.265-.119.377-.212-.151.05-.273.124-.377.212"/><path d="m65.29 11.497c-.002.004-.004.009-.007.013.03-.018.026-.02.007-.013"/></g><path fill="#ff7f00" d="m114.79 98.2c-3.293-11.198-6.241-22.394-7.733-34.01-.718-5.593-1.067-11.281-.889-16.923.083-2.627 2.298-12.315.149-13.421-1.169-.601-2.624-.344-2.624-2.108 0-2.283.703-2.894-1.21-4.252-1.921-1.364-5.437-1.423-7.702-1.867-1.426-.279-2.833-.648-4.204-1.141-1.166-.419-.996-2.636-1.413-3.836-1.729-4.981-6.084-8.427-10.727-10.266-1.97-.78-4.03-.962-6.119-1.106-1.356-.093-4.14 1.186-5.212.45-1.139-.783-.88-3.535-1.889-4.695-1.063-1.221-2.656-4.04-4.098-4.707-1.146-.53-3.506-.207-4.774-.277-3.802-.209-13.696 2.576-16.14 4.384.337.586.509.991.807 1.616 1.306-.735 12.503-5.214 16.471-4.686 3.278.436 10.08 6 7.808 10.149.02-.007.024-.005-.007.013.002-.004.004-.009.007-.013-.112.037-.923.421-.948.428-.722-2-1.803-3.786-2.992-5.53-1.737-2.547-4.475-2.292-7.432-2.558-2.492-.224-8.919 2.336-11.364 3.047-.371.108-.693.212-.976.319.36.804.545 1.195 1.081 1.885.45-.299.725-.502 1.661-1.051 2.207-1.297 10.1-2.057 12.625-2.057 1.905 0 2.382-.318 3.34 1.433 1.318 2.407 2.889 3.932 1.974 6.03-1.226 2.813-4.784 5.951-6.591 8.572.12.099.241.174.361.238.288-.064.608-.015.965.163 1.938-.315 3.824-4.143 5.119-5.558 1.586-1.732 4.328-5.615 6.688-5.994 8.218-1.319 16.701 2.899 19.08 11.289-4.129-3.667-9.152-7.605-14.714-8.367-5.642-.773-10.03 5.586-13.197 9.957.241.172.463.293.677.392.324-.012.668.056 1.031.222 1.367-.094 2.19-1.824 3.335-3.17.186 1.237.352 2.482.471 3.733.151.004.287-.016.411-.054.105-.088.227-.162.377-.212 1.292-1.066.672-5.136 1.699-6.785.85 1.965 1.071 4.165 1.143 6.291.241.025.443.019.624-.002.213-.186.468-.312.776-.343.628-.678.165-2.18.047-3.389-.209-2.141-1.153-3.431.572-4.424 4.551-2.618 12.648 5.378 15.13 8.226-5 1.092-10.06.601-14.796 2.904-.314-1.072-.551-2.193-.606-3.318-.124-.013-.239-.011-.349.001-.169.182-.419.303-.776.343-1.019.893-.989 3.286-.288 4.564.984 1.795 1.612-.188 3.872-.517 2.416-.352 12.978-3.567 14.758-1.696 1.389 1.46-1.216 4.376-2.153 5.6-2.251 2.942-4.228 6.114-5.729 9.529-.68 1.546-3.191 10.679-4.277 10.86-8.791 1.465-17.638 2.424-26.379 4.221 1.371-4.367 2.455-8.82 3.767-13.204.949-3.173 2.321-10.54 4.976-12.651 1.937-1.54 6.06.128 7.667-1.106 1.193-.919 1.06-3.868 1.01-5.185-.279-.013-.504.018-.691.08-.112.092-.234.169-.377.212-.862.727-.384 2.603-2.026 3.165-1.311.448-2.987.41-4.372.761.823-1.427 1.726-2.818 2.69-4.148-.175-.118-.345-.211-.511-.286-.312.021-.653-.049-1.031-.222-2.127.081-3.443 3.605-4.578 5.623-1.73 3.079-3.206 6.427-4.438 9.748-1.21 3.259-2.098 6.628-2.935 10-.765 3.085-.094 8.05-3.992 7.902 2.559-12.423 6.05-23.917 12.846-34.634-.197-.161-.38-.271-.556-.36-.321.052-.644.004-.965-.163-1.253.28-1.92 2.53-2.649 3.841-1.544 2.778-1.492 3.733-4.573 4.01-6.558.589-12.778 2.731-19.302 3.387.773-5.433 2.389-10.47 5.313-15.1 1.4-2.219 2.999-4.362 4.821-6.235 1.337-1.373 2.401-2.1 3.02-3.066-.287-.428-.587-.888-1.163-2.051-3.632 3.299-6.937 6.877-9.499 11.178-1.675 2.811-6.428 12.681-4.103 15.969 1.279 1.808 5.536.031 7.398-.208 5.132-.658 10.01-2.191 15.2-2.834-2.688 4.851-4.441 10.239-5.755 15.64-.669 2.75-1.321 5.515-1.862 8.295-.448 2.3-.224 2.303-2.459 2.602-1.45.195-2.882.48-4.317.768-5.276 1.061-11.03 2.668-16.41 1.382-2.438-.583-4.873-1.851-6.593-3.714-2.117-2.293-2.892-1.715-5.648-2.023-3.477-.389-5.066-2.406-5.414-5.945-.262-2.659 1.623-2.682 3.913-3.651 2.394-1.013 4.753-2.115 7.15-3.124 2.295-.966 4.608-1.866 6.928-2.765 3.719-1.441 4.609-1.197 4.827-5.446.297-5.799 2.96-11.569 6.135-16.261 1.802-2.662 3.83-5.226 6.12-7.466 1.681-1.645 2.957-2.691 3.907-3.402-.261-.547-.523-1.089-.807-1.616-5.218 4.03-14.758 13.11-16.725 24.635-.366 2.143.11 6.728-1.776 7.516-2.462 1.029-4.957 1.944-7.455 2.877-3.207 1.198-11.482 2.705-13.529 5.66-1.116 1.611-.607 6.839-.605 8.78.001 3.054.238 6.135.513 9.174.398 4.386.639 9.348.495 13.154-.467 12.37 1.322 24.42 2.287 36.708.467 5.946 1.016 12.37.164 18.303-.425 2.956-2.738 10.279-.365 12.943 1.418 1.592 4.528 2.378 6.269 3.797 2.446 1.991 4.694 4.246 7.05 6.351.991.887 2.031 1.657 3.144 2.371 1.142.734 1.258 2.545 2.638 3.103 2.484 1.01 4.812-1.873 6.688-3.068 3.78-2.406 9.936-3.487 14.311-4.8 5.325-1.599 10.642-3.27 16.01-4.753 11.559-3.194 23.532-4.235 35.24-6.642 6.06-1.245 11.952-2.681 17.84-4.61 2.638-.864 7.521-.707 7.588-4.377.203-11.269-3.149-22.36-5.205-33.34"/><g fill="#ffbf00"><path d="m69.74 24.16c.356-.04.607-.161.776-.343-.308.031-.563.157-.776.343"/><path d="m56.996 22.418c-.357-.179-.678-.228-.965-.163.321.167.644.215.965.163"/><path d="m61.682 24.358c-.364-.166-.707-.234-1.031-.222.378.174.719.243 1.031.222"/><path d="m50.49 46.765c-.09.415-.18.829-.269 1.244.09-.415.179-.829.269-1.244"/><path d="m89.23 31.419c-2.464 4.194-4.194 8.954-5.56 13.634-.785 2.69-1.238 7.682-4.797 7.382 2.245-8.01 3.458-15.7 10.357-21.02"/><path d="m2.067 55.06c4.529 1.607 8.742 4.141 13.327 5.569 2.233.696 4.556 1.512 6.902 1.642 2.112.117 3.9-.725 6.067-.99 8.845-1.083 17.982-2.788 27.05-4.045 10.898-1.511 24.659-.484 34.638-5.749 2.968-1.566 5.414-3.01 8.02-5.132 1.512-1.234 5.416-4.585 5.416-6.47 0-3.483 1.63-6.235-2.119-1.21-4.389 5.883-10.151 10.792-17.252 12.651 1.659-6.378 3.414-12.824 6.298-18.752 1.585-3.257-1.06-6.498 3.387-5.927 2.531.325 4.932 1.51 7.398 2.143-.859 2.366-3.755 2.484-5.246 4.286 2.219 3.08 9.888-.532 9.888 3.215 0 2.688-1.568 4.881-2.084 7.431-.735 3.628-.541 7.841-.707 11.545-.117 2.618.432 3.471-1.576 5.145-1.84 1.534-3.681 3.069-5.521 4.603 2.268-6.186 7.325-11.602 6.189-18.665-2.408 4.061-4.558 8.261-6.625 12.512-1.062 2.184-2.1 4.382-3.161 6.567-1.374 2.827-2.837 3.319-5.697 4.353-8.634 3.12-18.07 3.4-26.955 5.532-9.567 2.296-19.272 4.111-29.14 3.936-2.505-.044-5.01-.073-7.513-.271-3.922-.312-3.86-.416-4.439-4.217-.556-3.648.019-8.365-2.959-10.438-2.026 1.724.822 10.896 1.211 13.55-4.639-.481-8.394-3.337-11.68-6.527-3.745-3.636-2.807-11.04-3.116-16.286"/><path d="m41.478 89.49c4.764-2.178 9.765-3.919 14.796-5.254-2.965.945-5.804 1.85-8.479 3.587-2.51 1.63-6.371 7.493-9.276 6.644 1.116-1.56 2.948-2.887 2.96-4.977"/><path d="m18.208 93.91c-1.583-.597-3.393-.218-4.573-1.659-.052.122-.15.577-.135.553-.6-.418-4.776-3.063-2.02-2.592 2.683.457 5.328.789 8.135 1.039 3.575.318 6.181-.406 9.351-1.903 2.343-1.106 5.865-1.745 6.994-4.424.058 1.996 2.47-.074 2.287-.691-.257-.867-4.191.102-4.842.069 0 .208 0 .415 0 .623-4.24-2.914-11.311 1.149-15.872-3.733 6.398.717 12.836.869 19.25.176 3.398-.367 6.742-.9 10.11-1.518 2.907-.534 7.229-2.748 10.06-1.562-13.34 4.881-24.24 14.478-38.739 15.623"/><path d="m36.905 91.56c-1.307 1.385-2.43 4.86-4.842 3.318 1.614-1.106 3.228-2.212 4.842-3.318"/><path d="m60.44 83.27c5.507-1.411 12.721-4.579 17.487.277-6.417-3.739-14.279-.382-20.985.415 1.177-.196 2.332-.427 3.498-.691"/><path d="m75.37 79.53c1.847-.288 3.594.668 5.111 1.66-1.82.369-3.674-.56-5.111-1.66"/><path d="m68.918 75.938c7.15-2.13 14.25-3.226 21.253-5.945-.865 3.266-2.126 6.93-1.345 10.335 1 4.369 4.477 1.687 6.793.104 2.75-1.882 5.483-4.573 6.962-7.777.819-1.776-.361-5.82-.168-6.118 1.087-1.678 1.205.35 1.613 1.244 1.541 3.376-.844 6.257-2.981 8.698-1.593 1.82-7.388 7.573-9.999 6.615-3.174-1.164-4.944-4.16-8.272-5.219-4.444-1.415-9.228-1.774-13.856-1.937"/><path d="m97.57 74.56c.966-1.799 1.954-3.615 2.69-5.53 1.288 1.952-1.189 4.386-2.69 5.53"/><path d="m8.792 91.15c-.495-.726-.223-1.289-1.211-1.244 0-.231 0-.461 0-.691 1.261.183 1.815.853 1.211 1.936"/><path d="m116.94 132.35c-22.22 8.01-46.04 8.288-68.45 15.753-5.23 1.742-10.658 3.066-15.719 5.297-2.327 1.026-8.595 6.451-10.66 3.802-2.749-3.528-6.397-6.194-9.53-9.415-3.103-3.191-8.092-5.614-6.51-10.493 1.928-5.949.072-14.541-.305-20.746-.268-4.404-.575-8.811-.977-13.204-.318-3.49-1.95-8.971-1.106-12.195 7.884 5.803 15.698 8.453 25.517 7.425 9.631-1.01 18.875-3.734 28.38-5.483 17.01-3.129 35.507-2.376 48.06-16.46.513 1.96 3.96 13.655 3.088 14.683-3.918 4.621-7.637 7.667-12.984 10.414-8.855 4.55-20.318 4.538-29.981 5.642-9.467 1.081-18.74 3.949-28.19 5.346-4.684.693-9.545 1.268-14.275.871-2.907-.244-1.556-.31-2.202-2.391-.302-.971-.425-2.038-.606-3.041-3.071.432-.762 3.835-2.286 4.977-1.539 1.153-8.28-3.218-9.953-3.733-.09 6.304 1.638 13.369 8.373 13.999 2.01.188 4.256 4.377 2.287 4.804-4.443.962-6.289-3.143-9.987-3.734-1.563-.25-1.371-.77-1.076 1.037.064.391.589 1.201.807 1.522 2.025 2.984 5.539 4.181 8.743 5.254 2.274.761 2.537.128 2.894 2.975.265 2.117.474 4.243.74 6.359.499 3.97 1.085 7.925 2.688 11.611 1.652-2.187-.282-4.139-.433-6.376-.23-3.412-.46-6.823-.69-10.234-.261-3.869-.27-3.295 3.594-3.583 9.899-.736 19.567-3.056 29.21-5.371 20.1-4.828 42.3-5.449 59.38-18.541 2.407 7.192 3.778 15.723 2.152 23.23"/><path d="m103.76 99.86c-4.01 5.49-9.343 10.657-15.469 13.55 2.569-2.074 5.368-3.835 7.923-5.936 2.833-2.329 4.633-5.409 7.546-7.614"/><path d="m87.62 113.82c-.448.322-.897.645-1.345.967.448-.322.897-.645 1.345-.967"/><path d="m79.28 107.46c-1.7.967-6.372 4.753-5.919.968 1.98-.271 3.946-.646 5.919-.968"/><path d="m60.17 123.08c-1.695 1.076-3.507 2.824-5.514 2.904 1.838-.968 3.676-1.935 5.514-2.904"/><path d="m48.2 117.14c2.672-3.538 6.297-5.735 10.626-6.36-4.085 1.206-6.229 5.743-10.626 6.36"/><path d="m21.705 128.06c-1.344-2.881.237-4.711 2.892-5.53 2.811-.867 4.806-2.128 7.378-3.447 4.371-2.242 8.568-4.867 13.403-5.954-7.206 6.251-14.881 11.369-23.673 14.931"/><path d="m44.975 121.7c-.608.775-.944 1.352-1.883 1.383.613-.45 1.219-1.019 1.883-1.383"/><path d="m42.15 123.36c-1.9 1.993-4.518 3.322-7.129 4.01 2.142-1.779 4.727-2.689 7.129-4.01"/><path d="m21.17 116.73c2.508-.194 4.927.839 7.398 0-2.589 1.148-8.227 5.424-7.398 0"/><path d="m46.32 33.08c2.248 2.631-2.553 2.964-3.961 3.426-5.09 1.67-10.08 3.535-15.02 5.631-4.457 1.892-8.805 4.504-12.587 7.572-1.817 1.474-4.464 3.357-6.902 2.312 11.699-9.02 24.311-15.185 38.471-18.941"/><path d="m28.16 37.09c-.396 1.745-6.348 3.631-8.172 4.606-2.965 1.585-6.04 2.928-9.179 4.104 3.259-2.671 13.08-10.318 17.351-8.71"/></g><g fill="#8b5c29"><path fill-rule="evenodd" d="m47.26 56.997c2.043-12.134 5.832-23.11 12.711-33.25-3.39-2.235-4.59 2.483-6.066 5.123-1.654 2.959-2.933 6.169-4.11 9.352-2.313 6.256-3.746 12.658-5.091 19.19.819-.133 1.774-.144 2.557-.415"/><path d="m69.59 13.584c7.05-.379 13.189 4.04 18.294 8.572-2.049-7.221-9.883-12.833-17.487-11.545-5.206.882-10.05 7.773-12.845 12.167 2.866 2.145 4.107-1.324 5.918-3.318 1.924-2.117 4.03-3.946 6.12-5.876"/></g><g fill-rule="evenodd"><path fill="#ffbf00" d="m67.977 17.869c-1.234 1.981-1.01 4.454-1.01 6.706 3.458.353 1.923-4.591 1.01-6.706"/><path fill="#8b5c29" d="m58.29 30.866c-4.184 8.182-6 17.12-8.744 25.855 8.459-1.74 17.02-2.662 25.523-4.079 2.354-.392 3.447-7.167 4.485-9.529 1.572-3.578 3.419-6.838 5.636-10.03.751-1.083 3.8-4.298 3.363-5.841-.742-2.628-10.707.311-12.501.572-.919.134-6.546 1.367-6.499 1.709-.247-1.787-.357-3.56-.437-5.358-3.946-.355-.978 3.357-2.892 5.185-1.176 1.124-6.03.946-7.936 1.521"/></g><path fill="#8b5c29" d="m95.95 33.08c1.491-1.802 4.388-1.921 5.246-4.286-2.303-.591-4.52-1.644-6.86-2.074-5.04-.926-1.85 1.592-3.473 4.926-3.05 6.269-4.995 12.933-6.751 19.684 5.02-1.314 9.609-4.202 13.266-7.965 1.797-1.849 3.616-3.842 4.971-6.069.372-.612.672-1.032.916-1.285.097-.536.256-1.045.472-1.531-2.339-.309-6.01 1.066-7.787-1.401"/><path fill="#ffbf00" d="m103.74 34.479c-.216.486-.375.994-.472 1.531.66-.687.898-.119.958 1.424.171 4.341-5.699 8.552-8.567 10.892-4.666 3.808-11.07 5.03-16.745 6.202-10.782 2.217-22.606 2.994-33.469 4.129-2.141.224-4.16 1.01-6.254 1.452-1.624.342-6-.312-7.06.45-2.146 1.544-9.02 1.906-11.4 1.486-6.622-1.168-12.383-4.754-18.663-6.982.309 5.242-.629 12.651 3.116 16.286 3.286 3.19 7.04 6.04 11.68 6.527-.628-4.286-1.255-8.572-1.883-12.859.224-.231.448-.461.672-.691 2.899 2.02 2.314 6.239 2.858 9.782.608 3.959.186 4.411 4.251 4.843 2.581.274 5.209.257 7.802.302 9.869.175 19.575-1.639 29.14-3.936 8.884-2.132 18.322-2.412 26.955-5.532 2.721-.984 4.109-1.435 5.529-4.01 1.168-2.115 2.112-4.388 3.161-6.567 2.106-4.374 4.322-8.689 6.793-12.858 1.137 7.06-3.92 12.479-6.189 18.665 1.593-1.328 3.185-2.655 4.778-3.983 2.3-1.918 2.252-1.998 2.285-5 .042-3.858.531-7.695.706-11.545.119-2.607 2.317-5.03 2.119-7.673-.122-1.625-.952-2.182-2.101-2.334"/><g fill-rule="evenodd"><path fill="#8b5c29" d="m81.43 51.743c2.627-6.788 4.087-14 7.801-20.324-6.898 5.315-8.112 13.01-10.357 21.02.889.017 1.783-.208 2.556-.691"/><g fill="#ffbf00"><path d="m13.1 51.05c5.842-4.74 12.1-8.116 19.02-10.899 3.367-1.354 6.8-2.519 10.243-3.648 1.2-.394 3.199-.209 4.095-1.352 2.64-3.366-6.098-.393-7.344.005-3.731 1.194-7.385 2.638-10.95 4.281-7.314 3.37-13.91 7.647-20.311 12.581 1.963.842 3.456-.283 5.246-.968"/><path d="m10.81 45.798c3.137-1.176 6.214-2.519 9.179-4.104 1.825-.975 7.777-2.86 8.172-4.606-4.274-1.608-14.09 6.04-17.351 8.71"/><path d="m91.52 83.27c4.871-2.212 10.546-6.08 12.683-11.352.451-1.112.38-4.548-.577-5.584-.62-.672-1.128-.423-1.478.622.14-.42 1.126 1.943 1.143 2.212.059.939-.117 1.946-.403 2.834-1.5 4.656-6.669 8.804-10.896 10.611-5.535 2.368-2.367-10.535-1.816-12.616-7 2.719-14.1 3.816-21.253 5.945 4.627.163 9.411.522 13.855 1.936 3.439 1.095 5.368 4.369 8.743 5.392"/><path d="m100.26 69.03c-.735 1.915-1.723 3.731-2.69 5.53 1.501-1.145 3.979-3.578 2.69-5.53"/></g></g><g fill="#ffbf00"><path d="m75.37 123.36c-12.839 2.371-25.418 6.151-38.29 8.303-3.318.555-6.642 1.051-9.998 1.301-.491.037-4.718.224-4.702.463.142 2.107.284 4.213.426 6.319.208 3.086.132 6.167 1.079 9.09.487 1.502.864 3.02-.168 4.389-1.458-3.353-2.103-6.961-2.558-10.58-.409-3.257.222-9.681-3.159-10.262-3.334-.573-6.276-2.206-8.743-4.563-.594-.568-2.593-4.801-.874-3.699 2.872 1.842 5.745 4.217 9.281 4.217 3.481 0 1.468-4.111-.672-4.907-3.161-1.176-4.087-.078-6.432-3.6-1.963-2.947-2.361-6.965-2.312-10.434 1.674.515 8.415 4.886 9.953 3.733 1.524-1.142-.785-4.544 2.286-4.977.324 1.803.204 5.214 1.833 5.351 5.01.421 9.942-.107 14.915-.746 9.536-1.225 18.807-4.055 28.314-5.366 9.486-1.308 20.866-.875 29.609-5.367 5.357-2.753 9.249-5.625 13.186-10.267 1.368-1.614-2.037-12.548-2.711-15.13-12.382 13.89-30.29 13.189-47.05 16.274-9.479 1.744-18.75 4.554-28.349 5.559-10.259 1.074-18.248-1.2-26.557-7.316-1.183 4.519 1.146 12.5 1.523 17.374.456 5.911.748 11.822 1.033 17.744.208 4.301.758 8.168-.571 12.27-1.192 3.68 6.458 8.851 8.844 11.164 1.983 1.922 4.402 3.567 6.254 5.6.728.798 1.117 1.939 2.02 2.557 1.894 1.299 10.09-4.588 12.408-5.426 10.855-3.918 21.917-7.653 33.2-9.95 12.181-2.479 24.707-3.155 36.749-6.371 3.241-.866 6.343-1.793 9.501-2.932 3.383-1.22 2.982-4.182 2.969-7.672-.019-5.451-1.102-11.235-2.826-16.383-11.685 8.952-25.27 11.935-39.41 14.242"/><path d="m104.7 126.68c-.603-3-.135-9.497 3.229-10.646-.113 2.953-1.38 8.363-3.229 10.646"/><g fill-rule="evenodd"><path d="m33 84.23c.362.059.573.094 0 0"/><path d="m55.06 77.874c-12.314 3.342-24.837 4.741-37.528 3.318 4.561 4.882 11.631.819 15.872 3.733-.31-.493-.096-.361-.403-.691.925.167 4.157-.916 4.843-.208.79.814-1.828 2.856-1.883.9-1.187 2.819-4.317 2.817-6.591 4.181-3.126 1.877-6.126 2.468-9.755 2.145-1.546-.137-3.095-.208-4.64-.346-.566-.051-2.772-.789-3.293-.658-2.637.661.506 1.647 1.816 2.558-.016.024.083-.431.135-.553 3.556 4.343 14.14.353 17.992-1.417 8.62-3.956 16.384-9.279 25.32-12.548-.619-.135-1.256-.358-1.884-.414"/><path d="m80.49 81.19c-1.517-.991-3.264-1.948-5.111-1.66 1.437 1.1 3.291 2.029 5.111 1.66"/><path d="m77.931 83.54c-4.766-4.856-11.98-1.687-17.487-.277 5.463-1.052 12.336-2.725 17.487.277"/><path d="m56.947 83.958c1.176-.14 2.356-.373 3.498-.691-1.165.264-2.32.495-3.498.691"/></g><path d="m52.844 85.27c1.151-.318 2.294-.675 3.43-1.037-1.153.306-2.318.588-3.43 1.037"/><path fill-rule="evenodd" d="m40.806 94.47c3.086-4.17 7.178-7.475 12.04-9.195-2.973.926-9.148 1.871-11.366 4.217-.841.889-2.047 3.701-2.959 4.978.726 0 1.574.137 2.286 0"/><path d="m7.582 89.9c.428.388 1.028.189 1.211 1.244.714-1.282-.649-2.403-1.211-1.244"/><path d="m36.905 91.56c-1.614 1.106-3.228 2.212-4.842 3.318 2.413 1.541 3.535-1.933 4.842-3.318"/><path d="m88.29 113.41c6.103-3.29 11.324-7.88 15.469-13.55-2.804 2.123-4.555 4.992-7.198 7.328-2.594 2.293-5.588 4.055-8.271 6.222"/><g fill-rule="evenodd"><path d="m79.28 107.46c-1.973.322-3.939.697-5.919.968-.454 3.784 4.219-.001 5.919-.968"/><path d="m48.2 117.14c4.398-.618 6.541-5.155 10.626-6.36-4.329.625-7.954 2.823-10.626 6.36"/><path d="m30.18 120.04c-2.668 2.676-11.225 2.122-8.474 8.02 8.792-3.562 16.467-8.681 23.673-14.931-5.414 1.217-10.362 4.252-15.199 6.913"/><path d="m105.37 119.08c-.051 2.571-1.192 5.02-.673 7.605 1.849-2.283 3.117-7.693 3.229-10.646-1.348.461-2.456 1.547-2.557 3.041"/></g><path d="m21.17 116.73c-.828 5.424 4.809 1.147 7.398 0-2.472.839-4.89-.194-7.398 0"/><path fill-rule="evenodd" d="m44.975 121.7c-.663.364-1.27.933-1.883 1.383.94-.031 1.275-.608 1.883-1.383"/><path d="m60.17 123.08c-1.838.968-3.676 1.935-5.514 2.904 2.01-.079 3.819-1.827 5.514-2.904"/><path d="m42.15 123.36c-2.402 1.319-4.987 2.23-7.129 4.01 2.611-.687 5.228-2.02 7.129-4.01"/></g><path fill="#8b5c29" d="m35.829 33.908c-1.809.347-6.693 2.035-7.937.277-2.337-3.305 2.476-13.52 4.299-16.264 1.774-2.671 3.625-5.146 5.754-7.527.742-.83 2.408-1.987 3.636-3.19-.181-.361-.395-.808-.567-1.169-9.451 7.914-15.683 17.777-16.349 30.776-3.995 1.515-7.988 3.046-11.925 4.714-2.655 1.124-10 3.141-10.807 5.518-.75 2.213 1.231 5.501 2.96 6.567 1.324.816 2.746.263 4.17.415 2.667.284 2.806 1.312 4.91 3.041 7.57 6.224 18.02 1.745 26.444.615 2.936-.394 2.45-2.607 3.054-5.367.539-2.461 1.091-4.912 1.742-7.345 1.282-4.786 2.884-9.502 5.28-13.826-5.059.627-9.696 1.811-14.662 2.765"/><g fill-rule="evenodd"><path fill="#ffbf00" d="m65.29 11.51c.03-.018.026-.02.007-.013-.002.004-.004.009-.007.013"/><path fill="#8b5c29" d="m56.996 1.33c-1.719-.063-12.828 2.694-15.983 4.705.213.426.369.728.567 1.169 3.953-.945 11.763-3.5 15.919-2.967 3.72.478 5.553 4.106 6.845 7.689.025-.007.836-.392.948-.428 2.35-4.297-4.765-10.04-8.296-10.168"/></g></g><g fill-rule="evenodd" stroke="#000" stroke-width=".036" transform="matrix(.07667 0 0 .08051.062 1045.05)" stroke-miterlimit="10"><path d="m52.83.018c29.15 0 52.813 22.531 52.813 50.29 0 27.76-23.66 50.29-52.813 50.29-29.15 0-52.812-22.532-52.812-50.29 0-27.761 23.66-50.29 52.812-50.29"/><g fill="#fff"><path d="m25.25 11.218c-1.548.648-2.664 1.332-3.78 2.196-1.116.756-1.908 1.692-2.664 2.664-.864.9-1.584 1.872-2.16 2.916l7.128-1.836c.468-1.98.972-3.96 1.476-5.94z"/><path d="m32.886 8.09l15.984-3.888 11.02 9.108-2.916 11.628-12.24 5.688-15.48-4.104-2.304-9.468z"/><path d="m63.34 14.03l-1.943 11.02 12.13 12.13 12.96-1.944 3.996-14.544-14.184-11.628z"/><path d="m76.05 41.28l12.24-2.196 7.272 12.24-10.04 16.596-12.6-1.188-4.607-10.549z"/><path d="m94.48 75.91l-5.832-6.768 10.188-17.209 3.528-1.943c.036 4.176-.288 7.703-.972 11.268-.828 3.527-2.053 6.732-3.276 9.324-1.223 2.447-2.34 4.176-3.636 5.328z"/><path d="m33.894 63.42l14.436-10.656 16.236 4.248 5.184 12.205-8.964 11.771-20.232-4.248z"/><path d="m64.962 97.11c-2.988.434-6.01.756-9.216.828-3.312.072-6.84 0-10.04-.359-3.42-.504-6.588-1.404-9.36-2.305-2.772-.971-4.896-2.051-6.768-3.383l-.252-4.861 9.576-7.271 21.457 3.781 6.155 9.432z"/><path d="m14.31 43.726l13.212-13.428 14.292 3.996 3.636 15.48-14.904 11.521-12.96-.361z"/><path d="m9.45 71.12c-1.152.467-2.232-.758-3.384-3.277-1.26-2.736-2.952-8.244-3.528-12.348-.54-4.141-.504-8.172.252-12.24l7.524 2.412 3.996 16.705z"/></g></g></g></svg>