<svg xmlns="http://www.w3.org/2000/svg" viewBox="0 0 12 16" enable-background="new 0 0 580 580"><rect color-interpolation-filters="linearRGB" x="-12" color="#000" image-rendering="auto" color-rendering="auto" fill-rule="evenodd" rx=".134" width="12" color-interpolation="sRGB" text-rendering="auto" fill="#fff" height="16" shape-rendering="auto" transform="scale(-1 1)"/><path d="m3.864 4.315c.305 0 .567-.104.788-.313.22-.209.33-.466.33-.77 0-.305-.11-.562-.33-.771-.22-.209-.483-.313-.788-.313-.305 0-.564.104-.779.313-.215.209-.322.466-.322.771 0 .305.107.561.322.77.215.209.474.313.779.313"/><path d="m10.816 4.59c-.04-.147-.139-.271-.298-.373 0 0-.357-.029-.543-.027v-2.951c0-.209-.199-.379-.445-.379-.246 0-.445.17-.445.379v2.996l-4.961.762c-.186.034-.335.116-.448.245-.113.13-.143.268-.09.415l1.094 3.641-3.542 4.633c-.066.101-.099.208-.099.321 0 .181.076.336.229.466.153.13.335.195.547.195.278 0 .504-.113.676-.339l3.701-4.87.036.796-.393 3.455c-.027.181.02.341.139.483.119.141.285.229.497.263.212.034.408-.003.587-.11.179-.107.282-.251.308-.432l.385-3.886c.013-.124 0-.254-.039-.39l-1.082-4.108 2.455-.375v9.298c0 .209.199.379.445.379.246 0 .445-.17.445-.379v-9.435c.162-.026.621-.134.722-.258.106-.13.146-.268.119-.415"/></svg>