<svg xmlns="http://www.w3.org/2000/svg" viewBox="0 0 534.52 416.02"><g fill-rule="evenodd"><g fill="#fff" stroke="#000"><g color-rendering="auto" color-interpolation-filters="linearRGB" shape-rendering="auto" image-rendering="auto" text-rendering="auto" color-interpolation="sRGB" color="#000" stroke-width="4"><path d="m288.47 93.8h168.02v110.48h-168.02z"/><path d="m291.53 224.22h120.45v74.42h-120.45z"/></g><path stroke-width="20" d="m242.16 49.08c-9.667.021-20.428 7.755-27.28 14.219-29.3 22.5-50.746 38.618-99.72 51.812-18.606 5.62-56.49-1.22-93.66-3.844-23.727-3.698-3.392 38.675-.219 55.906 21.1 66.07 45.37 132.95 88.25 188.34 24.452 27.21 58.27 50.933 96.19 50.5 31.33-2.613 57.2-27.773 64.53-57.75.634-2.023 1.219-4.072 1.75-6.125.841-3.143 1.652-6.279 2.406-9.438-4.624-7.21-8.117-15.16-10.156-23.5-.634-2.023-1.188-4.072-1.719-6.125-17.04-63.708-15.994-130.75-8.594-195.78 2.155-10.436 4.771-20.768 7.594-31.03-1.961-6.52-3.905-13.05-5.781-19.594-3.762-5.524-8.53-7.605-13.594-7.594z"/></g><path fill="#333" stroke="#333" stroke-width="20" d="m290.91 18.11c-7.758 1.993-6.652 12.11-9.219 18-11.446 36.589-22.944 73.821-23.406 112.5-3.52 58.11-1.266 118.13 18.969 173.09 11.943 24.793 40.554 42.695 68.31 35.688 39.14-8.07 70.34-37.517 90.66-70.844 38.09-59.52 59.6-127.4 79.09-194.81.373-3.585 1.837-9.1-.344-11.688-18.789 1.303-37.709 3.785-56.59 5.438-20.58 1.957-41.636.033-60.906-7.5-34.387-11.391-64.68-31.899-92.25-55.03-4.214-2.819-9.151-5.03-14.313-4.844zm61.5 91.31c16.305-.523 23.755 22.783 12.656 33.438-14.949 16.11-38.41 26.936-60.5 21.22-13.563-4.875-21.234-24.427-10.906-35.875 16.267-14.13 39.63-11.739 58.75-18.781zm65.969 14.5c17.12-.509 29.59 15.671 31.813 31.344 4.47 10.788 12.379 22.916 6.781 34.813-4.108 8.96-15.75 10.61-24.16 7.313-20.11-4.672-33.511-24.573-33.906-44.781-1.828-11.592 3.618-26.458 16.5-28.375.977-.19 1.969-.293 2.969-.313zm-66.41 105.56c21.13.345 40.44 13.225 52.813 29.656 7.865 13.494 4.118 35.14-11.844 40.656-10.963 2.416-18.216-8.09-26.938-12.594-13.965-8.944-31.805-9.06-47.06-3.719-7.507 2.352-17.681.643-20.531-7.625-4.879-11.503 2.072-24.816 12.13-30.938 11.85-9.139 26.316-15.389 41.44-15.438z"/></g><path fill="none" stroke="#333" stroke-width="20" d="m262.52 303.09c-17.04-63.708-15.965-130.78-8.565-195.81 6.279-30.408 16.278-59.851 24.827-89.66 10.944-16.07 30.41-3.239 40.854 6.611 29.3 22.5 50.761 38.632 99.73 51.827 18.606 5.62 56.48-1.233 93.64-3.856 23.727-3.698 3.414 38.679.241 55.91-21.1 66.07-45.4 132.93-88.28 188.33-24.452 27.21-58.25 50.952-96.17 50.52-31.33-2.613-57.2-27.783-64.54-57.76-.634-2.023-1.215-4.063-1.745-6.116z"/><path d="m163.19 337.39c-15.587-2.165-30.477-11.409-37.973-25.452 8.301-9.223 20.15.12 29.846 1 22.604 2.858 43.729-12 54.74-30.878 7.138-6.841 8.07-25.499 20.482-22.763 8.953 4.955 7.266 16.357 5.079 24.64-1.416 11.04-6.783 20.974-13.878 29.394-5.589 7.486-11.139 16.05-20.806 18.531-12.362 2.3-24.663 8.143-37.49 5.526m-55.23-120.84c-11.916-7.03-26.28-11.358-34.725-23.03-1.884-13.283 14.873-21.945 26.02-16.757 13.13 4.107 25.539 11.624 33.846 22.757 5.514 10.02-4.057 25.835-15.964 20.676-3.158-.954-6.101-2.472-9.177-3.642m75.997-24.592c-8.334-10.945-8.412-29.996 4.539-37.506 8.506-5.619 20.713-9.481 29.754-2.849 4.746 9.78-3.612 18.743-7.384 27.2-2.279 8.546-7.882 18.14-17.647 18.995-3.932.097-7.423-2.514-9.262-5.844"/></svg>