<svg xmlns="http://www.w3.org/2000/svg" viewBox="0 0 687.5 687.5"><defs><radialGradient fx=".214" fy=".242" cx=".196" cy=".258" id="a" r=".661"><stop stop-color="#ff5f5f"/><stop offset="1" stop-color="#890000"/></radialGradient><linearGradient id="b" y1=".648" x1=".648" y2=".305" x2=".656"><stop stop-color="#a00000"/><stop offset="1" stop-color="#510000"/></linearGradient><radialGradient fx=".27" fy=".279" cx=".275" cy=".294" id="c" r=".642"><stop stop-color="#ffe59e"/><stop offset="1" stop-color="#db8e00"/></radialGradient><radialGradient fx=".214" fy=".242" cx=".196" cy=".258" id="d" r=".661"><stop stop-color="#67ff69"/><stop offset="1" stop-color="#1a7600"/></radialGradient><linearGradient id="e" y1="1.031" x1=".467" y2=".18" x2=".233"><stop stop-color="#67e869"/><stop offset="1" stop-color="#1a4c00"/></linearGradient><linearGradient id="f" y1=".875" x1=".492" y2=".344" x2=".694"><stop stop-color="#f5db94"/><stop offset="1" stop-color="#be7900"/></linearGradient></defs><path fill="#fff" stroke="#fff" stroke-width="1.115" stroke-dashoffset=".6" d="m.558.558h686.38v686.38h-686.38z"/><g transform="translate(-34.885-27.617)"><path fill="none" stroke="#000" stroke-linejoin="round" stroke-linecap="round" stroke-width="2.664" d="m270.41 320.47c-15.696 33.1 13.939 62.905 35.917 84.01 21.657 20.685 22.634 51.05 17.18 78.45-4.072 34.22-1.188 73.44 26.2 97.99 22.511 20.784 46.01 54.2 26.958 84.78-2.203 3.721-4.935 7.137-8.144 10.04"/><g fill-rule="evenodd"><path fill="url(#e)" d="m118.74 505.51c5.92 4.545 8.145 12.207 8.899 19.327.593 3.154.118 6.335.172 9.503.017 2.332 1.328 5.519 4.188 4.911 2.02-.533 3.733-1.879 5.427-3.07 4.31-3.43 7.434-8.73 12.998-10.306 4.615-.896 9.699-.948 13.539-4.03 2.617-1.865 1.954-6.04-1.154-6.962-3.206-1.428-6.871-1.914-9.602-4.301-7.02-4.781-11.389-12.431-14.362-20.2-1.615-2.847-5.891-2.062-7.508.389-3.784 4.417-4.989 10.985-10.407 13.954-.688.364-1.426.636-2.19.79" transform="matrix(.71051 0 0 .71051 163.39-43.44)"/><ellipse fill="url(#d)" cx="315.09" cy="321.41" rx="155.64" ry="181.74" transform="matrix(.59855-.4165.41466.5959-137.11 141.61)"/></g></g><g transform="matrix(.71051 0 0 .71051 128.5-71.06)"><path fill="none" stroke="#000" stroke-linejoin="round" stroke-linecap="round" stroke-width="3.75" d="m302.34 532c-3.807 44.12-27.524 91.41-4.538 133.95 30.05 45.868 97.2 51.31 120.33 103.76 19.356 33.496 16.232 72.75 12.643 109.64-2.515 28.907 2.173 60.27 23.718 81.49 12.741 17.14 24.17 37.4 22.268 59.54"/><path fill="url(#b)" fill-rule="evenodd" d="m292.89 498.93c2.264 7.112-.286 14.672-3.735 20.947-1.315 2.928-3.521 5.267-5.287 7.898-1.318 1.924-2.063 5.288.633 6.423 1.958.713 4.137.59 6.208.579 5.497-.354 11.09-2.919 16.556-1.036 4.3 1.9 8.502 4.762 13.417 4.423 3.214-.036 5.05-3.84 3.03-6.374-1.816-3-4.547-5.496-5.425-9.01-3.03-7.933-2.248-16.708-.249-24.786.3-3.259-3.658-5.057-6.385-3.969-5.629 1.464-10.37 6.167-16.513 5.509-.773-.094-1.534-.293-2.249-.603"/></g><ellipse fill="url(#a)" cx="315.09" cy="321.41" rx="155.64" ry="181.74" fill-rule="evenodd" transform="matrix(.7292 0 0 .72598 120.14-79.31)"/><g transform="matrix(.71051 0 0 .71051 128.5-71.06)"><path fill="none" stroke="#000" stroke-linejoin="round" stroke-linecap="round" stroke-width="3.75" d="m501.47 536.36c-24.942 36.689-40.02 84.74-19.11 126.8 13.12 41.23 18.13 90.85-10.524 127.02-25.03 36.08-27.413 81.5-15.474 122.65 10.691 42.805-9.677 83.29-32.716 117.95l-3.578 5.605"/><path fill="url(#f)" fill-rule="evenodd" d="m500.45 509.42c.031 7.464-4.665 13.913-9.833 18.869-2.131 2.4-4.936 3.972-7.408 5.954-1.833 1.441-3.551 4.429-1.319 6.318 1.655 1.267 3.771 1.801 5.75 2.411 5.351 1.308 11.453.533 16.11 3.967 3.534 3.1 6.687 7.088 11.477 8.237 3.077.927 5.971-2.152 4.798-5.175-.833-3.409-2.694-6.605-2.478-10.225-.516-8.476 2.856-16.615 7.181-23.724 1.262-3.02-1.976-5.92-4.904-5.698-5.809-.288-11.74 2.781-17.405.314-.709-.321-1.376-.739-1.965-1.248"/></g><ellipse fill="url(#c)" cx="315.09" cy="321.41" rx="155.64" ry="181.74" fill-rule="evenodd" transform="matrix(.69577.21827-.21731.69269 386.12-120.02)"/><path d="m374.44 235.15c-28.09 122.13-59.796 271.37-87.89 393.5-104.65-72.46-177.63-13.565-167.08 69.37 6.771 53.22 100.11 110.2 189.18 23.315 16.556-80.979 46.37-214.48 68.944-319.25l164.99 117.08c-16.838 75.898-33.383 151.3-51.51 230.11-104.65-72.46-177.7-13.581-167.15 69.35 6.771 53.22 100.13 110.12 189.2 23.24l101.09-438.1c-.672-.171-1.344-.337-2.02-.508l.207-.259c-14.481-11.416-223.54-164.17-237.96-167.85m19.702 90.42l165.12 119.31c-2.511 11.129-4.946 22.14-7.411 33.17l-165.21-117.81c2.132-10.115 5.707-25.872 7.504-34.663" transform="matrix(-.41056-.09259-.0955.42348 521.21 304.32)"/><path d="m362.6 675.57c-116.1-66.43-187.24 1.803-168.72 87.68 11.889 55.11 114.73 106.33 200.15 7.333 12.434-106.95 28.731-214.42 41.16-321.37 131.29 115.75 89.36 185.79 62.22 266.43 55.806-22.998 143.22-124.53 47.719-267.74-45.19-63.44-40.951-18.646-84.72-145.19-15.432-2.549-30.864-5.098-46.3-7.646-18.399 130.41-33.11 250.1-51.51 380.51" transform="matrix(.37593-.05392.05704.39763-32.481 246.94)"/></svg>