<svg xmlns="http://www.w3.org/2000/svg" viewBox="0 0 16 12.743"><path fill="#fff" stroke="#fff" stroke-width=".029" stroke-dashoffset=".6" d="m.014.014h15.971v12.715h-15.971z"/><path d="m2.761 9.37c.156.049.539.007.408-.269-.073-.154-.416-.347-.567-.393-.228-.069-.612.231-.319.423l-.064.204c-.245-.125-.315-.509-.295-.784.014-.193.177-.397.242-.579.176-.499.321-.989.459-1.499.055-.204.071-.59.237-.725.155-.126.394-.144.569-.237.129-.068.213-.209.351-.255.297-.098.59-.073.732-.418.301.486.552.938.602 1.533.035.423-.234.856-.326 1.261-.064.283-.044.57-.113.852-.087.351-.255.675-.338 1.022-.05.209-.005.447-.066.647-.109.358-.733.572-.659 1.022.034.208.261.249.422.284.374.082.778.031 1.147-.03.123-.021.272.005.369-.098.232-.248-.042-.717.033-1.01.054-.208.238-.39.334-.579.209-.411.387-.845.507-1.295h.032c.008.397.097.894.239 1.261.09.232.321.564.315.818-.011.434-.626.718-.331 1.226.297.511.998-.003 1.37-.093.204-.049.477.015.577-.249.138-.364-.142-.709-.189-1.055-.054-.396.016-.794-.052-1.193-.05-.292-.272-.632-.264-.92.005-.203.14-.443.184-.647l1.211.608.51.312c.002.29-.005.636.042.92.023.136.142.273.106.413-.071.273-.697.554-.556.844.077.159.291.214.44.255.377.104 1.364.259 1.641-.118.122-.166.112-.443.112-.644 0-.505.05-1.04-.064-1.533.41.27.503.814.709 1.261.071.155.22.4.171.579-.075.275-.842.705-.487 1.076.098.103.277.111.404.152.366.119 1.479.314 1.652-.206.162-.486.121-1.343.008-1.839-.066-.292-.22-.545-.247-.852-.025-.282.158-.568.177-.852.027-.396-.087-.743-.099-1.124-.007-.245.07-.498.07-.75.35.992-.016 2.059.238 3.067.037.147.052.978.326.894.103-.031.133-.222.113-.315-.09-.405-.254-.763-.254-1.193 0-.214.091-.434.113-.647.132-1.26.316-3.01-.696-3.937-.451-.412-.94-.713-1.434-1.054-.387-.267-.782-.579-1.243-.685-.338-.078-.708.037-1.052.019-.749-.039-1.484-.19-2.23-.265-.34-.034-.676.036-1.02-.033-.738-.148-1.284-.745-2.01-.94-.229-.062-.626-.019-.86.024-.221.042-.338.207-.51.338-.5.381-1.156.991-1.432 1.593-.17.369-.188.863-.297 1.261-.159.58-.461 1.063-.55 1.67-.094.636.05 1.303.05 1.942 0 .48-.251 1.067-.091 1.533.223.651 1.41.866 1.493 0"/></svg>