<svg xmlns="http://www.w3.org/2000/svg" viewBox="0 0 422.86 594.29" xmlns:xlink="http://www.w3.org/1999/xlink"><defs><path fill="none" stroke="#000" id="a" d="m266.43 698.08h142.86"/><path fill="none" stroke="#000" id="b" d="m268.93 664.51h139.29"/><path fill="none" stroke="#000" id="c" d="m269.29 630.93h140"/></defs><g transform="translate(-220-169.51)"><path fill="#e6e6e6" d="m220 169.51h422.86v594.29h-422.86z"/><g transform="translate(220 169.51)"><g fill="#b3b3b3"><path d="m155 432.5h36.07v62.5h-36.07z"/><path d="m47.14 432.86h108.57v125.71h-108.57z"/></g><path fill="#f00" d="m155 495h35v33.571h-35z"/><path fill="#0f0" d="m154.82 528.57h36.429v28.04h-36.429z"/></g><g stroke="#000"><path fill="#808080" stroke-width="5.144" d="m447.57 687.08h162v21.999h-162z"/><path fill="#59f" stroke-width="16.298" d="m276.92 209.8h317.11v333.7h-317.11z"/></g><path fill="#333" stroke-width="1.25" d="m429.97 511.87v-14.407c-10.231-.731-20.671-2.14-31.32-4.228-10.648-2.088-20.2-5.846-28.657-11.275-8.352-5.533-12.528-12.893-12.528-22.08 0-6.89 2.192-13.1 6.577-18.635 4.489-5.533 9.97-8.3 16.442-8.3 2.819 0 7.882 1.566 15.19 4.698 7.308 3.132 13.258 5.481 17.852 7.05 4.698 1.566 10.179 2.349 16.442 2.349v-50.27c-13.363-4.072-24.585-8.3-33.668-12.684-9.08-4.489-16.442-9.396-22.08-14.72-5.637-5.429-9.709-11.275-12.214-17.539-2.401-6.264-3.602-13.206-3.602-20.827 0-10.648 1.879-20.357 5.637-29.13 3.758-8.874 8.874-16.495 15.346-22.863 6.577-6.473 14.25-11.64 23.02-15.503 8.769-3.863 17.956-6.159 27.561-6.89v-15.19c0-6.368 3.184-9.552 9.552-9.552 6.473 0 9.709 3.184 9.709 9.552v15.19c7.83.209 16.13 1.409 24.899 3.602 8.874 2.088 16.39 5.637 22.55 10.648 6.159 5.01 9.239 11.692 9.239 20.04 0 4.072-.94 8.04-2.819 11.901-1.775 3.758-4.332 6.786-7.673 9.08-3.236 2.297-6.89 3.445-10.962 3.445-2.506 0-5.533-.783-9.08-2.349-3.445-1.566-6.577-3.08-9.396-4.541-2.819-1.566-5.585-2.819-8.3-3.758-2.714-1.044-5.533-1.566-8.456-1.566v45.882c21.819 5.951 39.31 14.355 52.46 25.21 13.258 10.857 19.888 26.465 19.888 46.822 0 12.11-2.245 22.915-6.734 32.415-4.385 9.396-10.179 17.278-17.382 23.646-7.099 6.264-14.877 11.07-23.333 14.407-8.456 3.341-16.756 5.324-24.899 5.951v14.407c0 6.368-3.236 9.552-9.709 9.552-6.368 0-9.552-3.184-9.552-9.552m0-168.65v-40.09c-5.22 1.148-9.5 3.602-12.841 7.36-3.236 3.654-4.854 8.352-4.854 14.09 0 4.802 1.618 8.769 4.854 11.901 3.341 3.132 7.621 5.376 12.841 6.734m19.261 58.57v45.26c5.115 0 9.448-2.244 12.997-6.734 3.654-4.489 5.481-9.604 5.481-15.346 0-6.577-1.566-11.588-4.698-15.03-3.03-3.549-7.621-6.264-13.78-8.143"/><path fill="#808080" stroke="#000" stroke-width="3.73" d="m-599.56-616.21h126.27v14.841h-126.27z" transform="scale(-1)"/><use xlink:href="#a"/><use xlink:href="#b"/><use xlink:href="#c"/><use xlink:href="#a"/><use xlink:href="#b"/><use xlink:href="#c"/><path fill="none" stroke="#000" stroke-width=".934" d="m338.93 604.08v121.56"/><path fill="#decd87" fill-rule="evenodd" stroke="#020200" stroke-width="5.083" d="m375 602.75v125.65"/><g fill="none" stroke="#000"><path stroke-width=".934" d="m302.86 604.08v121.56"/><path stroke-width="5" d="m266.7 601.91h143.75v126.61h-143.75z"/></g></g></svg>