<svg xmlns="http://www.w3.org/2000/svg" viewBox="0 0 102.61 124.61"><g fill-rule="evenodd"><path fill="#fff" stroke="#fff" stroke-width=".277" d="m51.35.202l-51.03 53.908h12.286v70.36h77.49v-70.36h12.186z"/><path stroke="#000" stroke-width=".252" d="m51.35 5.85l-44.03 45.19h8.806v67.784h70.45v-67.784h8.806z"/></g><path fill="#fff" stroke-width="1.25" d="m49.14 105.84v-3.762c-2.672-.191-5.398-.559-8.179-1.104-2.781-.545-5.275-1.527-7.483-2.944-2.181-1.445-3.271-3.367-3.271-5.766 0-1.799.572-3.421 1.718-4.866 1.172-1.445 2.604-2.167 4.294-2.167.736 0 2.058.409 3.967 1.227 1.908.818 3.462 1.431 4.662 1.84 1.227.409 2.658.613 4.294.613v-13.13c-3.49-1.063-6.42-2.167-8.792-3.312-2.372-1.172-4.294-2.454-5.766-3.844-1.472-1.418-2.535-2.944-3.19-4.58-.627-1.636-.941-3.449-.941-5.439 0-2.781.491-5.316 1.472-7.606.981-2.317 2.317-4.307 4.01-5.97 1.717-1.69 3.721-3.04 6.01-4.048 2.29-1.01 4.689-1.608 7.197-1.799v-3.967c0-1.663.831-2.494 2.494-2.494 1.69 0 2.535.831 2.535 2.494v3.967c2.045.055 4.212.368 6.502.941 2.317.545 4.28 1.472 5.889 2.781 1.608 1.309 2.413 3.053 2.413 5.234 0 1.063-.245 2.099-.736 3.108-.463.981-1.131 1.772-2 2.372-.845.6-1.799.9-2.863.9-.654 0-1.445-.204-2.372-.613-.9-.409-1.718-.804-2.454-1.186-.736-.409-1.459-.736-2.167-.981-.709-.273-1.445-.409-2.208-.409v11.982c5.698 1.554 10.264 3.749 13.699 6.584 3.462 2.835 5.193 6.911 5.193 12.227 0 3.162-.586 5.984-1.758 8.465-1.145 2.454-2.658 4.512-4.539 6.175-1.854 1.636-3.885 2.89-6.093 3.762-2.208.872-4.376 1.39-6.502 1.554v3.762c0 1.663-.845 2.494-2.535 2.494-1.663 0-2.494-.831-2.494-2.494m0-44.04v-10.469c-1.363.3-2.481.941-3.353 1.922-.845.954-1.268 2.181-1.268 3.68 0 1.254.423 2.29 1.268 3.108.872.818 1.99 1.404 3.353 1.758m5.03 15.294v11.818c1.336 0 2.467-.586 3.394-1.758.954-1.172 1.431-2.508 1.431-4.01 0-1.718-.409-3.03-1.227-3.926-.791-.927-1.99-1.636-3.599-2.126"/></svg>