<svg xmlns="http://www.w3.org/2000/svg" viewBox="0 0 509.78 473.95"><path fill="#fff" d="M 0,0 H509.78 V473.95 H0 z"/><g transform="translate(-167.75-164.86)"><g stroke="#000"><path fill="none" stroke-width="42" d="m623.79 399.02v-178.9h-403.68v178.9z"/><path stroke-width="1.859" d="m423.48 367.16c31.436 0 56.922-25.486 56.922-56.922 0-31.436-25.486-56.922-56.922-56.922-31.436 0-56.922 25.486-56.922 56.922 0 31.436 25.486 56.922 56.922 56.922z"/></g><path fill="#fff" d="m392.54 320.32h14.865c.941 4.289 2.179 9.476 8.95 11.401l-.018-16.849c-9.273-1.333-22.65-5.399-22.65-20.312 0-16.764 18.547-21.991 22.668-21.991v-10.137h13.98v10.137c9.427.546 23.11 8.426 23.11 23.406h-14.719c-.374-4.447-3.821-8.816-8.243-9.128v15.448c11.238 1.153 24.434 5.442 24.434 20.542 0 13.185-13.247 22.801-24.434 23.393v10.162h-14.13v-10.31c-8.095-1.184-22.896-8.989-23.815-25.762"/><path d="m416.43 287v12.799c-9.963-.156-10.157-11.02 0-12.799"/><path d="m430.65 317.28c12.328.312 13.7 12.561-.014 14.52"/><path d="m430.63 331.8l.014-14.52"/><path stroke="#000" stroke-width="1.859" d="m516.76 466.41c31.436 0 56.922-25.486 56.922-56.922 0-31.437-25.486-56.923-56.922-56.923-31.437 0-56.923 25.486-56.923 56.923 0 31.436 25.486 56.922 56.923 56.922z"/><path fill="#fff" d="m543.05 432.23v12.271h-52.718v-12.271c5.99-4.01 9.106-14.159 7.189-19.588h-11.02v-12.506h8.865c-2.396-5.663-2.396-7.551-2.396-12.507 0-4.955 4.075-21.11 25.4-21 19.638.104 25.338 16.284 25.338 27.845l-14.95.009c-1-7-3.75-12.75-10.25-12.75-9.944 0-9.961 6.251-9.961 8.376 0 2.123.358 7.314 2.396 10.147h12.94v12.27h-10.544c1.317 11.21-5.152 15.929-5.512 19.705z"/><path stroke="#000" stroke-width="1.859" d="m478.76 614.41c31.436 0 56.922-25.486 56.922-56.922 0-31.437-25.486-56.923-56.922-56.923-31.437 0-56.922 25.486-56.922 56.923 0 31.436 25.485 56.922 56.922 56.922z"/><path fill="#fff" d="m446.77 522.58h16.535l15.336 27.07 16.64-27.07h15.229l-24.68 43.648h18.45v13.898h-17.732v19.508h-15.1v-19.508h-18.931v-13.655h19.17z"/><path stroke="#000" stroke-width="1.859" d="m299.26 549.91c31.437 0 56.923-25.486 56.923-56.922 0-31.437-25.486-56.923-56.923-56.923-31.436 0-56.922 25.486-56.922 56.923 0 31.436 25.486 56.922 56.922 56.922z"/><g fill="#fff"><path d="m304.97 482.13h14.378v7.189c3.116-3.596 6.709-7.43 14.377-7.43v13.66c-11.72 1.437-14.377 7.687-14.377 15.437v17.15h-14.378z"/><path d="m301.07 482.13v13.538h-10.221v32.47h-14.497v-32.35h-8.626v-13.539h8.626v-12.1c0-4.673 4.552-18.932 21.685-18.932 17.492 0 21.22 13.769 21.22 25.281h-14.25c0-7.387-1-11.263-6.855-11.263-6.27 0-7.307 4.313-7.307 11.144v5.751z"/></g></g></svg>