<svg xmlns="http://www.w3.org/2000/svg" viewBox="0 0 480 480" xmlns:xlink="http://www.w3.org/1999/xlink"><defs><path id="a" d="M278.91286 461.96271A78.38062 78.38062 0 1 1 122.15163 461.96271 78.38062 78.38062 0 1 1 278.91286 461.96271z"/></defs><g fill-rule="evenodd"><path fill="#fff" stroke="#000" stroke-width="2" d="m30.856 5.772h420c10.816.791 23.07 11.844 23.666 24.865v418.81c.05 10.319-11.794 24.19-25.16 24.865h-419.41c-9.524-.583-24.431-15.379-24.865-25.16l.599-418.21c-1.082-6.302 14.286-25.298 25.16-25.16z"/><path fill="#039" d="m35.19 16.781c-11.761-.515-18.473 7.519-18.03 20.375v406.41c.047 8.667 3.728 19.07 15.688 19.281l414.44-.031c11.959-.211 15.672-10.614 15.719-19.281v-406.44c.442-12.856-6.271-20.89-18.03-20.375z"/></g><path fill="#fff" d="m100.83 91.82v105.27h73.46c18.365 0 32.06-5.524 41.1-16.574 9.03-11.05 13.55-23.07 13.55-36.06 0-19.709-7.093-34.19-21.277-43.45-9.108-6.122-20.829-9.182-35.16-9.183zm-49.5 279.51v-326.32h118.48c12.691 0 24.898 1.344 36.619 4.03 11.721 2.688 23.927 8.959 36.619 18.813 9.854 7.615 18.216 18.1 25.08 31.468 6.868 13.364 10.302 28.855 10.303 46.47 0 23.293-8.698 45.47-26.09 66.52-17.395 21.05-42.816 31.58-76.26 31.58h-75.25v127.44z"/><g transform="matrix(.79294 0 0 .77558-372.36 292.14)"><g fill="none"><g stroke-width="26"><use stroke="#fff" xlink:href="#a" transform="matrix(-.7942 0 0 .7942 844.7-247.28)"/><use stroke="#feffff" xlink:href="#a" transform="matrix(-.7942 0 0 .7942 1111.48-248.49)"/></g><path stroke="#fff" stroke-linejoin="round" stroke-width="16.579" d="m902.9 12.495l-160.07.808-56.59 105.1h108.33l113.18-76.8"/></g><g fill-rule="evenodd"><g fill="#fff"><path stroke-width="25" d="m896.75-50.49c8.695 0 15.267-.194 22 10.1 1.939 3.431 2.826 7.619 2.11 11.789-.859 4.741-3.666 9.399-6.975 12.157-4.382 3.651-8.54 3.37-7.868 6.652.862 4.212 3.494 10.06 6.338 19.568 2.887 9.647 6.315 21.454 9.679 33.08 3.365 11.629 6.668 23.09 9.282 32.02 1.307 4.464 2.449 8.298 3.326 11.168.854 2.797 1.608 4.97 1.539 4.815 2.724 4.793 3.095 7.915 7.664 11.995 5.123 4.483 9.294 7.795 10.741 8.807 3.677 2.671 5.386 8.307 3.444 11.09-2.447 3.796-7.5 4.378-11.193 3.242-3.507-1.113-9.06-3.03-15.495-8.357l-.05-.074-.074-.05c-8.957-7.683-12.271-17.01-12.608-17.547l-.472-.72-.323-.794c-.776-1.911-1.241-3.595-2.159-6.602-.918-3.01-2.082-6.891-3.4-11.392-2.636-9-5.922-20.477-9.282-32.09-3.36-11.613-6.78-23.36-9.63-32.885-2.85-9.525-4.651-17.347-5.316-19.01-1.62-4.05-2.448-8.423-1.34-12.806 1.107-4.384 4.417-7.922 7.388-8.744 6.781-1.897 4.982-6.775 1.513-6.782l-29.07-.059-.072-18.568c0 0 18.871 0 30.3 0"/><path stroke="#fff" stroke-width="19.855" d="m792.5 115.11l-54.879-134.34"/></g><g stroke="#fff"><path fill="#fffffd" stroke-linecap="round" stroke-width="7.247" d="m817.08 72.24l-44.589 94.32"/><use fill="#fffeff" xlink:href="#a" stroke-width="31.31" transform="matrix(-.31201 0 0 .32232 856.53-30.3)"/><g fill="#fff"><g stroke-width="10.126"><path d="m828.98 75.13l-29.29.268"/><path d="m787.42 162.59l-29.29.268"/></g><path stroke-width=".993" d="m710.75-31.23h68.884c2.572 0 5.893 4.55 2.572 7.574-3.591 3.418-35.871 10.433-35.871 10.433 0 0-8.861 2.43-13.577 1.858-4.716-.572-21.01-2-22.01-19.865z"/></g></g></g></g></svg>