<svg xmlns="http://www.w3.org/2000/svg" viewBox="0 0 480 480"><g fill-rule="evenodd"><path fill="#fff" stroke="#000" stroke-width="2" d="m30.856 5.772h420c10.816.791 23.07 11.844 23.666 24.865v418.81c.05 10.319-11.794 24.19-25.16 24.865h-419.41c-9.524-.583-24.431-15.379-24.865-25.16l.599-418.21c-1.082-6.302 14.286-25.298 25.16-25.16z"/><path fill="#039" d="m35.19 16.781c-11.761-.515-18.473 7.519-18.03 20.375v406.41c.047 8.667 3.728 19.07 15.688 19.281l414.44-.031c11.959-.211 15.672-10.614 15.719-19.281v-406.44c.442-12.856-6.271-20.89-18.03-20.375z"/></g><g fill="#fff"><path d="m89.37 85.45v105.27h73.46c18.365 0 32.06-5.524 41.1-16.574 9.03-11.05 13.55-23.07 13.55-36.06 0-19.709-7.093-34.19-21.277-43.45-9.108-6.122-20.829-9.182-35.16-9.183zm-49.5 279.51v-326.32h118.48c12.691 0 24.898 1.344 36.619 4.03 11.721 2.688 23.927 8.959 36.619 18.813 9.854 7.615 18.216 18.1 25.08 31.468 6.868 13.364 10.302 28.855 10.303 46.47 0 23.293-8.698 45.47-26.09 66.52-17.395 21.05-42.816 31.58-76.26 31.58h-75.25v127.44z"/><path d="m475.14 512.18c-19.16-4.359-119.51-.723-148.53-.727-.895-63.06-1.121-126.12-1.655-189.18-18.06-18.971-8.599-53.28 16.515-60.65 24.862-10.242 55.54 12.785 51.49 39.828 1.089 21.363-23.752 26.563-32.13 38.34-.602 24.949-1.154 49.985.368 74.899 33.802 2.718 68.06.716 102.07 1.181 0 10.965 0 21.93 0 32.894-33.31 0-66.62 0-99.93 0-8.214 18.984-.064 34.643-1.87 32.897 37.596.183 99.19.074 136.79.103 21.565 44.32 42.31 89.26 64.08 133.33 22.868-2.764 39.469-15.687 48.16-16.244 9.524-.823 9.768 29.551 8.714 28.647-20.423 7.353-52.654 23.24-73.19 30.27-5.178-8.391-51.597-105.93-70.878-145.59m-116.39 189.1c-44.85-4.99-76.22-18.396-100.15-39.891-34.22-29.829-53.991-75.906-48.722-121.46 2.554-51.653 37.04-98.4 82.7-121.08 7.246 6.711 2.372 24.03 3.668 35.443 1.932 9.902-11.191 12.62-15.995 19.465-33.911 32.492-41.34 87.92-19.905 129.32 22.677 47.05 80.05 76.56 131.23 62.17 38.37-9.644 68.772-38.605 88.97-71.57 8.444 6.773 26.444 35.452 8.221 48.1-30.802 38.687-80.15 62.951-130.01 59.51" transform="matrix(.62118 0 0 .62118 65.912 20.13)"/></g></svg>