<svg xmlns="http://www.w3.org/2000/svg" viewBox="0 0 480 480"><g fill-rule="evenodd"><path fill="#fff" stroke="#000" stroke-width="2" d="m30.856 5.772h420c10.816.791 23.07 11.844 23.666 24.865v418.81c.05 10.319-11.794 24.19-25.16 24.865h-419.41c-9.524-.583-24.431-15.379-24.865-25.16l.599-418.21c-1.082-6.302 14.286-25.298 25.16-25.16z"/><path fill="#039" d="m35.19 16.781c-11.761-.515-18.473 7.519-18.03 20.375v406.41c.047 8.667 3.728 19.07 15.688 19.281l414.44-.031c11.959-.211 15.672-10.614 15.719-19.281v-406.44c.442-12.856-6.271-20.89-18.03-20.375z"/></g><path fill="#fff" d="m83 80.36v105.27h73.46c18.365 0 32.06-5.524 41.1-16.574 9.03-11.05 13.55-23.07 13.55-36.06 0-19.709-7.093-34.19-21.277-43.45-9.108-6.122-20.829-9.182-35.16-9.183zm-49.5 279.51v-326.32h118.48c12.691 0 24.898 1.344 36.619 4.03 11.721 2.688 23.927 8.959 36.619 18.813 9.854 7.615 18.216 18.1 25.08 31.468 6.868 13.364 10.302 28.855 10.303 46.47 0 23.293-8.698 45.47-26.09 66.52-17.395 21.05-42.816 31.58-76.26 31.58h-75.25v127.44z"/><g transform="matrix(.55727 0 0 .55727 95.99 176.25)"><g fill="#fff" fill-rule="evenodd"><path d="m243.22 429.17c62.798-3.164 155.2 7.895 186.2-31.399 14.206-74.77 54.801-112.41 124.5-113.18 42.796-82.65-34.889-95.6-87.991-116.83-3.373 38.42-1.306 78.35-62.07 100.77-2.439-11.888-7.423-21.594-23.367-21.906l-89.82.365-63.53-49.655c-10.266 16.328-30.639 37.25-30.669 48.924l-96.39.365c-7.02 5.979-12.973 21.843 1.095 37.606 57.741-1.753 162.69 4.555 142.03 144.95"/><path d="m399.9 113.14l-.258-34.04-38.12-5.174v-27.02l38.897 6.465c-2.861-24.34-18.51-41.939-52.985-47.04-21.646 1.526-44.35 2.699-57.26 43.19-3.784 16.06-1.426 32.31 8.549 46.31 32.29-17.699 56.45-5.617 78.5 14.239z"/><path d="m466.3 186.74l-113.55-85.8c-15.262-8.141-32.09-9.69-52.21 2.556-17.196 15.622-46.24 58.898-69.37 88.36l64.62 48.38 62.07-86.35 98.21 75.21c7.56-13.195 9.329-28.681 10.223-42.35"/></g><g fill="none" stroke="#fff" stroke-linejoin="round" stroke-width="34.11"><path d="m461.2 393.54c-.007 45 36.473 81.49 81.47 81.49 45 0 81.48-36.485 81.47-81.49.007-45-36.472-81.49-81.47-81.49-45 0-81.48 36.485-81.47 81.49z"/><path d="m57.2 393.65c-.007 45 36.472 81.49 81.47 81.49 45 0 81.48-36.485 81.47-81.49.007-45-36.472-81.49-81.47-81.49-45 0-81.48 36.485-81.47 81.49z"/></g></g></svg>