<svg xmlns="http://www.w3.org/2000/svg" viewBox="0 0 480 480"><g fill-rule="evenodd"><path fill="#fff" stroke="#000" stroke-width="2" d="m30.856 5.772h420c10.816.791 23.07 11.844 23.666 24.865v418.81c.05 10.319-11.794 24.19-25.16 24.865h-419.41c-9.524-.583-24.431-15.379-24.865-25.16l.599-418.21c-1.082-6.302 14.286-25.298 25.16-25.16z"/><path fill="#039" d="m34.92 16.781c-11.761-.515-18.473 7.519-18.03 20.375v406.41c.047 8.667 3.728 19.07 15.688 19.281l414.44-.031c11.959-.211 15.672-10.614 15.719-19.281v-406.44c.442-12.856-6.271-20.89-18.03-20.375z"/></g><path fill="#fff" d="m199.59 207.89v82.84h57.812c14.453 0 25.23-4.348 32.34-13.04 7.109-8.695 10.663-18.15 10.663-28.377 0-15.51-5.582-26.908-16.744-34.19-7.168-4.817-16.392-7.226-27.672-7.227zm-38.953 219.97v-256.81h93.24c9.988 0 19.594 1.058 28.818 3.173 9.224 2.115 18.83 7.05 28.818 14.806 7.755 5.993 14.335 14.248 19.741 24.764 5.405 10.517 8.108 22.708 8.108 36.573 0 18.331-6.845 35.78-20.534 52.35-13.689 16.568-33.694 24.852-60.02 24.852h-59.22v100.29z"/><path fill="none" stroke="#fff" stroke-width="30" d="m104.4 146.42l142.6-81.49 129.87 76.39"/></svg>