<svg xmlns="http://www.w3.org/2000/svg" viewBox="0 0 15.981 14.986"><g fill-rule="evenodd"><path fill="#154889" d="m13.497 0v.001h-11.07v.001h-1.776c-.422-.017-.662.253-.646.684v13.651c.002.292.134.641.562.648l14.854-.001c.429-.007.562-.357.563-.648v-13.652c.016-.432-.225-.702-.646-.684z"/><g fill="#fff"><path d="m.046 3.02h15.863c0-.971-.521-1.831-1.327-2.026h-13.209c-.838.182-1.327 1.058-1.327 2.026"/><path d="m6.03 6.94h1.01v-.978l1.01.005.002.972h1v1.053h-1l-.003.969-1.01-.005.001-.964h-1.01z"/><path d="m.041 12h15.863c0 .96-.521 1.811-1.327 2h-13.209c-.838-.18-1.327-1.046-1.327-2"/><path d="m1.051 3.924v7.084h.905v-2.75h1.619c2.426-.608 1.953-4.052.051-4.336zm.905 1.049h1.528c.98.414 1.121 1.672.078 2.222h-1.606z"/><path d="m10.02 3.928v7.091l1.082.002v-3.049h1.359l1.496 3.046h1.266l-1.589-3.115c1.734-.675 1.952-3.356-.403-3.968zm1.082.987h1.905c1.312.394 1.102 1.653.058 2.1h-1.963z"/></g></g></svg>