<svg xmlns="http://www.w3.org/2000/svg" viewBox="0 0 480 480"><g fill-rule="evenodd"><path fill="#fff" stroke="#000" stroke-width="2" d="m30.856 5.772h420c10.816.791 23.07 11.844 23.666 24.865v418.81c.05 10.319-11.794 24.19-25.16 24.865h-419.41c-9.524-.583-24.431-15.379-24.865-25.16l.599-418.21c-1.082-6.302 14.286-25.298 25.16-25.16z"/><path fill="#039" d="m35.19 16.781c-11.761-.515-18.473 7.519-18.03 20.375v406.41c.047 8.667 3.728 19.07 15.688 19.281l414.44-.031c11.959-.211 15.672-10.614 15.719-19.281v-406.44c.442-12.856-6.271-20.89-18.03-20.375z"/></g><path fill="#fff" d="m175.94 123.65v105.27h73.46c18.365 0 32.06-5.524 41.1-16.574 9.03-11.05 13.55-23.07 13.55-36.06 0-19.709-7.093-34.19-21.277-43.45-9.108-6.122-20.829-9.183-35.16-9.183zm-49.5 279.51v-326.32h118.48c12.691 0 24.898 1.344 36.619 4.03 11.721 2.688 23.927 8.959 36.619 18.813 9.854 7.615 18.216 18.1 25.08 31.468 6.868 13.364 10.302 28.855 10.303 46.47 0 23.293-8.698 45.47-26.09 66.52-17.395 21.05-42.816 31.58-76.26 31.58h-75.25v127.44z"/></svg>