<svg xmlns="http://www.w3.org/2000/svg" viewBox="0 0 16 16"><g transform="translate(0-1033.36)"><path fill="none" stroke="#000" stroke-width="6.392" d="m-1.325 1048.2l19.54-16.908"/><g fill="#fff"><circle cx="2.5" cy="1044.86" r=".5"/><circle cx="5.5" cy="1041.86" r=".5"/><circle cx="11.5" cy="1035.86" r=".5"/><circle cx="10.5" cy="1039.86" r=".5"/><circle cx="7.5" cy="1038.86" r=".5"/><circle cx="6.5" cy="1043.86" r=".5"/><circle cx="2.5" cy="1047.86" r=".5"/><circle cx="15.5" cy="1035.86" r=".5"/><circle cx="8.5" cy="1041.86" r=".5"/><circle cx="2.5" cy="1042.86" r=".5"/><circle cx="4.5" cy="1045.86" r=".5"/><circle cx=".5" cy="1047.86" r=".5"/><circle cx="6.5" cy="1040.86" r=".5"/><circle cx="9.5" cy="1037.86" r=".5"/><circle cx="12.5" cy="1037.86" r=".5"/><circle cx="12.5" cy="1033.86" r=".5"/><circle cx="14.5" cy="1033.86" r=".5"/><circle cx="13.5" cy="1035.86" r=".5"/><circle cx="4.5" cy="1040.86" r=".5"/></g></g></svg>