<svg xmlns="http://www.w3.org/2000/svg" viewBox="0 0 205.2 171.37" xmlns:xlink="http://www.w3.org/1999/xlink"><defs><path fill="#d4043f" stroke="#000" stroke-linejoin="bevel" id="a" d="m486.07 450.4c0 6.805-31.66 12.321-70.71 12.321-39.05 0-70.71-5.516-70.71-12.321 0-6.805 31.66-12.321 70.71-12.321 39.05 0 70.71 5.516 70.71 12.321z"/><path fill="#65021e" id="b" d="m235.89 410.04c0 1.282-.68 2.321-1.518 2.321-.838 0-1.518-1.039-1.518-2.321 0-1.282.68-2.321 1.518-2.321.838 0 1.518 1.039 1.518 2.321"/></defs><g transform="matrix(.6716 0 0 .6716-139.83-473.83)"><path fill="#a70432" stroke="#000" stroke-linejoin="bevel" stroke-width="1.489" d="m483.94 785.96l.72 162.14c-20.18 13.47-96.13 17.81-133.93.35l-2.14-162.85c5.37 10.35 97.9 18.53 135.35.36z"/><use xlink:href="#a" stroke-width="1.791" transform="matrix(.975 0 0 .70851 11.309 468.07)"/><use xlink:href="#a" stroke-width="2.037" transform="matrix(.92822 0 0 .57567 29.347 527.47)"/><g stroke="#000"><g stroke-width="1.489"><path fill="none" d="m433.87 779.65c-29.76-.92-39.5 7.63-22.4 11.63 4.2.98 10 1.68 17.52 1.91"/><g fill="#a70432"><g stroke-linejoin="bevel"><path d="m-328.67 746.35l-.17 132.65c-.51 4.1-5.53 13.07-19.71 22.05l-.78-154.7c3.36-3.16 18.78-5.78 20.66 0z" transform="matrix(.75047-.6609.67842.73467 0 0)"/><path stroke-linecap="round" d="m266.69 725.94c3.71 2.35 3.03 30.54-13.01 46.42-16.04 15.88-40.49 14.19-44.21 11.84"/></g><path fill-rule="evenodd" d="m369.74 785.97c-.46-39.87 6.78-69.3 53.59-70.69 51.08 3.02 88.09 20.83 79.77 62.94-6.62 20.5-12.23 33.52-18.86 54.02-2.82 9.76-2.88 18.39-.38 28.15 10.96-33.08 12.87-27.47 29.13-92.65-1.02-5.64-1.45-18.46-4.17-23.31-24.16-43.14-108.54-52.07-138.84-14.66-7.18 8.18-13.06 40.29-11.18 56.38 5.38 1.96 8.6.14 10.94-.18z"/></g></g><path fill="#d4043f" stroke-linejoin="bevel" stroke-linecap="round" stroke-width="1.483" d="m219.82 430.58c0 23.602-1.199 42.735-2.679 42.735-1.479 0-2.679-19.13-2.679-42.735 0-23.602 1.199-42.735 2.679-42.735 1.471 0 2.667 18.929 2.678 42.4" transform="matrix(.92073.56745-.67232.68088 327.43 338.67)"/></g><path fill="#7e0325" d="m424.15 780.12c-5.66.05-11.39.77-16.73 2.7-1.57.7-3.63 1.51-4.06 3.38.17 1.8 2.14 2.67 3.58 3.34 6.75 2.59 14.12 2.95 21.26 3.36.57-.1.72.6 1.33.45 11.67-.26 23.35-.92 34.95-2.25 4.81-.69 9.76-1.24 14.29-3.03.75-.25 1.95-1.17 1.08-1.96-2.05-1.49-4.71-1.78-7.12-2.4-11.7-2.27-23.65-2.74-35.53-3.32-4.35-.17-8.7-.3-13.05-.27"/><g stroke="#000" stroke-width="1.489"><path fill="#a70432" fill-rule="evenodd" d="m375.56 817.99l-67.88-.9 3.39 3.93 64.14.36z"/><path fill="none" d="m260.37 766.24l91.92 109.09"/><path fill="#7e0325" stroke-linejoin="bevel" d="m280.46 789.21c.39 1.32 1.82 2.25 2.57 3.44 22.7 27.12 45.48 54.18 68.36 81.16 1 .23.39-1.37.47-1.9-.32-3.02-.72-6.27-2.88-8.57-8.6-10.23-17.91-19.86-26.91-29.76-13.7-14.83-27.32-29.73-41.14-44.44-.19-.17-.32-.07-.47.07z"/><path fill="none" d="m464.42 721.79c17.79 1.74 29.38 11.21 39.14 22.98 13.47 29.17-9.45 66.53-20.71 101.27"/><path fill="#7e0325" stroke-linejoin="bevel" d="m469.17 722.85c-.52.93 1.37 1.06 1.87 1.47 11.97 4.7 23.5 12.31 29.27 24.12 2.99 5.88 4.22 12.46 4.01 19.04.11 4.81-.52 9.6-2.17 14.12-5.69 17.62-12.74 34.79-18.09 52.52-.94 3.42-1.67 6.99-1.53 10.52 1.12-.19 1-2.26 1.63-3.14 5.53-15.47 12.14-30.56 17.43-46.13 4.01-12.83 7.46-26.5 5.01-39.99-1.01-4.63-2-9.7-5.54-13.12-7.07-7.83-15.52-14.91-25.78-17.98-1.99-.53-4.05-1.39-6.11-1.43z"/></g><g transform="translate(0 1.01)"><g fill="none" stroke="#000" stroke-width="1.489"><path d="m352.08 826.07c44.18 9.93 86.89 9.16 128.21-1.71"/><path d="m352.08 827.92c44.18 9.93 86.89 9.16 128.21-1.71"/></g><path fill="#65021e" d="m478.64 825.02c-2.8.49-5.47 1.32-8.25 1.86-22.51 5.03-46.45 7.19-70.11 5.95-15.39-.75-30.61-2.89-45.34-5.98-.71-.05-1.91-.59-2.37 0-.06.52-.07 1.24.96 1.22 18.7 4.08 38.27 6.49 57.93 6.68 21.94.09 43.89-2.51 64.51-7.63 1.14-.33 2.44-.49 3.47-.93.03-.41.2-1.27-.8-1.17"/></g><g transform="translate(0 1.01)"><g fill="none" stroke="#000" stroke-width="1.489"><path d="m352.43 833.43c43.44 9.68 85.61 7.25 127.15-1.22"/><path d="m352.43 835.28c43.44 9.68 85.61 7.26 127.15-1.22"/></g><path fill="#65021e" d="m478.61 832.62c-4 .62-7.91 1.53-11.91 2.16-16.75 2.84-33.92 4.69-51.2 4.98-10 .09-20.02-.11-29.93-1.05-10.45-.91-20.73-2.53-30.81-4.61-.62-.16-1.87-.28-1.8.41-.44.96 1.2.92 2.09 1.17 17.25 3.68 35.33 5.59 53.41 5.68 23.57.17 47.01-2.64 69.57-7.14.99-.06 1.77-.4 1.41-1.15.01-.3-.42-.49-.83-.45"/></g><g fill="none" stroke="#000" stroke-width="1.489"><path d="m353.86 840.69c41.54 8.2 83.59 7.56 126.07-.49"/><path d="m353.86 842.54c41.54 8.2 83.59 7.56 126.07-.49"/></g><path fill="#65021e" d="m478.84 840.6c-6.18 1.01-12.33 2.13-18.58 2.92-29.27 3.99-59.71 4.3-89 .21-5.88-.79-11.67-1.84-17.47-2.88-.78.12-.37.92-.45 1.33.05.58 1.09.26 1.61.46 7.41 1.28 14.85 2.58 22.41 3.42 12.02 1.38 24.19 2.25 36.39 2.09 8.23-.02 16.49-.12 24.67-.81 13.76-1 27.38-2.8 40.72-5.3.35-.33.46-.99.1-1.36-.11-.06-.26-.09-.4-.08"/><g fill="none" stroke="#000" stroke-width="1.489"><path d="m350.36 944.51c53.52 14.72 99.61 17.3 134.64-1.79"/><path d="m350.36 941.22c53.52 14.72 99.61 17.31 134.64-1.79"/></g><path fill="#65021e" d="m483.81 940.35c-18.89 9.69-40.46 13.29-61.61 12.78-24.04-.42-47.69-5.26-70.86-11.36-.83.78-.64 2.81.79 2.94 20.73 5.54 41.9 9.97 63.37 11.02 13.18.11 26.51.4 39.44-2.54 10.04-2.08 19.99-5.31 28.93-10.31.66-.5.82-2.32-.06-2.53"/><use xlink:href="#b" transform="matrix(.7155-.38149-.8565.95474 431.19 441.04)"/><use xlink:href="#b" transform="matrix(.7155-.38149-.8565.95474 438.63 434.51)"/><use xlink:href="#b" transform="matrix(.7155-.38149-.8565.95474 446.75 427.12)"/><use xlink:href="#b" transform="matrix(.7155-.38149-.8565.95474 440.57 435.84)"/><use xlink:href="#b" transform="matrix(.7155-.38149-.8565.95474 433.21 442.07)"/><use xlink:href="#b" transform="matrix(.7155-.38149-.8565.95474 427.43 446.45)"/><use xlink:href="#b" transform="matrix(.7155-.38149-.8565.95474 421.2 451.54)"/><use xlink:href="#b" transform="matrix(.7155-.38149-.8565.95474 415.76 455.9)"/><use xlink:href="#b" transform="matrix(.7155-.38149-.8565.95474 426.67 449.97)"/><use xlink:href="#b" transform="matrix(.7155-.38149-.8565.95474 421.13 453.84)"/><use xlink:href="#b" transform="matrix(.7155-.38149-.8565.95474 411.49 461.94)"/><use xlink:href="#b" transform="matrix(.7155-.38149-.8565.95474 404.64 467.53)"/><use xlink:href="#b" transform="matrix(.7155-.38149-.8565.95474 413.41 461.65)"/><use xlink:href="#b" transform="matrix(.7155-.38149-.8565.95474 402.08 471.87)"/><use xlink:href="#b" transform="matrix(.7155-.38149-.8565.95474 403.07 472.55)"/><use xlink:href="#b" transform="matrix(.7155-.38149-.8565.95474 406.2 470.82)"/><use xlink:href="#b" transform="matrix(.7155-.38149-.8565.95474 419.61 457.92)"/><use xlink:href="#b" transform="matrix(.7155-.38149-.8565.95474 396.09 478.57)"/></g></svg>