<svg xmlns="http://www.w3.org/2000/svg" viewBox="0 0 188 188"><path fill="#ff0" d="m0 0h188v188h-188z"/><g transform="matrix(.47353 0 0 .60149-8.684-66.09)"><path d="m29.742 379.69c-.467-1.043 61.29-114.85 62.05-115.34 1.588-1.025 36.786 17.07 40.31 20.717l25.14 38.35 3.484 87.33c-13.03 0-17.765-5.334-22.773-13.143l-4.637-63.36c0 0-28.09-40.973-28.55-40.24-5.474 8.768-55.28 99.21-64.63 113.59-.293.451-10.389-1.401-10.389-27.906m148.35 23.466c2.094-3.464 39.97-48.45 44.22-49.933 11.505-4.02 19.757-15.642 41.37-41.916 12.09-14.704 34.19-13.08 40.94-5.325 9.914 11.394 81.992 104.53 76.31 104.54 0 0-194.99.224-200.38.224-5.465 0-4.911-3.533-2.462-7.585m-1.545-98.65c-1.54-.012-2.063 9.01-6.832 9.25-3.872.193-11.372-9.224-12.85-12.732-.746-1.77-1.87-6.729-.907-12.05.167-.923-18.12-8.703-13.511-18.08 4.483-9.115 12.04-.303 14.445 1.552 2.169 1.675.746-35.24-.714-33.673-.242.259-21.258 38.971-21.719 38.971-1.605 0-38.41-19.872-38.76-20.929-.195-.585 33.844-65.44 32.72-66.15-1.602-1.014-19.885-1.254-22.386-.295-1.838.705-14.524 25.317-14.524 28.18 0 1.057 13 12.707 13 13.263 0 1.336-3.89 8.931-4.575 8.931-.294 0-14.684-12-14.937-12-.253 0-6.865 12-7.291 12l-10.607-9.983.147-17.517 27.18-44.5c0 0 71.29.089 75.58 2.105 5.84 2.745 9.569 7.11 11.877 13.9 1.85 5.445-4.072 104.62-3.747 105.47.326.848 58.37 50.25 58.37 50.933 0 1.9-4.386 5.598-6.564 5.535-1.065-.031-52.728-42.18-53.4-42.18"/><path fill-rule="evenodd" stroke="#000" stroke-linejoin="round" stroke-width="1.188" d="m224.14 146.87c5.519 11.973.314 25.875-11.514 31.25-11.828 5.379-25.823.209-31.24-11.541-5.415-11.75-.21-25.651 11.618-31.03 11.749-5.343 25.632-.296 31.13 11.318z" stroke-miterlimit="6.5"/></g></svg>