<svg xmlns="http://www.w3.org/2000/svg" viewBox="0 0 16 16"><g transform="translate(0-1036.36)"><g fill-rule="evenodd"><path color-interpolation-filters="linearRGB" color="#000" image-rendering="auto" color-rendering="auto" d="m0 1036.36h16v16h-16z" color-interpolation="sRGB" text-rendering="auto" fill="#6ace6a" shape-rendering="auto"/><path fill="#7c3c11" stroke="#000" stroke-width=".021" d="m4 1036.37l-3.974 3.581h.795v5.371h2.384v-2.729h1.644v2.729h2.33v-5.371h.795z"/></g><g transform="matrix(1 0 0 1.0012 2 3.778)"><path d="m8.111 1037.36l-1.061 3.842-5.05.509-.001 2.858c0 0 1.944-.017 6.05-.017.143 1.601 1.454 2.796 2.968 2.796 1.597 0 2.98-1.355 2.98-3.079 0-1.379-.87-2.512-2.039-2.919v-3.978h-3.851z"/><g fill="#fff"><path d="m8.719 1038.13h2.42v3.067l-3.231.024.811-3.079z"/><path d="m11.01 1043.04c.763 0 1.216.579 1.216 1.232 0 .653-.453 1.232-1.216 1.232-.763 0-1.216-.579-1.216-1.232 0-.653.453-1.232 1.216-1.232"/></g><circle cx="4.497" cy="1045.57" r="1.779"/><circle fill="#fff" cx="4.497" cy="1045.57" r=".917"/></g></g></svg>