<svg width="553.98" xmlns="http://www.w3.org/2000/svg" viewBox="0 0 553.9831 553.68453" height="553.68"><g fill="#be9c20" transform="translate(-83.34-231.72)"><g stroke="#000" stroke-width="4.04"><path d="m530.39 301.73c0 0 15.519.486 22.479-1.802 24.381-8.01 60.827-44.592 60.827-44.592 0 0-38.37 38.534-47.22 60.07-2.675 6.506-2.987 21.434-2.987 21.434z"/><path d="m459.18 334.42c0 0-7.499-14.489-8.77-22.13-4.454-26.774 9.416-78.04 9.416-78.04 0 0-14.624 53.983-28.553 72.22-4.208 5.509-16.523 12.627-16.523 12.627z"/><path d="m342.69 626.84c0 0 13.174 9.9 20.624 12.546 26.1 9.271 80.25 5.532 80.25 5.532 0 0-57.03 3.956-77.971 13.917-6.327 3.01-15.785 13.497-15.785 13.497z"/><path d="m242.2 526.35c0 0-9.9-13.174-12.546-20.624-9.271-26.1-5.532-80.25-5.532-80.25 0 0-3.956 57.03-13.917 77.971-3.01 6.327-13.497 15.785-13.497 15.785z"/><path d="m275.28 694.24c0 0 13.174 9.9 20.624 12.546 26.1 9.271 80.25 5.532 80.25 5.532 0 0-57.03 3.956-77.971 13.917-6.327 3.01-15.785 13.497-15.785 13.497z"/><path d="m174.8 593.76c0 0-9.9-13.174-12.546-20.624-9.271-26.1-5.532-80.25-5.532-80.25 0 0-3.956 57.03-13.917 77.971-3.01 6.327-13.497 15.785-13.497 15.785z"/><path d="m410.09 559.44c0 0 13.174 9.9 20.624 12.546 26.1 9.271 80.25 5.532 80.25 5.532 0 0-57.03 3.956-77.971 13.917-6.327 3.01-15.785 13.497-15.785 13.497z"/><path d="m309.61 458.96c0 0-9.9-13.174-12.546-20.624-9.271-26.1-5.532-80.25-5.532-80.25 0 0-3.956 57.03-13.917 77.971-3.01 6.327-13.497 15.785-13.497 15.785z"/><path d="m477.49 492.03c0 0 13.174 9.9 20.624 12.546 26.1 9.271 80.25 5.532 80.25 5.532 0 0-57.03 3.956-77.971 13.917-6.327 3.01-15.785 13.497-15.785 13.497z"/><path d="m377.01 391.55c0 0-9.9-13.174-12.546-20.624-9.271-26.1-5.532-80.25-5.532-80.25 0 0-3.956 57.03-13.917 77.971-3.01 6.327-13.497 15.785-13.497 15.785z"/><path d="m534.62 409.86c0 0 14.489 7.499 22.13 8.77 26.774 4.454 78.04-9.416 78.04-9.416 0 0-53.983 14.624-72.22 28.553-5.509 4.208-12.627 16.523-12.627 16.523z"/></g><path stroke="#be9c20" stroke-linecap="round" stroke-width="24.912" d="m509.97 359.36l-413.81 413.22"/><g stroke="#000"><ellipse cx="96.45" cy="618.61" rx="65.7" ry="37.2" stroke-width="4.04" transform="matrix(.67859-.73452.72857.68497 0 0)"/><g stroke-width="4.057"><ellipse cx="149.03" cy="686.75" rx="68.774" ry="35.784" transform="matrix(.99467-.10306.21928.97566 0 0)"/><ellipse cx="-512.88" cy="-273.89" rx="68.774" ry="35.784" transform="matrix(.10306-.99467-.97566-.21928 0 0)"/><ellipse cx="67.928" cy="747.26" rx="68.774" ry="35.784" transform="matrix(.99467-.10306.21928.97566 0 0)"/><ellipse cx="-593.99" cy="-213.38" rx="68.774" ry="35.784" transform="matrix(.10306-.99467-.97566-.21928 0 0)"/><ellipse cx="230.14" cy="626.23" rx="68.774" ry="35.784" transform="matrix(.99467-.10306.21928.97566 0 0)"/><ellipse cx="-431.78" cy="-334.41" rx="68.774" ry="35.784" transform="matrix(.10306-.99467-.97566-.21928 0 0)"/><ellipse cx="311.24" cy="565.71" rx="68.774" ry="35.784" transform="matrix(.99467-.10306.21928.97566 0 0)"/><ellipse cx="-350.67" cy="-394.93" rx="68.774" ry="35.784" transform="matrix(.10306-.99467-.97566-.21928 0 0)"/></g><g stroke-width="4.052"><ellipse cx="288.83" cy="575.85" rx="67.33" ry="36.467" transform="matrix(.95532-.29556.38519.92284 0 0)"/><ellipse cx="-180.54" cy="-516.19" rx="67.33" ry="36.467" transform="matrix(.29556-.95532-.92284-.38519 0 0)"/></g></g></g></svg>