<svg xmlns="http://www.w3.org/2000/svg" viewBox="0 0 16 16"><g transform="translate(0-1036.36)"><path fill="#fff" d="m0 1036.36h16v16h-16z"/><g transform="matrix(.01388 0 0 .01388.629 1037.13)"><path fill-rule="evenodd" d="m55.34 781.59c-2.393-176.41-11.966-24.615 94.36-286.15 76.923-177.78-1.026-129.91 396.92-136.41 354.19 7.179 282.74-44.1 364.1 144.62 101.88 241.71 94.02 115.21 93.33 272.82-3.761 172.99 60.17 128.55-475.9 134.36-531.97-7.179-469.06 37.949-472.82-129.23m107.69-170.26l72.821-168.21c13.587-29.879 9.252-25.468 41.03-25.641l509.12-.055c27.561.101 23.518-1.688 34.872 24.615l72.42 167.23zm-52.08 318.78l136.18-.304c-.418 170.98 13.751 161.44-60.51 162.55-88.43-.342-74.45 8.585-75.67-162.24m701.31 1.216h136.41c-.912 171.24 11.548 159.54-65.64 160-79.81-1.064-69.67 11.548-70.77-160"/><g fill="#fff"><circle cx="178.67" cy="737.18" r="66.5"/><circle cx="878.67" cy="737.18" r="66.5"/></g></g><path fill="none" stroke="#000" stroke-width="1.712" d="m.963 1040.82l6.995-2.947 6.995 2.947"/></g></svg>