<svg xmlns="http://www.w3.org/2000/svg" viewBox="0 0 16 16"><g transform="translate(0-1036.36)"><g fill="#d2691e" fill-rule="evenodd"><path d="m.587 1051.86h15c0 0-2.207-3.5-3.207-4.5-1-1-3.361-3.351-5.379-2.988-3.235.581-3.296 4.564-6.413 7.488"/><path shape-rendering="auto" transform="translate(0 1036.36)" color-interpolation-filters="linearRGB" image-rendering="auto" text-rendering="auto" d="m7.371 7.471c-.152.004-.305.019-.459.047-1.813.326-2.773 1.652-3.598 3.113-.825 1.462-1.593 3.118-3.07 4.504l-.244.229v.637h16v-.783c-.009-.014-.552-.874-1.229-1.873-.682-1.01-1.463-2.123-2.039-2.699-.501-.501-1.36-1.361-2.377-2.062-.89-.614-1.918-1.138-2.984-1.111m.344 1.023c.655.086 1.384.437 2.072.912.918.633 1.739 1.448 2.238 1.947.424.424 1.246 1.558 1.918 2.551.395.584.496.749.719 1.096h-13.04c1.129-1.323 1.912-2.723 2.564-3.879.794-1.406 1.48-2.364 2.902-2.619.198-.036.409-.036.627-.008" color="#000" color-rendering="auto" color-interpolation="sRGB"/></g><g fill-opacity=".893"><path d="m-533.08 904.95h1.406v1.406h-1.406z" transform="rotate(-31.1088)"/><path d="m44.13 1037.77h1.406v1.41h-1.406z" transform="rotate(2.43184)"/><path d="m111.61 1042h1.406v1.41h-1.406z" transform="rotate(5.71059)"/><path d="m-911.01 523.47h1.406v1.406h-1.406z" transform="rotate(-60.2551)"/><path d="m755.56 721.45h1.406v1.406h-1.406z" transform="rotate(45.83031)"/></g><g fill="#d2691e"><path d="m699.23 764.94h1.406v1.406h-1.406z" transform="rotate(42.2737)"/><path d="m-1028.56-196.34h1.41v1.406h-1.41z" transform="matrix(-.18885-.98201.98201-.18885 0 0)"/><path d="m-485.01 922.52h1.406v1.406h-1.406z" transform="rotate(-27.97947)"/><path d="m-560.87 877.91h1.406v1.406h-1.406z" transform="rotate(-32.61923)"/></g><g fill-opacity=".893"><path d="m709.27 759.43h1.406v1.406h-1.406z" transform="rotate(42.76882)"/><path d="m296.85 999.92h1.406v1.41h-1.406z" transform="rotate(16.38576)"/></g></g></svg>