<svg width="253.88" xmlns="http://www.w3.org/2000/svg" viewBox="0 0 253.87779 244.00716" height="244.01" xmlns:xlink="http://www.w3.org/1999/xlink"><defs><linearGradient id="a" y1="872.76" y2="799.22" x1="487.9" gradientUnits="userSpaceOnUse" x2="485.08" gradientTransform="matrix(.35689 0 0 1-21.345-352.88)"><stop stop-color="#fff" stop-opacity=".229"/><stop offset="1" stop-color="#fff" stop-opacity="0"/></linearGradient><linearGradient id="b" x1="35.26" x2="253.09" gradientUnits="userSpaceOnUse"><stop stop-color="#e5e7e5"/><stop offset="1" stop-color="#e5e7e5" stop-opacity="0"/></linearGradient><path fill="#4e9a06" id="c" d="m106.07 694.77c0 0 9.8-179.05 93.44-147.99-81.83-19.19-87.38 149-87.38 149z"/><path fill="#73d216" id="d" d="m110.11 695.78c0 0 9.8-179.05 93.44-147.99-81.83-19.19-87.38 149-87.38 149z"/><path fill="#73d216" id="e" d="m411.25 688.54c0 0 17.57-70.18 48.13-114 10.74-15.39 29.09-.3 42.83-5-12.51 7.1-29.74-7.24-39.53 8.05-29.01 45.37-45.37 111.96-45.37 111.96z"/><path fill="#4e9a06" id="f" d="m408.07 687.12c0 0 17.56-70.18 48.13-113.99 10.73-15.39 31.91.4 45.66-4.3-12.52 7.11-32.93-8.3-42.71 7-29.02 45.36-45.02 112.3-45.02 112.3z"/><path fill="#4e9a06" id="g" d="m383.34 756.09c1.43-8.57 106.66-366.58 106.66-366.58l62.86-111.43-149.52 485.15z"/><path fill="#73d216" id="h" d="m422.61 768.62c3.37-8.01 110.71-369.96 110.71-369.96l20.44-134.12-154.54 497.23z"/><path fill="#73d216" id="i" d="m196.47 697.29c0 0-7.07-120.71 66.67-132.83-63.13 18.18-63.13 133.34-63.13 133.34z"/><path fill="#4e9a06" id="j" d="m192.43 696.79c0 0-7.57-118.69 66.17-130.82-65.16 15.16-62.63 131.32-62.63 131.32z"/><path fill="#4e9a06" id="k" d="m488.19 692.48c0 0 .07-41.68 30.63-85.5 10.74-15.39 31.15 25.38 42.89 28.68-12.51-14.4-29.8-40.92-39.59-25.63-29.01 45.37-27.87 83.46-27.87 83.46z"/><path fill="#73d216" id="l" d="m492.25 694.04c0 0 .07-41.68 30.63-85.5 10.74-15.39 30.09 25.2 41.83 28.5-12.51-14.4-28.74-40.74-38.53-25.45-29.01 45.37-27.87 83.46-27.87 83.46z"/></defs><g transform="translate(-23.03-299.46)"><path fill="#484b2a" d="m26.561 503.25l30.57-6.36 23.943 6.36 13.718-.05 2.995 20.49-1.287-32.54 20.741 6.45 25.19-6.22c5.63 2.15 15.548 7.69 21.954 7.65l35.16 1.4c6.134 32.7 2.434 5.87 20.628-4.17 10.19-5.61 41.968 6.66 50.48 6.99v40h-244.09z"/><path fill="#4f6e32" d="m263.48 461.67c-1.05-.23-2.08-.41-3.09-.57-.59-.12-1.2-.24-1.78-.34 33.442-58.34-19.714-22.755 8.4-39.28l.35-1.91-.72 2.13c-3.32 2.07-6.61 4.45-9.88 7.09l.72-3.62.63-1.85-.41.69.78-3.91-2.22 6.32-3.31 5.56c-6.19-.65-12.98-2.88-19.09-2.97l.84-4.5.56-1.72-.37.66.72-3.88-2.1 6.25-1.9 3.28c-3.73.31-7.1 1.62-9.85 4.88 6.58-10.98 13.72-20.84 21.25-28.41 1.15-1.1 2.28-2.15 3.44-3.15 1.37.15 2.77.35 4.19.62-1.24-.4-2.46-.76-3.66-1.06 2.8-2.39 5.65-4.48 8.53-6.22-.24.06-.48.15-.72.22.5-.31.98-.63 1.47-.91-1.36.47-2.69 1.05-4.03 1.69-3.1 1.08-6.14 2.56-9.12 4.41-.1-.02-.19-.05-.28-.07-9.73-2.38-18.17-1.59-25.5 1.53-26.69-4.69-43.91 16.38-54.94 43.16l.4-5.25.66-3.28c6.5-11.08 13.56-21.17 21.03-29 4.51-4.53 9.13-8.36 13.88-11.22-.23.06-.46.13-.69.19.48-.3.98-.57 1.47-.85-1.36.47-2.72 1.02-4.06 1.66-6.97 2.42-13.61 6.92-19.91 12.88-15.42 2.84-31.19 14.89-45.72 30.37l2.38-11.69c.59-.62 1.19-1.24 1.81-1.84 1.69-.41 3.41-.76 5.19-1-1.5.03-2.97.15-4.41.28 5.51-5.15 11.94-9.23 19.5-11.75-3.45.71-6.68 1.7-9.72 2.91-2.21-1.16-4.37-2.13-6.5-2.91-3.43-1.55-6.76-2.63-10-3.28 9.93-8.26 22.28-12.11 37.66-8.5-2.62-.97-5.14-1.69-7.6-2.22-16.63-4.84-29.85-.06-40.31 10.06-5.03.39-9.79 1.85-14.31 4.13-3.594.79-6.956 1.86-10.1 3.19-7.753 2.58-14.264 6.59-19.75 11.59.248-1.67.359-2.49.594-4.06l.812-4.28.563-1.72-.375.65.718-3.87-.593 1.81c1.621-10.91 4.812-32.44 4.812-32.44l.781-27.37.282-1.85-.25.69.125-3.94-.969 6.47-8.531 24.85c0 0-4.167 29.59-7.782 55.31l-3.343 5.78c0 0-.598 1.85-.625 1.94-2.955 5.46-5.316 11.3-7.219 17.28-25.07 19.94-28.75 69.94-28.75 69.94l2.812.34c-.002.02-.031.19-.031.19l4.188.5c0 0 1.678-37.26 18.812-60.1-.738 3.26-1.355 6.52-1.875 9.72-7.236 22.74-14.564 45.92-14.781 47l4.344 1.91.031-.06 4.187 1.53c.003-.01.028-.12.032-.13l2.406.78c-.007.04-.063.29-.063.29l5.219 1.65c0 0 .222-1.2.563-2.9l.75.09c-.021.18-.155 1.17-.157 1.22l2.875.87v.1l.657.09.5.16v-.07l2.937.44c.195-.82 4.374-28.5 8.938-59.06 2.708-6.84 5.734-13.74 9.156-20.34 2.39-.42 4.91-.65 7.562-.63-.231.69-.666 1.94-.937 2.75-13 21.61-18.612 48.01-20.844 62.34-1.58 4.79-2.796 8.48-2.875 8.85l1.625.75c-.044.46-.094.9-.094.9l3.063.88c0 0 .043-.35.062-.5l.407.16c-.01.1-.032.43-.032.43l3.063.88c0 0 .029-.14.031-.16l.406.16c.599-1.3 12.308-35.8 20.875-61.03-2.902 12.07-4.918 23.75-6.281 33.53-8.08 13.94-12.875 23.65-12.875 23.65l3.875 1.44c-.018.04-.25.5-.25.5l5.125 1.91c0 0 .901-1.69 1.5-2.85-.026.42-.062 1.07-.062 1.07l3.625.59c-.002.03-.032.28-.032.28l5.407.91c0 0 .294-9.02 1.812-22.35 1.947-3.38 4.02-6.89 6.344-10.75-.324 4.65-.489 8.98-.531 12.91-3.075 9.25-5.351 16.14-5.469 16.69l3.437 1.56.063.03.844.38.031-.07 1.75.69c.004.05.031.28.031.28l1.031.13 1.344.5c.009-.02.111-.31.125-.35l.688.07c0 0-.052-.72-.094-1.75.106-.3.203-.51.344-.91.106 1.53.187 2.63.187 2.63l3.155.31c0 0-.14-5.1.13-13 2.28-6.65 5.28-15.51 8.34-24.5-.76 5.25-1.26 10.26-1.59 14.84-4.72 11.23-6.19 18.72-6.19 18.72l3.47 1.28c-.05.24-.19.75-.19.75l2.41.88c.05 1.6.09 2.72.09 2.72l3.16.46v-.28l.47.1v.18l2.96.41c0 .03-.12.44-.12.44l5.41.9c0 0 .59-1.95 1.28-4.21l3.31.93c-.02.04-.22.5-.22.5l5.28 1.47c0 0 .31-.69.35-.78l4.75.78c0 0-.01-.77.03-2.09l2.53.81.19.03.75.25v-.06l4.37 1.06c.03-.09.27-1.22.38-1.69l3.06.5c0 .04-.03.29-.03.29l5.4.9c0 0 1.04-30.34 8.78-62.19.5-.87 1-1.75 1.5-2.62 3.69 6.19 7.25 13.02 10.66 17.25-12.44 24.13-20 44.53-20 44.53l2.97.81c-.05.15-.28.75-.28.75l5.28 1.47c0 0 3.31-8.98 9.09-22.09-.73 8.61-1.02 15.08-1.12 18.31-.1.35-.5 1.66-.5 1.66l.44.06c-.01.15 0 .62 0 .62l3.53.44-.03.1.12.03v.18l4.81.6.47.09v-.03l.16.03v-.53c.03-.11.35-1.09.47-1.5l2.31.38c-.04.14-.19.75-.19.75l5.41.9c0 0 .12-.56.15-.69l1.88.69c0 0 .59-1.13.75-1.44l1.84.54v-.07l3.19.72.69.25v-.12l.5.12c.03-.12.29-1.42.44-2.12l1.46.65.04-.06 4.18 1.53c.02-.04.21-.6.25-.72l.41.07v.15l4.22.5c0 0 .03-1.05.15-2.59l2.16.59c-.02.04-.22.53-.22.53l5.28 1.47c0 0 .76-1.78 1.28-3.03l3.32 1.5.03-.06 4.19 1.59c.03-.06.3-.95.4-1.22l3.25 1.22c0 0 .19-.4.22-.47l2.75.47c0 0 .33-1.1.41-1.34l3.65 1.34c.35-.78 5.57-16.91 11.28-34.56 7.09-12.14 15.86-25.9 25.75-38.75-20.91 33.3-34.56 70.28-34.56 70.28l2.97.81c-.05.15-.28.75-.28.75l5.28 1.47c25.847-52.901 27.15-73.41 17.09-2.44l3.6 1.16.22.06.72.22v-.06l4.34 1.06c.02-.07.22-.95.28-1.22l.22.03c0 .04-.03.29-.03.29-4.783-45.23-9.723-66.15-6.41-76.5m-22.72-59.57c.28 0 .56.03.85.03-10.52 7.01-20.19 18.38-28.82 31.69l.69-12.53.38-1.91-.32.75.22-4-1.28 6.57-8.53 20.4c-3.5 4.26-6.89 8.8-10.12 13.5-.5-.07-.99-.16-1.47-.22-.99-.17-1.96-.29-2.91-.4 6.91-22.72 18.05-43.18 35.97-50.75 1.58.22 3.16.49 4.81.87-1.32-.49-2.6-.9-3.87-1.28 4.38-1.72 9.18-2.67 14.4-2.72m-28.59 3.22c-3.46 2.15-6.64 4.85-9.56 8-10.77 7.15-21.14 18.1-30.63 30.6 8.87-19.7 21.68-35.47 40.19-38.6m-40.06 8.66c-1.74 1.8-3.45 3.69-5.13 5.69l.44-2.16-1 2.84c-.34.42-.69.83-1.03 1.25-.41.12-.82.22-1.22.35l.03-.22.41-1.94-.32.75.13-1.84c.51-.37 1.02-.72 1.53-1.07 2.05-1.34 4.11-2.55 6.16-3.65m-44.16 1.28c5.08-.03 10.45.91 16.09 3-.35.14-.71.29-1.06.44-3.54 1.19-6.83 2.66-9.87 4.4l.15-.72.6-1.65-.38.62.78-3.84-2.18 6.19-.04.06c-2.33 1.41-4.53 2.96-6.59 4.66-5.12.9-9.85 2.49-14.22 4.59 3.65-6.67 7.85-12.65 12.69-17.53 1.33-.15 2.66-.21 4.03-.22m-25.41.53c-12.881 6.74-23.684 20.33-32.465 36.06.579-3.89.632-4.17 1.188-7.9 7.283-12.7 17.364-23.1 31.28-28.16m61.5 3.16l-.71 3.25c-.95.31-1.87.64-2.79 1-1.14.34-2.25.69-3.34 1.09 2.28-1.92 4.56-3.7 6.84-5.34m-53.59.5c-4.76 6.44-8.81 14.03-12.281 22.22-.156.13-.314.27-.469.4l3.38-16.62c2.98-2.37 6.1-4.4 9.37-6m53.78 3.59c-.05.07-.1.15-.15.22v-.13c.05-.02.1-.06.15-.09m-1.37.72l-1.19 2.66c-9.76 13.22-18.36 29.25-25.56 45.03-5.76 6.52-10.58 13.03-14.57 19.25 5.87-25.89 17.68-54.84 41.32-66.94m105.78 2.94c-1.09 1.5-2.14 3.05-3.19 4.62-.11.12-.24.23-.34.35l.43-2.29c1.03-.91 2.07-1.82 3.1-2.68m-170.94 1.65l-10.937 18.25-3.875 11.5c-2.309-.39-4.522-.57-6.657-.62 6.04-11.26 13.157-21.52 21.469-29.13m140.97 4.22c3.95-.07 8.16.85 12.28 1.19-2.36 2.14-4.72 4.37-7.03 6.72-3.71-.13-7.68-1.32-11.69-2.6l.78-4.28c1.79-.71 3.69-.99 5.66-1.03m-118.06.35c-12.34 12.8-18.88 30.87-22.254 48.34-1.88 2.81-3.725 5.59-5.468 8.31 2.75-14.76 6.841-30.94 12.942-45.34 4.44-4.49 9.37-8.32 14.78-11.31m139.81 1.25l-6.53 11.31c-.23.31-.46.63-.69.94l1.22-6.1c1.98-2.12 3.99-4.19 6-6.15m-71.72.9c-2.98 6.49-5.51 13.48-7.66 20.69-2.89.22-5.6.77-8.15 1.56 5.02-7.79 10.31-15.33 15.81-22.25m43.06 5.13c3.6.87 7.22 1.81 10.75 1.75-5.36 5.56-10.56 11.63-15.53 17.9.47-1.45 2.69-8.34 2.69-8.34zm-12.47 11.47c-.17.55-2.18 6.77-2.84 8.84-.91.28-1.79 1.06-2.66 2.44-.43.7-.85 1.39-1.28 2.09 2.14-4.53 4.4-8.99 6.78-13.37m-28.71 5.28c.96-.02 1.93.02 2.93.06-2.56 3.74-5.03 7.57-7.4 11.44.9-3.84 1.91-7.67 3.03-11.44.47-.02.95-.05 1.44-.06m49.21.53c-.28.83-1.18 3.52-1.59 4.75-1.05.39-2.06.83-3.06 1.31 1.53-2.04 3.08-4.06 4.65-6.06m-59.5.94c-.83 2.94-1.63 5.9-2.34 8.87-2.17-2.19-4.31-4.05-6.37-5.25 2.66-1.53 5.57-2.76 8.71-3.62m77.88 3.21c1.63.02 3.32.12 5.06.32-3.17 3.99-6.19 8.11-9.12 12.25 1.55-4.82 3.16-9.84 4-12.44.02-.04.04-.08.06-.13m-88.91 1.88c2.53 2.46 5.12 5.39 7.66 8.34-1.1 4.98-2.03 9.93-2.84 14.75-3.04-5.76-6.22-11.58-9.54-15.75 1.39-2.35 2.81-4.69 4.25-7.03.16-.1.32-.21.47-.31m67 4.5c-1.08 3.23-1.76 5.21-3.15 9.37-.84-1.71-1.65-3.33-2.5-4.84 1.75-1.66 3.64-3.19 5.65-4.53m-7.9 6.81c.98 1.97 1.95 3.96 2.9 5.88-11.64 20.66-20.24 39.81-24.25 49.18.77-5.94 2.19-14.14 4.72-22.84.69-2.13 1.26-3.96 1.97-6.16 3.29-9.37 7.97-18.8 14.66-26.06m-38.38 2.72c-.37.86-.73 1.71-1.09 2.56-.08-.09-.15-.19-.22-.28.43-.76.88-1.52 1.31-2.28m-2.97 5.28c.18.16.36.29.53.44-2.57 6.17-4.91 12.18-7 17.78.3-2.55.63-5.16 1-7.84 1.75-3.41 3.55-6.86 5.47-10.38m-67.18 29.38c-1.18 3.36-2.16 6.31-3.1 9.15.08-.81.16-1.58.25-2.43.83-2.1 1.76-4.35 2.85-6.72m-7.41 20.62c.01.87.01 1.57.03 2.25-.13.44-.26.84-.34 1.13 0-.68.01-1.32.03-2.28.08-.35.18-.68.28-1.1"/><path fill="#1a6718" stroke="url(#b)" d="m121.44 299.96l-1.06 6.97-9.31 27.15c0 0-5.68 40.13-11.346 80.5-.095-.01-.187-.02-.281-.03-60.49-10.59-63.69 86.5-63.69 86.5l3.094.25c-.001.02 0 .19 0 .19l4.563.37c0 0 .033-1.08.093-2.65l.719.19c-.037.27-.125.84-.125.84l5.75 1.62c0 0 .138-1.34.531-3.78l2.563.94c-.071.15-.375.78-.375.78l5.625 2.06c0 0 15.662-34.13 38.719-67.25-2.814 20.1-5.423 38.97-7.06 50.88-1.239 7.35-1.712 12.18-1.844 13.62-.013.12-.123.97-.125 1l3.125.97v.1l.657.09.593.19v-.1l2.438.38.406.12v-.06l.375.06c.077-.32.807-4.98 1.781-11.4 2.279-10.71 6.515-27.64 13.685-45 .06.06.11.12.16.19-2.07 10.25-3.59 17.86-5.44 27.09-4.2 12.59-7.58 22.77-8.092 24.53-.039.08-.219.41-.219.41l.063.03c-.009.03-.09.29-.094.31l3.752 1.72.22.09.78.35.03-.07 4.53 1.75c0 0 .03-.08.03-.09l.25.09c0 0 .09-.15.1-.15l.46.15c.02-.03.16-.51.19-.59l2.5.59c.02-.05.18-.77.22-.93l2.53.93c0 0 2.03-12.4 10.81-30.28 5.24-8.89 11.49-19.04 18.47-29.53 1.86-2.41 3.82-4.86 5.91-7.31-17.23 25.83-18.56 66.31-18.56 66.31l3.09.25v.19l4.56.37c0 0 .21-52.47 26.03-75.78 2.55 3.37 5.09 7.57 7.54 11.82-17.4 31.21-28.29 60.65-28.29 60.65l3.22.91c-.05.14-.28.78-.28.78l5.75 1.62c0 0 .25-.64.31-.81l2.16.81c0 0 10.93-21.58 27.5-47.81 1.11 1.21 2.21 2.15 3.28 2.69-.05-.09-.1-.19-.15-.28.92.94 1.83 1.7 2.75 2.15-1.33-2.28-2.69-4.81-4.07-7.43 6.23-9.74 13.22-20.02 20.66-30-6.24 17.89-8.39 37.26-8.94 52.47-6.38 14.19-8.31 23.9-8.31 23.9l3.78 1.41c-.06.27-.19.84-.19.84l5.63 2.06c0 0 .09-.48.12-.65l3.03.34c0 0-.26-4.04-.25-10.69.04-.12.09-.25.13-.37.19 6.85.59 11.03.59 11.03l3.47.34c0 0-.39-9.57.56-23.59 5.03-11.57 13.17-26.34 26.1-41.84-3.14 9.34-4.37 13.04-7.75 23.15-10.68 21.91-16.97 38.97-16.97 38.97l3.22.91c-.06.14-.31.78-.31.78l5.75 1.62c0 0 .14-.36.15-.4l1.41.4c0 0 .4-.93.47-1.09l2.84 1.09c.34-.74 5.15-14.74 10.66-30.87 3.42-7.08 7.37-14.95 11.78-23.22-11.41 28.51-17.85 51.78-17.85 51.78l4.47.75c-.01.04-.18.6-.18.6l5.87.96c42.685-48.666-34.843-4.137 8.25-106.78 11.49-.421-8.424-2.245-11.91-3.34 1.67-2.21 3.44-4.32 5.32-6.31.05-.05.1-.08.15-.13.05-.05.08-.11.13-.15 2.94-2.78 5.94-5.34 8.9-7.72 16.425-11.835 10.885-20.447-23.78 11.56-6.95-1.66-13.59-1.71-18.9 4.37-5.45 6.24-10.65 13.15-15.53 20.38-10.37-.27-18.8 2.92-25.69 8.19-.18-.08-.36-.16-.53-.22-.61-.53-1.21-.97-1.82-1.35 14.36-19.17 30.47-37.18 46.47-48.09 5.17-3.38 10.35-6.07 15.44-7.94-.26.02-.52.05-.78.07.57-.22 1.15-.47 1.72-.66-1.58.22-3.16.57-4.75 1-18.61 2.74-37.75 18.03-55.06 37.34-5.63.56-11.77-2.09-17.94-4.62 8.98-7.9 19.52-13.52 31.87-15.22-4.32.08-8.42.58-12.31 1.44-7.22 1-13.75 3.21-19.66 6.31l2.5-12.47.66-1.84-.41.68.85-4.21-2.41 6.81-.12.22.4-2.22.63-1.88-.41.72.78-4.25-2.31 6.88-9.12 15.78c-.75-.2-1.49-.37-2.22-.5l1.53-20 .4-1.91-.31.72.31-4.25-1.53 6.97-8.18 18.56c-2.37.61-4.68 1.86-6.85 3.97-2.21 2.16-4.37 4.42-6.53 6.75 5.02-33.73 10.25-69.16 10.25-69.16l.91-29.9.28-1.97-.25.75zm94.6 92.78c-6.83 6.77-13.41 14.36-19.69 22.25-.51-.09-1-.15-1.5-.22 3.82-5.71 7.83-11.23 12-16.41 2.83-3.52 5.93-5.11 9.19-5.62zm11.59 1.19c12.712 3.625 20.818-3.762 12.63 9.93 0 0-3.73 11.13-5.16 15.38-1.26.27-2.54 1-3.81 2.25-10.53 10.25-18.67 20.78-24.97 30.62 3.34-19.67 9.58-41.5 21.31-58.18zm-87.12 5.72c6.26 1.85 12.67 4.83 18.96 3.59-13.28 14.99-25.45 32.24-35.43 47.87.16-.5.18-.49.34-1 7.34-21.58 14.69-43.25 14.69-43.25zm19.87 2.56c-.2.22-.39.46-.59.69-1.08.04-2.14-.02-3.22-.16 1.29-.01 2.57-.19 3.81-.53zm-41.37 4.28c-.1.48-.87 4.26-1.07 5.22-4.57 6.14-8.47 12.87-11.78 19.81l-.06-.09c.62-4.15 1.09-7.4 1.72-11.6 3.62-4.61 7.34-9.1 11.19-13.34zm-21.47 8.69c.697-.02 1.409-.02 2.125 0-.113.8-.138 1-.25 1.81-1.159 1.45-2.306 2.9-3.438 4.37-.527-.27-1.038-.48-1.562-.65-.939-.67-1.854-1.21-2.782-1.6-.68-.38-1.357-.72-2.031-.9-.95-.71-1.878-1.23-2.812-1.6 3.324-.87 6.896-1.37 10.75-1.43zm97 .03c.51.02 1.03.08 1.56.12-3.25 4.09-6.42 8.25-9.47 12.44 2.54-4.23 5.17-8.45 7.91-12.56zm-10.41.62c-3.88 5.85-7.55 11.87-11 17.88-2.73-4.08-5.58-7.31-8.5-8.81 5.38-4.48 11.8-7.74 19.5-9.07zm-106.19 4.25c-16.876 19.7-26.34 39.55-31.531 54.35 3.76-19.53 12.276-44.04 31.531-54.35zm14.06.22c.881.86 1.74 1.81 2.625 2.85-23.25 30.72-40.24 65.12-43.875 72.68 2.259-12.07 9.929-40.78 34.844-71.75 2.076-2.58 4.228-3.73 6.406-3.78z"/><g transform="translate(-83.04-153.33)"><use xlink:href="#c"/><use xlink:href="#d"/></g><g transform="translate(-134.23-144.85)"><path fill="#4e9a06" d="m260.92 687.14c0 0 7.6-103.23 72.43-85.32-63.42-11.07-67.73 85.9-67.73 85.9z"/><path fill="#73d216" d="m264.05 687.72c0 0 7.6-103.23 72.43-85.32-63.42-11.07-67.73 85.9-67.73 85.9z"/></g><g transform="translate(-109.08-149.09)"><path fill="#4e9a06" d="m323.85 690.17c0 0-5.141-117.09 52.43-131.37-50.91 30.66-46.36 132.38-46.36 132.38z"/><path fill="#73d216" d="m328.25 691.54c0 0-5.406-114.36 47.47-132.44-49.65 28.19-41.41 133.45-41.41 133.45z"/></g><g transform="translate(-275.19-146.09)"><use xlink:href="#e"/><use xlink:href="#f"/></g><g transform="matrix(.19804-.04382.03831.26455-62.49 288.57)"><path fill="#4e9a06" d="m308.15 1010.1c1.43-8.5 181.85-620.59 181.85-620.59l62.86-111.43-224.71 739.22z"/><path fill="#73d216" d="m343.06 1020.3c3.38-8 190.26-621.64 190.26-621.64l20.44-134.12-231.42 751.06z"/></g><g transform="matrix(.24818-.01625.01756.26818-33.11 344.2)"><use xlink:href="#g"/><use xlink:href="#h"/></g><g transform="matrix(.98973.14294-.14294.98973 151.76-162.78)"><use xlink:href="#c"/><use xlink:href="#d"/></g><g transform="matrix(.98973.14294-.14294.98973-36.36-175.76)"><use xlink:href="#i"/><use xlink:href="#j"/></g><g transform="matrix(.99917-.04082.04082.99917-34.803-148.01)"><use xlink:href="#c"/><use xlink:href="#d"/></g><g transform="matrix(.99917-.04082.04082.99917-89.02-145.6)"><use xlink:href="#i"/><use xlink:href="#j"/></g><g transform="matrix(.73956.10822-.08051.99413-48.658-187.2)"><use xlink:href="#e"/><use xlink:href="#f"/></g><g transform="matrix(.99413.10822-.10822.99413-292.74-201.43)"><use xlink:href="#k"/><use xlink:href="#l"/></g><g transform="matrix(.98209.1884-.1884.98209-120.06-199.67)"><path fill="#4e9a06" d="m323.85 690.17c0 0 39.76-143.96 97.33-158.24-50.91 30.66-91.26 159.25-91.26 159.25z"/><path fill="#73d216" d="m328.25 691.54c0 0 40.91-142.29 93.79-160.37-49.65 28.19-87.73 161.38-87.73 161.38z"/></g><g transform="matrix(.39308.1884-.07541.98209 114.77-212.36)"><use xlink:href="#e"/><use xlink:href="#f"/></g><g transform="matrix(.98209.1884-.1884.98209-190.87-233.02)"><use xlink:href="#k"/><use xlink:href="#l"/></g><g transform="matrix(.24828.01465-.01583.26829 107.97 331.05)"><use xlink:href="#g"/><use xlink:href="#h"/></g><path fill="url(#a)" d="m23.358 410.58h246.95v131.52h-246.95z"/></g></svg>