<svg xmlns="http://www.w3.org/2000/svg" viewBox="0 0 349.49 197.26"><path fill="#fff" d="M 0,0 H349.49 V197.26 H0 z"/><g transform="translate(-49.545-524.93)"><path d="m290.61 594.8h-70.62l-21.676-11.654v-32.864l138.91-12.819v42.886l-46.615 9.09z"/><path d="m65.23 640.14l318.38.57-.053-59.2-91.31 20.04h-132.85l-94.16 25.17c-5.547 2.243-7.386 13.415 0 13.415"/><g fill-rule="evenodd"><path d="m155.81 666.86c0 11.307-9.151 20.481-20.458 20.51-11.307.028-20.504-9.1-20.561-20.407-.057-11.307 9.05-20.527 20.355-20.612 11.307-.085 20.55 8.997 20.663 20.303"/><path d="m201.98 666.86c0 11.307-9.151 20.481-20.458 20.51-11.307.028-20.504-9.1-20.561-20.407-.057-11.307 9.05-20.527 20.355-20.612 11.307-.085 20.55 8.997 20.663 20.303"/><path d="m247.33 666.86c0 11.307-9.151 20.481-20.458 20.51-11.307.028-20.504-9.1-20.561-20.407-.057-11.307 9.05-20.527 20.355-20.612 11.307-.085 20.55 8.997 20.663 20.303"/><path d="m293.76 666.86c0 11.307-9.151 20.481-20.458 20.51-11.307.028-20.504-9.1-20.561-20.407-.057-11.307 9.05-20.527 20.355-20.612 11.307-.085 20.55 8.997 20.663 20.303"/></g><path d="m83.75 646.63l-9.563.438c-5.326 13.248-.89 25.37 13.75 34.34 16.497 10.112 36.32 19.849 42.06 20l195.06.063c5.742-.151 25.565-9.888 42.06-20 14.64-8.973 19.08-21.13 13.75-34.375l-9.563-.406c2.878 12.395 5.361 20.762-12.563 29.25-14.67 6.947-30.18 15.218-32.594 15.719l-197.25-.031c-2.417-.501-17.893-8.803-32.563-15.75-17.924-8.488-15.471-16.855-12.594-29.25m-23.304-90.04v13.588l133.2 4.529v-18.323z"/><g fill-rule="evenodd"><path d="m339.84 667.94c0 11.307-9.151 20.481-20.458 20.51-11.307.028-20.504-9.1-20.561-20.407-.057-11.307 9.05-20.527 20.355-20.612 11.307-.085 20.55 8.997 20.663 20.303"/><path d="m368.27 658.4c0 6.445-5.216 11.675-11.662 11.691-6.445.016-11.688-5.187-11.72-11.632-.032-6.445 5.158-11.701 11.603-11.749 6.445-.049 11.714 5.128 11.778 11.573"/><path d="m110.01 658.4c0 6.445-5.216 11.675-11.662 11.691-6.445.016-11.688-5.187-11.72-11.632-.032-6.445 5.158-11.701 11.603-11.749 6.445-.049 11.714 5.128 11.778 11.573"/></g></g></svg>