<svg xmlns="http://www.w3.org/2000/svg" viewBox="0 0 670.93 802.78" xmlns:xlink="http://www.w3.org/1999/xlink"><defs><path fill-rule="evenodd" id="a" d="m251.27054 403.24664a95.87955 89.26717 0 1 1 -191.7591 0 95.87955 89.26717 0 1 1 191.7591 0"/><path fill-rule="evenodd" id="b" d="m368.08929 323.89801a90.36923 91.4713 0 1 1 -180.73845 0 90.36923 91.4713 0 1 1 180.73845 0"/><path fill-rule="evenodd" id="c" d="m632.58458 438.51266a96.98161 95.87955 0 1 1 -193.96323 0 96.98161 95.87955 0 1 1 193.96323 0"/><path fill-rule="evenodd" id="d" d="m279.92419 480.39108a90.36923 82.65475 0 1 1 -180.73845 0 90.36923 82.65475 0 1 1 180.73845 0"/><path fill-rule="evenodd" id="e" d="m484.90808 463.86011a92.57336 85.960983 0 1 1 -185.14673 0 92.57336 85.960983 0 1 1 185.14673 0"/><path fill="#f00" fill-rule="evenodd" stroke="#000" id="f" stroke-width="11.417" d="m165.37122 608.8667a38.419582 40.925201 0 1 1 -76.839165 0 38.419582 40.925201 0 1 1 76.839165 0z"/></defs><use xlink:href="#a" transform="matrix(1.71731 0 0 1.61013-102.2-415.54)"/><use xlink:href="#b" transform="matrix(1.57977 0 0 1.5079-105.15-350.47)"/><use xlink:href="#c" transform="matrix(1.58676 0 0 1.51422-332.8-452.04)"/><path fill="#b85e00" fill-rule="evenodd" stroke="#000" stroke-width="24.752" d="m240.06 438.46c26.669.962 53.34 1.937 80.01 2.898 5.138 48.4 7.191 64.856 24.631 84.21 30.774-17.416 49.23-34.845 55.39-60.969 0 0 120.03-17.429 76.936 0-27.689 66.779-77.52 83.46-86.75 138.63-11.282 64.856 4.212 124.95 11.403 186.9-57.46-.962-124.23.975-181.69 0 31.808-109.37 47.66-126.37 60.995-206.71-2.053-61.944-26.576-91.72-40.93-144.96z"/><use xlink:href="#d" transform="matrix(1.65168 0 0 1.47549-34.571-348.75)"/><use xlink:href="#e" transform="matrix(1.54584 0 0 1.46943-158.72-314.28)"/><g fill="#80df00"><use xlink:href="#e" transform="matrix(1.3963 0 0 1.3174-110.8-259.74)"/><use xlink:href="#d" transform="matrix(1.3963 0 0 1.3174 12.307-285.87)"/><use xlink:href="#a" transform="matrix(1.3963 0 0 1.3174-52.32-297.49)"/><use xlink:href="#c" transform="matrix(1.3963 0 0 1.3174-240.06-364.27)"/><use xlink:href="#b" transform="matrix(1.3963 0 0 1.3174-55.4-277.16)"/></g><use xlink:href="#f" transform="matrix(1.27488 0 0 1.1292-10.672-339.72)"/><use xlink:href="#f" transform="matrix(1.12311 0 0 .99477 175.37-219.36)"/><use xlink:href="#f" transform="matrix(1.0624 0 0 .91412 411.65-169.15)"/><use xlink:href="#f" transform="matrix(1.12311 0 0 .99477 96.06-399.81)"/><use xlink:href="#f" transform="matrix(1.21417 0 0 1.1292 253.6-423.34)"/><use xlink:href="#f" transform="matrix(.97134 0 0 .88723 403.38-354.14)"/></svg>