<svg xmlns="http://www.w3.org/2000/svg" viewBox="0 0 61.58 56.35"><defs><radialGradient cx="14.207" cy="222.04" id="a" r="8.252" gradientUnits="userSpaceOnUse" gradientTransform="scale(1.39523.71673)"><stop/><stop offset="1" stop-opacity="0"/></radialGradient></defs><g transform="matrix(2.46967 0 0 2.46967-9.442-497.88)"><g fill-rule="evenodd"><g fill="#00b300"><path d="m17.715 206.59c.301.036 1.391-.292 1.895.379.399.532 1.028.754 1.8.947.614.154.762-.188 1.137-.095.836.209.97.853 2.084.853.629 0 .583.298 1.042.758.54.54 1.174.365 1.61.947.539.719.669.262.853-.474.077-.308-.915-1.03-1.137-1.326-.555-.74-1.401-1.396-1.867-2.329-.423-.847-1.091-1.494-1.833-2.051-.312-.234-1.671.116-1.983.116-.76 0-1.504.115-2.179.284-1.084.271-1.52.951-2.179 1.61-.492.492-.104.829-.095.853.19.474.831-.367.853-.474"/><path d="m14.778 206.22c-.219.39-.809.758-1.516.758-.453 0-.8.611-1.137.947-.437.437-.669.859-1.137 1.326-.444.444-1.389.363-1.989.663-.502.251-.792 1.056-1.137 1.516-.646.862-1.139.035-1.61.663-.495.66-.497 1.059-1.232 1.61-.53.397-.538 1.167-1.042.663-.175-.175.383-1.524.474-1.705.238-.476.35-1.02.474-1.516.097-.387.278-.829.379-1.232.14-.562.443-.92.568-1.421.159-.636.23-1.111.379-1.705.182-.728.68-1.204.853-1.895.121-.484.902-1.01 1.326-1.326.54-.405.976-.677 1.516-.947.484-.242 1.319-.284 1.895-.284 1.712 0 1.588-.402 2.558.568.427.427 1.074 1.111 1.186 1.672.088.442-.722 1.216-.807 1.644"/></g><path fill="url(#a)" d="M28.401713 158.69876A7.943774 4.080706 0 1 1 12.514165 158.69876 7.943774 4.080706 0 1 1 28.401713 158.69876" transform="translate(-2.838 61.63)"/></g><path fill="#5c2700" d="m12.12 201.6c-.779.031-1.574.17-2.031.406-2.117 1.095-4.442 4.261-4 5.438.07.185-.187.917-.563 1.656-.376.739-.688 1.557-.688 1.813 0 .256-.252 1.049-.563 1.75-.589 1.331-.609 2.351-.063 2.531.177.058.844-.56 1.469-1.406.633-.856 1.278-1.511 1.469-1.438.446.171.69.003 1.625-1.25.663-.889.885-1.017 1.531-.875.676.148.825.01 1.594-1.188 1.232-1.919 1.762-2.304 2.719-2.094.78.171.821.218 1.031 2.406.307 3.194.232 3.916-.406 4.813-.449.63-.553 1.173-.531 2.656.043 2.964.162 3.201 1.75 3.375 2.586.284 3.117.126 2.656-.875-.155-.338-.394-1.197-.563-1.906-.279-1.175-.248-1.423.375-2.594.677-1.272.68-1.282.156-1.844-.475-.51-1.125-3.603-1.125-5.375 0-.75 1.211-.674 2.563.156.806.495 1.169.598 1.438.375.271-.225.516-.138.906.313.396.456.746.563 1.531.5.903-.073 1.042-.005 1.188.594.12.493.387.717.938.781.572.066.863.33 1.156 1.031.715 1.712 1.394 1.06.906-.875-.242-.959-.789-1.768-2.063-3.156-.942-1.027-1.786-2.082-1.875-2.344-.31-.916-1.495-1.533-2.938-1.5-1.049.024-1.726.252-2.938 1-1.805 1.114-2.188 1.198-2.188.438 0-.59-1.641-2.586-2.531-3.063-.379-.203-1.158-.281-1.938-.25m-.656.813c1.541-.244 2.384.063 3.5 1.281.632.69.615.725.063.438-.731-.38-2.89-.423-4.188-.063-.578.16-1.543.875-2.437 1.781-.819.829-1.554 1.5-1.656 1.5-.102 0-.09-.494.063-1.094.253-.996.865-1.674 2.938-3.344.209-.168.97-.382 1.719-.5m10.125 1.938c.973 0 2.656.715 2.656 1.125 0 .097.305.623.688 1.188.383.564.67 1.081.625 1.125-.045.044-.504.152-1.031.25-.83.155-1.067.061-1.594-.594-.588-.73-.601-.722-.969-.219-.367.502-.418.493-1.406-.375-1.036-.909-1.474-.992-3-.438-.435.158-.419.097.125-.344 1.256-1.018 2.842-1.719 3.906-1.719m-8.844.281c1.533 0 1.662.055 1.656.625-.004.423-.268.718-.875 1-.485.225-1.268.991-1.719 1.688-.708 1.095-.927 1.243-1.563 1.125-.629-.117-.834.047-1.594 1.125-.916 1.299-1.344 1.557-1.344.844 0-.225-.106-.382-.219-.375-.113.007-.727.836-1.375 1.844-1.335 2.077-1.395 1.608-.25-1.688.524-1.509.975-2.172 2.406-3.625 2.195-2.228 2.807-2.563 4.875-2.563m3.469 2.656c.076.188.076.5 0 .688-.076.188-.125.032-.125-.344 0-.376.049-.532.125-.344m9.75.719c.099.027.307.161.656.438.472.374.867.794.875.906.008.113-.281.188-.656.188-.407 0-.688-.144-.688-.375 0-.213-.082-.632-.188-.906-.078-.202-.099-.277 0-.25m-8.656 6.656c.076.188.076.5 0 .688-.076.188-.125.032-.125-.344 0-.376.049-.532.125-.344"/></g></svg>