<svg xmlns="http://www.w3.org/2000/svg" viewBox="0 0 400 360" xmlns:xlink="http://www.w3.org/1999/xlink"><defs><path fill="#fff" id="a" d="m787.98 164.94c0 5.301-4.297 9.598-9.598 9.598-5.301 0-9.598-4.297-9.598-9.598 0-5.301 4.297-9.598 9.598-9.598 5.301 0 9.598 4.297 9.598 9.598"/></defs><g transform="matrix(1.38612 0 0 1.54204-1024.1-37.1)"><g fill-rule="evenodd"><path d="m1009.24 214.28h-230.73c-10.882 0-23.864-17.09-23.864-28.23-.239-18.827.666-37.08 1.271-55.49 2.929-20.977 10.989-40.17 18.983-59.38 1.96-4.02 4.316-7.94 9.105-7.94h83.61c7.594 3.422 15.805 6.03 19.263 14.894 23.995 59.06 71.4 87.29 125.77 97.25l.043 35.756c0 1.412-1.956 3.143-3.447 3.143"/><path d="m793.88 37.03c-3.153 0-3.057 6.125 0 6.125h13.594c11.492 4.643 18.277 11.247 21.438 20.13h5.219v-.031h5.156c3.161-8.878 9.946-15.45 21.438-20.09h13.281c3.278 0 2.782-6.125 0-6.125zm27.656 6.125h25.06c-5.403 4.55-11.25 9.179-11.25 16.281h-2.5c0-7.125-5.895-11.717-11.313-16.281"/><path fill="#fff" d="m770.43 114.14h105.09c2.552 0 3.503-5.273 2.296-8.569-3.794-10.141-8.423-29.964-13.681-29.964h-80.79c-4.378 0-10.217 20.14-15.325 30.21-1.015 4-.01 8.32 2.408 8.32"/></g><use xlink:href="#a" transform="translate(1.548-.619)"/><use xlink:href="#a" transform="translate(80.81-.619)"/><g fill-rule="evenodd"><g fill="#fff"><path d="m913.61 136.36v34.92l-15.982-7.334c-1.52-14.737-1.661-29.749-1.751-44.772 5.911 5.73 12.253 13.592 17.734 17.19"/><path d="m937.81 155.41l.233 26.876-15.283-6.402c-.354-14.737.088-16.343-.003-31.365 6.61 5.614 9.339 6.714 15.05 10.891"/><path d="m945.69 160.18v23.989c4.378 2.354 9.445 3.606 14.921 4.204v-22.09z"/><path d="m966.8 169.25v20.938c3.828 1.49 7.825 1.962 11.871 2.143v-20.03z"/><path d="m984.77 174.36v18.795c3.143.88 6.364 1.371 9.727 1.154v-18.05z"/><path d="m999.69 177.24v17.806l7.831 1.319v-18.05z"/></g><path d="m754.66 229.21h19.934v-9.983h30.04v9.862h44.01v-9.892h164.11v10.04c-46.24 1.689-93.35 3.01-117.82 14.03h-140.29z"/></g></g></svg>