<svg xmlns="http://www.w3.org/2000/svg" viewBox="0 0 16 16" xmlns:xlink="http://www.w3.org/1999/xlink"><defs><path fill="#a05a2c" id="a" d="m768 578.86c0 .276-.224.5-.5.5-.276 0-.5-.224-.5-.5 0-.276.224-.5.5-.5.276 0 .5.224.5.5"/></defs><g transform="translate(-765-576.36)"><path fill="#fc0" d="m765 576.36h16v16h-16z"/><use xlink:href="#a"/><use xlink:href="#a" transform="translate(5 3)"/><use xlink:href="#a" transform="translate(1 5)"/><use xlink:href="#a" transform="translate(1 2)"/><use xlink:href="#a" transform="translate(4 1)"/><use xlink:href="#a" transform="translate(4 5)"/><use xlink:href="#a" transform="translate(-1 4)"/><use xlink:href="#a" transform="translate(0 9)"/><use xlink:href="#a" transform="translate(4 8)"/><use xlink:href="#a" transform="translate(2 7)"/><use xlink:href="#a" transform="translate(-1 12)"/><use xlink:href="#a" transform="translate(2 11)"/><use xlink:href="#a" transform="translate(5 12)"/><use xlink:href="#a" transform="translate(6 10)"/><use xlink:href="#a" transform="translate(7 7)"/><use xlink:href="#a" transform="translate(8 4)"/><use xlink:href="#a" transform="translate(6)"/><use xlink:href="#a" transform="translate(3-1)"/><use xlink:href="#a" transform="translate(-2-2)"/><use xlink:href="#a" transform="translate(-1 7)"/><use xlink:href="#a" transform="translate(9 1)"/><use xlink:href="#a" transform="translate(10-2)"/><use xlink:href="#a" transform="translate(12)"/><use xlink:href="#a" transform="translate(12 2)"/><use xlink:href="#a" transform="translate(11 4)"/><use xlink:href="#a" transform="translate(9 6)"/><use xlink:href="#a" transform="translate(11 8)"/><use xlink:href="#a" transform="translate(9 9)"/><use xlink:href="#a" transform="translate(8 12)"/><use xlink:href="#a" transform="translate(8 12)"/><use xlink:href="#a" transform="translate(11 11)"/><use xlink:href="#a" transform="translate(12 12)"/><use xlink:href="#a" transform="translate(13 6)"/><use xlink:href="#a" transform="translate(6 6)"/><use xlink:href="#a" transform="translate(7-2)"/><use xlink:href="#a" transform="translate(3 13)"/><use xlink:href="#a" transform="translate(-2 10)"/></g></svg>