<svg xmlns="http://www.w3.org/2000/svg" viewBox="0 0 317.02 351.393" enable-background="new 0 0 317.02 351.393"><g fill-rule="evenodd"><path d="m264.53 75.13c-4.5 2.052-7.704 6.336-9.756 12.852-2.124 6.516-6.229 18.792-2.593 26.14 3.78 7.236 13.608 17.03 24.336 16.884 10.656-.36 33.12-9.07 38.628-18.36 5.112-9.468-1.188-26.928-7.235-37.37-6.156-10.512-16.309-23.688-28.8-24.948-12.601-1.224-27.504 4.356-45.685 17.28-1.151-11.52-4.176-21.06-9.07-29.448-5-8.316-13.68-17.14-20.34-20.232-6.731-3.168-12.996-2.664-19.368 1.368-3.779 3.02-5.939 7.236-6.623 13.176-.721 5.832.107 13.03 2.483 21.744 9.576.828 16.668 3.672 21.96 8.532 5.148 4.896 13.536 12.816 9.07 20.448-4.645 7.488-16.488 15.588-36.22 24.444l-3.925-8.568h.001c7.308-10.296 9.323-21.492 6.479-34.416-3.096-13.07-11.88-31.464-24.12-42.41-12.35-10.908-28.41-18.14-49-22.248l9.756 24.26c-7.488-1.944-13.716-3.204-18.684-3.78-5-.612-8.748-.54-11.232.216l8.208 14.544c-8.388-4.572-17.856-5.292-28.692-2.02-10.872 3.276-22.824 10.404-36.14 21.528l13.03 9.864c-8.352 3.276-15.696 10.764-22.608 23.04-6.952 12.276-12.892 28.58-18.4 49.9 6.264-4.716 12.672-7.92 19.62-10.01 6.876-2.088 13.896-2.844 21.456-2.268l10.332 13.608c-4.68 4.824-6.66 11.484-6.084 20.52.54 8.964 1.944 24.768 9.504 32.977 7.632 8.06 19.224 13.248 35.604 15.551.648 10.117 3.96 18.721 9.936 26.352 6.05 7.561 14.472 13.789 25.848 18.828-2.844 11.449-1.476 21.13 3.816 30.02 5.4 8.676 14.58 16.09 28.08 22.248 2.268 13.607 6.732 23.363 13.789 29.412 7.06 5.939 21.527 8.03 28.01 6.551 6.336-1.584 9.576-6.732 9.864-15.732 4.464 6.373 9.18 11.449 14.436 15.805 5.184 4.283 10.944 8.713 16.704 9.684 5.724.865 13.968-.072 17.352-4.463 3.204-4.5 3.996-11.916 2.232-22.393 7.992-2.916 12.924-8.03 14.796-15.48 1.764-7.631 2.232-21.275-3.6-29.12-5.94-7.885-16.16-13.5-31.356-17.389 1.332-4.355.54-8.893-2.231-13.607-2.916-4.861-7.669-9.721-14.688-14.977 3.096-4.5 4.932-8.03 5.508-10.98.54-2.879-.18-5.04-2.16-6.336 9.973 0 16.92-2.879 21.673-8.639 4.571-6.01 6.659-16.777 5.976-26.03-.828-9.324-5.724-22.463-10.404-28.728-4.752-6.228-10.584-8.784-17.784-8.06 2.664-3.564 4.177-7.704 4.536-12.276.252-4.716-1.116-11.736-2.7-15.372-1.655-3.672-4.03-5.868-7.128-6.588l12.564-18.36c5.544-6.084 10.8-10.476 16.06-13.32 5.17-2.866 10.06-4.198 14.96-3.838z"/><g fill="#f0f"><path d="m84.46 97.85c-15.264 4.104-24.768 17.748-21.744 28.944 2.988 11.16 15.16 18.468 30.42 14.4s23.4-16.488 20.376-27.648c-3.03-11.16-13.79-19.76-29.05-15.692z"/><path d="m81.83 147.92c-10.62-4.03-20.664 4.572-22.428 19.26-1.728 14.687 5.472 29.88 16.09 33.912 10.62 4.03 20.664-4.607 22.428-19.26 1.728-14.68-5.436-29.87-16.09-33.91z"/><path d="m123.12 106.49c-3.06 17.244 2.34 29.664 12.42 32.58 10.08 2.952 23.08-2.664 26.14-19.872 3.061-17.244-5.616-32.472-15.696-35.424s-19.84 5.504-22.86 22.714z"/><path d="m152.32 154.19c-3.456 19.476 2.412 33.26 13.824 36.576 11.412 3.348 27.25-4.104 30.708-23.58 3.456-19.44-7.344-35.32-18.756-38.628-11.37-3.35-22.32 6.15-25.77 25.63z"/><path d="m105.66 204.41c-3.456 19.477 3.564 30.527 14.976 33.875 11.376 3.313 25.416-4.03 28.872-23.508 3.456-19.475-5.832-32.832-17.244-36.14-11.42-3.35-23.15 6.3-26.61 25.78z"/><path d="m165.74 258.66c3.204 15.984 15.444 28.547 24.948 25.74 9.468-2.844 17.243-20.52 14.04-36.541-3.24-15.984-16.236-24.23-25.704-21.383-9.51 2.8-16.53 16.16-13.29 32.18z"/><path d="m173.77 306.54c-4.5 11.557.611 22.5 8.208 25.705 7.668 3.203 17.46-3.564 21.96-15.12 4.5-11.52.756-27.14-6.876-30.348-7.63-3.2-18.79 8.21-23.29 19.77z"/><path d="m222.44 330.62c10.907 11.484 21.348 16.74 27.18 8.102 5.832-8.605.864-30.492-10.01-42.01-10.908-11.484-20.484-11.125-26.316-2.521-5.82 8.64-1.72 24.91 9.15 36.43z"/><path d="m204.91 180.04c1.08 17.424 13.824 29.23 23.904 28.729 10.08-.539 17.1-12.203 16.02-29.592-1.116-17.388-13.428-27.792-23.508-27.29-10.07.53-17.49 10.76-16.41 28.15z"/><path d="m209.59 145.98c11.592.684 18.216-8.316 17.28-17.208-.9-8.892-9.828-14.832-21.42-15.48-11.592-.684-16.452 5.04-15.552 13.932.9 8.9 8.14 18.11 19.69 18.76z"/><path d="m194.15 224.93c9.504 8.06 20.34 9.289 24.23 1.801 3.888-7.453-3.132-20.449-12.636-28.512-9.504-8.06-16.668-6.877-20.557.646-3.88 7.45-.54 17.99 8.97 26.06z"/><path d="m203.47 236.7c5.328-1.26 10.296-.215 15.05 3.42 4.752 3.564 11.735 11.557 13.319 18 1.477 6.408-.359 17.568-4.248 20.412-3.996 2.701-10.26 1.512-19.224-3.852 3.02-4.428 4.14-9.863 3.348-16.16-.87-6.45-3.57-13.54-8.25-21.82z"/><path d="m230.76 286.74c-.684-6.625.612-10.873 4.284-13.176 3.636-2.34 11.7-2.305 17.244-.432 5.4 1.836 12.13 6.623 15.336 11.592 3.132 4.824 5.76 12.779 3.42 17.496-2.52 4.607-8.388 7.955-18.04 10.188-3.02-8.172-6.156-14.15-9.936-18.504-3.8-4.25-7.73-6.74-12.3-7.17z"/><path d="m160.67 244.44c-3.06 4.68-3.312 10.656-1.044 18.469 2.34 7.775 7.2 16.848 14.868 27.756-8.06 3.779-15.05 4.859-21.492 2.844-6.444-2.123-14.184-7.92-16.812-14.615-2.628-6.732-1.476-19.01.972-25.16 2.34-6.193 9.108-10.01 13.1-11.592 3.92-1.63 7.34-.77 10.4 2.29z"/><path d="m149.62 229.86c6.876 3.492 12.456 4.176 17.17 1.908 4.608-2.375 10.368-9.9 10.62-15.371.036-5.473-5.977-14.473-9.433-17.281-3.455-2.951-7.06-2.879-10.943-.07.684 6.264.432 11.807-.756 17.03-1.34 5.18-3.42 9.64-6.66 13.78z"/><path d="m139.97 147.53c-6.588-.648-11.592-2.268-15.01-5.148-3.456-2.916-5.292-6.84-5.652-11.916-5.184 1.152-9.18 4.03-12.276 9.07-3.132 4.932-6.084 13.212-6.084 20.521 0 7.2 1.908 14.544 5.868 22.428 4.14-5.797 8.64-9.504 13.644-10.98 4.968-1.548 10.296-1.01 16.13 1.764 2.268-4.14 3.708-8.28 4.32-12.564.57-4.32.21-8.71-.94-13.17z"/></g><g fill="#408000"><path d="m197.39 22.14l-5.508.828c1.08 2.376 1.368 5.76 1.01 10.296-.432 4.464-1.512 10.04-3.384 16.74 4.03 1.476 8.101 3.96 12.348 7.74 4.177 3.672 11.02 9.144 12.889 14.472 1.8 5.292 5.04 10.152-1.8 16.956-7.02 6.66-19.801 14.256-39.31 22.932l.864 5.868c5.399-1.296 11.02-3.168 17.424-5.616 6.336-2.448 14.796-5.328 20.376-9.07 5.436-3.888 9.432-6.48 12.13-14 2.521-7.74 5.688-21.492 3.528-31.536-2.269-10.224-11.304-22.5-16.416-28.512-5.12-6.01-9.83-8.24-14.15-7.088z"/><path d="m232.88 76.57c5.688-6.084 12.13-10.548 19.765-13.536 7.56-2.988 16.848-6.804 25.523-4.248 8.568 2.556 20.809 11.05 25.74 19.26 4.788 8.1 6.876 21.672 3.06 29.05-4.067 7.272-18.468 14.04-26.531 14.472-8.101.18-19.513-5.328-21.313-12.492-1.764-7.344 5.184-25.704 10.98-30.348 5.688-4.536 19.19-.72 23.292 3.096 4.03 3.708 4.03 15.48.972 18.936-3.24 3.348-9.72 3.744-19.836 1.188l3.888-10.476c4.536 3.02 7.668 4.356 9.828 3.996 2.052-.432 4.788-4.932 2.521-6.408-2.557-1.548-12.421-4.32-16.813-2.628-4.464 1.656-9.432 7.956-9.07 12.528.36 4.428 6.408 12.02 11.34 14.328 4.824 2.196 13.248 2.484 17.784-.936 4.464-3.636 10.729-12.816 8.929-19.908-1.944-7.236-12.528-18.612-20.521-22.32-8.28-3.744-18.72-2.916-27.972.54-9.252 3.492-18.04 10.01-26.928 20.09 1.77-4.71 3.57-9.426 5.37-14.178z"/><path d="m168.59 96.16c5.544-11.16 6.948-21.672 4.068-32.08-3.02-10.44-12.636-21.528-21.348-29.916-8.748-8.496-18.9-15.01-30.744-20.232l.288 16.56-24.984-2.736 2.224 14.15c-11.412-2.484-21.852-2.628-31.608-.288-9.828 2.376-18.576 6.912-26.784 14.15l10.368 11.304c-6.804.504-13.284 5.256-19.728 14.652-6.516 9.396-12.6 22.896-18.684 41.18 6.948-4.644 14.15-7.272 21.888-7.74 7.704-.54 15.66 1.08 24.16 4.716 1.764-11.664 6.12-19.692 13.5-24.912 7.416-5.148 22.392-6.3 30.2-5.688 7.632.54 12.852 3.492 15.66 9 5.904-10.08 11.88-16.668 18.07-19.764 6.12-3.204 13.68-3.02 18.792.936 5 3.924 8.748 11.448 11.375 22.716 1.09-1.98 2.17-3.998 3.29-6.01z"/></g><g fill="#fff"><path d="m137.38 95.04c1.836-1.296 4.608-2.808 7.488-2.052 2.736.72 7.416 2.736 9.04 6.588 1.476 3.888.792 15.264.324 16.06-.504.54-1.548-9.756-3.276-12.564-1.836-2.988-4.104-4.176-6.948-4.68-2.88-.54-8.568 2.052-9.684 1.548-1.16-.686 1.26-3.71 3.06-4.898z"/><path d="m168.73 141.3c2.124-1.512 5.688-3.42 9.144-2.52s9.04 3.42 11.05 8.1c1.836 4.68.937 18.756.36 19.584-.72.576-1.872-11.808-3.996-15.336-2.232-3.564-5-5.148-8.46-5.724-3.42-.612-10.512 2.484-11.844 1.908-1.36-.79 1.56-4.61 3.75-6.01z"/><path d="m223.09 163.04c1.62-1.116 4.429-2.736 7.06-1.944 2.592.72 6.947 2.628 8.495 6.264 1.44 3.672.721 14.365.324 15.12-.468.396-1.548-9.108-3.096-11.844-1.729-2.808-3.96-3.96-6.552-4.428-2.809-.54-7.992 1.944-9.145 1.476-.99-.65 1.13-3.49 2.93-4.65z"/><path d="m119.09 190.15c2.664-1.801 6.876-4.213 11.09-3.061 4.068 1.045 10.98 4.176 13.356 9.793 2.304 5.688 1.116 22.68.468 23.76-.828.756-2.304-14.328-4.86-18.613-2.7-4.283-6.12-6.227-10.26-6.947-4.14-.793-12.708 3.096-14.328 2.34-1.7-.93 1.9-5.58 4.53-7.27z"/><path d="m178.34 236.41c2.053-1.477 5.652-3.313 9-2.447 3.276.791 8.893 3.383 10.872 7.92 1.836 4.57.937 18.467.36 19.332-.612.539-1.872-11.629-3.924-15.12-2.196-3.455-4.933-5.148-8.353-5.652-3.527-.611-10.188 2.484-11.628 1.908-1.29-.72 1.41-4.64 3.67-5.94z"/><path d="m239.69 279.83c2.159-1.512 5.615-2.988 9-2.484 3.312.469 10.512 3.961 10.476 5.184-.252 1.045-7.704.686-11.521 1.297-3.96.504-10.296 2.484-11.628 1.908-1.3-.76 1.4-4.54 3.67-5.91z"/><path d="m225.25 292.28c2.484.252 6.408 1.369 9 3.889 2.556 2.52 6.912 9.973 6.264 10.836-.899.648-6.876-4.32-10.548-6.443-3.672-2.088-10.188-4.752-10.943-6.05-.79-1.41 3.6-2.52 6.23-2.24z"/><path d="m89.24 101.2c2.484.252 6.408 1.368 9 3.888 2.556 2.448 6.912 9.936 6.264 10.8-.9.54-6.876-4.248-10.548-6.444-3.708-2.088-10.116-4.752-10.908-6.05-.83-1.45 3.634-2.46 6.19-2.2z"/></g></g></svg>