<svg xmlns="http://www.w3.org/2000/svg" viewBox="0 0 16 16"><g transform="translate(0-1036.36)"><g color="#000"><path color-interpolation-filters="linearRGB" image-rendering="auto" color-rendering="auto" d="m3.75 1048.8h2v3.56h-2z" color-interpolation="sRGB" text-rendering="auto" fill="#f00" shape-rendering="auto"/><path fill="#3771c8" d="m11.03 1039.36c-.571 0-1.031.536-1.031 1.203v.685c0 .013 0 .026 0 .039v4.073c-.009.751.963.751.954 0v-3.958h.491v10.235c-.012.966 1.238.966 1.226 0v-6.278h.607v6.278c-.012.966 1.238.966 1.226 0v-10.235h.541v3.958c-.009.751.963.751.954 0v-4.797c0-.666-.461-1.202-1.032-1.202z"/></g><ellipse fill="#3771c8" cx="13" cy="1037.57" rx="1.204" ry="1.204"/><g color-rendering="auto" color-interpolation-filters="linearRGB" shape-rendering="auto" image-rendering="auto" text-rendering="auto" color-interpolation="sRGB" color="#000"><path fill="#ff0" stroke="#f00" stroke-linejoin="round" d="m.5 1036.86h8.5v12.01h-8.5z"/><circle cx="3.5" cy="1043.86" r=".5"/><circle cx="6.351" cy="1043.86" r=".5"/></g><g fill-rule="evenodd"><path stroke="#000" stroke-linejoin="round" stroke-linecap="round" d="m2.86 1042.86h4.143"/><path d="m3.304 1041.39l1.967-.022 1.05 1.359-3.878.1z"/></g><g fill="none"><path stroke="#f00" d="m6.01 1040.6l1.795-2.48"/><path stroke="#008000" d="m2.646 1047.07l2-2 2 2"/><g stroke="#f00"><path d="m3.8 1040.6l-1.795-2.48"/><path d="m5 1037.68v2.685"/></g></g></g></svg>