<svg xmlns="http://www.w3.org/2000/svg" viewBox="0 0 16 16"><g transform="translate(0-1036.36)"><g fill="#3771c8"><path color="#000" d="m11.03 1039.36c-.571 0-1.031.536-1.031 1.203v.685c0 .013 0 .026 0 .039v4.073c-.009.751.963.751.954 0v-3.958h.491v10.235c-.012.966 1.238.966 1.226 0v-6.278h.607v6.278c-.012.966 1.238.966 1.226 0v-10.235h.541v3.958c-.009.751.963.751.954 0v-4.797c0-.666-.461-1.202-1.032-1.202z"/><ellipse cx="13" cy="1037.57" rx="1.204" ry="1.204"/></g><g fill-rule="evenodd"><path fill="#fff" d="m4.95 1037.31l-4.331 4.574 8.994-.044z"/><path fill="#fd5" stroke="#808080" d="m.344 1041.73l4.656-4.367 4.652 4.363"/></g><path fill="#fd5" stroke="#808080" d="m.5 1041.87h8.999v10h-8.999z"/><g fill="#808080"><path d="m4 1048.36h2v3h-2z"/><path d="m2 1043.36h2v2h-2z"/><path d="m6 1043.36h2v2h-2z"/></g></g></svg>