<svg xmlns="http://www.w3.org/2000/svg" viewBox="0 0 16 16"><g transform="translate(0-1036.36)"><g fill="#2ca02c"><path color="#000" d="m5.523 4c-.241 0-.481.189-.477.564-.009 1.587-.007 3.062 0 4.445 0 .604.362 1.134.957 1.033h.492v5.957h1.227v-3h.605v3h1.227v-5.957h.541v3.959c-.009.751.964.751.955 0v-4.797c0-.666-.462-1.203-1.033-1.203h-3.936c-.045 0-.039.002-.082.002v-3.439c.005-.376-.236-.564-.477-.564" transform="translate(0 1036.36)"/><ellipse cx="8.05" cy="1042.57" rx="1.204" ry="1.204"/></g><g fill="#3771c8"><path color="#000" d="m11.03 1039.36c-.571 0-1.031.536-1.031 1.203v.685c0 .013 0 .026 0 .039v4.073c-.009.751.963.751.954 0v-3.958h.491v10.235c-.012.966 1.238.966 1.226 0v-6.278h.607v6.278c-.012.966 1.238.966 1.226 0v-10.235h.541v3.958c-.009.751.963.751.954 0v-4.797c0-.666-.461-1.202-1.032-1.202z"/><ellipse cx="13" cy="1037.57" rx="1.204" ry="1.204"/></g><g fill="#fc0"><path color="#000" d="m4.03 1040.36c.241 0 .481.189.477.564.009 1.587.007 3.062 0 4.445 0 .604-.362 1.134-.957 1.033h-.492v5.957h-1.227v-3h-.605v3h-1.227c0-2.666 0-5.332.001-7.998h3.554v-3.439c-.005-.376.236-.564.477-.564z"/><ellipse cx="-1.505" cy="1042.57" rx="1.204" ry="1.204" transform="scale(-1 1)"/></g><g fill="#0ff" transform="translate(.046)"><path color="#000" d="m5.478 1043.8c-.241 0-.481.189-.477.564-.009 1.587-.007 3.062 0 4.445 0 .604.362 1.134.957 1.033h.492v2.513h3.059v-2.513h.541v2.513h.955v-3.351c0-.666-.462-1.203-1.033-1.203h-4.02v-3.439c.005-.376-.236-.564-.477-.564z"/><ellipse cx="8" cy="1046.01" rx="1.204" ry="1.204"/></g><g fill="#f55" transform="translate(0-.438)"><path color="#000" d="m4.03 1044.24c.241 0 .481.189.477.564.009 1.587.007 3.062 0 4.445 0 .604-.362 1.134-.957 1.033h-.492v2.52h-3.059c0 0 0-1.895.001-4.561h3.554v-3.439c-.005-.376.236-.564.477-.564z"/><ellipse cx="-1.505" cy="1046.45" rx="1.204" ry="1.204" transform="scale(-1 1)"/></g></g></svg>