<svg xmlns="http://www.w3.org/2000/svg" viewBox="0 0 16 16"><g transform="translate(0-1036.36)"><path fill="none" stroke="#c87137" stroke-linejoin="round" stroke-linecap="round" stroke-width="1.2" d="m1.496 1051.75l3-5 3 5"/><g fill="#3771c8"><path color="#000" d="m11.03 1039.36c-.571 0-1.031.536-1.031 1.203v.685c0 .013 0 .026 0 .039v4.073c-.009.751.963.751.954 0v-3.958h.491v10.235c-.012.966 1.238.966 1.226 0v-6.278h.607v6.278c-.012.966 1.238.966 1.226 0v-10.235h.541v3.958c-.009.751.963.751.954 0v-4.797c0-.666-.461-1.202-1.032-1.202z"/><ellipse cx="13" cy="1037.57" rx="1.204" ry="1.204"/></g><g color-rendering="auto" color-interpolation-filters="linearRGB" shape-rendering="auto" image-rendering="auto" text-rendering="auto" color-interpolation="sRGB" color="#000"><path fill="#008000" stroke="#c87137" stroke-linejoin="round" d="m.5 1040.86h8.01v7.03h-8.01z"/><g fill="#fff"><path d="m6 1043.36h1v1h-1z"/><path d="m2 1043.36h1v1h-1z"/><path d="m2 1045.36h1v1h-1z"/><path d="m4 1045.36h3v1h-3z"/><path d="m2 1041.36h2v1h-2z"/><path d="m5 1041.36h1v1h-1z"/><path d="m4 1043.36h1v1h-1z"/></g></g></g></svg>