<svg xmlns="http://www.w3.org/2000/svg" viewBox="0 0 16 16"><g transform="translate(0-1036.36)"><g fill="#3771c8"><path color="#000" d="m11.03 1039.36c-.571 0-1.031.536-1.031 1.203v.685c0 .013 0 .026 0 .039v4.073c-.009.751.963.751.954 0v-3.958h.491v10.235c-.012.966 1.238.966 1.226 0v-6.278h.607v6.278c-.012.966 1.238.966 1.226 0v-10.235h.541v3.958c-.009.751.963.751.954 0v-4.797c0-.666-.461-1.202-1.032-1.202z"/><ellipse cx="13" cy="1037.57" rx="1.204" ry="1.204"/></g><g color="#000"><g fill="#784421" color-rendering="auto" color-interpolation-filters="linearRGB" shape-rendering="auto" image-rendering="auto" text-rendering="auto" color-interpolation="sRGB"><path d="m1 1046.36h1v6h-1z"/><path d="m2.796 1048.36h4.204v1h-4.204z"/></g><path fill="#808080" d="m3.03 1042.95c-.571 0-1.031.536-1.031 1.203v.685c0 .013 0 .026 0 .039v.948c-.009.751.963.751.954 0v-.833h.491v6.61c-.012.966 1.238.966 1.226 0v-3.247h.607v3.247c-.012.966 1.238.966 1.226 0v-6.61h.541v.833c-.009.751.963.751.954 0v-1.672c0-.666-.461-1.202-1.032-1.202z"/></g><ellipse fill="#808080" cx="5" cy="1041.16" rx="1.204" ry="1.204"/><g fill="#784421" color-rendering="auto" color-interpolation-filters="linearRGB" shape-rendering="auto" image-rendering="auto" text-rendering="auto" color-interpolation="sRGB" color="#000"><path d="m8 1046.36h1v6h-1z"/><path d="m0 1046.36h10v1h-10z"/></g></g></svg>