<svg xmlns="http://www.w3.org/2000/svg" viewBox="0 0 16 16"><g transform="translate(0-1036.36)"><g fill="#3771c8"><path color="#000" d="m11.03 1039.36c-.571 0-1.031.536-1.031 1.203v.685c0 .013 0 .026 0 .039v4.073c-.009.751.963.751.954 0v-3.958h.491v10.235c-.012.966 1.238.966 1.226 0v-6.278h.607v6.278c-.012.966 1.238.966 1.226 0v-10.235h.541v3.958c-.009.751.963.751.954 0v-4.797c0-.666-.461-1.202-1.032-1.202z"/><ellipse cx="13" cy="1037.57" rx="1.204" ry="1.204"/></g><path fill="#fff" stroke="#808080" d="m.5 1039.86h7.99v12h-7.99z"/><g fill="#f60"><path d="m0 1044.86h9v2h-9z"/><rect width="2" x="3.504" y="1039.36" rx=".001" height="12.998"/></g></g></svg>