<svg xmlns="http://www.w3.org/2000/svg" viewBox="0 0 16 16"><g transform="translate(0-1036.36)"><g color="#000"><path fill="#808080" d="m3.03 1039.36c-.571 0-1.031.536-1.031 1.203v.685c0 .013 0 .026 0 .039v.948c-.009.751.963.751.954 0v-.833h.491v1.532h3.059v-1.532h.541v.833c-.009.751.963.751.954 0v-1.672c0-.666-.461-1.202-1.032-1.202z"/><path fill="#3771c8" d="m11.03 1039.36c-.571 0-1.031.536-1.031 1.203v.685c0 .013 0 .026 0 .039v4.073c-.009.751.963.751.954 0v-3.958h.491v10.235c-.012.966 1.238.966 1.226 0v-6.278h.607v6.278c-.012.966 1.238.966 1.226 0v-10.235h.541v3.958c-.009.751.963.751.954 0v-4.797c0-.666-.461-1.202-1.032-1.202z"/></g><ellipse fill="#3771c8" cx="13" cy="1037.57" rx="1.204" ry="1.204"/><ellipse fill="#808080" cx="5" cy="1037.57" rx="1.204" ry="1.204"/><path color-interpolation-filters="linearRGB" color="#000" image-rendering="auto" color-rendering="auto" d="m0 1042.77h10v9.59h-10z" color-interpolation="sRGB" text-rendering="auto" fill="#784421" shape-rendering="auto"/></g></svg>