<svg xmlns="http://www.w3.org/2000/svg" viewBox="0 0 16 16"><g transform="translate(0-1036.36)"><path fill="#fff" stroke="#808080" stroke-linejoin="round" d="m.5 1038.86h9.01v13.01h-9.01z"/><path fill="none" stroke="#000" d="m9 1044.36c0 0-7 0-7 7"/><g color="#000"><g fill="#808080" color-rendering="auto" color-interpolation-filters="linearRGB" shape-rendering="auto" image-rendering="auto" text-rendering="auto" color-interpolation="sRGB"><path d="m2 1040.36h2v1h-2z"/><path d="m5 1040.36h1v1h-1z"/><path d="m2 1042.36h1v1h-1z"/><path d="m4 1042.36h2v1h-2z"/><path d="m7 1042.36h1v1h-1z"/><path d="m2 1044.36h1v1h-1z"/></g><path fill="#3771c8" d="m11.03 1039.36c-.571 0-1.031.536-1.031 1.203v.685c0 .013 0 .026 0 .039v4.073c-.009.751.963.751.954 0v-3.958h.491v10.235c-.012.966 1.238.966 1.226 0v-6.278h.607v6.278c-.012.966 1.238.966 1.226 0v-10.235h.541v3.958c-.009.751.963.751.954 0v-4.797c0-.666-.461-1.202-1.032-1.202z"/></g><ellipse fill="#3771c8" cx="13" cy="1037.57" rx="1.204" ry="1.204"/><g color-rendering="auto" color-interpolation-filters="linearRGB" shape-rendering="auto" image-rendering="auto" text-rendering="auto" color-interpolation="sRGB" color="#000"><path fill="#808080" d="m7 1040.36h1v1h-1z"/><path d="m-739.08 746.1h4v1h-4z" transform="rotate(-45)"/></g></g></svg>