<svg xmlns="http://www.w3.org/2000/svg" viewBox="0 0 16 16"><g transform="translate(0-1036.36)"><g fill="#2a7fff"><path color="#000" d="m1.031 1044.36c-.571 0-1.031.536-1.031 1.203v.685c0 .013 0 .026 0 .039v4.073c-.009.751.963.751.954 0v-3.958h.491v5.957h1.226v-3h.607v3h1.226v-5.957h.541v3.958c-.009.751.963.751.954 0v-4.797c0-.666-.461-1.202-1.032-1.202z"/><ellipse cx="3" cy="1042.57" rx="1.204" ry="1.204"/><path color="#000" d="m6.082 1044.36c-.571 0-1.031.536-1.031 1.203v.685c0 .013 0 .026 0 .039v4.073c-.009.751.963.751.954 0v-3.958h.491v5.957h1.226v-3h.607v3h1.226v-5.957h.541v3.958c-.009.751.963.751.954 0v-4.797c0-.666-.461-1.202-1.032-1.202z"/><ellipse cx="8.05" cy="1042.57" rx="1.204" ry="1.204"/></g><g fill="#3771c8"><path color="#000" d="m11.03 1039.36c-.571 0-1.031.536-1.031 1.203v.685c0 .013 0 .026 0 .039v4.073c-.009.751.963.751.954 0v-3.958h.491v10.235c-.012.966 1.238.966 1.226 0v-6.278h.607v6.278c-.012.966 1.238.966 1.226 0v-10.235h.541v3.958c-.009.751.963.751.954 0v-4.797c0-.666-.461-1.202-1.032-1.202z"/><ellipse cx="13" cy="1037.57" rx="1.204" ry="1.204"/></g><path fill="#2a7fff" d="m1 1036.36h5v4h-5z"/><path fill="#808080" d="m0 1036.36h1v9h-1z"/></g></svg>