<svg xmlns="http://www.w3.org/2000/svg" viewBox="0 0 16 16"><g transform="translate(0-1036.36)"><g fill="#3771c8"><path color="#000" d="m11.03 1039.36c-.571 0-1.031.536-1.031 1.203v.685c0 .013 0 .026 0 .039v4.073c-.009.751.963.751.954 0v-3.958h.491v10.235c-.012.966 1.238.966 1.226 0v-6.278h.607v6.278c-.012.966 1.238.966 1.226 0v-10.235h.541v3.958c-.009.751.963.751.954 0v-4.797c0-.666-.461-1.202-1.032-1.202z"/><ellipse cx="13" cy="1037.57" rx="1.204" ry="1.204"/></g><g fill="#a05a2c" color-rendering="auto" shape-rendering="auto" color-interpolation-filters="linearRGB" image-rendering="auto" fill-rule="evenodd" text-rendering="auto" color-interpolation="sRGB" color="#000"><path d="m3 1038.36v14h2v-14z"/><path d="m0 1041.36v2h8v-2z"/></g></g></svg>