<svg xmlns="http://www.w3.org/2000/svg" viewBox="0 0 16 16"><g transform="translate(0-1036.36)"><g fill-rule="evenodd"><path fill="#fff" d="m2.75 1041.91h3.344l1.266 5.109h-5.766z"/><path fill="#0a0" d="m1.825 1046.36l-1.294 5.457 8.02-.019-1.326-5.439z"/></g><path fill="none" stroke="#808080" stroke-linejoin="round" stroke-linecap="round" d="m1.308 1041.9h1.616l-2.424 9.96h8.08l-2.424-9.96h1.616"/><g color="#000"><g fill="#0a0" color-rendering="auto" color-interpolation-filters="linearRGB" shape-rendering="auto" image-rendering="auto" text-rendering="auto" color-interpolation="sRGB"><circle cx="3.516" cy="1037.97" r="1.603"/><circle cx="4.553" cy="1041" r="1.02"/><circle cx="4.085" cy="1043.87" r=".599"/></g><path fill="#3771c8" d="m11.03 1039.36c-.571 0-1.031.536-1.031 1.203v.685c0 .013 0 .026 0 .039v4.073c-.009.751.963.751.954 0v-3.958h.491v10.235c-.012.966 1.238.966 1.226 0v-6.278h.607v6.278c-.012.966 1.238.966 1.226 0v-10.235h.541v3.958c-.009.751.963.751.954 0v-4.797c0-.666-.461-1.202-1.032-1.202z"/></g><ellipse fill="#3771c8" cx="13" cy="1037.57" rx="1.204" ry="1.204"/></g></svg>