<svg xmlns="http://www.w3.org/2000/svg" viewBox="0 0 16 16"><g transform="translate(0-1036.36)"><g fill="#3771c8"><path color="#000" d="m11.03 1039.36c-.571 0-1.031.536-1.031 1.203v.685c0 .013 0 .026 0 .039v4.073c-.009.751.963.751.954 0v-3.958h.491v10.235c-.012.966 1.238.966 1.226 0v-6.278h.607v6.278c-.012.966 1.238.966 1.226 0v-10.235h.541v3.958c-.009.751.963.751.954 0v-4.797c0-.666-.461-1.202-1.032-1.202z"/><ellipse cx="13" cy="1037.57" rx="1.204" ry="1.204"/></g><path fill="#fff" stroke="#808080" d="m.5 1041.86h8v10h-8z"/><g fill="none" stroke="#000" stroke-linejoin="round" stroke-linecap="round"><path d="m4.5 1042.87v8.164"/><path d="m6.54 1044.06c0 0-4.086-1.342-4.086 1.459 0 2.802 4.068.233 4.068 3.035 0 2.802-4.058 1.109-4.058 1.109"/></g><g fill="#008000"><path fill-rule="evenodd" d="m1.502 1038.36l3 3 3-3"/><path d="m3.502 1036.36h2v2.98h-2z"/></g></g></svg>