<svg xmlns="http://www.w3.org/2000/svg" viewBox="0 0 16 16"><g transform="translate(0-1036.36)"><g color="#000"><path color-interpolation-filters="linearRGB" image-rendering="auto" color-rendering="auto" d="m4.507 1041.77h1v10.59h-1z" color-interpolation="sRGB" text-rendering="auto" fill="#f60" shape-rendering="auto"/><path fill="#3771c8" d="m11.03 1039.36c-.571 0-1.031.536-1.031 1.203v.685c0 .013 0 .026 0 .039v4.073c-.009.751.963.751.954 0v-3.958h.491v10.235c-.012.966 1.238.966 1.226 0v-6.278h.607v6.278c-.012.966 1.238.966 1.226 0v-10.235h.541v3.958c-.009.751.963.751.954 0v-4.797c0-.666-.461-1.202-1.032-1.202z"/></g><ellipse fill="#3771c8" cx="13" cy="1037.57" rx="1.204" ry="1.204"/><g stroke="#f60" stroke-linejoin="round" stroke-linecap="round"><g fill="none"><path d="m6.507 1037.92c0 0 1.53.492 1.53 2 0 1.486-1.53 2-1.53 2"/><path d="m7.496 1036.87c0 0 2 1 2 3 0 2-2 3-2 3"/><path d="m3.489 1038.07c0 0-1.53.492-1.53 2 0 1.486 1.53 2 1.53 2"/><path d="m2.5 1037.02c0 0-2 1-2 3 0 2 2 3 2 3"/></g><circle fill="#f60" cx="5.03" cy="1040.02" r=".719"/></g></g></svg>