<svg xmlns="http://www.w3.org/2000/svg" viewBox="0 0 16 16"><path fill="#0a0" stroke="#000" stroke-width=".3" d="m5.804 9.693l-1.888-3.365h-3.798l1.544.914-.954 1.682c-.081.153-.122.312-.122.478 0 .166.041.325.122.478l1.502 2.679c.068-.194.136-.36.203-.499l1.869-3.282zm-2.823 2.7c-.109.18-.163.374-.163.581 0 .319.112.589.335.81.224.221.491.332.802.332h3.737v-3.095h-3.94c-.027.055-.129.235-.305.54zm5.057-7.665h3.778l1.909-3.365-1.543.914-.955-1.683c-.176-.318-.447-.477-.812-.477h-3.01c.122.138.224.277.305.415l1.848 3.282-.304.187zm-1.848-4.445c-.433 0-.758.194-.975.581l-1.888 3.323c.717.429 1.591.942 2.62 1.537.609-1.066 1.266-2.229 1.97-3.49l-.751-1.371c-.217-.387-.541-.581-.975-.581zm4.854 10.697v-1.807l-1.889 3.365 1.889 3.344v-1.807h1.888c.366 0 .643-.159.832-.478l1.503-2.679c-.203.055-.372.083-.508.083zm2.803-5.691c-.068.041-.941.554-2.62 1.537.84 1.482 1.503 2.652 1.991 3.51h1.523c.447 0 .779-.194.995-.582.203-.374.196-.755-.02-1.142z"/></svg>