<svg xmlns="http://www.w3.org/2000/svg" viewBox="0 0 15 16"><g transform="translate(0-1036.36)"><g fill-rule="evenodd"><path color-interpolation-filters="linearRGB" color="#000" image-rendering="auto" color-rendering="auto" d="m0 1036.36h15v16h-15z" color-interpolation="sRGB" text-rendering="auto" fill="#fff" shape-rendering="auto"/><path d="m1 1049.36v-8h11.958c0 0-1 9.986-3.915 9.992l-5.04.008z"/><g color-rendering="auto" color-interpolation-filters="linearRGB" shape-rendering="auto" image-rendering="auto" text-rendering="auto" color-interpolation="sRGB" color="#000"><path fill="#808080" d="m5.534182 1049.3621a2.484182 2.428978 0 0 1 -2.483933 2.4289 2.484182 2.428978 0 0 1 -2.484431 -2.4285 2.484182 2.428978 0 0 1 2.483434 -2.4294 2.484182 2.428978 0 0 1 2.48493 2.428"/><path d="m4.02123 1049.3621a.971227 .949644 0 0 1 -.97113 .9496 .971227 .949644 0 0 1 -.971324 -.9494 .971227 .949644 0 0 1 .970935 -.9499 .971227 .949644 0 0 1 .971519 .9493"/></g></g><path fill="none" stroke="#000" stroke-linecap="round" stroke-width="1.6" d="m1.795 1041.43l10.813-3.421"/></g></svg>