<?xml version="1.0" encoding="UTF-8" standalone="no"?>
<!DOCTYPE svg PUBLIC "-//W3C//DTD SVG 1.1//EN" "http://www.w3.org/Graphics/SVG/1.1/DTD/svg11.dtd">
<svg xmlns:dc="http://purl.org/dc/elements/1.1/" xmlns:xl="http://www.w3.org/1999/xlink" version="1.1" xmlns="http://www.w3.org/2000/svg" viewBox="0 0 14 14" width="14" height="14">
  <defs/>
  <g id="Canvas_1" fill-opacity="1" stroke-dasharray="none" stroke="none" stroke-opacity="1" fill="none">
    <title>Canvas 1</title>
    <g id="Canvas_1_Layer_1">
      <title>Layer 1</title>
      <g id="Graphic_2"/>
      <g id="Graphic_4">
        <path d="M 4 .40625 C 2.23276 1.1855669 .96875 2.9521023 .96875 5 C .96875 7.047898 2.23276 8.814433 4 9.59375 L 4 8.4375 C 2.80447 7.746709 2 6.48815 2 5 C 2 3.51185 2.80447 2.2532914 4 1.5625 Z M 10 .40625 L 10 1.5625 C 11.19553 2.2532914 12 3.51185 12 5 C 12 6.48815 11.19553 7.746709 10 8.4375 L 10 9.59375 C 11.76724 8.814433 13.03125 7.047898 13.03125 5 C 13.03125 2.9521023 11.76724 1.1855669 10 .40625 Z M 5 2.1875 C 3.842954 2.6043642 3 3.7033306 3 5 C 3 6.2966694 3.842954 7.395636 5 7.8125 L 5 6.71875 C 4.403081 6.374029 4 5.74357 4 5 C 4 4.2564303 4.403081 3.625971 5 3.28125 Z M 9 2.1875 L 9 3.28125 C 9.596919 3.625971 10 4.2564303 10 5 C 10 5.74357 9.596919 6.374029 9 6.71875 L 9 7.8125 C 10.157046 7.395636 11 6.2966694 11 5 C 11 3.7033306 10.157046 2.6043642 9 2.1875 Z M 7 4 C 6.4022075 4 6 4.469217 6 5 L 6 11 L 5 11 L 5 12 L 3 12 L 3 14 L 11 14 L 11 12 L 9 12 L 9 11 L 8 11 L 8 5 C 8 4.503906 7.597793 4 7 4 Z" fill="#555"/>
        <path d="M 4 .40625 C 2.23276 1.1855669 .96875 2.9521023 .96875 5 C .96875 7.047898 2.23276 8.814433 4 9.59375 L 4 8.4375 C 2.80447 7.746709 2 6.48815 2 5 C 2 3.51185 2.80447 2.2532914 4 1.5625 Z M 10 .40625 L 10 1.5625 C 11.19553 2.2532914 12 3.51185 12 5 C 12 6.48815 11.19553 7.746709 10 8.4375 L 10 9.59375 C 11.76724 8.814433 13.03125 7.047898 13.03125 5 C 13.03125 2.9521023 11.76724 1.1855669 10 .40625 Z M 5 2.1875 C 3.842954 2.6043642 3 3.7033306 3 5 C 3 6.2966694 3.842954 7.395636 5 7.8125 L 5 6.71875 C 4.403081 6.374029 4 5.74357 4 5 C 4 4.2564303 4.403081 3.625971 5 3.28125 Z M 9 2.1875 L 9 3.28125 C 9.596919 3.625971 10 4.2564303 10 5 C 10 5.74357 9.596919 6.374029 9 6.71875 L 9 7.8125 C 10.157046 7.395636 11 6.2966694 11 5 C 11 3.7033306 10.157046 2.6043642 9 2.1875 Z M 7 4 C 6.4022075 4 6 4.469217 6 5 L 6 11 L 5 11 L 5 12 L 3 12 L 3 14 L 11 14 L 11 12 L 9 12 L 9 11 L 8 11 L 8 5 C 8 4.503906 7.597793 4 7 4 Z" stroke="white" stroke-linecap="butt" stroke-linejoin="round" stroke-width="2"/>
      </g>
      <g id="Graphic_3">
        <path d="M 4 .40625 C 2.23276 1.1855669 .96875 2.9521023 .96875 5 C .96875 7.047898 2.23276 8.814433 4 9.59375 L 4 8.4375 C 2.80447 7.746709 2 6.48815 2 5 C 2 3.51185 2.80447 2.2532914 4 1.5625 Z M 10 .40625 L 10 1.5625 C 11.19553 2.2532914 12 3.51185 12 5 C 12 6.48815 11.19553 7.746709 10 8.4375 L 10 9.59375 C 11.76724 8.814433 13.03125 7.047898 13.03125 5 C 13.03125 2.9521023 11.76724 1.1855669 10 .40625 Z M 5 2.1875 C 3.842954 2.6043642 3 3.7033306 3 5 C 3 6.2966694 3.842954 7.395636 5 7.8125 L 5 6.71875 C 4.403081 6.374029 4 5.74357 4 5 C 4 4.2564303 4.403081 3.625971 5 3.28125 Z M 9 2.1875 L 9 3.28125 C 9.596919 3.625971 10 4.2564303 10 5 C 10 5.74357 9.596919 6.374029 9 6.71875 L 9 7.8125 C 10.157046 7.395636 11 6.2966694 11 5 C 11 3.7033306 10.157046 2.6043642 9 2.1875 Z M 7 4 C 6.4022075 4 6 4.469217 6 5 L 6 11 L 5 11 L 5 12 L 3 12 L 3 14 L 11 14 L 11 12 L 9 12 L 9 11 L 8 11 L 8 5 C 8 4.503906 7.597793 4 7 4 Z" fill="#555"/>
      </g>
    </g>
  </g>
</svg>
