<?xml version="1.0" encoding="UTF-8" standalone="no"?>
<!DOCTYPE svg PUBLIC "-//W3C//DTD SVG 1.1//EN" "http://www.w3.org/Graphics/SVG/1.1/DTD/svg11.dtd">
<svg xmlns:dc="http://purl.org/dc/elements/1.1/" xmlns:xl="http://www.w3.org/1999/xlink" version="1.1" xmlns="http://www.w3.org/2000/svg" viewBox="0 0 14 14" width="14" height="14">
  <defs/>
  <g id="Canvas_1" fill-opacity="1" stroke-dasharray="none" stroke="none" stroke-opacity="1" fill="none">
    <title>Canvas 1</title>
    <g id="Canvas_1_Layer_1">
      <title>Layer 1</title>
      <g id="Graphic_2"/>
      <g id="Graphic_3">
        <path d="M 7 1 C 6.4022075 1 6 1.4692172 6 2 L 6 11 L 5 11 L 5 12 L 3 12 L 3 14 L 11 14 L 11 12 L 9 12 L 9 11 L 8 11 L 8 2 C 8 1.5039063 7.5977925 1 7 1 Z M 2.7148438 1.5449219 C 2.5475777 1.6291099 2.4854767 1.9211987 2.7148438 2.013672 L 4.589844 2.763672 C 4.8962727 2.887214 5.083166 2.4182195 4.777344 2.294922 L 2.9023438 1.5449219 C 2.8258838 1.5140979 2.7705987 1.5168599 2.7148438 1.5449219 Z M 11 1.5957031 L 9.125 2.345703 C 8.819178 2.4690007 9.006071 2.9379952 9.3125 2.814453 L 11.1875 2.064453 C 11.493323 1.9411555 11.305822 1.4724055 11 1.5957031 Z M 2.7460938 3.326172 C 2.4163518 3.326172 2.4163518 3.826172 2.7460938 3.826172 L 4.746094 3.826172 C 5.07649 3.826172 5.075836 3.326172 4.746094 3.326172 Z M 9.15625 3.376953 C 8.826508 3.376953 8.825854 3.876953 9.15625 3.876953 L 11.15625 3.876953 C 11.485991 3.876953 11.485991 3.376953 11.15625 3.376953 Z M 4.589844 4.451172 L 2.7148438 5.201172 C 2.4090217 5.3244695 2.5959147 5.793464 2.9023438 5.669922 L 4.777344 4.919922 C 5.083166 4.7966243 4.8956657 4.3278743 4.589844 4.451172 Z M 9.125 4.501953 C 8.957734 4.58614 8.895633 4.87823 9.125 4.970703 L 11 5.720703 C 11.306429 5.844245 11.493322 5.375251 11.1875 5.251953 L 9.3125 4.501953 C 9.23605 4.471129 9.180755 4.473891 9.125 4.501953 Z" fill="#555"/>
        <path d="M 7 1 C 6.4022075 1 6 1.4692172 6 2 L 6 11 L 5 11 L 5 12 L 3 12 L 3 14 L 11 14 L 11 12 L 9 12 L 9 11 L 8 11 L 8 2 C 8 1.5039063 7.5977925 1 7 1 Z M 2.7148438 1.5449219 C 2.5475777 1.6291099 2.4854767 1.9211987 2.7148438 2.013672 L 4.589844 2.763672 C 4.8962727 2.887214 5.083166 2.4182195 4.777344 2.294922 L 2.9023438 1.5449219 C 2.8258838 1.5140979 2.7705987 1.5168599 2.7148438 1.5449219 Z M 11 1.5957031 L 9.125 2.345703 C 8.819178 2.4690007 9.006071 2.9379952 9.3125 2.814453 L 11.1875 2.064453 C 11.493323 1.9411555 11.305822 1.4724055 11 1.5957031 Z M 2.7460938 3.326172 C 2.4163518 3.326172 2.4163518 3.826172 2.7460938 3.826172 L 4.746094 3.826172 C 5.07649 3.826172 5.075836 3.326172 4.746094 3.326172 Z M 9.15625 3.376953 C 8.826508 3.376953 8.825854 3.876953 9.15625 3.876953 L 11.15625 3.876953 C 11.485991 3.876953 11.485991 3.376953 11.15625 3.376953 Z M 4.589844 4.451172 L 2.7148438 5.201172 C 2.4090217 5.3244695 2.5959147 5.793464 2.9023438 5.669922 L 4.777344 4.919922 C 5.083166 4.7966243 4.8956657 4.3278743 4.589844 4.451172 Z M 9.125 4.501953 C 8.957734 4.58614 8.895633 4.87823 9.125 4.970703 L 11 5.720703 C 11.306429 5.844245 11.493322 5.375251 11.1875 5.251953 L 9.3125 4.501953 C 9.23605 4.471129 9.180755 4.473891 9.125 4.501953 Z" stroke="white" stroke-linecap="butt" stroke-linejoin="round" stroke-width="2"/>
      </g>
      <g id="Graphic_5">
        <path d="M 7.0488285 1 C 6.451036 1 6.0488285 1.4692172 6.0488285 2 L 6.0488285 11 L 5.0488285 11 L 5.0488285 12 L 3.0488285 12 L 3.0488285 14 L 11.048828 14 L 11.048828 12 L 9.048828 12 L 9.048828 11 L 8.048828 11 L 8.048828 2 C 8.048828 1.5039063 7.646621 1 7.0488285 1 Z M 2.7636723 1.5449219 C 2.5964062 1.6291099 2.5343052 1.9211987 2.7636723 2.013672 L 4.638672 2.763672 C 4.945101 2.887214 5.131994 2.4182195 4.826172 2.294922 L 2.9511723 1.5449219 C 2.8747123 1.5140979 2.8194272 1.5168599 2.7636723 1.5449219 Z M 11.048828 1.5957031 L 9.173828 2.345703 C 8.868006 2.4690007 9.0549 2.9379952 9.361328 2.814453 L 11.236328 2.064453 C 11.542151 1.9411555 11.35465 1.4724055 11.048828 1.5957031 Z M 2.7949223 3.326172 C 2.4651803 3.326172 2.4651803 3.826172 2.7949223 3.826172 L 4.794922 3.826172 C 5.125318 3.826172 5.124664 3.326172 4.794922 3.326172 Z M 9.205078 3.376953 C 8.875336 3.376953 8.874682 3.876953 9.205078 3.876953 L 11.205078 3.876953 C 11.53482 3.876953 11.53482 3.376953 11.205078 3.376953 Z M 4.638672 4.451172 L 2.7636723 5.201172 C 2.4578502 5.3244695 2.6447432 5.793464 2.9511723 5.669922 L 4.826172 4.919922 C 5.131994 4.7966243 4.944494 4.3278743 4.638672 4.451172 Z M 9.173828 4.501953 C 9.006562 4.58614 8.944461 4.87823 9.173828 4.970703 L 11.048828 5.720703 C 11.355257 5.844245 11.54215 5.375251 11.236328 5.251953 L 9.361328 4.501953 C 9.284878 4.471129 9.229583 4.473891 9.173828 4.501953 Z" fill="#555"/>
      </g>
    </g>
  </g>
</svg>
