<?xml version="1.0" encoding="UTF-8" standalone="no"?>
<!DOCTYPE svg PUBLIC "-//W3C//DTD SVG 1.1//EN" "http://www.w3.org/Graphics/SVG/1.1/DTD/svg11.dtd">
<svg xmlns:dc="http://purl.org/dc/elements/1.1/" xmlns:xl="http://www.w3.org/1999/xlink" version="1.1" xmlns="http://www.w3.org/2000/svg" viewBox="0 0 14 14" width="14" height="14">
  <defs/>
  <g id="Canvas_1" fill-opacity="1" stroke-dasharray="none" stroke="none" stroke-opacity="1" fill="none">
    <title>Canvas 1</title>
    <g id="Canvas_1_Layer_1">
      <title>Layer 1</title>
      <g id="Graphic_2"/>
      <g id="Graphic_3">
        <path d="M 7 1 C 6.4022075 1 6 1.4692172 6 2 L 6 9 L 3.1132812 14 L 4.267578 14 L 6 11 L 6 14 L 8 14 L 8 11 L 9.732422 14 L 10.886719 14 L 8 9 L 8 2 C 8 1.5039063 7.5977925 1 7 1 Z" fill="#666"/>
        <path d="M 7 1 C 6.4022075 1 6 1.4692172 6 2 L 6 9 L 3.1132812 14 L 4.267578 14 L 6 11 L 6 14 L 8 14 L 8 11 L 9.732422 14 L 10.886719 14 L 8 9 L 8 2 C 8 1.5039063 7.5977925 1 7 1 Z" stroke="white" stroke-linecap="butt" stroke-linejoin="round" stroke-width="2"/>
      </g>
      <g id="Graphic_4">
        <path d="M 7 1 C 6.4022075 1 6 1.4692172 6 2 L 6 9 L 3.1132812 14 L 4.267578 14 L 6 11 L 6 14 L 8 14 L 8 11 L 9.732422 14 L 10.886719 14 L 8 9 L 8 2 C 8 1.5039063 7.5977925 1 7 1 Z" fill="#666"/>
      </g>
    </g>
  </g>
</svg>
