<svg height="16" width="13" xmlns="http://www.w3.org/2000/svg" xmlns:xlink="http://www.w3.org/1999/xlink"><defs><path id="a" d="m1.89 2h-1.47v4h1.47v10h4.13v-10h5.09v-4h-5.09v-1.91h-4.13z"/><path id="b" d="m3.97 1v15"/><path id="c" d="m1.55 5.12h7.5v.88h1.19v-2.88h-8.69z"/></defs><use fill="#fc0" xlink:href="#a"/><g fill-opacity="0"><use xlink:href="#a"/><use xlink:href="#b"/><use stroke="#8b4513" stroke-width="2" xlink:href="#b"/></g><use xlink:href="#c"/><use fill="none" xlink:href="#c"/><path d="m6.74 6h5.5v2.56c0 1.25-1.02 2.27-2.28 2.27h-.86c-1.31 0-2.36-1.06-2.36-2.36z" fill="#fc0"/><path d="m7.86 6h3.25v2.14c0 .78-.64 1.4-1.42 1.37-.36-.02-.25-.01-.67-.03-.65-.02-1.16-.55-1.16-1.2z" fill="#f38c0a"/></svg>