<?xml version="1.0" encoding="UTF-8" standalone="no"?>
<!DOCTYPE svg PUBLIC "-//W3C//DTD SVG 1.1//EN" "http://www.w3.org/Graphics/SVG/1.1/DTD/svg11.dtd">
<svg xmlns:dc="http://purl.org/dc/elements/1.1/" xmlns:xl="http://www.w3.org/1999/xlink" version="1.1" xmlns="http://www.w3.org/2000/svg" viewBox="0 0 14 14" width="14" height="14">
  <defs/>
  <g id="Canvas_1" fill-opacity="1" stroke-dasharray="none" stroke="none" stroke-opacity="1" fill="none">
    <title>Canvas 1</title>
    <g id="Canvas_1_Layer_1">
      <title>Layer 1</title>
      <g id="Graphic_2">
        <title>Bézier</title>
        <path d="M 4.050781 -17763568e-22 C 1.5789894 2.539636 1.5789894 6.657631 4.050781 9.197266 C 6.5225734 11.736904 10.528207 11.736904 13 9.197266 C 12.343388 8.520999 12.562756 8.748517 12.095703 8.267578 L 12.447266 1.892578 C 12.785435 1.7234698 12.99931 1.3780941 13 1 C 13 .44771525 12.552285 -17763568e-22 12 -17763568e-22 C 11.619189 3136136e-10 11.271608 .2168887 11.103516 .55859375 L 4.964844 .9394531 C 4.513421 .47588035 4.690768 .6575524 4.050781 -17763568e-22 Z M 10.777344 1.5722656 L 8.142578 4.207031 C 7.810955 3.8671766 6.6384106 2.6582437 5.8808594 1.8808594 Z M 11.429688 2.3339844 L 11.152344 7.296875 C 10.349853 6.470895 9.182083 5.2709305 8.841797 4.921875 Z M 3.283203 10.142578 L 1 14 L 10 14 L 10 12.228516 C 7.722856 12.609275 5.05754 11.916032 3.283203 10.142578 Z" fill="#555"/>
        <path d="M 4.050781 -17763568e-22 C 1.5789894 2.539636 1.5789894 6.657631 4.050781 9.197266 C 6.5225734 11.736904 10.528207 11.736904 13 9.197266 C 12.343388 8.520999 12.562756 8.748517 12.095703 8.267578 L 12.447266 1.892578 C 12.785435 1.7234698 12.99931 1.3780941 13 1 C 13 .44771525 12.552285 -17763568e-22 12 -17763568e-22 C 11.619189 3136136e-10 11.271608 .2168887 11.103516 .55859375 L 4.964844 .9394531 C 4.513421 .47588035 4.690768 .6575524 4.050781 -17763568e-22 Z M 10.777344 1.5722656 L 8.142578 4.207031 C 7.810955 3.8671766 6.6384106 2.6582437 5.8808594 1.8808594 Z M 11.429688 2.3339844 L 11.152344 7.296875 C 10.349853 6.470895 9.182083 5.2709305 8.841797 4.921875 Z M 3.283203 10.142578 L 1 14 L 10 14 L 10 12.228516 C 7.722856 12.609275 5.05754 11.916032 3.283203 10.142578 Z" stroke="white" stroke-linecap="butt" stroke-linejoin="round" stroke-width="2"/>
      </g>
      <g id="Graphic_3">
        <title>Bézier</title>
        <path d="M 4.050781 -17763568e-22 C 1.5789894 2.539636 1.5789894 6.657631 4.050781 9.197266 C 6.5225734 11.736904 10.528207 11.736904 13 9.197266 C 12.343388 8.520999 12.562756 8.748517 12.095703 8.267578 L 12.447266 1.892578 C 12.785435 1.7234698 12.99931 1.3780941 13 1 C 13 .44771525 12.552285 -17763568e-22 12 -17763568e-22 C 11.619189 3136136e-10 11.271608 .2168887 11.103516 .55859375 L 4.964844 .9394531 C 4.513421 .47588035 4.690768 .6575524 4.050781 -17763568e-22 Z M 10.777344 1.5722656 L 8.142578 4.207031 C 7.810955 3.8671766 6.6384106 2.6582437 5.8808594 1.8808594 Z M 11.429688 2.3339844 L 11.152344 7.296875 C 10.349853 6.470895 9.182083 5.2709305 8.841797 4.921875 Z M 3.283203 10.142578 L 1 14 L 10 14 L 10 12.228516 C 7.722856 12.609275 5.05754 11.916032 3.283203 10.142578 Z" fill="#555"/>
      </g>
    </g>
  </g>
</svg>
