<?xml version="1.0" encoding="UTF-8" standalone="no"?>
<!DOCTYPE svg PUBLIC "-//W3C//DTD SVG 1.1//EN" "http://www.w3.org/Graphics/SVG/1.1/DTD/svg11.dtd">
<svg xmlns:dc="http://purl.org/dc/elements/1.1/" xmlns:xl="http://www.w3.org/1999/xlink" version="1.1" xmlns="http://www.w3.org/2000/svg" viewBox="0 0 14 14" width="14" height="14">
  <defs/>
  <g id="Canvas_1" fill-opacity="1" stroke-dasharray="none" stroke="none" stroke-opacity="1" fill="none">
    <title>Canvas 1</title>
    <g id="Canvas_1_Layer_1">
      <title>Layer 1</title>
      <g id="Graphic_3">
        <path d="M 6.150869 -17763568e-22 L 6.150869 1 L 7 1 C 9.813773 1 12.094787 3.6862915 12.094787 7 L 12.094787 8 L 12.943918 8 L 12.943918 7 C 12.941171 5.49031 12.524058 4.0221203 11.754802 2.814453 L 12.943918 1.4140625 L 11.743194 14743762e-20 L 10.554078 1.4003906 C 9.52861 .4944574 8.281925 .003234014 7 14743762e-20 Z M 6.150869 2 C 4.7996475 2 3.5037686 2.632141 2.5483108 3.7573593 C 1.592853 4.8825776 1.0560823 6.408701 1.0560823 8 L 11.245655 8 C 11.245655 6.408701 10.708885 4.8825776 9.753427 3.7573593 C 8.797969 2.632141 7.50209 2 6.150869 2 Z M 1.0560823 9 L 1.0560823 14 L 11.245655 14 L 11.245655 9 Z" fill="#555"/>
        <path d="M 6.150869 -17763568e-22 L 6.150869 1 L 7 1 C 9.813773 1 12.094787 3.6862915 12.094787 7 L 12.094787 8 L 12.943918 8 L 12.943918 7 C 12.941171 5.49031 12.524058 4.0221203 11.754802 2.814453 L 12.943918 1.4140625 L 11.743194 14743762e-20 L 10.554078 1.4003906 C 9.52861 .4944574 8.281925 .003234014 7 14743762e-20 Z M 6.150869 2 C 4.7996475 2 3.5037686 2.632141 2.5483108 3.7573593 C 1.592853 4.8825776 1.0560823 6.408701 1.0560823 8 L 11.245655 8 C 11.245655 6.408701 10.708885 4.8825776 9.753427 3.7573593 C 8.797969 2.632141 7.50209 2 6.150869 2 Z M 1.0560823 9 L 1.0560823 14 L 11.245655 14 L 11.245655 9 Z" stroke="white" stroke-linecap="butt" stroke-linejoin="round" stroke-width="2"/>
      </g>
      <g id="Graphic_4">
        <path d="M 6.150869 -17763568e-22 L 6.150869 1 L 7 1 C 9.813773 1 12.094787 3.6862915 12.094787 7 L 12.094787 8 L 12.943918 8 L 12.943918 7 C 12.941171 5.49031 12.524058 4.0221203 11.754802 2.814453 L 12.943918 1.4140625 L 11.743194 14743762e-20 L 10.554078 1.4003906 C 9.52861 .4944574 8.281925 .003234014 7 14743762e-20 Z M 6.150869 2 C 4.7996475 2 3.5037686 2.632141 2.5483108 3.7573593 C 1.592853 4.8825776 1.0560823 6.408701 1.0560823 8 L 11.245655 8 C 11.245655 6.408701 10.708885 4.8825776 9.753427 3.7573593 C 8.797969 2.632141 7.50209 2 6.150869 2 Z M 1.0560823 9 L 1.0560823 14 L 11.245655 14 L 11.245655 9 Z" fill="#555"/>
      </g>
    </g>
  </g>
</svg>
