<?xml version="1.0" encoding="UTF-8" standalone="no"?>
<!DOCTYPE svg PUBLIC "-//W3C//DTD SVG 1.1//EN" "http://www.w3.org/Graphics/SVG/1.1/DTD/svg11.dtd">
<svg xmlns:dc="http://purl.org/dc/elements/1.1/" xmlns:xl="http://www.w3.org/1999/xlink" version="1.1" xmlns="http://www.w3.org/2000/svg" viewBox="0 0 16 16" width="16" height="16">
  <defs/>
  <g id="Canvas_1" fill-opacity="1" stroke-dasharray="none" stroke="none" stroke-opacity="1" fill="none">
    <title>Canvas 1</title>
    <g id="Canvas_1_Layer_1">
      <title>Layer 1</title>
      <g id="Graphic_4">
        <path d="M 3 1 L 3 4.5 C 3 5.946917 3.790551 6.980272 4.90625 7.625 L 4 15 L 5.5 15 L 5.6875 13.53125 L 8 12 L 10.3125 13.5625 L 10.5 15 L 12 15 L 11.09375 7.65625 C 12.21821 7.013275 13 5.962811 13 4.5 L 13 1 L 11.5 1 L 11.5 2.5 L 11 2.5 C 9.872881 3 9 3 8 2.5 C 7 2 6.0381356 2 5 2.5 L 4.5 2.5 L 4.5 1 Z M 6.34375 8.1875 C 7.412974 8.454661 8.586435 8.481066 9.65625 8.21875 L 9.84375 9.78125 L 8 11 L 6.15625 9.78125 Z M 6.03125 10.6875 L 7.25 11.5 L 5.8125 12.46875 Z M 9.96875 10.6875 L 10.1875 12.46875 L 8.75 11.5 Z" fill="#555"/>
        <path d="M 3 1 L 3 4.5 C 3 5.946917 3.790551 6.980272 4.90625 7.625 L 4 15 L 5.5 15 L 5.6875 13.53125 L 8 12 L 10.3125 13.5625 L 10.5 15 L 12 15 L 11.09375 7.65625 C 12.21821 7.013275 13 5.962811 13 4.5 L 13 1 L 11.5 1 L 11.5 2.5 L 11 2.5 C 9.872881 3 9 3 8 2.5 C 7 2 6.0381356 2 5 2.5 L 4.5 2.5 L 4.5 1 Z M 6.34375 8.1875 C 7.412974 8.454661 8.586435 8.481066 9.65625 8.21875 L 9.84375 9.78125 L 8 11 L 6.15625 9.78125 Z M 6.03125 10.6875 L 7.25 11.5 L 5.8125 12.46875 Z M 9.96875 10.6875 L 10.1875 12.46875 L 8.75 11.5 Z" stroke="white" stroke-linecap="butt" stroke-linejoin="round" stroke-width="2"/>
      </g>
      <g id="Graphic_3">
        <path d="M 3 1 L 3 4.5 C 3 5.946917 3.790551 6.980272 4.90625 7.625 L 4 15 L 5.5 15 L 5.6875 13.53125 L 8 12 L 10.3125 13.5625 L 10.5 15 L 12 15 L 11.09375 7.65625 C 12.21821 7.013275 13 5.962811 13 4.5 L 13 1 L 11.5 1 L 11.5 2.5 L 11 2.5 C 9.872881 3 9 3 8 2.5 C 7 2 6.0381356 2 5 2.5 L 4.5 2.5 L 4.5 1 Z M 6.34375 8.1875 C 7.412974 8.454661 8.586435 8.481066 9.65625 8.21875 L 9.84375 9.78125 L 8 11 L 6.15625 9.78125 Z M 6.03125 10.6875 L 7.25 11.5 L 5.8125 12.46875 Z M 9.96875 10.6875 L 10.1875 12.46875 L 8.75 11.5 Z" fill="#555"/>
      </g>
    </g>
  </g>
</svg>
