<svg xmlns="http://www.w3.org/2000/svg" viewBox="0 0 126.88 148.66" xmlns:xlink="http://www.w3.org/1999/xlink"><defs><linearGradient id="a"><stop stop-color="#1d1100" stop-opacity=".667"/><stop offset=".527" stop-color="#4f340c" stop-opacity=".302"/><stop offset="1" stop-color="#3d3001" stop-opacity="0"/></linearGradient><radialGradient fx="86.44" fy="60.64" cx="104.16" cy="56.43" id="b" xlink:href="#a" r="20.573" gradientUnits="userSpaceOnUse" gradientTransform="matrix(.92416 0 0 1.08206-21.02-2.736)"/><linearGradient id="c" y1="137.88" y2="-13.32" x1="106.92" x2="291.1" gradientUnits="userSpaceOnUse" gradientTransform="matrix(.48867 0 0 .63998-16.212-12.169)"><stop stop-color="#ede1b9"/><stop offset=".5" stop-color="#7a7152"/><stop offset="1" stop-color="#927f39"/></linearGradient><linearGradient id="d" xlink:href="#c" y1="44.53" y2="288.54" x1="167.39" x2="423.51" gradientUnits="userSpaceOnUse" gradientTransform="matrix(.48919 0 0 .6393-16.212-12.169)"/><linearGradient id="e" xlink:href="#c" y1="222.95" y2="139.85" x1="52.2" x2="80.84" gradientUnits="userSpaceOnUse" gradientTransform="matrix(.65517 0 0 .47734-16.212-12.169)"/><linearGradient id="f" y1="210.41" y2="233.77" x1="66.33" x2="45.22" gradientUnits="userSpaceOnUse" gradientTransform="matrix(.50195 0 0 .62305-16.212-12.169)"><stop stop-color="#fff" stop-opacity="0"/><stop offset=".496" stop-color="#fff" stop-opacity=".021"/><stop offset="1" stop-color="#fff" stop-opacity=".531"/></linearGradient><linearGradient id="g" xlink:href="#f" y1="74.24" y2="192.07" x1="182.66" x2="226.58" gradientUnits="userSpaceOnUse" gradientTransform="matrix(.52411 0 0 .5967-16.212-12.169)"/><linearGradient id="h" xlink:href="#c" y1="52.917" y2="167.97" x1="281.13" x2="139" gradientUnits="userSpaceOnUse" gradientTransform="matrix(.48919 0 0 .6393-16.212-12.169)"/><linearGradient id="i" y1="378.07" y2="257.42" x1="90.82" x2="66.36" gradientUnits="userSpaceOnUse" gradientTransform="matrix(.68265 0 0 .45812-16.212-12.169)"><stop stop-color="#6f6234"/><stop offset=".5" stop-color="#7f7655"/><stop offset="1" stop-color="#2d2711"/></linearGradient><linearGradient id="j" xlink:href="#i" y1="838.67" y2="894.28" x1="23.706" x2="24.912" gradientUnits="userSpaceOnUse" gradientTransform="matrix(2.4069 0 0 .12993-16.212-12.169)"/><linearGradient id="k" xlink:href="#i" x1="187.52" x2="197.01" gradientUnits="userSpaceOnUse" gradientTransform="matrix(.25437 0 0 1.22947-16.212-12.169)"/><linearGradient id="l" xlink:href="#a" y1="273.28" y2="253.13" x1="39.02" x2="82.8" gradientUnits="userSpaceOnUse" gradientTransform="matrix(.58794 0 0 .53192-16.212-12.169)"/><linearGradient id="m" xlink:href="#i" y1="116.1" y2="104.71" x1="24.21" x2="23.555" gradientUnits="userSpaceOnUse" gradientTransform="matrix(1.34015 0 0 .74618-21.02-2.736)"/><linearGradient id="n" xlink:href="#f" y1="233.66" y2="233.95" x1="37.52" x2="65.41" gradientUnits="userSpaceOnUse" gradientTransform="matrix(1.6424 0 0 .60886-21.02-2.736)"/><radialGradient fx="143.61" fy="122.05" cx="198.31" cy="109.06" xlink:href="#a" id="o" r="63.51" gradientUnits="userSpaceOnUse" gradientTransform="matrix(.51683 0 0 .6051-16.212-12.169)"/></defs><g fill-rule="evenodd"><g fill-opacity=".083" transform="matrix(.55923 0 0 .55923-200.65-198.89)"><path d="m492.32 361.86c-31.52.35-52.24 31.14-53.67 60.24-6.77 15.8 11.32 38.09-4.25 48.44-9.51 8.32-22.81 17.12-19.88 31.63 2.61 9.41-2.11 16.63-12.28 14.03-8.56-.64-17.89 2-25.88-1.14 5.58-10.43-7.18-8.34-4.64 1.28 4.9 8.34 16.43 4.02 24.57 5.8 5.81.59 23.91-.98 14.96 6.16-7.21 1.23-17.27-2.66-22.46 2.34 5.27 4.98 15.38 1.13 22.66 2.35 6.13 4.84-11.75 2.35-16.9 3.03-5.76.44-17.85-.6-19.82.72-3.57-1.7 5.17 6.68 5.68 12.66-.44 10.6-.89 21.2-1.34 31.8-5.65 4.14-15.25 5.58-14.03 14.41 3.42 6.09 4.85 15.19 9.48 19.43 42.42-.25 84.85-.49 127.27-.74.74-9.9-10.83-12.02-16.83-17.65-3.54-5.55-.77-14.48-1.86-21.35.27-10.76-2.47-22.12 3.83-31.71-.47-4.75-13.32-3.58-18.62-6.06-12.91-3.78-26.47-1.23-39.7-1.79-.53-6.13 13.18-1.14 18.42-2.75 5.31.97 24.22-.15 12.25-4.69h-32.55c1.67-11.1-9.33 10.3-8.91-5.44 13.27-4.91 1.75-21.35 8.32-30.26 8.63-.79 17.56.67 26.31.76 15.43 30.01 47.24 60.24 83.66 52.28 34.97-8.66 46.81-49.74 42.86-81.66-4.11-39.97-27.37-80.47-64.45-98.03-7.01-2.88-14.61-4.4-22.2-4.09m-74.4 171.13c13.83-2.23-.21 8.43 0 0"/><path d="m486.44 360.66c-24.63 3.39-42.75 25.74-47.51 49.16-1.23 9.89-5.17 19.84-2.32 29.83 1.03 9.36 5.99 20.93-1.92 28.57-8.74 7.81-20.33 15.15-21.89 27.81-1.47 5.91 3.82 13.45-2.41 17.71-4.49 2.97-10.11-.15-15.14.88-5.57.33-11.21.63-16.66-.78 2.64-3.57-1.77-9.87-5.65-6.23-6.52 4.29-1.82 15.21 5.56 14.93 10.63 2 21.84.02 32.34 2.47.35 2.89-6.73 1.71-9.31 1.49-5.5-.35-11.46.01-15.59 4.16 1.39 2.61 11.39 4.4 4.33 3.79-6.18.07-12.37.19-18.55.24 2.03 6.97 8.87 12.63 6.84 20.41-.36 8.37-.71 16.74-1.06 25.12-6.1 3.41-15.63 7.26-14.03 15.94 3.78 6.67 4.62 15.77 11.06 20.5 42.98-.24 85.96-.49 128.94-.72 1.49-9.98-8.84-14.77-15.74-19.26-5.39-5.55-1.83-13.99-2.96-20.87.03-10.76-2.05-22.59 4.01-32.22-3.57-7.48-13.47-4.64-19.83-7.68-2.51-.82-8.07-1.38-8.79-1.66 2.94-.85 7.28-2.86 3.06-5.59-6.2-4.15-14.11-.96-21.04-1.97-4.26-.59-11.07 1.19-13.71-.91-1.22-4.89-6.18.34-8.53.72-1.26-4.31 5.59-5.47 5.56-9.92 2.14-7.29-1.86-15.39 1.69-22.39 8.09-.05 16.17.2 24.25.75 13.08 23.82 33.6 45.96 60.93 52.37 19.92 4.32 42.43-3.29 53.8-20.62 16.98-23.31 17.8-54.61 10.91-81.7-7.99-31.72-27.57-61.5-56.47-77.66-10.45-5.94-22.27-7.92-34.17-6.67m-65 173.65c-1.79.78-1.59-.72 0 0"/><path d="m486.47 358.16c-23.66 3.74-42.22 23.57-48.41 46.12-4.01 14.58-6.26 30.14-2.19 44.97 1.56 7.05.79 15.58-5.98 19.63-9.2 8.35-20.99 18.05-19.4 31.94 1.04 4.23 1.4 11.82-4.99 11.2-7.38.32-14.93.14-22.23.06-2.52-1.67-1.78-7.01-6.03-7.29-7.54-2.41-12.23 8.69-8.03 14.26 3.51 7.44 13.24 6 19.35 6.83-5.08.57-2.71 7.07-6.09 6.18-4.22.94-11.34-2.38-13.03 3.25 3.55 7.71 8.74 15.69 6.59 24.54-.26 6.27-.52 12.54-.78 18.81-7.15 3.45-16.69 10.01-13.6 19.21 3.82 7.22 5.25 16.97 12.97 21.16 43.77-.24 87.53-.49 131.29-.72 2.35-10.35-6.86-18.02-14.85-22.56-6.56-5.61-2.57-15.02-3.75-22.41-.15-10.09-1-20.98 4.38-30-4.09-5.23-2.7-3.69 1.97-.84 13.48 7.16 29.46 10.72 44.42 6.3 16.22-4.13 29.8-16.23 36.21-31.65 12.91-25.43 10.91-55.83 2.31-82.3-10.03-30.26-30.81-58.3-60.11-72.05-9.34-4.25-19.87-5.19-30.02-4.64m-36.25 139.15c8.62 15.36 20.05 29.27 34.4 39.6-5.64-2.34-12.44-1.82-17.84-4.35.33-3.91-1.78-7.49-6.05-7.39-9.55-2.87-19.83.77-29.4-1.53-4.36-2.37-6.13-1.99-3.33-6.76 1.58-6.65-.76-13.61 1.06-20.22 7.05.22 14.11.43 21.16.65"/><path d="m486.25 355.75c-25.79 4.56-46.2 26.8-51.36 52.07-4.1 15.19-4.18 31.3-.87 46.64.57 11.21-11.54 16.03-17.14 24.03-6.94 7.23-10.51 17.45-8.22 27.35-1.19 6.26-8.63 2.93-12.99 3.77-4.17-1-11.13 2.56-12.55-2.92-3.15-5.76-11.48-6.01-15.17-.7-6.11 7.47-.87 20.22 8.86 21.04 5.19-.04 7.97 2.75 1.07 2.75-4.76-1.55-12.67 1.96-10.06 7.79 5.13 8.56 6.98 18.66 5.52 28.55-.49 5.14 1.11 11.93-5.15 14.03-6.62 3.63-11.31 11.4-8.61 18.99 3.86 8 6.29 19.34 15.86 22.33 44.22-.24 88.43-.49 132.65-.72 3.2-11.49-5.92-21.63-15.31-26.78-5.54-7.68-1.91-17.68-3.07-26.41-.15-7.59.53-15.39 3.85-22.31 13.94 6.75 30.09 10.23 45.25 5.67 17.03-4.26 30.95-17.29 37.83-33.29 13.89-29 10.46-63.56-1.34-92.65-11.86-28.21-32.86-54.43-61.96-65.79-8.69-3.22-17.89-3.84-27.09-3.44m-52.81 143.25c5.25 1.46 11.67-1.03 16.22 2.03 7.08 11.58 15.45 22.47 25.84 31.28-4.68.29-6.73-3.07-8.58-6.56-7.9-6.2-18.93-3.46-28.25-3.85-3.22-.59-11.16-.24-8.35-5.36 1.5-5.62-.89-12.67 1.87-17.51.41.01.83-.03 1.25-.03"/></g><rect width="2.415" x="31.487" y="89.49" fill="url(#k)" rx=".075" ry="5.837" height="11.673" stroke-width="1.25"/><path fill="url(#e)" stroke-linejoin="round" stroke-width="2.25" d="m8.836 82.51l-.854 3.417c-.41 1.639 1.444 3.898 3.131 3.982l21.916 1.141c2.078.106 4.611-2.192 4.554-4.273l-.285-10.245c-.032-1.158.836-2.902 1.993-2.846l17.08.856-6.549-18.785-13.378 11.666c-2.43 2.125-4.654 5.318-4.554 8.539l.285 9.11c.027.872-.833 1.98-1.708 1.991l-17.647.285c-.895.017-2.56-.57-2.277-1.42l1.138-3.417z"/><path fill="url(#d)" stroke="url(#h)" stroke-width=".699" d="m66.901 2.534c23.337-8.349 43.832 15.37 52.37 35.863 8.539 21.06 7.399 52.56-13.662 63.19-22.2 10.625-46.679-10.245-55.789-34.723-9.11-23.91-5.693-56.55 17.08-64.33z"/><path fill="url(#c)" stroke-width="1.127" d="m68.51 8.802c21.05-7.529 39.526 13.86 47.23 32.34 7.701 18.992 6.677 47.4-12.32 56.98-20.02 9.58-42.09-9.238-50.3-31.31-8.215-21.564-5.134-50.994 15.396-58.01"/><g stroke-width="1.25"><path fill="url(#o)" d="m61.57 20.852c-9.322 6.886-12.37 27.98-3.965 50.802 8.366 22.498 39.711 22.733 48.14 15.625 8.472-6.778 21.13-24.41 3.193-52.37-17.862-27.303-37.77-20.979-47.37-14.06"/><path fill="url(#g)" d="m102.42 80.66c13.31-17.331-4.826-55.707 6.577-38.935 10.603 16.772 8.897 43.906-2.371 52.899-13.69 12.208-33.677-6.577-42.669-16.1-8.992-9.529 25.15 18.902 38.464 2.136"/><path fill="url(#j)" d="m9.147 98.35l5.635 2.819 57.763.201-15.698-3.422-47.699.403z"/><path fill="url(#i)" d="m14.38 100.56l21.937.403 1.811-9.865 2.415 9.663 32.402.604-2.819 6.638.403 23.549 9.663 6.644.604 3.825-71.85.403-4.631-10.871.604-3.825 7.245-4.222.805-19.12-4.226-6.04z"/><path fill="url(#f)" d="m17.399 130.14l-6.843 8.254-4.831-9.865 6.843-4.625z"/><rect width="42.06" x="17.6" y="93.92" rx="1.308" height="2.616"/><path fill="url(#l)" d="m41.853 107.85l-21.633.57v21.631l-6.262 10.245 35.863-.57z"/><path fill="url(#m)" d="m16.386 78.26c0 1.519-2.846 4.955-5.726 4.955-2.88 0-4.708-3.436-4.708-4.955 0-1.519 1.828-.55 4.708-.55 2.88 0 5.726-.969 5.726.55"/><path fill="url(#b)" d="m60.924 39.23c-5.4 3.989-7.165 16.207-2.297 29.428 4.845 13.03 23 13.17 27.89 9.05 4.9-3.928 12.24-14.14 1.85-30.338-10.348-15.815-21.881-12.152-27.443-8.142"/><path fill="url(#n)" d="m78.5 140.79l-24.52-.59-1.295-8.98 13.914.67z"/></g></g></svg>