<svg xmlns="http://www.w3.org/2000/svg" viewBox="0 0 695.07 695.07" xmlns:xlink="http://www.w3.org/1999/xlink"><defs><filter color-interpolation-filters="sRGB" id="a"><feGaussianBlur stdDeviation="2.90275"/></filter><path fill="#2b1100" fill-opacity=".996" id="b" d="m1888.9 1020.4v-281.27h-281.27l4.946 4.946h271.38v271.38l4.946 4.946z"/><path fill="#d38d5f" fill-opacity=".996" id="c" d="m1607.7 739.11v281.27h281.27l-4.946-4.946h-271.38v-271.38l-4.946-4.946z"/></defs><g transform="matrix(2.2848 0 0 2.2848-452.42 13.01)"><g fill-opacity=".996"><path filter="url(#a)" d="m204.98 1.272h290.28v290.28h-290.28z"/><path fill="#a05a2c" d="m200.98-2.728h290.28v290.28h-290.28z"/><path fill="#784421" d="m206.09 2.383h280.05v280.05h-280.05z"/><path fill="#c87137" d="m218.36 14.648h255.52v255.52h-255.52z"/><path fill="#784421" d="m228.58 24.869h235.08v235.08h-235.08z"/><path fill="#fff" d="m243.91 40.2h204.42v204.42h-204.42z"/><path fill="#2b1100" d="m486.64 282.98v-281.27h-281.27l4.946 4.946h271.38v271.38l4.946 4.946z"/><path fill="#d38d5f" d="m205.37 1.712v281.27h281.27l-4.946-4.946h-271.38v-271.38l-4.946-4.946z"/></g><g transform="matrix(.90578 0 0 .90578-1237.3-654.51)"><use xlink:href="#b"/><use xlink:href="#c"/></g><g transform="matrix(.83468 0 0 .83468-1113-591.95)"><use xlink:href="#b"/><use xlink:href="#c"/></g><g transform="matrix(.72802 0 0 .72802-926.53-498.12)"><use xlink:href="#b"/><use xlink:href="#c"/></g></g></svg>