<svg xmlns="http://www.w3.org/2000/svg" viewBox="0 0 410.15 357.29" xmlns:xlink="http://www.w3.org/1999/xlink"><defs><radialGradient cx="271.73" cy="230.88" id="a" r="37.35" gradientUnits="userSpaceOnUse" gradientTransform="matrix(.87532-.1954-.97381-1.52288 418.87 833.06)"><stop stop-color="#fff"/><stop offset="1" stop-color="#fff"/></radialGradient><linearGradient id="b" y1="112.37" y2="103.45" x1="287" gradientUnits="userSpaceOnUse" x2="309.18" gradientTransform="matrix(1.01571 0 0-.87391-2.518 521.1)"><stop stop-color="#fffffe"/><stop offset="1" stop-color="#fffffe"/></linearGradient><radialGradient cx="-613.88" cy="-73.27" id="c" r="67.03" xlink:href="#a" gradientUnits="userSpaceOnUse" gradientTransform="matrix(.22238.05344.34617-1.58023 359.91 542.84)"/></defs><g transform="translate(-166.36-355.03)"><path fill="#ff1e17" d="m240.28 710.11c-.358-.314-13.216-.871-28.573-1.239-25.503-.609-28.429-.886-33.763-3.193-7.394-3.195-10.681-8.503-11.5-18.568-.656-8.05 2.243-27.719 6.218-42.18 3.328-12.1 9.22-38.722 14.869-67.18 2.568-12.931 5.506-26.788 6.53-30.789 1.024-4 3.916-17.226 6.424-29.386 2.51-12.158 5.207-23.14 5.993-24.406.786-1.263 3-2.814 4.929-3.446 4.053-1.329 8.261-.892 34.37 3.576 10.537 1.802 20.07 3.278 21.18 3.278 2.655 0 3.61-2.386 7.62-19.04 13.08-54.3 20.827-80.64 26.888-91.37 8.097-14.333 19.986-23.662 36.11-28.336 6.168-1.788 11.29-2.325 22.17-2.325 15.91 0 24.86 1.99 34.379 7.642 5.69 3.379 9.175 5.229 16.867 11.04 3.858 2.912 9.492 8.388 14.456 12.911 7.826 7.127 16.777 22.444 25.01 42.787 18.804 46.47 26.398 63.17 29.477 64.839 1.376.746 5.826.286 14.221-1.473 18.05-3.78 35.928-6.514 37.419-5.72 2.449 1.301 3.943 6.637 9.167 32.767 2.872 14.357 12.06 54.57 20.41 89.36 13.186 54.902 15.212 64.763 15.34 74.65.16 12.572-1.319 15.753-9.1 19.573-5.774 2.834-72.24 4.455-197.64 4.818-58.683.169-111.67.684-117.76 1.144-6.089.459-11.339.565-11.699.25zm204.61-209.99c3.45-1.196 3.578-1.535 3.578-9.506 0-11.339-4.624-37.528-8.486-48.07-4.233-11.55-12.182-27.55-21.669-43.615-5.765-9.762-9.279-14.284-13.726-17.651-7.52-5.697-19.582-10.82-29.429-12.501-20.837-3.557-48.47 8.409-59.09 25.584-8.731 14.13-22.08 53.47-25.18 74.17-.788 5.267-2.251 13.405-3.253 18.09-2.365 11.04-2.298 13.06.455 13.706 1.252.293 20.08.573 41.84.622 21.76.05 39.911.405 40.34.789 1.35 1.216 70.773-.282 74.62-1.618z"/><path opacity=".173" stroke="#000" stroke-width=".942" d="m277.35 497.79l7.665 1.056c0 0 6.131-49.859 17.782-78.35 7.145-17.476 14.1-31.921 26.06-39.571 11.957-7.65 22.687-11.08 25.14-11.608 2.453-.528-5.825-5.54-11.651-3.957-5.824 1.583-26.979 13.718-29.13 18.203-2.147 4.485-20.541 65.953-22.688 72.812-2.14 6.864-13.179 41.947-13.179 41.41z"/><path opacity=".541" fill="#b90000" d="m221.52 712.32c-15.463-4.928-36.602 4.667-48.14-8.448-7.971-14.983 21.795-23.731 16.933-40.14-.93-26.957 4.591-53.921 9.541-80.52 5.658-27.23 12.578-54.38 13.892-82.11 23.07-2.293 37.596 18.55 50.32 31.605 9.15 18.613-10.03 35.95-4.392 54.734 2.228 17.714-15.513 40.724 7.249 52.864 13.378 8.561 30.763 12.951 46.848 7.684 15.613-4.277 31.381-9.117 48.05-8.217 21.71 1.729 41.814-5.334 56.35-19.07 13.228-10.328 36.23-11.129 42.09-27.643 3.077-8.473-.149-14.755 11.134-17.67 8.44-14.01 11.691-29.566 15.06-44.985 5.207-16.03 24.11-29.374 43.2-30.59 11.771 10.255 5.916 30.01 12.231 43.911 9.665 45.06 21.939 89.67 31.23 134.79-9.42 12.11-5.409 21.583 2.452 14.404-.751 17.612-23.668 17.582-38.901 17.17-104.99 1.966-210.1.815-315.12 2.216zm-13.319-7.02c29.14-1.858 58.37 3.416 87.45-.139 48.797-.421 97.74 2.01 146.41-1.65 8.25 2.331 29.31-4.216 9.824-5.175-37.38.155-74.896-5.464-112.07.01-20.793.768-41.46-1.909-62.34-1.37-22.934-2.186-45.668.475-67.851 5.549-8.05-.634-33.625 7.05-11.92 4.084 3.51-.358 7.02-.782 10.499-1.314zm302.15-3.432c-4.48-7.124-34.98-4.927-26.11-.812 8.679.489 17.408 1.879 26.11.815z"/><path opacity=".232" fill="#fff" d="m284.4 505.97c7.986 2.565 16.848 2.548 25.23 3.674 22.828-.774 45.695-.467 68.54-.604 10.596.043 58.6 1.612 72.67 1.348 7.995-1.289 21.754-4.975 21.592 6.119.092 6.874-6.094 12.248-7.802 18.828-4.11 6.772-9.602 14.06-18.413 16.628-4.947 5.2-5.154 12.801-11.542 17.242-6.579 4.972-8.05 12.51-9.08 19.583-3.14 10.939-16.485 15.909-23.859 24.443-6.233 6.985-81.87 22.649-93.2 18.559-5.83-3.718 8.138-20.236.049-20.711-34.23 5.364-13.664-9.321-20.91-13.554-8.772-6.905 11.814-25.932 7.13-34.46-4.415-9.889-7.122-20.298-12.746-29.799-2.275-6.086-7.926-12.462-5.67-19.02 1.88-3.215 5.409-5.431 7.989-8.244z"/><path opacity=".86" fill-opacity=".409" d="m524.85 491.96c-18.07 1.807-35.752 9.839-54.08 6.02-16.485.381-31.09 9.05-47.816 7.965-39.784 1.579-79.64-.795-119.4-.984-24.786-3.082-49.676-4.337-74.05-9.669-6.707-.935-18.63-4.277-21.45 3.527-5.602 30.06-13.09 59.892-19.01 89.93-5.932 29.802-14.191 59.33-18.598 89.31-1.396 9.08-.326 22.07 12.199 24.632 13.03 3.165 26.903.143 40.13 2.216 48.21 1.356 96.41-1.542 144.64-.766 64.902-.416 130.04.546 194.73-4.073 10.898-3.59 7.804-15.706 6.713-23.38-8.08-48.41-22.985-95.77-32.17-144.04-2.975-13.682-5.881-27.379-9.43-40.963l-2.411.281zm-5.05 12.632c9.07 44.584 20.11 88.85 30.583 133.2 3.671 16.615 7.416 33.3 9.345 50.02.295 5.474-8.773 2.436-12.6 3.794-89.55 5.6-179.4 1.56-269.06 4.267-26.947.85-53.886-.682-80.79-.924-6.266.329-16.244.06-16.508-7.173-1.398-12.658 3.595-25.15 5.427-37.683 10.23-48.29 21.414-96.56 30.966-144.88-1.297-6.181 6.9-.694 10.237-1.099 36.09 6.12 72.63 10.188 109.47 10.134 31.739.84 63.65 1.412 95.32.203 15.282-1.375 29.412-9.612 45.05-6.787 14.309.604 28.05-3.349 41.842-6.02.23.967.47 1.944.71 2.922z"/><path opacity=".86" fill="#fff" d="m525.22 494.18c-16.1 1.793-31.847 7.846-48.18 7.137-11.589-4.612-35.851 7.146-44.768 6.368-41.936 2.762-84.08-.652-126.09-.175-9.09-.973-33.08-3.981-41.31-4.269-14.28-1.382-28.35-4.733-42.492-6.788-4.708-.554-11.985-1.408-11.914 4.234-3.213 18.852-8.571 37.723-12.12 56.68-7.779 38.05-16.647 75.969-24.601 113.96-.599 8.784-3.595 19.873 3.985 26.906 11.618 6.646 26.79 1.903 39.848 4.233 42.874 2.01 85.79-1.18 128.7-.454 71.06-.43 142.48.47 213.27-3.745 9.777-.938 8.171-11.952 7.197-17.947-6.129-41.732-19.2-82.52-27.568-123.96-4.58-20.724-8.749-41.632-13.939-62.17zm-4.11 4.822c1.674 6.912 3.271 13.844 4.797 20.782 9.691 51.11 24.811 101.33 34.28 152.47-.2 6.675 5 14.618.202 20.642-62.58 5.092-126.09 3.733-189.07 4.269-54.44-.932-109 2.949-163.33 0-8.881-.696-19.968 1.987-27.324-3.288-6.46-9.664-.509-21.465.325-31.839 10.844-50.737 22.15-101.42 32.773-152.19 1.763-2.965-.989-11.142 5.409-9.622 26.615 5.461 53.999 8.118 81.16 10.846 40.12.9 80.35 2.657 120.52 1.4 17.01 1.478 32.11-6.455 48.51-7.942 17.03 3.169 34.09-2.259 50.54-5.318l1.21-.206z"/><path opacity=".838" fill="url(#c)" d="m206.54 474.35c.043 7.703 2.904 24.1 2.93 37.474.029 14.699.032 27.824-2.417 43.35-2.169 13.752-5.868 18.53-7.798 30.768-1.813 11.498-6.482 22.432-8.503 35.24-1.819 11.534-8.223 25.1-11.363 34.686-3.84 11.723-.649 24.15 1.13 30.2 5.271 17.935 16.374-5.938 23.89-20.709 5.338-10.491 6.387-21.475 6.369-31.05-.02-10.218 8.842-44.923 8.821-55.94-.027-14.07-4.105-67.978-5.505-77.19-1.91-12.588 1.67-14.576-7.549-26.86z"/><path fill="url(#b)" d="m339.97 360.06c0 0-23.402 12.342-29.441 18.838-6.04 6.496-18.873 42.22-20.76 47.42-1.888 5.196-8.305 42.872-11.324 50.34-3.02 7.469-6.417 14.29-7.549 19.486-.63 2.891 7.171 0 7.171 0 0 0 9.813-37.35 10.946-45.15 1.132-7.795 12.834-41.25 16.23-50.991 3.398-9.744 10.569-25.01 18.496-28.26 7.909-3.237 16.588-11.361 16.218-11.687z"/><path fill="url(#a)" d="m380.29 367.61c0 0 16.909 8.208 22.98 12.311 6.07 4.103 19.747 25.12 24.715 34.32 5.637 10.447 20.378 50.37 20.81 63.797.435 13.431 4.446 19.867 5.637 17.16 1.193-2.704-.867-20.519-3.035-27.608-2.168-7.089-21.437-59.09-29.483-70.51-17.348-24.623-42.06-30.597-41.626-29.478z"/><path opacity=".243" stroke="#000" stroke-width=".942" d="m358.18 355.68c0 0 25.581 2.985 28.616 4.103 3.035 1.12 37.72 27.23 40.757 30.966 3.034 3.731 35.987 75.36 40.757 89.17 4.769 13.804-3.035 17.908-3.035 17.908l-8.672-.373c0 0-5.636-38.06-7.806-44.4-2.167-6.342-22.979-60.07-30.783-66.781-7.806-6.716-36.855-23.878-45.09-24.996-8.239-1.13-13.879-5.235-14.739-5.604z"/></g></svg>