<svg xmlns="http://www.w3.org/2000/svg" viewBox="0 0 16 16"><g transform="translate(0-1036.36)"><g fill-rule="evenodd"><path fill="#ccc" d="m1.295 1046.05c.476-2.617 3.982-3.265 6.705-3.292 2.723-.026 4 0 7.49 3.239l-6.873 2.406z"/><path fill="#7f2aff" d="m8.242 2.732l-.586 2.676-1.184.07-1.43-2.346.365 2.662-1.041.527-1.59-2.416.629 3.02-.764.539-1.8-2.332.7 3.194c0 0-1.049.635-1.049 1.494 0 .859.852 1.225.852 1.225l-.812 3.094 1.842-2.52.932.488-.707 2.988 1.682-2.551 1.127.396-.365 2.662 1.469-2.41 1.123.029.607 2.781.514-2.922 1.072-.242 1.365 2.732-.316-3.045 1.01-.334 1.525 2.947-.404-3.352 1.01-.379 1.596 2.885-.607-3.273c0 0 .996-.339.996-1.217 0-.842-1.104-1.5-1.104-1.5l.759-3.462-1.749 2.684-.9-.568.537-3.183-1.584 2.63-1.059-.422.293-2.816-1.27 2.541-1.197-.215zm-.955 4.66c2.258-.189 6.02 2.145 6.02 2.145 0 0-3.939 1.789-6.03 1.713-1.506-.055-4.248-1.551-4.248-1.551 0 0 1.998-2.118 4.256-2.307" transform="translate(0 1036.36)"/></g><path fill="none" stroke="#784421" stroke-linecap="round" stroke-width="2" d="m1.014 1040.36c2.145 0 4.39-3 6.534-3 3.726 0 5.307 1 7.452 1"/><circle fill="#fff" cx="7.519" cy="1045.69" r="1.934"/><circle cx="7.519" cy="1045.69" r=".967"/></g></svg>