<svg width="383.64" xmlns="http://www.w3.org/2000/svg" viewBox="0 0 383.63842 391.01157" height="391.01" xmlns:xlink="http://www.w3.org/1999/xlink"><defs><path fill-rule="evenodd" stroke="#000" id="a" stroke-width=".036" d="m46.854.018c-1.476-.144-4.104.108-7.74.9-3.78.72-8.424 1.908-14.328 3.564-1.224 1.332-1.764 3.672-1.476 7.164.252 3.42 1.188 7.848 2.952 13.428.936 10.368 1.188 19.332.612 27.432-.612 8.03-1.728 14.796-4.176 20.592-2.628 5.688-7.704 9.432-11.05 13.716-3.384 4.14-7.2 7.416-8.928 11.34-1.764 3.924-2.268 7.776-1.512 11.952l2.7 4.464v8.64l-2.7 2.088c-1.01 2.448-1.404 15.05-1.188 38.23.18 23.293.972 56.2 2.376 100.23l1.8 3.6v6.553l-1.8 1.188v17.82c-.612 4.248-.108 7.633 1.512 10.729 1.584 2.916 4.176 5.398 8.06 7.164 3.816 1.619 9.108 2.195 14.904 2.988 5.76.756 12.1 1.402 19.404 1.799h8.496c7.2-.396 13.607-1.043 19.368-1.799 5.688-.793 10.979-1.369 14.903-2.988 3.816-1.766 6.372-4.248 8.06-7.164 1.548-3.096 2.052-6.48 1.512-10.729v-17.82l-1.8-1.188v-6.553l1.8-3.6c1.368-44.03 2.16-76.932 2.376-100.22.18-23.18-.216-35.783-1.188-38.23l-2.7-2.088v-8.64l2.7-4.464c.72-4.176.216-8.03-1.513-11.952-1.8-3.924-5.651-7.2-8.928-11.34-3.42-4.284-8.532-8.03-11.05-13.716-2.557-5.796-3.672-12.564-4.176-20.592-.612-8.1-.36-17.06.611-27.432 1.729-5.58 2.664-10.01 2.952-13.428.252-3.492-.288-5.832-1.476-7.164-5.94-1.656-10.584-2.844-14.328-3.564-3.672-.792-6.3-1.044-7.74-.9z" stroke-miterlimit="10"/><path fill="#61a228" fill-rule="evenodd" stroke="#000" id="b" stroke-width=".036" d="m48.11 8.01c-1.872-.072-4.716.324-8.676 1.332-4.03.972-8.82 2.412-14.904 4.464-.288-1.152-.432-2.376-.288-3.672.072-1.332.288-2.736.792-4.212 7.092-1.728 12.24-2.952 15.984-3.672 3.528-.756 3.6-.684 5.76-.756 2.124-.144 4.86-.144 7.092 0 2.052.072 2.16 0 5.76.756 3.564.72 8.929 1.944 15.948 3.672.468 1.476.685 2.88.792 4.212.072 1.296.036 2.52-.252 3.672-6.3-2.052-11.05-3.492-14.939-4.464-3.889-1.01-6.372-1.404-7.849-1.332z" stroke-miterlimit="10"/><path fill="#61a228" fill-rule="evenodd" stroke="#000" id="c" stroke-width=".036" d="m48.11 19.566c-2.376.18-5.22.612-8.676 1.296-3.492.576-7.452 1.584-12.02 2.628-.18-.792-.396-1.62-.792-2.628-.396-1.044-.972-2.124-1.584-3.384 7.092-1.728 12.24-2.952 15.984-3.672 3.528-.72 3.6-.756 5.76-.792 2.124-.144 4.86-.144 7.092 0 2.052.036 2.16.072 5.76.792 3.564.72 8.929 1.944 15.948 3.672-.468 1.44-1.116 2.736-1.548 3.888-.612 1.116-1.01 2.088-1.584 2.916-4.356-1.476-8.06-2.664-11.268-3.42-3.168-.828-5.832-1.26-7.849-1.296z" stroke-miterlimit="10"/><path fill="#cbc6d0" fill-rule="evenodd" stroke="#000" id="d" stroke-width=".036" d="m48.87 33.17c-4.356.072-8.06-.108-11.52-.54-3.456-.504-6.372-1.152-8.892-2.088-.72-1.512-1.08-2.592-.792-3.384.144-.828.936-1.224 2.088-1.332 1.944.936 4.572 1.584 7.884 2.088 3.24.432 7.164.612 11.772.54h2.088c4.536.072 8.46-.108 11.772-.54 3.239-.504 5.868-1.152 7.884-2.088 1.116.108 1.908.504 2.088 1.332.252.792-.108 1.872-.792 3.384-2.556.936-5.472 1.584-8.892 2.088-3.492.432-7.2.612-11.521.54z" stroke-miterlimit="10"/><path fill="#f1c810" fill-rule="evenodd" stroke="#000" id="e" stroke-width=".036" d="m46.28 308.86c-9-.863-15.948-1.512-21.24-2.34-5.364-.863-7.236-1.188-10.188-2.375-3.06-1.369-5.508-3.348-7.344-4.969-1.872-1.619-2.88-3.061-3.42-4.463l.54-18.07 2.088-1.045v-7.596l-2.088-4.428c-.684-21.637-1.08-43.31-1.332-65.988-.324-22.752-.36-45.43-.252-69.16l3.132-2.628.54-10.729-3.132-5.508c-.468-2.16-.252-4.644.792-7.596 1.01-2.916 1.908-5.724 5.22-9.936 3.24-4.428 11.02-10.908 14.15-15.984 3.02-5.184 2.988-10.26 3.924-14.652.864-4.464 1.116-8.172 1.044-11.556 1.332.54 4.68.9 10.224 1.08l12.06.432c5.544.18 5.148-.288 10.729-.432 5.508-.18 8.892-.54 10.224-1.08-.108 3.384.144 7.092 1.044 11.556.864 4.392.828 9.468 3.924 14.652 3.02 5.076 10.8 11.556 14.15 15.984 3.239 4.212 4.104 7.02 5.22 9.936 1.01 2.952 1.224 5.436.792 7.596l-3.132 5.508.504 10.728 3.168 2.628c0 23.724 0 46.4-.288 69.16-.288 22.68-.72 44.35-1.296 65.988l-2.088 4.428v7.596l2.088 1.045.54 18.07c-.576 1.402-1.584 2.844-3.42 4.463-1.944 1.621-4.393 3.6-7.344 4.969-2.988 1.188-5 1.512-10.225 2.375-5.364.828-12.204 1.477-21.2 2.34z" stroke-miterlimit="10"/><path fill-rule="evenodd" stroke="#000" id="f" stroke-width=".036" d="m44.694 129.26c-6.156-.036-12.13-.432-18.07-1.044-5.976-.648-11.772-1.656-17.532-2.88v-10.224c6.588.972 12.996 1.8 19.368 2.34 6.372.504 12.42.72 18.576.792h7.344c6.084-.072 12.24-.288 18.612-.792 6.336-.54 12.744-1.368 19.368-2.34v10.224c-5.796 1.224-11.592 2.232-17.532 2.88-5.976.612-11.952 1.01-18.07 1.044z" stroke-miterlimit="10"/><path fill-rule="evenodd" stroke="#000" id="g" stroke-width=".036" d="m44.694 281.07c-6.156-.037-12.13-.432-18.07-1.045-5.976-.646-11.772-1.656-17.532-2.879v-10.189c6.588.973 12.996 1.801 19.368 2.342 6.372.504 12.42.719 18.576.791h7.344c6.084-.072 12.24-.287 18.612-.791 6.336-.541 12.744-1.369 19.368-2.342v10.189c-5.796 1.223-11.592 2.232-17.532 2.879-5.976.613-11.952 1.01-18.07 1.045z" stroke-miterlimit="10"/><path fill-rule="evenodd" stroke="#000" id="h" stroke-width=".036" d="m34.758 161.62c-7.524 3.781-12.456 8.748-15.336 15.336-2.808 6.518-3.096 16.67-1.548 23.652 1.584 6.949 5.904 13.572 10.44 17.785 4.392 4.104 9.468 6.299 15.624 6.732-7.668-10.801-10.224-17.713-7.668-21.17 2.52-3.527 21.708 4.178 22.716.613.72-3.6-18.216-17.06-17.496-21.781.864-4.752 18.324-3.383 22.1-6.443 3.601-3.168 3.349-7.199-.611-12.24-2.521-2.268-6.01-3.6-10.765-3.996-4.752-.431-10.476.073-17.46 1.512z" stroke-miterlimit="10"/><path fill-rule="evenodd" stroke="#000" id="i" stroke-width=".036" d="m69.1 165.01c2.664 1.512 4.968 3.924 7.06 7.381 2.052 3.383 4.392 7.307 5.22 13.176.685 5.795 1.404 15.227-.611 21.492-2.089 6.227-6.12 12.455-11.664 15.623-5.725 3.02-12.96 3.996-22.1 2.771-5.724-8.06-6.768-13.176-2.736-15.336 3.96-2.23 25.02 5.832 26.388 2.125 1.08-3.996-18.504-20.701-19.04-24.84-.468-4.068 13.248 4.283 16.271.611 2.915-3.743 3.275-11.411 1.224-23z" stroke-miterlimit="10"/><path fill="#408120" fill-rule="evenodd" stroke="#000" id="j" stroke-width=".036" d="m36.594 164.1c-7.524 3.385-12.492 8.244-15.05 14.725-2.592 6.443-1.764 17.424-.288 23.904 1.368 6.299 5.904 10.908 8.892 14.11 2.88 3.096 5.976 4.68 8.892 4.607-7.884-9.539-10.548-15.982-7.992-19.332 2.556-3.383 21.888 2.521 23-.898.827-3.602-17.856-15.625-17.17-19.945.648-4.248 16.452-3.779 21.17-5.543 4.572-1.908 6.769-3.852 6.444-5.832-1.296-4.248-4.212-6.66-8.892-7.668-4.751-.972-10.907-.396-19.01 1.871z" stroke-miterlimit="10"/><path fill="#408120" fill-rule="evenodd" stroke="#000" id="k" stroke-width=".036" d="m71.874 171.77c3.24 3.205 5.725 6.732 7.06 11.02 1.296 4.213 1.655 9.109 1.224 14.11-.504 4.896-1.368 10.836-3.708 15.05-2.412 4.178-5.832 7.777-10.404 9.828-4.607 1.945-10.332 2.557-17.17 1.836-5.76-5.902-6.588-9.646-2.484-11.375 4.176-1.836 24.84 4.68 27 1.225 1.872-3.492-14.903-17.93-15.336-21.781-.396-3.924 10.152 1.729 12.601-1.512 2.338-3.455 2.699-9.359 1.222-18.397z" stroke-miterlimit="10"/></defs><g transform="matrix(1.23874 0 0 1.23874.071.048)"><use xlink:href="#a"/><use xlink:href="#b"/><use xlink:href="#c"/><use xlink:href="#d"/><use xlink:href="#e"/><use xlink:href="#f"/><use xlink:href="#g"/><use xlink:href="#h"/><use xlink:href="#i"/><use xlink:href="#j"/><use xlink:href="#k"/></g><g transform="matrix(1.23874 0 0 1.23874 129.26.048)"><use xlink:href="#a"/><use xlink:href="#b"/><use xlink:href="#c"/><use xlink:href="#d"/><use xlink:href="#e"/><use xlink:href="#f"/><use xlink:href="#g"/><use xlink:href="#h"/><use xlink:href="#i"/><use xlink:href="#j"/><use xlink:href="#k"/></g><g transform="matrix(1.23874 0 0 1.23874 258.45.048)"><use xlink:href="#a"/><use xlink:href="#b"/><use xlink:href="#c"/><use xlink:href="#d"/><use xlink:href="#e"/><use xlink:href="#f"/><use xlink:href="#g"/><use xlink:href="#h"/><use xlink:href="#i"/><use xlink:href="#j"/><use xlink:href="#k"/></g></svg>