<svg xmlns="http://www.w3.org/2000/svg" viewBox="0 0 16 10.584"><path fill="#fff" stroke="#fff" stroke-width="1.168" stroke-dashoffset=".6" d="m.584.584h14.832v9.416h-14.832z"/><g fill="none" stroke="#000" stroke-width=".598" transform="scale(-1 1)"><circle cx="-12.295" cy="6.88" r="2.405"/><circle cx="-3.704" cy="6.835" r="2.405"/></g><path fill-rule="evenodd" d="m9.09 1c1.981.019 1.645-.205 2.71 3.22.868 2.736.774 2.438.778 2.63.003.149-.117.267-.268.277-.315-.032-.182.034-1.273-3.353-3.985 4.204-2.49 3.522-4.634 3.607-2.818-.027-3.048.147-3.081-.266.004-.14.07-.224 2-4.529l-.185-.51-.637-.012.023-.533h2.374c.21.287-.085.286-1.147.521l.185.521 4.737.012c-.319-1.115-.139-1.045-1.575-1.042zm1.724 2.158l-4.636-.008 1.34 3.6zm-5.194.214l1.315 3.452-2.877.008z"/></svg>