<svg xmlns="http://www.w3.org/2000/svg" viewBox="0 0 110 115" xmlns:xlink="http://www.w3.org/1999/xlink"><defs><linearGradient id="a" y1="84.86" y2="57.38" x1="105.88" gradientUnits="userSpaceOnUse" x2="110.66" gradientTransform="translate(-23.25-22.479)"><stop stop-color="#fffe7f"/><stop offset="1" stop-color="#ffffbf"/></linearGradient><linearGradient id="b" y1="86.89" y2="139.47" x1="48.713" gradientUnits="userSpaceOnUse" x2="129.18" gradientTransform="translate(-22.12-21.799)"><stop stop-color="#5e411f"/><stop offset="1" stop-color="#be843f"/></linearGradient><linearGradient id="c" y1="105.83" y2="107.82" x1="133.04" gradientUnits="userSpaceOnUse" x2="139.63" gradientTransform="translate(-22.12-21.799)"><stop stop-color="#bfbfbf"/><stop offset="1" stop-color="#f0f0f0"/></linearGradient><linearGradient id="d" xlink:href="#c" y1="136.25" y2="147.33" x1="107.39" gradientUnits="userSpaceOnUse" x2="106.26" gradientTransform="translate(-22.12-21.799)"/><linearGradient id="e" xlink:href="#b" y1="82.1" y2="154.3" x1="81.78" gradientUnits="userSpaceOnUse" x2="134.56" gradientTransform="translate(-22.12-21.799)"/><linearGradient id="f" xlink:href="#b" y1="97.32" y2="98.22" x1="59.666" gradientUnits="userSpaceOnUse" x2="62.828" gradientTransform="translate(-22.12-21.799)"/></defs><g fill-rule="evenodd" stroke="#000" transform="translate(-22.269-20.463)"><path fill="url(#f)" d="m55.76 23.935c-2.053-.205-2.916 3.207-4.162 6.355l-25.938 83.93 5.341 3.14z"/><path fill="url(#e)" d="m29.901 109.39c-4.816-.41-6.508 12.96-2.998 13.72l85.25 8.89 17.35-88.17-14.43-1.967-13.25 68.909z"/><path fill="url(#d)" d="m104.31 114.26l-72.68-6.17c-3.682.01-6.16 12.41-3.277 12.99l81.35 7.73"/><path fill="url(#c)" d="m126.03 45.556l-16.88 83c-4.03-1.55-6.76-10.51-4.2-14.17l16.6-83.31c-1.24 3.888 1.31 13.362 4.48 14.476z"/><path fill="url(#b)" d="m107.32 117.17l-77.62-7.78 26.01-85.4 69.01 4.916z"/><path fill="url(#a)" d="m64.32 33.14l43.664 3.255-5.69 28.898-44.558-4.117z"/></g></svg>