<svg xmlns="http://www.w3.org/2000/svg" viewBox="0 0 16 16"><defs><linearGradient id="a" y1="1049.36" x1="3" y2="1034.36" x2="17" gradientUnits="userSpaceOnUse"><stop stop-color="#f94eaa"/><stop offset="1" stop-color="#fcb2da"/></linearGradient></defs><g transform="translate(0-1036.36)"><rect color-interpolation-filters="linearRGB" x=".594" y="1036.96" color="#000" image-rendering="auto" color-rendering="auto" fill-rule="evenodd" stroke-width="1.188" rx="2.406" width="14.812" stroke-linecap="round" color-interpolation="sRGB" text-rendering="auto" fill="url(#a)" height="14.812" stroke="#d31b7b" shape-rendering="auto"/><path d="m12.372 1040.83c-.264-.122-.567-.212-.911-.268-.344-.061-.725-.092-1.144-.092-.739 0-1.521.12-2.344.36-.824.24-1.561.563-2.21.967-.532.334-.963.713-1.292 1.137-.325.419-.487.793-.487 1.123 0 .278.089.501.268.671.184.169.431.254.741.254.49 0 1.026-.202 1.61-.607.588-.409 1.031-.897 1.328-1.462.118-.231.202-.473.254-.727.052-.259.101-.388.148-.388.061 0 .104.038.127.113.024.071.035.226.035.466 0 .857-.292 1.584-.876 2.182-.584.598-1.28.897-2.09.897-.532 0-.965-.134-1.299-.402-.33-.273-.494-.621-.494-1.045 0-.391.162-.8.487-1.229.33-.428.789-.824 1.377-1.186.678-.419 1.441-.744 2.288-.975.847-.235 1.69-.353 2.528-.353.424 0 .817.038 1.179.113.367.075.727.191 1.08.346.259-.066.473-.118.643-.155.169-.037.278-.056.325-.056.052 0 .089.01.113.021.028.014.042.035.042.063 0 .071-.118.13-.353.177-.165.028-.301.056-.41.085.391.169.692.395.904.678.217.278.325.581.325.911 0 .518-.242.982-.727 1.391-.485.409-1.172.727-2.062.953.518.151.904.379 1.158.685.259.301.388.685.388 1.151 0 .678-.334 1.313-1 1.907-.668.589-1.386.883-2.154.883-.386 0-.685-.08-.897-.24-.212-.16-.318-.388-.318-.685 0-.348.174-.699.523-1.052.348-.358.614-.537.798-.537.033 0 .061.01.085.028.028.019.042.042.042.071 0 .037-.085.113-.254.226-.603.405-.904.558-.904.986 0 .188.073.309.155.452.104.113.255.22.425.22.217 0 .407-.111.664-.268.247-.152.456-.311.683-.588.273-.405.493-.802.63-1.169.137-.367.205-.716.205-1.045 0-.245-.052-.452-.155-.621-.104-.174-.228-.261-.374-.261-.042 0-.125.012-.247.035-.122.019-.228.028-.318.028-.094 0-.172-.021-.233-.063-.056-.043-.085-.094-.085-.155 0-.057.024-.101.071-.134.047-.037.111-.056.191-.056.019 0 .104.014.254.042.151.023.292.035.424.035.367 0 .756-.297 1.165-.89.41-.598.614-1.219.614-1.864 0-.198-.035-.377-.106-.537-.066-.165-.162-.304-.29-.417-.857.301-1.622 1.309-2.295 3.02-.198.513-.358.904-.48 1.172-.631 1.426-1.382 2.474-2.253 3.142-.866.664-1.914.996-3.142.996-.697 0-1.257-.148-1.681-.445-.419-.301-.628-.699-.628-1.193 0-.358.12-.661.36-.911.24-.249.534-.374.883-.374.249 0 .454.068.614.205.16.132.24.301.24.508 0 .188-.054.348-.162.48-.104.132-.226.203-.367.212h-.035c-.588.047-.883.2-.883.459 0 .226.151.421.452.586.301.16.671.24 1.109.24.4 0 .76-.085 1.08-.254.325-.174.64-.449.946-.826.311-.391.708-1.024 1.193-1.899.485-.876.829-1.478 1.031-1.808.574-.918 1.193-1.678 1.857-2.281.664-.607 1.304-.993 1.921-1.158" transform="matrix(1.02862 0 0 1.10003-.282-104.98)"/></g></svg>