<svg xmlns="http://www.w3.org/2000/svg" viewBox="0 0 632.18 495.07" xmlns:xlink="http://www.w3.org/1999/xlink"><defs><linearGradient id="a"><stop stop-color="#848484"/><stop offset="1" stop-color="#fcfcfc"/></linearGradient><linearGradient id="b"><stop stop-color="#fff"/><stop offset="1" stop-color="#fff" stop-opacity="0"/></linearGradient><linearGradient id="c"><stop stop-opacity="0"/><stop offset=".5" stop-opacity="0"/><stop offset="1"/></linearGradient><linearGradient id="d"><stop stop-color="#b8b8b8"/><stop offset="1" stop-color="#f1f1f1"/></linearGradient><linearGradient id="e"><stop/><stop offset="1" stop-opacity="0"/></linearGradient><linearGradient id="f" y1="400.72" x1="549.95" y2="377.81" gradientUnits="userSpaceOnUse" x2="527.01" gradientTransform="matrix(.50658 0 0 .56416 320.89 129.34)"><stop stop-color="#305cb7"/><stop offset="1" stop-color="#f2f2f2"/></linearGradient><linearGradient id="g" y1="400.72" x1="549.95" y2="377.81" gradientUnits="userSpaceOnUse" x2="527.01" gradientTransform="matrix(.50658 0 0 .56416 336.5 101.84)"><stop stop-color="#9fa4af"/><stop offset="1" stop-color="#f2f2f2"/></linearGradient><linearGradient id="h" y1="400.72" x1="549.95" y2="377.81" gradientUnits="userSpaceOnUse" x2="527.01" gradientTransform="matrix(.50658 0 0 .56416 387.46 77.03)"><stop stop-color="#30b74b"/><stop offset="1" stop-color="#f2f2f2"/></linearGradient><linearGradient id="i" y1="400.72" x1="549.95" y2="377.81" gradientUnits="userSpaceOnUse" x2="527.01" gradientTransform="matrix(.50658 0 0 .56416 345.76 77.03)"><stop stop-color="#d22235"/><stop offset="1" stop-color="#f1f1f1"/></linearGradient><radialGradient cx="212.33" cy="392.48" id="j" r="12.388" xlink:href="#e" gradientUnits="userSpaceOnUse" gradientTransform="matrix(1.15124 0 0 1.18511-309.52-146.96)"/><radialGradient cx="212.33" cy="392.48" id="k" r="12.388" xlink:href="#e" gradientUnits="userSpaceOnUse" gradientTransform="matrix(1.15124 0 0 1.18511-426.47-147.81)"/><linearGradient id="l" y1="531.84" x1="218.49" y2="576.43" gradientUnits="userSpaceOnUse" x2="263.56" gradientTransform="matrix(4.05802 0 0 1.22179-425.49-181.49)"><stop stop-color="#c3c3c3"/><stop offset="1" stop-color="#f2f2f2"/></linearGradient><radialGradient cx="262" cy="424" id="m" r="246" xlink:href="#e" gradientUnits="userSpaceOnUse" gradientTransform="matrix(1 0 0 .25203-585.68 262.44)"/><radialGradient cx="262" cy="424" id="n" r="246" xlink:href="#e" gradientUnits="userSpaceOnUse" gradientTransform="matrix(1 0 0 .25203-748.78 255.83)"/><radialGradient cx="262" cy="424" id="o" r="246" xlink:href="#e" gradientUnits="userSpaceOnUse" gradientTransform="matrix(1 0 0 .25203-462.14 251.44)"/><radialGradient fy="771.21" cx="291.24" cy="771.2" spreadMethod="reflect" id="p" r="315.71" xlink:href="#d" gradientUnits="userSpaceOnUse" gradientTransform="matrix(.39013.01219-.00969.72646-796.54-43.696)"/><radialGradient cx="391.97" cy="884.12" spreadMethod="reflect" id="q" r="315.71" xlink:href="#c" gradientUnits="userSpaceOnUse" gradientTransform="matrix(-.0015.93885-.91436.04426 131.53 89.49)"/><radialGradient fy="403.91" cx="389.17" cy="543.09" spreadMethod="reflect" id="r" r="315.71" xlink:href="#d" gradientUnits="userSpaceOnUse" gradientTransform="matrix(.74276 0 0 .36714-1001.23 197.2)"/><linearGradient spreadMethod="reflect" id="s" xlink:href="#b" y1="472.74" y2="619.78" gradientUnits="userSpaceOnUse" x2="0" gradientTransform="translate(-1102.51-240.25)"/><radialGradient fy="506.3" cx="384.3" cy="557.6" id="t" r="102.42" gradientUnits="userSpaceOnUse" gradientTransform="matrix(.25576 0 0 .40958-181.82 110.58)"><stop stop-color="#6c6c6c"/><stop offset="1" stop-color="#6c6c6c" stop-opacity="0"/></radialGradient><radialGradient cx="262" cy="424" id="u" r="246" xlink:href="#e" gradientUnits="userSpaceOnUse" gradientTransform="matrix(1 0 0 .25203-1283.67 91.06)"/><linearGradient spreadMethod="reflect" id="v" xlink:href="#d" x1="281.88" gradientUnits="userSpaceOnUse" x2="398.86" gradientTransform="matrix(.2409 0 0 .31488-176.11 163.38)"/><linearGradient spreadMethod="reflect" id="w" x1="261.88" gradientUnits="userSpaceOnUse" x2="350.15" gradientTransform="matrix(.2409 0 0 .31488-176.11 163.38)"><stop stop-color="#c6c6c6"/><stop offset=".135" stop-color="#696969"/><stop offset=".647" stop-color="#f9f9f9"/><stop offset="1" stop-color="#bcbcbc"/></linearGradient><radialGradient fy="399.28" cx="265.17" cy="405.73" id="x" r="37.27" xlink:href="#c" gradientUnits="userSpaceOnUse" gradientTransform="matrix(.81941 0 0 3.67494-300.82-1153.4)"/><radialGradient fy="391.53" cx="264.2" cy="410.06" id="y" r="37.27" xlink:href="#c" gradientUnits="userSpaceOnUse" gradientTransform="matrix(1.49666 0 0 1.74043-478.96-363.24)"/><linearGradient spreadMethod="reflect" id="z" xlink:href="#b" y1="499.09" x1="294.35" y2="457.44" gradientUnits="userSpaceOnUse" x2="350.59" gradientTransform="translate(-1409.44-153.91)"/><linearGradient spreadMethod="reflect" id="A" xlink:href="#d" x1="76.31" gradientUnits="userSpaceOnUse" x2="274.81" gradientTransform="matrix(.87321 0 0 .92311-45.579 108.08)"/><radialGradient cx="138.17" cy="775.61" id="B" r="237.49" gradientUnits="userSpaceOnUse" gradientTransform="matrix(1.9287-.26362.06957.50897-61.62 71.29)"><stop stop-color="#8bb7df"/><stop offset=".625" stop-color="#195d9c"/><stop offset="1" stop-color="#375e82"/></radialGradient><radialGradient cx="264.7" cy="213.94" spreadMethod="reflect" id="C" r="166.14" xlink:href="#d" gradientUnits="userSpaceOnUse" gradientTransform="matrix(.4695 0 0 .35678 70.11 192.33)"/><radialGradient cx="415.1" cy="333.87" spreadMethod="reflect" id="D" r="5.95" xlink:href="#a" gradientUnits="userSpaceOnUse" gradientTransform="matrix(0-.66003.61881 0-89.98 581.11)"/><linearGradient id="E" xlink:href="#a" y1="347.95" x1="396.04" y2="354.88" gradientUnits="userSpaceOnUse" x2="400.11" gradientTransform="translate(-277.63-38.12)"/><linearGradient id="F" xlink:href="#b" y1="347" y2="352.56" gradientUnits="userSpaceOnUse" x2="0" gradientTransform="translate(-304.44-41.8)"/><radialGradient cx="415.1" cy="333.87" spreadMethod="reflect" id="G" r="5.95" xlink:href="#a" gradientUnits="userSpaceOnUse" gradientTransform="matrix(0-.66003.61881 0-277.17 555.41)"/><linearGradient id="H" xlink:href="#a" y1="347.95" x1="396.04" y2="354.88" gradientUnits="userSpaceOnUse" x2="400.11" gradientTransform="translate(-464.82-63.821)"/><linearGradient id="I" xlink:href="#b" y1="347" y2="352.56" gradientUnits="userSpaceOnUse" x2="0" gradientTransform="translate(-509.69-69.983)"/><linearGradient id="J" xlink:href="#h" x1="395" gradientUnits="userSpaceOnUse" x2="404" gradientTransform="translate(-509.69-69.983)"/><radialGradient cx="219.31" cy="77.963" id="K" r="164.14" xlink:href="#b" gradientUnits="userSpaceOnUse" gradientTransform="matrix(2.66553 0 0 1.3098-812.5-103.8)"/><linearGradient id="L" y1="600.23" x1="153.74" y2="680.08" gradientUnits="userSpaceOnUse" x2="154.72" gradientTransform="matrix(2.03671 0 0 .49099 0-.001)"><stop stop-color="#ddd"/><stop offset="1" stop-color="#fff"/></linearGradient><linearGradient id="M" xlink:href="#L" y1="600.23" x1="153.74" y2="680.08" gradientUnits="userSpaceOnUse" x2="154.72" gradientTransform="scale(2.03671.49099)"/><linearGradient id="N" xlink:href="#l" y1="113.22" x1="499.56" y2="226.3" gradientUnits="userSpaceOnUse" x2="607.31" gradientTransform="matrix(1.04178 0 0 1.78837-126.47 41.14)"/><path fill-rule="evenodd" stroke="#9c9c9c" id="O" stroke-width="3.664" d="M549.06935 389.3613A10.491771 10.491771 0 1 1 528.0858 389.3613 10.491771 10.491771 0 1 1 549.06935 389.3613z"/><path opacity=".913" id="P" d="M228.48746 385.16458A12.12382 11.657523 0 1 1 204.23981 385.16458 12.12382 11.657523 0 1 1 228.48746 385.16458z"/><path fill-rule="evenodd" id="Q" d="M508 424A246 62 0 1 1 16 424 246 62 0 1 1 508 424"/><path fill-rule="evenodd" id="R" d="M700 543.79077A315.71429 151.42857 0 1 1 68.57141 543.79077 315.71429 151.42857 0 1 1 700 543.79077"/><path fill-rule="evenodd" id="S" d="m241.28 302.11l-9.636 59.48c-.189.846-.316 1.705-.316 2.588 0 9.358 11.05 16.954 24.67 16.954 13.62 0 24.678-7.596 24.678-16.954 0-.619-.056-1.228-.151-1.83l-9.636-60.24z"/><path fill-rule="evenodd" stroke-linejoin="round" id="T" d="M404 351.5A4.5 4.5 0 1 1 395 351.5 4.5 4.5 0 1 1 404 351.5z"/><path opacity=".827" fill-rule="evenodd" id="U" d="M404 351.5A4.5 4.5 0 1 1 395 351.5 4.5 4.5 0 1 1 404 351.5"/></defs><g transform="translate(-194.35-114.62)"><g fill-rule="evenodd"><g stroke="#c1c1c1"><rect width="226.4" x="197.26" y="269.69" fill="url(#N)" rx="4.252" height="228.47" stroke-width="5.822"/><rect width="212.27" x="206.11" y="289.93" fill="url(#M)" rx="4.252" height="40.43" stroke-width="7.81"/></g><g fill="#ababab"><rect width="183.47" x="218.53" y="478.05" rx=".709" height="5.441"/><rect width="183.47" x="218.53" y="487.81" rx=".709" height="5.441"/></g><g stroke="#c1c1c1"><rect width="212.27" x="204.77" y="344.74" fill="url(#M)" rx="4.252" height="40.43" stroke-width="7.81"/><g fill="url(#L)" stroke-width="1.086"><rect width="21.13" x="198.85" y="460.59" rx="4.252" height="7.85" ry="3.925"/><rect width="21.13" x="199.52" y="473.65" rx="4.252" height="7.85" ry="3.925"/></g></g></g><use fill="#0f0" xlink:href="#O" transform="matrix(.30676 0 0 .26995 76.38 379.85)"/><use fill="#ffe100" xlink:href="#O" transform="matrix(.30676 0 0 .26995 88.44 380.1)"/><use fill="url(#f)" xlink:href="#O" transform="matrix(1.44632 0 0 1.27104-407.68-71.55)"/><use fill="url(#g)" xlink:href="#O" transform="matrix(1.12652 0 0 .99132-235.36 74.02)"/><use fill="url(#h)" xlink:href="#O" transform="matrix(.78864 0 0 .69266-86.38 183.23)"/><use fill="url(#i)" xlink:href="#O" transform="matrix(.78864 0 0 .69266-19.735 183.23)"/><path opacity=".801" fill="#d67ac9" d="M228.48746 385.16458A12.12382 11.657523 0 1 1 204.23981 385.16458 12.12382 11.657523 0 1 1 228.48746 385.16458" transform="matrix(1.09075 0 0 1.02044 135.16 31.15)"/><use fill="#17f076" stroke="url(#j)" xlink:href="#P" transform="matrix(.57165 0 0 .5348 214.75 246.62)"/><use fill="#17e8f0" stroke="url(#k)" xlink:href="#P" transform="matrix(.57165 0 0 .5348 281.6 247.07)"/><g fill="#53507d" fill-rule="evenodd" stroke="#c1c1c1" stroke-width="1.086"><rect width="21.13" x="383.69" y="316.18" rx="4.252" height="7.85" ry="3.925"/><rect width="21.13" x="384.92" y="372.79" rx="4.252" height="7.85" ry="3.925"/></g><g transform="translate(61.62-71.29)"><use opacity=".3" fill="url(#m)" xlink:href="#Q" transform="matrix(.60265 0 0 .88607 389.45 131.86)"/><use opacity=".4" fill="url(#n)" xlink:href="#Q" transform="matrix(.47138 0 0 .79045 423.84 185.44)"/><use opacity=".3" fill="url(#o)" xlink:href="#Q" transform="matrix(.76375 0 0 .73762 347.24 198.35)"/><g transform="translate(291.34 119.76)"><use fill="url(#p)" xlink:href="#R" transform="matrix(.32833 0 .00438.23034 127.44 268.82)"/><use opacity=".495" fill="url(#q)" xlink:href="#R" transform="matrix(.32833 0 .00438.23034 127.44 268.82)"/><use fill="url(#r)" xlink:href="#R" transform="matrix(.32014 0 0 .20172 132.98 280.93)"/><path fill="url(#s)" fill-rule="evenodd" d="m147.38 456.5c-7.02 4.02-13.702 8.169-19.719 12.5-31.548 22.713-48.12 48.42-48.12 74.78 0 35.613 31.09 70.72 86.28 97.19 55.19 26.471 132.75 43.28 218.47 43.28 85.71 0 163.28-16.81 218.47-43.28 55.19-26.471 86.28-61.57 86.28-97.19 0-26.351-16.568-52.04-48.09-74.75-6.03-4.345-12.74-8.495-19.781-12.531 9.867 13.01 15.688 27.497 15.688 43 0 18.543-8.329 35.885-21.906 50.625-13.577 14.74-32.457 27.325-55.28 37.813-45.648 20.974-107.33 33.531-175.37 33.531-68.04 0-129.73-12.557-175.37-33.531-22.824-10.487-41.704-23.07-55.28-37.813-13.577-14.74-21.906-32.08-21.906-50.625 0-15.498 5.794-29.99 15.656-43" transform="matrix(.32014 0 0 .20172 132.98 280.93)"/><g transform="matrix(1.03952 0 0 1-10.117 4)"><path opacity=".832" fill="url(#t)" fill-rule="evenodd" d="m241.28 426.93l-9.636-59.48c-.189-.846-.316-1.705-.316-2.588 0-9.358 11.05-16.954 24.67-16.954 13.62 0 24.678 7.596 24.678 16.954 0 .619-.056 1.228-.151 1.83l-9.636 60.24z"/><use opacity=".2" fill="url(#u)" xlink:href="#Q" transform="matrix(.26451 0 0 .21436 186.7 279.18)"/><use fill="url(#v)" xlink:href="#S"/><use opacity=".327" fill="url(#w)" xlink:href="#S"/><use opacity=".5" fill="url(#x)" xlink:href="#S"/><use opacity=".3" fill="url(#y)" xlink:href="#S"/><path fill="url(#z)" fill-rule="evenodd" d="m299.44 434.47l-9.03 42.625c-.045.179-.098.356-.156.531-.658 2.247-1 4.276-1 6.156 0 11.07 8.895 22.504 26.06 31.531 17.17 9.03 41.749 14.938 68.969 14.938 2.626 0 5.177-.143 7.75-.25-44.43-15.75-79.13-51.2-92.59-95.53" transform="matrix(.2409 0 0 .31488 163.43 211.84)"/></g></g><g fill-rule="evenodd"><rect width="346.66" x="374.01" y="185.91" fill="url(#A)" rx="5.645" height="277.41" ry="5.967"/><rect width="311.79" x="391.45" y="199.11" fill="url(#B)" rx="5.077" height="236.02" stroke="url(#C)" stroke-linejoin="round" stroke-width="3.799"/><path opacity=".777" fill="#fff" d="m379.66 187.8c-2.05 0-3.74 1.723-3.74 4.066v2.285c2.216-2.148 5.195-3.502 8.518-3.502h325.8c3.323 0 6.302 1.354 8.518 3.502v-2.285c0-2.344-1.69-4.066-3.74-4.066z"/><path opacity=".25" d="m375.92 455.08v2.285c0 2.344 1.69 4.066 3.74 4.066h335.36c2.05 0 3.74-1.723 3.74-4.066v-2.285c-2.217 2.142-5.198 3.502-8.518 3.502h-325.8c-3.321 0-6.301-1.361-8.518-3.502"/></g><use stroke-width="1.494" xlink:href="#T" fill="url(#D)" stroke="url(#E)" transform="matrix(1.27132 0 0 1.27132 182.2.953)"/><use fill="url(#F)" xlink:href="#U" transform="matrix(1.15939 0 0 1.15939 226.91 40.3)"/><use stroke-width="1.251" xlink:href="#T" fill="url(#G)" stroke="url(#H)" transform="matrix(.75935 0 0 .75935 371.92 183.69)"/><use fill="url(#I)" xlink:href="#U" transform="matrix(.69249 0 0 .69249 398.63 207.19)"/><use stroke-width="1.251" xlink:href="#T" fill="url(#G)" stroke="url(#H)" transform="matrix(.75935 0 0 .75935 359.89 183.69)"/><use fill="url(#J)" xlink:href="#U" transform="matrix(.69249 0 0 .69249 386.6 207.19)"/><use stroke-width="1.251" xlink:href="#T" fill="url(#G)" stroke="url(#H)" transform="matrix(.75935 0 0 .75935 347.86 183.69)"/><use fill="url(#I)" xlink:href="#U" transform="matrix(.69249 0 0 .69249 374.57 207.19)"/><path opacity=".827" fill="url(#K)" fill-rule="evenodd" d="m108.56 97.69v136.25c27.14 5.752 56.55 9.06 87.44 9.06 103.04 0 190.58-36.1 224.84-83.12v-62.19z" transform="matrix(.94977 0 0 .94977 295.94 113.93)"/></g><g fill-rule="evenodd" transform="translate(51.28-31.553)"><path fill="url(#l)" stroke="#c4c4c4" stroke-width="6.222" d="m399.75 518.72c-6.84.261-12.402 6.171-15.438 11.09l-38.03 90.84c-5.964 13.361 3.047 16.967 22.252 17.489l374.2-.854c15.754 0 36.11-2.222 27.25-16.635l-36.667-88.11c-4.169-4.842-12.4-13.814-24.22-13.814z"/><g fill="#bdbdbd" transform="matrix(4.59881 0 0 4.71529-2065.15-950.33)"><rect width="71.08" x="534.06" y="316.83" rx=".154" height="1.393" ry=".15"/><rect width="73.07" x="533.06" y="319.33" rx=".154" height="1.393" ry=".15"/><rect width="74.7" x="532.25" y="321.83" rx=".154" height="1.393" ry=".15"/><rect width="76.69" x="531.25" y="324.33" rx=".154" height="1.393" ry=".15"/><rect width="78.5" x="530.35" y="326.83" rx=".154" height="1.393" ry=".15"/><rect width="80.4" x="529.53" y="329.33" rx=".154" height="1.393" ry=".15"/><rect width="69.27" x="534.96" y="314.33" rx=".154" height="1.393" ry=".15"/><rect width="82.03" x="528.72" y="331.83" rx=".154" height="1.393" ry=".15"/></g></g></g></svg>