<svg xmlns="http://www.w3.org/2000/svg" viewBox="0 0 16 16"><path fill="#ac39ac" d="m1.792.002c-1.147 0-1.792.592-1.792 1.802v12.472c0 1.132.58 1.724 1.726 1.724h12.547c1.147 0 1.727-.563 1.727-1.724v-12.472c0-1.18-.581-1.802-1.763-1.802 0 0-12.449-.004-12.445 0"/><g fill="#fff" transform="matrix(.02776 0 0 .02771.208.208)"><path d="m42.13 111.03v424.53h289.16v-424.53zm134.53 85.28c21.17 0 39.23 3.114 54.16 9.344 15.08 6.246 27.24 15.638 36.531 28.13 5.786 7.613 9.907 17.04 12.344 28.313 2.436 11.12 3.656 27.862 3.656 50.25v145.97h-42.25v-37.938c-8.985 15.226-20.326 26.501-34.03 33.813-13.553 7.158-30.1 10.75-49.594 10.75-26.04 0-46.811-7.319-62.34-21.938-15.533-14.771-23.313-34.488-23.313-59.16 0-28.477 9.527-50.1 28.563-64.875 19.19-14.771 47.28-22.16 84.28-22.16h56.44v-6.625c-.152-20.406-5.329-35.18-15.531-44.31-10.203-9.29-26.521-13.938-48.906-13.938-14.315 0-28.756 2.027-43.37 6.156-14.619 4.11-28.861 10.144-42.719 18.06v-42.03c15.533-5.936 30.369-10.358 44.531-13.25 14.314-3.056 28.16-4.563 41.563-4.563m11.219 133.38c-24.517 0-43.04 4.353-55.53 13.03-12.335 8.53-18.5 21.323-18.5 38.38 0 15.383 4.648 27.349 13.938 35.875 9.289 8.53 22.15 12.781 38.594 12.781 23.15 0 41.35-7.979 54.59-23.969 13.248-16.14 19.973-38.39 20.13-66.72v-9.375h-39.31z"/><path opacity=".5" d="m42.13 111.03v424.53h289.16v-424.53z"/></g><g fill="#fff" transform="matrix(.02776 0 0 .02771-.047-.047)"><path opacity=".8" d="m241.78 38.31v138.03l48.41-36c15.533-5.936 30.369-10.358 44.531-13.25 14.314-3.056 28.19-4.563 41.594-4.563 21.17 0 39.2 3.114 54.13 9.344 15.08 6.246 27.27 15.638 36.563 28.13 5.786 7.613 9.876 17.04 12.313 28.313 2.436 11.12 3.656 27.862 3.656 50.25v145.97h-42.25v-37.938c-8.985 15.226-20.326 26.501-34.03 33.813-13.553 7.158-30.07 10.75-49.563 10.75-23.983 0-43.522-6.224-58.59-18.625v90.31h232.38v-424.53zm55.56 333.22c-.879-.749-1.747-1.515-2.594-2.313zm0-124.19c.861-.736 1.75-1.453 2.656-2.156 19.19-14.771 47.31-22.16 84.31-22.16h56.41v-6.625c-.152-20.406-5.329-35.18-15.531-44.31-10.203-9.29-26.49-13.938-48.875-13.938-14.315 0-28.787 2.027-43.41 6.156-12.12 3.407-23.967 8.159-35.563 14.188zm90.16 8.594c-24.517 0-43.01 4.321-55.5 13-12.335 8.53-18.5 21.323-18.5 38.38 0 15.383 4.617 27.349 13.906 35.875 9.289 8.53 22.18 12.781 38.625 12.781 23.15 0 41.35-7.979 54.59-23.969 13.248-16.14 19.941-38.39 20.09-66.72v-9.344h-39.28z"/><path opacity=".502" d="m241.78 38.31v138.03c66.69 16.57 52.83 166.22 56.75 286.5h232.38v-424.53zm0 138.03"/></g></svg>