<svg xmlns="http://www.w3.org/2000/svg" viewBox="0 0 16 13"><g transform="translate(0-1039.36)"><path d="m.03 1039.39c.025-.012.05-.029.078-.029 5.262 0 10.523 0 15.785 0 .028 0 .053.018.078.03.011.027.029.054.029.085 0 .907 0 2.236 0 3.143.001.032-.017.059-.028.086-.025.012-.05.03-.078.03-.14.001-.28-.001-.42 0 .002 1.06 0 1.899.001 2.959.004.038-.014.072-.029.104-.024.011-.049.023-.073.034.024.012.049.023.073.034.011.028.029.055.029.087-.001 1.692.001 3.383-.001 5.075-.002.082.017.172-.028.245-.027.012-.054.03-.084.029-.364 0-.728 0-1.092 0-.107 0-.212.046-.284.133-.113.13-.196.288-.303.423-.17.241-.443.426-.731.388-.099 0-.195-.032-.287-.068-.152-.062-.287-.161-.416-.265-.137-.118-.264-.249-.407-.357-.068-.049-.159-.078-.236-.034-.12.066-.222.165-.314.269-.197.195-.388.402-.62.549-.059.039-.13.013-.194.01-.183-.03-.38-.056-.528-.186-.078-.064-.118-.165-.138-.266-.025-.174.044-.339.107-.494.142-.313.293-.621.419-.942.163-.405.258-.839.306-1.277.055-.403.083-.812.18-1.207.085-.404.22-.798.424-1.149.105-.177.237-.341.407-.448.189-.127.414-.183.592-.332.042-.035.075-.082.092-.137-.068-.147-.19-.249-.28-.379-.132-.181-.223-.392-.317-.597-.093-.176-.18-.356-.255-.541-.219-.521-.346-1.08-.433-1.643-.008-.078-.026.067-.027-.011-2.031-.01-4.062.001-6.093 0-.07.432-.139.647-.273 1.062-.09.308-.212.605-.352.891-.136.25-.231.526-.396.758-.081.115-.181.212-.259.33-.027.038-.071.05-.113.058.031.013.069.017.091.046.092.142.248.206.387.277.16.072.321.153.451.281.165.165.288.375.384.593.124.264.211.546.274.834.136.546.15 1.116.251 1.669.053.259.114.518.21.763.087.232.187.457.292.68.088.196.189.387.25.596.026.116.039.245-.012.356-.037.12-.14.199-.242.249-.158.068-.328.088-.494.112-.059.01-.109-.03-.156-.062-.137-.099-.262-.216-.385-.334-.078-.09-.17-.164-.247-.256-.096-.085-.192-.193-.321-.21-.138.01-.234.128-.338.211-.235.224-.491.446-.802.523-.142.026-.293.03-.43-.026-.179-.068-.326-.208-.441-.369-.095-.126-.175-.265-.273-.388-.072-.089-.176-.145-.286-.147-.333 0-.665 0-.998 0-.065 0-.134.012-.191-.029-.011-.028-.029-.054-.029-.086 0-1.721 0-3.443 0-5.164 0-.032.017-.058.028-.086.028-.013.057-.026.086-.036-.029-.01-.057-.021-.085-.033-.011-.029-.029-.056-.029-.088 0-1.065 0-1.91 0-2.976-.125-.001-.25 0-.375 0-.029 0-.053-.017-.079-.029-.011-.028-.03-.055-.029-.088 0-.866 0-2.153 0-3.02.001-.071-.012-.147.029-.209m.195.215c.001.822.001 2.065 0 2.886.122.001.244 0 .366 0 .033 0 .062.014.09.029.014.031.03.062.027.098-.002 1.062.001 1.903-.001 2.965.924 0 1.848 0 2.772 0 .045-.063.096-.119.143-.179.189-.206.302-.474.42-.73.165-.304.295-.63.395-.966.117-.364.184-.524.247-.902.016-.096.011-.201.061-.287.028-.016.057-.032.09-.029 2.101.001 4.202 0 6.303.001.027 0 .05.016.075.026.029.044.034.098.036.15.035.281.084.34.145.615.043.226.113.444.181.662.085.247.179.491.302.719.08.149.14.311.222.459.086.172.206.321.33.461.941-.001 1.882-.001 2.823 0 0-1.063 0-1.905 0-2.967-.005-.061.037-.123.095-.124.144 0 .288.001.432-.001-.001-.822-.001-2.065 0-2.887-5.184-.001-10.368-.001-15.552 0m.482 6.477c.001 1.636.001 3.271 0 4.907.304.001.608 0 .912.001.083.001.166 0 .248.012.058.023.116.045.167.083.12.077.197.206.28.324.103.158.21.319.359.429.118.08.268.124.405.076.099-.029.198-.063.283-.127.191-.123.35-.293.524-.441.122-.102.272-.187.431-.17.163.028.3.139.423.253.207.216.414.434.653.61.081-.022.165-.025.246-.049.089-.024.188-.05.246-.135.042-.048.036-.119.026-.178-.056-.208-.156-.397-.243-.59-.186-.401-.371-.808-.465-1.248-.136-.556-.142-1.139-.257-1.7-.062-.295-.131-.59-.247-.866-.083-.215-.198-.417-.343-.589-.106-.118-.237-.209-.379-.267-.18-.09-.376-.168-.51-.334-.92.001-1.839-.001-2.759.001m11.801.039c-.087.142-.235.217-.372.289-.13.069-.271.115-.389.209-.167.123-.282.308-.384.493-.199.394-.302.832-.383 1.269-.022.106-.025.216-.047.322-.02.226-.055.451-.079.677-.054.389-.14.776-.285 1.138-.128.334-.287.652-.433.977-.036.098-.082.194-.094.299-.015.09.048.168.117.206.125.067.267.072.4.108.18-.123.339-.279.492-.439.073-.06.128-.139.199-.201.115-.105.247-.201.399-.226.136-.012.265.051.376.132.155.121.29.267.445.388.089.063.174.137.277.173.108.043.225.086.341.057.181-.036.323-.179.431-.333.12-.154.209-.338.354-.468.096-.078.212-.137.334-.133.348.001.696-.001 1.044.001v-4.978c-.9.001-1.799 0-2.699.001-.024-.01-.031.025-.043.039z"/><g fill="#ff003c"><path d="m.225 1039.59c5.184-.001 10.368-.001 15.552 0-.001.822-.001 2.096 0 2.917-.144 0-.288 0-.432 0-.059 0-.1.064-.095.124 0 1.063 0 1.894 0 2.957-.941-.001-1.882-.001-2.823 0-.124-.141-.244-.289-.33-.461-.082-.148-.142-.309-.222-.459-.122-.228-.216-.472-.302-.719-.068-.218-.138-.436-.181-.662-.061-.275-.11-.323-.145-.604-.002-.053-.007-.106-.036-.15-.025-.01-.048-.027-.075-.026-2.101-.001-4.202 0-6.303-.001-.033 0-.062.014-.09.029-.05.086-.045.19-.061.287-.063.379-.13.527-.247.891-.1.336-.23.662-.395.966-.118.256-.232.524-.42.73-.047.061-.098.117-.143.179-.924 0-1.848 0-2.772 0 .002-1.062 0-1.893.001-2.954.003-.036-.013-.067-.027-.098-.028-.015-.057-.032-.09-.029-.122 0-.244.001-.366 0 .001-.822.001-2.096 0-2.917"/><path d="m.707 1046.08c.92-.001 1.839.001 2.759-.001.134.166.33.244.51.334.142.058.273.149.379.267.145.172.259.374.343.589.116.276.185.572.247.866.115.561.121 1.143.257 1.7.094.44.279.847.465 1.248.087.193.187.382.243.59.01.059.016.13-.026.178-.058.084-.157.111-.246.135-.081.024-.165.027-.246.049-.238-.176-.446-.394-.653-.61-.122-.114-.259-.224-.423-.253-.159-.017-.309.068-.431.17-.174.148-.333.318-.524.441-.085.064-.184.098-.283.127-.136.048-.286 0-.405-.076-.149-.11-.256-.272-.359-.429-.082-.118-.16-.247-.28-.324-.051-.038-.11-.06-.167-.083-.082-.017-.165-.011-.248-.011-.304 0-.608.001-.912-.001.001-1.635.001-3.271 0-4.907"/><path d="m12.508 1046.12c.012-.015.019-.045.043-.039.9-.001 1.799.001 2.699-.001 0 1.659 0 3.319 0 4.978-.348-.001-.696 0-1.044-.001-.122 0-.239.054-.334.133-.145.13-.234.314-.354.468-.108.154-.25.297-.431.333-.116.03-.233-.013-.341-.056-.103-.036-.188-.11-.277-.173-.155-.12-.29-.267-.445-.388-.11-.081-.24-.143-.376-.132-.152.025-.283.12-.399.225-.071.062-.126.141-.199.201-.153.159-.312.315-.492.438-.133-.035-.275-.041-.4-.108-.069-.039-.132-.117-.117-.206.012-.105.059-.202.094-.299.146-.325.305-.643.433-.977.146-.361.231-.748.285-1.138.024-.226.059-.45.079-.677.023-.106.025-.215.047-.322.081-.437.184-.875.383-1.269.102-.185.218-.37.384-.493.117-.094.258-.141.389-.209.137-.072.284-.147.372-.289"/></g></g></svg>