<svg xmlns="http://www.w3.org/2000/svg" viewBox="0 0 92 92" xmlns:xlink="http://www.w3.org/1999/xlink"><defs><linearGradient id="a" y1="430.85" x1="364.8" y2="485.02" gradientUnits="userSpaceOnUse" x2="533.12" gradientTransform="matrix(.86603 0 0 1.1547-16.31-3.262)"><stop stop-color="#fff"/><stop offset="1" stop-color="#fff" stop-opacity="0"/></linearGradient><linearGradient id="b" y1="574.46" x1="347.2" y2="622.52" gradientUnits="userSpaceOnUse" x2="514.81" gradientTransform="matrix(1.06382.04046-.03648.97038 21.439-34.27)"><stop stop-color="#fffdff"/><stop offset=".5" stop-opacity=".498"/><stop offset=".7" stop-opacity=".247"/><stop offset="1" stop-opacity="0"/></linearGradient><linearGradient id="c" y1="625.84" x1="532.68" y2="616.77" gradientUnits="userSpaceOnUse" x2="284.75" gradientTransform="matrix(1.14873 0 0 .90536 0-20.988)"><stop/><stop offset="1" stop-opacity="0"/></linearGradient><linearGradient id="d" xlink:href="#c" y1="1453.5" x1="102.9" y2="1439.74" gradientUnits="userSpaceOnUse" x2="188.5" gradientTransform="scale(1.9012.52598)"/><linearGradient id="e" y1="999.96" x1="302.9" y2="1138.55" gradientUnits="userSpaceOnUse" x2="270.21" gradientTransform="scale(1.57246.63595)"><stop stop-color="#ffce63"/><stop offset="1" stop-color="#ffce63" stop-opacity="0"/></linearGradient><linearGradient id="f" y1="326.93" x1="738.64" y2="121.83" gradientUnits="userSpaceOnUse" x2="891.13" gradientTransform="scale(.79068 1.26473)"><stop stop-color="#00398f"/><stop offset="1" stop-color="#fff"/></linearGradient><path stroke="#000" id="g" stroke-width="5" d="m210.2 128.19h62.64v480.41h-62.64z"/><path id="h" d="m216.74 153.15h34.25v447.2h-34.25z"/><path stroke="#000" id="i" stroke-width="5" d="m134.29 132.36l193.89.464c.595 41.607 36.455 52.589 54.683 52.43v27.1h-248.57z"/><path id="j" d="m140.09 166.43l188.97.238c.521 21.359 33.11 26.996 49.06 26.917v13.912h-238.04z"/></defs><g fill-rule="evenodd" transform="matrix(.13392 0 0 .13392-5.774-15.03)"><g stroke="#000"><path fill="url(#f)" d="m414.64 465.72c17.261-16.246 17.845-31.31 50.64-35.816 35.06-8.484 59.93-36.36 63-120.83 3.071-84.46 56.821-176.61 56.821-176.61 0 0 44.535-49.14 56.821 7.679 12.286 56.821-38.39 198.11-62.964 241.11-15.592 25.04 4.569 55.907 21.97 62.47 12.831 4.02 15.953 25.637 8.249 35.816-10.75 3.071-194.54-13.821-194.54-13.821z"/><path fill="url(#e)" d="m577.12 639.3l-7.07 50.767c0 0-27.604 3.405-36.613 20.407-9.01 17-46.29-17.871-55.43-11.618-9.139 6.254-35.3 1.962-42.922 6.661-7.622 4.699-41.44 2.036-41.44 2.036l-3.442-30.675c0 0-18.334 7.9-45.864 17.447-27.529 9.547-6.587-36.78-6.587-36.78l14.856-41.646z"/><path fill="#df0000" d="m345.53 660.76c-38.39 0-67.28 117.22-226.99 111.07-44.535 18.428-27.936 22.532-27.936 22.532 0 0 379.88 19.964 410.27 6.143 19.679-11.455 78.09-105.96 67.34-130.53l-41.464 23.04-33.785-13.821-96.75 13.821c-6.143-18.428-3.071-4.607-6.143-29.18-33.785-1.536-67.57 33.785-44.535-3.071z"/></g><path opacity=".51" fill="#fff9ff" d="m90.61 788.22l23.04-13.821c0 0 285.64 26.11 342.46 1.536 56.821-24.571 79.86-56.821 79.86-56.821l10.75-15.357c0 0 15.357-15.357 10.75-1.536-4.607 13.821-46.07 73.71-46.07 73.71 0 0-19.964 19.964-56.821 21.5-36.857 1.536-322.5-10.75-322.5-10.75z"/><path opacity=".235" fill="#fff" d="m127.46 771.33l-23.04 12.286 44.535 4.607 12.286-15.357z"/><path fill="url(#d)" d="m320.67 678.21c-53.52 34.04-47.39 93.98-206.08 94.84 51.3 5.875 161.84 16.715 298.52 9.04 116.71-32.25 76.79-72.18 76.79-72.18 0 0-176.9 22.05-169.22-31.695"/><path opacity=".255" fill="#fff" d="m533.58 298.45c0 0 16.754-126.92 63.46-169.06 46.707-42.14 28.17 166.28-61.23 266.34-8.631 17.769-2.735-58.694-2.228-97.28"/><path opacity=".271" d="m635.73 158.03c0 0-21.55 154.44-79.02 219.09-57.47 64.65 14.367 66.45 19.754 62.854 5.388-3.592-35.917-21.55 0-75.43 35.917-53.875 59.26-143.67 59.26-206.52"/><g fill="#994a2c"><path opacity=".275" d="m365.89 607.09l-1.087 35.34 17.398-33.16-3.806 40.23 21.2-40.23-7.07 42.95 24.465-41.32-9.243 44.582 24.465-44.04-9.786 44.582 26.64-42.95-7.611 39.688 21.747-37.514-4.349 38.601 19.03-34.25-2.175 34.25 20.66-33.708-5.98 33.16 22.291-31.533-6.524 32.08 18.485-31.533-4.893 31.533 17.941-31.533-5.98 30.99 17.941-29.902-4.893 30.99 16.854-30.446-3.806 30.99 14.14-29.359-3.262 31.533 9.786-35.883-217.47-25.553-11.417 41.32z"/><path opacity=".275" d="m379.6 611.36l-1.041 27.521 16.654-25.827-3.643 31.33 20.297-31.33-6.766 33.448 23.419-32.18-8.847 34.718 23.419-34.29-9.368 34.718 25.501-33.448-7.286 30.908 20.817-29.21-4.163 30.06 18.215-26.674-2.082 26.674 19.776-26.25-5.725 25.827 21.338-24.557-6.245 24.98 17.695-24.557-4.684 24.557 17.17-24.557-5.725 24.13 17.17-23.287-4.684 24.13 16.13-23.71-3.643 24.13 13.531-22.863-3.123 24.557 9.368-27.944-208.17-19.9-10.929 32.18z"/></g><g stroke="#000"><path fill="#959595" stroke-width="1.02" d="m347.05 619.16c0 0 56.865-164.03 82.23-165.68 25.361-1.645 183.5 16.447 183.5 16.447 0 0-.822 15.373-4.476 37.828-7.459 19.736-25.905 132.65-31.872 132.65-5.967 0-229.38-21.246-229.38-21.246z"/><path opacity=".347" stroke-width="1.017" d="m600.95 468.52l11.803 3.556-34.423 167.34-16.853-.771z"/></g><path opacity=".108" fill="#fffdff" d="m589.3 468.05l19.05 2.392-41.06 167.49-31.872-1.38z"/><path opacity=".546" fill="#fff" d="m590.23 472.34l-47.06 163.04 10.875-2.63z"/><path opacity=".147" fill="url(#c)" d="m443.82 453.79l129 11.18 9.214 6.389-46.07 166.1-165.86-17.569z"/><path opacity=".382" fill="url(#b)" d="m464.15 453.25l114.8 12.31-57.2 172.58-142.36-14.947z"/><path opacity=".235" fill="url(#a)" d="m390.65 448.64l59.892 3.071-73.71 168.93-55.29-6.143z"/><path opacity=".382" fill="#fff" d="m589.93 441.11c0 0-7.108 9.646-1.523 12.692 5.585 3.046 6.092.508 8.123 7.108 2.031 6.6 12.184 5.585 12.184 5.585l-1.015-13.2z"/></g><g transform="matrix(.1803 0 0 .1803-23.365-.416)"><g opacity=".18" transform="matrix(.54171-.84057.84057.54171-46.936 306.98)"><use xlink:href="#g"/><use xlink:href="#h"/><use xlink:href="#i"/><use xlink:href="#j"/></g><g transform="matrix(.54171-.84057.84057.54171-51.912 285.75)"><use fill="#893333" xlink:href="#g"/><use fill="#ae6767" xlink:href="#h"/><use fill="#aaa" xlink:href="#i"/><use fill="#eee" xlink:href="#j"/></g></g></svg>