<svg xmlns="http://www.w3.org/2000/svg" viewBox="0 0 16 12.722" xmlns:xlink="http://www.w3.org/1999/xlink"><defs><linearGradient id="a" y1="28.11" x1="29.421" y2="-16.604" gradientUnits="userSpaceOnUse" x2="-5.853" gradientTransform="matrix(.52065 0 0 .33295 16.13 17.963)"><stop/><stop offset="1" stop-opacity="0"/></linearGradient><linearGradient id="b" y1="53.589" x1="12.829" y2="42.532" gradientUnits="userSpaceOnUse" x2="9.371" gradientTransform="matrix(.74391 0 0 .23302 14.695 18.902)"><stop stop-color="#2c2c2c"/><stop offset="1" stop-color="#2c2c2c" stop-opacity="0"/></linearGradient><path fill="#3f3f3f" id="c" d="m13.733 37.13c2.617.002 5.235-.004 7.852.003.447.098.625.595.75.984.243.927.234 1.944-.117 2.842-.131.333-.406.714-.81.655-2.575-.002-5.149.004-7.724-.003-.447-.098-.625-.595-.75-.984-.243-.927-.234-1.944.117-2.842.128-.284.329-.642.682-.655"/><rect width="8.364" x="13.387" y="37.425" rx="4.182" height=".056" ry=".028" stroke="#000" id="d" stroke-width=".036"/><rect width="8.364" x="13.387" y="41.26" rx="4.182" height=".056" ry=".028" stroke="#000" id="e" stroke-width=".036"/><rect width="8.364" x="13.387" y="40.16" rx="4.182" height=".056" ry=".028" stroke="#000" id="f" stroke-width=".036"/><rect width="8.364" x="13.387" y="39.07" rx="4.182" height=".056" ry=".028" stroke="#000" id="g" stroke-width=".036"/><rect width="8.364" x="13.387" y="38.52" rx="4.182" height=".056" ry=".028" stroke="#000" id="h" stroke-width=".036"/><rect width="8.364" x="13.387" y="40.709" rx="4.182" height=".056" ry=".028" stroke="#000" id="i" stroke-width=".036"/><rect width="8.364" x="13.387" y="37.972" rx="4.182" height=".056" ry=".028" stroke="#000" id="j" stroke-width=".036"/><rect width="8.364" x="13.387" y="39.614" rx="4.182" height=".056" ry=".028" stroke="#000" id="k" stroke-width=".036"/></defs><g transform="translate(-15.857-19.516)"><g stroke="#000"><g fill="#3f3f3f" fill-rule="evenodd" stroke-width=".5" transform="matrix(.41635 0 0 .41635 14.695 18.902)"><path d="m34.1 31.624l1.044-.678-1.438-1.155z"/><path d="m6.111 25.09l32.23 1.801-.964 1.945-1-.055-.964 1.945-26.473-1.447-1.156-2.061-.946-.052z"/><path d="m35.753 29.914l1.33-.856-1.657-1.093z"/></g><g transform="matrix(.9981.06159-.07799.99695 0 0)"><g stroke-width=".208"><rect width="15.13" x="18.316" y="18.506" fill="#fff" rx=".686" height="9.601" ry="4.8"/><rect width="15.13" x="18.407" y="18.5" rx=".686" height="9.601" ry="4.8" fill-opacity=".586"/><rect width="15.13" x="17.979" y="18.944" fill="#fff" rx=".686" height="9.601" ry="4.8"/><rect width="15.13" x="17.944" y="18.952" rx=".686" height="9.601" ry="4.8" fill-opacity=".45"/></g><g stroke-width=".171"><rect width="12.46" x="18.994" y="19.925" fill="#fff" rx=".686" height="7.906" ry="3.953"/><rect width="12.46" x="18.972" y="19.92" fill="url(#a)" rx=".686" height="7.906" ry="3.953"/></g></g><g fill="none"><path stroke-width=".416" d="m30.926 20.92c.496-.353.496-.353.496-.353z"/><path stroke-width=".208" d="m17.01 20.09l.553-.47"/></g><path fill="#969696" fill-rule="evenodd" stroke-width=".208" d="m16.577 29.774l13.419.75-.401.81-.417-.023-.401.81-11.02-.602-.481-.858-.394-.022z"/></g><g transform="matrix(.24034-.02146 0 .24034 23.435 22.14)"><use xlink:href="#c"/><use xlink:href="#d"/><use xlink:href="#e"/><use xlink:href="#f"/><use xlink:href="#g"/><use xlink:href="#h"/><use xlink:href="#i"/><use xlink:href="#j"/><use xlink:href="#k"/></g><g transform="matrix(-.24034-.04758 0 .24034 22.986 22.14)"><use xlink:href="#c"/><use xlink:href="#d"/><use xlink:href="#e"/><use xlink:href="#f"/><use xlink:href="#g"/><use xlink:href="#h"/><use xlink:href="#i"/><use xlink:href="#j"/><use xlink:href="#k"/></g><path fill="url(#b)" stroke="#000" stroke-width=".052" d="m20.999 30.01c1.351.066 2.702.131 4.053.197.203.041.239.198.281.307.053.225.052.468-.119.664-.131.116-.094.043-.422.138-1.309.171-2.483.014-3.792-.268-.203-.041-.239-.198-.281-.307-.053-.225-.052-.468.119-.664.036-.034.088-.07.162-.067z"/><g fill="#181818" transform="matrix(.41581.02113-.07075.41029 14.695 18.902)"><rect width=".861" x="19.965" y="26.697" rx=".236" height=".858" ry=".233"/><rect width=".861" x="21.377" y="26.947" rx=".236" height=".858" ry=".233"/><rect width=".861" x="22.79" y="27.27" rx=".236" height=".858" ry=".233"/><rect width=".861" x="24.2" y="27.486" rx=".236" height=".858" ry=".233"/><rect width=".861" x="25.615" y="27.426" rx=".236" height=".858" ry=".233"/><rect width=".861" x="27.03" y="27.15" rx=".236" height=".858" ry=".233"/><rect width=".861" x="28.44" y="27.01" rx=".236" height=".858" ry=".233"/></g><g transform="matrix(.1521 0-.04066.1521 23.365 25.635)"><circle fill="none" cx="18.242" cy="33.911" stroke="#ea9d1b" r=".593" stroke-width=".3"/><path fill="#ea9d1b" stroke="#181818" stroke-width=".02" d="m18.13 32.871h.207v.904h-.207z"/></g></g></svg>