<svg xmlns="http://www.w3.org/2000/svg" viewBox="0 0 13 16"><g color-rendering="auto" color-interpolation-filters="linearRGB" shape-rendering="auto" image-rendering="auto" fill-rule="evenodd" text-rendering="auto" stroke-linecap="round" color-interpolation="sRGB" color="#000" transform="translate(0-1036.36)"><rect x="4.5" y="1045.86" rx=".978" width="8" fill="#008000" height="2" stroke="#008000"/><rect x="4.5" y="1042.86" rx=".978" width="8" fill="#f00" height="2" stroke="#f00"/><rect x="4.5" y="1039.86" rx=".978" width="8" fill="#cd9a00" height="2" stroke="#cd9a00"/><rect x="4.5" y="1036.86" rx=".978" width="8" fill="#00009b" height="2" stroke="#00009b"/><rect x="3.5" y="1046.86" rx=".978" width="8" fill="#008000" height="2" stroke="#008000"/><rect x="3.5" y="1043.86" rx=".978" width="8" fill="#f00" height="2" stroke="#f00"/><rect x="3.5" y="1040.86" rx=".978" width="8" fill="#cd9a00" height="2" stroke="#cd9a00"/><rect x="3.5" y="1037.86" rx=".978" width="8" fill="#00009b" height="2" stroke="#00009b"/><rect x="2.5" y="1047.86" rx=".978" width="8" fill="#008000" height="2" stroke="#008000"/><rect x="2.5" y="1044.86" rx=".978" width="8" fill="#f00" height="2" stroke="#f00"/><rect x="2.5" y="1041.86" rx=".978" width="8" fill="#cd9a00" height="2" stroke="#cd9a00"/><rect x="2.5" y="1038.86" rx=".978" width="8" fill="#00009b" height="2" stroke="#00009b"/><rect x="1.5" y="1048.86" rx=".978" width="8" fill="#008000" height="2" stroke="#008000"/><rect x="1.5" y="1045.86" rx=".978" width="8" fill="#f00" height="2" stroke="#f00"/><rect x="1.5" y="1042.86" rx=".978" width="8" fill="#cd9a00" height="2" stroke="#cd9a00"/><rect x="1.5" y="1039.86" rx=".978" width="8" fill="#00009b" height="2" stroke="#00009b"/><g fill="#fff"><rect x=".5" y="1049.86" rx=".978" width="8" height="2" stroke="#008000"/><rect x=".5" y="1046.86" rx=".978" width="8" height="2" stroke="#f00"/><rect x=".5" y="1043.86" rx=".978" width="8" height="2" stroke="#cd9a00"/><rect x=".5" y="1040.86" rx=".978" width="8" height="2" stroke="#00009b"/></g></g></svg>