<svg xmlns="http://www.w3.org/2000/svg" viewBox="0 0 744.09 1052.36"><g stroke-linejoin="round" transform="matrix(1.34022 0 0 1.34022-653.55 7.796)"><path fill="#35e23e" stroke="#12892d" stroke-width="17" d="m796.81 295.5c-.876.09-1.792.4-2.75.938-6.264 3.513-1.116 104.88-27.09 196.44-8.976-24.804-42.991-57.696-89.78-83.91-63.24-35.427-125.81-45.24-139.66-21.906-13.848 23.332 26.22 71.01 89.47 106.44 53.3 29.857 106.01 41.44 129.59 30.406-6.784 17.661-14.853 34.542-24.906 49.53-65.836 98.17-173.25 73.18-176.16 78.69-30.597 58.01 126.48 40.916 192.31-57.25 15.718-23.436 28.29-53.688 37.938-85.91.235.411.36.889.625 1.281 15.197 22.477 75.42 6.561 134.44-35.531 59.02-42.09 94.57-94.49 79.38-116.97-15.197-22.477-75.42-6.561-134.44 35.531-29.571 21.09-53.27 44.762-67.62 65.969 17.15-84.22 15.734-165.5-1.344-163.75z"/><g stroke="#f58006" stroke-width="4.02"><path fill="#fa9806" d="m521.87 275.23c-43.02-29.588 2.176-28.11-47.1-10.868-26.514 9.277 3.601 50.22 11.589 23.285 14.847-50.05 27.406-6.617-4.22-48.16-17.02-22.35-46.644 18.942-18.564 18.218 52.19-1.347 14.762 24.02 44.496-18.895 15.998-23.09-32.429-38.508-23.06-12.03 17.409 49.22-18.282 21.462 31.721 36.479 26.903 8.08 26.602-42.742 4.31-25.65-41.43 31.768-26.06-10.755-24.892 41.44.629 28.08 48.87 12.09 25.726-3.827z" transform="matrix(4.22499 0 0 4.22499-1287.37-859.24)"/><path fill="#fadc06" d="M539.80589 261.93216A8.817427 8.817427 0 1 1 522.17104 261.93216 8.817427 8.817427 0 1 1 539.80589 261.93216z" transform="matrix(4.22499 0 0 4.22499-1440.17-885.76)"/></g></g></svg>