<svg xmlns="http://www.w3.org/2000/svg" viewBox="0 0 568.07 672.13"><g stroke="#000" transform="translate(-70.975-194.21)"><g stroke-linejoin="round"><g fill="#ff9602" stroke-width=".137"><path d="m474.15 842.22c0 13.278-41.25 24.05-92.07 24.05-50.822 0-92.07-10.777-92.07-24.05 0-6.639-19.06-103.05-28.583-163.66 57.14-.086 85.72-.064 111.13-.064 25.411 0 50.81-4.678 131.76-4.591-17.465 82.34-30.17 161.68-30.17 168.32z"/><path d="m507.48 671.51c0 18.418-56.54 33.367-126.2 33.367-69.66 0-126.2-14.948-126.2-33.367 0-9.209 1.832-11.188.863-38.954 44.03.246 90.5 5.588 125.34 5.588 34.831 0 66.28-2.483 125.73-4.191.491 21.495.466 28.348.466 37.558z"/><path d="m507.48 635.81c0 18.418-56.54 33.367-126.2 33.367-69.66 0-126.2-14.948-126.2-33.367 0-18.418 56.54-33.367 126.2-33.367 69.66 0 126.2 14.948 126.2 33.367z"/></g><path fill="#5d3c0e" stroke-width=".25" d="M534 459.86218A179 27.5 0 1 1 176 459.86218 179 27.5 0 1 1 534 459.86218z" transform="matrix(.55249 0 0 .54318 183.33 402.28)"/></g><path fill="#47b302" fill-rule="evenodd" d="m383 510.36c50 33-14 144-14 144l29-1c0 0 36-72 27-115-5-54-162-147-168-159z"/><g stroke-linejoin="round"><g stroke-width=".25"><g fill="#fd19d2"><path d="m292 241.36c0 27.05-23.296 93-52 93-28.704 0-52-65.952-52-93 0-27.05 26.296-61 53-41 27.704-20 51 13.952 51 41z"/><path d="m388.55 342.71c-21.792 16.02-88.73 36.32-105.73 13.193-17-23.13 22.334-80.962 44.13-96.98 21.792-16.02 64.723-14.947 64.43 18.415 32.524 10.474 18.969 49.35-2.823 65.38z"/><path d="m349.85 283.15c-11.284 24.582-59.971 74.8-86.06 62.826-26.09-11.975-19.744-81.63-8.459-106.21 11.284-24.582 49.35-44.47 65.27-15.15 33.522-6.618 40.529 33.957 29.24 58.54z"/><path d="m383.19 408.61c-26.66 4.568-95.6-7.256-100.45-35.547-4.848-28.29 56.22-62.39 82.88-66.959 26.66-4.568 64.56 15.617 49.36 45.31 24.391 23.929-5.139 52.624-31.798 57.19z"/><path d="m328.09 488.29c-23.972-12.528-71.63-63.722-58.34-89.16 13.295-25.439 82.54-15.539 106.51-3.01 23.972 12.528 41.883 51.56 11.789 65.962 4.894 33.817-35.987 38.737-59.959 26.21z"/><path d="m178.92 504.91c1.39-27.01 28.04-91.68 56.71-90.2 28.666 1.475 48.542 68.54 47.15 95.55-1.39 27.01-29.396 59.57-55.04 38.22-28.695 18.55-50.22-16.554-48.826-43.567z"/><path d="m253.36 517.84c-14.457-22.861-30.02-91.05-5.757-106.39 24.26-15.342 79.2 27.949 93.66 50.809 14.457 22.86 10.378 65.61-22.881 62.98-12.725 31.711-50.561 15.466-65.02-7.394z"/><path d="m114.08 445.46c15.05-22.476 71.1-64.32 94.95-48.35 23.852 15.969 6.52 83.73-8.527 106.21-15.05 22.476-55.787 36.06-66.85 4.585-34.15 1.207-34.618-39.966-19.57-62.44z"/><path d="m166.6 264.16c22.838 14.492 66.04 69.5 50.662 93.74-15.38 24.24-83.55 8.569-106.39-5.924-22.838-14.492-37.415-54.887-6.221-66.72-2.043-34.11 39.11-35.586 61.944-21.09z"/><path d="m110.89 343.52c26.517-5.332 95.77 4.505 101.43 32.645 5.659 28.14-54.41 63.981-80.923 69.31-26.517 5.332-64.987-13.754-50.644-43.877-25.07-23.22 3.624-52.75 30.14-58.08z"/><path d="m228.49 235.41c12.383 24.05 21.866 93.35-3.653 106.49-25.519 13.14-76.42-34.828-88.81-58.875-12.383-24.05-4.549-66.27 28.349-60.715 15.474-30.464 51.729-10.945 64.11 13.1z"/></g><path fill="#fdfa19" d="M298 376.36218A59 58 0 1 1 180 376.36218 59 58 0 1 1 298 376.36218z"/></g><path fill="#47b302" stroke-width="1.05" d="m638.51 453.95c.896 1.326-52.06 11.789-105.83 78.56-80.46 55.55-89.7-5.06-110.19 9.265 21.479-16.438-30.385-33.78 54.22-92.13 68.03-47.16 162.02 4.64 161.8 4.309z"/></g><path fill="none" stroke-width="2.2" d="m425 539.36c87-91 138-83 138-83"/></g></svg>