<svg xmlns="http://www.w3.org/2000/svg" viewBox="0 0 16 16"><path fill="#ac39ac" d="m5 1v9.531c-.42-.319-.935-.531-1.5-.531-1.375 0-2.5 1.125-2.5 2.5 0 1.375 1.125 2.5 2.5 2.5 1.203 0 2.203-.864 2.438-2h.125c.234 1.136 1.235 2 2.438 2 1.375 0 2.5-1.125 2.5-2.5 0-1.375-1.125-2.5-2.5-2.5-.565 0-1.08.212-1.5.531v-9.531zm4 0v2h4v1h-4v1h4v1h-4v1h4v1h-4v1h4v6h2v-12c0-1-1-2-2-2zm-5.5 10c.834 0 1.5.666 1.5 1.5 0 .834-.666 1.5-1.5 1.5-.834 0-1.5-.666-1.5-1.5 0-.834.666-1.5 1.5-1.5m5 0c.834 0 1.5.666 1.5 1.5 0 .834-.666 1.5-1.5 1.5-.834 0-1.5-.666-1.5-1.5 0-.834.666-1.5 1.5-1.5"/></svg>