<svg xmlns="http://www.w3.org/2000/svg" viewBox="0 0 16 16"><path fill="#fff" d="m66.28 1.768c-41.34 0-64.57 21.371-64.57 65.04v450.12c0 40.844 20.895 62.23 62.19 62.23h452.02c41.31 0 62.23-20.315 62.23-62.23v-450.12c0-42.601-20.922-65.04-63.52-65.04-.004 0-448.5-.143-448.35 0" transform="matrix(.02776 0 0 .02771-.047-.047)"/><path d="m7.788 5.091h.293c1.636.003 2.575 1.558 2.581 2.611-.007.205-.057.381-.29.376-.491.005-.315-.782-.719-1.453-.191-.33-.805-.927-1.506-.922h-.257c-.375-.005-1.082.211-1.556.922-.592.859-.204 1.488-.701 1.485-.077.003-.297-.019-.293-.374.023-1.615 1.506-2.642 2.448-2.645"/><path d="m8.01 14.02c.614.007 1.089-.615 1.095-1.043v-.888c-.007-1.819 1.907-2.536 1.9-4.356.006-1.705-1.537-2.993-2.995-2.99-1.209-.003-2.034.776-2.345 1.179-.935 1.155-.398 2.256-1.059 2.256-.187 0-.373-.106-.375-.48-.029-1.806 1.463-3.72 3.816-3.724 1.897.003 3.763 1.513 3.763 3.828 0 2.144-1.881 2.593-1.881 4.475v.804c0 .826-.738 1.772-1.951 1.776-.044-.013-.096-.029-.153-.034-.223-.067-.378-.301-.324-.529.064-.198.248-.247.497-.273h.011z"/><path d="m-4.122 10.403h1.074v2.932h-1.074z" transform="matrix(.70652-.70769.70892.70529 0 0)"/><path d="m7.118 8.511c.004-.26.205-.463.461-.461.248-.002.45.203.461.461-.012.24-.213.445-.461.435-.256.01-.458-.195-.461-.435"/><path d="m1.089 14.525c-.012-.244.196-.447.44-.435.256-.014.458.191.461.435-.004.258-.205.459-.461.461-.244-.002-.452-.205-.44-.461"/><path d="m3.096 12.526c0-.256.203-.459.461-.461.241.004.448.205.436.461.012.246-.196.447-.436.461-.258-.014-.461-.215-.461-.461"/><g fill-rule="evenodd"><path d="m9.362 3.01c1.62.41 2.919 1.633 3.425 3.213l.598-.189c-.579-1.78-2.024-3.161-3.851-3.621l-.171.615v-.018z"/><path d="m10.313 1.206l.169-.615c2.263.568 4.074 2.271 4.793 4.475l-.634.205c-.649-1.988-2.288-3.541-4.328-4.065"/></g></svg>