<svg xmlns="http://www.w3.org/2000/svg" viewBox="0 0 16 16"><g transform="translate(0-1036.36)"><rect y="1036.36" rx="2" width="16" fill="#fff" height="16"/><path shape-rendering="auto" color-interpolation-filters="linearRGB" fill="#da0092" image-rendering="auto" text-rendering="auto" d="m7.5 1037.36c-1.927 0-3.5 1.573-3.5 3.5 0 1.927 1.573 3.5 3.5 3.5 1.927 0 3.5-1.573 3.5-3.5 0-1.927-1.573-3.5-3.5-3.5" color="#000" color-rendering="auto" color-interpolation="sRGB"/><path fill="none" stroke="#fff" stroke-linejoin="round" stroke-linecap="round" d="m7.501 1039.15v1.714l1.538.716"/><g fill="#da0092" fill-rule="evenodd"><path color-rendering="auto" shape-rendering="auto" color-interpolation-filters="linearRGB" image-rendering="auto" text-rendering="auto" color-interpolation="sRGB" color="#000" d="M12.492188 1037.3173A.50005 .50005 0 0 0 12 1037.8231v7.539h-1l-1 6h5l-1-6h-1v-7.539a.50005 .50005 0 0 0 -.507812 -.5058"/><path d="m1 1044.37l1 1.99-1 5h4l-1-5 .502-1h.498v2h1v-3z"/></g></g></svg>