<svg xmlns="http://www.w3.org/2000/svg" viewBox="0 0 577.45 577.45"><g transform="translate(-43.21-260.78)"><path fill="#fff" d="m66.28 1.768c-41.34 0-64.57 21.371-64.57 65.04v450.12c0 40.844 20.895 62.23 62.19 62.23h452.02c41.31 0 62.23-20.315 62.23-62.23v-450.12c0-42.601-20.923-65.04-63.52-65.04-.004 0-448.5-.143-448.35 0" transform="matrix(1.0017 0 0 1 41.499 259.07)"/><g fill="#06f"><path d="m57.17 279.63l40.71-154.19h108.3l43.72 154.19z" transform="matrix(.97903 0 0 1.05768 60.701 227.6)"/><path d="m194.84 494.23h32.35v289.27h-32.35z"/><path d="m311.84 794.17c0 5.898-44.24 10.676-98.81 10.676-54.56 0-98.81-4.779-98.81-10.676 0-5.898 44.24-10.676 98.81-10.676 54.57 0 98.81 4.778 98.81 10.676"/></g><g fill="#8e3900" transform="matrix(.93838 0 0 .8838 76.6 280.78)"><path d="m307.59 304.93l39.6-43.29v-149.75l-39.6-43.3z"/><path d="m531.82 65.11h-219.28l38.41 42h142.46z"/><path d="m531.93 308.52l-38.42-42h-142.66l-38.41 42z"/><path d="m537.08 68.26l-39.6 43.29v150.42l39.6 43.29z"/></g><path fill="#677821" d="m547.77 627.03l.787-.78h-175.8l44.1 43.709c0 0-79.14 72.884-21.14 119.37 11.973 9.597 25.23 15.223 38.739 18.12 8.727 1.873 17.555 2.606 26.21 2.526 8.651.079 17.48-.653 26.21-2.526 13.505-2.899 26.765-8.525 38.739-18.12 57.997-46.49-21.14-119.37-21.14-119.37l8.528-8.452z"/></g></svg>