<svg xmlns="http://www.w3.org/2000/svg" viewBox="0 0 181.4 181.32" xmlns:xlink="http://www.w3.org/1999/xlink"><defs><linearGradient id="a"><stop stop-color="#fff"/><stop offset="1" stop-color="#fff" stop-opacity="0"/></linearGradient><linearGradient id="b" x1="8.06" gradientUnits="userSpaceOnUse" x2="174.32"><stop stop-color="#bfb800"/><stop offset=".5" stop-color="#f8fe05"/><stop offset="1" stop-color="#bfb800"/></linearGradient><linearGradient xlink:href="#b" id="c" x1="-48.11" gradientUnits="userSpaceOnUse" x2="103.2"/><linearGradient xlink:href="#a" id="d" y1="493.62" x1="353.59" y2="180.48" gradientUnits="userSpaceOnUse" x2="359.01"/><linearGradient xlink:href="#a" id="e" y1="152.26" x1="357.92" y2="440.06" gradientUnits="userSpaceOnUse" x2="357"/><linearGradient xlink:href="#a" id="f" y1="110.54" x1="361.19" y2="444.97" gradientUnits="userSpaceOnUse" x2="360.28"/><linearGradient xlink:href="#a" id="g" y1="80.28" x1="361.19" y2="444.97" gradientUnits="userSpaceOnUse" x2="360.28"/><radialGradient cx="259.85" cy="485.57" xlink:href="#a" id="h" r="13.5" gradientUnits="userSpaceOnUse" gradientTransform="matrix(-.27936.65487-.65888-.08774 657.02 359.3)"/></defs><path d="m91.14 36.697c-43.07 0-78.02 29.752-78.02 66.41 0 36.662 34.954 66.41 78.02 66.41 43.07 0 78.02-29.752 78.02-66.41 0-36.662-34.954-66.41-78.02-66.41m0 15.19c30.934 0 56.04 21.38 56.04 47.711 0 26.332-25.11 47.698-56.04 47.698-30.934 0-56.03-21.366-56.03-47.698 0-26.332 25.09-47.711 56.03-47.711"/><path d="m90.7 29.348c-48.15 0-87.23 33.26-87.23 74.25 0 40.988 39.08 74.25 87.23 74.25 48.15 0 87.23-33.26 87.23-74.25 0-40.988-39.08-74.25-87.23-74.25m0 16.983c34.584 0 62.65 23.903 62.65 53.34 0 29.439-28.07 53.33-62.65 53.33-34.584 0-62.64-23.887-62.64-53.33 0-29.439 28.05-53.34 62.64-53.34"/><g transform="matrix(.18939 0 0 .18939-63.54-27.2)"><path d="m812.27 233.65c-77.59 0-145.01 31.04-178.92 76.5h-23.677l.759 75.46c-2.588 59.14 96.31 125.63 203.82 125.63 107.51 0 201.48-56.56 199.88-125.63l.727-75.46h-23.677c-33.91-45.46-101.33-76.5-178.92-76.5"/><ellipse cx="372.08" cy="322.1" rx="199.92" ry="141.61" transform="matrix(1.01242 0 0 1.01242 435.7-20.769)"/></g><path fill="url(#b)" d="m91.19 32.1c-45.886 0-83.13 31.699-83.13 70.76 0 39.06 37.24 70.76 83.13 70.76 45.886 0 83.13-31.699 83.13-70.76 0-39.06-37.24-70.76-83.13-70.76m0 16.184c32.957 0 59.706 22.778 59.706 50.832 0 28.05-26.749 50.817-59.706 50.817-32.957 0-59.691-22.763-59.691-50.817 0-28.05 26.735-50.832 59.691-50.832"/><g transform="matrix(.46782 0 0 .46782 77.874-16.966)"><path fill="url(#c)" d="m27.541 75.47c-28.975 0-54.15 11.59-66.812 28.566h-8.841l.283 28.18c-.966 22.08 35.965 46.913 76.11 46.913 40.15 0 75.24-21.12 74.64-46.913l.271-28.18h-8.841c-12.663-16.975-37.839-28.566-66.812-28.566"/><ellipse opacity=".187" fill="url(#d)" cx="372.08" cy="322.1" rx="199.92" ry="141.61" transform="matrix(.27455 0 0 .20923-73.43 80.28)"/><ellipse fill="#c0b900" cx="372.08" cy="322.1" rx="199.92" ry="141.61" transform="matrix(.37806 0 0 .37806-113.08-19.538)"/><ellipse fill="#c2bc00" cx="372.08" cy="322.1" rx="199.92" ry="141.61" transform="matrix(.37067 0 0 .37067-110.44-15.272)"/><ellipse opacity=".34" fill="url(#e)" cx="372.08" cy="322.1" rx="199.92" ry="141.61" transform="matrix(.33584 0 0-.29877-96.97 208.93)"/><ellipse opacity=".631" fill="url(#f)" cx="372.08" cy="322.1" rx="199.92" ry="141.61" transform="matrix(.28928 0 0 .25735-78.33 5.612)"/><ellipse fill="#c0b900" cx="372.08" cy="322.1" rx="199.92" ry="141.61" transform="matrix(.28055 0 0 .28055-76.24 8.594)"/><ellipse fill="#697dbc" cx="372.08" cy="322.1" rx="199.92" ry="141.61" transform="matrix(.2677 0 0 .2677-71.3 13.405)"/><ellipse fill="url(#g)" cx="372.08" cy="322.1" rx="199.92" ry="141.61" transform="matrix(.23152 0 0 .20596-57.37 26.01)"/><circle cx="264.5" cy="486.86" r="13.5" opacity=".5" fill="url(#h)" transform="matrix(-.04213-1.12142 1.96207-.08813-915.91 462.77)"/></g></svg>