<svg xmlns="http://www.w3.org/2000/svg" viewBox="0 0 16 16"><g transform="translate(0-146)"><path fill="#fff" d="m11.638 147.84c-.471-1.19-2.245-.701-3.298-.862-.872-.133-1.657-.687-2.527-.881-1.645-.366-4.02.327-4.945 1.562-.946 1.258-1.042 3.052-.653 4.472.143.522.474.988.622 1.511.274.966.384 2.209.325 3.203-.055.921-1.353 2.397-.719 3.263.372.509 1.186.771 1.791 1.014 1.64.66 3.398.879 5.182.878.664 0 1.913-.182 2.446-.562.278-.198.213-.63.253-.907.106-.734.111-1.646.548-2.297 1.088-1.619 2.466-3.099 3.676-4.653.55-.707 1.311-1.511 1.544-2.357.242-.88.148-2.27-.62-2.941-.904-.788-2.328-.759-3.461-.47"/><path d="m11.638 147.84c-.471-1.19-2.245-.701-3.298-.862-.872-.133-1.657-.687-2.527-.881-1.645-.366-4.02.327-4.945 1.562-.946 1.258-1.042 3.052-.653 4.472.143.522.474.988.622 1.511.274.966.384 2.209.325 3.203-.055.921-1.353 2.397-.719 3.263.372.509 1.186.771 1.791 1.014 1.64.66 3.398.879 5.182.878.664 0 1.913-.182 2.446-.562.278-.198.213-.63.253-.907.106-.734.111-1.646.548-2.297 1.088-1.619 2.466-3.099 3.676-4.653.55-.707 1.311-1.511 1.544-2.357.242-.88.148-2.27-.62-2.941-.904-.788-2.328-.759-3.461-.47m-4.164-.698c-1.368.366-2.644 2.081-2.647 3.244-.016.373.162 1.135.611 1.349-.196-1.338.2-3.145 1.645-3.966.996-.566 2.961-.596 3.804.242.523.52.566 1.024.474 1.673-.149 1.058-1.019 1.811-1.501 2.716.878-.213 2-1.887 2.046-2.648.046-.765-.361-1.442.75-1.7 2.222-.515 2.653 1.113 2.567 2.629-.095.563-.364 1.2-.723 1.851-.803 1.098-1.593 1.934-2.574 3.15-.318.311-1.153 1.824-1.742 1.212-.202-.209.06-.502.189-.688.445-.64.951-1.224 1.382-1.874-.863.365-1.224 1.429-2.137 1.894-.478.244-1.074.076-1.168-.411-.096-.498-.027-1.258.254-1.673-.63.4-.471 1.162-1.01 1.526-.283.19-.695.116-1 .051-.328-.07-.835-.103-1.073-.331-.177-.17-.009-.519-.01-.728-.001-.471-.174-.902-.313-1.356 0 0 .077 1.514-.28 1.903-.339.369-1.601.208-1.707-.209l-.188-1.332c-.185.436-.116.918-.3 1.34-.111.255-.528.555-.726.176-.179-.343-.09-.953-.131-1.331-.058-.527-.373-1.059-.528-1.575 0 0 .2 1.599.21 2.357.005.33-.062.969-.326.629-.292-.652-.168-.979-.358-1.649-.143-.503-.408-1.144-.557-1.643-.391-1.308-.137-2.685.648-3.871 1.012-1.528 3.384-2.049 5.166-1.325.371.151.584.214.817.519m-3.986 2.264l.055.08c.198-.897.891-2 1.84-2.316-1.306-.515-2.255 1.488-1.895 2.236m10.247-.665c.233.488.277.902.159 1.446-.045.433-.187.967-.299 1.394.736-.527 1.082-2.298.14-2.84m-3.58 11.965c-2.623-1.189-6.316-1.91-9.238-1.245.05-.943.814-1.759.9-2.703.029-.32-.088-.628.195-.885.434-.394 1.313-.308 1.885-.302 1.883.019 3.888.333 5.547 1.134.422.203 1.068.309 1.337.674.24.325-.257.623-.379.927-.281.702-.343 1.529-.344 2.272m-.771.261c.34.185.611.221.315.375-2.03.354-3.59.339-5.342-.133-.454-.14-1.763-.421-1.716-.976.05-.586.915-.435 1.346-.435 1.876.067 3.687.371 5.398 1.169z"/></g></svg>