<svg xmlns="http://www.w3.org/2000/svg" viewBox="0 0 370 520"><g transform="translate(-214.64-311.72)"><g stroke="#000"><path fill="#fff" stroke-width="7" d="m226.06 329.36h348.57v491.43h-348.57z"/><path fill="none" stroke-width="5" d="m223.2 420.79h348.57"/></g><g transform="translate(2.02-56.57)"><path fill="#808080" stroke="#ddd" stroke-width="37.35" d="M574.28571 702.36218A124.28571 124.28571 0 1 1 325.71429 702.36218 124.28571 124.28571 0 1 1 574.28571 702.36218z" transform="matrix(.80894 0 0 .79745 36.32 89.27)"/><path fill="none" stroke="#c4c4c4" stroke-width="5" d="M485.71428 659.50507A61.42857 61.42857 0 1 1 362.85714 659.50507 61.42857 61.42857 0 1 1 485.71428 659.50507z" transform="translate(-23.939-10.144)"/><path fill="#b3b3b3" stroke="#d0d0d0" stroke-width="3.492" d="m309.59 617.18h27.22v64.36h-27.22z"/></g><g stroke-width="5"><path fill="#505050" stroke="#505050" d="M505.7143 366.64789A17.14286 17.14286 0 1 1 471.42859 366.64789 17.14286 17.14286 0 1 1 505.7143 366.64789z" transform="translate(23.2 11.285)"/><path fill="none" stroke="#000" d="m340.35 329.36v88.57"/></g><g stroke="#000"><path fill="none" stroke-width="2.661" d="m226.42 396.9h112.86"/><g fill="#505050" stroke-width="7"><path d="m382.13 392.86h10v2.857h-10z"/><path d="m405.94 392.86h10v2.857h-10z"/><path d="m429.75 392.86h10v2.857h-10z"/><path d="m453.56 392.86h10v2.857h-10z"/></g></g></g></svg>