<svg viewBox="0 0 208.532 270.512" enable-background="new 0 0 208.532 270.512" width="208.53" xmlns="http://www.w3.org/2000/svg" height="270.51"><g fill="#ffbf00"><path d="m114.52 42.04c.249-.073.461-.202.656-.358-.262.084-.474.209-.656.358"/><path d="m113.47 19.438c-.004.007-.007.015-.011.022.053-.031.045-.033.011-.022"/></g><path fill="#ff7f00" d="m199.47 166.02c-5.722-18.933-10.846-37.861-13.438-57.51-1.247-9.456-1.855-19.07-1.545-28.611.145-4.442 3.994-20.821.259-22.691-2.031-1.016-4.56-.582-4.56-3.564 0-3.859 1.221-4.893-2.102-7.188-3.339-2.306-9.449-2.406-13.384-3.156-2.478-.472-4.923-1.095-7.305-1.929-2.027-.709-1.731-4.457-2.455-6.486-3-8.422-10.572-14.248-18.641-17.356-3.424-1.319-7-1.627-10.634-1.87-2.357-.157-7.195 2-9.06.76-1.979-1.323-1.529-5.976-3.283-7.937-1.847-2.064-4.616-6.832-7.122-7.958-1.992-.896-6.092-.35-8.297-.468-6.607-.353-23.8 4.355-28.04 7.412.585.99.884 1.675 1.402 2.732 2.27-1.242 21.728-8.816 28.624-7.923 5.696.737 17.51 10.146 13.568 17.16.034-.011.042-.009-.011.022.004-.007.007-.015.011-.022-.195.062-1.604.711-1.647.723-1.255-3.387-3.133-6.401-5.2-9.35-3.02-4.306-7.777-3.875-12.915-4.324-4.33-.379-15.499 3.949-19.748 5.152-.644.182-1.204.359-1.696.54.625 1.359.947 2.02 1.878 3.187.782-.506 1.26-.848 2.886-1.777 3.835-2.192 17.546-3.478 21.939-3.478 3.311 0 4.139-.537 5.804 2.423 2.29 4.07 5.02 6.647 3.43 10.199-2.131 4.756-8.313 10.06-11.454 14.492.209.167.418.295.628.402.5-.108 1.057-.025 1.677.276 3.367-.533 6.645-7 8.896-9.396 2.756-2.928 7.521-9.493 11.623-10.134 14.282-2.23 29.02 4.901 33.16 19.09-7.176-6.2-15.905-12.858-25.57-14.15-9.804-1.307-17.426 9.444-22.934 16.834.418.291.804.496 1.176.662.563-.021 1.16.095 1.792.375 2.375-.159 3.805-3.084 5.796-5.36.323 2.091.611 4.197.819 6.311.263.007.499-.027.715-.091.182-.149.394-.274.656-.358 2.245-1.802 1.168-8.684 2.953-11.472 1.477 3.323 1.862 7.04 1.987 10.636.419.042.769.032 1.084-.003.37-.315.813-.527 1.348-.58 1.092-1.146.286-3.686.081-5.729-.363-3.619-2-5.801.994-7.479 7.908-4.427 21.979 9.09 26.297 13.908-8.697 1.847-17.475 1.016-25.712 4.909-.545-1.812-.958-3.708-1.053-5.61-.215-.022-.415-.018-.607.001-.294.308-.729.512-1.348.58-1.771 1.51-1.718 5.555-.5 7.717 1.71 3.035 2.802-.317 6.728-.874 4.199-.595 22.553-6.03 25.647-2.867 2.414 2.469-2.114 7.399-3.741 9.467-3.911 4.974-7.348 10.336-9.956 16.11-1.181 2.613-5.545 18.05-7.432 18.36-15.277 2.477-30.652 4.098-45.842 7.137 2.383-7.383 4.266-14.911 6.546-22.324 1.65-5.364 4.03-17.819 8.648-21.388 3.366-2.603 10.537.216 13.324-1.87 2.074-1.553 1.842-6.54 1.753-8.766-.485-.022-.875.03-1.2.135-.195.156-.407.285-.656.358-1.498 1.229-.667 4.401-3.521 5.351-2.279.758-5.191.693-7.598 1.286 1.43-2.412 2.999-4.764 4.675-7.01-.304-.199-.599-.356-.888-.483-.542.036-1.135-.082-1.792-.375-3.696.137-5.984 6.095-7.955 9.506-3.01 5.206-5.572 10.866-7.713 16.48-2.102 5.51-3.646 11.205-5.101 16.911-1.33 5.215-.163 13.607-6.938 13.359 4.447-21 10.506-40.44 22.324-58.55-.342-.272-.66-.458-.967-.608-.558.088-1.119.007-1.677-.276-2.177.474-3.337 4.278-4.603 6.494-2.684 4.696-2.593 6.311-7.947 6.779-11.396.996-22.2 4.617-33.543 5.727 1.344-9.186 4.152-17.701 9.233-25.537 2.433-3.752 5.211-7.374 8.378-10.541 2.323-2.322 4.173-3.55 5.249-5.183-.499-.724-1.02-1.502-2.02-3.467-6.311 5.577-12.05 11.627-16.508 18.899-2.91 4.753-11.171 21.439-7.13 26.999 2.222 3.056 9.62.053 12.856-.351 8.918-1.113 17.403-3.704 26.415-4.792-4.671 8.202-7.717 17.311-10 26.443-1.163 4.649-2.295 9.324-3.235 14.02-.778 3.889-.389 3.893-4.273 4.399-2.519.329-5.01.811-7.502 1.298-9.168 1.794-19.17 4.511-28.517 2.337-4.237-.985-8.468-3.129-11.457-6.279-3.679-3.877-5.03-2.9-9.815-3.421-6.04-.657-8.804-4.068-9.409-10.05-.455-4.496 2.82-4.534 6.8-6.173 4.16-1.712 8.26-3.575 12.426-5.282 3.988-1.634 8.01-3.155 12.04-4.675 6.463-2.436 8.01-2.024 8.388-9.207.516-9.804 5.143-19.56 10.662-27.492 3.131-4.5 6.655-8.835 10.636-12.622 2.922-2.781 5.139-4.549 6.789-5.751-.454-.925-.908-1.841-1.402-2.732-9.07 6.82-25.646 22.17-29.06 41.65-.636 3.623.191 11.375-3.086 12.707-4.279 1.739-8.615 3.286-12.955 4.864-5.573 2.026-19.953 4.574-23.51 9.569-1.94 2.724-1.054 11.563-1.052 14.844.002 5.164.413 10.372.892 15.511.691 7.415 1.111 15.805.861 22.24-.811 20.913 2.297 41.29 3.975 62.06.812 10.05 1.766 20.914.285 30.945-.738 4.998-4.758 17.378-.635 21.882 2.464 2.692 7.868 4.02 10.895 6.419 4.25 3.366 8.158 7.179 12.25 10.738 1.723 1.499 3.53 2.801 5.463 4.01 1.984 1.241 2.187 4.303 4.584 5.247 4.316 1.7 8.363-3.166 11.623-5.187 6.568-4.068 17.267-5.895 24.869-8.116 9.253-2.703 18.493-5.529 27.816-8.03 20.09-5.4 40.893-7.16 61.25-11.229 10.53-2.105 20.77-4.532 31-7.794 4.584-1.461 13.07-1.195 13.187-7.4.353-19.05-5.472-37.804-9.05-56.37"/><g fill="#ffbf00"><path d="m121.2 40.845c.618-.068 1.054-.272 1.348-.58-.535.053-.978.265-1.348.58"/><path d="m99.05 37.903c-.621-.302-1.178-.385-1.677-.276.558.283 1.119.364 1.677.276"/><path d="m107.19 41.18c-.633-.28-1.229-.395-1.792-.375.657.294 1.25.411 1.792.375"/><path d="m87.74 79.07c-.156.701-.312 1.402-.468 2.104.156-.701.311-1.402.468-2.104"/><path d="m155.06 53.12c-4.282 7.09-7.288 15.14-9.662 23.05-1.364 4.548-2.151 12.988-8.336 12.48 3.901-13.542 6.01-26.544 17.998-35.53"/><path d="m3.593 93.09c7.871 2.717 15.192 7 23.16 9.416 3.88 1.176 7.917 2.557 11.995 2.776 3.671.197 6.778-1.225 10.544-1.673 15.371-1.831 31.25-4.714 47.01-6.839 18.939-2.554 42.853-.819 60.19-9.719 5.158-2.647 9.408-5.084 13.934-8.677 2.628-2.086 9.412-7.752 9.412-10.938 0-5.888 2.833-10.541-3.683-2.045-7.628 9.946-17.64 18.246-29.98 21.388 2.883-10.783 5.932-21.682 10.944-31.704 2.754-5.507-1.842-10.986 5.886-10.02 4.398.549 8.57 2.553 12.857 3.623-1.492 4-6.526 4.2-9.117 7.246 3.857 5.208 17.18-.899 17.18 5.435 0 4.544-2.724 8.252-3.622 12.563-1.278 6.133-.94 13.257-1.229 19.519-.203 4.427.75 5.869-2.738 8.698-3.197 2.594-6.396 5.188-9.594 7.782 3.942-10.458 12.73-19.615 10.755-31.556-4.184 6.865-7.92 13.967-11.513 21.15-1.846 3.693-3.649 7.409-5.494 11.1-2.387 4.779-4.93 5.612-9.9 7.36-15 5.275-31.403 5.748-46.843 9.353-16.625 3.882-33.491 6.95-50.641 6.654-4.353-.075-8.713-.123-13.06-.459-6.815-.528-6.708-.704-7.714-7.129-.966-6.167.033-14.14-5.142-17.648-3.52 2.915 1.428 18.422 2.104 22.908-8.06-.814-14.587-5.641-20.298-11.03-6.508-6.147-4.878-18.672-5.415-27.535"/><path d="m72.08 151.29c8.279-3.682 16.969-6.625 25.712-8.882-5.153 1.597-10.09 3.128-14.735 6.06-4.362 2.755-11.07 12.669-16.12 11.233 1.94-2.638 5.123-4.881 5.143-8.415"/><path d="m31.643 158.78c-2.751-1.01-5.897-.369-7.947-2.805-.09.206-.261.976-.234.935-1.043-.706-8.299-5.178-3.506-4.383 4.662.772 9.259 1.334 14.14 1.756 6.213.537 10.741-.687 16.25-3.217 4.072-1.87 10.193-2.95 12.154-7.479.1 3.374 4.292-.125 3.974-1.169-.447-1.466-7.283.172-8.415.116 0 .351 0 .702 0 1.053-7.369-4.927-19.656 1.942-27.582-6.312 11.12 1.213 22.307 1.47 33.452.298 5.905-.621 11.716-1.522 17.562-2.566 5.05-.902 12.563-4.646 17.475-2.641-23.18 8.253-42.13 24.477-67.32 26.414"/><path d="m64.13 154.8c-2.272 2.342-4.223 8.216-8.415 5.61 2.805-1.87 5.61-3.74 8.415-5.61"/><path d="m105.04 140.78c9.57-2.385 22.11-7.742 30.389.468-11.152-6.321-24.814-.646-36.467.701 2.046-.332 4.053-.722 6.078-1.169"/><path d="m130.99 134.47c3.21-.487 6.245 1.13 8.882 2.806-3.163.624-6.385-.946-8.882-2.806"/><path d="m119.77 128.39c12.425-3.601 24.764-5.454 36.933-10.05-1.503 5.521-3.695 11.716-2.337 17.473 1.742 7.386 7.78 2.853 11.804.175 4.779-3.181 9.529-7.731 12.1-13.148 1.424-3-.628-9.839-.292-10.343 1.889-2.837 2.094.592 2.803 2.104 2.678 5.707-1.466 10.579-5.18 14.705-2.769 3.077-12.839 12.803-17.376 11.184-5.516-1.968-8.592-7.03-14.375-8.824-7.723-2.393-16.04-2.999-24.08-3.275"/><path d="m169.56 126.05c1.679-3.042 3.396-6.112 4.674-9.35 2.239 3.3-2.066 7.415-4.674 9.35"/><path d="m15.28 154.1c-.86-1.227-.388-2.18-2.104-2.104 0-.39 0-.779 0-1.169 2.191.309 3.154 1.442 2.104 3.273"/><path d="m203.22 223.76c-38.622 13.543-80 14.01-118.95 26.633-9.09 2.945-18.521 5.184-27.316 8.955-4.04 1.734-14.937 10.906-18.524 6.428-4.777-5.964-11.12-10.472-16.562-15.918-5.393-5.395-14.06-9.492-11.313-17.74 3.351-10.06.125-24.584-.53-35.07-.465-7.446-1-14.896-1.697-22.323-.553-5.9-3.388-15.167-1.922-20.617 13.701 9.811 27.28 14.292 44.34 12.553 16.737-1.705 32.8-6.313 49.32-9.27 29.556-5.29 61.704-4.02 83.52-27.828.891 3.313 6.882 23.09 5.367 24.825-6.809 7.813-13.271 12.962-22.563 17.607-15.388 7.693-35.31 7.672-52.1 9.538-16.451 1.828-32.566 6.676-48.981 9.04-8.139 1.172-16.587 2.144-24.807 1.472-5.05-.412-2.704-.524-3.827-4.04-.524-1.642-.739-3.446-1.053-5.142-5.337.731-1.325 6.484-3.973 8.414-2.675 1.949-14.389-5.44-17.297-6.312-.157 10.658 2.847 22.602 14.551 23.668 3.492.318 7.396 7.4 3.974 8.122-7.721 1.626-10.929-5.313-17.356-6.313-2.716-.422-2.382-1.302-1.87 1.754.111.661 1.024 2.03 1.402 2.573 3.519 5.04 9.625 7.07 15.194 8.882 3.952 1.286 4.409.216 5.03 5.03.461 3.58.823 7.173 1.286 10.751.867 6.712 1.886 13.399 4.671 19.631 2.871-3.697-.49-6.998-.752-10.78-.399-5.768-.799-11.535-1.199-17.303-.453-6.542-.469-5.57 6.245-6.06 17.203-1.245 34-5.167 50.758-9.08 34.938-8.163 73.5-9.212 103.2-31.346 4.183 12.16 6.565 26.583 3.74 39.27"/><path d="m180.31 168.83c-6.976 9.282-16.237 18.02-26.882 22.908 4.464-3.507 9.328-6.483 13.768-10.03 4.923-3.938 8.05-9.145 13.11-12.873"/><path d="m152.26 192.44c-.779.545-1.559 1.09-2.338 1.635.779-.545 1.558-1.09 2.338-1.635"/><path d="m137.77 181.68c-2.954 1.635-11.07 8.03-10.286 1.637 3.441-.458 6.858-1.092 10.286-1.637"/><path d="m104.57 208.1c-2.946 1.82-6.095 4.775-9.582 4.909 3.194-1.636 6.388-3.272 9.582-4.909"/><path d="m83.77 198.05c4.644-5.981 10.943-9.696 18.466-10.753-7.099 2.039-10.824 9.709-18.466 10.753"/><path d="m37.721 216.51c-2.335-4.871.412-7.965 5.02-9.349 4.885-1.466 8.351-3.598 12.821-5.828 7.596-3.79 14.889-8.229 23.292-10.07-12.522 10.568-25.86 19.221-41.14 25.24"/><path d="m78.16 205.76c-1.056 1.31-1.64 2.286-3.272 2.338 1.065-.761 2.119-1.722 3.272-2.338"/><path d="m73.25 208.56c-3.302 3.37-7.851 5.616-12.388 6.777 3.722-3.01 8.214-4.547 12.388-6.777"/><path d="m36.785 197.34c4.359-.328 8.562 1.418 12.857 0-4.5 1.941-14.296 9.17-12.857 0"/><path d="m80.5 55.925c3.906 4.449-4.436 5.01-6.883 5.792-8.846 2.823-17.519 5.977-26.1 9.521-7.746 3.199-15.302 7.615-21.874 12.802-3.157 2.492-7.758 5.676-11.995 3.908 20.33-15.245 42.25-25.673 66.854-32.02"/><path d="m48.94 62.704c-.688 2.951-11.03 6.138-14.202 7.787-5.153 2.68-10.5 4.95-15.951 6.939 5.664-4.515 22.725-17.444 30.15-14.726"/></g><g fill="#8b5c29"><path fill-rule="evenodd" d="m82.13 96.36c3.55-20.515 10.135-39.08 22.09-56.22-5.891-3.778-7.977 4.198-10.542 8.662-2.875 5-5.097 10.429-7.143 15.812-4.02 10.577-6.509 21.401-8.847 32.445 1.424-.225 3.082-.243 4.443-.702"/><path d="m120.94 22.966c12.257-.641 22.92 6.828 31.791 14.493-3.56-12.209-17.17-21.697-30.389-19.519-9.05 1.491-17.463 13.14-22.322 20.57 4.98 3.627 7.137-2.238 10.285-5.61 3.344-3.58 6.997-6.671 10.635-9.934"/></g><g fill-rule="evenodd"><path fill="#ffbf00" d="m118.13 30.21c-2.144 3.349-1.753 7.53-1.753 11.337 6.01.597 3.341-7.762 1.753-11.337"/><path fill="#8b5c29" d="m101.3 52.19c-7.271 13.833-10.427 28.944-15.195 43.712 14.7-2.941 29.571-4.5 44.35-6.896 4.09-.663 5.99-12.12 7.794-16.11 2.732-6.05 5.942-11.561 9.795-16.965 1.305-1.831 6.603-7.267 5.845-9.876-1.289-4.443-18.607.526-21.724.967-1.597.227-11.376 2.311-11.294 2.889-.429-3.02-.62-6.02-.759-9.06-6.858-.601-1.7 5.675-5.03 8.766-2.043 1.901-10.486 1.599-13.791 2.572"/></g><path fill="#8b5c29" d="m166.75 55.925c2.591-3.046 7.625-3.247 9.117-7.246-4-.999-7.855-2.78-11.921-3.506-8.765-1.566-3.215 2.691-6.03 8.329-5.301 10.599-8.68 21.865-11.731 33.28 8.728-2.222 16.698-7.105 23.05-13.466 3.123-3.126 6.284-6.496 8.638-10.26.646-1.035 1.168-1.744 1.591-2.173.169-.907.445-1.766.821-2.588-4.065-.523-10.444 1.802-13.533-2.369"/><path fill="#ffbf00" d="m180.28 58.29c-.376.822-.652 1.681-.821 2.588 1.147-1.162 1.56-.202 1.665 2.407.297 7.34-9.904 14.458-14.887 18.415-8.108 6.438-19.229 8.511-29.1 10.485-18.736 3.748-39.28 5.062-58.16 6.981-3.721.378-7.23 1.709-10.869 2.455-2.822.578-10.434-.527-12.272.76-3.73 2.611-15.671 3.223-19.811 2.513-11.508-1.974-21.519-8.04-32.433-11.804.537 8.863-1.093 21.388 5.415 27.535 5.711 5.394 12.237 10.22 20.298 11.04-1.091-7.247-2.181-14.493-3.272-21.74.39-.39.779-.779 1.168-1.168 5.04 3.413 4.02 10.548 4.967 16.538 1.057 6.694.324 7.458 7.387 8.188 4.486.463 9.05.434 13.558.511 17.15.296 34.02-2.771 50.641-6.654 15.439-3.605 31.839-4.078 46.843-9.353 4.729-1.663 7.14-2.426 9.608-6.775 2.03-3.576 3.671-7.418 5.494-11.1 3.659-7.395 7.51-14.69 11.805-21.739 1.976 11.94-6.813 21.1-10.755 31.556 2.768-2.245 5.535-4.489 8.303-6.734 3.997-3.243 3.913-3.378 3.971-8.459.073-6.523.923-13.01 1.227-19.519.206-4.407 4.03-8.507 3.683-12.973-.212-2.747-1.654-3.689-3.651-3.946"/><g fill-rule="evenodd"><path fill="#8b5c29" d="m141.51 87.48c4.566-11.477 7.103-23.674 13.557-34.36-11.987 8.986-14.1 21.988-17.998 35.53 1.545.028 3.098-.351 4.441-1.169"/><g fill="#ffbf00"><path d="m22.76 86.31c10.153-8.01 21.03-13.722 33.05-18.427 5.851-2.29 11.817-4.259 17.8-6.168 2.086-.666 5.559-.354 7.117-2.286 4.587-5.69-10.597-.665-12.762.009-6.483 2.02-12.834 4.46-19.03 7.237-12.71 5.697-24.17 12.928-35.3 21.271 3.411 1.423 6-.478 9.116-1.636"/><path d="m18.787 77.43c5.451-1.989 10.798-4.259 15.951-6.939 3.171-1.649 13.515-4.836 14.202-7.787-7.428-2.718-24.489 10.211-30.15 14.726"/><path d="m159.04 140.78c8.465-3.739 18.326-10.28 22.04-19.19.783-1.88.66-7.69-1-9.441-1.078-1.136-1.961-.715-2.569 1.052.244-.71 1.957 3.285 1.986 3.74.103 1.587-.203 3.29-.701 4.792-2.607 7.872-11.59 14.884-18.935 17.94-9.619 4-4.114-17.811-3.156-21.33-12.169 4.597-24.508 6.451-36.933 10.05 8.04.276 16.355.882 24.08 3.273 5.977 1.851 9.328 7.386 15.194 9.116"/><path d="m174.23 116.7c-1.277 3.238-2.995 6.308-4.674 9.35 2.609-1.935 6.914-6.05 4.674-9.35"/></g></g><g fill="#ffbf00"><path d="m130.99 208.56c-22.312 4.01-44.17 10.4-66.54 14.04-5.766.938-11.542 1.777-17.374 2.199-.854.063-8.199.378-8.171.782.247 3.562.494 7.122.74 10.684.361 5.217.23 10.427 1.875 15.365.847 2.54 1.502 5.112-.292 7.421-2.534-5.669-3.655-11.768-4.446-17.887-.711-5.507.386-16.368-5.489-17.35-5.793-.969-10.906-3.729-15.194-7.715-1.032-.96-4.506-8.117-1.519-6.254 4.991 3.115 9.984 7.13 16.13 7.13 6.05 0 2.551-6.95-1.168-8.297-5.494-1.989-7.103-.132-11.177-6.086-3.411-4.983-4.103-11.775-4.02-17.641 2.909.871 14.623 8.261 17.297 6.312 2.648-1.93-1.364-7.683 3.973-8.414.563 3.048.355 8.815 3.185 9.05 8.708.711 17.277-.181 25.919-1.261 16.572-2.071 32.683-6.855 49.2-9.07 16.484-2.212 36.26-1.479 51.45-9.07 9.31-4.654 16.07-9.51 22.914-17.359 2.377-2.728-3.54-21.22-4.712-25.577-21.517 23.483-52.636 22.299-81.77 27.514-16.472 2.948-32.584 7.699-49.26 9.399-17.828 1.816-31.711-2.029-46.15-12.369-2.055 7.64 1.992 21.13 2.646 29.374.793 9.993 1.299 19.988 1.796 29.999.361 7.271 1.317 13.809-.993 20.745-2.072 6.222 11.223 14.965 15.369 18.875 3.446 3.25 7.649 6.03 10.869 9.467 1.265 1.35 1.941 3.278 3.507 4.323 3.291 2.197 17.527-7.757 21.563-9.174 18.864-6.624 38.09-12.939 57.699-16.823 21.17-4.192 42.935-5.334 63.862-10.772 5.633-1.464 11.02-3.03 16.511-4.957 5.879-2.062 5.182-7.07 5.16-12.971-.033-9.216-1.915-18.995-4.911-27.699-20.306 15.13-43.922 20.18-68.49 24.08"/><path d="m181.94 214.18c-1.048-5.077-.234-16.06 5.612-17.999-.196 4.993-2.399 14.14-5.612 17.999"/><g fill-rule="evenodd"><path d="m57.35 142.41c.629.1.995.159 0 0"/><path d="m95.69 131.66c-21.399 5.651-43.16 8.01-65.22 5.61 7.926 8.254 20.21 1.385 27.582 6.312-.539-.834-.166-.61-.701-1.169 1.608.283 7.224-1.548 8.416-.352 1.372 1.377-3.176 4.828-3.273 1.521-2.063 4.766-7.502 4.763-11.453 7.07-5.432 3.173-10.646 4.172-16.952 3.627-2.687-.232-5.378-.351-8.06-.585-.984-.086-4.817-1.334-5.722-1.113-4.582 1.118.879 2.784 3.156 4.325-.027.041.144-.729.234-.935 6.18 7.343 24.568.597 31.27-2.395 14.979-6.689 28.472-15.687 44-21.22-1.075-.229-2.182-.606-3.274-.7"/><path d="m139.87 137.27c-2.637-1.675-5.672-3.293-8.882-2.806 2.497 1.86 5.719 3.43 8.882 2.806"/><path d="m135.43 141.25c-8.282-8.21-20.819-2.853-30.389-.468 9.493-1.779 21.438-4.607 30.389.468"/><path d="m98.96 141.95c2.043-.236 4.095-.63 6.078-1.169-2.025.447-4.03.837-6.078 1.169"/></g><path d="m91.83 144.17c2-.537 3.986-1.142 5.96-1.753-2 .517-4.03.994-5.96 1.753"/><path fill-rule="evenodd" d="m70.913 159.71c5.362-7.05 12.474-12.638 20.921-15.545-5.167 1.565-15.898 3.164-19.752 7.129-1.461 1.503-3.557 6.258-5.142 8.416 1.262 0 2.735.231 3.973 0"/><path d="m13.177 152c.743.656 1.786.32 2.104 2.104 1.241-2.167-1.127-4.063-2.104-2.104"/><path d="m64.13 154.8c-2.805 1.87-5.61 3.74-8.415 5.61 4.193 2.606 6.143-3.268 8.415-5.61"/><path d="m153.43 191.74c10.605-5.563 19.679-13.323 26.882-22.908-4.873 3.589-7.916 8.439-12.508 12.389-4.507 3.876-9.71 6.855-14.374 10.519"/><g fill-rule="evenodd"><path d="m137.77 181.68c-3.428.545-6.845 1.179-10.286 1.637-.789 6.398 7.332-.002 10.286-1.637"/><path d="m83.77 198.05c7.642-1.044 11.367-8.715 18.466-10.753-7.523 1.057-13.822 4.772-18.466 10.753"/><path d="m52.45 202.96c-4.637 4.524-19.506 3.587-14.726 13.556 15.278-6.02 28.617-14.676 41.14-25.24-9.409 2.058-18.01 7.189-26.413 11.688"/><path d="m183.11 201.32c-.089 4.346-2.071 8.486-1.169 12.857 3.213-3.86 5.416-13.01 5.612-17.999-2.343.78-4.268 2.615-4.443 5.142"/></g><path d="m36.785 197.34c-1.439 9.17 8.357 1.94 12.857 0-4.296 1.418-8.498-.328-12.857 0"/><path fill-rule="evenodd" d="m78.16 205.76c-1.153.616-2.207 1.577-3.272 2.338 1.633-.052 2.216-1.028 3.272-2.338"/><path d="m104.57 208.1c-3.194 1.637-6.388 3.272-9.582 4.909 3.488-.133 6.636-3.089 9.582-4.909"/><path d="m73.25 208.56c-4.175 2.23-8.667 3.771-12.388 6.777 4.537-1.161 9.09-3.407 12.388-6.777"/></g><path fill="#8b5c29" d="m62.27 57.33c-3.143.587-11.631 3.44-13.792.468-4.061-5.587 4.302-22.858 7.47-27.497 3.083-4.515 6.299-8.7 9.999-12.726 1.29-1.404 4.185-3.36 6.318-5.394-.315-.611-.687-1.366-.986-1.976-16.423 13.38-27.25 30.05-28.411 52.03-6.943 2.561-13.881 5.15-20.723 7.969-4.614 1.901-17.379 5.31-18.78 9.329-1.304 3.741 2.139 9.3 5.143 11.1 2.3 1.38 4.772.445 7.246.702 4.635.48 4.877 2.219 8.532 5.142 13.155 10.522 31.31 2.95 45.954 1.039 5.102-.666 4.257-4.408 5.307-9.07.937-4.16 1.896-8.305 3.03-12.418 2.227-8.091 5.01-16.06 9.175-23.375-8.791 1.06-16.85 3.062-25.479 4.675"/><g fill-rule="evenodd"><path fill="#ffbf00" d="m113.45 19.46c.053-.031.045-.033.011-.022-.004.007-.007.015-.011.022"/><path fill="#8b5c29" d="m99.05 2.249c-2.988-.107-22.292 4.554-27.775 7.954.371.72.642 1.23.986 1.976 6.869-1.598 20.442-5.918 27.664-5.02 6.464.808 9.65 6.942 11.895 12.999.043-.012 1.452-.662 1.647-.723 4.083-7.264-8.281-16.971-14.417-17.19"/></g></svg>