<svg width="152.92" xmlns="http://www.w3.org/2000/svg" viewBox="0 0 152.92334 167.08995"><g fill-rule="evenodd" stroke="#000" transform="translate(-230.69-140.3)" stroke-miterlimit="10"><g transform="matrix(1.15046 0 0 .99999-37.905 3.791)"><path stroke-width=".027" d="m295.86 136.6c-2.104.067-3.911.243-5.469.563-3.036.612-4.245 1.688-5.656 3.313-1.385 1.598-2.158 3.64-2.531 6.25.866 1.026.277 1.754 6.775 3.386 1.065-1.465 2.922-2.96 5.319-3.386 2.477-.479 5.757-.619 9.938-.406 1.252-1.811 1.718-3.434 1.531-5.03-.16-1.624-1.068-3.089-2.719-4.5-2.703-.186-5.084-.254-7.188-.188z"/><path fill="#c0c0c0" stroke-width=".03" d="m291.28 145.44c.801-.966 1.057-1.85.769-2.982-.256-1.105-1.057-2.347-2.403-3.617-1.442.607-2.691 1.325-3.62 2.458-.961.994-1.57 2.789-2.082 3.893-.384 1.105-.673 1.933-.609 2.596.769.469 1.378 1.077 1.954 1.933.577.856 1.121 1.822 1.506 3.12.192-2.596-.431-.572.274-1.787.833-1.27 2.834-5.723 4.211-5.613z"/></g><path fill="#c0c0c0" stroke-width=".029" d="m262.39 193.02l-10.764 17.532c0 0-5.213 6.177-6.776 11.317-1.533 5.086-3.524 11.983-3.953 19.865-.368 7.936.858 19.839 1.899 26.977 1.225 6.896 3.125 10.811 4.871 14.62 1.746 3.807 3.37 6.098 5.361 8.095 2.176 1.891 4.749 2.823 6.771 3.409 1.931.453 3.37.373 4.902-.133 1.654-.533 3.279-1.411 4.872-2.743l9.16.612c-1.348 1.971-3.247 3.781-5.361 5.325-2.145 1.598-4.627 3.142-7.567 4.02-2.911.746-6.281 1.917-9.773.639-3.431-1.411-7.414-4.661-10.753-8.708-3.247-4.101-6.22-8.893-8.548-15.712-2.236-7-4.229-16.696-4.658-25.484-.276-8.841 1.409-19.679 2.696-26.977 1.379-7.322 3.555-12.222 5.362-16.564 1.93-4.341 3.614-7.083 5.881-9.347 2.299-2.316 7.571-4.944 10.42-5.609z"/><g transform="matrix(1.15046 0 0 .99999-737.67-832.45)"><path stroke-width=".038" d="m874.02 1078.6c0 5.262-2.304 9.524-5.184 9.524-2.841 0-5.145-4.262-5.145-9.524 0-5.261 2.304-9.523 5.145-9.523 2.88 0 5.184 4.262 5.184 9.523z"/><path fill="#c0c0c0" stroke-width=".027" d="m872.43 1077.9c0 3.649-1.598 6.605-3.595 6.605-1.971 0-3.568-2.956-3.568-6.605 0-3.648 1.598-6.604 3.568-6.604 1.997 0 3.595 2.956 3.595 6.604z"/><path stroke-width=".029" d="m884.03 1073.3c.061 11.133-.637 25.628-4.829 38.41-3.966 13.759-14.287 18.432-22.2.47-4.813-22.449-6.682-36.16-.498-57.782 4.692-13.588 11.934-15.805 17.27-12.32 2.885 5.439 6.907 8.809 10.254 31.22zm5.591-29.99c2.573 5.987 4.595 12.981 5.605 20 1.041 6.853 1.164 13.456.49 21.2-.551 7.778-1.746 17.402-4.166 24.982-2.481 7.525-6.218 15.191-10.506 19.863-4.135 4.532-9.174 6.264-13.891 6.096-4.656-.28-8.554-3.218-12.873-8.812-4.288-5.763-8.02-16.314-10.53-26.33-2.389-10.126-2.29-24.454-1.402-35.784 1.072-11.442 4.051-21.895 8.553-29.756 3.301-5.083 8.893-10.598 14.529-11.856 5.759-1.175 10.713 1.255 14.879 4.976 4.166 3.693 6.831 9.372 9.312 15.415z"/><path fill="#c0c0c0" stroke-width=".027" d="m882.26 1054.2c1.571 4.953 2.343 9.134 2.716 15.712.373 6.578.24 16.244-.399 23.25-.479 6.844-1.039 12.516-2.903 17.842-1.864 5.326-5.166 11.211-8.149 13.768-2.876 2.422-5.992 2.742-9.03.851-2.956-2.023-6.338-5.751-8.708-12.729-2.21-7.163-4.66-19.2-4.873-29.32-.133-10.226 1.225-22.662 3.781-30.731 2.69-8.07 8.04-14.753 11.637-16.883 3.595-2.13 6.87 1.411 9.507 4.474 2.743 3.09 4.847 8.735 6.418 13.768zm5.619-8.788c2.237 5.699 3.994 12.356 4.873 19.04.905 6.524 1.012 12.808.426 20.18-.479 7.404-1.518 16.564-3.622 23.78-2.157 7.163-5.406 14.46-9.134 18.907-3.595 4.314-8.415 7.164-12.516 7-4.048-.266-8.095-3.063-11.85-8.388-3.728-5.486-8.07-14.327-10.252-23.861-2.077-9.639-3.089-22.316-2.317-33.1.932-10.892 3.302-23.726 7.217-31.21 3.968-7.483 11.02-11.77 15.925-12.969 5.01-1.118 9.533 2.397 13.155 5.938 3.622 3.515 5.938 8.921 8.095 14.673z"/></g><path stroke-width=".029" d="m358.96 144.08c-2.42.067-4.499.243-6.292.562-3.493.612-4.884 1.688-6.507 3.312-1.593 1.598-2.483 3.64-2.912 6.25-18.587 2.12-41.678 4-56.705-4.198 2.245 65.14 7.859 74.61-42.17 105.92 8.08.145 59.6 8.445 73.27 6.611 48.27-15.16 32.709-50.21 32.33-99.96.245-2.876.603-4.704 1.798-6.06 1.225-1.465 2.635-1.886 5.393-2.312 2.849-.479 6.623-.619 11.433-.406 1.44-1.811 1.976-3.433 1.762-5.03-.184-1.624-1.228-3.089-3.128-4.5-3.11-.186-5.849-.254-8.269-.188z"/><path fill="#c0c0c0" stroke-width=".032" d="m353.69 152.92c.921-.966 1.216-1.85.885-2.982-.295-1.104-1.216-2.347-2.764-3.617-1.659.607-3.096 1.325-4.165 2.457-1.106.994-1.806 2.789-2.396 3.893-.442 1.104-.774 1.933-.7 2.596.885.469 1.585 1.077 2.248 1.933.663.856 1.29 1.822 1.732 3.12.221-2.596.737-4.501 1.548-5.716.958-1.27 2.027-1.795 3.612-1.684z"/><g transform="matrix(1.15046 0 0 .99999-737.67-830.45)"><path stroke-width=".038" d="m956.47 1083.6c0 5.262-2.304 9.524-5.184 9.524-2.841 0-5.145-4.262-5.145-9.524 0-5.261 2.304-9.523 5.145-9.523 2.88 0 5.184 4.262 5.184 9.523z"/><path fill="#c0c0c0" stroke-width=".027" d="m954.88 1083c0 3.649-1.598 6.605-3.595 6.605-1.971 0-3.568-2.956-3.568-6.605 0-3.648 1.598-6.604 3.568-6.604 1.997 0 3.595 2.956 3.595 6.604z"/><path stroke-width=".029" d="m962.48 1073.1c.061 11.133-.637 26.89-4.829 39.672-3.966 13.759-14.287 18.432-22.2.47-4.813-22.449-6.682-36.16-.498-57.782 4.692-13.588 11.934-15.805 17.27-12.32 2.885 5.439 7.159 8.303 10.254 29.96zm5.591-28.728c2.573 5.987 4.595 12.981 5.605 20 1.041 6.853 1.164 13.456.49 21.2-.551 7.778-1.746 17.402-4.166 24.982-2.481 7.525-6.218 15.191-10.506 19.863-4.135 4.532-9.679 7.526-14.396 7.358-4.656-.28-9.312-3.218-13.63-8.812-4.288-5.763-8.03-15.944-10.543-25.96-2.389-10.126-2.839-22.908-1.951-34.24 1.072-11.442 3.798-24.926 8.301-32.787 4.564-7.861 10.717-12.01 16.353-13.267 5.759-1.175 10.966 2.518 15.13 6.239 4.166 3.693 6.831 9.372 9.312 15.415z"/><path fill="#c0c0c0" stroke-width=".027" d="m960.71 1055.2c1.571 4.953 3.101 9.134 3.474 15.712.373 6.578.24 16.244-.399 23.25-.479 6.844-1.796 12.516-3.66 17.842-1.864 5.326-5.166 11.211-8.149 13.768-2.876 2.423-5.992 2.742-9.03.851-2.956-2.023-6.338-5.751-8.708-12.729-2.21-7.163-4.66-19.2-4.873-29.32-.133-10.226 1.225-22.662 3.781-30.731 2.69-8.07 8.04-14.753 11.637-16.883 3.595-2.13 6.87 1.411 9.507 4.474 2.743 3.09 4.847 8.735 6.418 13.768zm5.619-8.788c2.237 5.699 3.994 12.356 4.873 19.04.905 6.524 1.012 12.808.426 20.18-.479 7.404-1.518 16.564-3.622 23.78-2.157 7.163-5.406 14.46-9.134 18.907-3.595 4.314-8.415 7.164-12.516 7-4.048-.266-8.095-3.063-11.85-8.388-3.728-5.486-8.07-14.327-10.252-23.861-2.077-9.639-3.089-22.316-2.317-33.1.932-10.892 3.302-23.726 7.217-31.21 3.968-7.483 11.02-11.77 15.925-12.969 5.01-1.118 9.533 2.397 13.155 5.938 3.622 3.515 5.938 8.921 8.095 14.673z"/></g></g></svg>