<svg xmlns="http://www.w3.org/2000/svg" viewBox="0 0 432.28 432.28" xmlns:xlink="http://www.w3.org/1999/xlink"><defs><linearGradient id="a"><stop stop-color="#8eff6d"/><stop offset="1" stop-color="#9af978" stop-opacity="0"/></linearGradient><filter color-interpolation-filters="sRGB" id="b"><feGaussianBlur stdDeviation="4.055"/></filter><filter color-interpolation-filters="sRGB" id="c"><feGaussianBlur stdDeviation="1.71203"/></filter><filter color-interpolation-filters="sRGB" id="d"><feGaussianBlur stdDeviation="1.7554"/></filter><filter color-interpolation-filters="sRGB" id="e"><feGaussianBlur stdDeviation="1.88636"/></filter><radialGradient cx="239.83" cy="323.14" id="f" r="203.35" gradientUnits="userSpaceOnUse" gradientTransform="matrix(.78775.45481-.34925.60492 163.76 18.588)"><stop stop-color="#ff70ff"/><stop offset="1" stop-color="#ff70ff" stop-opacity="0"/></radialGradient><radialGradient cx="240.29" cy="320.81" id="g" xlink:href="#a" r="152.3" gradientUnits="userSpaceOnUse" gradientTransform="matrix(1.3666-.36617.33705 1.2579-193.58 2.691)"/><linearGradient spreadMethod="reflect" id="h" x1="1058.5" gradientUnits="userSpaceOnUse" x2="1265.8" gradientTransform="translate(-1024.5-2.566)"><stop stop-color="#7eeebc" stop-opacity=".82"/><stop offset="1" stop-color="#fdffdc" stop-opacity=".8"/></linearGradient><linearGradient spreadMethod="reflect" id="i" y1="532.97" y2="105.9" gradientUnits="userSpaceOnUse" x2="0" gradientTransform="matrix(0 1-1 0 559.35 79.59)"><stop stop-color="#525252" stop-opacity=".635"/><stop offset="1" stop-color="#ececec" stop-opacity=".435"/></linearGradient><linearGradient spreadMethod="reflect" id="j" xlink:href="#i" x1="175.67" gradientUnits="userSpaceOnUse" x2="298.9" gradientTransform="matrix(0 1-1 0 559.35 79.59)"/><linearGradient id="k" xlink:href="#a" x1="35.581" gradientUnits="userSpaceOnUse" x2="182.33" gradientTransform="translate(2.629-2.566)"/><radialGradient cx="238.03" cy="319.44" id="l" xlink:href="#a" r="115.58" gradientUnits="userSpaceOnUse" gradientTransform="matrix(1 0 0 1.8479 2.629-273.43)"/><linearGradient id="m" xlink:href="#i" x1="18.1" gradientUnits="userSpaceOnUse" x2="456.46" gradientTransform="translate(2.629-2.566)"/><linearGradient id="n" xlink:href="#i" y1="221.99" x1="240.53" y2="363.9" gradientUnits="userSpaceOnUse" x2="236.75" gradientTransform="translate(2.629-2.566)"/><radialGradient cx="239" cy="315.98" id="o" xlink:href="#a" r="211.06" gradientUnits="userSpaceOnUse" gradientTransform="matrix(1.3872 0 0 1.187-93.1-61.66)"/><linearGradient spreadMethod="reflect" id="p" xlink:href="#i" x1="20.329" gradientUnits="userSpaceOnUse" x2="235.78" gradientTransform="translate(2.629-2.566)"/><linearGradient id="q" xlink:href="#a" x1="293.55" gradientUnits="userSpaceOnUse" x2="446.11"/></defs><g color="#000" transform="translate(-24.688-100.73)"><path fill="#a1ea7f" d="m239.91 107.8c-115.46 0-209.06 93.6-209.06 209.06s93.6 209.06 209.06 209.06 209.06-93.6 209.06-209.06-93.6-209.06-209.06-209.06m0 133.06c41.967 0 76 34.03 76 76s-34.03 76-76 76-76-34.03-76-76 34.03-76 76-76"/><path fill="url(#p)" d="m452.51 316.87c0-117.42-95.18-212.6-212.6-212.6s-212.6 95.18-212.6 212.6 95.18 212.6 212.6 212.6 212.6-95.18 212.6-212.6m-186.04 0c0 14.677-11.886 26.563-26.563 26.563s-26.563-11.886-26.563-26.563 11.886-26.594 26.563-26.594 26.563 11.917 26.563 26.594"/><g fill="url(#o)"><path filter="url(#e)" d="m48.816 238.18c-7.206 17.969-11.999 37.09-14.03 56.844l129.63 12.25c.864-7 2.686-13.787 5.323-20.16l-120.92-48.93z"/><path filter="url(#e)" d="m314.2 329.03c-.816 5.171-2.169 10.18-3.969 15l120.92 48.906c4.891-12.667 8.57-25.846 10.954-39.438l-127.9-24.47z"/><path filter="url(#e)" d="m185.4 370.53l-87.78 97.75c7.03 6.781 14.521 13.05 22.4 18.75l73.35-109.28c-2.824-2.205-5.47-4.626-7.969-7.219z"/></g><path fill="url(#q)" filter="url(#b)" d="m413.47 209.9l-110.19 66.938c3.606 5.693 6.461 11.907 8.438 18.5l124.66-33.06c-5.178-18.664-12.962-36.28-22.906-52.37z"/><path fill="url(#n)" d="m239.91 288.2c-15.831 0-28.668 12.837-28.668 28.668s12.837 28.668 28.668 28.668 28.668-12.837 28.668-28.668-12.837-28.668-28.668-28.668m0 .822c15.378 0 27.846 12.469 27.846 27.846 0 15.378-12.469 27.846-27.846 27.846-15.378 0-27.846-12.469-27.846-27.846 0-15.378 12.469-27.846 27.846-27.846"/><path fill="url(#m)" d="m239.91 247.72c-38.19 0-69.15 30.963-69.15 69.15 0 38.19 30.963 69.15 69.15 69.15 38.19 0 69.15-30.963 69.15-69.15 0-38.19-30.963-69.15-69.15-69.15m0 1.982c37.09 0 67.17 30.07 67.17 67.17s-30.07 67.17-67.17 67.17-67.17-30.07-67.17-67.17 30.07-67.17 67.17-67.17"/><g fill="url(#l)"><path filter="url(#b)" d="m239.94 113.03c-19.84 0-38.992 2.838-57.12 8.125l38.41 123.16c5.986-1.541 12.252-2.375 18.719-2.375 14.537 0 28.13 4.115 39.625 11.281l66.938-110.12c-31.01-19.05-67.5-30.06-106.56-30.06z"/><path filter="url(#b)" d="m278.63 381.06c-11.294 6.82-24.535 10.75-38.688 10.75-13.96 0-27.03-3.819-38.22-10.469l-66.906 110.19c30.697 18.519 66.66 29.19 105.12 29.19 36.01 0 69.86-9.362 99.22-25.75l-60.52-113.91z"/></g><path fill="#a9c386" filter="url(#b)" d="m104.5 164.56c-9.352 8.325-17.938 17.506-25.625 27.406l103.59 76.875c2.954-3.531 6.203-6.784 9.75-9.719l-87.71-94.56z"/><g fill="url(#f)"><path filter="url(#d)" d="m344.75 499.72c11.895-6.606 23.17-14.373 33.688-23.312l-84.59-101.6c-3.931 3.46-8.178 6.478-12.656 9.03l63.56 115.88z"/><path filter="url(#d)" d="m41.16 371.12l127.03-36.84c-.808-3.526-1.35-7.104-1.656-10.719l-130.97 18.625c1.188 9.774 3.054 19.444 5.594 28.938z"/><path filter="url(#d)" d="m318.75 303.93l131.38-15.16c-1.75-12.732-4.651-25.283-8.688-37.469l-126.38 39c1.646 4.424 2.875 8.976 3.688 13.625"/></g><path fill="url(#k)" filter="url(#b)" d="m168.94 340.84l-121 44.562c4.526 12.681 10.268 24.745 17.09 36.13l110.19-66.9c-2.538-4.341-4.648-8.942-6.281-13.781z"/><path fill="url(#j)" d="m239.91 378.49c34.03 0 61.61-27.589 61.61-61.61s-27.589-61.61-61.61-61.61-61.61 27.589-61.61 61.61 27.589 61.61 61.61 61.61m0-1.766c-33.05 0-59.848-26.798-59.848-59.848s26.798-59.848 59.848-59.848 59.848 26.798 59.848 59.848-26.798 59.848-59.848 59.848"/><path fill="url(#i)" d="m179.59 316.87c0 33.31 27.01 60.32 60.32 60.32s60.32-27.01 60.32-60.32-27.01-60.32-60.32-60.32-60.32 27.01-60.32 60.32m1.729 0c0-32.357 26.24-58.59 58.59-58.59 32.357 0 58.59 26.24 58.59 58.59 0 32.357-26.24 58.59-58.59 58.59-32.357 0-58.59-26.24-58.59-58.59"/><path fill="url(#h)" filter="url(#b)" d="m237.69 113.03c-38.464 0-74.43 10.669-105.12 29.19l66.906 110.19c11.192-6.649 24.26-10.469 38.22-10.469 14.15 0 27.394 3.93 38.688 10.75l60.53-113.91c-29.359-16.388-63.21-25.75-99.22-25.75zm39.625 267.5c-11.491 7.166-25.09 11.281-39.625 11.281-6.467 0-12.732-.834-18.719-2.375l-38.41 123.16c18.13 5.287 37.28 8.125 57.13 8.125 39.06 0 75.56-11.01 106.56-30.06l-66.938-110.12z"/><g fill="#97bd84" fill-opacity=".974"><path filter="url(#b)" d="m376.44 167.75l-85.87 96.25c2.494 2.495 4.78 5.172 6.906 8l98.59-83.22c-6.04-7.461-12.609-14.502-19.625-21.03"/><path filter="url(#b)" d="m58.941 218.72c-6.408 11.62-11.688 23.882-15.75 36.719l122.53 40.16c1.456-4.896 3.403-9.57 5.781-14l-112.56-62.875z"/><path filter="url(#b)" d="m310.07 335.87c-1.736 6.661-4.384 12.961-7.781 18.781l112.56 62.906c9.353-16.45 16.503-34.35 21-53.19l-125.78-28.5z"/><path filter="url(#b)" d="m181.85 367.03l-100.72 80.59c8.04 9.615 16.946 18.489 26.594 26.469l84.22-97.69c-3.652-2.804-7.01-5.954-10.09-9.375z"/></g><path fill="#333" d="m239.91 109.59c-114.47 0-207.28 92.81-207.28 207.28s92.81 207.28 207.28 207.28 207.28-92.81 207.28-207.28-92.81-207.28-207.28-207.28m0 1.406c113.69 0 205.88 92.19 205.88 205.88s-92.19 205.88-205.88 205.88-205.88-92.19-205.88-205.88 92.19-205.88 205.88-205.88"/><g fill="url(#g)"><path filter="url(#c)" d="m391.1 180.59c-8.325-9.352-17.506-17.938-27.406-25.625l-76.875 103.59c3.531 2.954 6.784 6.203 9.719 9.75l94.56-87.72z"/><path filter="url(#c)" d="m345.76 489.56l-66.938-110.19c-5.693 3.606-11.907 6.461-18.5 8.438l33.06 124.66c18.664-5.178 36.27-12.962 52.38-22.906z"/><path filter="url(#c)" d="m196.04 377.56c-2.904-2.02-5.666-4.223-8.25-6.625l-93.06 89.31c6.78 6.774 14.04 13.07 21.719 18.844l79.59-101.53z"/></g><path fill="#4d4d4d" d="m239.91 240.87c-41.967 0-76 34.03-76 76s34.03 76 76 76 76-34.03 76-76-34.03-76-76-76m0 5.889c38.715 0 70.11 31.396 70.11 70.11s-31.396 70.11-70.11 70.11-70.11-31.396-70.11-70.11 31.396-70.11 70.11-70.11"/></g></svg>