<svg xmlns="http://www.w3.org/2000/svg" viewBox="0 0 16 16"><g fill="#ac39ac"><g stroke="#da8dda" stroke-width=".477"><path d="m1.037 2.502h14.09"/><path d="m1.037 5.496h14.09"/><path d="m1.037 8.49h14.09"/><path d="m1.037 11.483h14.09"/><path d="m1.037 14.477h14.09"/></g><g stroke="#ac39ac" stroke-linejoin="round" transform="matrix(.03438 0 0 .03432-1.825-1.733)"><circle cx="101.27" cy="408.15" r="52.17" stroke-linecap="round" stroke-width="10" transform="translate(76.72-6.138)"/><g stroke-width="20"><path d="m225.88 162.78c-2.613.041-5.193 1.155-7.01 3.03-1.821 1.874-2.862 4.484-2.83 7.097v193.44c-9.518-10.149-23.02-16.5-38.03-16.5-28.812 0-52.19 23.344-52.19 52.16 0 28.812 23.375 52.19 52.19 52.19 26.28 0 53.24-16.723 57.63-48.719.141-.115.461-5.413.406-9.469v-223.09c.033-2.665-1.052-5.326-2.939-7.208-1.887-1.882-4.552-2.959-7.217-2.917z"/><path d="m401.01 92.2c-2.613.041-5.193 1.155-7.01 3.03-1.822 1.874-2.862 4.484-2.83 7.097v193.44c-9.518-10.149-23.02-16.5-38.03-16.5-28.812 0-52.19 23.344-52.19 52.16 0 28.812 23.375 52.19 52.19 52.19 26.28 0 53.24-16.723 57.63-48.719.141-.115.461-5.413.406-9.469v-223.09c.033-2.665-1.052-5.326-2.939-7.208-1.887-1.882-4.552-2.959-7.217-2.917z"/></g><path stroke-linecap="round" stroke-width="40" d="m227.86 170.62l171.08-67.815"/></g></g></svg>