<svg viewBox="0 0 218.184 265.487" enable-background="new 0 0 218.184 265.487" width="220" xmlns="http://www.w3.org/2000/svg" height="220"><g transform="translate(25.478-.249)"><path fill="#047391" d="m213.12 217.44c-6.4.89-13.2 3.399-19.97 4.75-5.4 1.069-10.79 1.409-15.94-.391 6.28-.12 12.49-.74 18.65-2.02 1.689-.351 5.239-1.521 8.699-2.36 3.791-.9 7.471-1.4 8.561.021"/><path d="m195.34 209.98c.22 2.461-.79 2.11-2.41 2.641.67-.951 1.62-1.771 2.41-2.641"/><path fill="#023f4f" d="m191.43 147.79c1.641 4.7 3.82 9.88 4.94 14.47-9.15 1.48-18.1 3.99-27.07 6.3-.189.051-.38.101-.57.15-4.97 1.35-7.03 2.72-9.189-2.32-1.36-3.18-2.93-6.52-3.61-9.93-.84-4.21 6.17-4.5 9.92-5.45 3.29-.83 6.63-1.58 9.96-2.3 1.431-.31 2.851-.61 4.271-.91 3.308-.689 10.09-3.59 11.348-.01m-16.4 9.19c2.59-1.109 9.449 6.4 9.29-1.489-.85-5.651-8.43-3.071-9.29 1.489"/><path fill="#047391" d="m182.03 143.6c2.489-.569 4.96-1.029 7.34-1.3-4.66 1.101-9.29 3.21-14.04 4.2-1.92.39-3.851.61-5.811.5 4.101-1.179 8.341-2.44 12.511-3.4"/><path fill="#8c8c8c" d="m179.74 156.06c.81-2.989 2.149-2.109 1.83.23-.61-.07-1.22-.15-1.83-.23"/><path d="m181.57 156.29c.319-2.34-1.021-3.22-1.83-.23.61.08 1.22.16 1.83.23m2.75-.799c.159 7.89-6.7.38-9.29 1.489.86-4.56 8.44-7.14 9.29-1.489"/><g fill="#047391"><path d="m171.25 206.54c.6 1.39 5.46 10.63 2.29 10.04-1.75-.33-3.5-4.68-4.95-9.38-1.45-4.71-2.6-9.78-3.11-11.57-2.14-7.38-4.5-14.86-7.31-22.02 5.08 2.08 3.72 10.17 7 14l.61-.12c1.26 6.52 2.82 12.93 5.47 19.05"/><path d="m165.17 187.61c3.28-8.761-8.11-13.761 4.09-16.91.46-.12.96-.24 1.5-.351 8.641-1.85 17.05-3.729 25.84-4.88 5.721 15.01 12.12 29.931 15.431 45.71.79 3.8-3.23 3.471-6.601 4.311-.42.1-.84.21-1.26.31-2.86.7-5.74 1.38-8.6 2.101-2.33.579-4.75-1.271-7.801-.181-2.899 1.04-6.01 1.95-8.38-.63.94-.53 2.311-.86 1.261-2.06-.311-.36-1.721.199-1.721.33-.399-.631-2.83-2.851-3.63-4.32-4.08-7.54-4.38-16.771-9.56-23.771.01.07.029.15.04.221zm27.76 25.01c1.62-.53 2.63-.18 2.41-2.641-.79.87-1.74 1.69-2.41 2.641"/></g><g fill="#fff"><path d="m165.4 85.05c.68.88.159 1.34.109 2.41-.039-.799-.079-1.609-.109-2.41"/><path d="m165.4 109.72c0 .15.63 1.15.109 2.18-.699-.56-.229-1.15-.109-2.18"/></g><g fill="#047391"><path d="m153.92 149.98c3.83-.8 7.65-1.6 11.48-2.409-3.39 2.399-7.44 2.819-11.48 2.409"/><path d="m183.41 227.42c-4.9 1.63-22.16 1.18-24.23 6.18l-.439-.08c.37-.949.609-2.22-.92-1.46-.92.46-1.29-1.58-1.141-2.229.48-2.101 8.7-4.54 11.42-5.7 7.75-3.321 8.8 4.23 15.31 3.289"/><path d="m159.09 233.84c5.76-.41 11.561-.88 17.26-1.87 4.03-.689 13.38-1.22 15.771-4.21-2.04-.47-4.19-.28-6.311-.46 1.521-1.479 4.431-2.54 7.721-3.35 4.81-1.2 10.439-1.86 13.739-2.5 2.4-.46 6.631-2.141 5.5 1.779-.47 1.65-1.529 3.23-2.75 3.961-4.899-.37-10.29-1.921-15.03.109-2.95 1.271-1.88 2.13-6.08 3.33-9.681 2.771-22.79 1.71-31.2 8.03-.44-1.771.62-3.72.57-4.23.04 0 .26-.42.46-.91l.439.08c-.04.081-.07.161-.09.241"/><path d="m152.09 154.69c2.73 5.04 4.51 10.529 6.65 15.829-3.87-.199-5.94-12.18-6.65-15.829"/></g><path d="m153.92 149.98c4.04.41 8.09-.01 11.48-2.409-3.83.809-7.65 1.609-11.48 2.409m4.82 20.54c-2.141-5.3-3.92-10.79-6.65-15.829.71 3.649 2.78 15.63 6.65 15.829m8.1 37.24c-5.1-16.11-11.61-31.91-16.82-48.02-.949-2.95-4.38-9.99-2.29-12.4.591-.68 8.65-1.149 9.94-1.479 7.87-1.96 15.91-2.95 23.79-4.74l.57 2.479c-4.17.96-8.41 2.221-12.511 3.4 1.96.11 3.891-.11 5.811-.5l.479 2.21c-3.33.72-6.67 1.47-9.96 2.3-3.75.95-10.76 1.24-9.92 5.45.681 3.41 2.25 6.75 3.61 9.93 2.16 5.04 4.22 3.67 9.189 2.32l.53 1.99c-12.2 3.149-.81 8.149-4.09 16.91-3.28-3.83-1.92-11.92-7-14 2.81 7.159 5.17 14.64 7.31 22.02.511 1.79 1.66 6.86 3.11 11.57z"/><g fill="#047391"><path d="m136.94 42.03c3.26.67 19.569-.58 19.39 2.18-1.59.12-3.19.22-4.79.28-4.99.2-10 .08-14.94-.62.11-.62.23-1.229.34-1.84"/><path d="m155.87 35.38c1.79 6.65-6.04 4.41-9.63 4.01-3.03-.34-6.44.55-9.49.81-.01 0-.021 0-.03 0-.779-3.81 2.2-9.25-1.84-11.82 2.85-.65 5.91-.33 8.85.23 1.07.21 2.12.45 3.141.69 5.739 1.35 6.469.841 8.999 6.08"/><path d="m153.12 236.02c.33 2.62-.561 5.82-1.03 7.921-.29-2.7.38-5.311 1.03-7.921"/><path d="m153.12 231.43c-.5 1.21.12 2.25-1.61 1.61.01-.99.34-2.13.58-3.1 1.13.181.83.751 1.03 1.49"/><path d="m150.48 232.81c-.89 1.71-2.47 2.45-4.359 1.841.66-2.2 2.44-3.46 4.359-1.841"/><path d="m149.91 235.91c1.229 6.95-3.28 9.64-8.82 10.83-2.229.47-4.63.7-6.899.87.029-.66.1-1.28.199-1.86 1.35-7.831 8.69-7.93 15.52-9.84"/></g><path d="m165.51 111.9c.521-1.03-.109-2.03-.109-2.18-.121 1.03-.591 1.62.109 2.18m0-24.44c.05-1.07.57-1.53-.109-2.41.029.801.069 1.611.109 2.41m-9.18-43.25c.18-2.76-16.13-1.51-19.39-2.18l-.19-1.83c3.05-.26 6.46-1.15 9.49-.81 3.59.4 11.42 2.64 9.63-4.01-2.53-5.24-3.26-4.73-9-6.08-1.021-.24-2.07-.48-3.141-.69l.57-2.79c1.47.3 2.95.6 4.42.9 5.931 1.2 7.62.37 9.91 5.33 3.53 7.67 5.09 17.39 7.13 25.57 4.71 18.8 12.141 37.36 18.05 55.86 6.261 19.63 13.14 39.02 20.03 58.44 3.74 10.521 7.54 21.02 11.1 31.61 3.09 9.16 5.02 14.14-.561 22.51-1.11 1.66-2.05 2.6-3.09 3.2l-1.271-2.05c1.221-.73 2.28-2.311 2.75-3.961 1.131-3.92-3.1-2.239-5.5-1.779-3.3.64-8.93 1.3-13.739 2.5l-.38-1.76c6.77-1.351 13.569-3.86 19.97-4.75-1.09-1.421-4.771-.921-8.561-.021l-.39-1.62c.42-.1.84-.21 1.26-.31 3.37-.84 7.391-.511 6.601-4.311-3.311-15.779-9.71-30.7-15.431-45.71-8.79 1.15-17.199 3.03-25.84 4.88-.54.11-1.04.23-1.5.351l-.53-1.99c.19-.05.381-.1.57-.15 8.97-2.31 17.92-4.819 27.07-6.3-1.12-4.59-3.3-9.77-4.94-14.47-1.26-3.58-8.04-.68-11.35.01-1.42.3-2.84.601-4.271.91l-.479-2.21c4.75-.99 9.38-3.1 14.04-4.2-2.38.271-4.851.73-7.34 1.3l-.57-2.479v-.01c2.16-.48 4.3-1.03 6.42-1.681-6.14-18.05-13.939-35.52-19.39-53.81-.601 7.59-1.9 15.56-1.061 23.18.721 6.37 1.8 13.82-1 19.84-1.46-1.39-1.729-3.44-1.609-5.39-.511 3.04 1.63 5.88.229 8.84-5.42-24.8-3.729-50.19-6.77-75.26-.311-2.59-.71-8.18-3.21-9.41-.75-.36-2.08-.4-3.45-.34l-.08-2.59c1.603-.058 3.203-.159 4.793-.279"/><path d="m147.84 73.69c.4 3.12.811 6.23.811 9.38 0 2.45.739 4.78.8 6.11.109 2.55.26 4.95-1.95 6.66-4.29-13.62-.94-28.12-4.59-41.76l1.67-.78c2.409 5.17 2.969 18.11 3.259 20.39"/><path fill="#fff" d="m137.17 235.45c.91-.471.76-1.28 2.07-.69-.53.209-1.58.44-2.07.69"/><path d="m136.49 58.783c.46 1.31.359 2.78-.23 4.13-.84-1.51-.87-2.99.23-4.13"/><g fill="#047391"><path d="m136.26 62.914c.59-1.35.69-2.82.23-4.13-1.1 1.139-1.07 2.619-.23 4.13m1.37-10.321c1.01-1.47 1.36-3.26 1.49-5.05-.19 2.33-.38 4.66-.57 7-.17-.39-.31-.98-.46-1.38-1.77 2.02.75 4.61.521 7.17-.37 4.07-2.28 8.94 1.779 11.87 1.98-3.04 1.021-6.8 1.03-10.21.34 1.82.44 3.64 1.26 5.28.971-4.35.971-8.81.23-13.19 3.649 13.64.3 28.14 4.59 41.76 2.21-1.71 2.06-4.11 1.95-6.66-.061-1.33-.8-3.66-.8-6.11 0-3.15-.41-6.26-.811-9.38-.29-2.28-.85-15.22-3.26-20.39-.91-1.95-2.09-2.79-3.62-1.52-.65-5.07 3.08-4.47 6.83-4.47.89 0 2.38-.17 3.83-.23 1.37-.06 2.7-.02 3.45.34 2.5 1.23 2.899 6.82 3.21 9.41 3.04 25.07 1.35 50.46 6.77 75.26 1.4-2.96-.74-5.8-.229-8.84-.12 1.95.149 4 1.609 5.39 2.8-6.02 1.721-13.47 1-19.84-.84-7.62.46-15.59 1.061-23.18 5.45 18.29 13.25 35.76 19.39 53.81-2.12.65-4.26 1.2-6.42 1.681v.01c-7.88 1.79-15.92 2.78-23.79 4.74-1.29.33-9.35.8-9.94 1.479-2.09 2.41 1.341 9.45 2.29 12.4 5.21 16.11 11.721 31.91 16.82 48.02.37 1.16.73 2.32 1.08 3.48.98 3.239 2.12 6.93.23 9.07-1.271 1.431-5.94 2.721-7.801 3.091-4.649.93-4.77 1.399-6.43-3.9-1.12-3.61-2.37-7.17-3.61-10.73-.449-1.29-.899-2.59-1.34-3.88-6.7-19.64-13.09-39.55-19.01-59.45-3.46-11.621-6.66-23.311-9.99-34.971-1.569-5.51-3.08-11.03-4.72-16.52-1.33-4.47-5.13-10.58-3.43-15.09 5.26 2.19 9.779 4.95 14.68 7.8 6.96 4.04 7.75 1.67 7.06-6.16-.96-10.84 1.7-22.02 2.24-32.85 1.861 1.37.291 3.13 1.831 4.94"/><path d="m133.62 240.61c-.28 1.54-.36 3.31-.811 4.84-.34 1.18-.899 2.21-1.949 2.85-.17-.34-.45-1.46-.301-2.25.101-.49.351-.85.881-.85 1.88 0 1.43-3.271 2.18-4.59"/><path d="m129.43 173.73c.011-.069 0-.159-.04-.25l2.771-.899c5.03 15.61 9.93 31.25 14.54 46.92 1.95 6.64 3.34 8.7-3.391 6.77-3.43-.979-5.77 8.07-7.08 2.921-1.81-7.091-4.05-14.04-6.38-20.971-3.409-10.17-6.989-20.279-9.649-30.7 4.859 1.939 8.099 3.02 9.229-3.791"/><path d="m128.89 162.54c1.101 3.34 2.181 6.689 3.271 10.04l-2.771.899c-.479-1.21-4.699-4.18-6.439-3.649-1.88.57-2.4 3.729-4.02 4.82-6.72-17.78-12.97-35.78-18.68-53.92l1.82-.57c.31.88 5.98 3.43 7 2.58 2.06-1.72 3.63-3.99 4.59-6.48 5.06 15.401 10.2 30.82 15.23 46.28"/><path d="m129.26 244.4c-.09.449-.18.899-.28 1.359-.319 1.351-.76 2.681-1.56 3.8-.24-1.21-.14-2.42.35-3.439.33-.67.82-1.26 1.49-1.72"/></g><path fill="#8c8c8c" d="m123.64 173.61c2.02-1.33 2.73 1.31 2.641 2.3-1.981 1.879-4.841-.84-2.641-2.3"/><path d="m127.31 76.68c.42-1.92.58-3.88.58-5.86h1.25c0 3.6 0 7.19 0 10.79-8.16-9.72-18.489-18.77-29.02-25.81 5.03-4.691 22.94 17.38 27.19 20.88"/><g fill="#fff"><path d="m115.08 3.684c.63.12 1.27.26 1.899.38-.289-.021-1.319-.251-1.899-.38"/><path d="m114.83 3.633c.08.01.17.03.25.05-.101-.019-.18-.039-.25-.05"/></g><path fill="#047391" d="m110.33 92.16c7.54 24.23 14.91 48.51 22.83 72.62 3.97 12.09 8.1 24.12 12.27 36.14.891 2.55 2.02 5.44 3.08 8.47 1.87 5.311 3.53 11.02 3.351 15.96-2.65-2.18-3.471-9.359-4.591-12.62-2.199-6.43-4.85-12.72-7-19.16-3.479-10.45-7.14-20.83-10.54-31.3-1.14-3.489-2.239-6.989-3.3-10.51-4-13.25-6.729-27.07-11.399-40.09-4.42-12.37-9.391-24.35-11.47-37.4 3.319 5.37 4.999 12.43 6.769 17.89"/><path fill="#8c8c8c" d="m106.66 117.29c.24-3.23 3.399-.39 3.33 1.37-1.37 1.59-3.52 1.18-3.33-1.37"/><path fill="#047391" d="m104.94 237.17c.529-1.76 1.069-3.52 1.6-5.28-.35 1.91-.45 4.231-1.6 5.28"/><path fill="#fff" d="m106.54 3.263c-.89.15-1.78.29-2.67.43.89-.21 1.79-.37 2.67-.43"/><g fill="#047391"><path d="m100.25 120.73c-1.49-4.74-2.95-9.48-4.36-14.24-1.76-5.91-3.52-11.83-5.18-17.77-1.03-3.7-3.73-8.58-1.95-12.39 1.66-3.54 8.21-4.9 11.82-3.21 2.86 14.26 8.7 27.72 12.04 41.87-1.93-1.3-4.86-3.44-6.99-1.66-1.76 1.46-4.38 4.48-3.56 6.83z"/><path d="m100.12 55.803c10.53 7.04 20.859 16.09 29.02 25.81 0-3.6 0-7.19 0-10.79.011-14.73.141-29.44 1.04-44.16 2.84 12.99-.2 27.97.261 41.24.109 3.36.14 6.74.369 10.1.28 4.01 1.591 7.71-2.899 4.22-6.03-4.69-11.19-10.36-16.78-15.52-2.49-2.31-5.46-5.78-8.49-7.35-1.06-.55-2.48 1.77-3.67.35-2.64-3.17 4.08-11.09 5.51-13.77 3.45-6.48 5.7-13.64 8.591-20.39 1.399-3.27 3-6.44 4.729-9.55 2.5-4.49 1.78-5.63.33-10.67 3.14 6.86 9.5 13.81 9.521 21.68-.641 8.74-1.15 17.33-1.15 26.04 0 5.78 1.39 11.88 1.39 17.78 0 1.98-.16 3.94-.58 5.86-4.252-3.499-22.16-25.57-27.19-20.88"/></g><path fill="#023f4f" d="m52.742 13.813c16.83-4.53 33.91-7.29 51.09-10.11-2.68.65-5.34 1.84-7.5 2.88 2.33.08 9.04 2.86 8.6 5.59-1.43 8.78-6.87 11.57-14.61 12.78-.8.12-1.63.23-2.48.33-3.65.42-7.31.56-10.95 1.15-1.86.3-3.44.8-5.22 1.41-1.43.49-.71-1.37-1.72-1.64-6.28-1.69-11.67-7.69-17.21-12.39"/><g fill="#047391"><path d="m98.51 64.52c1.53.61 3.12 1.98 3.56 2.98-1.11.83-2.78 1.46-4.02 1.95.16-1.64.31-3.289.46-4.93"/><path d="m96.56 240.73c.92-1.039 2.53-1.63 4.13-1.609-1.35.57-2.75 1.12-4.13 1.609"/></g><path fill="#022d38" d="m90.37 31.763c7.36-.36 7.91 5.6 9.75 11.76-2.37 1.12-7.87 3.13-12.73 4.07-3.12.6-5.98.76-7.58-.05-3.43-1.73-4.27-9.49-5.96-12.62 3.8-.82 7.49-1.87 11.28-2.54 1.72-.3 3.46-.529 5.24-.62"/><path fill="#023f4f" d="m98.4 47.19c-.62 4.14-4.21 6.87-4.7 11.13-3.49-1.04-6.45-3.29-9.24-5.63-.87-.72-1.73-1.46-2.58-2.17 1.91-.69 3.84-1.16 5.78-1.53 3.55-.68 7.15-1.039 10.74-1.8"/><path fill="#8c8c8c" d="m94.61 63.833c.2.24 1.37 2.05 1.38 2.06-1.71 3.07-5.69.39-1.38-2.06"/><path fill="#023f4f" d="m90.66 27.08c2.66-.42 5.35-.74 8.08-.94 4.78-.35 6.581-.45 5.85 4.65-.36 2.57-2.16 5.75-2.75 7.91-1.35-2.87-2.7-5.75-4.05-8.63-1.64-3.5-3.22-1.76-6.73-1.12-2 .37-4.14.83-6.31 1.21-3.41.6-6.9.97-10.1.4 5.35-1.41 10.63-2.64 16.01-3.48"/><g fill="#047391"><path d="m82.45 244.51c3.02-2.84 7.63-2.03 11.36-2.979-3.73 1.299-7.38 2.699-11.36 2.979"/><path d="m104.7 147.25c-4.33-13.76-8.58-27.54-12.95-41.29-1.78-5.63-3.23-11.46-5.17-17.01-.77-2.23-2.36-4.41-1.72-6.77 11.49 32.93 21.01 67.3 33.5 99.47 1.26 3.31 6.1 15.6 9.96 27.08 3.62 10.79 6.38 20.881 4.489 22.13-2.659-7.32-5.26-14.65-7.81-22-7.099-20.419-13.809-40.97-20.299-61.61"/><path d="m107 229.25c-3.1-10.1-7.37-19.91-10.77-29.95-1.79-5.26-3.34-10.59-4.37-16.05 4.99 15.371 11.3 30.661 15.14 46"/><path d="m86.01 166.73c1.49 4.521 2.98 9.03 4.47 13.54-3.23-3.72-3.39-8.949-4.47-13.54"/></g><path fill="#023f4f" d="m51.712 172.7c7.03-2.05 14.01-2.601 21.22-3.9 2.22-.399 8.32-2.689 10.33-1.27 1.44 1.029 4.32 12.239 4.24 14.12-7.73 2.399-15.9 2.529-23.66 4.79-4.42 1.289-8.37 2.149-10.99-2.61-1.05 1.12.14 8.43-3.09 2.52-4.49 9.591-8.07-6.13-8.95-10.67 3.65-.681 7.34-1.951 10.9-2.98m9.75 6.189c-.19-8.08-14.02-3.42-9.91 1.891-.3-.681 5.13.63 4.98.64 1.96-.111 3.9-.861 4.93-2.531"/><path d="m72.59 31.593c-2.27-.32-4.65.29-6.66 1.38.69 1.21 1.59 2.63 2.53 3.67 1.24-.8.43-.54 2.06-.92.44-1.11.17-1.87-.34-2.75.83-.39 1.61-.92 2.41-1.38m-19.85-17.78c5.54 4.7 10.93 10.7 17.21 12.39 1.01.27.29 2.13 1.72 1.64 1.78-.61 3.36-1.11 5.22-1.41 3.64-.59 7.3-.73 10.95-1.15.85-.1 1.68-.21 2.48-.33l.34 2.13c-5.38.84-10.66 2.07-16.01 3.48 3.2.57 6.69.2 10.1-.4l.38 2.22c-3.79.67-7.48 1.72-11.28 2.54 1.69 3.13 2.53 10.89 5.96 12.62 1.6.81 4.46.65 7.58.05l.27 1.4c-1.94.37-3.87.84-5.78 1.53.85.71 1.71 1.45 2.58 2.17l-1.2 1.43c-4.76-3.97-12.83-8.9-14.92-10.6-6.21-5.04-12.4-10.14-18.24-15.6-4.18-2.08-9.3-5.87-8.83-11.13-1.32 1.9.16 7.14-1.15 7.92-1.29.78-2.48 4.65-3.05 8.17l-2.95-.42c.26-1.97.41-4.2.77-6.77.35-2.49.06-9.92 2.13-11.99 3.11-3.11 12.01-3.87 16.29-4.94 6.29-1.57 12.58-2.94 18.95-4.14 11.17-2.1 22.74-3.77 34.17-4.25l.11 2.89c-.88.06-1.78.22-2.67.43-.021.01-.03.01-.04.01-17.18 2.82-34.26 5.58-51.09 10.11m-5.83 4.22c-.17.44-.29 1.05-.37 1.86.17-.63.32-1.269.37-1.86m0-.01c1.02-2.74 3.39.96 3.42 1.18.23-1.4.35-3.33.46-4.93-1.76.46-3.52.92-5.28 1.38 1.22.261 1.5 1.221 1.4 2.37m12.14 6c2.08 2.57 5.39 8.34 8.14 4.7-2.65-.86-5.44-3.17-8.14-4.7"/><g fill="#047391"><path d="m75.11 246.35c1.76-1.29 3.84-2.93 5.28-1.489-1.31 1.399-3.22 1.429-5.28 1.489"/><path d="m81.19 163.98c-6.56 2.57-13.88 3.591-20.88 3.9 6.85-1.969 14-2.189 20.88-3.9"/></g><path d="m74.42 229.71c-1.44.13-1.7-1.6-1.95-3.55.28 1.541 1.01 2.36 1.95 3.55"/><path d="m106.66 117.29c-.19 2.55 1.96 2.96 3.33 1.37.07-1.76-3.09-4.6-3.33-1.37m10.319-113.23c-.63-.12-1.27-.26-1.899-.38-.08-.02-.17-.04-.25-.05.07.01.149.03.25.05.58.13 1.61.36 1.899.38m10.671 22.94c-.021-7.87-6.381-14.82-9.521-21.68 1.45 5.04 2.17 6.18-.33 10.67-1.729 3.11-3.33 6.28-4.729 9.55-2.891 6.75-5.141 13.91-8.591 20.39-1.43 2.68-8.149 10.6-5.51 13.77 1.19 1.42 2.61-.9 3.67-.35 3.03 1.57 6 5.04 8.49 7.35 5.59 5.16 10.75 10.83 16.78 15.52 4.49 3.49 3.18-.21 2.899-4.22-.229-3.36-.26-6.74-.369-10.1-.461-13.27 2.579-28.25-.261-41.24-.899 14.72-1.029 29.43-1.04 44.16h-1.25c0-5.9-1.39-12-1.39-17.78.002-8.71.512-17.3 1.152-26.04m-1.37 148.91c.09-.99-.62-3.63-2.641-2.3-2.199 1.46.661 4.179 2.641 2.3m-30.29-110.02c-.01-.01-1.18-1.82-1.38-2.06-4.31 2.449-.33 5.129 1.38 2.06m2.52-1.371c-.15 1.64-.3 3.29-.46 4.93 1.24-.49 2.91-1.12 4.02-1.95-.44-1-2.03-2.37-3.56-2.98m-11.7-6.2c-.12-1.02-1.54-2.52-3.55-4.2l1.2-1.43c2.79 2.34 5.75 4.59 9.24 5.63.49-4.26 4.08-6.99 4.7-11.13-3.59.76-7.19 1.12-10.74 1.8l-.27-1.4c4.86-.94 10.36-2.95 12.73-4.07-1.84-6.16-2.39-12.12-9.75-11.76-1.78.09-3.52.32-5.24.62l-.38-2.22c2.17-.38 4.31-.84 6.31-1.21 3.51-.64 5.09-2.38 6.73 1.12 1.35 2.88 2.7 5.76 4.05 8.63.59-2.16 2.39-5.34 2.75-7.91.73-5.1-1.07-5-5.85-4.65-2.73.2-5.42.52-8.08.94l-.34-2.13c7.74-1.21 13.18-4 14.61-12.78.44-2.73-6.27-5.51-8.6-5.59 2.16-1.04 4.82-2.23 7.5-2.88.01 0 .02 0 .04-.01.89-.14 1.78-.28 2.67-.43l-.11-2.89c1.45-.06 2.891-.1 4.34-.12 7.421-.11 10.2 1.92 13.54 8.59 2.5 5.01 4.551 10.33 8.28 14.61 3.9.79 7.8 1.58 11.71 2.37l-.57 2.79c-2.939-.56-6-.88-8.85-.23 4.04 2.57 1.061 8.01 1.84 11.82.01 0 .021 0 .03 0l.19 1.83c-.11.61-.23 1.22-.341 1.84 4.94.7 9.95.82 14.94.62l.08 2.59c-1.45.06-2.94.23-3.83.23-3.75 0-7.48-.6-6.83 4.47 1.53-1.27 2.71-.43 3.62 1.52l-1.67.78c.74 4.38.74 8.84-.23 13.19-.819-1.64-.92-3.46-1.26-5.28-.01 3.41.95 7.17-1.03 10.21-4.06-2.93-2.149-7.8-1.779-11.87.229-2.56-2.29-5.15-.521-7.17.15.4.29.99.46 1.38.19-2.34.38-4.67.57-7-.13 1.79-.48 3.58-1.49 5.05-1.54-1.81.03-3.57-1.83-4.94-.54 10.83-3.2 22.01-2.24 32.85.69 7.83-.1 10.2-7.06 6.16-4.9-2.85-9.42-5.61-14.68-7.8-1.7 4.51 2.1 10.62 3.43 15.09 1.64 5.49 3.15 11.01 4.72 16.52 3.33 11.66 6.53 23.35 9.99 34.971 5.92 19.899 12.31 39.81 19.01 59.45.44 1.29.891 2.59 1.34 3.88l-1.8.62c-1.06-3.03-2.189-5.92-3.08-8.47-4.17-12.02-8.3-24.05-12.27-36.14-7.92-24.11-15.29-48.39-22.83-72.62-1.771-5.46-3.45-12.52-6.77-17.89 2.08 13.05 7.05 25.03 11.47 37.4 4.67 13.02 7.399 26.84 11.399 40.09 1.061 3.521 2.16 7.02 3.3 10.51l-.84.271c-5.03-15.46-10.17-30.88-15.229-46.28-.96 2.49-2.53 4.76-4.59 6.48-1.021.85-6.69-1.7-7-2.58-.82-2.35 1.8-5.37 3.56-6.83 2.13-1.78 5.061.36 6.99 1.66-3.34-14.15-9.18-27.61-12.04-41.87-3.61-1.69-10.16-.33-11.82 3.21-1.78 3.81.92 8.69 1.95 12.39 1.66 5.94 3.42 11.86 5.18 17.77 1.41 4.76 2.87 9.5 4.36 14.24 5.71 18.14 11.96 36.14 18.68 53.92 1.62-1.091 2.141-4.25 4.02-4.82 1.74-.53 5.96 2.439 6.439 3.649.04.091.051.181.04.25-1.13 6.811-4.37 5.73-9.229 3.79 2.66 10.421 6.24 20.53 9.649 30.7l-1.529.51c-3.86-11.479-8.7-23.77-9.96-27.08-12.49-32.17-22.01-66.54-33.5-99.47-.64 2.36.95 4.54 1.72 6.77 1.94 5.55 3.39 11.38 5.17 17.01 4.37 13.75 8.62 27.53 12.95 41.29 6.49 20.64 13.2 41.19 20.3 61.61l-2.19.76c-3.1-8.82-6.949-17.5-10.3-25.91-6.67-16.75-12.6-33.63-17.98-50.83-4.76-15.23-7.74-30.9-13-45.99-3.97 5.24-7.95 10.47-11.93 15.71-1.59-2.19-2.78-4.63-4.17-6.95l2.64-.74c.84 1.65 1.47 1.68 3.71-1.14 2.04-2.55 3.54-5.9 4.94-8.83 4.02-8.47 7.66-17.49 13.99-24.55-3.74-1.43-12.46 16.19-18.03 26.18l-.22-.12c1.45-2.65 2.96-6.49 3.35-7.36 1.61-3.63 3.05-7.33 4.76-10.9.85-1.751 6.42-8.451 6.24-9.871"/><path fill="#047391" d="m62.61 224.89c.78 1.21 1.76 2.391 2.41 3.681-.92-4.94-4.45-9.771-5.63-14.92-.4 1.09-.58 2.51-.68 3.67.68 0 1.62 6.79 2.17 9.409.44-.97 1.1-1.029 1.73-1.84m-5.74-28.449c4.27-4.381-5.01-5.311 5.02-7.82 8.92-2.23 18.27-3 27.33-4.57 1.8 5.271 3.61 10.53 5.42 15.79 2.92 8.51 5.84 17 8.75 25.51 1.03 3.02-.26 5.341-1.55 7.57-1.9 3.31-1.43 4.271-5.74 5.51-3.17.92-6.55.74-9.75 1.721.79-4.841 6.18-2.87 8.38-5.62 2.54-3.181-2.69-3.061-5.03-1.86-4.77 2.46-11.27 4.521-15.39 7.94-1.16.96-.54 2.399-2.41 3.33 3.5-3.87-2.43-.61-4.25 0-1.64.55-2.42-.761-2.63-.69-1.73.57-1.76 2.26-3.91 2.64.42-7.5-2.67-14.18-5.52-20.91-2.79-6.609-4.15-13.619-6.52-20.39-.32-.91-5.72-15.31-.8-13.42 3.06 1.18.91 8.49 5.96 9.86.61-2.13-4.18-9.181-2.06-10.44 2.21-1.311 4.15 4.769 4.7 5.849m1.15 1.039c.79 2 .8 4.271 2.75 5.5-.92-1.829-1.83-3.67-2.75-5.5m14.45 28.681c.25 1.95.51 3.68 1.95 3.55-.94-1.191-1.67-2.01-1.95-3.55m-5.85-10.67c-.08-.601-.68-2.79-1.03-3.9-.88 1.949-.13 2.669 1.03 3.9"/><path d="m146.12 234.65c1.89.609 3.47-.131 4.359-1.841-1.919-1.619-3.699-.359-4.359 1.841m5.39-1.611c1.73.64 1.11-.4 1.61-1.61-.2-.739.1-1.31-1.03-1.489-.24.97-.571 2.109-.58 3.099m.58 10.901c.47-2.101 1.36-5.301 1.03-7.921-.65 2.61-1.32 5.221-1.03 7.921m-45.55-12.05c-.53 1.761-1.07 3.521-1.6 5.28 1.15-1.049 1.25-3.37 1.6-5.28m-12.73 9.641c-3.73.949-8.34.14-11.36 2.979 3.98-.28 7.63-1.68 11.36-2.979m6.88-2.41c-1.6-.021-3.21.57-4.13 1.609 1.38-.489 2.78-1.039 4.13-1.609m-28.79 4.82c1.87-.931 1.25-2.37 2.41-3.33 4.12-3.42 10.62-5.48 15.39-7.94 2.34-1.2 7.57-1.32 5.03 1.86-2.2 2.75-7.59.779-8.38 5.62 3.2-.98 6.58-.801 9.75-1.721 4.31-1.239 3.84-2.2 5.74-5.51 1.29-2.229 2.58-4.55 1.55-7.57-2.91-8.51-5.83-17-8.75-25.51l1.59-.54c3.4 10.04 7.67 19.851 10.77 29.95-3.84-15.34-10.15-30.63-15.14-46l2.14-.71c.63 1.89 1.29 3.77 1.99 5.64 4.42 11.9 10 23.4 13.13 35.74 1.979 7.771 2.79.57 6.26 2.47 2.88 1.57-2.27 3.73-3.9 3.21-.539 2.83-1.069 5.66-1.609 8.49 3.31-.45 7.399-2.28 11.47-3.439 4.38-1.261 7.19-1.82 6.37-6.771-1.02-6.13-2.78-12.229-4.9-18.26l2.19-.76c2.55 7.35 5.15 14.68 7.81 22 1.891-1.25-.869-11.341-4.489-22.13l1.529-.51c2.33 6.931 4.57 13.88 6.38 20.971 1.311 5.149 3.65-3.9 7.08-2.921 6.73 1.931 5.341-.13 3.391-6.77-4.61-15.67-9.51-31.31-14.54-46.92-1.09-3.351-2.17-6.7-3.271-10.04l.84-.271c3.4 10.471 7.06 20.851 10.54 31.3 2.15 6.439 4.801 12.729 7 19.16 1.12 3.261 1.94 10.44 4.591 12.62.18-4.939-1.48-10.649-3.351-15.96l1.8-.62c1.24 3.561 2.49 7.12 3.61 10.73 1.66 5.3 1.78 4.83 6.43 3.9 1.86-.37 6.53-1.66 7.801-3.091 1.89-2.14.75-5.83-.23-9.07-.35-1.16-.71-2.32-1.08-3.48l1.75-.56c1.45 4.7 3.2 9.05 4.95 9.38 3.17.59-1.69-8.65-2.29-10.04-2.65-6.12-4.21-12.53-5.47-19.05-.011-.07-.03-.15-.04-.221 5.18 7 5.479 16.23 9.56 23.771.8 1.47 3.23 3.689 3.63 4.32 0-.131 1.41-.69 1.721-.33 1.05 1.199-.32 1.529-1.261 2.06 2.37 2.58 5.48 1.67 8.38.63 3.051-1.09 5.471.76 7.801.181 2.859-.721 5.739-1.4 8.6-2.101l.39 1.62c-3.46.84-7.01 2.01-8.699 2.36-6.16 1.279-12.37 1.899-18.65 2.02 5.15 1.8 10.54 1.46 15.94.391l.38 1.76c-3.29.81-6.2 1.87-7.721 3.35 2.12.18 4.271-.01 6.311.46-2.391 2.99-11.74 3.521-15.771 4.21-5.699.99-11.5 1.46-17.26 1.87.021-.08.05-.16.09-.24 2.07-5 19.33-4.55 24.23-6.18-6.51.94-7.561-6.61-15.311-3.29-2.72 1.16-10.939 3.6-11.42 5.7-.149.649.221 2.689 1.141 2.229 1.529-.76 1.29.511.92 1.46-.2.49-.42.91-.46.91.05.511-1.01 2.46-.57 4.23 8.41-6.32 21.52-5.26 31.2-8.03 4.2-1.2 3.13-2.06 6.08-3.33 4.739-2.03 10.13-.479 15.03-.109l1.271 2.05c-1.53.88-3.3 1.04-6.18 1.68-4.551 1.01-9.12 1.84-13.67 2.81-8.58 1.83-17.14 3.74-25.7 5.62-4.891 1.07-6.12 3.48-10.32 5.49-4.08 1.95-8.53 2.57-12.97 3.23-.351.05-.69.109-1.04.18l-.32-1.51c5.54-1.19 10.05-3.88 8.82-10.83-6.83 1.91-14.17 2.01-15.521 9.84l-1.58-.3c.45-1.53.53-3.3.811-4.84-.75 1.319-.3 4.59-2.18 4.59-.53 0-.78.359-.881.85l-1.58-.29c.101-.46.19-.91.28-1.359-.67.46-1.16 1.05-1.49 1.72l-1.489-.46c.399-1.101.34-2.72.22-3.67-2.64-.46-7.75 3.649-7.91.92-7.2-.25-14.75 6.08-20.76 4.47.22.311.45.61.68.92-5.26-1.37-12.74.01-17.32 2.641 3.16 1.8-3.53 2.539-5.39 3.21-3.57 1.27-6.97 3-10.6 3.949-1.21.311-2.45.54-3.74.641 4.99-3.41 11.13-4.41 16.06-7.92-5.37 3.02-11.75 2.68-17.55 1.26.53-.67 3.09-3.83 1.66-4.24-.2-.06-.38-.08-.53-.08l.01-1.87c2.15-.38 2.18-2.069 3.91-2.64.21-.07.99 1.24 2.63.69 1.817-.611 7.747-3.87 4.247 0m.8 1.489c-2.5.55-5.01 1.11-7.51 1.66 2.76-.49 6.09 1.74 7.51-1.66m7.69-.569c-1.44-1.44-3.52.199-5.28 1.489 2.06-.06 3.97-.09 5.28-1.489m58.85-10.1c-1.311-.59-1.16.22-2.07.69.49-.249 1.54-.48 2.07-.69"/><path fill="#047391" d="m65.19 247.09c2.5-.55 5.01-1.11 7.51-1.66-1.42 3.4-4.75 1.17-7.51 1.66"/><path fill="#023f4f" d="m65.932 32.973c2.01-1.09 4.39-1.7 6.66-1.38-.8.46-1.58.99-2.41 1.38.51.88.78 1.64.34 2.75-1.63.38-.82.12-2.06.92-.94-1.039-1.84-2.459-2.53-3.67"/><path fill="#047391" d="m78.09 255.99c-4.3 1.04-8.43 2.189-12.56 3.319l-.33-1.21c3.63-.949 7.03-2.68 10.6-3.949 1.86-.671 8.55-1.41 5.39-3.21 4.58-2.631 12.06-4.01 17.32-2.641-.23-.31-.46-.609-.68-.92 6.01 1.61 13.56-4.72 20.76-4.47.16 2.729 5.271-1.38 7.91-.92.12.95.18 2.569-.22 3.67-4.561.689-9.101 1.38-13.66 2.06.689-.52 1.43-1.069 2.18-1.49-.229-.3-.46-.609-.68-.909-11.47 6-23.6 7.659-36.03 10.67"/><path d="m65.59 211.59c.35 1.11.95 3.3 1.03 3.9-1.16-1.23-1.91-1.95-1.03-3.9"/><path fill="#023f4f" d="m67.19 28.723c-2.75 3.64-6.06-2.13-8.14-4.7 2.7 1.53 5.49 3.84 8.14 4.7"/><path d="m63.41 70.02c.79 1.36 1.29 2.87 1.26 4.25-.36-1.43-.84-2.83-1.26-4.25"/><path d="m65.02 228.57c-.65-1.29-1.63-2.471-2.41-3.681-.63.811-1.29.87-1.73 1.84-.55-2.619-1.49-9.409-2.17-9.409.1-1.16.28-2.58.68-3.67 1.18 5.149 4.71 9.979 5.63 14.92"/><g fill="#047391"><path d="m57.672 113.16c1.38 2.37 2.76 4.74 4.13 7.11-.71-2.371-1.49-5.751-4.13-7.11m-1.03-2.181c1.47-3.92-10.8-19.28-15.95-16.98.78 2.44 11.35 10.65 8.04 11.13.41.81.66 1.17.91 1.95.14-.46.6-1.76.46-2.53 2.43 1.91 3.26 5.881 6.54 6.43m-11.55-37.879c3.06 6.41 7.22 12.31 11.32 18.09 2.15 3.03 8.88 15.78 11.93 15.66-3.25-5.55-6.5-11.09-9.75-16.64 1.34 1.99 2.68 3.98 4.02 5.97.9-1.42.66-2.81 0-4.47 1.09 1.21 1.99 2.55 2.82 3.94 1.39 2.32 2.58 4.76 4.17 6.95 3.98-5.24 7.96-10.47 11.93-15.71 5.26 15.09 8.24 30.76 13 45.99 5.38 17.2 11.31 34.08 17.98 50.83 3.351 8.41 7.2 17.09 10.3 25.91 2.12 6.03 3.881 12.13 4.9 18.26.82 4.95-1.99 5.51-6.37 6.771-4.07 1.159-8.16 2.989-11.47 3.439.54-2.83 1.07-5.66 1.609-8.49 1.631.521 6.78-1.64 3.9-3.21-3.47-1.899-4.28 5.301-6.26-2.47-3.13-12.34-8.71-23.84-13.13-35.74-.7-1.87-1.36-3.75-1.99-5.64-1.36-4.07-2.57-8.2-3.65-12.36-.52-2.04-.23-7.229-1.47-8.5-1.27-1.29-7.58-1.109-9.27-.979-5.7.47-11.24 1.51-16.85 2.6-4.9.95-14.04-.25-17.94 2.28-.78-7.58-5.93-14.18-5.04-22.02-1.02.141-2.1.7-2.87 1.37 1.31 2.271 3.25 7.511 2.64 10.271-.63 2.84 2.41 7.88 2.41 11.189-.69.301-2.45.761-3.45 1.141-3.77-17.23-8.53-34.15-13.56-51.06-2.64-8.88-5.26-17.76-7.79-26.68-1.33-4.69-1.07-8.74-3.42-12.88 5.43-1.87 13.03-7.35 19.3-9.34 5.84-1.84 10.51-.68 11.21 9.22-1.42 1.99-.4 6.69 2.29 5.51 1.06 1.78 5.44 7.91 8.57 13.18 2.25 3.78 3.86 7.11 3.15 8.06-2.59 3.45 8.16 14.82 10.72 18.41 4.86 6.79 9.78 13.5 15.01 20.01 2.69 3.35 11.12 15.63 15.21 15.25-14.01-21.15-30.14-40.69-42.96-62.39-4.119-6.97-7.899-14.171-11.149-21.72m-12.77-.551c.08 2.23.7 4.56 3.1 5.04-1.04-1.679-2.07-3.36-3.1-5.04m2.64 7.68c1.64 2.41 3.29 4.82 4.93 7.23-.89-2.18-2.8-5.259-4.93-7.23m4.93 59.66c.02-1.479-.72-3.13-1.83-4.36.61 1.45 1.22 2.9 1.83 4.36"/><path d="m59.972 252.08c5.8 1.42 12.18 1.76 17.55-1.26-4.93 3.51-11.07 4.51-16.06 7.92 1.29-.101 2.53-.33 3.74-.641l.33 1.21c-3.95 1.091-7.9 2.16-11.99 3.101-.2-2.94 1.95-3.78 3.96-5.34 2.73-2.12.65-3.86 1.84-5.851.66-1.1.29-3.46 1.76-3.46.15 0 .33.021.53.08 1.43.411-1.13 3.572-1.66 4.241"/></g><path d="m61.802 120.27c-1.37-2.37-2.75-4.74-4.13-7.11 2.64 1.36 3.42 4.74 4.13 7.11"/><path d="m58.02 197.48c.92 1.83 1.83 3.671 2.75 5.5-1.95-1.23-1.96-3.5-2.75-5.5"/><path d="m56.24 94.82c12.82 21.7 28.95 41.24 42.96 62.39-4.09.38-12.52-11.9-15.21-15.25-5.23-6.51-10.15-13.22-15.01-20.01-2.56-3.59-13.31-14.96-10.72-18.41.71-.95-.9-4.28-3.15-8.06z"/><path fill="#8c8c8c" d="m59.05 177.17c-.05 3.12-4.23 2.51-3.44.23.66-1.9 2.97-.73 3.44-.23"/><path d="m55.612 177.4c-.79 2.279 3.39 2.89 3.44-.23-.47-.501-2.78-1.671-3.44.23m5.85 1.489c-1.03 1.67-2.97 2.42-4.93 2.53.15-.01-5.28-1.32-4.98-.64-4.11-5.31 9.72-9.97 9.91-1.89"/><path d="m56.31 61.29c.08.35.15.7.22 1.05-.08-.34-.16-.69-.22-1.05"/><path fill="#047391" d="m47.582 170.52c1.95-2.27 5.3-1.55 8.03-1.72-2.49 1.04-5.54 1.021-8.03 1.72"/><path d="m53.54 262.41c4.09-.94 8.04-2.01 11.99-3.101 4.13-1.13 8.26-2.279 12.56-3.319 12.43-3.01 24.56-4.67 36.03-10.67.22.3.45.609.68.909-.75.421-1.49.971-2.18 1.49 4.56-.68 9.1-1.37 13.66-2.06l1.489.46c-.489 1.02-.59 2.229-.35 3.439.8-1.119 1.24-2.449 1.56-3.8l1.58.29c-.149.79.131 1.91.301 2.25 1.05-.64 1.609-1.67 1.949-2.85l1.58.3c-.1.58-.17 1.2-.199 1.86 2.27-.17 4.67-.4 6.899-.87l.32 1.51c-5.2 1.03-10.32 3.88-15.71 3.2-2.36-.29-2.17-2.87-4.24-2.521-3.36.55-6.5 1.58-9.79 2.49-9.41 2.59-18.86 5.06-28.36 7.271-9.59 2.239-19.17 4.46-28.85 6.3-.22.04-.43.08-.63.109z"/><path fill="#047391" d="m48.952 73.23c2.56 3.69 5.77 8.22 7.92 11.48-4.15-2.7-5.22-7.62-7.92-11.48"/><path d="m53.43 49.03c-.33-.03-.65-.13-.93-.28.07-.14.15-.27.24-.41.23.23.46.46.69.69"/><path fill="#047391" d="m51.48 66.813c-5.4-7.86-12.59-15.11-15.49-24.2 11.5 16.48 23.18 32.88 32.81 50.13.88-.94 2.25-3.22 3.88-6.17 5.57-9.99 14.29-27.61 18.03-26.18-6.33 7.06-9.97 16.08-13.99 24.55-1.4 2.93-2.9 6.28-4.94 8.83-2.24 2.82-2.87 2.79-3.71 1.14-.48-.92-1.02-2.35-1.96-4.07-4.5-8.26-9.31-16.28-14.63-24.03"/><path d="m52.11 51.53c.31.83.63 1.67.97 2.55-.46-.82-.83-1.68-.97-2.55"/><path fill="#023f4f" d="m45.512 15.653c1.76-.46 3.52-.92 5.28-1.38-.11 1.6-.23 3.53-.46 4.93-.03-.22-2.4-3.92-3.42-1.18.1-1.149-.18-2.109-1.4-2.37"/><path d="m50.1 104.55c.14.77-.32 2.07-.46 2.53-.25-.78-.5-1.14-.91-1.95 3.31-.48-7.26-8.69-8.04-11.13 5.15-2.3 17.42 13.06 15.95 16.98-3.28-.549-4.11-4.52-6.54-6.43"/><g fill="#fff"><path d="m48.5 36.644c.46.99.91 1.99 1.37 2.98-.5-.971-.93-2-1.37-2.98"/><path d="m46.912 18.03c-.05.59-.2 1.23-.37 1.86.08-.81.2-1.42.37-1.86"/></g><path fill="#047391" d="m64.67 74.27c.03-1.38-.47-2.89-1.26-4.25.42 1.42.9 2.82 1.26 4.25m-12.56-22.74c-.17-.95-.09-1.89.39-2.78.28.15.6.25.93.28-.23-.23-.46-.46-.69-.69-.09.14-.17.27-.24.41-1.45-.72-2.23-2.69-.79-4.54.11.27.23.54.34.8.08-1 .54-1.98.58-2.98 1.48 2.95 2.64 6.54 1.37 9.75-.11-.27-.23-.53-.34-.8.86 3.44 1.92 6.84 2.65 10.31.06.36.14.71.22 1.05-.07-.35-.14-.7-.22-1.05-.28-1.57-.32-3.2.79-4.35 2.08 3.95 1.09 8.64 3.21 12.51-.39-1.27-.33-6.83.57-8.72.54 2.48 1.29 5 2.3 7.34-.41-3.86-9.32-29.91-11.01-29.37-1.04-1.68-2.07-3.36-3.1-5.04-.2 1.01-.88 1.96-1.03 2.98-.12-.49-.46-.89-.58-1.49.21 1.37-.74 1.66-1.03 2.52-1.3-3.44-2.6-6.88-3.9-10.32.96 3.67.51 6.6 1.26 10.21.6 2.87 2.3 5.49 2.98 8.37-.37-2.71-2.32-5.3-.34-7.8 2.44 4.79 3.92 8.77 5.68 13.4.14.87.51 1.73.97 2.55-.34-.879-.66-1.72-.97-2.55m-11.99-26.82c1.31-.78-.17-6.02 1.15-7.92-.47 5.26 4.65 9.05 8.83 11.13 5.84 5.46 12.03 10.56 18.24 15.6 2.09 1.7 10.16 6.63 14.92 10.6 2.01 1.68 3.43 3.18 3.55 4.2.18 1.42-5.39 8.12-6.24 9.87-1.71 3.57-3.15 7.27-4.76 10.9-.39.87-1.9 4.71-3.35 7.36-.82 1.48-1.61 2.6-2.17 2.62-2.31.08-5.35-8.7-6.47-10.8-7.47-14.06-18.98-25.65-26.79-39.6-.46-.82-.38-3.21.04-5.79.57-3.52 1.76-7.39 3.05-8.17"/><path d="m49.872 39.624c-.46-.99-.91-1.99-1.37-2.98.44.98.87 2.01 1.37 2.98m-6.08-2.061c-.75-3.61-.3-6.54-1.26-10.21 1.3 3.44 2.6 6.88 3.9 10.32.29-.86 1.24-1.15 1.03-2.52.12.6.46 1 .58 1.49.15-1.02.83-1.97 1.03-2.98 1.03 1.68 2.06 3.36 3.1 5.04 1.69-.54 10.6 25.51 11.01 29.37-1.01-2.34-1.76-4.86-2.3-7.34-.9 1.89-.96 7.45-.57 8.72-2.12-3.87-1.13-8.56-3.21-12.51-1.11 1.15-1.07 2.78-.79 4.35-.73-3.47-1.79-6.87-2.65-10.31.11.27.23.53.34.8 1.27-3.21.11-6.8-1.37-9.75-.04 1-.5 1.98-.58 2.98-.11-.26-.23-.53-.34-.8-1.44 1.85-.66 3.82.79 4.54-.48.89-.56 1.83-.39 2.78-1.76-4.63-3.24-8.61-5.68-13.4-1.98 2.5-.03 5.09.34 7.8-.68-2.88-2.38-5.499-2.98-8.37"/><path fill="#047391" d="m39.552 172.24c1.2-1.53 2.86-1.59 4.01-.57-1.19 1.039-2.4 1.4-4.01.57"/><path d="m86.01 166.73c1.08 4.591 1.24 9.82 4.47 13.54-1.49-4.51-2.98-9.02-4.47-13.54m-25.7 1.15c7-.31 14.32-1.33 20.88-3.9-6.88 1.711-14.03 1.931-20.88 3.9m-20.76 4.361c1.61.83 2.82.47 4.01-.57-1.15-1.02-2.81-.961-4.01.57m1.26 3.439c.88 4.54 4.46 20.261 8.95 10.67 3.23 5.91 2.04-1.399 3.09-2.52 2.62 4.76 6.57 3.899 10.99 2.61 7.76-2.261 15.93-2.391 23.66-4.79.08-1.881-2.8-13.09-4.24-14.12-2.01-1.42-8.11.87-10.33 1.27-7.21 1.3-14.19 1.851-21.22 3.9-3.56 1.03-7.25 2.3-10.9 2.98m6.77-5.16c2.49-.699 5.54-.68 8.03-1.72-2.73.17-6.08-.55-8.03 1.72m-5.62-4.13c0-3.31-3.04-8.35-2.41-11.189.61-2.76-1.33-8-2.64-10.271.77-.67 1.85-1.229 2.87-1.37-.89 7.841 4.26 14.44 5.04 22.02 3.9-2.53 13.04-1.33 17.94-2.28 5.61-1.09 11.15-2.13 16.85-2.6 1.69-.13 8-.311 9.27.979 1.24 1.271.95 6.46 1.47 8.5 1.08 4.16 2.29 8.29 3.65 12.36l-2.14.71c1.03 5.46 2.58 10.79 4.37 16.05l-1.59.54c-1.81-5.26-3.62-10.52-5.42-15.79-9.06 1.57-18.41 2.34-27.33 4.57-10.03 2.51-.75 3.439-5.02 7.82-.55-1.08-2.49-7.16-4.7-5.851-2.12 1.26 2.67 8.311 2.06 10.44-5.05-1.37-2.9-8.681-5.96-9.86-4.92-1.89.48 12.51.8 13.42 2.37 6.771 3.73 13.78 6.52 20.39 2.85 6.73 5.94 13.41 5.52 20.91l-.01 1.87c-1.47 0-1.1 2.36-1.76 3.46-1.19 1.99.89 3.73-1.84 5.851-2.01 1.56-4.16 2.399-3.96 5.34l.29 2.689c-8.4 1.25-6.18-6.38-7.63-12.75-.93-4.06-1.86-8.13-2.79-12.189l2.06-.47c.63 2.689 1.29 5.359 1.99 8.03-.25-3.99-.53-8.22-.92-12.16-.46-4.75-.28-11.92-2.06-16.399-1.89 3.979-1.83-1.021-2.06-2.98.83.17 1.8-.31 2.63-.12-.07-.8-.39-2.069-.8-2.75-.43.83-1.31 1.45-1.72 2.29-2.36-17.08-6.27-33.6-10.94-50.18-2.2-7.83-5.55-16.02-6.84-24.04-.86-5.36-4.67-13.06-3.56-18.47-.27.57-.53 1.15-.8 1.72-2.78-2.7-2.78-7.15-2.41-10.67.3.23.68.54 1.03.8-3.3-12.78-6.3-23.62-11.58-35.9-.56-1.39-1.8-3.12-3.45-3.79 4.26 18.26 8.69 36.64 13.72 54.78l-1.63.46c-5.5-19.93-11.26-39.34-15.72-59.56-.56-2.53 1.32-4.13 3.35-5.26 2.39-1.33 2.37-3.94 2.06-6.5l2.02-.25c.3 2.84 2.38 6.16 2.97 9.91 5.99-1.06 11.23-3.95 16.78-6.12l.77 2.05c-5.47 2.09-10.67 5.23-16.29 7.39 1.24 2.37 9.45-2.37 12.28-3.55 1.68-.7 4.17-1.32 6.45-2.18l2.3 1.33c-6.27 1.99-13.87 7.47-19.3 9.34 2.35 4.14 2.09 8.19 3.42 12.88 2.53 8.92 5.15 17.8 7.79 26.68 5.03 16.91 9.79 33.83 13.56 51.06 1-.38 2.76-.84 3.45-1.141m-34.76-95.79c.3-1.04.59-1.69 0-2.64-2.05 1.559-2.02 2.279 0 2.64"/><path d="m38.06 135.53c1.11 1.23 1.85 2.88 1.83 4.36-.61-1.46-1.22-2.91-1.83-4.36"/><path d="m39.892 87.46c-1.64-2.41-3.29-4.82-4.93-7.23 2.13 1.971 4.04 5.05 4.93 7.23"/><path d="m32.32 72.55c1.03 1.68 2.06 3.36 3.1 5.04-2.4-.48-3.02-2.81-3.1-5.04"/><g fill="#047391"><path d="m35.992 62.57c-.88 1.7-2.97 2.81-5.25 3.67-2.28.86-4.77 1.48-6.45 2.18-2.83 1.18-11.04 5.92-12.28 3.55 5.62-2.16 10.82-5.3 16.29-7.39 2.48-.95 5.02-1.68 7.69-2.01"/><path d="m28.902 52.954c-1.64 2.94 5.25 4.3 4.22 7.78-1.92.46-3.77 1.09-5.59 1.8-5.55 2.17-10.79 5.06-16.78 6.12-.59-3.75-2.67-7.07-2.97-9.91-.26-2.41.76-4.46 5.04-6.15 4.9-1.93 12.41 3.419 16.08.36"/></g><path fill="#fff" d="m29.802 51.903c-.26.43-.57.77-.9 1.05.19-.329.48-.68.9-1.05"/><path d="m27.402 161.82c8.4 25.24 11.95 51.92 18.07 77.87l-2.06.47c-8.46-36.78-17.29-73.45-27.34-109.85l1.63-.46c2.99 10.76 6.19 21.439 9.7 31.97"/><path d="m37.03 38.673c7.81 13.95 19.32 25.54 26.79 39.6 1.12 2.1 4.16 10.88 6.47 10.8.56-.02 1.35-1.14 2.17-2.62l.22.12c-1.63 2.95-3 5.23-3.88 6.17-9.63-17.25-21.31-33.65-32.81-50.13 2.9 9.09 10.09 16.34 15.49 24.2 5.32 7.75 10.13 15.77 14.63 24.03.94 1.72 1.48 3.15 1.96 4.07l-2.64.74c-.83-1.39-1.73-2.73-2.82-3.94.66 1.66.9 3.05 0 4.47-1.34-1.99-2.68-3.98-4.02-5.97 3.25 5.55 6.5 11.09 9.75 16.64-3.05.12-9.78-12.63-11.93-15.66-4.1-5.78-8.26-11.68-11.32-18.09 3.25 7.55 7.03 14.75 11.15 21.72l-1.13.66c-3.13-5.27-7.51-11.4-8.57-13.18-2.69 1.18-3.71-3.52-2.29-5.51-.7-9.9-5.37-11.06-11.21-9.22l-2.3-1.33c2.28-.86 4.37-1.97 5.25-3.67-2.67.33-5.21 1.06-7.69 2.01l-.77-2.05c1.82-.71 3.67-1.34 5.59-1.8 1.03-3.48-5.86-4.84-4.22-7.78.33-.28.64-.62.9-1.05-.42.37-.71.72-.9 1.05-3.67 3.06-11.18-2.29-16.08-.36-4.28 1.69-5.3 3.74-5.04 6.15l-2.02.25c-.14-1.15-.33-2.28-.39-3.29-.36-5.92 17.02-10.83 21.76-13.2 5.27-2.63 6.41-5.71 6.99-10.04l2.95.42c-.42 2.58-.5 4.971-.04 5.79m19.84 46.04c-2.15-3.26-5.36-7.79-7.92-11.48 2.7 3.86 3.77 8.78 7.92 11.48"/><g fill="#047391"><path d="m45.47 239.69c-6.12-25.95-9.67-52.631-18.07-77.87-3.51-10.53-6.71-21.21-9.7-31.97-5.03-18.14-9.46-36.52-13.72-54.78 1.65.67 2.89 2.4 3.45 3.79 5.28 12.28 8.28 23.12 11.58 35.9-.35-.26-.73-.57-1.03-.8-.37 3.52-.37 7.97 2.41 10.67.27-.57.53-1.15.8-1.72-1.11 5.41 2.7 13.11 3.56 18.47 1.29 8.02 4.64 16.21 6.84 24.04 4.67 16.58 8.58 33.1 10.94 50.18.41-.84 1.29-1.46 1.72-2.29.41.681.73 1.95.8 2.75-.83-.189-1.8.29-2.63.12.23 1.96.17 6.96 2.06 2.98 1.78 4.479 1.6 11.649 2.06 16.399.39 3.94.67 8.17.92 12.16-.7-2.67-1.36-5.34-1.99-8.03"/><path d="m7.202 67.963c.59.95.3 1.6 0 2.64-2.02-.36-2.05-1.08 0-2.64"/></g></g><g transform="matrix(.51221 0 0 .51221-68.03-67.05)"><g stroke="#000"><g fill-rule="evenodd"><path fill="#573400" d="m138 284.36c-12 14 42-18 42-18 0 0 12-8 40-12 28-4 56 2 56 2l-10 68-84 66z"/><path fill="#753f00" d="m380 510.36l-98-48c0 0-72-114-72-136 0-22-2-38 16-62 18-24 60-26 60-26 0 0 20 6 6-2-14-8 4-4 4-4 0 0-2-6 6 4 8 10 4 34 8 64 4 30 10 70 24 96 14 26 92 80 92 80l34 42z"/><path fill="#803a00" d="m93.85 511.61l2.989-49.16c0 0 8.967-41.711 13.45-53.629.413-11.336 2.658-16.713 2.658-16.713 0 0 1.907-13.479 4.815-17.55l.5-25.508c1.163-4.836-2-9.886 1.576-16.825 0-7.448-5.065-14.276-5.065-14.276 0 0-7.472-17.876-2.989-25.325 4.483-7.448 19.428-14.897 31.384-14.897 11.956 0 46.33 14.897 73.23 20.856 26.901 5.959 29.89 13.407 35.868 25.325 5.978 11.917 17.934 65.55 28.395 75.974 10.461 10.428 11.956 17.876 44.835 50.649 32.879 32.773 59.78 37.24 59.78 37.24l19.428 8.938 22.417-11.917c0 0-59.78-16.387-68.75-34.26-8.967-17.876-43.34-81.933-43.34-81.933 0 0-4.483-26.814-5.978-46.18-1.494-19.366 4.483-29.794 4.483-29.794 0 0 5.978 31.28 7.472 46.18.913 25.365 6.05 40.54 25.406 68.53 5.978 2.979 48.07 33.49 68.997 53.772 22.417 11.917 23.662 20.712 68.5 41.568 34.37 8.938 51.644 15.15 51.644 15.15 0 0 26.15 8.388 18.597 41.456-10.461 20.856-26.901 23.835-19.428 23.835l-20.923 10.428-82.2 25.325-95.65-2.979-80.7-37.24-68.75-19.366-88.17-13.407z"/><path d="m99.44 580.16l-10.468-55.827 5.234-26.751c0 0 30.821 22.68 36.637 23.843 5.815 1.163 43.03 22.68 43.03 22.68 0 0 34.31 1.745 42.45 3.489 8.142 1.745 31.403 5.815 41.29 11.05 9.886 5.234 45.941 30.821 52.34 34.31 6.397 3.489 45.941 17.446 61.06 16.865 15.12-.582 76.18.582 81.41-2.326 5.234-2.908 4.652-8.141 22.1-15.701 17.446-7.56 40.707-13.375 52.92-20.354 12.212-6.978 26.17-18.609 28.495-18.609 2.326 0 4.071-2.326 5.234 1.745 1.163 4.071 1.163 25.588-3.489 40.707-4.652 15.12-41.29 25.588-55.25 30.821-13.957 5.234-90.72 19.772-92.46 20.935-.109.073-2.037.327-2.847.382-.81.055-.241-2.833-1.335-2.788-1.094.045-9.749.446-11.277.474-1.528.027-1.354 2.732-3.03 2.75-1.678.018-19.945.018-21.778 0-1.833-.018.192-2.212-1.568-2.24-1.76-.027-7.176-.698-8.819-.734-1.642-.036-.405 3.627-1.885 3.581-1.48-.045-12.445-1.353-13.172-1.426-.727-.073-4.167-.644-5.145-.852-.978-.208-.223-2.491-1.303-2.758-1.08-.268-8.305-3.218-9.545-3.591-1.239-.372-1.745 2.936-3.041 2.519-1.296-.417-14.864-5.303-16.233-5.847-1.369-.544 1.228-2.887-.12-3.45-1.348-.563-8.175-3.306-9.488-3.883-1.313-.577-1.072 2.8-2.334 2.214-1.262-.586-9.345-4.706-10.363-5.287-3.489-13.957-4.071-16.283-4.071-16.283 0 0-38.963-28.495-43.03-27.332-4.071 1.163-17.446 5.234-17.446 5.234l-9.886-.582v6.978l-11.631 15.12c0 0-.225-.043-.649-.125-.424-.081-1.047-.201-1.844-.355-.797-.153-1.767-.34-2.885-.556-1.118-.216-2.384-.46-3.772-.728-1.388-.268-2.898-.56-4.504-.871-1.606-.311-3.309-.641-5.083-.985-1.774-.344-3.618-.702-5.507-1.07-1.889-.368-.346-3.679-2.299-4.061-1.954-.382-9.47-2.181-11.436-2.567-1.967-.386.53 3.685-1.399 3.304-1.928-.38-6.215-.865-8.05-1.23-1.838-.365-3.619-.721-5.315-1.062-1.697-.341-3.31-.667-4.815-.973-1.504-.306.361-3.202-.899-3.464-1.26-.262-6.733-1.261-7.698-1.47-.965-.209-.682 2.981-1.3 2.836-2.472-.582-5.815-1.854-9.441-3.435-3.626-1.581-1.864-.734-5.462-2.552-.9-.454.224-2.26-.261-2.388-.485-.128-3.04-1.288-3.374-1.35-.334-.062-1.134 2.532-1.732 2.209-2.39-1.29-13.459-8.186-13.459-8.186z"/></g><g fill="none" transform="translate(-2)"><path stroke-width="8.1" d="m391.95 522.68c-1.465-5.861 33.701-48.35 31.503-58.61-2.198-10.257-83.52 20.513-90.84 12.455-7.326-8.06 2.198-24.18 8.06-32.968 5.861-8.791 21.246-15.385 19.781-24.18-1.465-8.791-7.326-9.524-12.455-10.257-5.128-.733-70.33 21.246-70.33 21.246 0 0-35.17 14.652-38.1.733-2.93-13.92 11.722-23.444 11.722-23.444 0 0 62.27-19.05 67.4-27.11 5.128-8.06 7.326-16.12 7.326-16.12"/><path stroke-width="8.7" d="m394.15 521.95c56.41-33.701 57.877-35.17 57.877-35.17 0 0 4.396-10.989-2.93-10.989-7.326 0-80.59 27.11-85.72 26.374-5.128-.733-8.06 0-5.128-5.861 2.93-5.861 36.631-54.947 30.04-58.61-6.594-3.663-28.572-7.326-56.41 2.93-27.84 10.257-45.42 30.77-37.36 13.92 8.06-16.85 38.829-57.877 38.829-57.877 0 0-94.51-.733-97.44-7.326-2.93-6.594 72.53-54.947 71.797-71.797"/></g><path fill="none" stroke-width="8.1" d="m321.62 360.77c-1.465-2.93-88.65-8.06-88.65-21.246 0-13.187 69.6-32.968 69.6-32.968"/></g><g stroke-opacity=".497" fill="#b3b3b3" fill-rule="evenodd" stroke="#505050" stroke-width="1.7"><path d="m400.01 521.95c0 5.26-3.608 9.524-8.06 9.524-4.451 0-8.06-4.264-8.06-9.524 0-5.26 3.608-9.524 8.06-9.524 4.451 0 8.06 4.264 8.06 9.524z"/><path d="m369.97 501.43c0 5.26-3.444 9.524-7.693 9.524-4.248 0-7.693-4.264-7.693-9.524 0-5.26 3.444-9.524 7.693-9.524 4.248 0 7.693 4.264 7.693 9.524z"/><path d="m336.27 476.89c0 5.058-3.772 9.158-8.425 9.158-4.653 0-8.425-4.1-8.425-9.158 0-5.058 3.772-9.158 8.425-9.158 4.653 0 8.425 4.1 8.425 9.158z"/><path d="m301.84 453.81c0 4.855-3.28 8.791-7.326 8.791-4.046 0-7.326-3.936-7.326-8.791 0-4.855 3.28-8.791 7.326-8.791 4.046 0 7.326 3.936 7.326 8.791z"/><path d="m249.82 430.73c0 8.699-3.772 15.751-8.425 15.751-4.653 0-8.425-7.05-8.425-15.751 0-8.699 3.772-15.751 8.425-15.751 4.653 0 8.425 7.05 8.425 15.751z"/><path d="m246.16 387.51c.004 4.656-3.441 8.433-7.693 8.433-4.251 0-7.697-3.777-7.693-8.433-.004-4.656 3.441-8.433 7.693-8.433 4.251 0 7.697 3.777 7.693 8.433z"/><path d="m241.76 335.49c0 4.248-3.28 7.693-7.326 7.693-4.046 0-7.326-3.444-7.326-7.693 0-4.248 3.28-7.693 7.326-7.693 4.046 0 7.326 3.444 7.326 7.693z"/><path d="m452.76 479.09c.003 2.632-2.294 4.766-5.128 4.766-2.834 0-5.131-2.135-5.128-4.766-.003-2.632 2.294-4.766 5.128-4.766 2.834 0 5.131 2.135 5.128 4.766z"/><path d="m419.79 457.47c0 2.428-1.804 4.396-4.03 4.396-2.225 0-4.03-1.968-4.03-4.396 0-2.428 1.804-4.396 4.03-4.396 2.225 0 4.03 1.968 4.03 4.396z"/><path d="m389.75 436.59c0 2.225-1.968 4.03-4.396 4.03-2.428 0-4.396-1.804-4.396-4.03 0-2.225 1.968-4.03 4.396-4.03 2.428 0 4.396 1.804 4.396 4.03z"/><path d="m360.45 410.59c.002 2.024-1.639 3.667-3.663 3.667-2.024 0-3.665-1.642-3.663-3.667-.002-2.024 1.639-3.667 3.663-3.667 2.024 0 3.665 1.642 3.663 3.667z"/></g><g fill="none" stroke="#000" stroke-width="8.1"><path d="m308.43 305.82c0 0-19.05-2.198-26.374-.733-7.326 1.465-19.781 13.187-19.781 19.05 0 5.861 1.465 13.92 5.128 16.12 3.663 2.198 16.85 1.465 19.05-4.396 2.198-5.861 15.385-13.92 19.05-20.513 3.663-6.594 16.12-19.05 22.711-24.18 6.594-5.128 15.385-8.791 19.781-2.93 4.396 5.861 15.385 6.594 13.92 16.85-1.465 10.257 5.128 16.12-5.128 15.385-10.257-.733-8.06-5.128-17.583-8.791-9.524-3.663-19.781-3.663-25.642-5.128-5.861-1.465-12.455 2.93-5.128-.733z"/><path d="m318.69 302.89c-.733 2.93-7.326-5.861-7.326-5.861l8.791-13.92 13.92-5.861 5.128-2.198"/><path d="m303.3 307.29l18.316 16.12 1.465 18.316"/></g></g></svg>