<svg xmlns="http://www.w3.org/2000/svg" viewBox="0 0 16 16"><g transform="translate(0-1036.36)"><g fill-rule="evenodd"><path fill="#fff" stroke="#ac39ac" d="m6 1042.86h5c0 0 4 1 4 3 0 2-5 6-5 6h-3c0 0-5-4-5-6 0-2 4-3 4-3z"/><path fill="#ac39ac" d="m3 1047.36l3.894 4.582 3.04-.013 4.066-4.569z"/></g><path fill="none" stroke="#ac39ac" d="m8.5 1042.36v7"/><g fill="#ac39ac"><path d="m9 1039.36h6v1h-6z"/><ellipse cx="13.5" cy="1039.86" rx="2.5" ry="2.5"/><rect x="7" y="1037.36" rx="1" width="3" height="6"/></g><g fill="none"><g stroke="#ac39ac"><path d="m2 1036.86h-1"/><path d="m4 1037.86h-1"/><path d="m2 1041.86h-1"/><path d="m1 1038.86h-1"/><path d="m6 1039.86h-1"/><path d="m3 1039.86h-1"/></g><g stroke="#fff"><path d="m6 1038.86h-1"/><path d="m4 1040.86h-1"/><path d="m2 1038.86h-1"/><path d="m4 1038.86h-1"/><path d="m1 1040.86h-1"/><path d="m3 1036.86h-1"/></g></g></g></svg>