<svg xmlns="http://www.w3.org/2000/svg" viewBox="0 0 16 13.02"><defs><linearGradient id="a" y1="429.13" y2="420.68" gradientUnits="userSpaceOnUse" x2="0"><stop stop-color="#729fcf"/><stop offset="1" stop-color="#eeeeec"/></linearGradient><linearGradient id="b" y1="434.63" y2="433.06" gradientUnits="userSpaceOnUse" x2="0" gradientTransform="matrix(.58027 0 0 .79987-180.31 695.45)"><stop stop-color="#babdb6"/><stop offset="1" stop-color="#eeeeec"/></linearGradient><linearGradient id="c" y1="1045.09" y2="1051.17" x2="0" gradientUnits="userSpaceOnUse"><stop stop-color="#babdb6"/><stop offset=".811" stop-color="#7b7f76"/><stop offset="1" stop-color="#50524e"/></linearGradient></defs><g transform="translate(0-1039.34)"><path fill="url(#c)" d="m3.637 1040.03c-.714 0-1.289.53-1.358 1.232-.426.15-.725.541-.725 1.013v8.311c0 .599.483 1.082 1.082 1.082h11.592c.599 0 1.082-.483 1.082-1.082v-8.311c0-.599-.483-1.082-1.082-1.082h-7.436c-.104-.668-.645-1.163-1.335-1.163z"/><path fill="url(#b)" d="m6.503 1041.59c-.035.909.483 1.508 1.105 1.508h7.413v-.553c0-.414-.345-.725-.794-.725h-7.436c-.15 0-.276-.104-.288-.23"/><path fill="#555753" d="m3.637 1039.34c-.898 0-1.577.633-1.853 1.45-.53.299-.921.829-.921 1.485v8.311c0 .967.806 1.773 1.773 1.773h11.592c.978 0 1.773-.806 1.773-1.773v-8.311c0-.978-.794-1.773-1.773-1.773h-7.07c-.345-.656-.921-1.163-1.704-1.163zm0 1.381h1.819c.357 0 .599.23.645.576.058.334.345.587.691.575h7.436c.23 0 .403.173.403.403v8.311c0 .23-.173.391-.403.391h-11.592c-.23 0-.391-.161-.391-.391v-8.311c0-.184.104-.311.265-.357.253-.092.426-.322.46-.587.034-.357.299-.61.668-.61"/><path fill="#ef2929" d="m283.13 434.99c0 .621-.504 1.125-1.125 1.125-.621 0-1.125-.504-1.125-1.125 0-.621.504-1.125 1.125-1.125.621 0 1.125.504 1.125 1.125" transform="matrix(1.12385 0 0 1.12385-310.97 554.79)"/><path fill="url(#a)" stroke="#555753" stroke-linejoin="round" stroke-width="2.947" d="m295 425.11c0 3.452-2.798 6.25-6.25 6.25-3.452 0-6.25-2.798-6.25-6.25 0-3.452 2.798-6.25 6.25-6.25 3.452 0 6.25 2.798 6.25 6.25z" transform="matrix(.54181 0 0 .54181-146.32 817.11)" stroke-miterlimit="2.414"/><path fill="#555753" d="m.414 1042.89h3.131c.599 0 1.082.495 1.082 1.093-.414 1.681-.345 3.373 0 5.05 0 .599-.483 1.082-1.082 1.082h-3.131c-.794-.806-.034-2.268-.046-3.707-.012-1.358-.852-2.705.046-3.522"/><g fill="#babdb6"><path d="m.057 1044.35c.058.414.196.886.288 1.37h2.498c.483 0 .875-.265.875-.61v-.15c0-.345-.391-.61-.875-.61z"/><path d="m.356 1047.17c-.069.495-.196.955-.253 1.381h2.763c.483 0 .875-.276.875-.61v-.15c0-.345-.391-.622-.875-.622z"/></g></g></svg>