<svg xmlns="http://www.w3.org/2000/svg" viewBox="0 0 668.13 692.11" xmlns:xlink="http://www.w3.org/1999/xlink"><defs><filter id="a"><feGaussianBlur stdDeviation=".0695"/></filter><filter id="b"><feGaussianBlur stdDeviation=".05277"/></filter><filter id="c"><feGaussianBlur stdDeviation=".10493"/></filter><filter id="d"><feGaussianBlur stdDeviation=".08378"/></filter><filter id="e"><feGaussianBlur stdDeviation=".14911"/></filter><filter width="1.048" x="-.024" y="-.1" height="1.201" id="f"><feGaussianBlur stdDeviation=".13989"/></filter><filter id="g"><feGaussianBlur stdDeviation=".07952"/></filter><filter id="h"><feGaussianBlur stdDeviation=".15094"/></filter><filter id="i"><feGaussianBlur stdDeviation=".14603"/></filter><filter id="j"><feGaussianBlur stdDeviation=".19096"/></filter><filter id="k"><feGaussianBlur stdDeviation=".29144"/></filter><filter id="l"><feGaussianBlur stdDeviation=".18002"/></filter><filter width="2.454" x="-.727" y="-.024" height="1.049" id="m"><feGaussianBlur stdDeviation=".15719"/></filter><filter id="n"><feGaussianBlur stdDeviation=".28665"/></filter><filter width="1.12" x="-.06" y="-.133" height="1.266" id="o"><feGaussianBlur stdDeviation="2.38616"/></filter><radialGradient cx="985.76" cy="238.35" id="p" r="11.04" gradientUnits="userSpaceOnUse" gradientTransform="matrix(1.1641-1.9754 2.046 1.2058-614.23 1863.9)"><stop stop-color="#fff"/><stop offset="1" stop-color="#fff" stop-opacity="0"/></radialGradient><linearGradient id="q" xlink:href="#p" y1="233.49" y2="218.97" gradientUnits="userSpaceOnUse" x2="0"/><linearGradient id="r" y1="219.12" x1="991.58" y2="214.7" gradientUnits="userSpaceOnUse" x2="992.39" gradientTransform="translate(16.514-35.636)"><stop stop-color="#fff"/><stop offset="1" stop-color="#4d4d4d" stop-opacity="0"/></linearGradient><linearGradient id="s" xlink:href="#q" y1="215.93" x1="1002.8" y2="223.38" gradientUnits="userSpaceOnUse" x2="1003.1" gradientTransform="translate(16.514-35.636)"/><linearGradient id="t" xlink:href="#r" y1="219.12" x1="991.58" y2="214.7" gradientUnits="userSpaceOnUse" x2="992.39" gradientTransform="translate(30.26-36.49)"/><linearGradient id="u" y1="208.36" y2="220.49" gradientUnits="userSpaceOnUse" x2="0" gradientTransform="translate(16.514-35.636)"><stop stop-color="#4d4d4d"/><stop offset="1" stop-color="#4d4d4d" stop-opacity="0"/></linearGradient><linearGradient id="v" xlink:href="#u" y1="208.36" y2="220.49" gradientUnits="userSpaceOnUse" x2="0" gradientTransform="translate(22.384-.586)"/><linearGradient id="w" y1="206.81" x1="999.14" y2="213.36" gradientUnits="userSpaceOnUse" x2="1003" gradientTransform="translate(17.482-35.69)"><stop stop-color="#b3b3b3"/><stop offset="1" stop-color="#fff"/></linearGradient><linearGradient id="x" y1="170.13" y2="164.62" x1="1006.7" gradientUnits="userSpaceOnUse" x2="1006.1"><stop stop-color="#7f7f7f" stop-opacity="0"/><stop offset="1"/></linearGradient><linearGradient id="y" y1="170.63" y2="165.69" x1="1015.5" gradientUnits="userSpaceOnUse" x2="1013"><stop stop-color="#333"/><stop offset="1" stop-color="#fff" stop-opacity="0"/></linearGradient><linearGradient id="z" y1="174.22" y2="169.45" x1="1019.5" gradientUnits="userSpaceOnUse" x2="1015.7"><stop/><stop offset="1" stop-opacity="0"/></linearGradient><linearGradient id="A" y1="166.91" y2="174.3" x1="1027.7" gradientUnits="userSpaceOnUse" x2="1017.1"><stop stop-color="#333"/><stop offset="1" stop-color="#ccc"/></linearGradient><linearGradient id="B" y1="164.83" y2="174.4" x1="1036.5" gradientUnits="userSpaceOnUse" x2="1025.1"><stop stop-color="#ccc"/><stop offset="1" stop-color="#fff"/></linearGradient><linearGradient id="C" xlink:href="#z" y1="162.97" x1="1004.5" y2="162.04" gradientUnits="userSpaceOnUse" x2="1008.6"/><linearGradient id="D" xlink:href="#C" y1="161.72" x1="1006.5" y2="163.86" gradientUnits="userSpaceOnUse" x2="1008.2" gradientTransform="translate(22.425.718)"/><linearGradient id="E" xlink:href="#p" y1="164.11" y2="171.9" x1="1031.8" gradientUnits="userSpaceOnUse" x2="1032.4"/><linearGradient id="F" x1="411.37" gradientUnits="userSpaceOnUse" x2="511"><stop stop-color="#ccc"/><stop offset="1" stop-color="#191919"/></linearGradient><radialGradient cx="999.93" cy="205.93" id="G" r="2.866" gradientUnits="userSpaceOnUse" gradientTransform="matrix(55.986 25.92-51.367 110.96-45063-48503)"><stop stop-color="#fff"/><stop offset="1"/></radialGradient><linearGradient id="H" xlink:href="#w" y1="291.17" x1="278.52" y2="316.63" gradientUnits="userSpaceOnUse" x2="189.96"/><radialGradient cx="990.44" cy="209.14" id="I" r="5.838" gradientUnits="userSpaceOnUse" gradientTransform="matrix(-28.792-35.184 33.772-27.637 21787 40907)"><stop stop-color="#fff"/><stop offset="1" stop-color="#b3b3b3"/></radialGradient><linearGradient id="J" xlink:href="#z" y1="752.23" x1="202.51" y2="684.54" gradientUnits="userSpaceOnUse" x2="215.48"/><radialGradient cx="1006.3" cy="164.89" id="K" r="5.473" gradientUnits="userSpaceOnUse" gradientTransform="matrix(15.657 27.812-42.83 24.111-8504.3-31809)"><stop stop-color="#333"/><stop offset="1" stop-color="#efefef"/></radialGradient><linearGradient id="L" y1="324.27" x1="469.94" y2="723.92" gradientUnits="userSpaceOnUse" x2="661.3"><stop stop-color="#e6e6e6"/><stop offset="1" stop-color="#666"/></linearGradient><linearGradient id="M" y1="730.24" x1="250.27" y2="421.85" gradientUnits="userSpaceOnUse" x2="282.06"><stop stop-color="#fff"/><stop offset="1" stop-color="#e6e6e6"/></linearGradient></defs><g transform="translate(-20.22-117.73)"><g fill-rule="evenodd"><path opacity=".756" filter="url(#o)" d="m1281.8 669.91l53.2 20.64 42.7-29.39-53.2-13.65z" transform="matrix(6.968 0 0 7.1641-8911.7-4137.4)"/><path fill="#500" d="m38.852 368.18v277.03l354.81 128.85 273.95-183.15v-263.18l-281.65 149.29z"/><path opacity=".525" fill="url(#p)" filter="url(#n)" d="m997.28 194.51l22.12 8.26v-17.07l-22.12-6.72z" transform="matrix(15.815 0 0 15.815-15731-2436.6)"/></g><path opacity=".522" fill="url(#q)" filter="url(#m)" d="m1002.7 222.42h.44v15.805h-.44z" transform="matrix(18.002 0 0 18.002-17663-3520.4)"/><path fill="#500" d="m319.5 219.77l355.65 56.07-.87 95.52-279.89 141.64-360.74-110.9.584-97.65 285.27-84.68z"/><g fill-rule="evenodd"><path opacity=".5" fill="url(#r)" filter="url(#l)" d="m996.92 175.07l.09 4.36 22.19 6.9.1-5.08z" transform="matrix(15.815 0 0 15.815-15731-2436.6)"/><path fill="url(#s)" filter="url(#k)" d="m997.08 173.49l22.42 5.94 17.5-7.69v.46l-17.3 7.67-.1 6.23h-.5v-6.23l-21.99-5.85z" transform="matrix(15.815 0 0 15.815-15731-2436.6)"/><path filter="url(#j)" d="m1023.9 170.19l-18.3 5.78-.2 21.61 4.6 1.87.2-22.15 18.7-7.08z" transform="matrix(15.815 0 0 15.815-15731-2436.6)"/><path fill="url(#M)" d="m467.13 243.06l-296.48 97.89-4.41 351.7 73.66 26.47 3.71-357.02 297.45-107.8z"/><path opacity=".5" fill="url(#t)" filter="url(#l)" d="m1014.7 176.33l.4 4.61 17.8 4.54.1-5.09z" transform="matrix(-15.815 3.8478 0 15.815 16726-6396.6)"/><path filter="url(#i)" d="m1005.3 170.83l21.8 5.57v21.42l4.2-2.82-.2-20.54-21.6-4.75z" transform="matrix(15.815 0 0 15.815-15731-2436.6)"/><path fill="url(#L)" d="m168.16 264.43l347.16 86.04-1.31 343.43 65.88-44.22-1.13-329.87-342.1-76.34z"/><path fill="url(#K)" d="m244.01 172.71s3.45 28.5 23.26 54.73c9.4 12.45 45.83 33.52 45.83 33.52l19.85 23.94s-20.53 6.85-30.79 5.48-61.17-16.14-80.32-27.09c-19.16-10.94-53.36-49.52-55.42-58.42-2.05-8.89-11.5-32.01-3.29-47.07 8.21-15.05 24.1-22.03 28.89-22.72 4.79-.68 49.94 22.58 49.94 22.58z"/><path opacity=".591" fill="url(#u)" filter="url(#h)" d="m1005.6 175.93l4.2 1.02-.3 11.59-4-3.55z" transform="matrix(15.815 0 0 15.815-15731-2436.6)"/><path fill="url(#J)" d="m168.62 651.7l-1.18 39.97 71.34 25.75.59-44.11z"/><path opacity=".674" fill="url(#v)" filter="url(#h)" d="m1011.5 210.58l4.1 1.82-.2 11.19-4-3.55z" transform="matrix(-13.1 0 0 13.1 13829-2431.5)"/><g transform="matrix(15.741 1.5274-1.5274 15.741-15388-3975.6)"><path opacity=".953" filter="url(#g)" d="m1015 173.21s1.9-.14 2.2.99-.6 2.48 1.8 4.67c.7-.36.7-1.06.7-1.06l1.9.77s-1.5-2.19-1.5-3.11c0-.91.2-2.05-.4-2.4-.7-.35-3.8-.35-3.8-.35z"/><path fill="url(#w)" d="m1015.1 173.08s1.9-.14 2.2.99-.6 2.47 1.8 4.66c.7-.35.7-1.06.7-1.06l1.9.78s-1.5-2.19-1.5-3.11.2-2.05-.4-2.4c-.7-.36-3.8-.36-3.8-.36z"/></g><path filter="url(#f)" d="m1010.4 171.77s-1.8.92-2.7 1.2c-.8.28-5.5-.07-5.5-.07l2.4.78-.6 1.41s3.5.04 4.8-.14c1.9-.26 2.5-1.77 5.1-1.84 1.6-.04 2.4.14 2.4.14s-2.1-1.69-5.9-1.48" transform="matrix(15.815 0 0 15.815-15731-2436.6)"/><path fill="url(#x)" filter="url(#e)" d="m1008.6 163.52s-1.1-.63-1.5-.63c-.5 0-2 .58-2.1 1.36-.2.79-.4 2.42.3 3.36.8.95 1.9 1.94 1.9 1.94s-1.7-3.16-1-4.61c.8-1.59 2.4-1.42 2.4-1.42" transform="matrix(15.815 0 0 15.815-15731-2436.6)"/><path fill="url(#I)" d="m232.25 117.91c-29.76 2.09-61.2 23.06-71.66 41.02-13.95 23.95 8.02 67.13 40.3 92.09 44.25 34.2 110.44 35.47 110.44 35.47 0-1.03 43.23 11.95 25.7-38.6-25.18-72.57-42.19-108.02-76.11-125.04-8.69-4.36-18.75-5.64-28.67-4.94m-41.62 28.34c30.19-9.41 49.04 31.59 62.38 48.27 16.42 20.52 57.82 81.05 57.82 81.05l8.4 10.87s-4.57.08-50.41-10.87c-45.83-10.95-78.79-42-80.16-44.74-27.31-32.41-35.35-72.42 1.97-84.58"/><path fill="url(#H)" d="m253.71 276.38s-29.07 14.53-42.48 19-87.19-1.12-87.19-1.12l38.01 12.3-10.07 22.35s55.74.55 76.02-2.23c29.92-4.1 39.12-27.95 80.48-29.07 24.81-.67 38.01 2.24 38.01 2.24s-33.54-26.83-92.78-23.47"/><path filter="url(#d)" d="m1019.9 171.39s-3.1-1.43-3.8-1.43-1.9 1.37-1.5 2.21c.3.85 2.8 1.44 3.6 1.44.7-.18 1.3-.4 2-.72 0-.45-.3-1.5-.3-1.5" transform="matrix(15.815 0 0 15.815-15731-2436.6)"/><path fill="url(#y)" filter="url(#c)" d="m1011.9 167.01l2.8 4.38 1.4-1.04s-1.4-3.13-2.2-4.52-1.3-2.02-1.3-2.02 1.2 2.92.9 3.48-1.5-.28-1.6-.28" transform="matrix(15.815 0 0 15.815-15731-2436.6)"/><path fill="url(#G)" d="m398.03 272.81c-4.89-4.12-49.56-24.03-60.91-24.03s-29.91 21.66-24.76 35.07c5.16 13.41 45.39 22.7 57.77 22.7 11.03-2.83 21.05-6.33 31.98-11.35 0-7.22 2.15-15.29-4.08-22.39"/><path fill="url(#F)" d="m379.46 306.11s35.54 13.03 57.43 16.45 66.4 10.92 77.35 6.81c10.94-4.1 70.46-16.42 78.67-29.41 8.21-13-43.78-15.06-43.78-15.06s-29.42 18.48-49.95 19.84c-20.52 1.37-80.72-12.99-80.72-12.99l-38.31 10.26z"/><path fill="url(#z)" filter="url(#b)" d="m1015.6 169.98s.4-.17.7-.07c.4.13.7.18 1.6.57 1 .43 1.7.76 1.8.81.5.48.1.98.2 1.54-.4.17-1.4.51-1.6.54-.7-.65.1-1.76 1.1-1.84-.2-.22-1.2-.73-1.5-.85-.8-.33-1.7-.65-1.7-.65s-.9-.11-1.3.61c.1-.36.7-.7.7-.66" transform="matrix(15.815 0 0 15.815-15731-2436.6)"/><g transform="matrix(15.815 0 0 15.815-15731-2436.6)"><path fill="url(#A)" d="m1019 173.12l2.1-.52s3.5-2.94 3.9-3.12c2-1.64 4.5-2.25 6.5-1.51 0 0-.2-2.64-.9-2.98-.7-.35-2.6-.61-2.6-.61s-2.6 1.73-2.9 2.03-4.7 4.63-4.7 4.63l-1.3 1.62-.3.56z"/><path fill="url(#B)" d="m1029.8 163.55c-3.4.22-10 8.06-10.4 8.49s-1 1.37-1 1.32 4.3 1.88 7.9 1.66 8.2-2.41 8.6-5.54c.6-3.6-1.8-6.14-5.1-5.93m-2.3 1.49c1.1-.2 3.5-.22 3.1 3.42-.3 2.25-1.9 5.82-5.2 6-3.3.17-6.6-1.27-6.6-1.31 0 0 5.3-5.61 5.6-5.79.2-.17 1.8-2 3.1-2.32"/></g><path opacity=".558" fill="url(#C)" filter="url(#a)" d="m1004.7 164.66c-.1-.82 1.5-2.01 2.9-2.53 1.3-.53 3-.36 3-.36s-1.5.67-2.1 1.12c-1.2-.12-2.4.41-2.4.41s-.7.28-1.4 1.36" transform="matrix(15.815 0 0 15.815-15731-2436.6)"/><path opacity=".558" fill="url(#D)" filter="url(#a)" d="m1026.8 165.52c.8-1.14 1.3-1.64 2.9-2.13 1.4-.42 3.8.67 3.8.67s-1.3 1.37-1.9 1.83c-.7-.94-2.5-1.22-2.5-1.22s-1.1-.15-2.3.85" transform="matrix(15.416 3.5311-3.5311 15.416-14738-6002.9)"/><path fill="url(#E)" filter="url(#filter5389)" d="m1030.8 165.7s.7 1.76.3 3.24-1 2.36-1 2.36 2 .38 3-.05c1-.44 1.5-1.27 1.5-1.27s.5-2.47-.1-3.62-1.4-1.43-1.4-1.43-1.4 0-2.3.77" transform="matrix(15.815 0 0 15.815-15731-2436.6)"/></g></g></svg>