<svg xmlns="http://www.w3.org/2000/svg" viewBox="0 0 500 375" xmlns:xlink="http://www.w3.org/1999/xlink"><defs><linearGradient id="a" y1="156.03" x1="-228.34" y2="-528.2" gradientUnits="userSpaceOnUse" x2="104.23" gradientTransform="matrix(.70461 0 0 .63704 415.29 76.69)"><stop stop-color="#d0f0ff"/><stop offset="1" stop-color="#003968"/></linearGradient><linearGradient id="b" xlink:href="#a" y1="-27.979" x1="-84.01" y2="44.799" gradientUnits="userSpaceOnUse" x2="-42.793" gradientTransform="matrix(.92616 0 0 .48465 415.29 76.69)"/><linearGradient id="c" y1="367.87" x1="220.03" y2="322.11" gradientUnits="userSpaceOnUse" x2="208.67" gradientTransform="matrix(-1.39591 0 0 .49045 414.65-29.54)"><stop stop-color="#fff"/><stop offset="1" stop-color="#fff" stop-opacity="0"/></linearGradient><linearGradient id="d" xlink:href="#a" y1="228.04" x1="286.59" y2="776.39" gradientUnits="userSpaceOnUse" x2="-509.76" gradientTransform="matrix(-1.20446 0 0 .56841 414.65-29.54)"/><linearGradient id="e" xlink:href="#a" y1="46.2" x1="-273.98" y2="111.63" gradientUnits="userSpaceOnUse" x2="-289.79" gradientTransform="matrix(-1.15136 0 0 .86854 0 0)"/><linearGradient id="f" xlink:href="#a" y1="108.76" x1="214.89" y2="352.2" gradientUnits="userSpaceOnUse" x2="-46.23" gradientTransform="matrix(-1.03542 0 0 .6612 414.65-29.54)"/><radialGradient cx="195.7" cy="252.7" id="g" r="158.86" gradientUnits="userSpaceOnUse" gradientTransform="scale(1.29728.77085)"><stop stop-color="#00006d"/><stop offset=".5" stop-color="#1f4b72" stop-opacity=".837"/><stop offset="1" stop-color="#fff" stop-opacity="0"/></radialGradient></defs><g fill-rule="evenodd"><path fill="url(#g)" d="M459.97014 194.79526A206.09052 122.45958 0 1 1 47.789108 194.79526 206.09052 122.45958 0 1 1 459.97014 194.79526" transform="matrix(1.16908 0 0 .86179-53.878 43.848)"/><g stroke="#000" stroke-width="1.553"><path fill="url(#f)" d="m146.01 137.39c0 0 144.86-48.966 144.86-58.15 0-9.181-4.081-4.081-5.101-14.282 16.322-19.383 0-20.403-11.221-26.523-7.141 17.342-46.926 33.664-46.926 33.664l-90.79 49.986z"/><path fill="url(#e)" d="m375.92 59.859c-3.06-6.121-22.443-12.242-26.523-8.161-4.081 4.081-23.983 15.07-30.1 19.15-6.121 4.081-8.424 11.221-16.822 10.438-6.121-3.06-24.483-12.242-25.503-6.121-1.02 6.121-6.121 41.825 21.423 41.825 27.544 0 57.13 10.201 65.29-6.121 8.161-16.322 12.242-51.01 12.242-51.01z"/><path fill="url(#d)" d="m395.94 152.69c0 0 1.02-51.01-3.06-60.19-4.081-9.181-12.242-27.544-16.322-31.624-4.081-4.081-7.141-5.101-11.221 0-4.081 5.101-4.081 23.463-9.181 30.604-5.101 7.141-8.161 12.242-18.362 13.262-10.201 1.02-21.423-4.081-30.604-12.242-9.181-8.161-15.302-18.362-22.443-20.403-7.141-2.04-8.161 0-20.403 7.141-12.242 7.141-113.23 44.886-113.23 44.886l-10.201-1.02 104.05-61.21c0 0-83.65 44.886-98.95 53.05-15.302 8.161-23.463 16.322-31.624 17.342-8.161 1.02-32.644-5.101-39.785-1.02-7.141 4.081-14.282 6.121-17.342 14.282-3.06 8.161-6.121 35.705-6.121 35.705 0 0 12.242 16.322 27.544 20.403 15.302 4.081 89.77 20.403 108.13 17.342 18.362-3.06 47.946-3.06 60.19-10.201 12.242-7.141 34.685-8.161 45.906-8.161 11.221 0 61.21 4.081 74.47-2.04 13.262-6.121 21.423-29.584 25.503-33.664 4.081-4.081 3.06-12.242 3.06-12.242z"/></g><path fill-opacity=".227" d="m393.38 144.75c2.256-5.641 2.256 31.588 1.128 33.844-117.33 22.563-186.14 7.897-186.14 7.897 0 0 86.87 7.897 174.86-20.306 7.897-6.769 10.153-21.435 10.153-21.435"/><path fill="#171717" stroke="#000" stroke-width="1.356" d="m397.98 158.4l3.06 24.878c0 0 0 1.555-1.02 6.997-1.02 5.442-2.04 8.552-8.161 10.884-6.121 2.332-63.25 10.884-66.31 10.884-3.06 0-26.523-6.22-38.765-4.665-12.242 1.555-20.403 3.11-26.523 5.442-6.121 2.332-19.383 9.329-44.886 10.11-25.503.777-53.05 2.332-82.63-3.887-29.584-6.219-30.693-6.94-54.984-16.894-13.773-6.88-24.525-12.398-32.791-21.06-.266-15.998 10.246-30.461 10.246-24.24 5.645 16.1 11.354 14.417 30.09 23.08 14.882 5.442 38.26 18.902 57.645 16.57 19.383-2.332 58.15-8.552 66.31-8.552 8.161 0 76.51 4.665 97.93 2.332 21.423-2.332 68.35-10.11 78.55-13.994 10.201-3.887 12.242-17.881 12.242-17.881z"/></g><path fill="none" stroke="#000" stroke-linejoin="round" stroke-width="6.25" d="m141.93 118.01l22.02 13.499 6.075-30.841 46.38 2.942 3.06-28.445 45.906 8.161-10.201-16.322-19.383-1.02 5.693 26.17-45.2-6.197-6.712 29.779z"/><g fill-rule="evenodd"><path fill="url(#c)" d="m136.44 127.57c0 0-8.161 4.081-17.342 5.101-9.181 1.02-35.705-2.04-35.705-2.04 0 0-11.221 0-1.02 6.121 10.201 6.121 87.73 24.483 76.51 18.362-11.221-6.121-39.785-9.181-47.946-14.282-8.161-5.101 25.503-13.262 25.503-13.262"/><path fill="#fff" fill-opacity=".616" d="m373.31 65.736c0 0-2.172-8.161-4.442-2.04-2.27 6.121-4.826 21.423-9.436 27.544-3.132 5.223-19.14 23.617-6.148 13.749 21.322-22.443 20.03-39.25 20.03-39.25"/><path fill-opacity=".054" d="m233.74 103.73c0 0-89.77 28.564-76.51 34.685 13.262 6.121 76.51-34.685 76.51-34.685"/></g><g stroke="#000"><g fill="none" stroke-width="4.659"><g stroke-linejoin="round"><path d="m256.18 67c9.181-3.06 6.121-3.06 14.282-1.02 8.161 2.04 16.322 12.242 7.141 13.262-9.181 1.02-16.322-3.06-21.423-12.242z"/><path d="m257.2 63.94c0 0-4.081-9.181-11.221-8.161-7.141 1.02-17.342 8.161-9.181 5.101 7.141 5.101 20.403 3.06 20.403 3.06z"/></g><path d="m247 89.44l9.181-23.463c0 0-19.383 10.201-25.503 15.302"/></g><g fill-rule="evenodd"><path fill="#fff" stroke-linejoin="round" fill-opacity=".216" stroke-width="1.541" d="m323.4 122.87c0 0-26.757-12.02-32.839-18.575-6.081-6.556-8.514-10.927-12.162-10.927-3.649 0-83.921 37.15-91.22 40.43-7.297 3.278-34.05 6.556-17.03 8.741 17.03 2.185 70.54 0 88.79-4.371 18.244-4.371 64.46-15.297 64.46-15.297z"/><path fill="url(#b)" stroke-width="1.425" d="m301.2 87.36c0 0 27.439 8 40.44 2.668 12.997-5.337 28.883-25.349 34.66-28.02 5.777-2.668 17.5-6.805 27.609-.134 10.11 6.671 10.294-.701 13.183 13.975 2.888 14.676 3.977 40.859-7.576 43.528-11.553 2.668-108.31-32.02-108.31-32.02z"/><path fill="url(#a)" stroke-width=".921" d="m218.89 176.75l83.76-84.05c0 0-7.221-4-4.332-10.673 2.888-6.671 7.221-20.01 21.662-18.678 14.442 1.334 38.992-2.668 40.44 6.671 1.444 9.339-1.444 17.344 0 25.349 1.444 8-5.777 2.668-10.11 8-4.332 5.337-115.53 97.39-115.53 97.39l-17.33-6.671z"/></g></g><g fill-rule="evenodd"><path fill-opacity=".324" d="m385.1 66.39c5.01-5.223 14.704-4.462 18.704-.125 7.084 3.53 19.914 10.255 10.688 28.31-3.296 10.317-8.973 23.11-12.437 13.851 1 15.177-.502-35.25-16.956-42.03"/><g stroke="#000"><path fill="#b6d9ec" stroke-width="1.675" d="m129.35 254.13c0 0 5.777-28.02 14.442-32.02 8.665-4 36.1-16.01 43.32-21.346 7.221-5.337 18.774-26.683 25.995-32.02 7.221-5.337 49.1-48.03 59.21-54.7 10.11-6.671 18.774-33.35 24.551-32.02 5.777 1.334 11.553 6.671 5.777 16.01-5.777 9.339-80.87 78.71-80.87 84.05 0 5.337 2.888 13.341 8.665 13.341 5.777 0 98.2-94.72 111.2-97.39 12.997-2.668 30.33-5.337 38.992-1.334 8.665 4 23.11 20.01 24.551 14.676 1.444-5.337 18.63-26.672 8.521-37.35-4.121-8.927-9.305-10.67-16.526-13.338-7.221-2.668-5.394-3.077 9.449 1.32 11.553 5.337 20.22 1.334 23.11 13.341 2.888 12.01 10.11 13.341 12.998 33.35 2.888 20.01 10.11 69.38 10.11 69.38l-67.876 49.36-8.665 8-20.22 34.688c0 0-25.995 24.01-54.878 25.349-28.883 1.334-79.43 0-92.43-4-12.997-4-59.21-13.341-67.876-20.01-8.665-6.671-11.553-17.344-11.553-17.344z"/><path stroke-width=".712" d="m129.35 252.84c0 0 0 18.1 1.444 24.13 1.444 6.03 4.333 13.573 11.553 16.589 7.221 3.02 49.1 18.1 95.31 19.605 46.21 1.508 64.987-1.508 89.54-10.557 24.551-9.05 28.883-13.573 31.772-21.11 2.888-7.54 5.777-21.11-7.221-21.11-12.997 0-30.33 19.605-41.881 25.637-11.553 6.03-75.1 7.54-75.1 7.54 0 0-5.777-7.54-10.11-13.573-4.332-6.03-89.54-12.06-95.31-27.15z"/></g><path fill="#fff" fill-opacity=".346" d="m195.78 207.43c0 0-24.551 6.671-33.22 12.01-8.665 5.337-8.665 2.668-7.221 6.671 1.444 4 24.551 16.01 67.876 6.671 43.32-9.339 118.42-26.683 90.98-25.349-27.439 1.334-75.1 14.676-85.21 13.341-10.11-1.334-33.22-13.341-33.22-13.341"/><path d="m360.42 264.8c0 0 1.444-23.258 21.662-37.794 20.22-14.536 56.32-34.887 63.54-45.06 7.221-10.175 7.221-14.536 7.221-14.536 0 0 5.777 36.34 1.444 46.516-4.332 10.175-59.21 33.433-66.43 33.433-7.221 0-4.332 0-11.553 2.907-7.221 2.907-15.886 14.536-15.886 14.536"/><path fill="#d2eeff" d="m407.27 111.04c0 0 8.987-10.586 9.861-18.591.874-8 5.101-11.04-1.892-19.04-7.562-7.535-26.987-14.943-19.994-13.609 6.993 1.334 25.754 7.628 28.377 15.633 2.622 8 .257 18.266-4.988 26.27-5.245 8-7.867 21.346-11.364 9.339"/></g><g stroke="#000"><g stroke-linejoin="round"><path fill="none" stroke-width="7.088" d="m211.67 183.42l33.22 9.339-10.11-36.02 53.43-6.671-10.11-34.688 59.21-9.339-20.22-16.01-25.995 8 20.22 30.685-57.767 9.339 11.553 34.688z"/><path fill="#fff" fill-rule="evenodd" fill-opacity=".259" stroke-width="1.675" d="m280.99 196.76l72.21-74.71c0 0 2.888-5.337 11.553-4 8.665 1.334 10.11 6.671 18.774 9.339 8.665 2.668 25.995 8 27.439 6.671 1.444-1.334-43.32 37.36-60.65 45.36-17.33 8-57.767 21.346-69.32 17.344z"/><path fill="none" stroke-width="7.088" d="m315.85 87.29c0 0-2.937-7.342-13.216-8.811-10.279-1.468-26.432 11.748-16.15 10.279 10.279-1.468 41.12-8.811 51.4-5.874 10.279 2.937 29.369 19.09 14.684 19.09-14.684 0-36.711-14.684-36.711-14.684z"/></g><path fill="none" stroke-width="7.088" d="m292.35 107.85c0 0 13.216-13.216 20.558-19.09 7.342-5.874 1.468 19.09 5.874 33.774 4.405 14.684 1.468 13.216 1.468 13.216"/></g></svg>