<svg xmlns="http://www.w3.org/2000/svg" viewBox="0 0 16 16"><path fill="#5e5d5d" d="m9.916.873c-1.752 1.405-3.206 3.515-4.668 5.273-.992 1.193-2.132 3.176-1.382 4.876.713 1.615 3.35 1.109 4.465.341 1.321-.909 2.347-2.321 3.402-3.563.757-.891 2.178-2.093 1.396-3.436-.711-1.221-1.779-1.775-2.914-.884-.642.503-1.611 1.351-1.542 2.328.309 1.285 1.746-.991 2.147-.887 1.034.272.136 1.075-.167 1.455-.425.531-.85 1.062-1.274 1.593-.479.599-1 1.215-1.559 1.72-.572.518-2.163.985-2.379-.157-.283-1.489 1.405-2.837 2.232-3.775 1.086-1.232 3.396-4.921 5.069-2.987.512.592 1.109 1.126 1.095 2.022-.012.776-.405 1.366-.877 1.888-1.766 1.948-3.532 3.896-5.298 5.845-1.247 1.375-3.379 1.842-5.02 1.063-.719-.342-.766-1.616-.718-2.355.048-1.134.267-2.108.991-2.938 1.014-1.161 2.035-2.315 3.069-3.454.631-.695 1.275-1.373 1.923-2.049.41-.428 1.147-.95 1.092-1.671-.172-1.827-2.01.066-2.528.635-1.081 1.192-2.161 2.384-3.242 3.576-.668.737-1.343 1.467-2 2.211-1.188 1.334-1.357 3.1-1.148 4.902.106.914.361 2.154 1.13 2.671.764.513 1.748.68 2.619.823 1.611.265 3.391-.309 4.548-1.585 2.15-2.371 4.3-4.743 6.45-7.114 1.25-1.379 1.713-3.276.343-4.832-.506-.574-.986-1.223-1.55-1.73-1.082-.972-2.709-.884-3.7.199m-5.595 10.46c-1.295-1.428.178-3.944 1.08-5.03.607-.729 1.219-1.454 1.836-2.173.871-1.016 1.743-2.292 2.811-3.061 1.643-1.447 3.03-.704 4.329.77 1.183 1.343 2.183 3.152.686 4.804-1.781 1.965-3.562 3.93-5.344 5.894-.651.718-1.283 1.559-2.029 2.163-1.54 1.245-3.427 1.206-5.184.709-.903-.255-1.542-.588-1.903-1.59-.29-.803-.367-1.67-.374-2.527-.014-1.842.506-2.885 1.646-4.144 1.787-1.971 3.573-3.941 5.359-5.912.336-.371.863-.925 1.347-.497.564.499-.104 1.133-.456 1.501-1.375 1.436-2.723 2.897-4.04 4.396-.86.977-1.949 1.918-2.228 3.302-.171.849-.229 1.833-.037 2.686.268 1.195 1.118 1.379 2.112 1.497 3.043.361 4.966-2.638 6.889-4.759.819-.903 1.638-1.807 2.457-2.71.561-.619.905-1.505.721-2.384-.159-.757-.796-1.307-1.262-1.846-1.673-1.933-4.344 2.18-5.377 3.355-.957 1.088-2.804 2.664-1.898 4.355.412.492 1.238.319 1.753.158.889-.278 1.504-1.234 2.128-1.943.738-.84 1.402-1.75 2.154-2.577.176-.195-.027-.479-.157-.682-.457-.711-.984-.305-1.424.183-.142.158-.603.797-.905.691-.565-.2.373-1.403.565-1.578.936-.856 1.751-1.689 2.766-.569.676.746 1.157 1.47.4 2.455-.904 1.177-1.921 2.265-2.877 3.39-.774.912-1.823 1.899-2.987 2.066-.746.108-1.97.251-2.554-.394"/><path fill="#7f7f7f" d="m15.15 2.554c-.986-1.12-1.943-2.602-3.534-2.438-.997.103-1.779.897-2.451 1.646-.95 1.057-1.88 2.137-2.801 3.225-.402.475-.801.953-1.2 1.431-.831.917-1.105 1.772-1.338 3-.431 2.265 1.485 2.655 3.063 2.423 1.676-.246 2.884-1.906 3.98-3.196.652-.768 2.6-2.44 2.371-3.629-.124-.646-.569-.999-.974-1.447-.803-.886-1.704-.327-2.446.406-.256.253-1.725 1.965-.801 2.108.498.077.88-.738 1.208-1 .384-.424 1.341-.193 1.243.548-.037.284-.821.918-1.041 1.193-1 1.25-2.104 3.175-3.663 3.455-.87.157-1.535-.181-1.424-1.251.181-1.03.752-1.634 1.387-2.365.601-.692 1.206-1.378 1.816-2.06.812-.907 1.836-2.515 3.1-2.563.778-.03 1.257.744 1.738 1.301.731.845.704 2.04.051 2.947-.623.867-1.439 1.613-2.146 2.393-1.035 1.141-2.069 2.282-3.104 3.424-.996 1.099-2.209 2.044-3.701 1.951-.637-.04-1.693-.035-2.178-.57-.555-.685-.529-1.782-.465-2.643.134-1.791 1.099-2.74 2.158-3.946 1.469-1.673 2.987-3.282 4.509-4.895.493-.522.534-1.645-.405-1.515-.911.126-1.936 1.761-2.555 2.444-1.238 1.365-2.475 2.73-3.712 4.096-1.18 1.302-1.73 2.365-1.714 4.274.007.78.072 1.559.296 2.304.344 1.14.96 1.592 1.972 1.891 1.817.538 3.788.583 5.38-.718 1.769-1.447 3.262-3.528 4.814-5.239 1.532-1.69 4.909-4.401 2.565-6.987"/><path fill="#e5e5e5" d="m8.68.831c-.724-1.123-3.156 2.293-3.564 2.744-.962 1.065-1.965 2.083-2.922 3.154-.946 1.058-1.665 1.858-1.734 3.404-.032.714.011 1.434.09 2.143.025.223.013.894.17 1.068-.063-.069.027-.792.03-.897.019-.665.062-1.331.167-1.987.239-1.497 1.048-2.559 1.945-3.667.852-1.051 1.768-2.031 2.664-3.035.602-.675 1.193-1.364 1.748-2.087.222-.289.503-.528.855-.588.109-.018.79.116.551-.252"/><path fill="#999898" d="m8.855 1.261c-.341-.089-.951.818-1.151 1.047-.566.647-1.124 1.304-1.701 1.94-.713.787-1.459 1.536-2.175 2.321-.733.803-1.67 1.662-1.959 2.798-.125.492-.465 2.316-.065 2.756-.304-.335.169-2.236.284-2.6.343-1.088 1.209-1.844 1.916-2.655.56-.643 5.18-5.103 4.851-5.607"/><path fill="#e5e5e5" d="m14.997 2.607c-.756-1.013-1.722-2.35-3.03-2.373-1.654-.03-2.739 1.669-3.797 2.837-1.038 1.146-2.082 2.294-3.038 3.525-.496.638-.888 1.249-1.068 2.082-.112.521.018 1.392-.138 1.835.113-.32.036-.821.136-1.178.27-.962.786-1.836 1.377-2.595 1.045-1.343 2.311-2.422 3.44-3.668.927-1.023 1.99-2.941 3.564-2.299.774.315 2.025 1.131 2.55 1.836"/><path fill="#999898" d="m13.291 3.244c-.553-.971-1.123-1.792-2.244-1.43-1.012.327-1.785 1.445-2.503 2.221-.824.89-1.681 1.751-2.435 2.715-.345.441-.591.884-.715 1.458-.048.225-.295 1.221-.113 1.424-.05-.055.082-.678.096-.754.117-.666.383-1.145.812-1.622.938-1.043 1.856-2.107 2.787-3.157 1.209-1.364 2.964-3.219 4.315-.855"/><path fill="#e5e5e5" d="m14.183 5.068c.532.587-5.115 6.267-5.595 6.793-.836.917-1.506 1.876-2.725 2.133-.639.135-1.277.266-1.931.219-.104-.008-1.585-.231-1.585-.276 0 .263 1.323.508 1.476.538.778.151 1.656.17 2.427-.051 1.042-.299 1.696-1.143 2.414-1.962 1.253-1.429 2.498-2.854 3.862-4.154.516-.492 2.49-2.322 1.658-3.24"/><path fill="#999898" d="m15.872 4.04c0 1.387-.768 2.345-1.594 3.266-1.49 1.661-3.01 3.29-4.534 4.917-1.149 1.231-2.183 2.736-3.824 3.142-.837.207-1.72.237-2.571.126-.121-.016-1.825-.347-1.825-.392 0 .349 1.756.664 1.962.7.956.168 1.961.114 2.88-.236 1.302-.496 2.106-1.532 3.07-2.557 1.537-1.636 3.02-3.326 4.566-4.954.629-.663 1.316-1.34 1.697-2.221.281-.65.173-1.13.173-1.792"/><path fill="#e5e5e5" d="m11.707 5.83c0 .216-.254.502-.359.659-.526.788-1.09 1.557-1.671 2.296-.518.659-1.112 1.378-1.814 1.799-.208.125-2.14.23-2.14.052 0-.011 1.764-.299 1.991-.464.845-.615 1.489-1.634 2.179-2.44.453-.53.909-1.06 1.394-1.555.026-.026.42-.369.42-.346"/><path fill="#999898" d="m13.212 5.473c0 .582-.624 1.143-.961 1.538-.717.843-1.422 1.702-2.153 2.529-.667.754-1.443 1.666-2.358 2.043-.181.074-2.336.497-2.336.246 0 .118 2.369-.644 2.617-.799 1.141-.714 2.031-1.956 2.93-2.986.602-.69 1.196-1.387 1.789-2.085.042-.05.471-.477.471-.485"/><path fill="#e5e5e5" d="m12.477 4.02c-.547-.606-1.023-.898-1.777-.528-.202.099-2.107 1.567-1.762 1.963.164.187 1.781-1.588 1.963-1.713.407-.279.697-.157 1.069.162.091.078.942 1.123 1.03 1.025.134-.148-.462-.84-.524-.908"/></svg>