<svg xmlns="http://www.w3.org/2000/svg" viewBox="0 0 464.89 464.96" xmlns:xlink="http://www.w3.org/1999/xlink"><defs><path opacity=".99" fill-rule="evenodd" stroke="#000" id="a" d="m500 578.08l-34.29-465.71-5.714 488.57z"/></defs><g fill="#3d5889" stroke="#000" fill-rule="evenodd" stroke-width="1.732" transform="matrix(2.8816 0 0 3.54873-191.09-1938.26)"><path d="m67.61 570.42c24.468-13.1 45.36-11.775 66.04-23.06 11.1 2.431 19.357 1.459 26.993-.262 23.429 10.786 44.03 12.516 66.04 23.586-1.83 11.559-5.859 21.548-12.579 29.614-8.154-4.37-15.868-6.106-23.324-6.29l-.524 78.62c-32.12 5.983-59.35 3.398-85.959-.262l-.262-78.1c-9.371-.272-16.5 3.19-23.848 6.29-7.07-9.635-10.369-19.809-12.579-30.14z"/><path d="m71.28 569.11c2.215 10.749 6.083 20.787 13.628 29.352"/><path d="m105.35 668.17c28.13 4.604 56.26 5.593 84.39-.262"/><path d="m133.39 547.62c-.228 2.325 1.692 12.733 13.89 13.366 11.936.619 14.275-11.536 13.89-13.1"/><path d="m128.21 550.42c-.228 2.325 4.574 15.11 18.345 15.462 14.03.357 19.779-14.681 19.393-16.248"/><path d="m134.52 552.33c8.538 2.233 16.08 1.754 25.318-.202"/><path d="m104.16 558.28c2.576 9.885 6.838 21.489-.262 35.38"/><path d="m190.38 558.48c-2.576 9.885-6.838 21.489.262 35.38"/><path d="m223.28 568.84c-2.215 10.749-6.083 20.787-13.628 29.352"/></g><g transform="matrix(1.76374 2.71276-2.20278 2.17208-114.1 180.41)"><g transform="matrix(.27475-.04836.04836.27475-68.32-171.91)"><ellipse fill="none" cx="497.14" cy="642.36" rx="37.14" ry="64.29" stroke="#000" stroke-width="10"/><use xlink:href="#a"/><ellipse fill="none" cx="497.14" cy="642.36" rx="37.14" ry="64.29" stroke="#000" stroke-width="10"/><use xlink:href="#a"/></g><g transform="matrix(-.27475-.04836-.04836.27475 236.68-171.91)"><ellipse fill="none" cx="497.14" cy="642.36" rx="37.14" ry="64.29" stroke="#000" stroke-width="10"/><use xlink:href="#a"/><ellipse fill="none" cx="497.14" cy="642.36" rx="37.14" ry="64.29" stroke="#000" stroke-width="10"/><use xlink:href="#a"/></g></g><path fill="none" stroke="#efeb00" stroke-width="13.11" d="m431.73 362.9c0 0-76.06-60.59-87.08-75.65-11.02-15.05-64.37 1.354-82.35 4.156-17.977 2.802-43.696 37.593-49.95 56.53-6.254 18.934-4.433 43.41 5.4 61.51 9.833 18.1 32.786 37.97 48.6 34.08 15.815-3.888 33.756-17.293 35.775-32.42 2.02-15.13-6.414-41.664-14.85-49.877-8.436-8.212-21.2-9.549-28.35-4.156"/></svg>