<svg viewBox="0 0 581.8125 380.1875" enable-background="new 0 0 580 580" width="581.81" xmlns="http://www.w3.org/2000/svg" height="380.19"><path fill="#fca" stroke="#e5e7e5" stroke-linejoin="bevel" stroke-width="1.455" d="m-379.47.734h378.76v580.34h-378.76z" transform="rotate(-90)"/><g fill-rule="evenodd" transform="matrix(0-1.13024 1.13024 0-37.707 519.17)"><path d="m270.68 338.54c48.51-21 92.01-49.875 123.05-89.62 14.844-19.01 28.994-42.481 36.986-69.35 7.547-25.367 10.215-57.25 6.758-86.42-.186-1.568.609-4.383-1.424-5.334-8.576 42.14-24.1 79.29-46.23 106.69-3.227-87.32-53-137.92-128.03-154.7-.415.059-.387.563-.356 1.067-.217.02-.422.052-.355.356 31.414 15.679 58.17 38.18 76.11 68.64 17.434 29.602 27.641 72.926 19.916 118.78-8.588 7.534-19.12 15.02-29.518 19.56 13.12-47.739-.814-97.49-21.339-127.67-21.648-31.839-53.995-54.53-93.18-67.57-5.189 6.593-11.236 12.154-16.358 18.849-5.141 6.719-9.587 14.09-12.448 23.12 32.724 7.433 58.32 21.424 77.17 43.744 16.778 19.866 31.989 54.755 25.25 92.82-5.719 32.31-25.24 56.42-49.08 71.839-22.39 14.479-54.855 23.11-89.62 22.762-2.432-.024-5.904-1.021-6.401.711 101.2 30.753 179.74 85.76 223.7 173.2 6.373 12.674 10.852 26.472 16.715 40.19.676-11.518-1.941-22.865-4.268-33.43-16.677-75.73-54.922-129.96-107.05-168.22"/><path d="m448.14 256.39c-34.807 41.824-79.55 76.42-132.65 100.29-.229 2.255 2.32 3.315 3.557 4.623 9.328 9.866 18.551 21.595 26.672 33.07 48.688-33.35 81.82-82.25 106.34-139.76 0-.237 0-.475 0-.711-1.909-1.045-3.194 1.628-3.913 2.49"/><path d="m193.49 285.04c36.541 0 66.16-30.763 66.16-68.71 0-36.721-27.739-66.71-62.64-68.61 14.513 10 24.21 28.14 24.21 48.866 0 31.528-22.453 57.09-50.15 57.09-18.345 0-34.386-11.215-43.13-27.948 4.411 33.505 32.07 59.32 65.55 59.32"/></g></svg>