<svg xmlns="http://www.w3.org/2000/svg" viewBox="0 0 492.55 492.55"><g transform="translate(-112.37-285.66)"><g opacity=".5" fill="#4d4d4d" transform="translate(68.64 241.93)"><path d="m271.21 195.66h169.7v56.57h-169.7z" transform="matrix(.7071.7071-.7071.7071 262.64-186.18)"/><path d="m105.15 361.71h169.7v56.57h-169.7z" transform="matrix(.7071.7071-.7071.7071 331.42-20.13)"/><path d="m190 234.01h169.7v142.27h-169.7z" transform="matrix(.7071.7071-.7071.7071 296.27-104.97)"/></g><path fill="#ac39ac" d="m558.82 499.79l40.836-40.835c7.01-7.01 7.01-18.376 0-25.386l-142.65-142.65c-7.01-7.01-18.377-7.01-25.388 0l-40.836 40.835 1.6 1.6-3.862 3.862-1.6-1.599-269.3 269.3c-7.01 7.01-7.01 18.375.001 25.387l44.01 44.01c15.09-15.09 39.547-15.09 54.633 0 15.09 15.09 15.09 39.547 0 54.633l44.01 44.01c7.01 7.01 18.375 7.01 25.386 0l269.3-269.3-1.6-1.599 3.864-3.863zm-41.16-41.16l6.593 6.593-3.862 3.863-6.594-6.593zm-13.187-13.187l6.593 6.593-3.862 3.863-6.594-6.593zm-13.188-13.187l6.594 6.594-3.862 3.863-6.594-6.593zm-13.186-13.188l6.593 6.594-3.862 3.863-6.594-6.594zm-13.188-13.186l6.594 6.594-3.862 3.863-6.594-6.594zm-13.186-13.188l6.593 6.594-3.862 3.863-6.594-6.593zm-13.188-13.187l6.594 6.594-3.862 3.862-6.594-6.593zm-13.186-13.187l6.594 6.594-3.863 3.863-6.594-6.594zm-23.644-15.917l-6.594-6.593 3.863-3.863 6.593 6.594zm10.456 2.73l6.594 6.594-3.862 3.863-6.594-6.594zm-113.52 358.79l-120-120 39.999-39.999 119.99 120zm54.54-54.54l-120-120 100.6-100.6 120 120zm111.51-111.51l-120-120 39.999-39.999 120 120zm68.881-63.6l-6.594-6.593 3.863-3.863 6.593 6.593zm13.188 13.187l-6.594-6.594 3.862-3.863 6.595 6.594z"/></g></svg>