<svg xmlns="http://www.w3.org/2000/svg" viewBox="0 0 16 16"><g fill="#ac39ac" transform="translate(-189.96-428.35)"><path fill-rule="evenodd" d="m205.51 437.2c-.01 0-.019.002-.029.004-.16.04-1.506.033-2.053.083-.527.048-1.5.213-2.359.612-.859.4-2.516 1.296-3.685 2.055-1.095.711-1.888 1.129-2.128 1.189-.24.06-.499 0-.659-.28-.16-.28-.48-1.379-.48-1.379-.204-.514-.899-.619-1.519-.639-.579-.019-1.77.203-1.908.789-.085.36-.293 1.586-.3 2.238-.006.634.248 1.212.579 1.599.599.699 1.206.861 1.828.879.548.016 1.499-.11 2.378-.669.79-.503 5.02-3.736 5.894-4.336.879-.599 1.73-1.01 2.198-1.119.72-.174 2.378-.14 2.378-.14 0 0-.059.055.141.035.2-.02.215-.209.099-.435-.129-.25-.231-.491-.375-.487m-13.07 1.914c.625 0 1.131.189 1.131.422 0 .233-.506.422-1.131.422-.625 0-1.131-.189-1.131-.422 0-.233.506-.422 1.131-.422"/><path d="m189.97 432.88c.18-1.428 2.55-3.147 2.854-3.266.614-.704-1.055 1.216-1.437 1.801-.574.81-.886 1.85-.229 2.835.522.748 1.726 2.094.902 1.823-.824-.271-2.205-1.85-2.09-3.193"/><path d="m192.49 433.51c.8.443 1.565 1.229 1.884 2.274.319 1.045-.384 1.72-1 1.77.93-1.595-.075-2.197-.95-3.301-.21-.454-.154-.545.067-.743"/></g></svg>