<svg xmlns="http://www.w3.org/2000/svg" viewBox="0 0 439 478.29" xmlns:xlink="http://www.w3.org/1999/xlink"><defs><path opacity=".3" fill="#fff" id="a" d="M259.60921 501.82904A9.596449 9.09137 0 1 1 240.41631 501.82904 9.596449 9.09137 0 1 1 259.60921 501.82904"/></defs><rect width="265.99" x="-390.43" y="513.17" rx="9.353" height="255.03" ry="20.972" transform="matrix(.8349-.55041.86461.50244-120-330.28)"/><rect width="264.31" x="415.71" y="822.97" rx="13.06" height="219.91" ry="23.303" transform="matrix(.83591-.54887-.01115.99994-120-330.28)"/><g fill="#f41809"><g transform="matrix(.82758-.56136 0 1-120-330.28)"><rect width="75.21" x="419.26" y="978.37" rx="10.133" height="57.29" ry="7.258"/><rect width="75.21" x="421.13" y="908.85" rx="11.229" height="57.29" ry="8.794"/><rect width="75.21" x="421.13" y="838.36" rx="6.574" height="57.29" ry="13.179"/></g><g transform="matrix(.8297-.55822 0 1-120-330.28)"><rect width="75.63" x="505.81" y="835.58" rx="10.163" height="57.29" ry="11.399"/><rect width="75.63" x="505.81" y="905.64" rx="7.978" height="57.29" ry="13.614"/><rect width="75.63" x="503.94" y="974.91" rx="11.255" height="57.29" ry="14.721"/><rect width="75.63" x="589.65" y="972.4" rx="10.163" height="57.29" ry="11.432"/><rect width="75.63" x="590.88" y="907" rx="9.07" height="57.29" ry="11.66"/><rect width="75.63" x="590.88" y="836.26" rx="9.07" height="57.29" ry="7.458"/></g></g><rect width="264.44" x="147.74" y="386.9" rx="7.997" height="213.05" ry="20.767" transform="matrix(.85834.51309-.01175.99993-120-330.28)"/><g fill="#00d" transform="matrix(.84544.53407 0 1-120-330.28)"><rect width="73.62" x="323.2" y="530.09" rx="9.521" height="57.29" ry="12.923"/><rect width="73.62" x="324.43" y="458.47" rx="9.521" height="57.29" ry="6.767"/><rect width="73.62" x="324.43" y="390.7" rx="9.521" height="57.29" ry="8.794"/><rect width="73.62" x="240.31" y="530" rx="9.521" height="57.29" ry="11.164"/><rect width="73.62" x="240.31" y="460.64" rx="9.521" height="57.29" ry="11.968"/><rect width="73.62" x="240.92" y="393.49" rx="9.521" height="57.29" ry="9.598"/><rect width="73.62" x="155.56" y="530.3" rx="9.521" height="57.29" ry="8.182"/><rect width="73.62" x="156.8" y="463.12" rx="9.521" height="57.29" ry="7.839"/><rect width="73.62" x="156.8" y="394.71" rx="9.521" height="57.29" ry="6.94"/></g><g fill="#ffe200" transform="matrix(.85822.51329-.83419.55147-120-330.28)"><rect width="71.1" x="517.45" y="295.33" rx="5.393" height="70.53" ry="11.477"/><rect width="71.1" x="601.08" y="296.97" rx="5.393" height="70.53" ry="11.477"/><rect width="71.1" x="685.29" y="296.95" rx="5.393" height="70.53" ry="11.477"/><rect width="71.1" x="518.03" y="210.44" rx="5.393" height="70.53" ry="11.477"/><rect width="71.1" x="601.08" y="210.4" rx="5.393" height="70.53" ry="11.477"/><rect width="71.1" x="687.1" y="210.41" rx="5.393" height="70.53" ry="11.477"/><rect width="71.1" x="518.03" y="127.44" rx="5.393" height="70.53" ry="11.477"/><rect width="71.1" x="602.27" y="126.2" rx="5.393" height="70.53" ry="11.477"/><rect width="71.1" x="687.1" y="127.36" rx="5.393" height="70.53" ry="11.477"/></g><g fill="#fff" transform="matrix(.86241.50621-.97117.23841-120-330.28)"><rect width="66.726" x="661.71" opacity=".418" y="367.68" rx="6.935" height="9.722" ry="4.861"/><rect width="66.726" x="704.98" opacity=".418" y="476.18" rx="6.935" height="9.722" ry="4.861"/><rect width="66.726" x="806" opacity=".418" y="572.07" rx="6.935" height="9.722" ry="4.861"/><rect width="66.726" x="792.72" opacity=".418" y="482.18" rx="6.935" height="9.722" ry="4.861"/><rect width="66.726" x="877.45" opacity=".418" y="483.29" rx="6.935" height="9.722" ry="4.861"/><rect width="66.726" x="898.24" opacity=".418" y="576.92" rx="6.935" height="9.722" ry="4.861"/><rect width="66.726" x="975.47" opacity=".418" y="576.51" rx="6.935" height="9.722" ry="4.861"/><rect width="66.726" x="903.29" opacity=".418" y="658.46" rx="6.935" height="9.722" ry="4.861"/><rect width="66.726" x="992.49" opacity=".418" y="662.67" rx="6.935" height="9.722" ry="4.861"/><rect width="66.726" x="1076.44" opacity=".418" y="664.12" rx="6.935" height="9.722" ry="4.861"/><rect width="66.726" x="748.62" opacity=".418" y="370.94" rx="6.935" height="9.722" ry="4.861"/><rect width="66.726" x="624.3" opacity=".418" y="261.58" rx="6.935" height="9.722" ry="4.861"/><rect width="66.726" x="709.69" opacity=".418" y="260.01" rx="6.935" height="9.722" ry="4.861"/><rect width="66.726" x="794.42" opacity=".418" y="261.11" rx="6.935" height="9.722" ry="4.861"/><rect width="66.726" x="835.73" opacity=".418" y="369.88" rx="6.935" height="9.722" ry="4.861"/></g><use xlink:href="#a" transform="matrix(.39284.13936-.25743.72565 398.53-152.64)"/><use xlink:href="#a" transform="matrix(.39284.13936-.25743.72565 328.53-104.18)"/><use xlink:href="#a" transform="matrix(.39284.13936-.25743.72565 327.53-32.641)"/><use xlink:href="#a" transform="matrix(.39284.13936-.25743.72565 400.41-83.64)"/><use xlink:href="#a" transform="matrix(.39284.13936-.25743.72565 259.53-57.641)"/><use xlink:href="#a" transform="matrix(.39284.13936-.25743.72565 256.41 14.359)"/><g fill="#fff" transform="matrix(.84278-.53826-.22887.97346-120-330.28)"><rect width="66.726" x="674.47" opacity=".249" y="975.61" rx="6.935" height="9.722" ry="4.861"/><rect width="66.726" x="762.71" opacity=".249" y="978.85" rx="6.935" height="9.722" ry="4.861"/><rect width="66.726" x="845.49" opacity=".249" y="975.84" rx="6.935" height="9.722" ry="4.861"/><rect width="66.726" x="532.28" opacity=".249" y="759.51" rx="6.935" height="9.722" ry="4.861"/><rect width="66.726" x="448.58" opacity=".249" y="761.51" rx="6.935" height="9.722" ry="4.861"/><rect width="66.726" x="611.39" opacity=".249" y="758.05" rx="6.935" height="9.722" ry="4.861"/><rect width="66.726" x="565.08" opacity=".249" y="869.57" rx="6.935" height="9.722" ry="4.861"/><rect width="66.726" x="644.18" opacity=".249" y="868.11" rx="6.935" height="9.722" ry="4.861"/><rect width="66.726" x="729.39" opacity=".249" y="864.89" rx="6.935" height="9.722" ry="4.861"/></g></svg>