<svg xmlns="http://www.w3.org/2000/svg" viewBox="0 0 482.35 402.78"><defs><filter width="1.024" x="-.012" y="-.922" height="2.844" color-interpolation-filters="sRGB" id="a"><feGaussianBlur stdDeviation="2.26194"/></filter><filter width="1.554" x="-.277" y="-.39" height="1.78" color-interpolation-filters="sRGB" id="b"><feGaussianBlur stdDeviation="4.84084"/></filter><filter width="1.091" x="-.045" y="-.404" height="1.808" color-interpolation-filters="sRGB" id="c"><feGaussianBlur stdDeviation="8.35366"/></filter><linearGradient id="d" y1="309.9" y2="506.98" gradientUnits="userSpaceOnUse" x2="0"><stop stop-color="#08a"/><stop offset="1" stop-color="#19c5f0"/></linearGradient><linearGradient id="e" y1="105.55" y2="190.4" gradientUnits="userSpaceOnUse" x2="0"><stop stop-color="#56b8ff"/><stop offset="1" stop-color="#4e6f86" stop-opacity=".955"/></linearGradient></defs><g transform="translate(-143.24-121.51)"><g fill="none" stroke="#000"><path d="m566.7 186.66s-177.79-19.19-368.71 3.03c-38.39 6.06-41.42 42.43-41.42 42.43-8.08 125.26-1.01 239.41-1.01 239.41 4.207 24.08 28.471 40.32 34.34 40.41 156.78 2.175 391.94 1.01 391.94 1.01 33.34-6.06 36.37-36.37 36.37-36.37 3.03-140.92-5.443-247.49-6.06-252.54-3.427-27.952-45.46-37.38-45.46-37.38z"/><path d="m197.48 196.76c189.4-19.698 369.72-1.515 369.72-1.515 41.921 4.546 42.43 35.35 42.43 35.35 9.596 172.23 7.077 235.72 6.06 242.94-3.307 23.493-33.678 39.457-33.678 39.457"/><path d="m163.93 490.93c-9.286-16.07-6.071-32.857-6.071-32.857-6.429-134.64 3.571-228.21 3.571-228.21 3.571-29.29 37.5-33.21 37.5-33.21"/><path d="m431.79 179.51c6.883-9.444-1.156-20.08-18.319-9.883s-51.904 3.38-58.734-1.545c-10.374-7.482-21.795 2.917-14.375 11.429"/><path d="m338.21 170.58l8.214-29.29 79.64-.714 6.429 26.786"/><path d="m333.57 179.15c-7.857-2.5-8.214-7.5-8.214-7.5l10-46.786c53.57-5.714 99.29-1.071 99.29-1.071l9.643 47.5c-3.571 5.714-8.571 7.5-8.571 7.5"/></g><path fill="url(#d)" d="m230.68 511.58l-43-.525-5-2.922c-11.601-6.778-21.462-20.13-23.474-31.784-1.029-5.962-3.091-83.02-3.03-113.07.088-39.995 3.632-117.79 6.07-133.15 2.333-14.721 11.422-24.546 27.806-30.06 8.208-2.761 34.703-5.33 88.63-8.595 35.939-2.176 136.87-3.03 180.16-1.521 38.674 1.346 74.21 3.413 98.84 5.749 9.35.887 18.2 1.661 19.655 1.72s2.476.397 2.257.751c-.587.948 4.495 2.029 5.789 1.231.721-.445.822-.222.29.638-.599.968-.359 1.146.897.665 1.156-.443 1.482-.28 1 .499-.482.78-.156.942 1 .499 1.156-.443 1.482-.28 1 .499-.482.78-.156.942 1 .499.944-.362 1.485-.285 1.203.171-.753 1.217 5.255 5.352 6.585 4.532.662-.409.858-.255.472.369-.811 1.311 4.182 7.451 5.432 6.68.494-.305.601.217.239 1.16-.444 1.155-.281 1.48.5.998.781-.482.944-.156.5.998s-.281 1.48.5.998c.781-.482.944-.156.5.998-.482 1.254-.304 1.494.666.896.835-.515 1.084-.429.674.233-.857 1.385.358 7.353 1.37 6.729.432-.266.56.375.285 1.426s.214 15.766 1.088 32.701c4.173 80.904 6.154 153.53 5.143 188.55.829 37.738-6.593 41.588-30.734 60.38-3.286 2-4.413 2.01-157.31 1.795-84.7-.121-173.35-.456-197-.745z"/><g fill="#fff"><path filter="url(#b)" d="m193.17 206.43c-.166.082-.356.078-.537.093-.237.02-.475.042-.712.062-.304.027-.609.051-.914.074-.368.028-.735.051-1.103.074-.404.063-.809.086-1.207.184-.445.078-.875.217-1.302.362-.531.193-1.064.377-1.598.562-.566.184-1.115.414-1.675.613-6.562 2.454 16.228-6.177 11.191-4.305-.588.215-1.161.466-1.738.709-.577.258-1.146.533-1.713.81-.563.291-1.112.607-1.665.917-.551.314-1.093.644-1.633.977-.53.343-1.055.696-1.558 1.078-.509.37-1 .765-1.475 1.178-.477.419-.925.868-1.348 1.34-.439.47-.859.958-1.264 1.457-.411.51-.789 1.046-1.155 1.589-.374.559-.717 1.138-1.049 1.723-.34.603-.651 1.221-.952 1.845-.308.65-.599 1.308-.887 1.967-.295.677-.565 1.363-.828 2.053-.268.708-.514 1.424-.752 2.142-.121.366-.235.734-.349 1.102l-13.232 4.103c.109-.375.219-.751.335-1.125.228-.735.464-1.467.72-2.193.252-.709.511-1.414.794-2.111.275-.674.563-1.341.853-2.01.289-.648.587-1.293.913-1.924.319-.615.648-1.224 1.01-1.817.352-.578.716-1.149 1.112-1.699.389-.536.789-1.064 1.227-1.561.437-.486.847-.997 1.312-1.457.459-.459.93-.907 1.441-1.31.51-.393 1-.805 1.536-1.169.523-.372 1.063-.723 1.615-1.05.542-.336 1.096-.652 1.65-.968.551-.326 1.124-.605 1.693-.897.561-.281 1.137-.526 1.709-.783 4.817-2.01 9.715-3.822 14.622-5.596.562-.211 1.13-.402 1.699-.595.554-.189 1.109-.375 1.677-.516.484-.111.971-.2 1.465-.255.425-.029.847-.085 1.273-.106.378-.038.755-.079 1.131-.129.313-.043.625-.089.935-.151.24-.05.481-.103.712-.185.164-.062.319-.154.491-.188z" transform="matrix(1.3673 0 0 1-60.13 0)"/><path filter="url(#a)" d="m161.5 226.75c239-13.25 446.5 0 446.5 0"/><path opacity=".562" filter="url(#c)" d="m314.36 232.35c-61.3-.579-142.17 7.612-147.16-1.885l-3.911-7.44 2.092-4.175c4.786-9.554 14.611-16.801 27.479-20.27 10.417-2.809 71.01-7.306 126.75-9.406 22.696-.855 113.65-.864 136-.013 43.748 1.666 95.65 4.77 111.25 6.653 17.489 2.111 29.434 8.243 36.428 18.7 2.398 3.586 2.556 20.952 1.966 22.06-2.386 4.456-26.28-2.01-62.64-1.322-62.6 1.19-168.2-2.329-228.25-2.896" transform="matrix(1 0 0 .73963 0 49.25)"/></g><path fill="none" stroke="#000" d="m201.17 512.49c3.658 11.536 28.11 17.884 35.781-.113"/><path opacity=".562" fill="#fff" d="m214.99 522.25c-5.931-1.306-10.542-4.377-12.585-8.383l-.746-1.462 8.05.234c4.427.129 12.17.234 17.206.234h9.158l-.799 1.422c-1.209 2.152-4.388 5.109-6.808 6.332-3.93 1.987-9.03 2.601-13.474 1.622"/><path fill="#035c72" d="m216.95 522.62c-2.549-.327-4.896-1.01-7.124-2.069-3.593-1.711-6.191-4.061-7.611-6.885-.652-1.296-.91-1.205 3.14-1.108 5.622.135 20.328.318 25.75.321 2.733.001 4.969.035 4.969.076 0 .187-.984 1.802-1.621 2.66-2.919 3.933-7.02 6.289-12.1 6.956-1.505.197-4.062.221-5.4.049"/><path fill="none" stroke="#000" d="m539.17 512.49c3.658 11.536 27.953 18.16 35.625.168"/><path fill="#035c72" d="m555.63 523.12c-7.098-.742-12.989-3.92-15.588-9.75 2.692-.048 4.266.415 6.291.185 9.285.2 18.14-.183 27.422-.038-3.448 8.04-10.59 10.455-18.12 9.603"/><g fill="#136478"><path d="m155.59 460.8c-.277-.849-1.13-25.363-1.821-52.37-.64-25.02-.321-96.39.53-118.5 1.311-34.04 2.7-58.4 3.536-62 1.569-6.754 4.565-13.575 8.236-18.752 3.05-4.301 9.07-9.821 13.599-12.477 8.292-4.859 12.636-5.866 35.655-8.262 104.1-10.838 222.93-11.799 335-2.709l16.25 1.318 6.654 2.199c21.821 7.211 35.655 19.284 38.02 33.18 2.118 12.428 5.392 82.6 6.579 141 .692 34.02.657 46.14-.132 45.875-.462-.154-.654-2.475-.736-8.917-.355-27.919-3.043-97.99-5.599-145.96-1.357-25.471-1.533-27.504-2.697-31.14-2.116-6.606-8.316-15.724-10.201-15-.608.233-.735.103-.498-.513.234-.61-.493-1.398-2.788-3.02-4.218-2.983-8.805-5.314-9.745-4.954-.449.172-.644.087-.465-.204.582-.942-9.269-3.64-16.896-4.627-9.55-1.236-54.604-4.291-81.25-5.509-65.36-2.987-138.86-2.904-201.5.228-25.23 1.262-65.43 4.287-85.75 6.454-4.519.482-12.546 2.908-16.894 5.105-11.907 6.02-19.01 14.82-21.333 26.431-1.323 6.619-3.625 41.25-5.068 76.25-1.386 33.633-1.086 105.71.594 142.73.287 6.315.383 12.222.213 13.13-.309 1.644-1.115 2.192-1.498 1.017z"/><path d="m590.58 509.15c0-.36 2.348-2.581 5.217-4.936 5.478-4.496 12.362-12.04 15.258-16.729.942-1.524 2.408-4.691 3.257-7.04 2.609-7.206 4.226-5.812 2.01 1.732-1.801 6.128-5.824 13.11-10.11 17.528-4.948 5.11-15.634 11.563-15.634 9.442"/><path d="m615.87 475.7c.902-4.929 1.52-28.24 1.365-51.47l-.102-15.16h1.145l.003 15.906c.003 14.889-.457 51.04-.653 51.25-.049.054-.245-.032-.436-.191-.268-.222-.42-.202-.662.089-.524.631-.82.436-.661-.434"/></g><path fill="#4d4d4d" d="m340.26 178.45c-1.893-2.095-2.188-5.176-.764-7.969 1.409-2.762 4.05-4.245 7.592-4.265 2.436-.013 3.538.333 7.514 2.362 12.412 6.333 35.9 8.703 50.16 5.062 1.65-.421 5.863-2.118 9.361-3.77 7.903-3.732 11.654-4.527 15.12-3.203 2.896 1.106 4.264 3.121 4.266 6.284 0 1.238-.392 3.02-.873 3.958l-.874 1.708-31.5-.055c-17.325-.03-37.76.101-45.41.292-12.04.301-14 .246-14.59-.404"/><path fill="url(#e)" d="m333.51 179.02c0-.233-.908-.833-2.02-1.334-2.284-1.03-5.48-4.303-5.487-5.619-.005-.873 9.535-46.22 9.79-46.542.432-.539 23.657-2.109 38.838-2.626 13.822-.47 21.398-.472 34.19-.007 15.476.563 25.03 1.168 25.361 1.608.245.325 9.334 45.636 9.329 46.508-.009 1.773-7.409 7.935-9.529 7.935-1.175 0-1.189-.136-.206-2.036 1.027-1.986 1.047-5.593.043-7.866-.449-1.017-2.271-7.898-4.05-15.293-1.779-7.394-3.302-13.513-3.386-13.596-.316-.316-79.86.61-80.19.933-.684.684-8.194 28.2-8.497 31.14-.259 2.514-.131 3.386.757 5.125l1.069 2.096h-3.01c-1.656 0-3.01-.191-3.01-.424z"/></g></svg>