<svg xmlns="http://www.w3.org/2000/svg" viewBox="0 0 16 16"><g transform="translate(0-1036.36)"><circle cx="8" cy="1044.36" r="7.438" color-interpolation-filters="linearRGB" color="#000" image-rendering="auto" color-rendering="auto" fill-rule="evenodd" stroke-width="1.125" stroke-linecap="round" color-interpolation="sRGB" text-rendering="auto" fill="#fc0" stroke="#000" shape-rendering="auto"/><path d="m8.695 1040.85q-1.115 0-1.872.538-.451.319-.816.903-.372.604-.438 1.148h4.527l-.179.889h-4.454q-.007.139-.007.265 0 .511.007.611h4.274l-.186.889h-3.949q.279 1.52 1.341 2.157.763.458 1.653.458 1.241 0 1.938-.65v1.367q-.83.385-1.832.385-3 0-4.055-2.496-.212-.504-.365-1.221h-1.015l.186-.889h.697q-.02-.279-.02-.604 0-.133.007-.272h-.869l.186-.889h.77q.412-2.164 2.144-3.106 1.069-.584 2.356-.584 1.235 0 2.077.538l-.265 1.235q-.81-.67-1.839-.67"/></g></svg>