<svg xmlns="http://www.w3.org/2000/svg" viewBox="0 0 16 13"><path fill="#fff" stroke="#fff" stroke-width=".03" stroke-dashoffset=".6" d="m.015.015h15.97v12.97h-15.97z"/><path fill-rule="evenodd" d="m.806 7.457c-.036-2.681-.182-.374 1.434-4.35 1.169-2.702-.016-1.975 6.03-2.073 5.384.109 4.298-.67 5.534 2.198 1.549 3.674 1.429 1.751 1.419 4.147-.057 2.629.915 1.954-7.234 2.042-8.09-.109-7.13.577-7.187-1.964m1.637-2.588l1.107-2.557c.207-.454.141-.387.624-.39h7.739c.419.002.357-.026.53.374l1.101 2.542zm-.792 4.846l2.07-.005c-.007 2.599.209 2.454-.92 2.471-1.344-.005-1.132.13-1.15-2.466m10.66.019h2.073c-.014 2.603.176 2.425-.998 2.432-1.213-.016-1.059.176-1.076-2.432"/><g fill="#fff"><circle cx="2.681" cy="6.782" r="1.01"/><circle cx="13.321" cy="6.782" r="1.01"/></g></svg>