<svg xmlns="http://www.w3.org/2000/svg" viewBox="0 0 16 7" enable-background="new 0 0 580 580"><g fill="#008080" transform="translate(34.407-597.88)"><path fill="#c8beb7" d="m412.64 369.84c-5.094 0-10.08.459-14.933 1.293h-215.41c-4.855-.834-9.839-1.293-14.933-1.293-48.38 0-87.6 39.22-87.6 87.6 0 48.38 39.22 87.6 87.6 87.6 34.26 0 63.903-19.676 78.3-48.33h88.67c14.4 28.656 44.05 48.33 78.3 48.33 48.38 0 87.6-39.22 87.6-87.6 0-48.38-39.22-87.6-87.6-87.6" transform="matrix(.03805 0 0 .03995-37.442 583.1)"/><g color-rendering="auto" color-interpolation-filters="linearRGB" shape-rendering="auto" image-rendering="auto" fill-rule="evenodd" text-rendering="auto" color-interpolation="sRGB" color="#000"><circle fill="#f81615" cx="-19.906" cy="601.4" r=".623"/><circle fill="#02bf02" cx="-23.887" cy="601.4" r=".623"/><circle fill="#1716f6" cx="-21.887" cy="599.4" r=".623"/><circle fill="#f8f715" cx="-21.887" cy="603.4" r=".623"/><g fill="#000"><rect x="-31.407" y="599.78" rx=".5" ry=".533" width="1" height="3.2"/><rect x="-32.507" y="600.88" rx=".5" width="3.2" height="1"/></g></g></g></svg>