<svg xmlns="http://www.w3.org/2000/svg" viewBox="0 0 128 128"><defs><linearGradient id="a" y1="907.37" y2="1069.38" x1="-16.988" gradientUnits="userSpaceOnUse" x2="144.99"><stop stop-color="#4d4d4d"/><stop offset=".24" stop-color="#808080"/><stop offset=".498" stop-color="#ccc"/><stop offset=".751" stop-color="#808080"/><stop offset="1" stop-color="#4d4d4d"/></linearGradient><linearGradient id="b" y1="924.96" y2="1051.79" x1=".611" gradientUnits="userSpaceOnUse" x2="127.39"><stop stop-color="#ccc"/><stop offset=".27" stop-color="#2639c2"/><stop offset=".498" stop-color="#7c82f1"/><stop offset=".72" stop-color="#2f48e2"/><stop offset="1" stop-color="#8a89ff"/></linearGradient><linearGradient id="c" y1="921.15" y2="1064.37" x1="-.916" gradientUnits="userSpaceOnUse" x2="134.42"><stop stop-color="#ccc"/><stop offset=".24" stop-color="#e6e6e6"/><stop offset=".498" stop-color="#6e6e6e"/><stop offset=".751" stop-color="#ccc"/><stop offset="1" stop-color="#ccc"/></linearGradient><linearGradient id="d" y1="930.93" y2="1055.21" x1="14.663" gradientUnits="userSpaceOnUse" x2="111.2"><stop stop-color="#4d4d4d"/><stop offset=".24" stop-color="#808080"/><stop offset=".498" stop-color="#b3b3b3"/><stop offset=".751" stop-color="#808080"/><stop offset="1" stop-color="#4d4d4d"/></linearGradient></defs><g transform="translate(0-924.36)"><g fill-rule="evenodd"><path opacity=".457" fill="url(#c)" d="m73.01 988.35c0 4.977-4.03 9.01-9.01 9.01-4.977 0-9.01-4.03-9.01-9.01 0-4.977 4.03-9.01 9.01-9.01 4.977 0 9.01 4.03 9.01 9.01m15.274 0c0 13.413-10.873 24.286-24.286 24.286-13.413 0-24.286-10.874-24.286-24.286 0-13.413 10.873-24.286 24.286-24.286 13.413 0 24.286 10.873 24.286 24.286"/><path fill="url(#b)" d="m88.29 988.35c0 13.413-10.873 24.286-24.286 24.286-13.413 0-24.286-10.874-24.286-24.286 0-13.413 10.873-24.286 24.286-24.286 13.413 0 24.286 10.873 24.286 24.286m39.1 0c0 35.01-28.38 63.39-63.39 63.39-35.01 0-63.39-28.38-63.39-63.39 0-35.01 28.38-63.39 63.39-63.39 35.01 0 63.39 28.38 63.39 63.39"/><path fill="url(#a)" color="#000" d="m64 924.36c-35.34 0-64 28.661-64 64 0 35.34 28.661 64 64 64 35.34 0 64-28.661 64-64 0-35.34-28.661-64-64-64m0 1.222c34.679 0 62.778 28.1 62.778 62.778 0 34.679-28.1 62.778-62.778 62.778-34.679 0-62.778-28.1-62.778-62.778 0-34.679 28.1-62.778 62.778-62.778"/></g><path fill="url(#d)" color="#000" d="m64 963.46c-13.743 0-24.897 11.154-24.897 24.897 0 13.743 11.154 24.897 24.897 24.897 13.743 0 24.897-11.154 24.897-24.897 0-13.743-11.154-24.897-24.897-24.897m0 1.222c13.08 0 23.675 10.593 23.675 23.675 0 13.08-10.593 23.675-23.675 23.675-13.08 0-23.675-10.593-23.675-23.675 0-13.08 10.593-23.675 23.675-23.675m0 14.05c-5.307 0-9.623 4.316-9.623 9.623 0 5.307 4.316 9.623 9.623 9.623 5.307 0 9.623-4.316 9.623-9.623 0-5.307-4.316-9.623-9.623-9.623m0 1.222c4.647 0 8.401 3.754 8.401 8.401 0 4.647-3.754 8.401-8.401 8.401-4.647 0-8.401-3.754-8.401-8.401 0-4.647 3.754-8.401 8.401-8.401"/></g></svg>