<svg xmlns="http://www.w3.org/2000/svg" viewBox="0 0 744.09 1052.36"><rect width="744.09" fill="#fff" rx="65.41" height="1052.36"/><path d="m372.75 979.44c-1.09-13.513-2.787-30.874-3.772-38.582l-1.791-14.01-35.979-1.754-3.324-11.888c-1.916-6.853-5.405-12.289-8.238-12.835-3.812-.734-70.794 15.38-104.35 25.1-4.629 1.341-5.206-.926-5.165-20.281l.047-21.791 104.14-166.53-.236-50.866-82.52 84.24c-45.39 46.33-83.9 84.19-85.57 84.13-5.113-.185-20.285-63.822-18.05-75.72 1.131-6.03 19.91-37.888 44.626-75.7 27.631-42.28 56.907-92.46 83.05-142.37l40.38-77.08 4.199-67.01h34.16l1.894-13.817c1.042-7.599 1.894-26.4 1.894-41.779 0-34.04 7.95-144.6 12.169-169.24 3.604-21.05 24.377-96.79 26.545-96.79 2.172 0 22.946 75.76 26.54 96.79 4.316 25.25 12.161 131.56 12.196 165.28.016 15.56.875 35.33 1.907 43.926l1.878 15.635h34.26l4.167 67.01 40.523 77.43c25.681 49.07 54.987 99.48 80.01 137.64 45.17 68.869 48.671 75.05 48.671 85.85 0 12.188-15.918 69.829-19.316 69.943-1.661.056-40.15-37.802-85.53-84.13l-82.51-84.23-.08 25.313-.08 25.313 104.14 166.53v21.911c0 19.458-.584 21.742-5.212 20.401-23.541-6.821-99.06-25.693-102.82-25.693-4.644 0-5.712 2.119-9.383 18.613-1.754 7.883-2.53 8.19-20.739 8.19h-18.917l-1.808 14.15c-.995 7.78-2.7 25.2-3.79 38.714-1.09 13.513-2.936 24.569-4.103 24.569-1.167 0-3.01-11.06-4.103-24.569"/></svg>