<svg xmlns="http://www.w3.org/2000/svg" viewBox="0 0 16 16"><g transform="translate(-703.43-372.93)"><path fill="#fff" stroke="#0000c6" stroke-width="1.357" d="m704.14158 381.6392a7.321086 7.321086 0 0 1 6.5785 -7.9923 7.321086 7.321086 0 0 1 7.99495 6.57529 7.321086 7.321086 0 0 1 -6.57208 7.99758 7.321086 7.321086 0 0 1 -8.00022 -6.56886"/><path d="m709.89 382.89h-2.055l-.283.964h-1.843l2.194-5.837h1.967l2.194 5.837h-1.887zm-.378-1.262l-.645-2.098-.641 2.098z"/><path d="m713.95 379.7l-1.533-.275q.191-.733.733-1.123.545-.39 1.541-.39 1.143 0 1.652.426.51.426.51 1.071 0 .378-.207.685-.207.307-.625.538.338.084.518.195.291.179.45.474.163.291.163.697 0 .51-.267.979-.267.466-.768.721-.502.251-1.318.251-.796 0-1.258-.187-.458-.187-.757-.545-.295-.362-.454-.908l1.621-.215q.096.49.295.681.203.187.514.187.326 0 .542-.239.219-.239.219-.637 0-.406-.211-.629-.207-.223-.565-.223-.191 0-.526.096l.084-1.159q.135.02.211.02.319 0 .53-.203.215-.203.215-.482 0-.267-.159-.426-.159-.159-.438-.159-.287 0-.466.175-.179.171-.243.605"/></g></svg>