<svg xmlns="http://www.w3.org/2000/svg" viewBox="0 0 16 11" xmlns:xlink="http://www.w3.org/1999/xlink"><path fill="#fff" d="m0 0h16v11h-16z"/><g transform="matrix(.03015 0 0 .0299.737.994)"><path d="m52.19 134.74c28.821 0 52.19-23.366 52.19-52.19 0-28.823-23.366-52.19-52.19-52.19-28.821 0-52.19 23.366-52.19 52.19 0 28.821 23.367 52.19 52.19 52.19"/></g><g transform="matrix(.03015 0 0 .0299.737.994)"><path fill="#fff" d="m52.19 115.77c18.341 0 33.21-14.869 33.21-33.21 0-18.343-14.87-33.21-33.21-33.21-18.342 0-33.21 14.868-33.21 33.21 0 18.34 14.869 33.21 33.21 33.21"/></g><path d="m6.824 8.997c-1.288 0-1.288 1.07 0 1.07h7.447c1.249 0 1.249-1.07 0-1.07z"/><path d="m9.429 2.944v-1.461h-.621v1.461z"/><path d="m10.382 1.524v-.315h-2.514v.315z"/><path d="m10.599.994h4.01c.535 0 .535.759 0 .759h-4.01c-.52 0-.52-.759 0-.759"/><path d="m3.64.994h3.968c.535 0 .535.759 0 .759h-3.968c-.565 0-.573-.759 0-.759"/><path d="m7.994 7.99c-.515 0-.773-.419-.859-.773l-.401-1.127-4.583-2.029c-.557-.241-.421-1.159.212-1.159h9.955c1.11 0 1.728.742 2.01 1.531l.799 2.167c.286.739-.198 1.386-.912 1.39z"/><g fill="#fff" transform="matrix(.03246 0 0 .03167-.364 1.25)"><path d="m324.25 141.71v-57.03h-35.615v57.03z"/><path d="m380.54 84.68v57.03h-35.14v-57.03z"/><path d="m402.18 86.94c11.01 2.656 22.01 12.5 29.26 28.75l11.25 26.25h-40.513z"/></g><path id="a" d="m9 8h1v1h-1z"/><use x="3" xlink:href="#a"/></svg>