<svg xmlns="http://www.w3.org/2000/svg" viewBox="0 0 440.48 436.6"><path fill="#fff" d="M 0,0 H440.48 V436.6 H0 z"/><path fill="#999" d="m430.37 48.711c29.15-29.15-11.17-67.27-39.954-38.479l-106.3 106.3-243.52-64.37-40.595 40.595 200.71 105.7-81.17 81.17-63.11-7.749-32.11 32.11 71.59 37.644 37.643 71.6 32.1-32.11-7.38-62.738 81.17-81.17 103.44 199.39 40.595-40.595-61.63-238.58z" transform="matrix(.48149.07641-.07641.48149 15.698-17.926)"/><g transform="matrix(.67699 0 0 .70395 189.65 77.07)"><path d="m170.46 84.59c22.772 0 41.23-18.461 41.23-41.23 0-22.772-18.461-41.23-41.23-41.23-22.774 0-41.24 18.463-41.24 41.23 0 22.774 18.463 41.23 41.24 41.23"/><path d="m322.79 426.06h17.897c12.781 0 19.306-10.04 19.306-19.224 0 0 0-101 0-101.5 0-9.189-7.191-19.342-19.306-19.342h-17.897z"/><path d="m121.25 95.29l-86.86-88.86c-19.17-19.17-47.13 8.784-27.956 27.954l111.03 113.03v326.67c0 32.26 47.07 31.31 47.07 0v-188.09l7.891.019v188.09c0 31.31 47.43 32.24 47.43-.017v-314.27h8.334v126.18h-26.14v140.07h111.16v-140.07h-26.296v-19.17c0-7.189-4.313-11.02-11.981-11.02 0 0-4.495 0-12.163 0h-.03v-108.8c0-25.16-21.548-51.714-50.05-51.714h-91.43z"/><path fill="#fff" d="m275.16 286v-18.929h-35.9v18.929z"/></g></svg>