<svg xmlns="http://www.w3.org/2000/svg" viewBox="0 0 16 16"><g transform="translate(0-1036.36)"><circle cx="8" cy="1044.36" r="7.75" color-interpolation-filters="linearRGB" color="#000" image-rendering="auto" color-rendering="auto" color-interpolation="sRGB" text-rendering="auto" fill="#fff" shape-rendering="auto"/><path fill="#00f" d="m16 1044.36c0 4.418-3.582 8-8 8-4.418 0-8-3.582-8-8 0-4.418 3.582-8 8-8 4.418 0 8 3.582 8 8"/><g fill="none" stroke="#fff" stroke-width=".5" transform="matrix(1.1966 0 0 1.1966-1.554-206.53)"><ellipse cx="5.343" cy="1049.21" rx="1.479" ry="1.479"/><ellipse cx="10.625" cy="1049.18" rx="1.479" ry="1.479"/><g stroke-linejoin="round" stroke-linecap="round"><path d="m10.641 1049.14l-1.217-1.589h-3.392"/><path d="m5.344 1049.14l1.234-3.02h.75"/><path d="m6.872 1047.57l.931 1.612h2.804"/><path d="m9.325 1047.57v-.891h.672"/></g></g><g fill="#fff" transform="matrix(1.1301 0 0 1.1301-.853-135.47)"><path fill-rule="evenodd" d="m6.758 1.785c-.327-.002-.882.146-.885 1.332-.001.385.055.719.305 1.01.064-.071.196-.21.264-.277-.233-.473-.106-.855-.068-1.291l.146.039v1.178c-.826.778-.911 1.299-1.033 1.889v.004l.941.006.014 2.197c0 .24.414.248.414 0v-2.195h.191l.014 2.195c0 .24.412.248.412 0v-2.191l.977.004c-.117-.602-.148-1.133-1.033-1.898l-.004-1.223h.074c.209.436.474.845.629 1.309-.035.111-.158.219 0 .406l1.102 1.016-.115 2.531c-.035.287.334.309.369.025l.063-1.143h.268l.203 1.127c.044.287.442.252.385-.057l-.209-1.184-.004-1.27.66.754c.188.21.44-.057.254-.268l-.959-1.104-.855.012c0 0-.385-.31-.754-.65.227-.126-.107-.689-.4-1.244-.243-.459-.403-1.039-1.023-1.039z" transform="matrix(.88488 0 0 .88488.755 1036.93)"/><path d="m7.44 1037.84c0 .28-.227.508-.508.508-.28 0-.508-.227-.508-.508 0-.28.227-.508.508-.508.28 0 .508.227.508.508"/><path d="m9.769 1040.46c0 .251-.203.454-.453.454-.25 0-.454-.203-.453-.454 0-.25.203-.454.453-.454.25 0 .454.203.453.454"/></g></g></svg>