<svg xmlns="http://www.w3.org/2000/svg" viewBox="0 0 16 16"><g transform="translate(0-1036.36)"><circle cx="8" cy="1044.36" r="7.75" color-interpolation-filters="linearRGB" color="#000" image-rendering="auto" color-rendering="auto" color-interpolation="sRGB" text-rendering="auto" fill="#fff" shape-rendering="auto"/><path fill="#00f" d="m16 1044.36c0 4.418-3.582 8-8 8-4.418 0-8-3.582-8-8 0-4.418 3.582-8 8-8 4.418 0 8 3.582 8 8"/><g fill="none" stroke="#fff" stroke-width=".5" transform="matrix(1.63042 0 0 1.63042-5.02-664.99)"><ellipse cx="5.343" cy="1049.21" rx="1.479" ry="1.479"/><ellipse cx="10.625" cy="1049.18" rx="1.479" ry="1.479"/><g stroke-linejoin="round" stroke-linecap="round"><path d="m10.641 1049.14l-1.217-1.589h-3.392"/><path d="m5.344 1049.14l1.234-3.02h.75"/><path d="m6.872 1047.57l.931 1.612h2.804"/><path d="m9.325 1047.57v-.891h.672"/></g></g><g fill="#fff" color-rendering="auto" color-interpolation-filters="linearRGB" shape-rendering="auto" image-rendering="auto" text-rendering="auto" color-interpolation="sRGB" color="#000"><path d="m3 1038.36h10v1h-10z"/><path d="m3 1049.36h10v1h-10z"/></g></g></svg>