<svg xmlns="http://www.w3.org/2000/svg" viewBox="0 0 16 16"><g transform="translate(0-1036.36)"><circle cx="8" cy="1044.36" r="7.75" color-interpolation-filters="linearRGB" color="#000" image-rendering="auto" color-rendering="auto" color-interpolation="sRGB" text-rendering="auto" fill="#fff" shape-rendering="auto"/><path fill="#00f" d="m16 1044.36c0 4.418-3.582 8-8 8-4.418 0-8-3.582-8-8 0-4.418 3.582-8 8-8 4.418 0 8 3.582 8 8"/><g fill="#fff" transform="matrix(2.03691 0 0 2.03691-8.05-1075.61)"><path fill-rule="evenodd" d="m5.668 3.373c-.589-.004-1.591.264-1.596 2.402-.001.694.103 1.296.553 1.82.017-.019.047-.049.068-.072.065-.073.141-.149.213-.225.071-.075.142-.154.191-.203-.421-.852-.19-1.543-.123-2.328l.264.07v2.123c-.124.117-.226.227-.332.338-.079.083-.147.153-.213.225-.982 1.104-1.127 1.926-1.316 2.84v.008l1.697.008.025 3.965c0 .432.744.447.744 0v-3.961l.344.002.025 3.959c0 .432.744.447.744 0v-3.955l1.762.01c-.21-1.085-.266-2.041-1.861-3.42l-.01-2.203h.135c.377.786.852 1.522 1.131 2.357-.062.2-.286.394 0 .732l1.988 1.832-.209 4.561c-.064.517.6.559.664.047l.115-2.061h.482l.365 2.029c.08.517.795.454.691-.102l-.373-2.131-.01-2.289 1.189 1.357c.338.378.797-.103.461-.482l-1.729-1.988-1.545.021c0 0-.692-.561-1.357-1.174.409-.227-.192-1.238-.721-2.238-.438-.828-.728-1.875-1.846-1.875z" transform="matrix(.49094 0 0 .49094 3.952 1036.85)"/><path d="m7.44 1037.84c0 .28-.227.508-.508.508-.28 0-.508-.227-.508-.508 0-.28.227-.508.508-.508.28 0 .508.227.508.508"/><path d="m9.769 1040.46c0 .251-.203.454-.453.454-.25 0-.454-.203-.453-.454 0-.25.203-.454.453-.454.25 0 .454.203.453.454"/></g></g></svg>