<svg xmlns="http://www.w3.org/2000/svg" viewBox="0 0 16 16"><g transform="translate(0-1036.36)"><g fill="#00f"><path d="m8 1052.36c4.417 0 8-3.582 8-8 0-4.417-3.583-8-8-8-4.417 0-8 3.582-8 8 0 4.418 3.583 8 8 8"/><path d="m6.719 1042.32l.907-.475.13.619-.461.273c0 0-.115 0-.575-.418"/></g><g fill="#fff" transform="matrix(1.05783 0 0 1.09035-.457-94.31)"><path d="m12.432 1046.89l.288 1.353c.029.1.029.216.029.302 0 .403-.36.763-.777.763h-.345l.403-.748-.346-1.553-1.136-1.137.216.805c.029.058.072.245-.086.374l-1.209.993.058.274c.029.201-.072.546-.561.69l-.216-1.01c-.029-.129-.043-.259.13-.403l1.108-.907-.403-1.108c-.561 0-1.252.345-2.26.345h-.46l.82 2.144c.101.259.13.403.13.561 0 .36-.345.677-.633.677h-.418l.36-.677-.935-2.446h-1.698v1.208l.187.173c.216.202.288.504.072.82l-.691-.475c-.202-.13-.273-.244-.273-.475v-1.497c0-.187.101-.446.532-.489l.964-.115c0 0-.288-.317-.389-.748-.086-.431-.101-1.021-.101-1.021l-.46-1.324-.59.676v.073c0 .13-.086.475-.489.475-.302 0-.504-.317-.446-.547l.489-2.331-.317-.446c.13-.015.518.028.691.317.072-.015.317-.043.475-.043.36 0 1.094.13 1.626.691.374.388.619.762.619.762l1.122-.59-.158-.734c-.086-.403.158-.705.475-.777.345-.086.662.201.719.432l.432 2.028c.057.288.072.547-.245.806 0 0 .907-.202 1.382-.202.489 0 1.136.115 1.655.561h.23c.561 0 1.022.403 1.022 1.165v1.856c-.202 0-.691-.259-.691-1.05 0-.417.072-.417.072-.949 0-.518-.245-.59-.432-.59h-.144v2l.504.748c.043.072.072.201.101.317"/><path d="m7.683 1038.3c.345 0 .633.288.633.662 0 .359-.288.662-.633.662-.374 0-.662-.303-.662-.662 0-.374.288-.662.662-.662"/></g></g></svg>