<svg xmlns="http://www.w3.org/2000/svg" viewBox="0 0 16 16"><g transform="translate(0-1036.36)"><circle cx="8" cy="1044.36" r="7.75" color-interpolation-filters="linearRGB" color="#000" image-rendering="auto" color-rendering="auto" color-interpolation="sRGB" text-rendering="auto" fill="#fff" shape-rendering="auto"/><path fill="#00f" d="m16 1044.36c0 4.418-3.582 8-8 8-4.418 0-8-3.582-8-8 0-4.418 3.582-8 8-8 4.418 0 8 3.582 8 8"/><g fill="none" stroke="#fff" stroke-width=".5" transform="matrix(.83908 0 0 .83908 5.37 164.66)"><ellipse cx="5.343" cy="1049.21" rx="1.479" ry="1.479"/><ellipse cx="10.625" cy="1049.18" rx="1.479" ry="1.479"/><g stroke-linejoin="round" stroke-linecap="round"><path d="m10.641 1049.14l-1.217-1.589h-3.392"/><path d="m5.344 1049.14l1.234-3.02h.75"/><path d="m6.872 1047.57l.931 1.612h2.804"/><path d="m9.325 1047.57v-.891h.672"/></g></g><g fill="#fff"><g transform="matrix(1.26979 0 0 1.26979-6.314-277.37)"><path fill-rule="evenodd" d="m2.236 4.955c-.367-.003-.991.165-.994 1.498-.001.432.064.808.344 1.135.072-.08.219-.236.295-.313-.262-.531-.118-.962-.076-1.451l.164.043v1.324c-.928.874-1.023 1.459-1.16 2.121v.004l1.059.006.016 2.471c0 .27.463.279.463 0v-2.469l.217.002.014 2.467c0 .27.465.279.465 0v-2.465l1.098.006c-.131-.676-.165-1.273-1.16-2.133l-.006-1.373h.084c.235.49.531.95.705 1.471-.039.125-.178.246 0 .457l1.24 1.141-.131 2.844c-.04.322.374.348.414.029l.07-1.283h.303l.227 1.264c.05.322.496.284.432-.063l-.232-1.328-.006-1.428.74.846c.211.236.496-.064.287-.301l-1.076-1.238-.965.012c0 0-.431-.348-.846-.73.255-.141-.12-.773-.449-1.396-.273-.516-.454-1.168-1.15-1.168z" transform="matrix(.78753 0 0 .78753 4.972 1034.61)"/><path d="m7.44 1037.84c0 .28-.227.508-.508.508-.28 0-.508-.227-.508-.508 0-.28.227-.508.508-.508.28 0 .508.227.508.508"/><path d="m9.769 1040.46c0 .251-.203.454-.453.454-.25 0-.454-.203-.453-.454 0-.25.203-.454.453-.454.25 0 .454.203.453.454"/></g><rect color-interpolation-filters="linearRGB" x="-1051.6" y="7.435" color="#000" image-rendering="auto" color-rendering="auto" rx=".344" width="14.469" color-interpolation="sRGB" text-rendering="auto" height=".688" shape-rendering="auto" transform="rotate(-90)"/></g></g></svg>