<svg xmlns="http://www.w3.org/2000/svg" viewBox="0 0 16 16"><g transform="translate(0-1036.36)"><g stroke="#fff"><g fill="none"><path stroke-width="1.5" d="m10.135 1039.56l2.104 2.063c.459.411-.149.971-.52.599l-1.584-1.585c0 0-.005 4.929-.009 6.861-.001.592-.884.631-.884-.019 0-.59.002-3.92.002-3.92l-.313 1.319-1.099 1.069c-.483.481-1.117-.137-.574-.63l.901-.891.27-1.697-.007-1.473-.806 1.344c-.302.504-.943.047-.625-.468l1.69-2.732c.123-.193.175-.215.665-.222.49-.01.514.105.79.382z"/><path d="m0 1044.86h3.501v2h4v2h4v2h3.999v1.497"/></g><ellipse stroke-opacity=".988" fill="#0031ff" cx="9.391" cy="1037.86" rx="1.111" ry="1.12" stroke-linejoin="round" stroke-linecap="round" stroke-width=".75"/></g><path fill="#0031ff" fill-rule="evenodd" d="m10.135 1039.56l2.104 2.063c.459.411-.132.953-.52.599l-1.584-1.585c0 0-.005 4.929-.009 6.861-.001.592-.884.631-.884-.019 0-.59.002-3.92.002-3.92l-.313 1.319-1.099 1.069c-.483.481-1.117-.137-.574-.63l.901-.891.27-1.697-.007-1.473-.806 1.344c-.302.504-.943.047-.625-.468l1.69-2.732c.123-.193.152-.215.653-.222.501-.01.526.105.802.382"/><path fill="none" stroke="#333" d="m0 1045.86h2.501v2h4v2h4v2h4.499"/></g></svg>