<svg xmlns="http://www.w3.org/2000/svg" viewBox="0 0 16 14" xmlns:xlink="http://www.w3.org/1999/xlink"><defs><path id="a" d="m7.864 1038.97h-4.686v5.451c-1.422.495-2.482 1.88-2.482 3.559 0 2.099 1.684 3.769 3.628 3.769 1.843 0 3.438-1.484 3.612-3.432 1.658 0 1.354 0 2.443.011-.184.339-.281.718-.282 1.104 0 1.282 1.04 2.321 2.322 2.322 1.283.001 2.323-1.039 2.323-2.322 0-.381-.094-.755-.273-1.091.061 0 .833 0 .833 0l-.002-3.479-6.144-.62z"/></defs><g transform="matrix(.97817 0 0 .97788.175-1015.23)"><use fill="none" stroke="#fff" xlink:href="#a" stroke-width="1.534"/><use xlink:href="#a"/><g fill="#fff"><path d="m4.179 1039.9h2.946l.988 4.383-3.933-.028z"/><path d="m4.339 1046.5c.929 0 1.48.705 1.48 1.499 0 .794-.551 1.499-1.48 1.499-.929 0-1.48-.705-1.48-1.499 0-.794.551-1.499 1.48-1.499"/><path d="m12.379 1048.33c.702.001 1.154.517 1.154 1.097 0 .579-.499 1.111-1.113 1.111-.614-.001-1.116-.529-1.111-1.111.005-.582.368-1.097 1.07-1.097"/></g></g></svg>