<svg xmlns="http://www.w3.org/2000/svg" viewBox="0 0 16 16"><g transform="translate(0-1036.36)"><path fill="#fff" d="m147.9 370.1h6.5v14.1h-6.5z" transform="matrix(1.38461 0 0 1.13464-204.78 616.43)"/><g fill="#808080"><path d="m9 1052.36h-1v-16h1z"/><path d="m5 1039.36h-1v-2h1z"/><path d="m5 1043.36h-1v-2h1z"/><path d="m1 1052.36h-1v-16h1z"/></g><circle fill="#fff" cx="12.5" cy="1048.86" r="2.5"/><g color-rendering="auto" shape-rendering="auto" color-interpolation-filters="linearRGB" image-rendering="auto" text-rendering="auto" color-interpolation="sRGB" color="#000" transform="translate(-.5-.5)"><path fill="#fff" stroke="#fff" stroke-linejoin="round" d="m6.936 1043.66c-.18 0-.208.105-.281.233l-1.414 2.711c-.36-.145-.755-.227-1.17-.227-1.636 0-3.07 1.341-3.07 2.99 0 1.718 1.448 2.992 3.07 2.992 1.692 0 3.072-1.287 3.072-2.992 0-1.044-.56-1.97-1.406-2.506l.412-.789 2.399 3.411c.041.058.143.159.271.159h1.145c.144 1.562 1.448 2.713 3.045 2.713 1.622 0 2.992-1.287 2.992-2.992 0-1.636-1.357-2.99-2.992-2.99-1.606 0-2.896 1.205-3.043 2.711h-.814l.957-3.275.582.01c.519 0 .52-.717.008-.717l-1.768-.016c-.46 0-.483.714.029.717l.566.01-.84 2.875-2.248-3.166.676-1.295h1.027c.371 0 .371-.557 0-.559zm-2.865 3.434c.298 0 .577.058.836.152l-1.082 2.072c-.207.34.334.622.494.258l1.088-2.084c.62.413 1.018 1.105 1.018 1.875 0 1.327-1.014 2.275-2.354 2.275-1.25 0-2.354-.961-2.354-2.275 0-1.223 1.117-2.274 2.354-2.274zm8.937 0c1.237 0 2.273 1.037 2.273 2.274 0 1.327-1.023 2.275-2.273 2.275-1.242 0-2.192-.82-2.326-1.996h2.404c.371 0 .371-.557 0-.559h-2.402c.142-1.108 1.1-1.994 2.324-1.994z"/><path fill="#00f" d="m6.936 1043.66c-.18 0-.208.105-.281.233l-1.414 2.711c-.36-.145-.755-.227-1.17-.227-1.636 0-3.07 1.341-3.07 2.99 0 1.718 1.448 2.992 3.07 2.992 1.692 0 3.072-1.287 3.072-2.992 0-1.044-.56-1.97-1.406-2.506l.412-.789 2.399 3.411c.041.058.143.159.271.159h1.145c.144 1.562 1.448 2.713 3.045 2.713 1.622 0 2.992-1.287 2.992-2.992 0-1.636-1.357-2.99-2.992-2.99-1.606 0-2.896 1.205-3.043 2.711h-.814l.957-3.275.582.01c.519 0 .52-.717.008-.717l-1.768-.016c-.46 0-.483.714.029.717l.566.01-.84 2.875-2.248-3.166.676-1.295h1.027c.371 0 .371-.557 0-.559zm-2.865 3.434c.298 0 .577.058.836.152l-1.082 2.072c-.207.34.334.622.494.258l1.088-2.084c.62.413 1.018 1.105 1.018 1.875 0 1.327-1.014 2.275-2.354 2.275-1.25 0-2.354-.961-2.354-2.275 0-1.223 1.117-2.274 2.354-2.274m8.937 0c1.237 0 2.273 1.037 2.273 2.274 0 1.327-1.023 2.275-2.273 2.275-1.242 0-2.192-.82-2.326-1.996h2.404c.371 0 .371-.557 0-.559h-2.402c.142-1.108 1.1-1.994 2.324-1.994"/></g></g></svg>