<svg xmlns="http://www.w3.org/2000/svg" viewBox="0 0 16 16"><g transform="translate(0-1036.36)"><g fill="#00f"><path d="m0 1052.36h7v-16h-7z"/><path d="m8 1036.36v16h7v-3h1v-9h-1v-4z"/></g><g fill="#fff"><path d="m4 1039.36h-1v-2h1z"/><path d="m4 1043.36h-1v-2h1z"/><path d="m4 1047.36h-1v-2h1z"/><path d="m4 1051.36h-1v-2h1z"/><path d="m12 1039.36h-1v-2h1z"/><path d="m12 1043.36h-1v-2h1z"/><path d="m12 1047.36h-1v-2h1z"/><path d="m12 1051.36h-1v-2h1z"/><path d="m12 1045.36v-1h2v1z"/><path d="m15 1045.36v-1h1v1z"/></g></g></svg>