<svg xmlns="http://www.w3.org/2000/svg" viewBox="0 0 16 16"><g transform="translate(0-1036.36)"><path fill="#ffda00" d="m147.9 370.1h6.5v14.1h-6.5z" transform="matrix(1.38461 0 0 1.13464-204.78 616.43)"/><g fill="#808080"><path d="m9 1052.36h-1v-16h1z"/><path d="m5 1039.36h-1v-2h1z"/><path d="m5 1043.36h-1v-2h1z"/><path d="m5 1047.36h-1v-2h1z"/><path d="m5 1051.36h-1v-2h1z"/><path d="m1 1052.36h-1v-16h1z"/></g><path fill="none" stroke="#fff" stroke-linejoin="round" d="m10.72 1041.27l-1.578 1.961c-.155.14-.181.368-.076.549.518.897 1.541 2.535 1.541 2.535l-3.119 3.057c-.257-.393-.552-.764-1.127-.756-.462.01-.737.164-1.264.723 0 0-1.373.079-1.397 1.372-.016.906-.739-.055-1.166 1.155h8.098c-1.281-.542-1.06-1.626-2.068-1.59-.411.016-.647-.262-.867-.592 1.278-1.278 4.135-4.051 4.135-4.051l-1.434 2.451 1.529 3.369c.371.831 1.617.266 1.236-.561l-1.238-2.73 1.482-2.459.066 2.502.68 3.113c.181.902 1.537.606 1.326-.289l-.652-2.99-.076-2.541c-.002-.172-.07-.337-.189-.461l-.99-1.109.211-.207c.288.353.929.03.717-.453l-.076-.174.254-.25c.184-.184-.062-.455-.258-.264l-.156.152-.752-1.701-2.097-.016c-.483.001-.622.161-.694.255zm1.018.605l1.207.014.658 1.49-.277.273zm-1.5 2.172l1.611 1.053-.613.6z"/><path fill-rule="evenodd" d="m11.1 1041c-.166.01-.305.17-.377.264l-1.578 1.961c-.155.14-.185.37-.076.549l1.541 2.535-3.119 3.057c-.257-.393-.552-.764-1.127-.756-.462.01-.737.164-1.264.723 0 0-1.373.079-1.397 1.372-.016.906-.739-.055-1.166 1.155h8.098c-1.281-.542-1.06-1.626-2.068-1.59-.411.016-.647-.262-.867-.592 1.278-1.278 4.135-4.051 4.135-4.051l-1.434 2.451 1.529 3.369c.371.831 1.617.266 1.236-.561l-1.238-2.73 1.482-2.459.066 2.502.68 3.113c.181.902 1.537.606 1.326-.289l-.652-2.99-.076-2.541c-.002-.172-.07-.337-.189-.461l-.99-1.109.211-.207c.288.353.929.03.717-.453l-.076-.174.254-.25c.184-.184-.062-.455-.258-.264l-.156.152-.752-1.701zm.641.869l1.207.014.658 1.49-.277.273zm-1.5 2.172l1.611 1.053-.613.6z"/><circle cx="8.48" cy="1040.36" stroke="#fff" stroke-linejoin="round" r="1.5" stroke-linecap="round" stroke-width=".5"/></g></svg>