<svg xmlns="http://www.w3.org/2000/svg" viewBox="0 0 16 16" xmlns:xlink="http://www.w3.org/1999/xlink"><defs><path fill="#0031ff" id="a" d="m10.141 1046.75l-.994-1.851-1.116 2.231c-.138.276-.474.391-.751.251-.276-.14-.388-.474-.25-.751l1.506-3.01c.303-.606.923-.99 1.602-.99h1.997c.33 0 .633.179.789.471l1.156 2.152c.097.176.092.391-.013.563-.105.17-.295.276-.496.268-.201 0-.383-.123-.477-.299l-1.053-1.959h-.678l2.162 4.046 1.228.022c.412.01.746.335.746.746 0 .412-.334.752-.746.746l-1.585-.022c-.33 0-.633-.179-.789-.472l-.844-1.592-2.073 4.146c-.184.37-.633.518-1 .335-.369-.184-.518-.632-.334-1z"/></defs><g transform="translate(0-1036.36)"><path fill="#fff" d="m0 1036.36h9v16h-9z"/><g fill="#808080"><path d="m8 1036.36h1v16h-1z"/><path d="m5 1039.37h-1v-2h1z"/><path d="m5 1043.37h-1v-2h1z"/><path d="m5 1047.37h-1v-2h1z"/></g><path fill="#0031ff" d="m7.349 1049.65c0-.948-.768-1.716-1.716-1.716-.948 0-1.716.769-1.716 1.716 0 .948.768 1.716 1.716 1.716.948 0 1.716-.768 1.716-1.716"/><use stroke="#fff" xlink:href="#a"/><use xlink:href="#a"/><path fill="#0031ff" stroke="#fff" stroke-width=".5" d="m10.02 1040.86c0-.917-.744-1.661-1.661-1.661-.917 0-1.661.744-1.661 1.661 0 .917.744 1.661 1.661 1.661.917 0 1.661-.744 1.661-1.661"/><path fill="#808080" d="m0 1036.36h1v16h-1z"/></g></svg>