<svg xmlns="http://www.w3.org/2000/svg" viewBox="0 0 16 16"><g transform="translate(0-1036.36)"><path fill="#fff" d="m147.9 370.1h6.5v14.1h-6.5z" transform="matrix(1.38461 0 0 1.13464-204.78 616.43)"/><path fill="#808080" d="m9 1052.36h-1v-16h1z"/><path fill="none" stroke="#fff" d="m11.736 1039.82c-.77.017-1.567.707-1.49 2.219l-1.746-.017c-.032-2.224 1.026-3.049 1.548-3.297.499-.237 1.134-.362 1.751-.362.738 0 1.341.094 1.809.279.468.184.849.422 1.134.71.285.288.482.611.593.966.111.355.164.697.164 1.02 0 .409-.082.773-.251 1.092-.169.319-.376.616-.622.894-.246.279-.516.539-.815.796-.299.252-.569.512-.815.782-.246.27-.453.566-.622.885-.169.319-.251.674-.251 1.074v.198c0 .072.005.139.019.198h-1.505c-.053-.238-.077-.494-.077-.76 0-.387.072-.733.222-1.047.15-.315.338-.607.569-.876.232-.27.478-.521.733-.76.256-.234.502-.472.738-.71.232-.238.424-.494.569-.76.15-.265.222-.553.222-.868 0-.508-.174-.917-.521-1.236-.342-.31-.686-.437-1.357-.422zm1.053 10.364c0 .324-.116.607-.347.845-.232.238-.55.36-.95.36-.4 0-.719-.121-.95-.36-.232-.238-.347-.521-.347-.845 0-.324.116-.607.347-.85.232-.238.55-.36.95-.36.4 0 .714.121.95.36.232.238.347.521.347.85z"/><path d="m266.77 295.61c-15.963.369-32.488 15.735-30.885 49.38l-36.19-.38c-.668-49.49 21.269-67.839 32.1-73.35 10.353-5.268 23.5-8.06 36.3-8.06 15.3 0 27.8 2.1 37.5 6.2 9.7 4.1 17.6 9.4 23.5 15.8 5.9 6.4 10 13.6 12.3 21.5 2.3 7.9 3.4 15.5 3.4 22.7 0 9.1-1.7 17.2-5.2 24.3-3.5 7.1-7.8 13.7-12.9 19.9-5.1 6.2-10.7 12-16.9 17.7-6.2 5.6-11.8 11.4-16.9 17.4-5.1 6-9.4 12.6-12.9 19.7-3.5 7.1-5.2 15-5.2 23.9v4.4c0 1.6.1 3.1.4 4.4h-31.2c-1.1-5.3-1.6-11-1.6-16.9 0-8.6 1.5-16.3 4.6-23.3 3.1-7 7-13.5 11.8-19.5 4.8-6 9.9-11.6 15.2-16.9 5.3-5.2 10.4-10.5 15.3-15.8 4.8-5.3 8.8-11 11.8-16.9 3.1-5.9 4.6-12.3 4.6-19.3 0-11.3-3.6-20.4-10.8-27.5-7.1-6.9-14.231-9.713-28.13-9.392m21.826 230.59c0 7.2-2.4 13.5-7.2 18.8-4.8 5.3-11.4 8-19.7 8-8.3 0-14.9-2.7-19.7-8-4.8-5.3-7.2-11.6-7.2-18.8 0-7.2 2.4-13.5 7.2-18.9 4.8-5.3 11.4-8 19.7-8 8.3 0 14.8 2.7 19.7 8 4.8 5.3 7.2 11.6 7.2 18.9" transform="matrix(.04824 0 0 .04495-1.132 1026.53)"/><g fill="#808080"><path d="m5 1039.36h-1v-2h1z"/><path d="m5 1043.36h-1v-2h1z"/><path d="m5 1047.36h-1v-2h1z"/><path d="m5 1051.36h-1v-2h1z"/><path d="m1 1052.36h-1v-16h1z"/></g></g></svg>