<svg xmlns="http://www.w3.org/2000/svg" viewBox="0 0 16 16"><g transform="translate(0-1036.36)"><path fill="#fff" d="m147.9 370.1h6.5v14.1h-6.5z" transform="matrix(1.38461 0 0 1.13464-204.78 616.43)"/><g fill="#808080"><path d="m9 1052.36h-1v-16h1z"/><path d="m5 1039.36h-1v-2h1z"/><path d="m5 1043.36h-1v-2h1z"/><path d="m5 1047.36h-1v-2h1z"/><path d="m5 1051.36h-1v-2h1z"/></g><g transform="rotate(20.79877)"><path fill="#ff0" d="m379.53 964.44h1.955v1.955h-1.955z"/><path d="m381.49 964.43h1.955v1.955h-1.955z"/><path d="m379.53 966.4h1.955v1.955h-1.955z"/><g fill="#ff0"><path d="m381.49 966.39h1.955v1.955h-1.955z"/><path d="m379.53 968.35h1.955v1.955h-1.955z"/></g><path d="m381.49 968.34h1.955v1.955h-1.955z"/><path d="m379.53 970.31h1.955v1.955h-1.955z"/><g fill="#ff0"><path d="m381.49 970.3h1.955v1.955h-1.955z"/><path d="m379.53 972.26h1.955v1.955h-1.955z"/></g><path d="m381.49 972.25h1.955v1.955h-1.955z"/><path d="m379.53 974.22h1.955v1.955h-1.955z"/><g fill="#ff0"><path d="m381.49 974.21h1.955v1.955h-1.955z"/><path d="m379.53 976.17h1.955v1.955h-1.955z"/></g><path d="m381.49 976.16h1.955v1.955h-1.955z"/><path d="m379.53 978.13h1.955v1.955h-1.955z"/><path fill="#ff0" d="m381.49 978.12h1.955v1.955h-1.955z"/></g><path fill="#808080" d="m1 1052.36h-1v-16h1z"/></g></svg>