<svg xmlns="http://www.w3.org/2000/svg" viewBox="0 0 16 16" xmlns:xlink="http://www.w3.org/1999/xlink"><defs><path id="a" color="#000" d="m8.966 1040.02c-.745 0-1.344.536-1.344 1.203v4.587c-.012.751 1.254.751 1.243 0v-3.748h.64v9.129c-.015.966 1.613.966 1.598 0v-5.382h.791v5.382c0 .966 1.613.966 1.598 0v-9.129h.706v3.748c-.012.751 1.255.751 1.243 0v-4.587c0-.666-.6-1.202-1.345-1.202z"/></defs><g transform="translate(0-1036.36)"><path fill="#fff" d="m147.9 370.1h6.5v14.1h-6.5z" transform="matrix(1.38461 0 0 1.13464-204.78 616.43)"/><g fill="#808080"><path d="m5 1039.36h-1v-2h1z"/><path d="m5 1043.36h-1v-2h1z"/><path d="m5 1047.36h-1v-2h1z"/><path d="m5 1051.36h-1v-2h1z"/><path d="m1 1052.36h-1v-15.998h1z"/><path d="m9 1052.36h-1v-15.998h1z"/></g><g stroke="#fff" stroke-linejoin="round"><use fill="none" xlink:href="#a" stroke-width=".9"/><ellipse fill="#0031ff" cx="11.531" cy="1038.27" rx="1.659" ry="1.659" stroke-linecap="round" stroke-width=".5"/></g><use fill="#0031ff" xlink:href="#a"/></g></svg>