<svg xmlns="http://www.w3.org/2000/svg" viewBox="0 0 16 16" fill-rule="evenodd"><g stroke="#000" stroke-linejoin="round" stroke-width=".463"><path fill="#0ff" d="m8.658 7.217c1.016-.397.287-1.41.258-2.035-1.193.093.609-.852.133-1.56-.132-.709.068-2.237 1.023-1.309.394.344 1.451-.109.885.739-.124.807.814 1.493.568 2.317.817.443 3.065-.05 4.119-.085-.107.939.336 1.262-.263 2.364-.804.678-1.605 2.269.362 3.62-.548.698.696 1.394-.349 2.01-.717.584-.479 1.926-1.807 1.612-.772-.163-2.127.795-1.907-.646.6-.942-.964-1.625-.077-2.527-.154-1.219-2.263-.426-1.996-1.698-.631.179-2.054-.687-1.277-1.65.15-.374.137-.798.327-1.157z"/><path fill="#ff0" d="m8.07 8.842c.052.471.276.975.72 1.194.269-.009.807-.25.856.166-.186.354.064.68.452.643.277.035.543.122.806.211.294.128.609.34.705.657-.011.407-.449.732-.304 1.154.15.224.509.318.537.652.091.296-.038.588-.197.831-.132.434.381.745.31 1.176-.256.25-.571-.486-.776-.014-.28.125-.608-.709-.72-.184.045.488-.481.205-.712.082-.389-.024-.697-.219-1.035-.399-.329-.014-.427.425-.763.431-.29.082-.622-.166-.56-.478.045-.536-.287-.996-.524-1.447-.383-.17-.42-.637-.397-1 .022-.317-.076-.657.104-.947.091-.249.377-.422.399-.679-.05-.437-.165-.94.134-1.318.21-.282-.029-.669.131-.961.253.017.594.112.834.233z"/><path fill="#008000" d="m.645 9.668c.008-.539-.124-1.163.128-1.64.31-.343.612-.643 1.067-.262.637.328 1.195-1.117 1.609-.164.275.465 1.475.905 1.571.13.005-.614.255.168.433-.384.282-.698 1.067-.66 1.484-.124.549-.231.657-.802.827-1.234.53.183.154 1.053.719 1.369.219.49-.218 1.089-.331 1.506-.416.099-1.191-.683-.971.186.065.659-.514 1.18-.213 1.889-.095.446-.603.651-.5 1.226-.053.629-.021 1.234.516 1.614.181.482.858 1.476.123 1.748-.387.79-1.074-.015-1.674.344-.386-.292.202-1.152-.569-1.114-.72-.364-.634.777-1.357.459-.535-.293-1.155-.235-1.675-.436.038-.366.349-.802.128-1.227.132-.429-.281-.542-.004-.95-.185-.284-.752-.31-.577-.856-.137-.348-.546-1-.858-1.177-.535.478-.577-.822-.293-.828.13.043.435.21.415-.074z"/><path fill="#f00" d="m.457 5.796c.367-.672 1.027-1.11.638-1.796.015-.721.055-1.948 1.107-1.464.224-.381.318-.84.776-.603.322-.466.446-1.01 1.12-1.207.464-.825 1.5-.2 1.735.474.484.484.665-.43 1.303-.244.911-.047 1.377 1.053 1.953 1.398-.14.824.168 1.733-.389 2.439-.748.363.118.395.424.454-.414.479-.035.771.19 1.207-.065.948-1.54.832-1.224-.155-.554-1.123-.47 1.347-1.428.699-.568-.811-1.311.463-1.63.582.01.987-1.217.376-1.592-.027-.416-.862-1.338.655-2.043.01-.324-.053-.739.749-1.205.192-.033-.608-.12-1.485.166-2z"/></g></svg>