<svg xmlns="http://www.w3.org/2000/svg" viewBox="0 0 156.26 144.41"><g stroke="#000"><path fill="#fff" stroke-width="2" d="m12.473 121.08c-.914 1.761-1.991 3.408-1.991 5.341l.009.808c0 4.172 3.266 6.694 7.02 6.694h121.32c3.755 0 6.989-3.127 6.989-7.299l-.04-.811c0-1.933-.95-3.612-1.991-5.341l-60.08-107.78c-2.655-2.95-6.958-2.95-9.613 0z"/><path fill="#fc0" stroke-linejoin="round" stroke-width="4.852" d="m78.7 16.292l-63.42 111.84h124.55l-60.31-111.84z"/></g><path d="m84.37 45.16c.924.982 1.104 1.212 1.566 3 .462 1.79 1.474 5.309.36 9.302-.462 6.928-.162 13.505-.435 20.517-.273 7 1.461 15.447-6.622 17.06-2.078.231-4.157-1.155-4.965-3.118-1.386-14.09-2.771-27.483-4.157-41.22 1.155-3.58 4.04-7.04 7.506-7.506 3.464-.462 5.825.982 6.749 1.963"/><path d="m83.16 103.36c3.233 1.963 3.811 5.543 3.811 9.122-1.386 3.465-2.887 7.506-7.39 7.506-2.771-.115-5.427-.693-7.275-2.771-1.155-4.157-3.811-8.43 0-11.894 2.887-4.04 6.928-3 10.855-1.963"/></svg>