<svg xmlns="http://www.w3.org/2000/svg" viewBox="0 0 16 16"><g transform="translate(0-1036.36)"><path color-interpolation-filters="linearRGB" color="#000" image-rendering="auto" color-rendering="auto" fill-rule="evenodd" d="m0 1036.36h16v16h-16z" color-interpolation="sRGB" text-rendering="auto" fill="#fff" shape-rendering="auto"/><g fill="#090" transform="matrix(.1249 0 0 .1249-44.952 984.74)"><path d="m471.9 510.8l-3.2-8.5c-1.4-3.5-4.6-5.9-8.6-5.9h-1.4v-73.2h-69.5v40.5h9.1l10.4-13c2.1-2.4 5.3-4 8.8-4h22.2c3.5 0 6.6 1.9 8.2 5l6.6 12.5c.3.5.5 1.1.5 1.9 0 2.2-1.9 4.2-4.2 4.2-1.8 0-3-.8-3.8-2.2l-5.9-11.4h-9.6l7.4 18.4 2.2 23.5h19c3 0 5.4 1.9 6.6 4.5l2.1 5.4h-32.8c-2.4 0-4.5-1.8-4.6-4.2l-2.2-20.6-17.6 36.5c-1 2.1-3.2 3.5-5.8 3.5h-8.5l21.6-44.7-6.7-16.8-6.4 7.8c-1.6 2.1-4.3 3.5-7.2 3.5h-9.4v52.8l15 14.9h-44.3v-127.9h128.1v128.1h-14.4l-14.9-14.9v-15.7h13.2"/><path d="m412 428h1l.5.1 1.2.3 2.4 1.2 2.1 2.1.3.4 1 2 .4 1.6.1.5v1c0 5-4.2 9-9.1 9-5 0-9-4-9-9 0-5 4.2-9.2 9.1-9.2"/><path d="m416 529.8l11.5 11.5h-13.9l-15-14.9h9c3.1 0 6.2 1.3 8.4 3.4"/></g></g></svg>