<svg xmlns="http://www.w3.org/2000/svg" viewBox="0 0 16 16"><path fill="#338000" d="m1.792.002c-1.147 0-1.792.592-1.792 1.802v12.472c0 1.132.58 1.724 1.726 1.724h12.547c1.147 0 1.727-.563 1.727-1.724v-12.472c0-1.18-.581-1.802-1.763-1.802 0 0-12.449-.004-12.445 0"/><g stroke="#fff" stroke-linejoin="round" transform="translate(6)"><path fill="none" stroke-linecap="round" stroke-width="1.036" d="m2.479 11.579v-8.08h5.075v8.08"/><path opacity=".2" fill="#fff" stroke-width="1.108" d="m2.834 4.055h4.293v7.421h-4.293z"/></g><g fill="none" stroke="#fff" stroke-linejoin="round" stroke-linecap="round" stroke-width="42.849" transform="matrix(.03017 0 0 .02742-.263-.494)"><path d="m53.46 288.65h160.58l-39.39-75.75"/><path d="m53.46 294.32h160.58l-39.39 75.75"/></g></svg>