<?xml version="1.0" encoding="UTF-8"?>
<svg viewBox="0 0 295.86362 294.66061" xmlns="http://www.w3.org/2000/svg">
 <defs>
  <filter id="c">
   <feGaussianBlur stdDeviation=".66104"/>
  </filter>
  <linearGradient id="a" x2="0" y1="90.93" y2="118.17" gradientUnits="userSpaceOnUse">
   <stop stop-color="#fff" offset="0"/>
   <stop stop-color="#fff" stop-opacity="0" offset="1"/>
  </linearGradient>
  <linearGradient id="b" x1="160.45" x2="161.48" y1="100.96" y2="129.61" gradientUnits="userSpaceOnUse">
   <stop stop-color="#f93" offset="0"/>
   <stop stop-color="#f60" offset="1"/>
  </linearGradient>
 </defs>
 <path transform="matrix(8.0054 0 0 8.0054 -1135.5 -742.84)" d="m178.8 111.6a18.003 18.003 0 1 1 -36.007 0 18.003 18.003 0 1 1 36.007 0z" filter="url(#c)"/>
 <g transform="matrix(6.8158 0 0 6.8158 -1181.2 -604.07)">
  <path transform="matrix(1.1745 0 0 1.1745 5.8249 -21.066)" d="m178.8 111.6a18.003 18.003 0 1 1 -36.007 0 18.003 18.003 0 1 1 36.007 0z" fill="#fff" stroke="#999" stroke-width=".4"/>
  <path transform="matrix(1.0291 0 0 1.0291 29.211 -4.8347)" d="m178.8 111.6a18.003 18.003 0 1 1 -36.007 0 18.003 18.003 0 1 1 36.007 0z" fill="url(#b)"/>
  <path transform="translate(33.447 -.70602)" d="m176.33 104.89a15.091 12.002 0 1 1 -30.182 0 15.091 12.002 0 1 1 30.182 0z" fill="url(#a)"/>
  <path d="m194.22477,117.05594-1.48438-17.46094c-.05208-.49477-.07813-.80727-.07812-.9375-1e-005-.95049.20833-1.65036.625-2.09961s1.02864-.6738 1.83594-.67383c.70311,3e-005 1.27278.21487 1.70898.64453s.65429,1.00914.6543,1.73828c-1e-005,.2344-.03256.62503-.09766,1.17188l-1.5625,17.61719h-1.60156zm.83984,1.99219c.6901,0 1.27278.23763 1.74805.71289s.71288,1.05143.71289,1.72851-.24089,1.25326-.72266,1.72852-1.0612.71289-1.73828.71289c-.66407,0-1.23698-.23763-1.71875-.71289s-.72266-1.05143-.72265-1.72852 .23762-1.25325.71289-1.72851 1.05142-.71289 1.72851-.71289z"/>
 </g>
</svg>
