<svg xmlns="http://www.w3.org/2000/svg" viewBox="0 0 16 16"><path fill="#1388ff" fill-rule="evenodd" d="m0 12.871h16c-1.143 2.286-5.714 3.129-8 3.129-2.286 0-6.513-.843-8-3.129m10.286-12.801c-1.143 0-1.914 1.183-2.299 2.073-.386-.933-1.129-2.125-2.272-2.125-1.715 0-2.623 2.199-2.623 3.342 0 1.143 1.48.771 1.48.035 1.143-2.286 2.286-1.845 2.563 1.769v.4c-.438-.216-.928-.353-1.42-.353-1.677 0-3.434 1.18-3.434 3.429v1.143c0 1.143 1.714 1.143 1.714 0v-1.143c0-1.104 1.072-1.714 1.72-1.714.628 0 1.374.613 1.42 1.621v3.745c.866-.661.866-.679 1.697 0l.026-3.652v-.143c.047-1.01.792-1.618 1.42-1.618.648 0 1.72.61 1.72 1.714v1.143c0 1.143 1.714 1.143 1.714 0v-1.143c0-2.249-1.757-3.429-3.434-3.429-.492 0-.982.138-1.42.355 0-.103-.019-.207 0-.308.286-3.136 1.541-4.067 2.684-1.781 0 .603 1.405 1.056 1.405-.087 0-1.143-.945-3.272-2.66-3.272"/></svg>