<svg xmlns="http://www.w3.org/2000/svg" viewBox="0 0 16 13" xmlns:xlink="http://www.w3.org/1999/xlink"><defs><path id="a" d="m1.241 1051.36c0 0 1.752-3.335 3.504-3.335 1.752 0 3.504 3.335 3.504 3.335z"/></defs><g transform="translate(0-1039.36)"><g fill="none" stroke="#fff" stroke-width="1.5"><path d="m10.30469 1040.5228a.50005 .50005 0 0 0 -.349611 .8594l3.043 3.043h-2.998c-.554 0-1 .446-1 1v5c0 .554.446 1 1 1h4c.554 0 1-.446 1-1v-5c0-.282-.118-.533-.305-.715a.50005 .50005 0 0 0 -.0332 -.035l-4-4a.50005 .50005 0 0 0 -.357421 -.1524z"/><use xlink:href="#a"/></g><rect x="9" y="1044.36" rx="1" width="6" fill="#008000" height="7"/><path fill="none" stroke="#008000" stroke-linejoin="round" stroke-linecap="round" d="m14.309 1044.96l-4-4"/><use fill="#999" fill-rule="evenodd" xlink:href="#a"/></g></svg>