<svg xmlns="http://www.w3.org/2000/svg" viewBox="0 0 16 12"><g transform="matrix(1.25 0 0-1.25 0 12)"><path fill="#0000a0" d="m0-9.6h12.8v9.6h-12.8z" transform="scale(1-1)"/><path fill="none" stroke="#fff" stroke-width=".678" d="m2.684 8.407c0-.728-.743-1.462-1.453-1.482v-4.269c.717 0 1.466-.809 1.453-1.538h7.449c.027.735.778 1.509 1.452 1.538v4.269c-.643-.007-1.451.767-1.452 1.482z"/><path fill="#fff" d="m5.862-5.431v-.013c0-.004.002-.011.007-.02v-.053c0-.018-.002-.037-.007-.059 0-.022-.002-.044-.007-.066-.013-.053-.04-.099-.079-.138-.035-.044-.092-.068-.171-.066h-.52v-.497h.468c.211 0 .406-.064.586-.191.184-.132.329-.244.435-.402.026-.035.048-.068.066-.099.022-.035.04-.07.053-.105h.468v3.796c0 .105.024.193.072.264.048.066.11.099.184.099h.573v.622h-2.905v-.622h.52c.101 0 .169-.022.204-.066.035-.048.053-.165.053-.349z" transform="scale(1-1)"/></g></svg>