<svg xmlns="http://www.w3.org/2000/svg" viewBox="0 0 12 9"><g transform="matrix(1.25 0 0-1.25 0 9)"><path fill="#0000a0" d="m0-7.2h9.6v7.2h-9.6z" transform="scale(1-1)"/><path fill="none" stroke="#fff" stroke-width=".509" d="m2.01 6.306c0-.546-.557-1.097-1.09-1.111v-3.202c.538 0 1.1-.607 1.09-1.153h5.587c.02.551.584 1.132 1.089 1.153v3.202c-.482-.005-1.088.575-1.089 1.111z"/><path fill="#fff" d="m5.862-5.431v-.013c0-.004.002-.011.007-.02v-.053c0-.018-.002-.037-.007-.059 0-.022-.002-.044-.007-.066-.013-.053-.04-.099-.079-.138-.035-.044-.092-.068-.171-.066h-.52v-.497h.468c.211 0 .406-.064.586-.191.184-.132.329-.244.435-.402.026-.035.048-.068.066-.099.022-.035.04-.07.053-.105h.468v3.796c0 .105.024.193.072.264.048.066.11.099.184.099h.573v.622h-2.905v-.622h.52c.101 0 .169-.022.204-.066.035-.048.053-.165.053-.349z" transform="matrix(.75 0 0-.75 0 0)"/></g></svg>