<svg xmlns="http://www.w3.org/2000/svg" viewBox="0 0 16 16"><defs><linearGradient id="a" y1="5.265" y2="42.603" x2="0" gradientUnits="userSpaceOnUse" gradientTransform="matrix(.4 0 0 .40004-1.6-1.601)"><stop stop-color="#fff" stop-opacity=".5"/><stop offset="1" stop-color="#fff" stop-opacity="0"/></linearGradient><radialGradient cx="14.11" cy="9.421" r="18.717" id="b" gradientUnits="userSpaceOnUse" gradientTransform="matrix(-.09714.39279-.7896-.19532 13.522-2.78)"><stop stop-color="#888a85"/><stop offset="1" stop-color="#555753"/></radialGradient><radialGradient cx="26.805" cy="30.17" r="14.476" id="c" gradientUnits="userSpaceOnUse" gradientTransform="matrix(.47682-.6687.96937.69136-33.419 8.18)"><stop stop-color="#d3d7cf"/><stop offset="1" stop-color="#eeeeec"/></radialGradient><linearGradient id="d" y1="-17.412" x1="9" y2="30.14" x2="24" gradientUnits="userSpaceOnUse" gradientTransform="matrix(.4 0 0 .40004-1.6-1.601)"><stop stop-color="#fff"/><stop offset="1" stop-color="#fff" stop-opacity="0"/></linearGradient><linearGradient id="e" y1="8.164" y2="39.695" x2="0" gradientUnits="userSpaceOnUse" gradientTransform="matrix(.4 0 0 .40004-1.6-1.601)"><stop stop-color="#2e3436"/><stop offset="1" stop-color="#babdb6"/></linearGradient></defs><path fill="#2e3436" d="M16 8A8 8 0 0 1 0 8 8 8 0 1 1 16 8"/><path fill="url(#b)" d="m7.5.549c-5.654.101-9.099 7.432-5.525 11.876l-.012.012c3.245 4.795 11.375 3.608 13.06-1.938h.012c.003-.008-.003-.017 0-.025 1.866-4.885-2.294-10.383-7.512-9.926-.009.001-.016-.001-.025 0"/><path fill="none" stroke="url(#a)" stroke-width=".4" d="m8.463.712c-.305-.015-.623-.003-.938.025-.004 0-.008 0-.013 0-5.506.088-8.891 7.27-5.388 11.589 3.157 4.664 11.11 3.515 12.738-1.888.001-.004-.001-.009 0-.012 1.715-4.465-1.762-9.486-6.4-9.713z"/><path fill="url(#e)" d="m7.525 1.687c-4.675.083-7.627 6.34-4.663 10.03a1.143021 1.143138 0 0 1 .1 .150015c2.732 3.908 9.58 2.885 10.975-1.7a1.143021 1.143138 0 0 1 .0375 -.10001c1.562-4.089-1.977-8.758-6.35-8.376-.203.018-.213.017-.025 0a1.143021 1.143138 0 0 1 -.075 0"/><path fill="url(#c)" d="m7.538 2.237c-.009.001-.018.012-.025.013-.006 0-.029-.001-.037 0-.008 0-.017 0-.025 0-4.14.155-6.808 5.837-4.163 9.126.044.056.089.114.125.175 2.46 3.52 8.744 2.58 10-1.55.015-.045.032-.094.05-.138 1.414-3.702-1.825-7.972-5.788-7.626-.026.002-.043-.002-.063 0-.028.001-.047 0-.075 0"/><path opacity=".9" fill="#ca5b00" d="m8.05 2.224c-.122.002-.251.002-.375.013-.026.002-.043-.002-.063 0-.028.001-.047 0-.075 0-.009.001-.018.012-.025.013-.006 0-.029-.001-.037 0-.008 0-.017 0-.025 0-1.36.051-2.556.7-3.463 1.663l1.788 1.775c.577-.565 1.367-.913 2.237-.913.877 0 1.672.353 2.25.925l1.788-1.788c-1.04-1.047-2.453-1.713-4-1.688"/><path opacity=".9" fill="#729300" d="m3.963 3.937c-1.834 1.971-2.444 5.239-.675 7.438.044.056.089.114.125.175.137.196.291.382.45.55l1.875-1.875c-.572-.578-.925-1.373-.925-2.25 0-.877.353-1.672.925-2.25z"/><path opacity=".9" fill="#c70000" d="m12.07 3.937l-1.787 1.788c.572.578.925 1.373.925 2.25 0 .874-.357 1.66-.925 2.238l1.85 1.85c.576-.558 1.026-1.243 1.275-2.063.015-.045.032-.094.05-.138.806-2.111.104-4.406-1.387-5.926"/><path fill="#555753" d="m8.815398 7.968164a.799998 .800082 0 1 1 -1.599996 0 .799998 .800082 0 1 1 1.599996 0"/><rect width="1.385" x="10.474" y="-3.888" fill="#383936" rx=".692" height="6.439" ry=".708" transform="matrix(.81583.57829-.57821.81589 0 0)"/><path opacity=".6" fill="url(#d)" d="m8.05 2.212c-.122.002-.251.014-.375.025-.026.002-.043-.002-.063 0-.028.001-.047 0-.075 0-.009.001-.018.012-.025.013-.006 0-.029-.001-.037 0-.008 0-.017 0-.025 0-3.07.115-5.329 3.274-5.213 6.238 3.553-1.153 7.469-2.243 10.938-3.03-.961-1.883-2.904-3.287-5.125-3.25"/></svg>