<svg xmlns="http://www.w3.org/2000/svg" viewBox="0 0 16 16"><path color-interpolation-filters="linearRGB" color="#000" image-rendering="auto" color-rendering="auto" fill-rule="evenodd" d="m3 0c-1.662 0-3 1.338-3 3v7c0 1.662 1.338 3 3 3 1.333 0 3.663-.032 4 1.326.032 1.725 1.338 1.674 3 1.674h3c1.662 0 3-1.338 3-3v-2c0-.172-.023-.336-.051-.5.027-.164.051-.328.051-.5v-7c0-1.662-1.338-3-3-3zm.5 3c.831 0 1.5.669 1.5 1.5v1c0 .831-.669 1.5-1.5 1.5-.831 0-1.5-.669-1.5-1.5v-1c0-.831.669-1.5 1.5-1.5m7 1h2c.831 0 1.5.669 1.5 1.5v6c0 .831-.669 1.5-1.5 1.5h-2c-.831 0-1.5-.669-1.5-1.5v-6c0-.831.669-1.5 1.5-1.5" color-interpolation="sRGB" text-rendering="auto" fill="#ecac00" shape-rendering="auto"/></svg>