<svg xmlns="http://www.w3.org/2000/svg" viewBox="0 0 16 13" enable-background="new 0 0 16 16"><path fill="#636363" stroke="#000" stroke-width=".9" d="m.45 8.872c1.614 1.408 4.895-.887 6.471 0 .384-.694 1.029-1.561 0-2.265-1.439-.615-2.879 0-4.318 0-.707-1.133-.209-2.265 0-3.398.456-.821.724-1.689 2.159-2.265 2.581-.425 5.165-.872 7.556 0 1.474 1.072 1.942 2.225 2.159 3.398-.476 1.369-1.195 2.125-2.159 2.265-.767.889-.374 1.576 0 2.265 1.3-.513 1.811-.394 3.232 0v3.359l-15.1-.006z"/><path fill="none" stroke="#636363" d="m.45 9.629v2.597l15.1.006v-3.01"/></svg>