<svg xmlns="http://www.w3.org/2000/svg" viewBox="0 0 7 16"><g transform="translate(0-1036.36)"><path fill="#333" stroke="#000" stroke-width=".001" d="m3.929 1042.25c.009.026.065.035.107.049.029.01.042.029.022.043-.067.062-.164.119-.186.189-.012.034.012.068.059.094-.027.024-.065.048-.061.076.006.026.037.048.063.071-.023.012-.046.024-.07.035.048.36.078.72.101 1.08.018.302.041.603.058.904.023.016.083.021.075.046.006.028-.076.038-.073.065.039.255.039.51.054.765.011.248.025.495.054.742.019.14.039.28.089.418.021.051.04.103.096.148-.067.08-.154.16-.159.248-.004.082.105.154.114.236.005.039-.043.075-.048.114-.015.077.006.155.046.23.04.078.11.151.162.227.031.05.155.069.195.116.035.049.016.105-.042.149-.055.044-.141.079-.198.122.035.032.007.067.017.1.029.054.159.075.216.121.062.052.152.098.174.158-.074.05-.191.081-.286.121-.056.02-.045.056-.056.085-.005.062-.016.132.071.183.011.03-.086.037-.069.067.123.6.214 1.201.336 1.801.006.054.103.09.153.135.04.029.042.071-.008.098-.039.021-.086.039-.122.061.054.059.202.08.271.133.054.041.056.09.053.136-.005.067-.021.135.011.201.002.012.024.02.044.026.088.029.201.037.288.068.09.03.095.104-.002.132-.072.025-.159.039-.232.064-.08.027-.164.052-.228.087-.066.037-.068.092-.153.122-.069.021-.155.017-.233.021-.135 0-.269.019-.404.012-.224-.01-.441-.041-.665-.054-.062-.01-.123 0-.184.01-.197.014-.389.04-.588.048-.135.01-.268-.011-.403-.013-.084 0-.188 0-.249-.033-.063-.036-.071-.087-.145-.12-.11-.049-.239-.089-.375-.122-.046-.013-.096-.026-.12-.048-.029-.035-.014-.081.055-.103.1-.034.232-.041.323-.081.042-.072.023-.147.017-.22-.003-.048.004-.1.068-.139.071-.046.202-.067.252-.12-.032-.04-.148-.058-.155-.105-.012-.076.175-.119.182-.193.122-.6.212-1.201.336-1.801.019-.03-.075-.036-.07-.064.091-.06.08-.138.067-.207-.009-.021-.005-.046-.042-.06-.097-.042-.218-.073-.296-.124.021-.061.113-.108.176-.16.055-.042.167-.062.208-.109.025-.036-.017-.076.023-.11-.065-.049-.166-.087-.219-.14-.041-.038-.05-.084-.025-.125.035-.051.169-.07.2-.122.05-.074.118-.145.158-.221.042-.079.067-.161.048-.242-.008-.037-.052-.07-.047-.107.008-.077.106-.145.113-.222.006-.093-.088-.178-.158-.262.069-.058.086-.124.11-.188.058-.189.076-.38.095-.571.023-.264.033-.529.046-.793.009-.174.014-.348.043-.522.002-.027-.08-.037-.073-.064-.011-.025.053-.029.075-.046.014-.275.038-.551.052-.826.025-.387.055-.775.106-1.162-.019 0-.037-.001-.056-.001-.006 0-.018-.012-.023-.016.009-.029.049-.055.038-.085-.01-.024-.039-.044-.063-.065.034-.017.08-.037.066-.063-.015-.09-.144-.162-.224-.24-.005-.04.08-.064.154-.074"/><g fill="#fdee21" stroke="#fdee21" stroke-width=".094" transform="matrix(.01942 0 0 .01716-6.618 1034.38)"><path d="m411.84 271.94c37.19-14.82 74.37-29.66 111.54-44.54.08 53.27-.1 106.55-.1 159.83-23.4 8.55-46.78 17.19-70.31 25.35-12.49-42.89-25.24-85.71-37.82-128.57-1.14-4.01-2.53-7.96-3.31-12.07z"/><path d="m536.31 228.72c30.81 16.87 61.58 33.81 92.41 50.64-9.7 44.98-19.75 89.89-29.55 134.84-21.01-8.85-41.92-17.93-62.89-26.88 0-52.87-.05-105.74.03-158.6z"/></g><path fill="#333" stroke="#000" stroke-width=".002" d="m2.847 1036.45c.233-.101.505-.112.757-.074.136.025.28.07.365.173.074.09.058.223-.03.301-.066.063-.156.138-.124.233.031.14.194.195.306.276.08.054.106.147.095.233.188.164.484.177.658.355.187.194.232.464.427.652.161.149.394.207.615.245.011.024.02.05.037.072.092.106.281.093.364.207-.067.083-.181.12-.287.148-.101.025-.207.036-.312.031-.18.344-.234.723-.323 1.09-.104.421-.213.841-.299 1.265-.038.036-.078.071-.114.108-.014.047.022.093.022.14-.023.044-.09.031-.131.017-.007-.055.027-.112-.002-.165-.108-.001-.225.02-.299.095-.15.148-.151.365-.286.522-.105.446-1.284-.192-1.677-.524-.087-.085-.219-.12-.345-.115-.009.044.016.086.011.13-.027.03-.08.019-.112 0-.03-.037.003-.084.002-.125-.029-.042-.07-.076-.095-.12-.108-.168-.132-.364-.191-.547-.105-.334-.233-.663-.323-1-.097-.341-.186-.691-.383-1-.186.114-.426.041-.602-.053.006-.031.007-.066.035-.089.083-.07.217-.046.303-.112.042-.032.038-.086.035-.13.071-.033.096.042.128.081.091 0 .154-.066.23-.1.047-.026.103-.03.157-.031.204-.261.334-.559.532-.823.174-.053.338-.131.515-.179.012-.088.041-.176.097-.251.076-.105.19-.181.304-.252.014-.064.009-.137-.045-.186-.075-.071-.195-.12-.21-.227-.026-.121.081-.225.196-.273m-1.464 2.587c.015.071.042.138.064.207.244.736.492 1.47.735 2.206.457-.14.911-.288 1.366-.435 0-.914.003-1.829.002-2.743-.722.255-1.444.51-2.166.764m2.418-.742c-.002.907-.001 1.814-.001 2.722.407.154.813.309 1.221.461.19-.771.386-1.542.574-2.314-.599-.289-1.196-.58-1.795-.869m-.097 3.792c-.001.066 0 .132 0 .198.083.01.151.05.219.089.059.031.145.061.203.012.174-.119.187-.328.258-.497-.229.059-.463.109-.68.199m-.882-.174c.02.096.048.193.104.278.063.102.169.177.288.223.089-.034.208-.073.225-.169-.005-.069-.075-.115-.134-.152-.148-.084-.316-.137-.484-.181z"/></g></svg>