<svg xmlns="http://www.w3.org/2000/svg" viewBox="0 0 16 16"><path fill="none" stroke="#0092da" stroke-linejoin="round" stroke-width="2" d="m8 1l-7 7h2v7h10v-7h2z"/><g fill="#0092da"><path d="m8.705 6.189c.456 0 .825-.371.825-.828 0-.456-.369-.825-.825-.825-.456 0-.827.369-.827.825 0 .457.371.828.827.828"/><path d="m7.309 6.326c.032-.127-.048-.254-.173-.286l-.688-.166c-.129-.03-.256.046-.285.173l-.579 2.395c-.032.127.046.254.173.286l.691.166c.125.032.254-.046.284-.173z"/><path d="m5.873 14.351c-.008.039-.01.078-.01.117 0 .322.259.581.581.581.264 0 .486-.176.557-.415l.998-4.134.952 4.109c.061.254.291.439.561.439.323 0 .581-.259.581-.581 0-.044-.005-.086-.012-.127l-1.305-5.459.109-.481.086.378c.078.247.302.271.302.271l1.345.342c.027.005.054.007.081.007.22 0 .398-.176.398-.395 0-.188-.129-.347-.305-.388l-1.165-.293-.319-1.299c-.152-.725-.845-.708-.845-.708-.673-.017-.842.691-.842.691z"/></g></svg>