<svg xmlns="http://www.w3.org/2000/svg" viewBox="0 0 16 16"><g transform="translate(-8-8)"><rect width="16" x="8" y="8" fill="#fff" rx="2" height="16"/><g fill="#cd9369" stroke="#c67036" stroke-linejoin="round" transform="matrix(1.39602 0 0 1.46714 9 4.488)"><path stroke-linecap="round" stroke-width="1.036" d="m2.479 11.579v-8.08h5.075v8.08"/><path opacity=".2" stroke-width="1.108" d="m2.834 4.055h4.293v7.421h-4.293z"/></g><path color-interpolation-filters="linearRGB" color="#000" image-rendering="auto" color-rendering="auto" fill-rule="evenodd" d="m17 15h2v1h-2z" color-interpolation="sRGB" text-rendering="auto" fill="#ae6230" shape-rendering="auto"/><path fill="#0083c3" d="m9.599 15c-.374 0-.599.224-.599.748v7.252h1.273v-1.794c0 0 10.332.075 11.455 0v1.794h1.273v-6.28c0-.299-.15-.748-.674-.748-.449 0-.599.449-.599.748v3.29h-11.455v-4.262c0-.523-.299-.748-.674-.748m2.92.972c-.824 0-1.497.673-1.497 1.495 0 .822.674 1.495 1.497 1.495.824 0 1.497-.673 1.497-1.495 0-.822-.674-1.495-1.497-1.495m1.947 1.047v1.944h6.513c0-.972-1.048-1.944-2.02-1.944z"/></g></svg>