<svg xmlns="http://www.w3.org/2000/svg" viewBox="0 0 82.54 81.64"><path fill="#fff" d="m0 0h82.54v81.64h-82.54z"/><g fill-rule="evenodd" stroke="#000" transform="matrix(.68092 0 0 .65816-80.58-28.356)"><g transform="matrix(.26835 0 0 .27557 94.85 31.971)"><path stroke-width="1.25" d="m147.6 86.26l-15.334 13.418 21.09 23 15.335-11.501 13.418 11.501 21.09-19.17 21.09 19.17h36.421c11.501 11.501 26.835 32.587 51.756 32.587 24.919 0 54.971-13.533 55.59-51.755 2.412-36.38-26.837-53.672-53.673-53.672-26.836 1.917-44.09 19.17-53.672 36.421zm210.86 16.293c0 12.168-6.441 22.04-14.377 22.04-7.935 0-14.376-9.876-14.376-22.04 0-12.168 6.441-22.04 14.376-22.04 7.936 0 14.377 9.876 14.377 22.04z"/><path stroke-width=".969" d="m357.77 94.8c-4.75 5.111-4.749 7.435 3.166 12.547l36.41-4.183c3.694-2.323 4.222-7.435-3.166-11.152z"/><path stroke-width="1.227" d="m389.25 76.83l8.868 29.368 16.667-6.662-8.834-27.26zm-9.995-10.353l14.623 58.798 89.46-24.987-14.383-58.802z"/></g><path stroke-width=".717" d="m179.11 80.51l-60.27 36.805 6.03 9.2 7.232-3.451v43.706h94.02v-43.706l6.845 3.336 6.03-9.201zm-26.517 41.4l-.262 13.861h54.24l.262-13.861z"/></g></svg>