<svg height="16" viewBox="0 0 16 16" width="16" xmlns="http://www.w3.org/2000/svg"><g transform="translate(0 -1037.3622)"><g stroke="#000"><path d="m12.950121 1044.5987h1.099758v8.3134h-1.099758z" stroke-width=".900241"/><path d="m1.9506728 1044.5695h1.0986544v8.342h-1.0986544z" stroke-width=".901346"/><path d="m.65608686 1045.0952c2.86231384-1.608 4.85576634-3.1193 7.34391344-6.7697 1.8047296 2.9678 4.7539467 5.1619 7.3439127 6.7697l-.47895.7768-2.47458-1.6645c-3.2916596-.034-5.6880806 0-8.7807657 0l-2.4745795 1.6645z" fill-rule="evenodd" stroke-width="1.035336"/></g><path d="m.65608686 1045.0952c2.93149114-1.6752 5.93722924-3.835 7.34391344-6.7697 1.2124028 2.3936 3.9145767 4.882 7.3439127 6.7697l-.47895.7768-2.47458-1.6645c-3.8177457-.1512-6.1379732.1354-8.7807657 0l-2.4745795 1.6645z" fill="#bf8a4d" fill-rule="evenodd"/><path d="m1.9506728 1044.5695h1.0986544v8.342h-1.0986544z" fill="#bf8a4d"/><path d="m12.950121 1044.5987h1.099758v8.3134h-1.099758z" fill="#bf8a4d"/></g></svg>