<svg xmlns="http://www.w3.org/2000/svg" viewBox="0 0 16 16"><rect width="16" fill="#fff" rx="2" height="16"/><path fill="#0092da" d="m.625 0c-.375 0-.625.25-.625.75v13.25h1.25v-2h11.5v2h1.25c.023 0 0-13.25 0-13.25 0-.5-.25-.75-.625-.75-.375 0-.625.25-.625.75v4.25h-11.5v-4.25c0-.5-.25-.75-.625-.75m2.875 1c-.828 0-1.5.672-1.5 1.5 0 .828.672 1.5 1.5 1.5.828 0 1.5-.672 1.5-1.5 0-.828-.672-1.5-1.5-1.5m2 1v2h6.5c0-1-1.036-2-2-2zm-4.25 4h11.5v5h-11.5c.024 0 0-5 0-5m2.25 1c-.828 0-1.5.672-1.5 1.5 0 .828.672 1.5 1.5 1.5.828 0 1.5-.672 1.5-1.5 0-.828-.672-1.5-1.5-1.5m2 1v2l6.5.013c0-1.013-1.036-2.01-2-2.01z" transform="translate(1 1)"/></svg>