<svg xmlns="http://www.w3.org/2000/svg" viewBox="0 0 16 16"><rect width="16" fill="#fff" rx="2" height="16"/><path fill="#0092da" d="m.625 0c-.375 0-.625.25-.625.75v5.75h1.25v-1.5c0 0 10.381.019 11.5 0v1.5h1.25v-4.75c0-.33-.138-.75-.625-.75-.487 0-.661.422-.625.75v2h-11.5v-3c0-.5-.25-.75-.625-.75m2.875 0c-.828 0-1.5.672-1.5 1.5 0 .828.672 1.5 1.5 1.5.828 0 1.5-.672 1.5-1.5 0-.828-.672-1.5-1.5-1.5m2 1v2h6.5c0-1-1.036-2-2-2zm-1.5 5l-1 3c-.473 0-1 .384-1 1v3h1c0 0 0 1 1 1 1 0 1-1 1-1h4c0 0 0 1 1 1 1 0 1-1 1-1h1v-3c0-.521-.455-1-1-1l-1-3zm1 1h4l.625 2h-5.25zm-1 3.25c.414 0 .75.336.75.75 0 .414-.336.75-.75.75-.414 0-.75-.336-.75-.75 0-.414.336-.75.75-.75m6 0c.414 0 .75.336.75.75 0 .414-.336.75-.75.75-.414 0-.75-.336-.75-.75 0-.414.336-.75.75-.75" transform="translate(1 1)"/></svg>