<svg xmlns="http://www.w3.org/2000/svg" viewBox="0 0 16 15.5"><g transform="translate(-595-751.86)"><path fill="#502d16" d="m608 760.36h2v7h-2z"/><path fill="#956531" d="m608 767.36v-7l-11-2v9z"/><path fill="#502d16" d="m595 759.36l16 3v-3l-16-3z"/><g stroke="#0078ff" stroke-linecap="round"><g fill="#00f"><path d="m597 756.36c4-4 4-4 4-4"/><path d="m600 756.36l1-1"/><path d="m602 754.36l2-2"/><path d="m603 757.36l3-3"/><path d="m596 754.36l2-2"/><path d="m606 758.36l1-1"/><path d="m608 756.36l2-2"/><path d="m609 758.36l1-1"/></g><path fill="#0078ff" d="m607 753.36l1-1"/></g></g></svg>