<svg xmlns="http://www.w3.org/2000/svg" viewBox="0 0 16 16" xmlns:xlink="http://www.w3.org/1999/xlink"><defs><path fill-rule="evenodd" id="a" d="m-1.284 7.206l7.224-4.048 7.224 4.048-.484.517-2.415-1.023-4.328-.547-4.338.539-2.402 1.02z"/><path id="b" d="m1.606 6.194h.963v7.084h-.963z"/><path id="c" d="m9.312 6.194h.963v7.084h-.963z"/></defs><g transform="translate(1.92 2.193)"><g fill="none" stroke="#3881c2" stroke-linecap="round" stroke-width=".592"><path d="m.643-1.396l-1.926 2.024"/><path d="m1.317.932l-2.373 2.494"/><path d="m4.268.361l-2.373 2.494"/><path d="m.354 3.968l-1.863 1.957"/><path d="m6.676-.145l-2.373 2.494"/><path d="m10.05-1.663l-2.373 2.494"/><path d="m11.01 1.373l-2.373 2.494"/><path d="m13.703 1.142l-1.756 1.778"/><path d="m13.703-1.894l-1.756 1.778"/><path d="m13.767 3.582l-1.82 1.867"/><path d="m10.84 4.15l-.82.794"/><path d="m8.374 2.164l-1.181 1.197"/><path d="m3.709-1.626l-1.394 1.51"/></g><g stroke="#000" stroke-width=".79"><use xlink:href="#a"/><use xlink:href="#b"/><use xlink:href="#c"/></g><g fill="#dec600"><use xlink:href="#a"/><use xlink:href="#b"/><use xlink:href="#c"/></g><g fill-rule="evenodd"><path fill="#fffd00" stroke="#000" stroke-width=".421" d="m5.966 13.264c4.898 0 0-5.538 0-5.538 0 0-5.01 5.697 0 5.538z"/><path fill="#f00" d="m5.957 12.769c3.213 0 0-2.526 0-2.526 0 0-3.288 2.599 0 2.526"/><path d="m7.896 13.807c-.527-1.797-3.366-1.795-3.89 0h3.89"/></g></g></svg>