<svg xmlns="http://www.w3.org/2000/svg" viewBox="0 0 10 16"><path fill="none" stroke="#734a08" stroke-linejoin="round" stroke-linecap="square" stroke-width="2" d="m1 15v-14h8"/><g fill="#734a08" transform="matrix(.51952 0 0 .51952-2.276-.644)"><path d="m15.996 11.1c.552 0 1.029-.201 1.431-.603.402-.402.603-.879.603-1.431 0-.577-.201-1.06-.603-1.449-.402-.389-.879-.584-1.431-.584-.552 0-1.029.195-1.431.584-.401.389-.602.872-.602 1.449 0 .552.201 1.029.602 1.431.401.402.878.603 1.431.603"/><path d="m18.669 11.516h-5.384c-.728 0-1.349.257-1.864.772-.515.515-.772 1.149-.772 1.902v6.25c0 .603.276.904.828.904.527 0 .79-.301.791-.904v-6.099h.979v16.567c0 .753.376 1.129 1.129 1.129.753 0 1.129-.376 1.129-1.129v-9.601h.979v9.601c0 .753.376 1.129 1.129 1.129.778 0 1.167-.376 1.167-1.129v-16.567h.941v6.099c0 .627.263.941.791.941.528 0 .792-.314.792-.941v-6.213c0-.728-.245-1.361-.734-1.901-.49-.54-1.123-.809-1.902-.809"/></g></svg>