<svg xmlns="http://www.w3.org/2000/svg" viewBox="0 0 308.12 308.12" xmlns:xlink="http://www.w3.org/1999/xlink"><defs><path opacity=".99" fill="#520" id="a" color="#000" d="m102.25 292.46c0 7.941-6.437 14.378-14.378 14.378-7.941 0-14.378-6.437-14.378-14.378 0-7.941 6.437-14.378 14.378-14.378 7.941 0 14.378 6.437 14.378 14.378"/></defs><path fill="#fff" d="m2.043 1.059h308.12v235.54h-308.12z"/><g stroke="#000" transform="translate(-87.09-129.48)"><g color="#000"><path d="m240.19 155.16c-72.852 0-121.78 63.874-121.78 101.16l.094.344v90.91l240.84-1.813v-89.09l.406-.219c0-36.902-47.937-99.85-119.56-101.12z"/><path fill="none" stroke-width="3" d="m381.92 346.95l-288.07.594 1.782-105.72 23.16-45.735 39.2-39.795 52.862-22.57h53.46l54.05 22.57 43.06 40.686 20.789 46.03z"/></g><g fill="none" stroke-linecap="round" stroke-width="3"><path d="m97.44 244.21l20.438 11.8"/><path d="m119.28 196.39l17.22 13.56"/><path d="m158.76 156.29l11.76 19.633"/><path d="m212.1 133.93l1.68 22.366"/><path d="m96.18 301.5h20.16"/><path d="m380.09 244.84l-20.438 11.8"/><path d="m358.25 197.02l-17.22 13.56"/><path d="m318.77 156.92l-11.76 19.633"/><path d="m265.43 134.56l-1.68 22.366"/><path d="m381.35 302.13h-20.16"/></g></g><g transform="matrix(1.88312 0 0 1.96894 22.773-300.97)"><path fill="#a40" d="m8.947 230.16l17.808 57.51h60.922l19.682-57.51z"/><use xlink:href="#a" transform="translate(-14.698-5.112)"/><use xlink:href="#a" transform="translate(-47.29-5.112)"/></g></svg>