<svg height="16" viewBox="0 0 16 16" width="16" xmlns="http://www.w3.org/2000/svg"><g transform="matrix(.13333333 0 0 -.13333333 -139.9556 607.86813)"><path d="m1128.7446 4521.5976c0-.3076-.2493-.5564-.5564-.5564-.3076 0-.5569.2488-.5569.5564s.2493.5564.5569.5564c.3071 0 .5564-.2488.5564-.5564" fill="#332f2f"/><path d="m1132.224 4509.0685h-.065c-.3071 0-.5586.2514-.5586.5586v11.588c0 .3076.2515.5591.5586.5591h.065c.3072 0 .5587-.2515.5587-.5591v-11.588c0-.3072-.2515-.5586-.5587-.5586" fill="#666"/><path d="m1128.2812 4522.6847h-.1188c-.5656 0-1.0241.4586-1.0241 1.0242v13.5131c0 .5656.4585 1.0246 1.0241 1.0246h.1188c.5655 0 1.0241-.459 1.0241-1.0246v-13.5131c0-.5656-.4586-1.0242-1.0241-1.0242" fill="#666"/><path d="m1137.3664 4522.6847h-.1188c-.5656 0-1.0237.4586-1.0237 1.0242v13.5131c0 .5656.4581 1.0246 1.0237 1.0246h.1188c.5655 0 1.0241-.459 1.0241-1.0246v-13.5131c0-.5656-.4586-1.0242-1.0241-1.0242" fill="#666"/><path d="m1056.7849 4546.1249c-.2447.4242-.099.9663.3246 1.2112l21.9134 11.5289c.424.2445.9661.099 1.2109-.325.2448-.4237.1-.9658-.3245-1.2107l-21.9134-11.5289c-.424-.245-.9661-.1-1.211.3245" fill="#d47d1a"/><path d="m1137.5265 4546.0679c-.1271-.4729-.613-.7535-1.0859-.6269l-57.0887 11.85c-.4728.1266-.7537.613-.6269 1.0859.1266.4729.613.7535 1.0858.6269l57.0888-11.8504c.4729-.1266.7535-.6126.6269-1.0855" fill="#d47d1a"/><path d="m1079.979 4558.8211c-.4123.264-.9605.144-1.2248-.268l-6.4649-10.088h1.809v-.4634l6.1485 9.5947c.2643.412.1443.9602-.2678 1.2247" fill="#d47d1a"/><path d="m1078.9026 4558.8211c.4121.264.9607.144 1.2247-.268l6.4648-10.088h-1.8088v-.4634l-6.1487 9.5947c-.2643.412-.1443.9602.268 1.2247" fill="#d47d1a"/><path d="m1084.3564 4550.6882h-9.9311c-1.3147 0-2.3808-1.0659-2.3808-2.381v-9.9306c0-1.3151 1.0661-2.3806 2.3808-2.3806h9.9311c1.3146 0 2.3805 1.0655 2.3805 2.3806v9.9306c0 1.3151-1.0659 2.381-2.3805 2.381" fill="#18181e"/><path d="m1132.1657 4499.8828c-1.252 0-1.6697.8348-1.9938 1.9481-.2045.7013-.6304.9419-.9171 1.0255l.01.063c1.1355 0 1.3721-.9488 1.3721-.9488.6957-1.6698 1.9021-1.0677 1.9021-1.0677.3241.1393.65.7892.046 1.531-.6025.7431-.6025 1.3913-.6025 1.3913v1.0215h.5564c.093-1.5779 0-.7431 1.0672-2.2266 1.0658-1.4844-.1867-2.7369-1.4388-2.7369" fill="#666"/><path d="m1132.9723 4505.3096c0-.4098-.3323-.7422-.7422-.7422-.4098 0-.7422.3324-.7422.7422s.3324.7418.7422.7418c.4099 0 .7422-.332.7422-.7418" fill="#666"/><path d="m1132.3576 4505.3444h-.2554c-1.2164 0-2.2026.9863-2.2026 2.2027v4.3605c0 1.2169.9862 2.2027 2.2026 2.2027h.2554c1.2168 0 2.2031-.9858 2.2031-2.2027v-4.3605c0-1.2164-.9863-2.2027-2.2031-2.2027" fill="#f2ac23"/><path d="m1131.7372 4507.2573c0-.3071-.2493-.5564-.5564-.5564-.3076 0-.5564.2493-.5564.5564 0 .3076.2488.5569.5564.5569.3071 0 .5564-.2493.5564-.5569" fill="#332f2f"/><path d="m1133.7894 4507.2573c0-.3071-.2489-.5564-.5565-.5564-.3071 0-.5564.2493-.5564.5564 0 .3076.2493.5569.5564.5569.3076 0 .5565-.2493.5565-.5569" fill="#332f2f"/><path d="m1132.7461 4512.6842c0-.3076-.2493-.5564-.5564-.5564-.3076 0-.5569.2488-.5569.5564s.2493.5564.5569.5564c.3071 0 .5564-.2488.5564-.5564" fill="#332f2f"/><g fill="#f7980f"><path d="m1084.4143 4533.8051v-1.9203h-10.0471v1.9203z"/><path d="m1076.0661 4534.8149v-63.6813h-1.9206v63.6813z"/><path d="m1084.6359 4534.8149v-63.6813h-1.9206v63.6813z"/><path d="m1074.3673 4523.9055h10.047v1.9212h-10.047z"/><path d="m1075.1594 4531.7286 7.1045-7.1044 1.3583 1.3582-7.1044 7.104z"/><path d="m1082.2639 4533.0864-7.1045-7.104 1.3584-1.3582 7.1044 7.1044z"/><path d="m1074.3673 4523.9055h10.047v1.9212h-10.047z"/><path d="m1074.3673 4515.9271h10.047v1.9207h-10.047z"/><path d="m1075.1594 4523.7497 7.1045-7.1044 1.3583 1.3587-7.1044 7.104z"/><path d="m1082.2639 4525.108-7.1045-7.104 1.3584-1.3587 7.1044 7.1044z"/><path d="m1074.3673 4515.9271h10.047v1.9207h-10.047z"/><path d="m1074.3673 4507.9486h10.047v1.9208h-10.047z"/><path d="m1075.1594 4515.7713 7.1045-7.1044 1.3583 1.3583-7.1044 7.1044z"/><path d="m1082.2639 4517.1296-7.1045-7.1044 1.3584-1.3583 7.1044 7.1044z"/><path d="m1074.3673 4507.9486h10.047v1.9208h-10.047z"/><path d="m1074.3673 4499.9698h10.047v1.9207h-10.047z"/><path d="m1075.1594 4507.7929 7.1045-7.1044 1.3583 1.3578-7.1044 7.1044z"/><path d="m1082.2639 4509.1507-7.1045-7.1044 1.3584-1.3578 7.1044 7.1044z"/><path d="m1074.3673 4499.9698h10.047v1.9207h-10.047z"/><path d="m1074.3673 4491.9914h10.047v1.9207h-10.047z"/><path d="m1075.1594 4499.814 7.1045-7.1044 1.3583 1.3583-7.1044 7.1044z"/><path d="m1082.2639 4501.1723-7.1045-7.1044 1.3584-1.3583 7.1044 7.1044z"/><path d="m1074.3673 4491.9914h10.047v1.9207h-10.047z"/><path d="m1074.3673 4484.0129h10.047v1.9208h-10.047z"/><path d="m1075.1594 4491.8356 7.1045-7.1044 1.3583 1.3582-7.1044 7.1044z"/><path d="m1082.2639 4493.1938-7.1045-7.1044 1.3584-1.3582 7.1044 7.1044z"/><path d="m1074.3673 4484.0129h10.047v1.9208h-10.047z"/><path d="m1074.3673 4476.0341h10.047v1.9207h-10.047z"/><path d="m1075.1594 4483.8567 7.1045-7.1039 1.3583 1.3578-7.1044 7.1044z"/><path d="m1082.2639 4485.215-7.1045-7.1044 1.3584-1.3578 7.1044 7.1039z"/><path d="m1076.0661 4439.0342v39.8625h-1.9206v-39.8625z"/><path d="m1084.6359 4439.0342v39.8625h-1.9206v-39.8625z"/><path d="m1084.4143 4477.8874v-1.9203h-10.0471v1.9203z"/><path d="m1074.3673 4467.9882h10.047v1.9208h-10.047z"/><path d="m1075.1594 4475.8109 7.1045-7.1044 1.3583 1.3582-7.1044 7.1044z"/><path d="m1082.2639 4477.1691-7.1045-7.1044 1.3584-1.3582 7.1044 7.1044z"/><path d="m1074.3673 4467.9882h10.047v1.9208h-10.047z"/><path d="m1074.3673 4460.0093h10.047v1.9208h-10.047z"/><path d="m1075.1594 4467.832 7.1045-7.1039 1.3583 1.3578-7.1044 7.1044z"/><path d="m1082.2639 4469.1903-7.1045-7.1044 1.3584-1.3578 7.1044 7.1039z"/><path d="m1074.3673 4460.0093h10.047v1.9208h-10.047z"/><path d="m1074.3673 4452.0309h10.047v1.9208h-10.047z"/><path d="m1075.1594 4459.8536 7.1045-7.1044 1.3583 1.3582-7.1044 7.1044z"/><path d="m1082.2639 4461.2118-7.1045-7.1044 1.3584-1.3582 7.1044 7.1044z"/><path d="m1074.3673 4452.0309h10.047v1.9208h-10.047z"/><path d="m1074.3673 4444.0525h10.047v1.9208h-10.047z"/><path d="m1075.1594 4451.8752 7.1045-7.1044 1.3583 1.3582-7.1044 7.1044z"/><path d="m1082.2639 4453.2334-7.1045-7.1044 1.3584-1.3582 7.1044 7.1044z"/><path d="m1074.3673 4444.0525h10.047v1.9208h-10.047z"/><path d="m1082.738 4439.0342-6.2202 6.2203-1.3584-1.3582 4.8623-4.8621z"/><path d="m1078.7598 4439.0342 4.8624 4.8621-1.3583 1.3582-6.2203-6.2203z"/><path d="m1080.0937 4546.8563h-.9493v-10.0471h.9493z"/><path d="m1080.0937 4544.959-1.1053 1.105-7.1041-7.1044 1.358-1.3578 6.8514 6.8512z"/><g transform="matrix(.04350524 0 0 .04350524 1052.0252 4303.3026)"><path d="m484.113 5367.32v230.94h-44.152v-230.94z"/><path d="m300.719 5367.32v230.94h-44.153v-230.94z"/><path d="m1441.84 5367.32v230.94h-44.15v-230.94z"/><path d="m1625.23 5367.32v230.94h-44.15v-230.94z"/><path d="m1808.62 5367.32v230.94h-44.15v-230.94z"/><path d="m120.902 5385.54 163.301 163.3-31.219 31.21-163.3004-163.3z"/><path d="m300.719 5367.32v230.94h-44.153v-230.94z"/><path d="m484.113 5367.32v230.94h-44.152v-230.94z"/><path d="m891.652 5367.32v230.94h-44.152v-230.94z"/><path d="m711.84 5385.54 163.301 163.3-31.219 31.21-163.301-163.3z"/><path d="m1262.02 5385.54 163.3 163.3-31.22 31.21-163.3-163.3z"/><path d="m1441.84 5367.32v230.94h-44.15v-230.94z"/><path d="m1445.42 5385.54 163.3 163.3-31.22 31.21-163.31-163.3z"/><path d="m1625.23 5367.32v230.94h-44.15v-230.94z"/><path d="m1628.81 5385.54 163.3 163.3-31.22 31.21-163.3-163.3z"/><path d="m1808.62 5367.32v230.94h-44.15v-230.94z"/><path d="m1992.02 5367.32v230.94h-44.15v-230.94z"/><path d="m1812.2 5385.54 163.3 163.3-31.22 31.21-163.29-163.3z"/><path d="m645.176 5406.38h-572.0002v-44.15h572.0002z"/><path d="m645.176 5603.36h-572.0002v-44.15h572.0002z"/><path d="m73.1758 5598.26h44.1442v-230.94h-44.1442z"/><path d="m89.6836 5548.84 163.3004-163.3 31.219 31.21-163.301 163.3z"/><path d="m304.297 5385.54 163.301 163.3-31.219 31.21-163.297-163.3z"/><path d="m273.082 5548.84 163.297-163.3 31.219 31.21-163.301 163.3z"/><path d="m664.105 5406.38h1466.565v-44.15h-1466.565z"/><path d="m664.105 5603.36h1327.725l.19-44.15h-1327.915z"/><path d="m680.621 5548.84 163.301-163.3 31.219 31.21-163.301 163.3z"/><path d="m891.652 5367.32v230.94h-44.152v-230.94z"/><path d="m1075.04 5367.32v230.94h-44.15v-230.94z"/><path d="m895.234 5385.54 163.306 163.3-31.23 31.21-163.294-163.3z"/><path d="m864.016 5548.84 163.294-163.3 31.23 31.21-163.306 163.3z"/><path d="m1075.04 5367.32v230.94h-44.15v-230.94z"/><path d="m1258.44 5367.32v230.94h-44.15v-230.94z"/><path d="m1078.63 5385.54 163.3 163.3-31.22 31.21-163.3-163.3z"/><path d="m1047.41 5548.84 163.3-163.3 31.22 31.21-163.3 163.3z"/><path d="m1258.44 5367.32v230.94h-44.15v-230.94z"/><path d="m1230.8 5548.84 163.3-163.3 31.22 31.21-163.3 163.3z"/><path d="m1414.19 5548.84 163.31-163.3 31.22 31.21-163.3 163.3z"/><path d="m1597.59 5548.84 163.3-163.3 31.22 31.21-163.3 163.3z"/><path d="m1780.99 5548.84 163.29-163.3 31.22 31.21-163.3 163.3z"/><path d="m1991.83 5603.36 138.84-196.98v-44.15l-56.02 44.4-108.66 149.4z"/></g><path d="m1080.0937 4539.2128-6.8514 6.8512-1.358-1.3578 7.1041-7.1044 1.1053 1.1046z"/><path d="m1080.0937 4546.8563h-.9493v-10.0471h.9493z"/><path d="m1080.0937 4539.1906-.231-.231.231-.2306z"/><path d="m1080.0937 4544.9368-.231-.2306.231-.231z"/><path d="m1080.9172 4546.8563h1.9207v-10.0471h-1.9207z"/></g><path d="m1084.6359 4534.8149v-2.0369h-10.4904v2.0369h1.9206v-1.0098h6.6492v1.0098z" fill="#d47d1a"/><path d="m1079.8284 4533.5906h-.8752c-4.1649 0-7.541 3.3765-7.541 7.5408v.8753c0 4.1648 3.3761 7.5412 7.541 7.5412h.8752c4.1646 0 7.541-3.3764 7.541-7.5412v-.8753c0-4.1643-3.3764-7.5408-7.541-7.5408" fill="#f7980f"/><path d="m1082.1228 4536.706h-.3647c-1.7353 0-3.142 1.4066-3.142 3.1416v4.7481c0 1.735 1.4067 3.142 3.142 3.142h.3647c1.7353 0 3.1421-1.407 3.1421-3.142v-4.7481c0-1.735-1.4068-3.1416-3.1421-3.1416" fill="#18181e"/><path d="m1082.072 4537.8633h-.263c-1.2534 0-2.2695 1.0163-2.2695 2.2692v4.1783c0 1.2533 1.0161 2.2696 2.2695 2.2696h.263c1.2533 0 2.2694-1.0163 2.2694-2.2696v-4.1783c0-1.2529-1.0161-2.2692-2.2694-2.2692" fill="#8c8a95"/><path d="m1140.5801 4522.6604v-3.0041l-3.2011-3.2011h-9.5538l-3.2006 3.2011v3.0041c0 .4355.3523.7879.7878.7879h14.3794c.4355 0 .7883-.3524.7883-.7879" fill="#f7980f"/></g><g stroke-linecap="round" stroke-linejoin="round" stroke-width=".2"><path d="m7 9h8v7h-8z" fill="#999"/><path d="m8 14h1v2h-1z" fill="#333"/><path d="m10 14h1v1h-1z" fill="#333"/><path d="m12 14h2v1h-2z" fill="#333"/><path d="m8 11h1v1h-1z" fill="#333"/><path d="m10 11h2v1h-2z" fill="#333"/><path d="m13 11h1v1h-1z" fill="#333"/><path d="m7 8h1v1h-1z" fill="#999"/><path d="m9 8h1v1h-1z" fill="#999"/><path d="m12 8h1v1h-1z" fill="#999"/><path d="m14 8h1v1h-1z" fill="#999"/></g></svg>