<svg xmlns="http://www.w3.org/2000/svg" viewBox="0 0 13 16"><g transform="translate(-2-1036.36)"><path d="m3 1040.36h4v6h-4z"/><path d="m2 1046.36h6v6h-6z"/><rect x="5" y="1038.36" rx=".453" width="5" fill="#4d4d4d" height="1"/><rect x="7" y="1037.36" rx=".5" width="5" fill="#666" height="1"/><rect x="9" y="1036.36" rx=".5" width="6" fill="#999" height="1"/><g fill="#8a1713"><path d="m5 1044.36h1v5h-1z"/><path d="m6 1047.36h1v2h-1z"/></g><g fill="#d4231d"><path d="m4 1044.36h1v5h-1z"/><path d="m3 1047.36h1v2h-1z"/></g><path fill="#aa1c17" d="m3 1049.36h2v2h-2z"/><path fill="#78110e" d="m5 1049.36h2v2h-2z"/><path fill="#e1312b" d="m4 1041.36h1v3h-1z"/><path fill="#a11915" d="m5 1041.36h1v3h-1z"/></g></svg>