<svg xmlns="http://www.w3.org/2000/svg" viewBox="0 0 16 14.13"><path fill="#fff" d="m0 0h16v14.13h-16z"/><path d="m2.92 1.698v1.404l1.415.011v.475l3.26.011h.691l-.011-.657-.611-.011.566-.272 4.415-.045v.317h.396v2.185c-.055.006-.114.007-.158.011-.111.058-.226.238-.226.238v.385l.306.589h.091v.306c0 0-.008.101.079.147.161.086.145.295.011.317-.059.01-.146-.089-.147-.226-.001-.048-.067.03-.068.045-.009.107.063.306.215.328.049.007.244-.082.238-.34-.003-.136-.226-.272-.226-.272v-.306h.091l.294-.589v-.385c0 0-.104-.179-.215-.238-.049-.02-.107-.024-.17-.023v-2.173h.362v-.328l.804-.011v-.555l-6.09-.113-.657-.215zm1.472 2.026l-.102 2.275.102 2.275-.181 2.275-.204 2.151h-3.226v.475h14.546v-.475h-7.358l-.192-2.151-.181-2.275.102-2.275-.102-2.275zm.645.26h1.902l.102 1.755h-2.105zm-.102 2.275h2.105l-.102 1.755h-1.902zm.102 2.275h1.902l.181 1.755h-2.264zm-.181 2.275h2.264l.192 1.89h-2.637z"/></svg>