<svg xmlns="http://www.w3.org/2000/svg" viewBox="0 0 430 430"><path fill="#fff" d="m0 0h430v430h-430z"/><path d="m91 385.61c-14.717-5.05-16.348-6.478-19.492-17.11-2.948-9.976-2.947-11.368.012-11.979 1.694-.35 19.2-18.05 53.4-54.02 27.986-29.425 54.47-57.16 58.843-61.64 5.966-6.097 7.744-8.516 7.096-9.655-1.831-3.222-78.17-83.42-80.12-84.17-.756-.29-2.749.932-4.429 2.715-3.868 4.107-22.828 29.399-34.29 45.743-4.822 6.875-9.316 12.45-9.986 12.388-.67-.062-10.749-7.712-22.396-17l-21.18-16.888 2.84-2.5c1.562-1.375 7.292-9.03 12.732-17 15.838-23.22 33.24-45.865 41.919-54.55 11.735-11.745 77.62-60.45 81.77-60.45 1.068 0 7.02 6.884 15.504 17.932 9.41 12.254 14.67 18.264 16.611 18.979 1.562.576 2.687 1.474 2.5 1.996-.187.522-10.465 8.572-22.84 17.891-12.375 9.318-25.739 19.946-29.697 23.617-10.389 9.635-10.87 8.481 13.898 33.36 24.865 24.977 86.85 85.06 148.3 143.76 25.3 24.17 49.18 46.982 53.08 50.702 4.546 4.345 7.899 6.763 9.379 6.763 2.199 0 2.272.236 1.609 5.229-1.107 8.342-4.559 15.86-8.501 18.512-3.707 2.494-10.845 4.776-18.1 5.79l-4.541.634-59.38-63.61c-32.656-34.986-59.684-63.49-60.06-63.33-.378.153-25.1 27.953-54.949 61.778-29.844 33.825-55.898 63.16-57.897 65.18l-3.634 3.679zm135.06-165.41l-11.938-11.294 36.02-37.789c30.404-31.896 36.02-38.24 36.02-40.69 0-2.504-3.407-6.074-24.827-26.02-13.655-12.716-24.578-23.523-24.274-24.02.304-.492 1.47-.895 2.59-.895 1.27 0 8.754-6.402 19.874-17 9.81-9.35 18.318-17 18.907-17 .588 0 11.233 9.9 23.655 22 23.559 22.949 25.21 24.09 28.91 20 .995-1.1 2.528-1.994 3.405-1.987.877.007 4.74 2.687 8.583 5.954 4.46 3.792 8.06 6.05 9.949 6.237l2.96.296-3.334 3.786c-1.834 2.082-3.488 5.105-3.675 6.718-.301 2.586.617 3.761 7.783 9.964 4.469 3.868 8.621 7.04 9.227 7.04.999.009 45.611 86.04 45.02 86.82-.138.183-17.276-8.751-38.09-19.852l-37.835-20.18-11.515-11.398c-6.333-6.269-11.799-11.398-12.146-11.398-.347 0-16.925 18.45-36.839 41-19.914 22.55-36.27 41-36.35 40.999-.08 0-5.518-5.083-12.08-11.294"/></svg>