<svg xmlns="http://www.w3.org/2000/svg" viewBox="0 0 16 16"><g transform="translate(0-1036.36)"><path fill="#fff" d="m0 1036.36h16v16h-16z"/><g fill-rule="evenodd"><path fill="#a40" d="m3 1040.36c-1.038 0-1.978.672-3 2v10h16v-8c0 0-1.574-.721-2.618-.721-1.369 0-2.778 1.238-3.937 2.728-1.632-2.574-4.372-6.01-6.445-6.01"/><path color="#000" d="m9 1036.87v3.496h-1.504c-.448 0-.67.544-.35.858l2 2c.195.195.512.195.707 0l2-2c.375-.362.04-.862-.352-.859h-1.502v-3.494c0-.676-1-.668-1 0"/></g><path fill="none" stroke="#ccc" d="m9.5 1045.7c0 2-6.531 2.734-6.531 3.734 0 1 11.03 1.926 13.03 1.926"/></g></svg>