<svg enable-background="new 0 0 16 16" height="16" viewBox="0 0 16 16" width="16" xmlns="http://www.w3.org/2000/svg"><path d="m.9 5.8v8.4" fill="none" stroke="#708090" stroke-miterlimit="10" stroke-width="2"/><path d="m4.1-.7c-.9.1-2.5.6-3.3 1.7-1.6 2-1.4 5.5-.8 5.9.5.3 2.9-.6 4.3-2.2l8.3 4.1v5.2h.9v-4.1h2.5v-1.1h-1.2l-.5-1.2.5-.9-9.4-4.7c.1-1.1-.3-2.3-.6-2.6-.2-.1-.4-.1-.7-.1z" fill="#708090"/><path d="m11.4 14.8-3.6-9.3-.2-.2-2.2 9.5" fill="none" stroke="#708090" stroke-miterlimit="10" stroke-width="2.25"/><path d="m.9 5.8v8.4" fill="none" stroke="#7b6a58" stroke-miterlimit="10" stroke-width=".45"/><path d="m.15 13.4h1.5v.9h-1.5z" fill="#634e42"/><path d="m.6 6c-.5-.3-.5-2.9.7-4.4.8-1.1 2.5-1.6 2.9-1.3s.5 2.1.1 2.8c-.9 1.7-3.2 3.2-3.7 2.9z" fill="#3c3c3b"/><g fill="none" stroke-miterlimit="10"><path d="m11.4 14.8-3.6-9.3-.2-.2-2.2 9.5" stroke="#706f6f" stroke-width="1.25"/><path d="m13.2 7.3 1.4 3.4" stroke="#634e42" stroke-width=".75"/><path d="m4 3 9.4 4.5" stroke="#3c3c3b"/></g><path d="m0 14h16v2h-16z" fill="#7d4e24"/><path d="m13.5 9.9h2.5v4.1h-2.5z" fill="#575756"/></svg>