<svg enable-background="new 0 0 16 16" height="16" viewBox="0 0 16 16" width="16" xmlns="http://www.w3.org/2000/svg" xmlns:xlink="http://www.w3.org/1999/xlink"><linearGradient id="a"><stop offset="0" stop-color="#ef7b5a"/><stop offset=".5" stop-color="#c21b1c"/><stop offset="1" stop-color="#530b00"/></linearGradient><linearGradient id="b" gradientTransform="matrix(1 0 0 -1 0 16)" gradientUnits="userSpaceOnUse" x1="13.05" x2="13.05" xlink:href="#a" y1="14.1386" y2="13.1886"/><linearGradient id="c" gradientTransform="matrix(1 0 0 -1 0 16)" gradientUnits="userSpaceOnUse" x1="10.1" x2="10.1" xlink:href="#a" y1="12.6299" y2="11.9799"/><linearGradient id="d" gradientTransform="matrix(1 0 0 -1 0 16)" gradientUnits="userSpaceOnUse" x1="11.2" x2="11.2" y1="1.15" y2="15.35"><stop offset=".00000000356" stop-color="#533812"/><stop offset="1" stop-color="#1c0000"/></linearGradient><path clip-rule="evenodd" d="m0 14v-1h3v-1-2h-2.8v-.4c0-1.6.6-3.3 2.8-3.4 2 0 3 1.8 3 3.4v.4 3h2.3v-1.5c-1.3-.8-1.8-2.5-1.8-3.5 0-1.1.3-2 .8-3v-3c0-.5.4-1 1.1-1h.9c0-.6.5-1 1-1h4.5c.6 0 1.1.5 1.1 1v7c0 1.7-.6 2.8-1.6 3.6v2.4z" fill="#fff" fill-rule="evenodd"/><g fill="none"><path d="m8.6 3.1.5.6-.5.6" stroke="#706f6f" stroke-linecap="round" stroke-miterlimit="1" stroke-width=".25"/><path d="m8.5 2.5v2.4" stroke="#878787" stroke-linecap="round" stroke-miterlimit="1" stroke-width=".25"/><path d="m14.3 2.9-.6-.6.6-.6" stroke="#706f6f" stroke-linecap="square" stroke-miterlimit="1" stroke-width=".45"/><path d="m14.5 3.6v-2.5" stroke="#878787" stroke-linecap="round" stroke-miterlimit="1" stroke-width=".45"/><path d="m12.2 2.3h1.7" stroke="url(#b)" stroke-miterlimit="1" stroke-width=".95"/><path d="m9 3.7h2.2" stroke="url(#c)" stroke-miterlimit="1" stroke-width=".65"/><path d="m11.2 13.9v-12.3" stroke="url(#d)" stroke-linecap="round" stroke-miterlimit="1" stroke-width="2"/><path d="m9.8 12.9h2.8v.7h-2.8z" stroke="#808080" stroke-miterlimit="1"/><path d="m4.4 14c0-1.6 0-3.1 0-4.7 0-.9-.6-1.6-1.3-1.7-.8 0-1.5.8-1.5 1.8" stroke="#000" stroke-miterlimit="10"/></g><path d="m0 14h16v2h-16z" fill="#7d4e24"/><ellipse cx="11.2" cy="8.1" rx="2" ry="2.3"/><path d="m11.3 8-2.4 2.3" fill="none" stroke="#b2b2b2" stroke-miterlimit="1" stroke-width=".75"/><path d="m11.2 8.2-.8-3.2" fill="none" stroke="#b2b2b2" stroke-miterlimit="1" stroke-width=".75"/><path d="m11.1 8.1 3.2.9" fill="none" stroke="#b2b2b2" stroke-miterlimit="1" stroke-width=".75"/><circle cx="11.2" cy="8.1" fill="none" r="3.3" stroke="#808080" stroke-miterlimit="1" stroke-width=".5"/></svg>