<svg xmlns="http://www.w3.org/2000/svg" viewBox="0 0 16 14"><g transform="translate(0-1038.36)"><path color-interpolation-filters="linearRGB" color="#000" image-rendering="auto" color-rendering="auto" fill-rule="evenodd" d="m0 1038.36h16v14h-16z" color-interpolation="sRGB" text-rendering="auto" fill="#fff" shape-rendering="auto"/><g fill="none" stroke="#700000" stroke-width="1.1"><path d="m0 1049.99c1 0 3.036.051 4.058 0 3.071-.157-.334-6 3.092-6h1.695c3.466.045.049 6.02 3.142 6 .975-.01 1.587-.001 4.01-.001"/><path d="m0 1046c1 0 1.103.051 2.124 0 2.558.067-.156-5.061 2.958-5.061h5.829c3.132 0 .205 5.13 3.164 5.062.975-.023-.503-.001 1.925-.001"/></g></g></svg>