<svg xmlns="http://www.w3.org/2000/svg" viewBox="0 0 297.0498 213.31735" height="213.32" enable-background="new 0 0 307 229"><g fill="#0ff" stroke="#0893a1" stroke-width="3" transform="translate(-3.459-8.791)"><path d="m142.04 214.03c0 0 2.866-59.19-5.322-75.972-8.19-16.79-22.52-38.49-22.93-45.86-.409-7.37-1.638-28.25 0-36.848 1.638-8.598 6.961-29.479 11.874-16.787 4.913 12.692-3.686 23.747-3.275 25.794.409 2.047-3.686 18.02 7.778 31.935 11.464 13.92 8.598-9.417 8.598-9.417 0 0-5.987-28.66 3.762-30.707 9.75-2.047 7.703 17.605 6.475 22.928-1.229 5.323 2.535 26.2 1.063 27.841-1.472 1.638 1.349 21.291.348 23.338-1 2.047 1.865 32.34 5.96 20.06 4.094-12.282 6-17.605 11.598-21.699 5.598-4.095 13.785-2.867 6.826 11.668-6.961 14.535-14.74 13.716-17.605 35.825-2.867 22.11-.41 44.22-.41 44.22 0 0-12.7 2.09-14.75-6.33z"/><path d="m112.75 218.42c0 0 2.457-7.755-11.464-27.816-13.92-20.06-27.02-13.511-29.888-28.25-2.866-14.739 2.457-16.377 6.142-10.645 3.685 5.731 6.312 9.417 14.21 11.873 7.898 2.457 11.993 10.646 7.489-8.188-4.504-18.833-6.551-20.718-12.282-27.35-5.732-6.633-34.393-25.06-57.729-27.1-23.341-2.04-25.797-9.409-23.751-13.504 2.047-4.094 29.888 0 29.888 0l9.417.819c0 0 23.746 13.1 4.503-15.558-19.242-28.66-24.974-37.26-18.01-37.667 6.961-.409 11.05-1.638 20.06 12.692 9.01 14.33 19.652 42.17 19.652 42.17 0 0 3.275 10.235 6.142 8.598 2.865-1.638.818-27.841 1.228-29.479.41-1.638-2.047-28.692 1.229-31.34 3.276-2.645 18.424-29.667 13.511 9.638-4.913 39.3-3.275 51.587-3.275 51.587 0 0 11.05 16.787 15.15.819 4.094-15.968 24.16-26.2 24.16-26.2 0 0 6.961-2.457 9.827-9.01 2.865-6.551 16.377 1.228 8.598 10.235-7.779 9.01-34.802 25.384-36.03 38.08-1.229 12.692-5.323 31.936.409 33.16 5.731 1.229 1.638-4.913 11.873-9.826 10.236-4.913 18.834-23.63 22.11-13.861 3.275 9.768-7.37 16.318-7.37 16.318 0 0-11.873 2.456-15.968 14.33-4.094 11.873-4.503 13.92-3.685 21.29.819 7.369 4.504 15.15 10.235 9.01 5.732-6.141 13.512-6.141 7.37 4.095-6.142 10.236-9.826 22.928-9.826 27.432.01 4.51-13.76 8.42-13.91 3.67z"/><path d="m207.26 215.85c0 0-3.361-7.407 8.07-28.982 11.435-21.575 25.22-16.629 26.316-31.604 1.092-14.976-4.389-15.969-7.365-9.839-2.977 6.129-5.146 10.1-12.697 13.479-7.551 3.379-10.641 11.996-8.41-7.239 2.232-19.235 4.04-21.35 8.943-28.616 4.902-7.268 31.17-28.97 54.1-33.778 22.928-4.808 24.49-12.418 21.971-16.24-2.519-3.822-29.676 3.555-29.676 3.555l-9.252 1.933c0 0-22.02 15.833-6.322-14.912 15.698-30.745 20.365-39.964 13.406-39.542-6.959.422-11.17-.312-18.41 14.988-7.238 15.3-14.496 44.21-14.496 44.21 0 0-2.035 10.553-5.076 9.268-3.039-1.285-4.125-27.546-4.727-29.12-.6-1.577-1.379-28.732-4.945-30.969-3.566-2.237-21.822-27.27-12.27 11.176 9.552 38.441 9.389 50.832 9.389 50.832 0 0-8.98 17.982-14.943 2.615-5.965-15.367-27.1-23.14-27.1-23.14 0 0-7.203-1.611-10.828-7.775-3.625-6.164-16.11 3.167-7.318 11.186 8.795 8.02 37.573 21.06 40.3 33.521 2.729 12.456 9.08 31.08 3.539 32.977-5.547 1.901-2.211-4.683-12.958-8.344-10.748-3.661-21.512-21.22-23.602-11.134-2.09 10.09 9.258 15.326 9.258 15.326 0 0 12.08 1.026 17.56 12.328 5.477 11.303 6.127 13.287 6.189 20.701.064 7.415-2.67 15.577-9.09 10.161-6.422-5.416-14.15-4.491-6.83 4.941 7.314 9.433 12.483 21.597 13.02 26.07.536 4.471 14.67 6.7 14.26 1.96z"/><path d="m128.92 218.84c0 0 3.275-24.975-6.96-28.25-10.235-3.275-37.667-4.913-36.03-13.1 1.638-8.189 12.282 0 15.15 0 2.866 0 13.921.818 18.02.818 4.095 0 10.646-10.235 3.275-24.16-7.369-13.921-15.558-18.02-18.833-27.432-3.275-9.417 4.094-3.275-5.732-24.565-9.843-21.298-17.213-47.911-6.568-41.36 10.645 6.551 9.417 22.928 9.417 22.928l3.685-1.228c0 0 5.342-11.05 3.285-15.15-2.057-4.094-4.514-19.652-4.514-19.652 0 0 2.866-13.92 6.961-6.551 4.094 7.37 2.865 17.605 3.685 21.29.818 3.685 2.456 18.01.818 20.881-1.638 2.866-6.122 6.96-6.95 9.417-.828 2.457-.01 11.873 3.266 20.881 3.275 9.01 13.1-9.417 14.33-9.826 1.229-.41 8.188-13.921 10.645-20.881 2.457-6.96-2.456-24.975-2.456-27.432 0-2.457 1.229-25.384 7.369-11.05 6.142 14.33 3.275 26.2 3.275 27.432 0 1.228-1.638 21.7-1.638 21.7 0 0-3.275 11.874-9.416 19.243-6.142 7.37-14.33 4.095-6.142 27.02 8.188 22.927 20.988 29.888 17.863 41.761-3.124 11.874 3.427 11.874-1.486 18.834-4.913 6.96-4.095 16.377-5.322 18.424-1.23 2.06-9.01.01-9.01.01z"/><path d="m171.18 216.93c0 0-2.504-28.407 7.949-32.632 10.452-4.225 27.509-22.591 26.12-31.879-1.391-9.287-5.695-5.385-8.592-5.251-2.898.134-10.09 22.758-14.231 22.949-4.138.191-10.43-11.207-2.531-27.47 7.898-16.265 16.31-21.33 19.925-32.25 3.615-10.922-4.03-3.555 6.586-28.361 10.621-24.806 18.93-55.58 7.957-47.595-10.973 7.989-10.26 26.66-10.26 26.66l-3.684-1.232c0 0-5.04-12.392-2.832-17.17 2.211-4.778 5.197-22.685 5.197-22.685 0 0-2.449-15.785-6.824-7.166-4.377 8.619-3.467 20.267-4.414 24.519-.945 4.252-3.063 20.716-1.5 23.917 1.563 3.201 5.963 7.673 6.721 10.443.76 2.771-.373 13.578-3.975 24.03-3.603 10.454-12.94-10.156-14.169-10.567-1.229-.41-7.828-15.536-10.09-23.38-2.258-7.845 3.289-28.675 3.369-31.485.078-2.809-.422-28.971-7.094-12.296-6.67 16.674-4.156 30.12-4.195 31.522-.041 1.405.953 24.738.953 24.738 0 0 2.928 13.425 8.898 21.565 5.97 8.14 14.354 4.01 5.336 30.614-9.02 26.604-22.18 35.16-19.406 48.593 2.773 13.432-3.846 13.739.895 21.468 4.742 7.729 3.609 18.537 4.785 20.82 1.15 2.29 9.08-.42 9.08-.42z"/></g></svg>