<svg xmlns="http://www.w3.org/2000/svg" viewBox="0 0 16 16"><g transform="translate(0-1036.36)"><path fill="#208ece" d="m16 1048.82c0 0-14 .272-14-1.453 0-2.02 12.17.384 12.08-2.563-.056-1.811-5.862-1.043-6.614-2.427-.407-.748-1.416-.309-1.131.489.609 1.588 4.114 1.36 6.145 1.961-3.919.35-12.478-.462-12.478 2.538 0 5 16 5 16 5z"/><g stroke-dasharray="1.288 1.288" fill="none" stroke="#208ece" stroke-dashoffset="1.288"><path stroke-width="1.28" d="m6.846 1042.33c.221-4.066 4.341-7.804 6.154-2.97"/><path stroke-width="1.288" d="m6.757 1042.33c-.221-4.066-4.341-7.804-6.154-2.97"/></g></g></svg>