<svg xmlns="http://www.w3.org/2000/svg" viewBox="0 0 65.56 86.52"><defs><radialGradient cx="14.207" cy="222.04" id="a" r="8.252" gradientUnits="userSpaceOnUse" gradientTransform="scale(1.39523.71673)"><stop/><stop offset="1" stop-opacity="0"/></radialGradient></defs><g transform="matrix(2.46967 0 0 2.46967-145.19-320.54)"><g fill-rule="evenodd"><path fill="#00b300" d="m70.86 130.15c-.141.024-1.136.189-1.8.189-.727 0-1.431.31-2.084.474-.534.133-1.335.959-1.61 1.326-.399.532-.842.937-1.326 1.421-.446.446-.982.887-1.326 1.232-.28.28-.274 1.192-.379 1.61-.15.602-.749 1.318-1.137 1.705-.617.617-.922 1.027-1.232 1.8-.274.685-.379 1.208-.379 1.989 0 .738-.037 1.333.095 1.989.149.747.263 1.329.758 1.989.398.53 1.039.944 1.516 1.421.415.415.838.514 1.326.758.527.263.604.544.853 1.042.287.573.27 1.203.568 1.8.242.485.948 1.019 1.421 1.137.617.154 1.225.496 1.895.663.951.238 2.135.095 3.126.095 1.293 0 2.537-.445 3.789-.758.54-.135.982-.444 1.421-.663.591-.295.709-.659.947-1.137.269-.537.313-.714.709-1.109.429-.429 1.193-.938 1.849-1.07.729-.146.837-.579 1.439-.88.663-.332 1.566-1.231 2.161-1.678.56-.42.829-1.113 1.326-1.61.496-.496.379-1.211.379-1.895 0-.596-.663-1.257-.807-1.833-.139-.557-.074-1.109-.424-1.577-.529-.706-1.185-1.28-1.8-1.895-.599-.599-1.345-.682-1.989-1.326-.562-.562-.927-1.305-1.516-1.895-1.157-1.157-2.495-1.735-3.89-2.607-.597-.373-1.476.066-2.078-.235-.59-.295-1.196-.111-1.8-.474"/><ellipse fill="url(#a)" cx="20.458" cy="158.7" rx="7.944" ry="4.081" transform="translate(50.02 2.045)"/></g><path fill="#5c2700" d="m70.871 129.79c-1.32 0-5.688 1.16-5.688 1.906 0 .294-1.119 1.429-2.281 2.313-.83.631-1.039.937-.938 1.469.088.46-.077.924-.563 1.469-1.03 1.156-2.273 3.462-2.531 4.719-.196.952-.091 1.38.781 3.219.952 2.01 1.065 2.134 2.344 2.594 1.398.503 2.268 1.396 2 2.094-.087.226.224.943.719 1.594.696.916 1.254 1.282 2.531 1.719 1.585.542 1.605.579 1.563 1.5-.12 2.62-.429 3.547-1.5 4.563-1.066 1.01-1.386 1.969-.656 1.969.218 0 .505-.125.625-.313.12-.188.619-.636 1.094-.969.922-.646 1.296-.503 1.5.594.055.299.313.602.594.656.429.083.479-.038.375-.75-.096-.657-.01-.844.344-.844.25 0 .59.274.75.625.239.525.49.656 1.469.656.653 0 1.549.199 2 .438 1.599.847 1.241-.051-.906-2.219-1.197-1.209-2.271-2.453-2.375-2.781-.104-.329-.095-1.116 0-1.75.156-1.039.307-1.202 1.469-1.781.708-.354 1.546-.629 1.875-.594.663.071 1.719-.832 1.719-1.469 0-.225.131-.406.281-.406.15 0 .281-.131.281-.281 0-.577-.838-.238-1 .406-.159.632-1.365 1.214-2.5 1.219-.188.001-.344.117-.344.25 0 .337-1.037.576-1.219.281-.26-.42.951-1.758 2.813-3.125 2.766-2.031 3.493-2.971 4.313-5.531.577-1.803.639-2.338.375-2.656-.182-.219-.433-.33-.563-.25-.364.225-.996 1.775-1.188 2.906-.106.626-.377 1.161-.719 1.344-.307.164-.513.362-.438.438.322.322-3.573 4.188-4.219 4.188-.101 0-.198-1.328-.219-2.938-.042-3.151-.227-3.597-1.281-2.906-.527.345-.593.504-.344.969.187.349.214 1.136.094 2.094-.106.842-.173 2.176-.156 2.969.027 1.262-.051 1.482-.594 1.688-.526.199-.674.101-1.063-.625-.487-.909-1.74-2.049-3.125-2.875-.691-.412-1.883-2.226-1.813-2.75.055-.407-.604-1.173-1.219-1.406-.967-.368-1.023-.209-.344 1 .322.574.635 1.289.688 1.563.166.863 1.179 2.055 2.813 3.313 1.538 1.183 2.5 2.298 2.5 2.906 0 .201-.442.249-1.313.125-1.012-.144-1.464-.396-2.156-1.156-.488-.536-.906-1.187-.906-1.438 0-.908-.859-2.194-1.594-2.375-1.25-.308-1.863-.869-2.656-2.438-.99-1.956-.949-3.311.188-5.531.472-.922.961-1.656 1.094-1.656.133 0 .25-.152.25-.313 0-.161.181-.462.406-.688.225-.225.406-.673.406-1 0-.377.524-1.053 1.406-1.813.766-.66 1.484-1.532 1.625-1.938.315-.905 3.468-1.432 4.75-1.469 1.01-.029 1.368-.719.375-.719m1.938.406c-2.112-.192-1.778.265.406.563.758.103 1.729.447 2.156.75.427.303 1.413.857 2.188 1.25 1.13.573 1.406.859 1.406 1.406 0 .887.471 1.352 1.688 1.688 1.184.327 2.107 1.281 2.813 2.875.287.649.654 1.156.813 1.156.355 0 .375-.444.031-.656-.139-.086-.314-.516-.406-.938-.093-.422-.619-1.197-1.156-1.75-.903-.929-1.251-1.124-1.813-1.031-.396.065-1.222-.919-1.406-1.688-.101-.42-.367-.841-.625-.938-.258-.097-1.355-.729-2.406-1.375-1.565-.962-2.234-1.18-3.688-1.313m11.594 10.06c-.095.095-.043.55.125 1.031.168.481.313 1.15.313 1.5 0 .834-1.553 2.902-2.594 3.438-.451.232-.857.622-.906.875-.072.371.096.321.938-.25 1.167-.792 1.624-1.244 2.531-2.531.527-.748.602-1.081.469-2.281-.155-1.388-.527-2.13-.875-1.781m-4.063 7.125c-.353-.091-.776-.107-1 .031-.245.151-.194.288.188.438.747.293 1.154.275 1.344-.031.105-.17-.178-.346-.531-.438m-1.156.781c-.614-.121-1.57.524-1.25.844.249.249.625.215.625-.063 0-.133.287-.326.625-.438l.594-.219z"/></g></svg>