<svg xmlns="http://www.w3.org/2000/svg" viewBox="0 0 8.83 16"><defs><radialGradient cx="14.207" cy="222.04" id="a" r="8.252" gradientUnits="userSpaceOnUse" gradientTransform="scale(1.39523.71673)"><stop/><stop offset="1" stop-opacity="0"/></radialGradient></defs><g transform="matrix(.55581 0 0 .55581-24.702-92.04)"><g fill-rule="evenodd"><path fill="#00b300" d="m52.802 169.09c.326 1.615 1.102 3.065 1.319 4.702.313.846.966 1.749 1.212 2.623.502.826 1.225 1.446 1.637 2.329.601.747.969 1.555 1.014 2.559.147.824.447 1.632.444 2.475-.191 1-1.424 1.6-2.343 1.188-2.047-.51-4.177-.701-6.28-.522-1.543.024-3.523-.594-4.876-1.387.056-.379-.487-.46.122-.681.238-.414.271-1.262.292-1.754.136-.648.83-1.063 1.277-1.547.438-.63.624-1.396.684-2.15.289-1.26.115-2.581.809-3.699.793-1.529 1.491-3.116 1.718-4.828.133-.759.495-2.228 1.092-2.593 0 0 1.829 2.076 1.878 3.284"/><ellipse fill="url(#a)" cx="20.458" cy="158.7" rx="7.944" ry="4.081" transform="translate(31.929 31.601)"/></g><path fill="#5c2700" d="m50.822 165.59c-.617 0-1.284 1.841-1.5 4.156-.122 1.308-.35 2.051-.719 2.438-1.047 1.097-1.317 1.745-1.469 3.594-.144 1.751-.377 2.507-.969 3.219-1.11 1.336-.762 1.58-.762 1.783 0 .474-.111.262.481-.595.336-.486.815-1.159 1.063-1.5.259-.356.542-1.489.656-2.656.168-1.711.314-2.187 1-2.969.657-.748.853-1.287 1-2.719.17-1.663.875-4.313 1.156-4.313.069 0 .484.381.906.844.596.652.796 1.191.906 2.406.078.861.441 2.196.813 2.938.371.742.757 1.888.844 2.563.125.974.376 1.426 1.219 2.188 1.18 1.067 2.06 2.743 2.656 5.03.379 1.457.37 1.546-.188 2.188-.484.557-.661.623-1.125.375-.307-.164-2.425-.343-4.688-.406-2.713-.076-4.296-.236-4.656-.469-.3-.194-.998-.427-1.563-.531l-1.031-.188.688-1.031c.704-1.036.336-1.41-.021-1.406-.402.004-.951 2.217-.792 2.719.1.316.527.57 1.156.688.553.104 1.369.364 1.813.594.538.278 1.175.386 1.938.281 1.089-.149 1.164-.139 1.094.5-.162 1.474-.459 3.037-.719 3.875-.15.485-.188 1-.094 1.156.243.394.56.367.969-.125.668-.805 1.244-.958 2.063-.531 1.592.83 2.206.259 1.344-1.25-.215-.376-.401-1.336-.406-2.125-.011-1.617-.028-1.607 2.219-1.125l1.438.313.844-1.031c.8-.953.844-1.059.5-1.719-.205-.392-.374-1-.375-1.344-.003-1.054-1.607-3.962-2.75-4.969-.964-.85-1.126-1.176-1.344-2.719-.134-.954-.408-1.909-.625-2.156-.217-.247-.604-1.431-.844-2.625-.446-2.224-1.143-3.344-2.125-3.344m.25 22.969c.084.084-.001.315-.188.5-.27.268-.273.233-.125-.156.103-.269.228-.428.313-.344"/></g></svg>