<svg xmlns="http://www.w3.org/2000/svg" viewBox="0 0 970.83973 972.18771" height="972.19" xmlns:xlink="http://www.w3.org/1999/xlink"><defs><linearGradient id="a" y1="349.3" y2="183.6" x1="466.13" gradientUnits="userSpaceOnUse" x2="207.93" gradientTransform="scale(.61308 1.6311)"><stop stop-color="#002f00"/><stop offset="1" stop-color="#009300"/></linearGradient><linearGradient id="b" xlink:href="#a" y1="32.32" y2="457.36" gradientUnits="userSpaceOnUse" x2="0" gradientTransform="scale(.61308 1.6311)"/><linearGradient id="c" y1="476.93" y2="478.01" x1="345.53" gradientUnits="userSpaceOnUse" x2="384.09" gradientTransform="scale(.61633 1.6225)"><stop stop-color="#6c2f07"/><stop offset="1" stop-color="#7e4932"/></linearGradient><linearGradient id="d" xlink:href="#a" y1="349.3" y2="183.6" x1="466.13" x2="207.93" gradientUnits="userSpaceOnUse" gradientTransform="scale(.61308 1.6311)"/><path fill="url(#c)" fill-rule="evenodd" id="e" d="m193.88 772.09l-9.78 223.43h84.88l-14.88-223.43z"/><path fill="url(#b)" fill-rule="evenodd" fill-opacity=".75" id="f" d="m223.51 23.337c-8.1.571-72.67 106.71-87.16 176.56-21.53 125.42-31.83 285.19-50.937 410.97-5.671 29.1-3.298 64.86 3.812 82.34 7.231 23.7 27.775 48.49 52.34 62.81 29.99 19.43 52.51 18.91 81.75 19.29.15.09.35.11.53 0 30.62-.04 53.49-1.24 81.75-19.29 24.57-14.32 45.11-39.11 52.34-62.81 7.11-17.48 9.49-53.24 3.82-82.34-19.11-125.78-29.41-285.55-50.94-410.97-14.49-69.85-79.06-175.99-87.16-176.56-.02-.005-.11-.006-.15-.003z"/><path fill-rule="evenodd" id="g" d="m223.51 23.337c-8.1.571-72.67 106.71-87.16 176.56-21.53 125.42-31.83 285.19-50.937 410.97-5.671 29.1-3.298 64.86 3.812 82.34 7.231 23.7 27.775 48.49 52.34 62.81 29.99 19.43 52.51 18.91 81.75 19.29.15.09.35.11.53 0 30.62-.04 53.49-1.24 81.75-19.29 24.57-14.32 45.11-39.11 52.34-62.81 7.11-17.48 9.49-53.24 3.82-82.34-19.12-125.78-29.41-285.55-50.94-410.97-14.49-69.85-79.06-175.99-87.16-176.56-.02-.005-.11-.006-.15-.003z"/></defs><g transform="translate(-82.25-23.332)"><use xlink:href="#e"/><use xlink:href="#f"/><use fill="url(#a)" xlink:href="#g"/></g><g transform="translate(267.94-23.332)"><use xlink:href="#e"/><use xlink:href="#f"/><use fill="url(#d)" xlink:href="#g"/></g><g transform="translate(605.92-23.332)"><use xlink:href="#e"/><use xlink:href="#f"/><use fill="url(#d)" xlink:href="#g"/></g></svg>