<svg xmlns="http://www.w3.org/2000/svg" viewBox="0 0 451.43 451.43" xmlns:xlink="http://www.w3.org/1999/xlink"><defs><path fill="#00f" stroke="#000" id="a" stroke-width="2" d="M365.71429 478.07648A62.857143 62.857143 0 1 1 240 478.07648 62.857143 62.857143 0 1 1 365.71429 478.07648z"/><path fill="#999" fill-rule="evenodd" stroke="#636363" id="b" stroke-width="11.838" d="m397.2 418.65l-34.396 44.573"/><path fill="#b3b3b3" stroke="#000" id="c" stroke-width="10" d="M217.14286 198.92859A4.642857 4.642857 0 1 1 207.85714 198.92859 4.642857 4.642857 0 1 1 217.14286 198.92859z"/></defs><g transform="translate(-160-318.08)"><path fill="#37c837" d="m160.71 320.22h451.43v451.43h-451.43z"/><g stroke="#000"><g stroke-width="2"><path fill="#b3b3b3" d="M622.85713 452.36218A88.57143 88.57143 0 1 1 445.71428 452.36218 88.57143 88.57143 0 1 1 622.85713 452.36218z" transform="matrix(.51754 0 0 .51754 52.06 293.6)"/><path fill="#00f" d="m220 678.08h271.43v48.571h-271.43z"/></g><path fill="none" stroke-width="10" d="m289.29 678.07l-.722 47.865"/><g transform="translate(.714 15)"><path fill="#00f" stroke-width="2" d="m220 580.93h271.43v48.571h-271.43z"/><path fill="none" stroke-width="10" d="m375.72 581.64l-.722 47.865"/></g></g><g transform="matrix(0 1-1 0 814.51 12.362)"><use xlink:href="#a" transform="translate(97.86-64.29)"/><use xlink:href="#b"/><use xlink:href="#c" transform="translate(188.57 214.51)"/></g><g transform="translate(-144.29-.714)"><use xlink:href="#a" transform="translate(97.86-64.29)"/><use xlink:href="#b"/><use xlink:href="#c" transform="translate(188.57 214.51)"/></g><path fill="#c8c4b7" stroke="#000" stroke-width="2" d="m342.86 45.714h67.14v137.14h-67.14z" transform="translate(160 318.08)"/></g></svg>