<svg xmlns="http://www.w3.org/2000/svg" viewBox="0 0 16 16"><g fill-rule="evenodd" transform="translate(0-1036.36)"><g fill="#1332ff"><path d="m16 1049.54l-.495.282c-.546.311-1.16.311-1.706 0l-.512-.291c-.546-.311-1.16-.311-1.706 0l-.512.291c-.546.311-1.16.311-1.706 0l-.512-.291c-.27-.154-.56-.233-.853-.233-.293 0-.583.079-.853.233l-.512.291c-.546.311-1.16.311-1.706 0l-.512-.291c-.546-.311-1.16-.311-1.706 0l-.512.291c-.546.311-1.16.311-1.706 0l-.495-.282v1.305l.495.282c.546.311 1.16.311 1.706 0l.512-.291c.546-.311 1.16-.311 1.706 0l.512.291c.546.311 1.16.311 1.706 0l.512-.291c.27-.154.56-.233.853-.233.293 0 .583.079.853.233l.512.291c.546.311 1.16.311 1.706 0l.512-.291c.546-.311 1.16-.311 1.706 0l.512.291c.546.311 1.16.311 1.706 0l.495-.282z"/><path d="m16 1046.58l-.495.282c-.546.311-1.16.311-1.706 0l-.512-.291c-.546-.311-1.16-.311-1.706 0l-.512.291c-.546.311-1.16.311-1.706 0l-.512-.291c-.27-.154-.56-.233-.853-.233-.293 0-.583.079-.853.233l-.512.291c-.546.311-1.16.311-1.706 0l-.512-.291c-.546-.311-1.16-.311-1.706 0l-.512.291c-.546.311-1.16.311-1.706 0l-.495-.282v1.305l.495.282c.546.311 1.16.311 1.706 0l.512-.291c.546-.311 1.16-.311 1.706 0l.512.291c.546.311 1.16.311 1.706 0l.512-.291c.27-.154.56-.233.853-.233.293 0 .583.079.853.233l.512.291c.546.311 1.16.311 1.706 0l.512-.291c.546-.311 1.16-.311 1.706 0l.512.291c.546.311 1.16.311 1.706 0l.495-.282z"/><ellipse cx="7.535" cy="1042.75" color-interpolation-filters="linearRGB" color="#000" image-rendering="auto" color-rendering="auto" rx="2.579" ry="2.61" color-interpolation="sRGB" text-rendering="auto" shape-rendering="auto"/><path d="m10.123 1042.72c-.288-.827-.279-1.541-.959-2.249-1.431-1.489-1.405-2.662-.48-3.834-2.987 1.016-3.316 3.506-3.672 6.04z"/></g><path fill="#8a99ff" d="m6.03 1043.71c-1.011-1.275.035-2.5.035-2.5l.515-.676.789-.591c0 0-.849 1.954-.052 3.258-.701.862-.959.597-1.287.508"/></g></svg>