<svg xmlns="http://www.w3.org/2000/svg" viewBox="0 0 16 16"><rect width="16" fill="#fff" rx="2" height="16"/><path fill="#555" d="m2 0v3.5c0 1.447.791 2.48 1.906 3.125l-.906 7.375h1.5l.188-1.469 2.313-1.531 2.313 1.563.188 1.438h1.5l-.906-7.344c1.124-.643 1.906-1.693 1.906-3.156v-3.5h-1.5v1.5h-.5c-1.127.5-2 .5-3 0-1-.5-1.962-.5-3 0h-.5v-1.5zm3.344 7.188c1.069.267 2.243.294 3.313.031l.188 1.563-1.844 1.219-1.844-1.219zm-.313 2.5l1.219.813-1.438.969zm3.938 0l.219 1.781-1.438-.969z" transform="translate(1 1)"/></svg>