<svg height="16" preserveAspectRatio="xMidYMid meet" viewBox="0 0 16 16" width="16" xmlns="http://www.w3.org/2000/svg" xmlns:xlink="http://www.w3.org/1999/xlink"><defs><path id="a" d="m7.04 8.29-.97-1.7.96-1.71 1.93-.01.97 1.7-.96 1.7z"/><path id="b" d="m12.77 2.35 2.36 1-1.07 2.18-4.35 1.22-.77-1.78z"/><path id="c" d="m1.59 5.14-.64-2.47 2.38-.49 3.61 2.7-.93 1.7z"/><path id="d" d="m14.28 8.31.68 2.47-2.37.52-3.65-2.66.91-1.71z"/><path id="e" d="m3.66 11.48-2.46-.7.79-2.3 4.17-1.73.99 1.66z"/></defs><path d="m1 15v-14h14v14z" fill="#288aed" fill-rule="evenodd" stroke="#2090cf" stroke-linejoin="round" stroke-width="2"/><g><path d="m16 0v16c-9.6 0-14.93 0-16 0 0-9.6 0-14.93 0-16z" fill="none" height="100%" width="100%"/><path d="m8.31 6.11-3.54 9.89" fill="none" height="100%" stroke="#000" width="100%"/><path d="m7.75 6.11 3.54 9.89" fill="none" height="100%" stroke="#000" width="100%"/></g><use fill="#b6b6b6" height="100%" width="100%" xlink:href="#a"/><use fill="none" height="100%" stroke="#494949" width="100%" xlink:href="#a"/><path d="m9.67 11.3-4.18 3" fill="none" height="100%" stroke="#000" width="100%"/><use fill="#b6b6b6" height="100%" width="100%" xlink:href="#b"/><use fill="none" height="100%" stroke="#494949" stroke-width=".8" width="100%" xlink:href="#b"/><use fill="#b6b6b6" height="100%" width="100%" xlink:href="#c"/><use fill="none" height="100%" stroke="#494949" stroke-width=".8" width="100%" xlink:href="#c"/><use fill="#b6b6b6" height="100%" width="100%" xlink:href="#d"/><use fill="none" height="100%" stroke="#494949" stroke-width=".8" width="100%" xlink:href="#d"/><use fill="#b6b6b6" height="100%" width="100%" xlink:href="#e"/><use fill="none" height="100%" stroke="#494949" stroke-width=".8" width="100%" xlink:href="#e"/></svg>