<svg xmlns="http://www.w3.org/2000/svg" viewBox="0 0 16 16"><g transform="translate(0-1036.36)"><g transform="matrix(.76456 0 0 .76456 11.393 247.77)"><rect width="6" y="1036.36" rx="2" height="16"/><g stroke-width=".2"><circle fill="#f00" cx="638" cy="709.36" stroke="#b20505" r="2" transform="matrix(1.09524 0 0 1.09524-695.76 262.44)"/><g stroke-linecap="square"><circle fill="#ff0" cx="638" cy="714.36" stroke="#ffd600" r="2" transform="matrix(1.09524 0 0 1.09524-695.76 261.97)"/><circle fill="#0f0" cx="638" cy="719.36" stroke="#00b200" r="2" transform="matrix(1.09524 0 0 1.09524-695.76 261.49)"/></g></g></g><g fill="#fff" stroke="#000"><g stroke-width="1.473"><circle cx="5.355" cy="1046.9" r="4.345"/><circle cx="5.355" cy="1046.9" r=".229" opacity=".99" color="#000"/></g><g color="#000" stroke-width=".48"><path opacity=".99" d="m1.751 1046.9h7.208"/><path opacity=".99" d="m-1050.5 5.355h7.21" transform="rotate(-90)"/><path opacity=".99" d="m752.88 723.7h7.208" transform="rotate(45.97584)"/><path opacity=".99" d="m745.44 731.4h7.208" transform="matrix(-.69496.71905.71905.69496 0 0)"/></g></g><path fill="#fff" fill-rule="evenodd" stroke="#ee1c23" stroke-linejoin="round" stroke-width=".925" d="m6.086 1036.87h6.842l-3.421 6.04z"/></g></svg>