<svg xmlns="http://www.w3.org/2000/svg" viewBox="0 0 344.12 344.52"><path fill="#fff" d="M 0,0 H344.12 V344.52 H0 z"/><path d="m245.65 60.33c0 14.796-11.995 26.791-26.791 26.791-14.796 0-26.791-11.995-26.791-26.791 0-14.796 11.995-26.791 26.791-26.791 14.796 0 26.791 11.995 26.791 26.791"/><g fill-rule="evenodd"><path d="m68.975 308.74l-5.172-117.81-32.757 26.435c-7.162-.568-14.731-.574-18.613-5.651l51.18-49.997c11.619 3.253 22.606 2.292 32.948-2.969l36.78 7.471 17.815 36.78c-5.514 1.046-8.446 6.193-20.689-3.448l-9.195-18.39-14.942-.575 13.218 52.871 34.481 4.02c9.175 1.121 9.746 9.327 12.07 16.09l-55.744.575-9.77-13.792-16.09 4.597.575 52.871c-4.814 7.486-10.444 9.261-16.09 10.919"/><path d="m120.19 142.59c7.224-2.258 80.37-47.41 80.37-47.41 17.07 9.551 31.455 2.556 45.603-5.87l45.603 14.448 23.93 46.957c-9.389 4.963-18.578 3.704-27.542-4.515l-12.191-24.382-25.285-8.579 6.321 58.697 20.318 49.21 45.603 19.867c11.336 12.738 7.095 19.08 5.87 27.542l-67.28-27.09c-3.524-.658-4.823-4.655-6.773-7.676l-21.22-49.666-22.576 110.17-25.285 13.545 21.673-125.52-5.87-59.6-56.44 31.15c-14.571 2.257-19.834-4.389-24.833-11.288"/></g><path d="m100.85 130.5c0 13.03-10.567 23.602-23.602 23.602-13.03 0-23.602-10.567-23.602-23.602 0-13.03 10.567-23.602 23.602-23.602 13.03 0 23.602 10.567 23.602 23.602"/></svg>