<svg xmlns="http://www.w3.org/2000/svg" viewBox="0 0 16 16"><path fill="#fff" d="m66.28 1.768c-41.34 0-64.57 21.371-64.57 65.04v450.12c0 40.844 20.895 62.23 62.19 62.23h452.02c41.31 0 62.23-20.315 62.23-62.23v-450.12c0-42.601-20.922-65.04-63.52-65.04-.004 0-448.5-.143-448.35 0" transform="matrix(.02776 0 0 .02771-.047-.047)"/><ellipse cx="8.141" cy="3.049" rx="2.026" ry="2.026"/><path d="m10.11 5.568c.927.034 1.316.774 1.316.774l2.991 4.1c.123.185.196.405.196.646 0 .638-.517 1.155-1.155 1.155-.151 0-.291-.034-.425-.084l-1.804-.502v1.801h-6.26v-1.801l-1.804.502c-.129.05-.272.084-.425.084-.638 0-1.155-.517-1.155-1.155 0-.241.073-.461.2-.646l2.987-4.1c0 0 .394-.741 1.316-.774zm-2.01 6.632l2.338-.774-.052-.011c-1.61-.474-.985-2.605.625-2.131l.22.076v-2.405l-3.131 1.023-3.131-1.023v2.405l.22-.076c1.61-.476 2.241 1.657.625 2.131l-.052.011z"/><path d="m14.532 14.959c.16 0 .287-.191.287-.433 0-.242-.127-.433-.287-.433h-12.64c-.155 0-.287.191-.287.433 0 .242.132.433.287.433z"/></svg>