<svg xmlns="http://www.w3.org/2000/svg" viewBox="0 0 16 16"><defs><linearGradient id="a" y1="9" x1="9.441" y2="-4" x2="-9" gradientUnits="userSpaceOnUse"><stop stop-color="#005d00"/><stop offset="1" stop-color="#008000" stop-opacity="0"/></linearGradient></defs><g fill="none" stroke="#804e08" stroke-linecap="round"><path stroke-width="1.031" d="m1.413 15.478l1.501-3.635 2.253-1.299.055-4.927.62-1.347 1.583-3.747m6.117 14.955l-1.135-2.748-3.62-5.87.139-3.045-1.395-3.292"/><path stroke-width="2" d="m1 12h14"/></g><path fill="#fff" stroke="#005800" stroke-linejoin="round" stroke-width=".627" d="m1.314 3.307h13.373v8.379h-13.373z"/><path fill="url(#a)" d="m1.38 3.44v8.38h13.373v-8.38zm2.138.791c.375 0 .675.022.902.064.227.042.417.13.568.263.106.092.19.222.252.391.061.169.092.331.092.484v1.441c0 .154.01.275.029.362.019.087.062.198.127.333h-1.173c-.047-.084-.078-.148-.092-.192-.014-.044-.029-.114-.043-.208-.164.158-.327.271-.489.338-.221.09-.477.135-.77.135-.389 0-.684-.09-.886-.271-.202-.18-.303-.403-.303-.667 0-.248.073-.452.218-.612.145-.16.413-.278.804-.356.469-.094.772-.16.911-.198.139-.038.287-.088.443-.149 0-.154-.032-.261-.095-.323-.063-.061-.175-.092-.335-.092-.205 0-.358.033-.46.098-.08.051-.145.148-.194.289l-1.194-.127c.045-.209.11-.373.195-.493.085-.12.208-.224.367-.312.115-.063.272-.112.472-.147.201-.035.418-.053.651-.053m8.763-.344c.532 0 .937.096 1.217.286.279.191.476.469.589.836l-1.177.157c-.037-.139-.104-.244-.201-.315-.097-.071-.228-.106-.392-.106-.207 0-.374.074-.502.223-.128.149-.192.374-.192.675 0 .268.063.472.19.611.127.139.289.21.486.21.164 0 .301-.042.412-.127.112-.084.196-.213.251-.387l1.187.135c-.066.248-.173.463-.322.644-.149.181-.34.322-.572.423-.232.1-.527.15-.886.15-.346 0-.634-.033-.864-.097-.23-.065-.429-.168-.595-.313-.166-.144-.296-.314-.39-.509-.094-.195-.141-.453-.141-.775 0-.336.057-.615.171-.839.084-.164.199-.311.344-.441.145-.13.295-.227.449-.29.244-.1.556-.151.937-.151m-8.171 2.133c-.172.061-.352.116-.538.163-.254.068-.414.135-.482.2-.07.068-.104.144-.104.23 0 .098.034.179.103.241.069.062.169.094.302.094.139 0 .269-.034.389-.102.12-.068.205-.15.255-.247.05-.097.075-.224.075-.38zm2.377.64h1.262v1.561c.125-.131.267-.23.425-.295.159-.066.334-.098.526-.098.397 0 .726.143.986.429.26.286.39.696.39 1.231 0 .357-.06.671-.178.943-.119.271-.283.474-.493.608-.21.134-.443.202-.699.202-.219 0-.419-.048-.602-.142-.137-.074-.286-.212-.448-.415v.483h-1.17zm1.829 2.103c-.17 0-.308.062-.415.188-.107.126-.162.318-.162.574 0 .281.053.484.159.61.105.126.238.189.4.189.149 0 .275-.062.376-.186.101-.124.153-.333.153-.626 0-.258-.05-.447-.149-.568-.099-.121-.22-.181-.362-.181"/></svg>