<svg xmlns="http://www.w3.org/2000/svg" viewBox="0 0 16 16"><path fill="#d74545" stroke="#6d0000" stroke-width="39.665" d="m66.28 1.768c-41.34 0-64.57 21.371-64.57 65.04v450.12c0 40.844 20.895 62.23 62.19 62.23h452.02c41.31 0 62.23-20.315 62.23-62.23v-450.12c0-42.601-20.922-65.04-63.52-65.04-.004 0-448.5-.143-448.35 0z" transform="matrix(.02603 0 0 .02586.453.487)"/><g fill-rule="evenodd"><path d="m4.195 7.56l-.719.01c-.1.167-.173.377-.25.626-.111.359-.206.79-.261 1.219-.209 1.617-.21 2.365-.21 2.365h.479c0 0-.001-.705.206-2.304.052-.401.141-.811.243-1.139.102-.328.244-.586.28-.622.085-.083.158-.124.207-.146.011-.005.019-.008.025-.01"/><g stroke="#000" stroke-linejoin="round" stroke-width=".239"><path d="m7.515 4.103l-5.947 2.981 7.411.099 5.399-2.81z"/><path d="m4.03 9.599l.643-1.895 4.478.127 2.981-1.62 1.193 1.383c0 0-1.506.166-2.162.573-.656.407-1.507 1.387-1.507 1.387 0 0-1.853-.641-2.71-.655-1.636-.027-2.814.679-2.915.701z"/></g></g><g stroke="#000" stroke-linejoin="round"><path stroke-width=".37" d="m3.53 11.221c0 .313-.351 1.141-.664 1.141-.314 0-.473-.828-.473-1.141 0-.313.255-.568.569-.568.314 0 .569.254.569.568z"/><g fill-rule="evenodd" stroke-width=".239"><path d="m2.943 11.338l-.305 1.306"/><path d="m3.528 11.332l-.426 1.401"/><path d="m2.323 11.203l-.103 1.272"/><path d="m2.553 11.302l-.103 1.272"/><path d="m3.182 11.386l-.305 1.306"/></g></g></svg>