<svg xmlns="http://www.w3.org/2000/svg" viewBox="0 0 102 102"><g transform="translate(-1.438-1.438)"><path fill="#a8fa8b" fill-rule="evenodd" stroke="#000" stroke-width="1.984" d="m22.429 2.445h60.02c11.06 0 19.984 8.929 19.984 19.984v60.02c0 11.06-8.929 19.984-19.984 19.984h-60.02c-11.06 0-19.984-8.929-19.984-19.984v-60.02c0-11.06 8.929-19.984 19.984-19.984z"/><path fill="#fae675" stroke="#037200" stroke-width="1.594" d="m98.43 63.25c-1.843 8.61-19.594-.567-30.402 1.984-9.07 2.161-1.665 25.831-13.287 22.606-13.783-3.791-14.953-21.579-22.18-29.835-6.13-7.05-19.382-8.256-22.571-16.02-3.579-8.717 2.409-17.61 12.224-17.398 16.335.319 19.346 15.697 32.457 16.618 37.13 2.587 47.13 6.201 43.76 22.04z"/></g></svg>