<svg xmlns="http://www.w3.org/2000/svg" viewBox="0 0 16 16" xmlns:xlink="http://www.w3.org/1999/xlink"><defs><path fill="#fff" id="a" d="m12 89c0 .552-.448 1-1 1-.552 0-1-.448-1-1 0-.552.448-1 1-1 .552 0 1 .448 1 1"/></defs><g transform="translate(-1.453-87.43)"><g stroke="#000"><path fill="#2c9e06" fill-rule="evenodd" stroke-width=".311" d="m4.744 87.58h9.418c1.735 0 3.136 1.401 3.136 3.136v9.418c0 1.735-1.401 3.136-3.136 3.136h-9.418c-1.735 0-3.136-1.401-3.136-3.136v-9.418c0-1.735 1.401-3.136 3.136-3.136z"/><path fill="none" stroke-width="2.5" d="m6.188 101.41c-2.031-3.587-2.903-7.41 0-12"/></g><use xlink:href="#a" transform="translate(1.438 1.438)"/><use xlink:href="#a" transform="translate(-1.563 3.438)"/><use xlink:href="#a" transform="translate(2.438 5.438)"/><use xlink:href="#a" transform="translate(-1.563 7.438)"/><use xlink:href="#a" transform="translate(3.438 11.438)"/><use xlink:href="#a" transform="translate(4.438 8.438)"/><use xlink:href="#a" transform="translate(4.438 2.438)"/></g></svg>