<svg xmlns="http://www.w3.org/2000/svg" viewBox="0 0 104.88 104.88"><defs><filter width="1.459" x="-.229" y="-.838" color-interpolation-filters="sRGB" height="2.675" id="a"><feGaussianBlur stdDeviation="2.29178"/></filter><filter color-interpolation-filters="sRGB" id="b"><feGaussianBlur stdDeviation=".6"/></filter></defs><g transform="translate(-441.84-345.62)"><g fill-rule="evenodd" color="#000"><g stroke="#000"><g stroke-linecap="round"><rect opacity=".864" x="449.42" y="403.92" rx="20" stroke-width=".549" ry="19.445" width="61.37" height="38.891"/><rect x="444.29" y="348.08" rx="20" stroke-width="2" width="100" filter="url(#b)" fill="#2c9e06" height="100"/></g><path fill="#fff" stroke-width=".541" d="m186.43 207.72c0 5.72-13.751 10.357-30.714 10.357-16.963 0-30.714-4.637-30.714-10.357 0-5.72 13.751-10.357 30.714-10.357 16.963 0 30.714 4.637 30.714 10.357z" transform="matrix(.8825 0 0 .84552 349.48 252.13)"/><path opacity=".528" stroke-width=".549" d="m78.03 110.39c0 1.813-5.371 3.283-11.996 3.283-6.625 0-11.996-1.47-11.996-3.283 0-1.813 5.371-3.283 11.996-3.283 6.625 0 11.996 1.47 11.996 3.283z" filter="url(#a)" transform="matrix(1.93388 0 0 1.56931 358.47 254.64)"/></g><path stroke-width="2" d="m84.29 189.51c0 7.495-6.076 13.571-13.571 13.571-7.495 0-13.571-6.076-13.571-13.571 0-7.495 6.076-13.571 13.571-13.571 7.495 0 13.571 6.076 13.571 13.571z" fill="#fff" stroke="#555" transform="matrix(.75729 0 0 .75729 471.08 266.89)"/></g><g fill="#fff" stroke="#fff" stroke-width="3" transform="matrix(1.07203 0 0 1.07203 413.12 307.28)"><path d="m58.23 46.767c-.932 0-1.658 1.01-1.658 2.258v61.55c0 1.251.726 2.258 1.658 2.258.932 0 1.693-1.01 1.693-2.258v-41.41l31.11-12.1-31.22-8.783c-.228-.883-.85-1.517-1.587-1.517z"/><path d="m57.803 46.42c-.932 0-1.658 1.01-1.658 2.258v61.55c0 1.251.726 2.258 1.658 2.258.932 0 1.693-1.01 1.693-2.258v-41.41l31.11-12.1-31.22-8.783c-.228-.883-.85-1.517-1.587-1.517z"/></g></g></svg>