<svg xmlns="http://www.w3.org/2000/svg" viewBox="0 0 102 102"><g transform="translate(-1.438-1.438)"><path fill="#a8fa8b" fill-rule="evenodd" stroke="#000" stroke-width="1.984" d="m22.429 2.445h60.02c11.06 0 19.984 8.929 19.984 19.984v60.02c0 11.06-8.929 19.984-19.984 19.984h-60.02c-11.06 0-19.984-8.929-19.984-19.984v-60.02c0-11.06 8.929-19.984 19.984-19.984z"/><path fill="#2c9e06" stroke="#037200" stroke-width="1.417" d="m88.94 67.43c-3.331 8.15-14.209 27.04-25.299 27.638-9.319.496-41.776-22.996-48.26-33.17-15.591-24.52 9.78-47.06 21.01-45.921 26.539 2.728 58.677 36.496 52.55 51.45z"/><g stroke="#000" stroke-width=".673"><path d="m59.988 10.772c-.673 0-1.24.744-1.24 1.665v45.39c0 .921.567 1.665 1.24 1.665.673 0 1.24-.744 1.24-1.665v-30.543l22.925-8.894-22.996-6.484c-.177-.638-.638-1.134-1.169-1.134z"/><path d="m59.669 10.524c-.673 0-1.205.744-1.205 1.665v45.39c0 .921.531 1.665 1.205 1.665.673 0 1.24-.744 1.24-1.665v-30.543l22.925-8.929-22.996-6.449c-.177-.673-.638-1.134-1.169-1.134z"/></g></g></svg>