<svg xmlns="http://www.w3.org/2000/svg" viewBox="0 0 102 102"><g transform="translate(-1.438-1.438)"><g fill-rule="evenodd"><path fill="#a8fa8b" stroke="#000" stroke-width="1.984" d="m22.429 2.445h60.02c11.06 0 19.984 8.929 19.984 19.984v60.02c0 11.06-8.929 19.984-19.984 19.984h-60.02c-11.06 0-19.984-8.929-19.984-19.984v-60.02c0-11.06 8.929-19.984 19.984-19.984z"/><path fill="#fff" stroke="#555" stroke-width=".85" d="m19.736 58.961c0 3.26-2.657 5.917-5.917 5.917-3.26 0-5.917-2.657-5.917-5.917 0-3.26 2.657-5.882 5.917-5.882 3.26 0 5.917 2.622 5.917 5.882z"/><path fill="#c5ad09" d="m11.48 67.819h4.854v16.547l-2.516 3.862-2.339-3.862z"/></g><g stroke="#000"><path fill="none" stroke-width=".354" d="m9.744 64.59c1.878 2.161 1.311 1.524 1.665 3.331v16.512l2.339 3.898 2.516-3.898v-16.512c.354-1.701-.106-1.134 1.63-3.331z"/><g stroke-width=".461"><path d="m79.33 9.638c-.461 0-.85.496-.85 1.134v31.642c0 .638.39 1.134.85 1.134.496 0 .886-.496.886-1.134v-21.295l15.98-6.201-16.05-4.5c-.106-.461-.425-.78-.815-.78z"/><path d="m79.12 9.461c-.461 0-.85.496-.85 1.134v31.642c0 .638.39 1.134.85 1.134.496 0 .886-.496.886-1.134v-21.295l15.98-6.201-16.05-4.5c-.106-.461-.425-.78-.815-.78z"/></g><path stroke-dasharray="9.99213 9.99213" fill="none" stroke-width="4.996" d="m16.476 87.94c0 0 27.957-1.24 32.882-9.567 3.65-6.201-18.213-31.04-13.465-36.39 7.122-8.01 45.85 5.634 45.85 5.634"/></g><path fill="#fae675" stroke="#037200" stroke-width=".602" d="m91.24 74.23c-.709 3.295-7.512-.213-11.657.78-3.472.815-.638 9.886-5.102 8.681-5.28-1.488-5.74-8.291-8.504-11.445-2.339-2.728-7.406-3.154-8.646-6.165-1.382-3.331.921-6.732 4.677-6.661 6.272.142 7.406 6.02 12.437 6.378 14.244.992 18.07 2.374 16.795 8.433z"/></g></svg>