<svg xmlns="http://www.w3.org/2000/svg" viewBox="0 0 102 102"><g transform="translate(-1.438-1.438)"><path fill="#f74c42" fill-rule="evenodd" stroke="#000" stroke-width="1.984" d="m22.429 2.445h60.02c11.06 0 19.984 8.929 19.984 19.984v60.02c0 11.06-8.929 19.984-19.984 19.984h-60.02c-11.06 0-19.984-8.929-19.984-19.984v-60.02c0-11.06 8.929-19.984 19.984-19.984z"/><path fill="#4c49f8" stroke="#037200" stroke-width="1.594" d="m82.49 8.185c14.917 1.346 7.406 44.646 6.13 57.933-.957 10.63-4.465 20.764-10.843 26.26-7.122 6.13-18.602 8.858-21.508-.496-4.819-15.626 10.169-33.06 10.169-46.2 0-11.657-.035-38.941 16.05-37.488z"/></g></svg>