<svg xmlns="http://www.w3.org/2000/svg" viewBox="0 0 104.88 104.88"><defs><filter color-interpolation-filters="sRGB" id="a"><feGaussianBlur stdDeviation=".6"/></filter></defs><g stroke="#000" color="#000" transform="translate(-277.27-131.38)"><rect x="279.71" y="133.82" rx="20" fill-rule="evenodd" stroke-width="2" width="100" stroke-linecap="round" filter="url(#a)" fill="#2c9e06" height="100"/><path fill="#503700" d="m290.92 97.77c0 6.137-12.55 11.11-28.03 11.11-15.482 0-28.03-4.975-28.03-11.11 0-6.137 12.55-11.11 28.03-11.11 15.481 0 28.03 4.975 28.03 11.11z" transform="matrix(1.45141 0 0 1.45141-50.25 42.529)"/><path fill="#fff" stroke-width="1.153" d="m364.79 193.49c-2.889 2.801-13.816 7.22-33.722 7.22-19.906 0-29.729-4.767-34.08-7.729 10.177-9.785 20.354-13.269 35.08-12.985 16.514.318 25.994 1.768 32.725 13.494z"/></g></svg>