<svg xmlns="http://www.w3.org/2000/svg" viewBox="0 0 102 102"><g fill-rule="evenodd" transform="translate(-1.438-1.438)"><path fill="#a8fa8b" stroke="#000" stroke-width="1.984" d="m22.429 2.445h60.02c11.06 0 19.984 8.929 19.984 19.984v60.02c0 11.06-8.929 19.984-19.984 19.984h-60.02c-11.06 0-19.984-8.929-19.984-19.984v-60.02c0-11.06 8.929-19.984 19.984-19.984z"/><g fill="#1f6d04"><path d="m50.07 91.59h-3.402v-54.25l1.772-12.685 1.63 12.685z"/><path d="m47.3 91.42l-3.402.213-3.543-54.14.957-12.756 2.445 12.543z"/><path d="m57.19 91.35l-3.402-.177 2.48-54.18 2.374-12.579 1.063 12.756z"/><path d="m54.602 90.71h-3.402v-54.25l1.772-12.685 1.63 12.685z"/><path d="m42.27 91.1l-3.402.213-3.543-54.11.957-12.791 2.445 12.543z"/><path d="m61.41 90.92l-3.402-.177 2.516-54.18 2.339-12.579 1.063 12.72z"/><path d="m64.17 90.89l-3.402-.354 5.35-53.965 3.01-12.437.354 12.791z"/></g><path fill="#fff" stroke="#555" stroke-width="2.055" d="m64.843 73.843c0 7.76-6.272 14.03-14.03 14.03-7.76 0-14.03-6.272-14.03-14.03 0-7.76 6.272-14.03 14.03-14.03 7.76 0 14.03 6.272 14.03 14.03z"/><g fill="#1f6d04"><path d="m75.08 91.1h-3.437l.035-54.25 1.736-12.685 1.665 12.685z"/><path d="m72.32 90.92l-3.402.213-3.543-54.14.921-12.756 2.48 12.543z"/><path d="m82.2 90.85l-3.437-.177 2.516-54.18 2.339-12.579 1.063 12.72z"/><path d="m79.58 90.21h-3.402v-54.25l1.772-12.685 1.63 12.685z"/><path d="m67.29 90.6l-3.402.213-3.543-54.14.921-12.756 2.48 12.543z"/><path d="m86.42 90.39l-3.402-.142 2.48-54.18 2.374-12.579 1.028 12.72z"/><path d="m89.15 90.39l-3.402-.354 5.35-53.965 3.01-12.437.39 12.756z"/><path d="m24.09 90.6h-3.437v-54.25l1.772-12.685 1.665 12.685z"/><path d="m21.295 90.43l-3.402.213-3.543-54.14.957-12.756 2.445 12.543z"/><path d="m31.18 90.35l-3.402-.177 2.516-54.18 2.339-12.579 1.063 12.72z"/><path d="m28.594 89.72h-3.402v-54.25l1.772-12.685 1.63 12.685z"/><path d="m16.264 90.11l-3.402.213-3.543-54.14.957-12.756 2.445 12.543z"/><path d="m35.433 89.89l-3.437-.142 2.516-54.18 2.339-12.579 1.063 12.72z"/><path d="m38.16 89.89l-3.402-.354 5.35-53.965 3.01-12.437.39 12.756z"/></g></g></svg>