<svg xmlns="http://www.w3.org/2000/svg" viewBox="0 0 104.88 104.88"><defs><linearGradient id="a" y1="882.28" x1="188.92" y2="893.48" gradientUnits="userSpaceOnUse" x2="189.05"><stop stop-color="#594f03"/><stop offset="1" stop-color="#c5ad09"/></linearGradient><filter color-interpolation-filters="sRGB" id="b"><feGaussianBlur stdDeviation=".6"/></filter></defs><g color="#000" transform="translate(-512.87-65.44)"><g fill-rule="evenodd" stroke-width="2"><rect x="515.31" y="67.889" rx="20" width="100" stroke-linecap="round" filter="url(#b)" fill="#a8fa8b" height="100" stroke="#000"/><path fill="#fff" stroke="#555" d="m84.29 189.51c0 7.495-6.076 13.571-13.571 13.571-7.495 0-13.571-6.076-13.571-13.571 0-7.495 6.076-13.571 13.571-13.571 7.495 0 13.571 6.076 13.571 13.571z" transform="matrix(1.03455 0 0 1.03455 492.44-104.28)"/></g><g transform="matrix(.84667 0 0 .84667 417.01-541.26)"><g fill-rule="evenodd" transform="translate(39.648-23.23)"><path fill="#c5ad09" d="m129.3 795.78h13.637v46.47l-7.07 10.859-6.566-10.859z"/><path fill="url(#a)" d="m124.63 786.44c5.371 6.142 3.701 4.285 4.688 9.406h13.625c1.016-4.795-.268-3.189 4.656-9.406z"/></g><path fill="none" stroke="#000" d="m164.01 763.44c5.358 6.128 3.716 4.3 4.688 9.375.002.012-.002.019 0 .031v46.41l6.563 10.875 7.06-10.875v-46.44c1-4.752-.256-3.174 4.656-9.375z"/></g></g></svg>