<svg xmlns="http://www.w3.org/2000/svg" viewBox="0 0 102 102"><g transform="translate(-1.438-1.438)"><path fill="#f6ed31" fill-rule="evenodd" stroke="#000" stroke-width="1.984" d="m22.429 2.445h60.02c11.06 0 19.984 8.929 19.984 19.984v60.02c0 11.06-8.929 19.984-19.984 19.984h-60.02c-11.06 0-19.984-8.929-19.984-19.984v-60.02c0-11.06 8.929-19.984 19.984-19.984z"/><path fill="#4c49f8" stroke="#037200" stroke-width="1.594" d="m93.44 75.76c-5.953 13.713-44.717-7.02-56.941-12.402-9.744-4.252-18.319-10.736-21.508-18.531-3.579-8.681-2.587-20.445 7.228-20.232 16.335.319 28.17 19.984 40.642 24.13 11.09 3.65 37.03 12.189 30.579 27.04z"/></g></svg>